<svg xmlns="http://www.w3.org/2000/svg" xmlns:xlink="http://www.w3.org/1999/xlink" width="400" height="344.145" viewBox="0 0 400 344.145">
  <defs>
    <clipPath id="clip-path">
      <rect id="Rectángulo_418083" data-name="Rectángulo 418083" width="400" height="344.145" transform="translate(1020 5136.415)" fill="#27454a" stroke="#707070" stroke-width="1" opacity="0.38"/>
    </clipPath>
    <clipPath id="clip-path-2">
      <rect id="Rectángulo_418145" data-name="Rectángulo 418145" width="458.335" height="326.529" fill="none"/>
    </clipPath>
    <clipPath id="clip-path-3">
      <path id="Trazado_1050253" data-name="Trazado 1050253" d="M539.164,2311.133l-.392.588c-.147.539-.1.735-.637,1.029-2.157,1.177-5.539.98-7.989,1.568-2.059.539-6.47,1.177-8.038,1.912a2.115,2.115,0,0,1-1.617,1.372c-3.529,1.078-17.792,2.451-21.762,2.549,0,2.549-.049,5.1.049,7.6l.049.2c6.813-.049,13.381-.294,20.046,1.373,4.166,1.372,10.1,3.186,12.2,7.4a8.29,8.29,0,0,1,.49,5.636c6.372.147,12.793.049,19.164.049,11.714-.294,23.428-.147,35.142-.147,8.332,0,16.714-.2,25.046.1,0-.456,0-.307,0-.158,0,.476-.011.952-.048-18.271a11.653,11.653,0,0,1,3.355-.272c.588.005,1.154.011,1.645-.022.1-3.088-.1-6.274-.147-9.411a61.163,61.163,0,0,0-7.257-.2c-1.72.02-3.44.039-5.144-.042-1.372,0-2.7,0-4.068.049l-52.248.343a28.911,28.911,0,0,1-4.607,0l.245-.735a11.155,11.155,0,0,1-1.961-2.745h-.2Z" transform="translate(-498.716 -2310.888)" fill="none"/>
    </clipPath>
    <linearGradient id="linear-gradient" x1="-0.514" y1="0.752" x2="-0.513" y2="0.752" gradientUnits="objectBoundingBox">
      <stop offset="0" stop-color="#c98d1b"/>
      <stop offset="1" stop-color="#ffcd6e"/>
    </linearGradient>
  </defs>
  <g id="Enmascarar_grupo_1098760" data-name="Enmascarar grupo 1098760" transform="translate(-1020 -5136.415)" clip-path="url(#clip-path)">
    <g id="Rectángulo_418055" data-name="Rectángulo 418055" transform="translate(1116 5138.037)" fill="#27454a" stroke="#707070" stroke-width="1" opacity="0.38">
      <rect width="304" height="342.522" stroke="none"/>
      <rect x="0.5" y="0.5" width="303" height="341.522" fill="none"/>
    </g>
    <g id="Grupo_1207082" data-name="Grupo 1207082" transform="translate(1067.376 5154.031)">
      <g id="Grupo_1207083" data-name="Grupo 1207083" transform="translate(0 -0.001)">
        <g id="Grupo_1207082-2" data-name="Grupo 1207082" transform="translate(0 0)" clip-path="url(#clip-path-2)">
          <path id="Trazado_1050219" data-name="Trazado 1050219" d="M3317.121,1877.814c1.862.343,5.685.686,6.911,2.255.637.735.735,1.911,1.274,2.794l-.588.245c-.637-1.568-5.931-4.411-7.6-5.293" transform="translate(-2900.788 -1642.129)" fill="#d0dce9"/>
          <path id="Trazado_1050220" data-name="Trazado 1050220" d="M3205.045,1888.993c3.676,0,7.352-.1,10.979-.245-.784,1.078-6.519,3.529-8.038,3.823a14.5,14.5,0,0,0-2.941-3.578" transform="translate(-2802.778 -1651.69)" fill="#eea686"/>
          <path id="Trazado_1050221" data-name="Trazado 1050221" d="M3200.359,1827.7c3.039-.441,7.254-1.078,9.509-3.333.539-.588.784-.833.784-1.617a4.736,4.736,0,0,0,3.039.784c0,1.666.686,5.979-.392,7.156a11.161,11.161,0,0,1-1.373.392c-3.676.147-7.3.245-10.979.245-.441-1.225,0-2.451-.588-3.627" transform="translate(-2798.68 -1593.979)" fill="#e28e79"/>
          <path id="Trazado_1050222" data-name="Trazado 1050222" d="M3307.8,1365.856a3.1,3.1,0,0,1,2.107,1.323c2.5,2.941,4.215,6.568,8.577,6.911,3.578.294,8.332-2.108,9.558-4.117a6.085,6.085,0,0,1,.539,4.264,12.718,12.718,0,0,1-4.95,7.695,8.906,8.906,0,0,1-4.607,1.765c-.343.049-.686.049-1.029.1,2.6,6.519,1.96,15-.735,21.321a31.753,31.753,0,0,1-16.86,16.517,38.033,38.033,0,0,1-15,2.3,5.055,5.055,0,0,1-3.039-.784c2.157-1.764,1.617-10.587,1.52-13.43h1.078a10.424,10.424,0,0,0,6.911-2.941,4.775,4.775,0,0,0,1.52-2.99c4.313.2,10.734-4.068,13.675-7.3a22.988,22.988,0,0,0,5.931-16.714c-.2-4.411-1.764-10.832-5.2-13.92" transform="translate(-2870.394 -1194.427)" fill="#d23227"/>
          <path id="Trazado_1050223" data-name="Trazado 1050223" d="M49.682,1243.431a8.042,8.042,0,0,1,5.735-2.941c2.206-.049,3.725.931,5.293,2.353H61a10.669,10.669,0,0,0,2.353-.686c2.059-.588,5.1-.784,6.666.833,1.47,1.568,1.912,3.921,2.059,5.979,2.108,0,4.558-.1,6.176,1.519a5.633,5.633,0,0,1,1.47,3.235c2.255,2.549,2.745,3.774,2.794,7.107A7.4,7.4,0,0,1,81,1263.036l.343.49a10.111,10.111,0,0,1,.637,2.3,8.612,8.612,0,0,1-.98,3.48,46.805,46.805,0,0,1-5.1-2.843c1.372,4.068,2.843,8.969,3.088,13.282,0,.049.049.1.049.147.686,1.863,4.46,2.99,3.382,5.293a10.631,10.631,0,0,1-2.3,2.794,23.752,23.752,0,0,1,1.715,5.98,28.786,28.786,0,0,1-.441,10.832c-1.519,4.95-4.215,9.362-8.92,11.812a15.217,15.217,0,0,1-7.3,1.813c-2.892-.245-6.96.588-11.028.686-5.293.686-9.459-.2-13.773-3.431-.147-.637-.343-1.225-.539-1.813a7.769,7.769,0,0,1-5.98,1.422c-2.206-.539-3.431-1.96-4.509-3.823-2.255.1-4.362.2-6.225-1.274-2.255-1.764-2.6-4.607-2.941-7.2a4.575,4.575,0,0,1-.784-.2,8.525,8.525,0,0,1-5.293-3.676c-1.323-2.255-.931-4.509-.245-6.911a14.962,14.962,0,0,1-1.47-.931,6.8,6.8,0,0,1-2.647-4.754c-.2-2.451.882-4.215,2.353-6.029a12.918,12.918,0,0,1-1.715-2.843,7.228,7.228,0,0,1,.049-5.539c.882-1.813,2.5-2.6,4.313-3.186a7.922,7.922,0,0,1-1.666-3.627,5.98,5.98,0,0,1,1.127-4.607c1.372-1.765,3.186-2.206,5.293-2.4a14.54,14.54,0,0,1,.441-4.117c1.862-6.666,6.323-3.235,8.577-4.264,1.176-.539,1.568-4.019,3.725-5.146s4.8-.49,6.96.245c1.666-2.451,3.284-3.774,6.274-4.215a6.7,6.7,0,0,1,4.215,2.647" transform="translate(-8.494 -1084.794)" fill="#f3b795"/>
          <path id="Trazado_1050224" data-name="Trazado 1050224" d="M460.544,1694.4c.833-.441,8.577-.735,9.557-.392a.371.371,0,0,1,.2.1l.1.637a10.657,10.657,0,0,1-1.764.588c-2.745.588-5.686.588-8.087-.931" transform="translate(-402.741 -1481.263)" fill="#fefefe"/>
          <path id="Trazado_1050225" data-name="Trazado 1050225" d="M465.563,1569.7a4.976,4.976,0,0,1,1.225.294,3.329,3.329,0,0,1,1.078,1.715,4.608,4.608,0,0,1-.588,3.578,5.3,5.3,0,0,1-.882,0,1.861,1.861,0,0,1-1.176-.931c-.637-1.372-.049-3.284.343-4.656" transform="translate(-406.583 -1372.688)" fill="#212d45"/>
          <path id="Trazado_1050226" data-name="Trazado 1050226" d="M434.535,1511.5a1.362,1.362,0,0,1,.441-.049,2.724,2.724,0,0,1,2.108.637,1.765,1.765,0,0,1,.637,1.421c-.98,1.225-3.088.784-4.46,1.372-.049.049-.1.049-.2.1a9.121,9.121,0,0,1-1.372,1.029c-.637.049-.588.049-1.078-.343a2.221,2.221,0,0,1,.343-1.667c.735-1.568,2.058-2.01,3.578-2.5" transform="translate(-376.536 -1321.743)" fill="#212d45"/>
          <path id="Trazado_1050227" data-name="Trazado 1050227" d="M218.33,1657.567a4.178,4.178,0,0,1,2.6,1.519,6.705,6.705,0,0,1,1.813,4.362l-.343.294c-.735-.245-1.127-1.029-1.519-1.667a7.919,7.919,0,0,0-1.519-.1c-.882.1-1.421,1.176-1.912,1.813l-.588.049a1.835,1.835,0,0,1-.784-1.421,7.488,7.488,0,0,1,2.255-4.852" transform="translate(-188.954 -1449.525)" fill="#cd7952"/>
          <path id="Trazado_1050228" data-name="Trazado 1050228" d="M466.011,1742.9c1.96-.686,4.607-1.911,6.617-.833a8.248,8.248,0,0,1,1.421,1.177,12.753,12.753,0,0,0-.49,1.225,3.756,3.756,0,0,1-2.3,2.01,3.361,3.361,0,0,1-2.745-.2,5.486,5.486,0,0,1-2.5-3.382" transform="translate(-407.522 -1523.048)" fill="#ee5b59"/>
          <path id="Trazado_1050229" data-name="Trazado 1050229" d="M458.423,1704.894a21.129,21.129,0,0,1-1.078-6.519l.392-.2a10.546,10.546,0,0,0,8.087.882,12.4,12.4,0,0,0,1.764-.588,34.339,34.339,0,0,1-1.127,6.715,8.253,8.253,0,0,0-1.421-1.176c-2.01-1.029-4.656.2-6.617.882" transform="translate(-399.934 -1485.04)" fill="#d23227"/>
          <path id="Trazado_1050230" data-name="Trazado 1050230" d="M250.312,1733.334a10.762,10.762,0,0,1,3.97-1.961c2.3,5.881,4.509,11.518,10.685,14.312,1.127.49,4.558,1.372,5.244,2.01l-.1.147c-2.4.245-4.852.539-7.3.637-5.293.686-9.459-.2-13.773-3.431-.147-.637-.343-1.225-.539-1.814.882-2.6,2.6-7.254,1.814-9.9" transform="translate(-217.309 -1514.068)" fill="#c98635"/>
          <path id="Trazado_1050231" data-name="Trazado 1050231" d="M78.994,1346.721c2.255,2.549,2.745,3.774,2.794,7.107a7.4,7.4,0,0,1-1.519,2.206l.343.49a10.111,10.111,0,0,1,.637,2.3,8.611,8.611,0,0,1-.98,3.48,46.852,46.852,0,0,1-5.1-2.843l-.539-.49c-1.323,1.52-2.6,2.7-4.754,2.843a13.328,13.328,0,0,1-5.636-1.274,7.1,7.1,0,0,1-2.6,4.46c-2.4,1.618-5.587-.539-6.715.147l.392,2.4c-.637,1.862-1.421,3.382-3.333,4.215a9.455,9.455,0,0,1-5.1.441c1.225,4.411,2.451,9.067,0,13.282a2.964,2.964,0,0,1-1.47,1.421,2.417,2.417,0,0,1-2.108-.735c-2.058-1.716-4.068-4.656-7.107-4.362a5.91,5.91,0,0,0-3.872,2.6,8.744,8.744,0,0,0-1.764,6.176,7.788,7.788,0,0,0,3.284,5.391,7.684,7.684,0,0,0,6.96,1.029c.784,2.647-.931,7.254-1.764,9.852a7.77,7.77,0,0,1-5.98,1.421c-2.206-.539-3.431-1.96-4.509-3.823-2.255.1-4.362.2-6.225-1.274-2.255-1.764-2.6-4.607-2.941-7.2a4.609,4.609,0,0,1-.784-.2,8.526,8.526,0,0,1-5.293-3.676c-1.323-2.255-.931-4.509-.245-6.911a14.942,14.942,0,0,1-1.47-.931,6.8,6.8,0,0,1-2.647-4.754c-.2-2.451.882-4.215,2.353-6.029a12.914,12.914,0,0,1-1.715-2.843,7.228,7.228,0,0,1,.049-5.539c.882-1.813,2.5-2.6,4.313-3.186a6.86,6.86,0,0,1,1.764.637c.392.294-.588,4.166.931,6.176a4.68,4.68,0,0,0,3.284,1.764,6.487,6.487,0,0,0,5.1-1.764,7.778,7.778,0,0,0,2.892,2.745,5.114,5.114,0,0,0,4.068.147c2.255-.931,3.284-2.843,4.117-5a8.142,8.142,0,0,0,1.912.735,6.7,6.7,0,0,0,4.95-.882c2.549-1.667,3.382-4.411,3.97-7.254a17.888,17.888,0,0,0,2.745.882,8.06,8.06,0,0,0,6.078-1.225c2.205-1.519,2.843-3.627,3.284-6.127,1.862.98,3.97,1.667,6.078.98,2.058-.686,3.039-2.206,3.97-4.019a10.825,10.825,0,0,0,4.509,2.059c3.088-1.029,3.823-2.6,5.391-5.048" transform="translate(-7.81 -1177.693)" fill="#1a2b3b"/>
          <path id="Trazado_1050232" data-name="Trazado 1050232" d="M532.4,1423.419a4.743,4.743,0,0,0,.392-1.176c.882-1.078,3.578-.98,4.95-1.568l.294-.147.343.49a10.106,10.106,0,0,1,.637,2.3,8.611,8.611,0,0,1-.98,3.48,46.766,46.766,0,0,1-5.1-2.843Z" transform="translate(-465.577 -1242.236)" fill="#a4723b"/>
          <path id="Trazado_1050233" data-name="Trazado 1050233" d="M72.536,1243.431a8.042,8.042,0,0,1,5.735-2.941c2.206-.049,3.725.931,5.293,2.353h.294a10.669,10.669,0,0,0,2.353-.686c2.059-.588,5.1-.784,6.666.833,1.47,1.568,1.912,3.921,2.059,5.979,2.108,0,4.558-.1,6.176,1.519a5.633,5.633,0,0,1,1.47,3.235c-1.568,2.5-2.3,4.019-5.342,4.9a10.825,10.825,0,0,1-4.509-2.058c-.931,1.814-1.912,3.333-3.97,4.019-2.108.686-4.166.049-6.078-.98-.441,2.549-1.127,4.607-3.284,6.127a8.06,8.06,0,0,1-6.078,1.225,17.928,17.928,0,0,1-2.745-.882c-.588,2.794-1.421,5.587-3.97,7.254a6.553,6.553,0,0,1-4.95.882,7,7,0,0,1-1.912-.735c-.882,2.108-1.912,4.068-4.117,5a4.918,4.918,0,0,1-4.068-.147,8.586,8.586,0,0,1-2.892-2.745,6.668,6.668,0,0,1-5.1,1.765,4.6,4.6,0,0,1-3.284-1.765c-1.519-2.009-.539-5.881-.931-6.176a6.869,6.869,0,0,0-1.764-.637,7.924,7.924,0,0,1-1.667-3.627,5.98,5.98,0,0,1,1.127-4.607c1.372-1.764,3.186-2.205,5.293-2.4a14.54,14.54,0,0,1,.441-4.117c1.862-6.666,6.323-3.235,8.577-4.264,1.176-.539,1.568-4.019,3.725-5.146s4.8-.49,6.96.245c1.666-2.451,3.284-3.774,6.274-4.215a7.6,7.6,0,0,1,4.215,2.794" transform="translate(-31.349 -1084.794)" fill="#303d52"/>
          <path id="Trazado_1050234" data-name="Trazado 1050234" d="M131.143,1753.632a6.5,6.5,0,0,1,1.814,3.431c.931,4.852.49,10.44.539,15.39.049,7.009.245,13.969.245,20.978-.049,4.264-.49,12.89.049,16.615,3.48.147,7.107.147,10.538.588a34.326,34.326,0,0,1-3.578,4.411c1.421,4.558,1.715,9.607,3.529,13.969a2.115,2.115,0,0,1-1.617,1.372c-3.48,1.078-17.743,2.451-21.762,2.549,0,2.5-.049,5.048.049,7.6l.049.2H79.826c-4.166,0-8.871-.392-12.988.1.147-8.479.049-17.008,0-25.487,0-5.392-.49-11.077.49-16.321,1.96-10.538,8.528-18.086,17.155-23.967a38.022,38.022,0,0,1,6.127-5.441c-.1-1.715-.294-3.431-.49-5.2,4.313,3.235,8.479,4.117,13.773,3.431,4.019-.1,8.136-.931,11.028-.686a15.217,15.217,0,0,0,7.3-1.813c4.705-2.353,7.4-6.813,8.92-11.714" transform="translate(-58.342 -1533.533)" fill="#49922f"/>
          <path id="Trazado_1050235" data-name="Trazado 1050235" d="M171.567,2245.011c0-5.44.147-10.832.147-16.272,0-4.264-.147-8.479,0-12.744,5.048,8.529,10.244,16.125,17.2,23.232.784-1.814,1.519-3.627,2.255-5.441,2.058,2.6,4.019,4.46,7.45,4.9,4.313.49,9.558-.784,13.822-1.519,0,1.96-.539,5.979.245,7.646l.049.2Z" transform="translate(-150.034 -1937.865)" fill="#4ca54c"/>
          <path id="Trazado_1050236" data-name="Trazado 1050236" d="M181.7,2020.988a11.179,11.179,0,0,1,9.263,1.078c7.548,4.46,15.047,20,19.948,27.349,4.656-.686,9.361-.441,13.969-.98l-1.667-5.538c3.088,0,6.127.441,9.214.49,3.48.147,7.107.147,10.538.588a34.349,34.349,0,0,1-3.578,4.411c1.421,4.558,1.715,9.606,3.529,13.969a2.114,2.114,0,0,1-1.617,1.372c-3.48,1.078-17.743,2.451-21.762,2.549,0,2.5-.049,5.048.049,7.6-.784-1.666-.245-5.735-.245-7.646-4.264.735-9.558,2.01-13.822,1.519-3.431-.392-5.391-2.3-7.45-4.9-.882-1.912-2.941-3.823-4.215-5.588-4.852-6.862-11.518-16.37-13.773-24.408a14.785,14.785,0,0,1,1.618-11.861" transform="translate(-156.977 -1766.874)" fill="#74bf5b"/>
          <path id="Trazado_1050237" data-name="Trazado 1050237" d="M527.712,2199.2c3.088,0,6.127.441,9.214.49,3.48.147,7.107.147,10.538.588a34.312,34.312,0,0,1-3.578,4.411,4.05,4.05,0,0,0-1.47-.686c-3.088-.588-9.7.49-13.037.784Z" transform="translate(-461.479 -1923.18)" fill="#822b66"/>
          <path id="Trazado_1050238" data-name="Trazado 1050238" d="M245.032,1753.632a6.5,6.5,0,0,1,1.814,3.431c.931,4.852.49,10.44.539,15.39.049,7.009.245,13.969.245,20.978-.049,4.264-.49,12.89.049,16.615-3.088-.049-6.127-.441-9.214-.49l1.666,5.539c-4.656.539-9.312.343-13.969.98-4.9-7.352-12.351-22.889-19.948-27.349a11.2,11.2,0,0,0-9.263-1.078,76.328,76.328,0,0,1,4.754-8.234l-1.813-1.078a16.209,16.209,0,0,1-1.519-3.235,38.032,38.032,0,0,1,6.127-5.44c-.1-1.715-.294-3.431-.49-5.2,4.313,3.235,8.479,4.117,13.773,3.431,4.019-.1,8.136-.931,11.028-.686a15.214,15.214,0,0,0,7.3-1.813c4.705-2.4,7.4-6.862,8.92-11.763" transform="translate(-172.231 -1533.533)" fill="#4ca54c"/>
          <path id="Trazado_1050239" data-name="Trazado 1050239" d="M213.912,1839.935c4.313,3.235,8.479,4.117,13.773,3.431,4.019-.1,8.136-.931,11.028-.686-.049,3.676-.049,7.3-.049,10.979a15.935,15.935,0,0,0-5.882-5.1c1.47,2.5,2.4,4.607,1.617,7.548a14.505,14.505,0,0,1-1.078,2.745,50.984,50.984,0,0,0-6.96-4.705,56.975,56.975,0,0,1-3.137,5.244,98.108,98.108,0,0,1-11.616-4.509l-1.814-1.078a16.2,16.2,0,0,1-1.519-3.235,38.031,38.031,0,0,1,6.127-5.441,47.653,47.653,0,0,0-.49-5.2" transform="translate(-182.135 -1609.004)" fill="#fefefe"/>
          <path id="Trazado_1050240" data-name="Trazado 1050240" d="M214.4,1881.328l.637.833c-1.715,2.647-3.578,5.2-5.244,7.842a16.208,16.208,0,0,1-1.519-3.235,35.819,35.819,0,0,1,6.127-5.441" transform="translate(-182.134 -1645.202)" fill="#d0dce9"/>
          <path id="Trazado_1050241" data-name="Trazado 1050241" d="M253.184,1839.935c4.313,3.235,8.479,4.117,13.773,3.431a14.76,14.76,0,0,0,.539,3.872,2.583,2.583,0,0,1-2.157.98,17.728,17.728,0,0,1-8.332-.588,17.037,17.037,0,0,1-2.7-1.764l-.637-.833a48.273,48.273,0,0,0-.49-5.1" transform="translate(-221.407 -1609.004)" fill="#f3b795"/>
          <path id="Trazado_1050242" data-name="Trazado 1050242" d="M466.663,1753.632a6.5,6.5,0,0,1,1.814,3.431c.931,4.852.49,10.44.539,15.39.049,7.009.245,13.969.245,20.978-.049,4.264-.49,12.89.049,16.615-3.088-.049-6.127-.441-9.214-.49-3.186-10.44-5.342-21.271-9.7-31.368,0-3.676,0-7.3.049-10.979a15.214,15.214,0,0,0,7.3-1.813c4.705-2.4,7.4-6.862,8.92-11.763" transform="translate(-393.862 -1533.533)" fill="#8d4383"/>
          <path id="Trazado_1050244" data-name="Trazado 1050244" d="M3062.137,2289.411c.049,0,.1.049.147.049,2.059.833,3.921,2.157,6.029,3.039a27.881,27.881,0,0,0,20.291.147c5.343-2.156,9.116-5.979,12.5-10.489a20.73,20.73,0,0,0,2.647-4.068,2.033,2.033,0,0,0,.1-.784,4.046,4.046,0,0,1,.49,1.274,90.482,90.482,0,0,1,.1,9.656c0,3.48.343,7.352-.1,10.783-3.088.2-6.225.049-9.361.049-1.47,0,7.646.049-29.261-.1a58.264,58.264,0,0,1-8.283-.245c.1-.147.2-.343.294-.49.539-1.421.343-5.735-.147-7.205a3.969,3.969,0,0,1,.686,2.451,4.627,4.627,0,0,0-.2-2.451Z" transform="translate(-2673.692 -1991.479)" fill="#567cb6"/>
          <path id="Trazado_1050246" data-name="Trazado 1050246" d="M2865.9,2448.348a58.3,58.3,0,0,0,8.283.245c36.907.147,27.79.1,29.261.1,3.088,0,6.274.147,9.362-.049l.245.1c1.912,0,11.273-.49,12.449.245.637,1.52.2,3.578-.392,5.1a13.416,13.416,0,0,1-6.764,7.156,3.41,3.41,0,0,1-.637.245,6.612,6.612,0,0,1-3.186.735c-.2.1-70.775.637-76.166.049,1.274-1.274,2.01-5,3.48-6.862a16.583,16.583,0,0,1,5.587-4.509c4.706-2.451,9.116-2.4,14.263-2.4a28.876,28.876,0,0,0,4.117-.1.149.149,0,0,0,.1-.049" transform="translate(-2482.114 -2141.055)" fill="#285687"/>
          <path id="Trazado_1050247" data-name="Trazado 1050247" d="M3357.633,2450.357c1.912,0,11.273-.49,12.449.245.637,1.519.2,3.578-.392,5.1a13.413,13.413,0,0,1-6.764,7.156,3.39,3.39,0,0,1-.637.245,6.61,6.61,0,0,1-3.186.736c-2.647-.588-9.264-.1-12.3-.147.343-.147.637-.294.98-.441a20.1,20.1,0,0,0,9.852-12.891" transform="translate(-2926.743 -2142.671)" fill="#303d52"/>
          <path id="Trazado_1050248" data-name="Trazado 1050248" d="M2883.792,2020.034c1.323-1.225,2.206-3.823,2.99-5.44,2.058-4.362,9.067-20.242,11.763-22.84,4.068-3.823,11.077-2.6,13.724,3.186a8.7,8.7,0,0,1,.833,3.774,6.563,6.563,0,0,1-.049.98c-.245,3.088-12.2,25.781-14.459,29.408a12.257,12.257,0,0,1-2.254,2.745c-3.039,2.548-6.372,2.843-10.195,2.5-4.068-.392-8.185-1.176-12.2-1.863-5.587-.882-11.224-1.715-16.762-2.745-4.362-.833-8.969-1.961-13.429-2.353a2.338,2.338,0,0,0,.343-.588c.441-1.471,1.225-6.96.588-8.283-.049-.1-.1-.147-.1-.245-.833-1.715-4.656-6.862-6.225-7.4.686-.2,1.47-.1,2.205-.245,4.754-.588,10.832-.147,15.684-.147a92.489,92.489,0,0,0,9.753.1,18.619,18.619,0,0,0,.147-7.548c.588,1.225.637,14.165.147,15.488-.049.1-.049.147-.1.245,2.99.882,13.772.98,17.6,1.274" transform="translate(-2482.114 -1739.845)" fill="#567cb6"/>
          <path id="Trazado_1050249" data-name="Trazado 1050249" d="M2866,2104.828a18.619,18.619,0,0,0,.147-7.548c.588,1.225.637,14.165.147,15.488-.049.1-.049.147-.1.245-1.373.882-17.057-.882-20-.931-.833,0-.931.147-1.52.686-.049-.1-.1-.147-.1-.245-.833-1.716-4.656-6.862-6.224-7.4.686-.2,1.47-.1,2.205-.245,4.754-.588,10.832-.147,15.684-.147a80.909,80.909,0,0,0,9.753.1" transform="translate(-2482.114 -1834.049)" fill="#bf852d"/>
          <path id="Trazado_1050250" data-name="Trazado 1050250" d="M104.562,2310.547a11.145,11.145,0,0,0,1.96,2.745l-.245.735a28.941,28.941,0,0,0,4.607,0l52.248-.343c1.372-.049,2.7-.049,4.068-.049,4.117.2,8.332-.2,12.4.245.049,3.137.245,6.323.147,9.41-1.47.1-3.627-.147-5,.294.049,25.242.049,16.518.049,18.429,3.578-.147,11.616.392,14.508-.343,14.655.294,29.408.049,44.112.049,11.763,0,23.624.392,35.338.1.588,0,.882.049,1.274-.392a1.7,1.7,0,0,0,.441.392c.98.49,23.33.1,26.222,0,7.254,0,14.557.2,21.811,0,9.655-.294,19.36.343,29.016-.2,2.892.1,5.833.1,8.724.049,5.391.588,75.97.1,76.166-.049a6.486,6.486,0,0,0,3.186-.735c3.333,1.421,11.224-.98,14.214.588a3.026,3.026,0,0,1,.686,4.215,2.15,2.15,0,0,1-1.421.833c-3.382.588-7.5.2-10.979.2-.1,0-33.427,0-310.6.2H59.813c-17.056-.049-34.162-.294-51.219,0-2.108.049-5.784.539-7.5-.882a2.944,2.944,0,0,1-.49-4.068,3.2,3.2,0,0,1,1.519-.882c2.794-.588,9.263.294,12.743-.1-4.46-3.382-6.372-6.568-6.323-13.331,4.117-.49,8.822-.1,12.988-.1H62.7l-.049-.2c-.1-2.5-.049-5.048-.049-7.6,3.97-.1,18.233-1.47,21.762-2.549a2.115,2.115,0,0,0,1.617-1.372c1.569-.735,5.98-1.373,8.038-1.912,2.451-.588,5.832-.392,7.989-1.569.539-.294.49-.49.637-1.029l.392-.588,1.323-.245Z" transform="translate(0 -2020.506)" fill="#92c1e2"/>
          <path id="Trazado_1050251" data-name="Trazado 1050251" d="M121.893,2445.409c6.813,0,13.381-.294,20.046,1.372,4.166,1.372,10.1,3.235,12.2,7.4a8.29,8.29,0,0,1,.49,5.636c-6.764-.343-13.724-.1-20.536-.1H96.357c-5.146,0-15.684.637-20.144-.1a20.258,20.258,0,0,1-2.206-.833c-4.46-3.382-6.372-6.568-6.323-13.332,4.117-.49,8.822-.1,12.988-.1Z" transform="translate(-59.189 -2138.312)" fill="#285687"/>
          <path id="Trazado_1050252" data-name="Trazado 1050252" d="M68.076,2445.849c4.117-.49,8.822-.1,12.988-.1,0,4.509.637,8.381,3.97,11.714a15.633,15.633,0,0,0,3.235,2.451,116.621,116.621,0,0,0-11.714.1,20.148,20.148,0,0,1-2.206-.833c-4.411-3.333-6.323-6.568-6.274-13.332" transform="translate(-59.531 -2138.654)" fill="#303d52"/>
        </g>
      </g>
      <g id="Grupo_1207085" data-name="Grupo 1207085" transform="translate(62.594 290.04)">
        <g id="Grupo_1207084" data-name="Grupo 1207084" clip-path="url(#clip-path-3)">
          <rect id="Rectángulo_418146" data-name="Rectángulo 418146" width="119.484" height="80.697" transform="matrix(0.897, -0.441, 0.441, 0.897, -12.809, 6.294)" fill="url(#linear-gradient)"/>
        </g>
      </g>
      <g id="Grupo_1207087" data-name="Grupo 1207087" transform="translate(0 -0.001)">
        <g id="Grupo_1207086" data-name="Grupo 1207086" transform="translate(0 0)" clip-path="url(#clip-path-2)">
          <path id="Trazado_1050254" data-name="Trazado 1050254" d="M759.327,2310.889a11.148,11.148,0,0,0,1.961,2.745l-.245.735a114.31,114.31,0,0,1-12.3,0c2.451-.588,5.833-.392,7.989-1.568.539-.294.49-.49.637-1.029l.392-.588,1.323-.245Z" transform="translate(-654.765 -2020.848)" fill="#822b66"/>
          <path id="Trazado_1050255" data-name="Trazado 1050255" d="M508.272,2422.136l43.18-.343-.049.294c-.539,1.177-.294,2.99-.245,4.313-7.058.049-14.116-.2-21.125-.245a78.432,78.432,0,0,0-10.734.2c-6.666-1.667-13.234-1.422-20.046-1.373l-.049-.2c2.941-.147,5.882-.049,8.822-.049Z" transform="translate(-436.55 -2117.833)" fill="#bf852d"/>
          <path id="Trazado_1050256" data-name="Trazado 1050256" d="M659.314,2456.272a87.134,87.134,0,0,1,10.734-.2c7.058.049,14.116.294,21.125.245v12.989c-6.372,0-12.792.1-19.164-.049a8.291,8.291,0,0,0-.49-5.636c-2.108-4.117-8.038-5.98-12.2-7.352" transform="translate(-576.563 -2147.753)" fill="#eeb54c"/>
          <path id="Trazado_1050257" data-name="Trazado 1050257" d="M883.466,2336.224l52.248-.343c1.274.735,2.745,1.47,3.137,2.99a5.876,5.876,0,0,1-.441,4.362c-.049.1-.147.2-.2.294a1.068,1.068,0,0,1-.2.245l-.245.245c-.1.1-.2.147-.245.2-.1.049-.2.147-.294.2l-.294.147-.294.147a3.016,3.016,0,0,1-.343.1c-2.5.539-5.588.245-8.185.245L913.609,2345c-6.617,0-13.381.392-19.948.2a5.47,5.47,0,0,1-2.353-.49c-1.323-1.323-1.029-3.725-.98-5.44a8.862,8.862,0,0,0-.147-2.794l-.245-.147c-2.156-.049-4.313-.049-6.47-.1" transform="translate(-772.582 -2042.704)" fill="#067652"/>
          <path id="Trazado_1050258" data-name="Trazado 1050258" d="M951.375,2349.549a4.216,4.216,0,0,1,1.912.441,2.69,2.69,0,0,1,.882.784,2.46,2.46,0,0,1,.441,2.353,3.508,3.508,0,0,1-1.911,2.01,3.344,3.344,0,0,1-2.843-1.274,2.494,2.494,0,0,1-.392-1.96,3.31,3.31,0,0,1,1.911-2.353" transform="translate(-830.247 -2054.656)" fill="#fefefe"/>
          <path id="Trazado_1050259" data-name="Trazado 1050259" d="M912.784,2415.939c5.735.294,11.518.245,17.253.294,14.116.1,28.232-.294,42.3-1.078.049,25.241.049,16.517.049,18.429-8.332-.294-16.714-.1-25.046-.1-11.714,0-23.428-.147-35.142.147v-12.989a11.539,11.539,0,0,1,.245-4.313l.049-.294Z" transform="translate(-797.636 -2112.028)" fill="#bf852d"/>
          <path id="Trazado_1050260" data-name="Trazado 1050260" d="M915.05,2415.939c5.735.294,11.518.245,17.253.294,14.116.1,28.232-.294,42.3-1.078v5.636c-6.421.588-13.185-.049-19.605-.049l-40.24-.2c0-1.421,0-2.794-.049-4.215l.049-.294Z" transform="translate(-799.902 -2112.028)" fill="#a4723b"/>
          <path id="Trazado_1050261" data-name="Trazado 1050261" d="M2170.489,327.562h74.892l25.781-.049c4.411,0,8.92-.147,13.283.049,1.274.049,3.627.1,4.607,1.029a4.744,4.744,0,0,1,1.471,2.7,78.407,78.407,0,0,1,.147,9.607c-.049,61.854-.049,53.179-.049,54.012.049,6.029.245,12.155.147,18.184a5.136,5.136,0,0,1-.245,1.47c0-.1-.049-.2-.049-.294-.98-2.6-5.979-5.784-8.528-6.764a2.4,2.4,0,0,0,.2-.539c.539-2.206.1-15.1.147-18.331.049-16.811.441-33.672.049-50.483a3.127,3.127,0,0,0-.392-1.764l-71.314.049c-13.479,0-26.957-.245-40.436.147a78.858,78.858,0,0,0,.294-9.018" transform="translate(-1897.813 -286.36)" fill="#f7cd67"/>
          <path id="Trazado_1050266" data-name="Trazado 1050266" d="M2200.867,1553.3a34.488,34.488,0,0,0,5.539,2.794,12.779,12.779,0,0,0,5.734.98,9.617,9.617,0,0,0,7.009-3.627c6.911-.147,13.92-.147,20.831,0,7.548.245,45.145,0,52.693.049.343.735-9.51,1.519-9.8,2.255a1.765,1.765,0,0,1-.49.735,1.694,1.694,0,0,0-1.274-.343c-1.323.441-1.716,1.519-2.3,2.7-.49,1.029-.833,2.6-1.765,3.235l-.147-.441a10.563,10.563,0,0,0-5.686,1.421l-.147-.343c-10.44-.147-40.929.1-51.368.1-11.273,0-22.546-.294-33.77,0-.392-3.137-.833-6.225-1.274-9.312,5.391,0,10.783-.049,16.223-.2" transform="translate(-1910.448 -1358.345)" fill="#f7cd67"/>
          <path id="Trazado_1050277" data-name="Trazado 1050277" d="M1207.589,2105.742c2.4-.931,4.754-1.372,7.2-.245a7.42,7.42,0,0,1,3.921,4.411,7.721,7.721,0,0,1-.392,6.078,14.816,14.816,0,0,1-2.4,3.136c-2.108.2-4.166.245-6.274.245.441-3.235,1.225-7.548-.1-10.636-.441-1.029-1.421-1.764-1.862-2.745-.049-.1-.1-.147-.1-.245" transform="translate(-1056.024 -1840.649)" fill="#ee5b59"/>
          <path id="Trazado_1050278" data-name="Trazado 1050278" d="M1082.285,2103.928c2.059-.392,4.068-.882,6.176-.441a13.2,13.2,0,0,1,4.166.049c1.813.1,3.676.049,5.342.882.049.1.049.147.1.245.441,1.029,1.421,1.715,1.862,2.745,1.323,3.088.49,7.352.1,10.636l-5.784.147c-1.127-.049-2.255,0-3.382,0-1.176.049-2.4.049-3.578.049a25.929,25.929,0,0,0,.1-8.479c-.686-3.48-2.549-3.774-5.146-5.538Z" transform="translate(-946.404 -1839.325)" fill="#dd6280"/>
          <path id="Trazado_1050279" data-name="Trazado 1050279" d="M1131.83,2103.715a13.206,13.206,0,0,1,4.166.049,8.67,8.67,0,0,1,2.794,6.47,20.175,20.175,0,0,1-1.225,8.185c-1.127-.049-2.255,0-3.382,0,.735-2.892,1.519-5.93,1.078-8.92a8.325,8.325,0,0,0-3.431-5.783" transform="translate(-989.773 -1839.553)" fill="#f3b795"/>
          <path id="Trazado_1050280" data-name="Trazado 1050280" d="M1165.023,2105.091c1.814.1,3.676.049,5.342.882.049.1.049.147.1.245.441,1.029,1.421,1.715,1.862,2.745,1.323,3.088.49,7.352.1,10.636l-5.783.147a20.173,20.173,0,0,0,1.225-8.185c-.245-2.549-.882-4.754-2.843-6.47" transform="translate(-1018.8 -1840.88)" fill="#dd6280"/>
          <path id="Trazado_1050281" data-name="Trazado 1050281" d="M956.013,2059.69c1.715,0,4.9-.441,6.127.882a3.584,3.584,0,0,1,.735,2.01c-.245.686-.392.784-1.029,1.127a21.165,21.165,0,0,0-2.745,1.47l-.049.343.245.147-.147.294c2.6,1.764,4.46,2.107,5.146,5.538a25.929,25.929,0,0,1-.1,8.479c-7.5-.147-15,.049-22.546-.049.392-4.313.049-8.871,0-13.185a16.744,16.744,0,0,0,3.137,0c4.068-3.039,5.44-6.568,11.224-7.058" transform="translate(-823.465 -1801.116)" fill="#f3b795"/>
          <path id="Trazado_1050282" data-name="Trazado 1050282" d="M961.177,1701.3c8.969,9.8,9.067,18.968,10.391,31.368.49,4.509,1.274,9.116,1.519,13.675-5.784.49-7.156,4.019-11.175,7.156-.392-17.449-.637-34.8-.735-52.2" transform="translate(-840.539 -1487.772)" fill="#8d4383"/>
          <path id="Trazado_1050283" data-name="Trazado 1050283" d="M808.05,1555.533a32.633,32.633,0,0,1,3.823-.294,23.063,23.063,0,0,0,9.7-3.578l31.319-.049c5,0,10.048-.2,15,.049-1.176,2.99-1.568,5.734-.245,8.724a2.628,2.628,0,0,1,.245.539c-7.891.147-15.782.049-23.673.049l-33.035.049a21.929,21.929,0,0,1-3.088-2.941,10.938,10.938,0,0,1-.392-2.205Z" transform="translate(-706.331 -1356.803)" fill="#f7cd67"/>
          <path id="Trazado_1050284" data-name="Trazado 1050284" d="M899.988,2216.784c3.725-.2,7.989-1.029,11.028,1.617a6.8,6.8,0,0,1,2.3,4.754,7.518,7.518,0,0,1-2.157,5.783,11.192,11.192,0,0,1-3.872,2.5c-1.372,0-2.7,0-4.068.049l-52.248.343a28.911,28.911,0,0,1-4.607,0l.245-.735a8.3,8.3,0,0,0,3.382-1.912c.392-3.48.98-6.96-1.029-10l-.392-.245c-.588-.294-1.225-.245-1.617-.833l.147-.49c1.667-.98,4.754-.637,6.617-.637l.2.049c1.47.1,2.941.1,4.411.1,7.5.1,15-.1,22.546.049,1.176,0,2.4.049,3.578-.049,1.127,0,2.255-.049,3.382,0l5.783-.147a45.612,45.612,0,0,0,6.372-.2" transform="translate(-740.14 -1938.31)" fill="#39afd3"/>
          <path id="Trazado_1050285" data-name="Trazado 1050285" d="M1286.081,2233.665c2.156-.049,5.244-.441,7.156.784,1.569,1.029,2.01,2.794,2.4,4.46a9.18,9.18,0,0,1-1.813,3.97c-2.3,1.764-5,1.421-7.744,1.421.1-3.48.049-7.058,0-10.636" transform="translate(-1124.664 -1953.231)" fill="#cee4d4"/>
          <path id="Trazado_1050286" data-name="Trazado 1050286" d="M867.455,2235.941c7.891.049,15.733,0,23.624-.1,4.068-.049,8.283-.343,12.351-.049a3.429,3.429,0,0,1,2.108.588c1.372,1.519,1.225,4.8,1.029,6.666a3,3,0,0,1-.49,1.618,5.549,5.549,0,0,1-2.941.98,72.986,72.986,0,0,1-9.263.1H876.326a59.738,59.738,0,0,0-7.842.147c.392-3.382.98-6.862-1.029-9.949" transform="translate(-758.58 -1955.065)" fill="#fefefe"/>
          <path id="Trazado_1050287" data-name="Trazado 1050287" d="M593.566,1587.72a27.031,27.031,0,0,0,7.646,1.421,10.552,10.552,0,0,0,7.891-3.039,11.57,11.57,0,0,0,.392,2.206,21.917,21.917,0,0,0,3.088,2.941c1.47,1.127,3.088,2.255,4.46,3.48,4.215,1.029,8.136,2.6,11.224,5.784.049,17.4.343,34.8.735,52.2a22.344,22.344,0,0,1-3.137,0c.049,4.313.392,8.92,0,13.184-1.47,0-2.941-.049-4.411-.1l-.2-.049c-1.912,0-5-.343-6.617.637l-.147.49c.392.588,1.029.539,1.617.833l.392.245c2.01,3.039,1.421,6.519,1.029,10a8.913,8.913,0,0,1-3.382,1.911,10.3,10.3,0,0,1-1.96-2.745l-.245.049-1.323.245-.392.588c-.147.539-.1.735-.637,1.029-2.157,1.177-5.587.98-7.989,1.569-2.059.539-6.47,1.225-8.038,1.912-1.862-4.411-2.108-9.411-3.529-13.969a34.325,34.325,0,0,0,3.578-4.411c-3.48-.441-7.058-.441-10.538-.588-.539-3.774-.049-12.351-.049-16.615,0-7.009-.147-13.969-.245-20.978-.049-4.95.441-10.538-.539-15.39a6.689,6.689,0,0,0-1.813-3.431,30.957,30.957,0,0,0,.441-10.832c2.843-.784,5.882-1.225,8.773-1.813a19.533,19.533,0,0,0,4.166-5Z" transform="translate(-507.581 -1387.031)" fill="#ba69a4"/>
          <path id="Trazado_1050288" data-name="Trazado 1050288" d="M657.084,1587.72a27.032,27.032,0,0,0,7.646,1.421,10.552,10.552,0,0,0,7.891-3.039,11.575,11.575,0,0,0,.392,2.206,21.924,21.924,0,0,0,3.088,2.941c1.47,1.127,3.088,2.255,4.46,3.48-2.451,2.156-4.313,5.1-6.372,7.548-2.255-1.47-4.509-2.941-6.911-4.313-2.7,1.519-5,3.872-7.5,5.685-2.108-3.088-4.117-6.519-6.715-9.214a19.528,19.528,0,0,0,4.166-5Z" transform="translate(-571.099 -1387.031)" fill="#fefefe"/>
          <path id="Trazado_1050289" data-name="Trazado 1050289" d="M685.087,1587.72a27.032,27.032,0,0,0,7.646,1.421,10.552,10.552,0,0,0,7.891-3.039,11.57,11.57,0,0,0,.392,2.206c-.98,2.255-2.108,5-4.558,6.029a5.153,5.153,0,0,1-4.166-.245,23.034,23.034,0,0,1-7.009-4.656Z" transform="translate(-599.101 -1387.031)" fill="#eea686"/>
          <path id="Trazado_1050290" data-name="Trazado 1050290" d="M599.165,2070.335l26.026,2.353c3.627.343,7.4.392,11.028.882a2.184,2.184,0,0,1,1.421.588,4.05,4.05,0,0,1,.2,1.863,21.188,21.188,0,0,1,4.313.147c.049,4.313.392,8.92,0,13.185-1.47,0-2.941-.049-4.411-.1l-.2-.049c-1.911,0-5-.343-6.617.637l-.147.49c.392.588,1.029.539,1.617.833l.392.245c2.01,3.039,1.421,6.519,1.029,10a8.909,8.909,0,0,1-3.382,1.912,10.3,10.3,0,0,1-1.961-2.745l-.245.049-1.323.245-.392.588c-.147.539-.1.735-.637,1.029-2.157,1.176-5.587.98-7.989,1.568-2.059.539-6.47,1.225-8.038,1.912-1.862-4.411-2.108-9.41-3.529-13.969a34.323,34.323,0,0,0,3.578-4.411c-3.48-.441-7.058-.441-10.538-.588-.686-3.774-.2-12.4-.2-16.664" transform="translate(-523.815 -1810.486)" fill="#b25494"/>
          <path id="Trazado_1050291" data-name="Trazado 1050291" d="M906.4,2115.378a21.171,21.171,0,0,1,4.313.147c.049,4.313.392,8.92,0,13.184-1.47,0-2.941-.049-4.411-.1a119.091,119.091,0,0,1,.1-13.234" transform="translate(-792.428 -1849.844)" fill="#fefefe"/>
          <path id="Trazado_1050292" data-name="Trazado 1050292" d="M660.841,2177.743c.588-.735,1.127-1.47,1.764-2.206.784-.98,1.667-2.01,2.99-2.107a1.909,1.909,0,0,1,1.225,1.225,3.887,3.887,0,0,1-.392,3.039c2.206,0,5.146-.343,7.254.392a39.357,39.357,0,0,1,4.166-.1c2.059-.049,8.92-.392,10.489.2a4.942,4.942,0,0,1,.245,1.225c-1.911,0-5-.343-6.617.637l-.147.49c.392.588,1.029.539,1.617.833l.392.245c2.01,3.039,1.421,6.519,1.029,10a8.911,8.911,0,0,1-3.382,1.912,10.3,10.3,0,0,1-1.961-2.745l-.245.049-1.323.245-.392.588c-.147.539-.1.735-.637,1.03-2.157,1.176-5.587.98-7.989,1.568-2.059.539-6.47,1.225-8.038,1.911-1.863-4.411-2.108-9.411-3.529-13.969,1.225-1.421,2.353-2.941,3.48-4.46" transform="translate(-574.855 -1900.642)" fill="#f3b795"/>
          <path id="Trazado_1050293" data-name="Trazado 1050293" d="M773.078,2296.831c.441.637.931,1.225,1.421,1.813l-1.323.245-.392.588-.147-.686c-1.127-.931-4.8-.49-6.323-.539,2.205-.637,4.509-.735,6.764-1.421" transform="translate(-670.134 -2008.555)" fill="#ba69a4"/>
          <path id="Trazado_1050294" data-name="Trazado 1050294" d="M714.872,2206.456c2.206,0,5.146-.343,7.254.392-3.137.49-6.225,1.03-9.312,1.716Z" transform="translate(-623.348 -1929.453)" fill="#822b66"/>
          <path id="Trazado_1050295" data-name="Trazado 1050295" d="M775.228,2264.028c.539,1.323-.1,3.872.49,5.881l-.245.049c-.49-.588-.931-1.226-1.421-1.813a3.124,3.124,0,0,0,.49-.882,1.131,1.131,0,0,0-.1-1.177c-1.715-.882-5,.1-6.96.2,2.549-.882,5.293-1.078,7.744-2.255" transform="translate(-671.157 -1979.869)" fill="#b2305e"/>
          <path id="Trazado_1050296" data-name="Trazado 1050296" d="M777.176,2208.354c2.058-.049,8.92-.392,10.489.2a4.943,4.943,0,0,1,.245,1.225c-1.911,0-5-.343-6.617.637l-.147.49c.392.588,1.029.539,1.617.833-1.225.049-2.206,0-3.088.98a8.164,8.164,0,0,0-.784,1.029c-2.353-1.225-5.391-.2-7.891.2,1.715-.833,3.627-1.127,5.244-1.912a2.909,2.909,0,0,0,1.716-1.764,3.205,3.205,0,0,0-.784-1.912" transform="translate(-674.231 -1931.056)" fill="#822b66"/>
          <path id="Trazado_1050297" data-name="Trazado 1050297" d="M833.6,2235.911l.392.245c2.01,3.039,1.421,6.519,1.029,10a8.914,8.914,0,0,1-3.382,1.911,10.3,10.3,0,0,1-1.961-2.745c-.588-2.01.049-4.558-.49-5.882l.588-1.568c.245-.343.49-.687.784-1.029.833-.931,1.813-.882,3.039-.931" transform="translate(-725.114 -1955.281)" fill="#dd6280"/>
          <path id="Trazado_1050298" data-name="Trazado 1050298" d="M1467.38,1866.88c5.146.98,10.195,2.255,15.341,2.941,20.732,2.941,48.866,3.039,68.814-2.745a76.308,76.308,0,0,1,1.666,8.087c2.647,20.536,1.225,40.485-1.519,60.874-.784,5.735-1.372,11.812-2.745,17.4-.441.441-.686.343-1.274.392-11.714.294-23.624-.1-35.338-.1-14.7,0-29.408.245-44.112-.049-3.97-17.007-6.617-45.533-5.489-63.031a111.523,111.523,0,0,1,2.745-17.988c.637-1.911,1.274-3.823,1.911-5.783" transform="translate(-1278.908 -1632.567)" fill="#285687"/>
          <path id="Trazado_1050299" data-name="Trazado 1050299" d="M1488.324,1866.88c5.146.98,10.195,2.255,15.341,2.941,20.733,2.941,48.866,3.039,68.814-2.745a76.339,76.339,0,0,1,1.666,8.087,56.115,56.115,0,0,1-8.381,3.284c-19.654,6.274-47.445,6.029-67.1-.392a85.541,85.541,0,0,1-12.253-5.44q.956-2.794,1.911-5.734" transform="translate(-1299.853 -1632.567)" fill="#303d52"/>
          <path id="Trazado_1050300" data-name="Trazado 1050300" d="M333.824,377.635c.294-1.372-.441-2.7-.735-4.019a8.189,8.189,0,0,1,1.225-5.931c2.255-3.431,6.127-4.264,9.9-5.048.392,3.235.343,6.568-1.47,9.411-1.765,2.745-4.362,3.627-7.4,4.362l-.539.2-.294,1.078Z" transform="translate(-291.166 -317.122)" fill="#4ca54c"/>
          <path id="Trazado_1050301" data-name="Trazado 1050301" d="M344.613,399.144l-.441-.294c.2-.637.784-.882,1.029-1.52,1.176-2.99,1.519-6.911,4.313-8.92h.392a3.325,3.325,0,0,1-.2,2.647c-1.029,2.892-2.892,5.293-4.509,7.891Z" transform="translate(-300.975 -339.66)" fill="#17906d"/>
          <path id="Trazado_1050302" data-name="Trazado 1050302" d="M1156.342,110.759c3.676.833,7.45,1.323,11.126,2.108-.784,4.411-1.323,8.871-2.255,13.233-1.519-.343-10-1.666-10.587-2.4l-.147-.245Z" transform="translate(-1009.581 -96.857)" fill="#f7cd67"/>
          <path id="Trazado_1050303" data-name="Trazado 1050303" d="M1044.448,113.883a122.7,122.7,0,0,0,4.558,12.253l.147.245c-.441.686-8.92,4.215-10.538,5.2-1.715-4.362-3.137-8.822-4.8-13.184,3.578-1.372,7.107-2.892,10.636-4.509" transform="translate(-904.058 -99.589)" fill="#39afd3"/>
          <path id="Trazado_1050304" data-name="Trazado 1050304" d="M241.551,403.395c-.49-1.666-2.7-9.263-3.48-10.195l-.147-.147.343-.245-.343-.735.2-.147c2.01,1.323,2.6,9.557,4.46,11.273l.637.049c5.1.784,10.832.294,15.978.245,0,1.519.49,4.705-.539,5.784a5.964,5.964,0,0,1-1.617.049c-7.352-.49-14.949-.147-22.35-.2h-3.431c-.294,0-.539.049-.833.049a1.579,1.579,0,0,1-1.225-.343c-.882-.931-.392-4.215-.392-5.587Z" transform="translate(-199.971 -342.735)" fill="#ba69a4"/>
          <path id="Trazado_1050305" data-name="Trazado 1050305" d="M249.279,529.165h3.431c7.4,0,15-.294,22.35.2a16.735,16.735,0,0,1-.2,2.206c-.392,2.843-.686,5.784-1.225,8.626-.392,2.451-.784,4.9-1.225,7.352-.147,1.274-.392,2.6-.49,3.921-6.764.147-13.626.049-20.438-.1-.833-7.45-1.568-14.8-2.206-22.2" transform="translate(-217.992 -462.673)" fill="#eeb54c"/>
          <path id="Trazado_1050306" data-name="Trazado 1050306" d="M403.239,635.994a2.127,2.127,0,0,1,1.568.784,2.286,2.286,0,0,1-.539,1.666,1.523,1.523,0,0,1-1.225,0l-.294-.539a5.247,5.247,0,0,1,.49-1.911" transform="translate(-352.2 -556.17)" fill="#f7cd67"/>
          <path id="Trazado_1050307" data-name="Trazado 1050307" d="M414.779,549.6a15.494,15.494,0,0,1,3.333-.686c-.392,2.843-.686,5.784-1.225,8.626-.637-1.372-3.529-1.863-3.823-3.774-.245-1.47.931-3.039,1.715-4.166" transform="translate(-361.191 -480.016)" fill="#f7cd67"/>
          <path id="Trazado_1050308" data-name="Trazado 1050308" d="M132.009,705.212c19.36.441,19.7-.049,33.427-.1a47.038,47.038,0,0,1,.049,5.881l7.7.049c.049,1.814.147,3.578.1,5.391H112.6V711c1.47,0,4.607.441,5.882-.2l-.049-5.685Z" transform="translate(-98.468 -616.615)" fill="#92c1e2"/>
          <path id="Trazado_1050309" data-name="Trazado 1050309" d="M172.989,705.212c19.36.441,19.7-.049,33.427-.1a56,56,0,0,0-.147,5.734c-5.539,0-45.386.539-46.758-.049l-.049-5.685Z" transform="translate(-139.447 -616.615)" fill="#809eb9"/>
          <path id="Trazado_1050310" data-name="Trazado 1050310" d="M705.289,329.856a7.244,7.244,0,0,1,3.284-1.372c4.362-.441,8.969-.2,13.381-.2h23.183l34.7-.1c6.617,0,13.332-.245,19.948.2a80.293,80.293,0,0,0,.294,8.43c-.637,0,8.087,0-77-.049-2.353,0-4.9-.245-7.254-.1a3.8,3.8,0,0,0-2.5.882,2.62,2.62,0,0,0-.49,1.716c-.49,7.254-.049,14.753-.049,22.056V405.63c-2.941-.049-5.833-.049-8.773,0,0-.735,0,8.087-.049-63.129,0-2.99-.147-6.029.147-9.018a8.125,8.125,0,0,1,1.176-3.627" transform="translate(-615.579 -286.939)" fill="#f7cd67"/>
          <path id="Trazado_1050311" data-name="Trazado 1050311" d="M444.438,923.585c8.234-1.519,10.979-3.382,18.086-7.2a26.779,26.779,0,0,1-2.3,11.224l-1.568,5A40.9,40.9,0,0,0,461,929.025a12.091,12.091,0,0,1-.2,9.508,17.93,17.93,0,0,1-3.774,5c-.1,3.333-.686,6.519-2.843,9.165-.343-2.4-.294-4.9-.588-7.352-2.794,1.323-5.637,2.549-8.528,3.627-11.028,2.794-20.684,3.284-31.711.294-.392,1.813-1.127,7.7-2.5,8.773a3.845,3.845,0,0,0-2.108.147c.1,6.421,1.225,12.939-.637,19.262-.049-3.333-.49-4.558-2.794-7.107a5.779,5.779,0,0,0-1.47-3.235c-1.617-1.666-4.019-1.568-6.176-1.519-.2-2.059-.588-4.411-2.059-5.98-1.568-1.666-4.656-1.47-6.666-.833a8.089,8.089,0,0,1-2.353.686h-.294l-.343-6.862a7.979,7.979,0,0,1-3.235-2.745,4.359,4.359,0,0,1-.343-3.578c.882-2.745,3.333-4.215,5.734-5.441-1.323-.931-2.647-1.764-3.039-3.431a2.783,2.783,0,0,1,.245-2.255,2.458,2.458,0,0,1,1.617-.98c1.519-.2,2.745.686,3.823,1.568a20.8,20.8,0,0,1-.392-2.99,3.885,3.885,0,0,1,1.176-2.647,1.56,1.56,0,0,1,1.47-.049c1.225.637,1.715,2.3,2.157,3.48,1.078-1.568,1.47-3.431,2.7-4.9,5.832-6.911,16.223-7.94,24.7-8.577,2.941-.049,5.833-.049,8.773,0a51.468,51.468,0,0,0,15.684-2.255,21.156,21.156,0,0,1-2.6,5.783" transform="translate(-334.19 -801.365)" fill="#a4723b"/>
          <path id="Trazado_1050312" data-name="Trazado 1050312" d="M426.7,1023.94c-.343-1.666-1.372-3.137-1.814-4.8a1.813,1.813,0,0,1,.1-1.519c.98-.1,2.451.784,3.431,1.176a23.544,23.544,0,0,0,7.058,1.569,22.758,22.758,0,0,0,4.509-.147,20.476,20.476,0,0,0,3.529-.735,25.312,25.312,0,0,0,3.382-1.274,24.535,24.535,0,0,0,3.137-1.764,21.291,21.291,0,0,0,2.843-2.255,23.962,23.962,0,0,0,1.912-1.961c1.372-1.568,3.235-5.2,5.048-6.029l-1.568,5a40.823,40.823,0,0,0,2.353-3.578,12.091,12.091,0,0,1-.2,9.509,17.925,17.925,0,0,1-3.774,5c-.1,3.333-.686,6.519-2.843,9.165-.343-2.4-.294-4.9-.588-7.352-2.794,1.323-5.636,2.549-8.528,3.627-11.028,2.794-20.684,3.284-31.711.294-.392,1.814-1.127,7.7-2.5,8.773a3.844,3.844,0,0,0-2.108.147c.1,6.421,1.225,12.939-.637,19.262-.049-3.333-.49-4.558-2.794-7.107a5.779,5.779,0,0,0-1.47-3.235c-1.617-1.666-4.019-1.568-6.176-1.519-.2-2.059-.588-4.411-2.058-5.98-1.569-1.666-4.656-1.47-6.666-.833a8.088,8.088,0,0,1-2.353.686h-.294l-.343-6.862a7.978,7.978,0,0,1-3.235-2.745,4.359,4.359,0,0,1-.343-3.578c.882-2.745,3.333-4.215,5.735-5.441-1.323-.931-2.647-1.764-3.039-3.431a2.782,2.782,0,0,1,.245-2.255,2.459,2.459,0,0,1,1.617-.98c1.519-.2,2.745.686,3.823,1.568a20.828,20.828,0,0,1-.392-2.99,3.886,3.886,0,0,1,1.176-2.647,1.56,1.56,0,0,1,1.47-.049c1.225.637,1.715,2.3,2.156,3.48.2,1.323.147,2.647.392,3.97a34.66,34.66,0,0,0,3.97,10.538,11.975,11.975,0,0,0,2.843,2.6c1.519,1.078,4.313,2.794,6.274,2.4.2-.2.49-.294.588-.588,1.372-3.382-2.549-11.028-3.872-14.214,6.96,4.656,13.086,7.793,21.713,7.107" transform="translate(-333.849 -879.909)" fill="#875a2c"/>
          <path id="Trazado_1050313" data-name="Trazado 1050313" d="M580.217,1150.8c2.892-1.078,5.735-2.255,8.528-3.627.294,2.451.245,4.9.588,7.352a55.652,55.652,0,0,0,3.578,12.939l.931,1.911c2.4,5.734,3.872,10.979,1.372,17.057-2.108,5.146-5.931,8.724-10.587,11.616a23.31,23.31,0,0,1-9.7,3.578,19.8,19.8,0,0,0-3.823.294l-.245.343a10.409,10.409,0,0,1-7.891,3.039,27.032,27.032,0,0,1-7.646-1.421l.245,1.765a20.4,20.4,0,0,1-4.166,5c-2.892.588-5.931,1.029-8.773,1.813a23.752,23.752,0,0,0-1.716-5.979,10.3,10.3,0,0,0,2.3-2.794c1.078-2.353-2.7-3.431-3.382-5.293,0-.049-.049-.1-.049-.147-.245-4.313-1.715-9.214-3.088-13.282a51.964,51.964,0,0,0,5.1,2.843,8.4,8.4,0,0,0,.98-3.48,9.469,9.469,0,0,0-.637-2.3l-.343-.49a7.076,7.076,0,0,0,1.519-2.205c1.862-6.274.735-12.842.637-19.262a3.845,3.845,0,0,1,2.108-.147c1.372-1.078,2.108-6.96,2.5-8.773,10.979,2.99,20.634,2.451,31.662-.343" transform="translate(-469.332 -1003.189)" fill="#f3b795"/>
          <path id="Trazado_1050314" data-name="Trazado 1050314" d="M578.287,1442.786a43.544,43.544,0,0,0,2.7,5.2,14.776,14.776,0,0,1-3.676-1.716,8.4,8.4,0,0,0,.98-3.48" transform="translate(-504.849 -1261.701)" fill="#768866"/>
          <path id="Trazado_1050315" data-name="Trazado 1050315" d="M707.543,1232.54a5.915,5.915,0,0,1,.931,0,1.815,1.815,0,0,1,1.323.882,3.477,3.477,0,0,1-.049.735c-.588.686-2.941.637-4.019,1.96a.677.677,0,0,0-.147.2,1.707,1.707,0,0,1-.637.539l-.441-.1a1.347,1.347,0,0,1-.294-1.275c.49-1.617,2.01-2.255,3.333-2.941" transform="translate(-615.774 -1077.824)" fill="#212d45"/>
          <path id="Trazado_1050316" data-name="Trazado 1050316" d="M733.694,1294.783a3.782,3.782,0,0,1,1.274.343,2.523,2.523,0,0,1,1.323,1.666,3.38,3.38,0,0,1-.784,2.843,3.736,3.736,0,0,1-1.274-.1,2.757,2.757,0,0,1-1.225-1.715,3.709,3.709,0,0,1,.686-3.039" transform="translate(-640.945 -1132.274)" fill="#212d45"/>
          <path id="Trazado_1050317" data-name="Trazado 1050317" d="M906.487,1245.97a4.809,4.809,0,0,1,.784.245,1.582,1.582,0,0,1,.931,1.078,7.393,7.393,0,0,1-.833.49c.147.637.49.833,1.029,1.225l.294.2a3.31,3.31,0,0,1-.245,2.058,2.707,2.707,0,0,1-.882.1,2.022,2.022,0,0,1-1.568-.833,3.208,3.208,0,0,1-.637-2.647,2.406,2.406,0,0,1,1.127-1.911" transform="translate(-791.682 -1089.588)" fill="#212d45"/>
          <path id="Trazado_1050318" data-name="Trazado 1050318" d="M701.219,1365.858a6.406,6.406,0,0,1,2.549.147,1.835,1.835,0,0,1,1.127,1.127,2.575,2.575,0,0,1-.2.882,4.17,4.17,0,0,1-3.088,1.422,7.17,7.17,0,0,1-2.058-.2,1.925,1.925,0,0,1-1.225-1.078,1.221,1.221,0,0,1,.147-.833,3.593,3.593,0,0,1,2.745-1.47" transform="translate(-610.675 -1194.38)" fill="#e28e79"/>
          <path id="Trazado_1050319" data-name="Trazado 1050319" d="M843.588,1301.136a6.866,6.866,0,0,1,4.411.637c2.255,1.323,2.5,4.068.931,6.126-1.225,1.667-2.843,2.108-4.8,2.4a2.059,2.059,0,0,1-1.274-.588l.1-.343c1.96-.882,4.656-1.617,5.048-3.235,1.029-3.823-3.186-2.99-4.411-5" transform="translate(-737.066 -1137.745)" fill="#cd7952"/>
          <path id="Trazado_1050320" data-name="Trazado 1050320" d="M940.59,1309.232l.931,1.911a10.508,10.508,0,0,1-2.01,2.156,3.563,3.563,0,0,1-5.1-1.617,1.2,1.2,0,0,1,.1-1.274c2.108-1.764,3.921-.686,5.783-1.078a1.934,1.934,0,0,1,.294-.1" transform="translate(-817.012 -1144.91)" fill="#e28e79"/>
          <path id="Trazado_1050321" data-name="Trazado 1050321" d="M578.825,1267.6c1.862-6.274.735-12.841.637-19.262a3.845,3.845,0,0,1,2.108-.147l-.1.2c-1.372,4.656,1.323,17.939-2.451,21.566a14.059,14.059,0,0,0-1.372.343l-.343-.49a8.439,8.439,0,0,0,1.519-2.206" transform="translate(-504.848 -1091.465)" fill="#eea686"/>
          <path id="Trazado_1050322" data-name="Trazado 1050322" d="M815.078,1413.355l.147-.2a1.818,1.818,0,0,1,.98-.833c.294.539,0,1.078-.147,1.667-.686,2.009-1.813,4.264-3.823,5.244a4.493,4.493,0,0,1-3.725,0,9.757,9.757,0,0,1-4.852-4.656,17.96,17.96,0,0,1-.637-2.157,27.306,27.306,0,0,1,3.333,1.813c1.617-.147,3.284-.147,4.95-.294a19.519,19.519,0,0,1,3.774-.588" transform="translate(-702.234 -1235.064)" fill="#ee5b59"/>
          <path id="Trazado_1050323" data-name="Trazado 1050323" d="M829.185,1421.36c1.617-.147,3.284-.147,4.95-.294a34.17,34.17,0,0,1,3.823-.539,6.7,6.7,0,0,1-4.95,2.059,6.577,6.577,0,0,1-3.823-1.225" transform="translate(-725.114 -1242.236)" fill="#fefefe"/>
          <path id="Trazado_1050324" data-name="Trazado 1050324" d="M681.963,1546.662a47.2,47.2,0,0,0,7.548,2.941c1.569.441,7.793.882,8.626,1.715l-.245.343A10.41,10.41,0,0,1,690,1554.7a27.035,27.035,0,0,1-7.646-1.422c-.147-2.01-.294-4.019-.392-6.029Z" transform="translate(-596.369 -1352.54)" fill="#e28e79"/>
          <path id="Trazado_1050325" data-name="Trazado 1050325" d="M612.707,1176.363c11.028,3.039,20.684,2.5,31.711-.294l.441.588c1.372-.147,3.235-.245,4.362.735a1.679,1.679,0,0,1,.588,1.323,3.276,3.276,0,0,1-.245.931c-3.725.147-7.45-.049-11.224.1-8.676.245-15.1,1.127-23.82-1.127-.49,1.911-.833,5.538-2.549,6.715a5.935,5.935,0,0,1-1.862,0l.1-.2c1.372-1.078,2.107-6.96,2.5-8.773" transform="translate(-533.534 -1028.46)" fill="#eea686"/>
          <path id="Trazado_1050326" data-name="Trazado 1050326" d="M880.151,1180.11c1.372-.147,3.235-.245,4.362.735a1.678,1.678,0,0,1,.588,1.323,3.275,3.275,0,0,1-.245.931c-.245-.1-.49-.245-.686-.343-1.323-.637-4.166-.392-5-1.422.2-.637.441-.784.98-1.225" transform="translate(-768.826 -1031.913)" fill="#212d45"/>
          <path id="Trazado_1050327" data-name="Trazado 1050327" d="M536.3,1447.863a51.893,51.893,0,0,0,5.1,2.843,14.774,14.774,0,0,0,3.676,1.715,33.976,33.976,0,0,0,9.46,7.842v.588c-5,.343-10.195-.343-15.145.343-.2-4.362-1.666-9.264-3.088-13.332" transform="translate(-468.991 -1266.141)" fill="#79bba4"/>
          <path id="Trazado_1050328" data-name="Trazado 1050328" d="M576.441,1550.958c.1,2.01.2,4.019.392,6.029l.245,1.764a20.4,20.4,0,0,1-4.166,5c-2.892.588-5.93,1.029-8.773,1.813a23.756,23.756,0,0,0-1.715-5.979,10.306,10.306,0,0,0,2.3-2.794c1.078-2.353-2.7-3.431-3.382-5.293,0-.049-.049-.1-.049-.147,4.95-.735,10.146-.049,15.145-.392" transform="translate(-490.848 -1356.297)" fill="#cee4d4"/>
          <path id="Trazado_1050329" data-name="Trazado 1050329" d="M773.4,465.245V420.937c0-7.3-.392-14.8.049-22.056.049-.588.049-1.323.49-1.715a3.8,3.8,0,0,1,2.5-.882c2.353-.147,4.852.1,7.254.1,85.087.049,76.362.049,77,.049.588,4.754.784,10.587,2.745,15-1.421,2.352-2.206,4.656-1.519,7.45a8.643,8.643,0,0,0,4.068,5.2c2.99,1.421,4.607,1.519,7.7.441,3.578,9.557,9.9,18.723,19.458,23.085a1.036,1.036,0,0,0,.343.147v3.676c0,2.059.049,4.166-.1,6.225a34.368,34.368,0,0,0-3.578,3.48l-.686-.98a1.427,1.427,0,0,0-1.421.441,12.233,12.233,0,0,0-3.137,4.656l-.833.392c-4.068,1.96-13.136,5.587-17.547,6.274-2.843,4.852-4.852,10.734-7.009,15.929l-11.42,27.594c-1.862,4.411-3.529,9.018-5.587,13.381-1.078,3.137-2.157,6.274-3.284,9.361a22.771,22.771,0,0,1-1.078,3.235c-4.95-.245-10-.049-15-.049l-31.319.049c4.656-2.892,8.479-6.47,10.587-11.616,2.5-6.078,1.029-11.273-1.372-17.056l-.931-1.912a53.961,53.961,0,0,1-3.578-12.94c2.157-2.647,2.745-5.832,2.843-9.165a18.924,18.924,0,0,0,3.774-5,11.886,11.886,0,0,0,.2-9.509c-.735,1.274-1.519,2.4-2.353,3.578l1.568-5a26.936,26.936,0,0,0,2.3-11.224c-7.107,3.823-9.852,5.636-18.086,7.2a26.9,26.9,0,0,0,2.647-5.784,51.464,51.464,0,0,1-15.684,2.255" transform="translate(-676.185 -346.505)" fill="#067652"/>
          <path id="Trazado_1050330" data-name="Trazado 1050330" d="M1127.874,956.993l.686.2.294.49c-.784,2.059-9.312,7.989-11.371,9.607-.294-.049-.147,0-.49-.2-.392-.2-.294-.245-.392-.637.98-1.96,9.067-7.94,11.273-9.459" transform="translate(-976.456 -836.88)" fill="#17906d"/>
          <path id="Trazado_1050331" data-name="Trazado 1050331" d="M1074.957,909.741a.9.9,0,0,1,.637.392c.245.294.245.147.2.49-.2,1.568-9.068,8.283-10.734,9.557l-.588-.245-.2-.539c.735-2.156,8.528-8.087,10.685-9.656" transform="translate(-930.695 -795.559)" fill="#17906d"/>
          <path id="Trazado_1050332" data-name="Trazado 1050332" d="M1413.1,617.64c2.99,1.421,4.607,1.519,7.7.441,3.578,9.557,9.9,18.723,19.458,23.085a1.037,1.037,0,0,0,.343.147v3.676c0,2.059.049,4.166-.1,6.225a34.357,34.357,0,0,0-3.578,3.48l-.686-.98a1.427,1.427,0,0,0-1.422.441,12.233,12.233,0,0,0-3.137,4.656l-.833.392c-11.665-2.6-21.909-7.352-31.907-13.773,6.96-7.842,10.391-18.184,14.165-27.79" transform="translate(-1223.358 -540.12)" fill="#1a2b3b"/>
          <path id="Trazado_1050333" data-name="Trazado 1050333" d="M912.721,453.112c0-1.862-.245-3.725,1.274-5.146a2.19,2.19,0,0,1,1.323-.588,2.309,2.309,0,0,1,1.666,1.078c.98,1.372.784,2.99.735,4.558,3.137,0,18.625-.539,20.487.343.441.2.49.49.637.931.588,2.108.392,29.849.147,33.182a2.4,2.4,0,0,1-3.186,3.039c-8.577.294-17.3-.049-25.879,0-4.705,0-12.743.49-17.057-.147-.343-.245-.441-.294-.588-.686a13.317,13.317,0,0,1-.588-3.039c-.294-4.215-.441-30.731.539-33.035,2.7-1.176,16.909-.539,20.487-.49" transform="translate(-779.585 -391.226)" fill="#fefefe"/>
          <path id="Trazado_1050334" data-name="Trazado 1050334" d="M1059.818,453.112c0-1.862-.245-3.725,1.274-5.146a2.19,2.19,0,0,1,1.323-.588,2.309,2.309,0,0,1,1.667,1.078c.98,1.372.784,2.99.735,4.558v1.47c0,1.127.2,2.7-.686,3.529a2.98,2.98,0,0,1-3.921-.049c-.833-1.078-.441-3.48-.392-4.852" transform="translate(-926.682 -391.226)" fill="#eeb54c"/>
          <path id="Trazado_1050335" data-name="Trazado 1050335" d="M944.335,690.779c7.646-.147,15.341-.049,23.036-.049,3.088,0,8.087-.441,10.93.147a2.717,2.717,0,0,1,.294,1.96c-7.5.2-15,0-22.5,0-3.578,0-8.087.49-11.518-.1-.441-.49-.294-1.274-.245-1.96" transform="translate(-825.756 -603.897)" fill="#92c1e2"/>
          <path id="Trazado_1050336" data-name="Trazado 1050336" d="M944.641,635.609c6.96-.1,13.92,0,20.88-.049,4.019,0,8.332-.392,12.3,0a1.288,1.288,0,0,1,.735.343,2.845,2.845,0,0,1,.147,1.911c-4.46-.049-32.055.392-33.917-.245a5.237,5.237,0,0,1-.147-1.96" transform="translate(-826.062 -555.638)" fill="#92c1e2"/>
          <path id="Trazado_1050337" data-name="Trazado 1050337" d="M944.668,578.206c7.5,0,15,0,22.448.049,3.186,0,8.528-.49,11.518.245a2.967,2.967,0,0,1,.2,1.961c-3.137.245-32.594.49-33.868.1-.2-.049-.294-.2-.441-.294a3.639,3.639,0,0,1,.147-2.058" transform="translate(-825.893 -505.538)" fill="#92c1e2"/>
          <path id="Trazado_1050338" data-name="Trazado 1050338" d="M1318.774,8.656A42.958,42.958,0,0,1,1350.583.471a31.951,31.951,0,0,1,21.026,12.792c4.509.147,7.891,2.549,11.077,5.489,5.93,6.568,8.381,13.822,9.214,22.5,0,3.039,0,5.98-.245,9.018,13.429-.392,26.957-.147,40.436-.147l71.216-.049a3.124,3.124,0,0,1,.392,1.765c.392,16.811,0,33.672-.049,50.483,0,3.235.392,16.125-.147,18.331a2.4,2.4,0,0,1-.2.539c2.549,1.029,7.548,4.166,8.528,6.764a.624.624,0,0,1,.049.294l.98,1.029a.9.9,0,0,0,.833-.294c1.078-1.078,1.568-4.068,3.333-4.313.98,1.274.2,5.048,0,6.617,1.029.049,1.911-.539,2.99-.294a1.726,1.726,0,0,1,.343,1.372c-.441.931-2.549,1.519-2.156,2.5.294.637.833.588,1.323.931a11.743,11.743,0,0,1,7.548,5,19.335,19.335,0,0,1,3.97,13.871c-.2,1.274-.539,3.627-1.47,4.509a2.1,2.1,0,0,1-.147,1.715,2.149,2.149,0,0,1-.294.343c5.048.588,13.381,1.519,17.645,4.264a34.39,34.39,0,0,1,6.617,3.872,16.07,16.07,0,0,0,2.157,1.568c.147.049.294,0,.441.049l.049-.294a12.324,12.324,0,0,1,8.969-4.509,12.119,12.119,0,0,1,9.018,3.088c1.323,1.274,3.039,3.676,2.99,5.588a3.912,3.912,0,0,1-.147.735c-1.225,2.01-5.98,4.411-9.557,4.117-4.362-.343-6.029-3.97-8.577-6.911a2.994,2.994,0,0,0-2.107-1.323c3.431,3.137,5,9.558,5.2,13.969a22.854,22.854,0,0,1-5.931,16.713c-2.941,3.235-9.361,7.5-13.675,7.3a4.776,4.776,0,0,1-1.519,2.99,10.424,10.424,0,0,1-6.911,2.941h-1.078c.1,2.843.637,11.665-1.519,13.43a1.812,1.812,0,0,1-.784,1.617c-2.255,2.3-6.47,2.892-9.508,3.333-1.225-.637-6.519-.637-8.038-.539-1.274-1.372-5.1-1.029-10.489-6.764a14.748,14.748,0,0,0-2.647-2.6c-.049-1.568-2.647-5.489-3.235-7.5a14.208,14.208,0,0,1-.441-3.529l-.049-.931a.651.651,0,0,0-.147-.392,59.339,59.339,0,0,1-2.451-5.735l.049-1.176-.294-.343c-1.421-.441-3.235-.147-4.754-.2a1.941,1.941,0,0,0,.588-1.127,4.034,4.034,0,0,0-.735-3.088,4.946,4.946,0,0,0-3.97-2.059.371.371,0,0,1-.2.1c-2.059,1.372-3.137,6.568-5.98,6.127-3.039-.49-4.215-2.745-6.421-4.362a3.356,3.356,0,0,0-.539-1.47,1.312,1.312,0,0,0,.49-.735,2.774,2.774,0,0,0-.2-2.255c-7.548,0-15.145.2-22.693-.049-6.911-.147-13.92-.147-20.831,0a9.618,9.618,0,0,1-7.009,3.627,13.49,13.49,0,0,1-5.734-.98,34.491,34.491,0,0,1-5.538-2.794c-5.391.147-10.832.2-16.223.147.49,3.088.882,6.225,1.274,9.312,1.127,9.166,2.206,18.429,3.921,27.5-2.206.931-4.46,1.912-6.764,2.647-20,5.784-48.082,5.685-68.814,2.745-5.2-.735-10.244-2.01-15.341-2.941-1.862-.588-3.725-1.225-5.489-1.961,1.176-6.176,2.255-12.449,3.137-18.674-5.244-1.323-17.351-3.578-21.37-6.274a14.636,14.636,0,0,1-3.039-3.235,2.636,2.636,0,0,1-.245-.539c-1.323-2.99-.931-5.784.245-8.724a22.74,22.74,0,0,0,1.078-3.235c1.127-3.137,2.206-6.225,3.284-9.361,2.059-4.313,3.725-8.92,5.588-13.381l11.42-27.594c2.157-5.2,4.166-11.126,7.009-15.929,4.411-.686,13.43-4.313,17.547-6.274l.833-.392a11.22,11.22,0,0,1,3.137-4.656,1.427,1.427,0,0,1,1.422-.441l.686.98a34.339,34.339,0,0,1,3.578-3.48c.147-2.059.1-4.166.1-6.225V101.34a1.04,1.04,0,0,1-.343-.147c-9.557-4.362-15.88-13.528-19.458-23.085-3.088,1.078-4.705.98-7.7-.441a8.643,8.643,0,0,1-4.068-5.2c-.735-2.745.1-5.1,1.519-7.45-1.96-4.411-2.156-10.244-2.745-15-.294-2.794-.245-5.636-.294-8.43,0-.882,0-1.765.049-2.647.637-12.4,6.029-22.252,15.194-30.29" transform="translate(-1119.225 0.001)" fill="#067652"/>
          <path id="Trazado_1050339" data-name="Trazado 1050339" d="M2455.621,1030.8a11.057,11.057,0,0,0,2.108,1.176,25.405,25.405,0,0,1-2.892,6.176,6.607,6.607,0,0,1-2.3-.882c.882-2.156,2.01-4.313,3.088-6.47" transform="translate(-2144.715 -901.423)" fill="#fefefe"/>
          <path id="Trazado_1050340" data-name="Trazado 1050340" d="M2439.586,548.52c1.029.343,1.765,1.715,2.4,2.549-3.137,2.794-6.126,5.784-9.214,8.626a14.454,14.454,0,0,1-2.5-2.7c3.039-2.941,6.126-5.734,9.312-8.479" transform="translate(-2125.249 -479.675)" fill="#17906d"/>
          <path id="Trazado_1050341" data-name="Trazado 1050341" d="M2520.883,740.65l3.284,2.255-6.372,10.342a51.3,51.3,0,0,0-3.872,6.764,13.076,13.076,0,0,0,1.274.441c-1.863,1.274-3.725,2.4-5,4.411-.049.686.049,1.323-.441,1.813l-1.568-1.862a5.283,5.283,0,0,1-1.765.1,72.068,72.068,0,0,0,3.921-6.813c3.48-5.882,6.715-11.812,10.538-17.449" transform="translate(-2191.842 -647.691)" fill="#fefefe"/>
          <path id="Trazado_1050342" data-name="Trazado 1050342" d="M2526.216,894.646a13.132,13.132,0,0,0,1.274.441c-1.862,1.274-3.725,2.4-5,4.411-.049.686.049,1.323-.441,1.813l-1.568-1.862a6.274,6.274,0,0,1,.049-.931,5.628,5.628,0,0,1,2.549-3.872c1.127-.049,2.157-.049,3.137,0" transform="translate(-2204.134 -782.326)" fill="#e28e79"/>
          <path id="Trazado_1050343" data-name="Trazado 1050343" d="M2597.558,516.888l.392.049a5.175,5.175,0,0,1,1.961,2.5c-.441,1.667-20.831,20.683-23.674,23.526l-2.646-2.647c5.979-6.127,12.4-11.861,18.478-17.89,1.764-1.666,4.264-3.529,5.489-5.539" transform="translate(-2250.578 -452.013)" fill="#17906d"/>
          <path id="Trazado_1050344" data-name="Trazado 1050344" d="M2455.192,910.29c-1.421-1.127-2.941-2.549-3.137-4.46-.245-2.353,3.186-10.587,4.705-12.645a1.042,1.042,0,0,1,1.127-.049c1.127,1.372.882,3.333,1.078,5a10.652,10.652,0,0,0,1.764-.1l1.569,1.862a1.957,1.957,0,0,0-.2,1.814,2.559,2.559,0,0,0,.98,1.715,4.011,4.011,0,0,0,3.186.294,10.087,10.087,0,0,0,3.774-1.863c.2-.147.147-.1.49-.2l.2.294c-.245.735-.931,1.078-1.617,1.421a28.886,28.886,0,0,1-4.509,1.568l.2.343-.294-.049-.049.294a6.561,6.561,0,0,1-2.7,4.656,7.937,7.937,0,0,1-4.46,1.323,14.8,14.8,0,0,1-2.108-1.225" transform="translate(-2144.286 -780.914)" fill="#eea686"/>
          <path id="Trazado_1050345" data-name="Trazado 1050345" d="M2272.343,454.8a12.183,12.183,0,0,1,2.353,2.157c-3.578,2.892-6.715,6.421-10.048,9.558-5.048,4.9-10.391,9.557-15.488,14.361-1.912,1.813-3.578,3.823-5.539,5.587a10.329,10.329,0,0,0-2.745-2.5c4.607-5.1,9.95-9.411,15-14.018,5.49-5,10.783-10.293,16.468-15.145" transform="translate(-1959.624 -397.715)" fill="#17906d"/>
          <path id="Trazado_1050346" data-name="Trazado 1050346" d="M2484.169,898.416c3.088,1.96,5.833,4.558,6.666,8.234a9.483,9.483,0,0,1-1.617,7.4,18.5,18.5,0,0,1-6.323,5.832c-.735,2.01-1.421,4.019-2.206,6.029a77.654,77.654,0,0,0-9.8-3.48,27.235,27.235,0,0,0,2.892-6.176,8.34,8.34,0,0,0,4.46-1.323,6.4,6.4,0,0,0,2.7-4.656l.049-.294.294.049-.2-.343a30.741,30.741,0,0,0,4.509-1.568,2.729,2.729,0,0,0,1.617-1.421l-.2-.294c-.343.1-.294.049-.49.2a9.736,9.736,0,0,1-3.774,1.862,4.01,4.01,0,0,1-3.186-.294,2.558,2.558,0,0,1-.98-1.716,1.974,1.974,0,0,1,.2-1.813c.49-.539.392-1.127.441-1.813,1.177-2.009,3.039-3.137,4.95-4.411" transform="translate(-2160.765 -785.655)" fill="#f3b795"/>
          <path id="Trazado_1050347" data-name="Trazado 1050347" d="M1936.551,611.782c2.255,12.057,4.362,20.046,13.087,29.114a126.208,126.208,0,0,1-19.9,10.881c-3.382,1.519-7.2,2.745-10.391,4.558l-2.009-.833c-.147-1.911-.245-3.578-1.569-5.048a1.884,1.884,0,0,0-1.029-.245c-1.176.2-1.715,1.225-2.353,2.108-2.01-2.5-4.509-4.46-6.568-6.911.2-2.745.1-5.538.1-8.283a30.47,30.47,0,0,0,5.048-2.108c9.068-5,13.724-12.988,16.468-22.595a7.2,7.2,0,0,0,2.451,1.225c2.549.588,4.607-.539,6.666-1.862" transform="translate(-1666.62 -534.997)" fill="#1a2b3b"/>
          <path id="Trazado_1050348" data-name="Trazado 1050348" d="M1483.351,8.656A42.958,42.958,0,0,1,1515.161.471a31.951,31.951,0,0,1,21.026,12.792c4.509.147,7.891,2.549,11.077,5.489,5.931,6.568,8.381,13.822,9.214,22.5,0,3.039,0,5.98-.245,9.018a92.393,92.393,0,0,1-2.5,12.057,6.01,6.01,0,0,1,3.725,3.088,8.185,8.185,0,0,1-.049,6.274,12.8,12.8,0,0,1-3.627,5.146c-2.059,1.323-4.166,2.451-6.666,1.813a6.173,6.173,0,0,1-2.205-1.078c-.1-.049-.147-.1-.245-.147-2.745,9.607-7.4,17.6-16.469,22.6a26.792,26.792,0,0,1-5.048,2.108c-8.283,2.107-14.018,1.617-22.007-.931a1.041,1.041,0,0,1-.343-.147c-9.557-4.362-15.88-13.528-19.458-23.085-3.088,1.078-4.705.98-7.695-.441a8.643,8.643,0,0,1-4.068-5.2c-.735-2.745.1-5.1,1.52-7.45-1.96-4.411-2.156-10.244-2.745-15-.294-2.794-.245-5.636-.294-8.43,0-.882,0-1.765.049-2.647.686-12.253,6.078-22.1,15.243-30.143" transform="translate(-1283.802 0.001)" fill="#303d52"/>
          <path id="Trazado_1050349" data-name="Trazado 1050349" d="M1489.195,249.638a72.707,72.707,0,0,0,23.771-4.019c11.273-4.019,19.36-9.754,24.6-20.83.931,13.675,7.3,17.253,15.243,26.222,2.745,3.039,3.774,5.391,3.529,9.509a7.445,7.445,0,0,1,6.078-1.666,6.01,6.01,0,0,1,3.725,3.088,8.186,8.186,0,0,1-.049,6.274,12.8,12.8,0,0,1-3.627,5.146c-2.059,1.323-4.166,2.451-6.666,1.813a6.171,6.171,0,0,1-2.205-1.078c-.1-.049-.147-.1-.245-.147-2.745,9.607-7.4,17.6-16.468,22.6a26.794,26.794,0,0,1-5.048,2.108c-8.283,2.108-14.018,1.617-22.007-.931a1.04,1.04,0,0,1-.343-.147c-9.557-4.362-15.88-13.527-19.458-23.085-3.088,1.078-4.705.98-7.7-.441a8.643,8.643,0,0,1-4.068-5.2c-.735-2.745.1-5.1,1.519-7.45a7.77,7.77,0,0,1,4.068-2.745c2.107-.49,3.872.343,5.636,1.421-.049-3.431-.245-6.96-.294-10.44" transform="translate(-1292.489 -196.575)" fill="#f3b795"/>
          <path id="Trazado_1050350" data-name="Trazado 1050350" d="M1662.206,442.3a6.705,6.705,0,0,1,2.6.392,2,2,0,0,1,1.225,1.127l-.294.49c-1.225.588-2.255.245-3.578,0a13.841,13.841,0,0,1-2.01.686,1.691,1.691,0,0,1-1.519-.294l.049-.441a6.236,6.236,0,0,1,3.529-1.96" transform="translate(-1450.453 -386.788)" fill="#212d45"/>
          <path id="Trazado_1050351" data-name="Trazado 1050351" d="M1934.333,443.437a10.6,10.6,0,0,1,2.157-.1,4.648,4.648,0,0,1,3.333,1.715,1.3,1.3,0,0,1,.245,1.323c-.588.245-.539.2-1.127-.049-1.862-1.078-3.431-.539-5.343-1.029a1.077,1.077,0,0,1-.833-.588,3.563,3.563,0,0,1,1.568-1.274" transform="translate(-1690.183 -387.678)" fill="#212d45"/>
          <path id="Trazado_1050352" data-name="Trazado 1050352" d="M1802.142,542.662c1.078,1.127.049,3.431.294,4.9.294,1.568,4.166,1.029,5.489,1.912,0,.343.147.784-.1,1.029-.637.637-1.176.539-2.01.588-1.715-.049-4.068.2-5.44-1.029a2.348,2.348,0,0,1-.784-1.715c-.049-1.813,1.421-4.362,2.549-5.685" transform="translate(-1573.725 -474.552)" fill="#e28e79"/>
          <path id="Trazado_1050353" data-name="Trazado 1050353" d="M1923.7,502.439a12.8,12.8,0,0,1,1.372.049,3.924,3.924,0,0,1,2.451,1.666,3.682,3.682,0,0,1,.441,3.039,4.665,4.665,0,0,1-2.548,2.892,4.923,4.923,0,0,1-1.47,0,3.87,3.87,0,0,1-2.3-1.617,4.024,4.024,0,0,1-.441-3.186,4.647,4.647,0,0,1,2.5-2.843" transform="translate(-1679.938 -439.378)" fill="#1a2b3b"/>
          <path id="Trazado_1050354" data-name="Trazado 1050354" d="M1685.033,500.262a5.267,5.267,0,0,1,1.519.049,3.6,3.6,0,0,1,2.3,1.519,3.713,3.713,0,0,1,.392,3.137,4.581,4.581,0,0,1-2.549,2.843,7.914,7.914,0,0,1-1.519-.1,3.509,3.509,0,0,1-2.353-1.715,3.849,3.849,0,0,1-.343-3.039,4.6,4.6,0,0,1,2.549-2.7" transform="translate(-1471.173 -437.446)" fill="#1a2b3b"/>
          <path id="Trazado_1050355" data-name="Trazado 1050355" d="M2089.408,521.8a5.229,5.229,0,0,1,2.3.245,3.34,3.34,0,0,1,1.96,1.863,5.056,5.056,0,0,1-.392,3.774,6.811,6.811,0,0,1-4.362,3.676c-1.715.147-3.431.294-4.215-1.225a3.983,3.983,0,0,1,.1-3.088,8.564,8.564,0,0,1,4.607-5.244" transform="translate(-1822.809 -456.283)" fill="#ee5b59"/>
          <path id="Trazado_1050356" data-name="Trazado 1050356" d="M1506.544,516.107a6.1,6.1,0,0,1,4.264,2.3,29.589,29.589,0,0,1,.637,5.1,3.661,3.661,0,0,1-.833,2.647c-.735.686-1.912.49-2.794.441a8.657,8.657,0,0,1-1.519-.392,5.6,5.6,0,0,1-3.137-7.352,5.274,5.274,0,0,1,3.382-2.745" transform="translate(-1314.102 -451.33)" fill="#ee5b59"/>
          <path id="Trazado_1050357" data-name="Trazado 1050357" d="M1600.044,564.885c1.127-.1,2.255-.049,3.431-.049a11.608,11.608,0,0,1,4.8,4.411,3.962,3.962,0,0,1,.343,3.235c-.686,1.862-2.5,2.941-4.215,3.725a6.716,6.716,0,0,1-5.784-.735c-2.794-1.862-3.676-5.587-2.5-7.891.784-1.715,2.206-2.206,3.921-2.7" transform="translate(-1395.349 -493.932)" fill="#f46441"/>
          <path id="Trazado_1050358" data-name="Trazado 1050358" d="M1943.775,566.983a7.571,7.571,0,0,1,4.754.637,5.321,5.321,0,0,1,1.568,7.7c-1.47,1.961-3.627,2.4-5.882,2.7a8.85,8.85,0,0,1-5.244-1.078,4.758,4.758,0,0,1-1.372-7.107c1.568-2.009,3.823-2.549,6.176-2.843" transform="translate(-1693.498 -495.736)" fill="#f46441"/>
          <path id="Trazado_1050359" data-name="Trazado 1050359" d="M1756.874,641.878c1.568-.637,9.949.784,12.449.784,1.813,0,3.627-.882,5.44-.686.588.686.539,1.078.343,2.794-.882,5.245-4.411,9.067-9.7,8.675a9.4,9.4,0,0,1-6.47-3.235,11.407,11.407,0,0,1-2.058-8.332" transform="translate(-1536.299 -561.172)" fill="#f46441"/>
          <path id="Trazado_1050360" data-name="Trazado 1050360" d="M1764.846,651.482c1.666-.686,7.058.735,9.263.735,2.255,0,5.146-1.127,7.3-.588.049.2.147.392.2.588a11.511,11.511,0,0,1-1.127,2.794,8.682,8.682,0,0,1-11.518,2.941c-2.6-1.47-3.382-3.774-4.117-6.47" transform="translate(-1543.339 -569.55)" fill="#fefefe"/>
          <path id="Trazado_1050361" data-name="Trazado 1050361" d="M3062.369,1482.717c-.637-.1-.931-.049-1.422-.49l.1-.392a2.314,2.314,0,0,1,.588-.343c1.372-.441,2.549.1,3.774.686.147.1.245.2.392.294a2.677,2.677,0,0,1,1.323,2.059,22.569,22.569,0,0,0-4.754-1.814" transform="translate(-2676.766 -1295.408)" fill="#d23227"/>
          <path id="Trazado_1050362" data-name="Trazado 1050362" d="M3063.823,1533.141c.245-.049.539-.1.784-.147a1.566,1.566,0,0,1,1.177.539c.588.539.539,1.078.539,1.813a2.031,2.031,0,0,1-1.323,1.127,1.675,1.675,0,0,1-.98-.049,1.266,1.266,0,0,1-.735-.98,3.248,3.248,0,0,1,.539-2.3" transform="translate(-2678.76 -1340.587)" fill="#212d45"/>
          <path id="Trazado_1050365" data-name="Trazado 1050365" d="M2813.132,1243.222a1.726,1.726,0,0,1,1.372.343,3.512,3.512,0,0,1,.343,2.108,3.467,3.467,0,0,1-1.225,2.353c-.294.2-.735-.049-1.029-.147a5.178,5.178,0,0,0-2.353-1.078,29.728,29.728,0,0,0,2.892-3.578" transform="translate(-2457.526 -1087.183)" fill="#212d45"/>
          <path id="Trazado_1050367" data-name="Trazado 1050367" d="M3002.371,1668.854a12.379,12.379,0,0,1,1.911.588,4.686,4.686,0,0,0,3.725,0c1.568-.637,2.892-3.088,3.774-3.284.343.392.539.588.441,1.176-.2,1.176-1.519,2.3-2.5,2.892a6.758,6.758,0,0,1-4.951.833,7.646,7.646,0,0,1-1.813-.833c-.2-.1-.392-.245-.588-.343Z" transform="translate(-2625.542 -1457.038)" fill="#d23227"/>
          <path id="Trazado_1050368" data-name="Trazado 1050368" d="M2842.022,1192.043a3.375,3.375,0,0,1,1.716.1,4.562,4.562,0,0,1,2.3,2.647,2.6,2.6,0,0,1-.049,2.01,2.51,2.51,0,0,1-1.568.392c-.883-2.6-1.47-1.863-3.627-2.99l-.1-.539a6.161,6.161,0,0,1,1.323-1.617" transform="translate(-2484.162 -1042.375)" fill="#212d45"/>
          <path id="Trazado_1050369" data-name="Trazado 1050369" d="M3000.367,1371.348a1.029,1.029,0,0,1-.637.637,4.142,4.142,0,0,1-.833-.2,4.92,4.92,0,0,1-2.5-2.843,2.2,2.2,0,0,1,.2-1.911c.931-1.47,2.4-1.078,3.774-1.47.1-.049.2-.049.294-.1a14.05,14.05,0,0,1-.294,5.882" transform="translate(-2620.205 -1194.086)" fill="#e28e79"/>
          <path id="Trazado_1050371" data-name="Trazado 1050371" d="M2865.3,1096.014c.049,0,.1.049.147.049a20.384,20.384,0,0,1,2.549,2.058c2.6,2.058,5.1,2.4,8.283,2.941,1.029.2,2.206.1,2.7,1.078.49.637,1.323,1.862,1.225,2.7,0,.1-.049.2-.049.294-3.137-1.52-6.617-2.3-9.754-3.872-2.549-1.225-4.166-2.5-5.1-5.245" transform="translate(-2505.677 -958.453)" fill="#eea686"/>
          <path id="Trazado_1050373" data-name="Trazado 1050373" d="M3029.71,1347.893l.882.147c1.617,2.5-.245,8.234,4.509,13.037a7.011,7.011,0,0,0,1.716,1.47,5.179,5.179,0,0,1,1.814,2.794l-.147.441a4.56,4.56,0,0,0-1.176-.245c-.343-1.274-5.735-4.215-6.96-5.587-1.127-1.225-.441-2.6-1.225-3.725-.049-.1-.147-.2-.2-.294a13.271,13.271,0,0,0,.245-5.882,2.6,2.6,0,0,0,.539-2.156" transform="translate(-2648.764 -1178.718)" fill="#d23227"/>
          <path id="Trazado_1050374" data-name="Trazado 1050374" d="M3277.443,1619.7a4.923,4.923,0,0,1,2.99.49,3.787,3.787,0,0,1,2.01,2.4,3.716,3.716,0,0,1-.392,2.794,5.22,5.22,0,0,1-3.529,2.255,7.592,7.592,0,0,1-2.108-.049,3.208,3.208,0,0,1-2.206-1.421,3.853,3.853,0,0,1-.147-3.039c.588-1.813,1.764-2.6,3.382-3.431" transform="translate(-2862.923 -1416.362)" fill="#e28e79"/>
          <path id="Trazado_1050375" data-name="Trazado 1050375" d="M3130.876,1709.9l4.166.686c.1,2.843.637,11.665-1.519,13.43a1.812,1.812,0,0,1-.784,1.617c-2.255,2.3-6.47,2.892-9.509,3.333-1.225-.637-6.519-.637-8.038-.539a10.584,10.584,0,0,0-3.088-1.47,22.625,22.625,0,0,0,9.459-2.5c4.754-2.353,7.6-6.323,9.215-11.322a4.594,4.594,0,0,0,.1-3.235" transform="translate(-2721.502 -1495.285)" fill="#eea686"/>
          <path id="Trazado_1050376" data-name="Trazado 1050376" d="M2906.3,1526.9a41.288,41.288,0,0,1,6.029-.147c1.373,0,2.7-.1,4.019-.2,1.323-.147,2.7-.343,4.019-.588l.245.343a7.571,7.571,0,0,1-.343,1.127,1.921,1.921,0,0,1-.1,1.715c-1.176.637-11.665.245-13.675.245a5.386,5.386,0,0,0-.2-2.5" transform="translate(-2541.533 -1334.44)" fill="#067652"/>
          <path id="Trazado_1050377" data-name="Trazado 1050377" d="M2808.287,1539.214c5.538-.588,8.136-6.078,11.028-7.2a1.307,1.307,0,0,1,1.274.049,6.135,6.135,0,0,1,.245,2.5c0,.637-.2,2.3.1,2.794a.371.371,0,0,1-.2.1c-2.059,1.372-3.137,6.568-5.98,6.127-3.088-.49-4.215-2.745-6.47-4.362" transform="translate(-2455.818 -1339.602)" fill="#eea686"/>
          <path id="Trazado_1050378" data-name="Trazado 1050378" d="M2921.588,1551.348a3.957,3.957,0,0,1,.1,2.99c-.735,1.47-2.843,2.3-4.313,2.7-.049,0-.147.049-.2.049a8.587,8.587,0,0,1,.147,4.852.981.981,0,0,1-.2.392l.049-1.176-.294-.343c-1.422-.441-3.235-.147-4.754-.2a1.943,1.943,0,0,0,.588-1.127,4.033,4.033,0,0,0-.735-3.088,4.947,4.947,0,0,0-3.97-2.059c-.294-.49-.049-2.156-.1-2.794,2.01.049,12.5.441,13.675-.2" transform="translate(-2542.896 -1356.638)" fill="#f7cd67"/>
          <path id="Trazado_1050379" data-name="Trazado 1050379" d="M3034.589,1288.239a13.291,13.291,0,0,0,2.01-1.715c5.93-5.245,19.066-4.46,26.467-3.97,5.048.588,13.381,1.52,17.645,4.264a34.4,34.4,0,0,1,6.617,3.872,16.059,16.059,0,0,0,2.156,1.568c.147.049.294,0,.441.049l.049-.294a12.324,12.324,0,0,1,8.969-4.509,12.119,12.119,0,0,1,9.018,3.088c1.323,1.274,3.039,3.676,2.99,5.588a3.886,3.886,0,0,1-.147.735c-1.225,2.009-5.979,4.411-9.557,4.117-4.362-.343-6.029-3.97-8.577-6.911a2.994,2.994,0,0,0-2.107-1.323c3.431,3.137,5,9.558,5.2,13.969a22.854,22.854,0,0,1-5.93,16.713c-2.941,3.235-9.362,7.5-13.675,7.3l.147-.245a6.357,6.357,0,0,0,.441-4.166,7.7,7.7,0,0,0-6.421-5.93,9.047,9.047,0,0,0-2.3,0c-3.48.539-5.342,2.941-6.421,6.274a9.686,9.686,0,0,1-1.029,2.892c-.049.049-.049.1-.1.1-.294-1.029-3.627-5.146-4.509-7.548-.98-2.843-.784-7.989-1.618-9.8-6.47-2.549-5.391-3.431-8.92-8.381a2.8,2.8,0,0,0-1.666.1,10.453,10.453,0,0,1,1.372,5.441,3.651,3.651,0,0,1-.2.784,3.7,3.7,0,0,0-2.156-1.862l.147-.441a4.92,4.92,0,0,0-1.813-2.794,7.005,7.005,0,0,1-1.716-1.47c-4.8-4.8-2.892-10.538-4.509-13.038l-.882-.147a2.711,2.711,0,0,0,.294-.392,1.862,1.862,0,0,0,.294-1.911" transform="translate(-2653.202 -1121.27)" fill="#f46441"/>
          <path id="Trazado_1050380" data-name="Trazado 1050380" d="M3091.431,1384.845c.392-1.519-.1-3.823-.049-5.489.049-1.617.441-4.558,1.813-5.686.392-.343.49-.294.98-.245a1.7,1.7,0,0,1,.49,1.225,21.156,21.156,0,0,1-.49,2.99,40.573,40.573,0,0,0-.147,5.98,10.458,10.458,0,0,1,1.372,5.44,3.685,3.685,0,0,1-.2.784,3.7,3.7,0,0,0-2.157-1.863l.147-.441a4.681,4.681,0,0,0-1.764-2.7" transform="translate(-2703.379 -1201.015)" fill="#d23227"/>
          <path id="Trazado_1050381" data-name="Trazado 1050381" d="M3176.274,1389.165a2.6,2.6,0,0,1,1.716.147c.343,1.47-.833,4.166-.98,5.784-.294,3.088.147,6.323-.245,9.41l-.294.147-.686-.343c-.392-1.029-.931-1.961-1.274-3.039a13.863,13.863,0,0,1,1.177-10.979Z" transform="translate(-2775.527 -1214.745)" fill="#d23227"/>
          <path id="Trazado_1050382" data-name="Trazado 1050382" d="M1336.516,806.256c7.989,2.549,13.724,3.039,22.007.931,0,2.745.1,5.538-.1,8.283,2.059,2.4,4.509,4.411,6.568,6.911.637-.882,1.225-1.911,2.353-2.108a1.884,1.884,0,0,1,1.029.245c1.373,1.471,1.47,3.137,1.569,5.048l2.009.833c3.48.98,12.841,3.774,15.537,5.587,5.49,3.627,21.076,29.261,27.2,36.368,1.47-3.578,9.411-26.957,11.126-27.692a5.171,5.171,0,0,0,1.176.294,7.735,7.735,0,0,0,2.3.882,77.68,77.68,0,0,1,9.8,3.48c2.058.833,4.166,1.666,6.176,2.6-2.059,6.617-4.656,13.037-6.96,19.556-3.774,10.734-7.352,21.713-10.489,32.643,6.96-.147,14.018-.294,20.978,0l-.049.147c-6.911-.147-13.92-.147-20.831,0a9.618,9.618,0,0,1-7.009,3.627,13.493,13.493,0,0,1-5.734-.98,34.493,34.493,0,0,1-5.538-2.794c-5.391.147-10.832.2-16.223.147.49,3.088.882,6.225,1.274,9.313,1.127,9.165,2.206,18.429,3.921,27.5-2.206.931-4.46,1.911-6.764,2.647-20,5.784-48.082,5.685-68.814,2.745-5.2-.735-10.244-2.01-15.341-2.941-1.862-.588-3.725-1.225-5.489-1.96,1.176-6.176,2.255-12.449,3.137-18.674-5.244-1.323-17.351-3.578-21.37-6.274a14.631,14.631,0,0,1-3.039-3.235,2.619,2.619,0,0,1-.245-.539c-1.323-2.99-.931-5.784.245-8.724a22.762,22.762,0,0,0,1.078-3.235c1.127-3.137,2.205-6.225,3.284-9.362,2.059-4.313,3.725-8.92,5.588-13.38l11.42-27.594c2.157-5.2,4.166-11.126,7.009-15.929,4.411-.686,13.43-4.313,17.547-6.274l.833-.392a11.222,11.222,0,0,1,3.137-4.656,1.427,1.427,0,0,1,1.421-.441l.686.98a34.334,34.334,0,0,1,3.578-3.48c.147-2.059.1-4.166.1-6.225Z" transform="translate(-1119.224 -705.062)" fill="#567cb6"/>
          <path id="Trazado_1050383" data-name="Trazado 1050383" d="M2019.032,1315.48c.98.392,1.666,1.617,2.254,2.5-.98,4.411-1.96,8.822-2.843,13.234a67.063,67.063,0,0,1-2.5,10.293c.588-8.577,2.059-17.449,3.088-26.026" transform="translate(-1762.922 -1150.373)" fill="#285687"/>
          <path id="Trazado_1050384" data-name="Trazado 1050384" d="M1985.706,1310.4a1.778,1.778,0,0,1,1.225.637c-1.078,8.577-2.549,17.449-3.088,26.026-.686,3.529-1.911,10.832-1.568,14.165l-2.99-.686a5.219,5.219,0,0,0-.049-2.745.18.18,0,0,0,.147-.049,3.806,3.806,0,0,0,2.059-2.206,2.415,2.415,0,0,0-.2-2.01,2.736,2.736,0,0,0-1.814-.735c.833-7.45,2.206-14.949,3.431-22.35a77.342,77.342,0,0,0,1.47-9.95Z" transform="translate(-1730.821 -1145.935)" fill="#ee5b59"/>
          <path id="Trazado_1050385" data-name="Trazado 1050385" d="M1856.723,920.373c.637-.882,1.225-1.911,2.353-2.108a1.885,1.885,0,0,1,1.029.245c1.372,1.47,1.47,3.137,1.568,5.048.245,7.94.833,15.88,1.225,23.82-2.157-1.029-4.362-2.059-6.568-3.039-4.264-2.6-9.509-4.46-14.165-6.225,5.146-5.784,9.8-11.763,14.557-17.743" transform="translate(-1610.955 -803.005)" fill="#fefefe"/>
          <path id="Trazado_1050386" data-name="Trazado 1050386" d="M1651.359,910.3a11.217,11.217,0,0,1,3.137-4.656,1.426,1.426,0,0,1,1.421-.441l.686.98c1.667,4.362,11.959,16.37,15.488,20.291-1.127,1.127-12.4,4.607-15,6.127a61.169,61.169,0,0,1-7.058,2.647c.49-8.234,1.421-16.664,1.323-24.948" transform="translate(-1442.939 -791.56)" fill="#fefefe"/>
          <path id="Trazado_1050387" data-name="Trazado 1050387" d="M2149.364,1108.088c-.931-3.578-.931-9.558-1.225-13.381-.686-8.871-1.715-17.939-1.764-26.81l.147,1.029.049-.049c2.745,15.488,7.156,35.142,15.341,48.621a64.187,64.187,0,0,0,4.95,7.156c1.274,1.568,5.735,5.636,6.078,6.96a34.5,34.5,0,0,1-5.538-2.794c-5.391.147-10.832.2-16.223.147-.441-6.96-1.176-13.92-1.813-20.879" transform="translate(-1876.982 -933.865)" fill="#4f577e"/>
          <path id="Trazado_1050388" data-name="Trazado 1050388" d="M2170.2,1388.115c2.941,3.48,5.441,7.352,8.332,10.881,3.039,3.627,6.323,6.568,9.656,9.852-5.391.147-10.832.2-16.223.147-.392-6.96-1.127-13.92-1.764-20.88" transform="translate(-1897.813 -1213.892)" fill="#067652"/>
          <path id="Trazado_1050389" data-name="Trazado 1050389" d="M1819.953,1568.53a2.736,2.736,0,0,1,1.813.735,2.611,2.611,0,0,1,.2,2.01,3.953,3.953,0,0,1-2.058,2.206.18.18,0,0,0-.147.049,5.778,5.778,0,0,1,.049,2.745l2.99.686c.833,1.47-1.176,8.773-1.667,10.538-.294,1.127-.833,3.578-1.96,4.117a7.092,7.092,0,0,1-2.01.49c-4.215-.539-8.479-.98-12.645-1.813-1.225-.294-2.549-.392-3.823-.588-1.225-.343-2.549-.49-3.823-.735,1.029-4.264,2.892-14.312,4.607-17.743.147.1.147.147.294.2,1.421.784,3.382,0,4.9-.392,4.411-1.029,8.92-1.618,13.283-2.5" transform="translate(-1571.342 -1371.663)" fill="#eea686"/>
          <path id="Trazado_1050390" data-name="Trazado 1050390" d="M1939.964,1608.362a5.776,5.776,0,0,1,.049,2.745,37.369,37.369,0,0,0-5.685-1.029c1.911-.539,3.774-1.078,5.636-1.715" transform="translate(-1691.549 -1406.496)" fill="#d23227"/>
          <path id="Trazado_1050391" data-name="Trazado 1050391" d="M1494.846,1705.99c7.058,1.863,14.165,3.627,21.271,5.391,4.95,1.225,9.9,2.5,14.949,3.284a42.62,42.62,0,0,1,1.323-5.489c1.274.245,2.6.392,3.823.735,1.274.2,2.6.294,3.823.588,4.166.833,8.43,1.274,12.645,1.813-.686,3.872-1.519,7.842-1.912,11.763-.049.637,0,.833-.392,1.323a17.723,17.723,0,0,1-6.225-.343c-4.117-.784-8.234-2.255-12.3-3.333-12.106-3.235-24.065-6.764-36.123-10.048a15.233,15.233,0,0,0-.1-2.99,9.425,9.425,0,0,1-.588,1.225l-.343-.2c-.637-1.47-.2-2.255.147-3.725" transform="translate(-1306.815 -1491.87)" fill="#285687"/>
          <path id="Trazado_1050392" data-name="Trazado 1050392" d="M1816.79,1737.231c1.274.2,2.6.294,3.823.588-.539,3.333-1.176,6.666-1.617,10.048a36.4,36.4,0,0,1-3.774-1.078c.539-3.186,1.274-6.372,1.568-9.557" transform="translate(-1587.393 -1519.19)" fill="#ee5b59"/>
          <path id="Trazado_1050393" data-name="Trazado 1050393" d="M1846.908,1741.917c4.166.833,8.43,1.274,12.645,1.813-.686,3.872-1.519,7.842-1.911,11.763-4.068-1.274-8.185-2.7-12.351-3.578.392-3.333,1.029-6.666,1.617-10" transform="translate(-1613.688 -1523.288)" fill="#d23227"/>
          <path id="Trazado_1050394" data-name="Trazado 1050394" d="M1720.877,1074.926l.147.049,2.009.147c4.656,1.765,9.9,3.627,14.165,6.225-1.372,1.372-5.588,16.272-7.058,19.556a69.583,69.583,0,0,0-9.019-1.029c-1.911-.294-7.107-.686-8.528-1.667-1.078-3.382-5-14.508-6.715-17.105,2.647-1.568,13.92-5.048,15-6.176" transform="translate(-1491.773 -940.012)" fill="#d0dce9"/>
          <path id="Trazado_1050395" data-name="Trazado 1050395" d="M1705.65,806.256c7.989,2.549,13.724,3.039,22.007.931,0,2.745.1,5.538-.1,8.283,2.058,2.4,4.509,4.411,6.568,6.911-4.754,6.029-9.411,12.008-14.508,17.743l-2.009-.147-.147-.049c-3.529-3.921-13.822-15.929-15.488-20.291a34.369,34.369,0,0,1,3.578-3.48c.147-2.058.1-4.166.1-6.225Z" transform="translate(-1488.359 -705.062)" fill="#eea686"/>
          <path id="Trazado_1050396" data-name="Trazado 1050396" d="M1731.262,806.256c7.989,2.549,13.724,3.039,22.007.931,0,2.745.1,5.538-.1,8.283-2.206-1.127-11.567-2.059-15.1-3.039-2.353-.637-4.264-2.059-6.47-2.892l-.343.343Z" transform="translate(-1513.971 -705.062)" fill="#cd7952"/>
          <path id="Trazado_1050397" data-name="Trazado 1050397" d="M1346.805,999.168c.588,7.5-.049,15.292-.147,22.791l-.539,40.828c-2.5-1.421-6.323-2.009-9.165-2.745-4.754-1.275-9.509-2.451-14.165-4.019,2.059-4.313,3.725-8.92,5.587-13.38l11.42-27.594c2.156-5.146,4.166-11.077,7.009-15.88" transform="translate(-1156.765 -873.762)" fill="#285687"/>
          <path id="Trazado_1050398" data-name="Trazado 1050398" d="M1562.579,1231.474c.147-.392.147-.735.49-.931,2.5-1.127,16.664,2.941,20.39,3.48,1.421.98,6.617,1.372,8.528,1.666a68.6,68.6,0,0,1,9.018,1.029c5.44,1.421,11.077,2.157,16.517,3.676l-1.372.049a99.432,99.432,0,0,1-1.47,9.95c-1.176,7.4-2.549,14.9-3.431,22.35-4.411.882-8.871,1.519-13.234,2.5-1.519.392-3.48,1.225-4.9.392a1.51,1.51,0,0,1-.294-.2,1.908,1.908,0,0,0-.98-.637c-2.7-.882-5.686-1.422-8.43-2.108-8.381-2.059-16.861-3.774-25.144-6.176,1.323-5.98,1.568-12.5,2.255-18.625.686-5.391,1.764-10.93,2.058-16.419" transform="translate(-1362.687 -1075.925)" fill="#ee5b59"/>
          <path id="Trazado_1050399" data-name="Trazado 1050399" d="M1592.631,1231.474c.147-.392.147-.735.49-.931,2.5-1.127,16.664,2.941,20.389,3.48,1.421.98,6.617,1.372,8.528,1.666a68.6,68.6,0,0,1,9.018,1.029c5.44,1.421,11.077,2.157,16.517,3.676l-1.372.049a71.92,71.92,0,0,1-12.155-.147Z" transform="translate(-1392.739 -1075.925)" fill="#e28e79"/>
          <path id="Trazado_1050400" data-name="Trazado 1050400" d="M1881.73,1310.013a71.921,71.921,0,0,0,12.155.147,99.4,99.4,0,0,1-1.47,9.95c-1.176,7.4-2.549,14.9-3.431,22.35-4.411.882-8.871,1.519-13.233,2.5,1.225-7.744,2.7-15.537,4.068-23.281.637-3.872,1.47-7.744,1.911-11.665" transform="translate(-1640.325 -1145.593)" fill="#d23227"/>
        </g>
      </g>
    </g>
  </g>
</svg>
