<svg xmlns="http://www.w3.org/2000/svg" xmlns:xlink="http://www.w3.org/1999/xlink" width="113" height="113" viewBox="0 0 113 113">
  <defs>
    <filter id="Trazado_982547" x="0" y="0" width="113" height="113" filterUnits="userSpaceOnUse">
      <feOffset dy="3" input="SourceAlpha"/>
      <feGaussianBlur stdDeviation="3" result="blur"/>
      <feFlood flood-opacity="0.161"/>
      <feComposite operator="in" in2="blur"/>
      <feComposite in="SourceGraphic"/>
    </filter>
  </defs>
  <g id="Grupo_1206686" data-name="Grupo 1206686" transform="translate(-197 -1707.417)">
    <g id="Grupo_1201889" data-name="Grupo 1201889" transform="translate(206 1713.417)">
      <g id="Grupo_1201680" data-name="Grupo 1201680">
        <g id="Grupo_1201330" data-name="Grupo 1201330">
          <g id="Grupo_1172010" data-name="Grupo 1172010">
            <g id="Grupo_1171046" data-name="Grupo 1171046">
              <g id="Grupo_1148525" data-name="Grupo 1148525">
                <g transform="matrix(1, 0, 0, 1, -9, -6)" filter="url(#Trazado_982547)">
                  <g id="Trazado_982547-2" data-name="Trazado 982547" transform="translate(9 6)" fill="#fdfbec">
                    <path d="M 47.5 93.5 C 41.28937149047852 93.5 35.26533508300781 92.28397369384766 29.59518623352051 89.88570404052734 C 24.11771965026855 87.56893157958984 19.19813346862793 84.25196075439453 14.97309303283691 80.02691650390625 C 10.74804019927979 75.80186462402344 7.431066513061523 70.88229370117188 5.114293098449707 65.40481567382812 C 2.716026782989502 59.73468017578125 1.5 53.71062850952148 1.5 47.5 C 1.5 41.28937149047852 2.716026782989502 35.26533508300781 5.114293098449707 29.59518623352051 C 7.431066513061523 24.11771965026855 10.74804019927979 19.19813346862793 14.97309303283691 14.97309303283691 C 19.19813346862793 10.74804019927979 24.11771965026855 7.431066513061523 29.59518623352051 5.114293098449707 C 35.26533508300781 2.716026782989502 41.28937149047852 1.5 47.5 1.5 C 53.71062850952148 1.5 59.73468017578125 2.716026782989502 65.40481567382812 5.114293098449707 C 70.88229370117188 7.431066513061523 75.80186462402344 10.74804019927979 80.02691650390625 14.97309303283691 C 84.25196075439453 19.19813346862793 87.56893157958984 24.11771965026855 89.88570404052734 29.59518623352051 C 92.28397369384766 35.26533508300781 93.5 41.28937149047852 93.5 47.5 C 93.5 53.71062850952148 92.28397369384766 59.73468017578125 89.88570404052734 65.40481567382812 C 87.56893157958984 70.88229370117188 84.25196075439453 75.80186462402344 80.02691650390625 80.02691650390625 C 75.80186462402344 84.25196075439453 70.88229370117188 87.56893157958984 65.40481567382812 89.88570404052734 C 59.73468017578125 92.28397369384766 53.71062850952148 93.5 47.5 93.5 Z" stroke="none"/>
                    <path d="M 47.5 3 C 41.49121475219727 3 35.66376876831055 4.176155090332031 30.17950439453125 6.495796203613281 C 24.88084411621094 8.736953735351562 20.12152099609375 11.94598388671875 16.03375244140625 16.03375244140625 C 11.94598388671875 20.12152099609375 8.736953735351562 24.88084411621094 6.495796203613281 30.17950439453125 C 4.176155090332031 35.66376876831055 3 41.49121475219727 3 47.5 C 3 53.50878524780273 4.176155090332031 59.33623123168945 6.495796203613281 64.82049560546875 C 8.736953735351562 70.11915588378906 11.94598388671875 74.87847900390625 16.03375244140625 78.96624755859375 C 20.12152099609375 83.05401611328125 24.88084411621094 86.26304626464844 30.17950439453125 88.50419616699219 C 35.66376876831055 90.82384490966797 41.49121475219727 92 47.5 92 C 53.50878524780273 92 59.33623123168945 90.82384490966797 64.82049560546875 88.50419616699219 C 70.11915588378906 86.26304626464844 74.87847900390625 83.05401611328125 78.96624755859375 78.96624755859375 C 83.05401611328125 74.87847900390625 86.26304626464844 70.11915588378906 88.50419616699219 64.82049560546875 C 90.82384490966797 59.33623123168945 92 53.50878524780273 92 47.5 C 92 41.49121475219727 90.82384490966797 35.66376876831055 88.50419616699219 30.17950439453125 C 86.26304626464844 24.88084411621094 83.05401611328125 20.12152099609375 78.96624755859375 16.03375244140625 C 74.87847900390625 11.94598388671875 70.11915588378906 8.736953735351562 64.82049560546875 6.495796203613281 C 59.33623123168945 4.176155090332031 53.50878524780273 3 47.5 3 M 47.5 0 C 73.7335205078125 0 95 21.2664794921875 95 47.5 C 95 73.7335205078125 73.7335205078125 95 47.5 95 C 21.2664794921875 95 0 73.7335205078125 0 47.5 C 0 21.2664794921875 21.2664794921875 0 47.5 0 Z" stroke="none" fill="#83793c"/>
                  </g>
                </g>
              </g>
            </g>
          </g>
        </g>
      </g>
    </g>
    <g id="_06-education" data-name="06-education" transform="translate(222.665 1732.9)">
      <path id="Trazado_1049666" data-name="Trazado 1049666" d="M13.781,50.964v1.927H8V50h5.781Z" transform="translate(-0.291 -1.639)" fill="#a1aaad"/>
      <rect id="Rectángulo_418126" data-name="Rectángulo 418126" width="6" height="5" transform="translate(7.835 51.017)" fill="#c1ced1"/>
      <path id="Trazado_1049667" data-name="Trazado 1049667" d="M10.891,14l2.891,6.745-1.927.964H9.927L8,20.745Z" transform="translate(-0.291 -0.328)" fill="#c1ced1"/>
      <path id="Trazado_1049668" data-name="Trazado 1049668" d="M13.781,47.017v1.927H8V21l1.927.964h1.927L13.781,21Z" transform="translate(-0.291 -0.583)" fill="#81ecec"/>
      <path id="Trazado_1049669" data-name="Trazado 1049669" d="M49.709,50.891v4.818l-3.854-3.854L42,55.709V48h7.709Z" transform="translate(-1.53 -1.566)" fill="#8fccff"/>
      <path id="Trazado_1049670" data-name="Trazado 1049670" d="M30.98,46.47H13.636V20.454l-2.891-6.745L7.854,20.454V46.47H4V6H30.98Z" transform="translate(-0.146 -0.036)" fill="#ffeaa7"/>
      <path id="Trazado_1049671" data-name="Trazado 1049671" d="M32,46.47V6H58.98V46.47ZM46.569,10.876c-.434.385-.646.578-1.079.964-.434-.385-.646-.578-1.079-.964a9.636,9.636,0,0,0-4.7,17.287,9.507,9.507,0,0,0,4.7,1.869c.434-.385.646-.578,1.079-.964.434.385.646.578,1.079.964a9.643,9.643,0,0,0,8.557-9.578c0-.328-.019-.646-.048-.964a9.623,9.623,0,0,0-8.508-8.614Z" transform="translate(-1.165 -0.036)" fill="#fdcb6e"/>
      <path id="Trazado_1049672" data-name="Trazado 1049672" d="M45.636,26.634v2.833c-.434.385-.646.578-1.079.964a9.507,9.507,0,0,1-4.7-1.869A9.636,9.636,0,0,1,36.829,16.94l.135.058h4.818v2.891h3.854Z" transform="translate(-1.311 -0.435)" fill="#fab1a0"/>
      <path id="Trazado_1049673" data-name="Trazado 1049673" d="M46,21.706V16.888h3.854V14h2.891l.067-.077a9.636,9.636,0,0,1,2.775,5.859c.029.318.048.636.048.964a9.646,9.646,0,0,1-5.724,8.807l-.058-.135V25.56H46Z" transform="translate(-1.675 -0.325)" fill="#fab1a0"/>
      <path id="Trazado_1049674" data-name="Trazado 1049674" d="M47.079,11.06a9.677,9.677,0,0,1,5.733,2.756l-.067.077H49.854v2.891H46v-4.76C46.434,11.638,46.646,11.445,47.079,11.06Z" transform="translate(-1.675 -0.221)" fill="#ff7675"/>
      <path id="Trazado_1049675" data-name="Trazado 1049675" d="M49.854,29.854l.058.135a9.553,9.553,0,0,1-2.833.771c-.434-.385-.646-.578-1.079-.964V26h3.854Z" transform="translate(-1.675 -0.765)" fill="#ff7675"/>
      <path id="Trazado_1049676" data-name="Trazado 1049676" d="M45.667,16.784v2.891H41.813V16.784H36.995l-.135-.058a9.652,9.652,0,0,1,7.728-5.666c.434.385.646.578,1.079.964Z" transform="translate(-1.342 -0.221)" fill="#ff7675"/>
      <path id="Trazado_1049677" data-name="Trazado 1049677" d="M7.745,48.47v.964H1V8H3.891V46.543H7.745Z" transform="translate(-0.036 -0.109)" fill="#ff7675"/>
      <path id="Trazado_1049678" data-name="Trazado 1049678" d="M40.98,50.891H14V48H40.98Z" transform="translate(-0.51 -1.566)" fill="#ff7675"/>
      <path id="Trazado_1049679" data-name="Trazado 1049679" d="M62.527,8V49.434H50V46.543h9.636V8Z" transform="translate(-1.821 -0.109)" fill="#ff7675"/>
      <path id="Trazado_1049680" data-name="Trazado 1049680" d="M53.09,13.1a10.676,10.676,0,0,0-6.3-3.029.969.969,0,0,0-.748.237L45.6,10.7,45.16,10.3a.964.964,0,0,0-.747-.237,10.6,10.6,0,0,0,0,21.074.964.964,0,0,0,.745-.237l.437-.4.439.393a.964.964,0,0,0,.64.243.855.855,0,0,0,.111-.007,10.514,10.514,0,0,0,3.114-.847A10.621,10.621,0,0,0,56.2,20.6c0-.357-.02-.7-.053-1.06A10.64,10.64,0,0,0,53.09,13.1Zm-6.1-1.06a8.72,8.72,0,0,1,2.58.858h-.115a.964.964,0,0,0-.964.964v1.927H46.563V12.419Zm-6.207,1.377V14.82h1.927V12.44a8.618,8.618,0,0,1,1.5-.4l.426.381v6.256H42.708V16.747a.964.964,0,0,0-.964-.964H38.407A8.7,8.7,0,0,1,40.781,13.412Zm3.427,15.754a8.563,8.563,0,0,1-3.427-1.371V24.456h1.927V22.529H39.818a.964.964,0,0,0-.964.964v2.546a8.728,8.728,0,0,1-1.87-4.473h1.87V19.638H36.983a8.576,8.576,0,0,1,.448-1.927h3.35v1.927a.964.964,0,0,0,.964.964h2.891v4.818H42.708v1.927h1.927v1.438Zm2.354-.385v-2.4H48.49v2.379a8.554,8.554,0,0,1-1.5.4Zm7.189-5.288H51.381v1.927H52.8a8.685,8.685,0,0,1-2.38,2.375V25.419a.964.964,0,0,0-.964-.964H46.563V22.529h2.891a.964.964,0,0,0,.964-.964V18.674H48.49V20.6H46.563V17.711h2.891a.964.964,0,0,0,.964-.964V14.82h1.638a8.728,8.728,0,0,1,1.991,3.854h-1.7V20.6h1.927A8.587,8.587,0,0,1,53.752,23.492Z" transform="translate(-1.275 -0.184)"/>
      <rect id="Rectángulo_418127" data-name="Rectángulo 418127" width="15" height="2" transform="translate(33.835 33.017)"/>
      <rect id="Rectángulo_418128" data-name="Rectángulo 418128" width="15" height="2" transform="translate(39.835 37.017)"/>
      <rect id="Rectángulo_418129" data-name="Rectángulo 418129" width="21" height="2" transform="translate(33.835 41.017)"/>
      <rect id="Rectángulo_418130" data-name="Rectángulo 418130" width="4" height="2" transform="translate(33.835 37.017)"/>
      <rect id="Rectángulo_418131" data-name="Rectángulo 418131" width="4" height="2" transform="translate(50.835 33.017)"/>
      <path id="Trazado_1049681" data-name="Trazado 1049681" d="M60.706,6.927H58.778V5.964A.964.964,0,0,0,57.815,5H3.854a.964.964,0,0,0-.964.964v.964H.964A.964.964,0,0,0,0,7.891V49.325a.964.964,0,0,0,.964.964H6.745V56.07a.964.964,0,0,0,.964.964H13.49a.964.964,0,0,0,.964-.964V50.288H39.507v3.854a.964.964,0,0,0,1.645.681l3.173-3.173L47.5,54.824a.964.964,0,0,0,1.645-.681V50.288H60.706a.964.964,0,0,0,.964-.964V7.891A.964.964,0,0,0,60.706,6.927Zm-28.907,0H56.851V45.47H31.8Zm-26.98,0H29.871V45.47H14.454V20.417a.948.948,0,0,0-.085-.377h.007L11.485,13.3a.964.964,0,0,0-1.771,0L6.823,20.041H6.83a.948.948,0,0,0-.085.377V45.47H4.818ZM12.527,47.4H8.672V21.976l.533.267a.964.964,0,0,0,.431.1h1.927a.964.964,0,0,0,.431-.1l.533-.267Zm-1.191-26.98H9.863l-.912-.456L10.6,16.119l1.648,3.843ZM8.672,49.325h3.854v.964H8.672Zm-6.745-.964V8.854h.964v37.58a.964.964,0,0,0,.964.964H6.745v.964Zm6.745,6.745V52.215h3.854v2.891Zm5.781-6.745V47.4H39.507v.964Zm30.552,1.246a.964.964,0,0,0-1.363,0l-2.209,2.209V47.4h5.781v4.419Zm14.736-1.246h-10.6V47.4h8.672a.964.964,0,0,0,.964-.964V8.854h.964Z"/>
      <path id="Trazado_1049682" data-name="Trazado 1049682" d="M25.672,31.162H19.891a2.891,2.891,0,0,0,0,5.781h5.781a.939.939,0,0,1,.686.295.922.922,0,0,1,.278.669.964.964,0,0,1-.964.964H21.818a.964.964,0,0,0-.964.964v3.854h1.927V40.8h2.891a2.891,2.891,0,1,0,0-5.781H19.891a.964.964,0,0,1-.964-.964.939.939,0,0,1,.295-.686.922.922,0,0,1,.669-.278h5.781a2.891,2.891,0,0,0,0-5.781H19.891a.964.964,0,0,1-.964-.964V23.454a.964.964,0,0,1,.964-.964h5.781a2.891,2.891,0,0,0,0-5.781H23.745V12.29l1.246,1.246,1.363-1.363L23.463,9.282a.934.934,0,0,0-1.356.007L22.1,9.283,19.21,12.174l1.363,1.363,1.245-1.247v5.383a.964.964,0,0,0,.964.964h2.891a.939.939,0,0,1,.686.295.922.922,0,0,1,.278.669.964.964,0,0,1-.964.964H19.891A2.891,2.891,0,0,0,17,23.454v2.891a2.891,2.891,0,0,0,2.891,2.891h5.781a.939.939,0,0,1,.686.295.922.922,0,0,1,.278.669.964.964,0,0,1-.964.964Z" transform="translate(-0.619 -0.146)"/>
    </g>
  </g>
</svg>
