<svg xmlns="http://www.w3.org/2000/svg" xmlns:xlink="http://www.w3.org/1999/xlink" width="113" height="113" viewBox="0 0 113 113">
  <defs>
    <filter id="Trazado_982547" x="0" y="0" width="113" height="113" filterUnits="userSpaceOnUse">
      <feOffset dy="3" input="SourceAlpha"/>
      <feGaussianBlur stdDeviation="3" result="blur"/>
      <feFlood flood-opacity="0.161"/>
      <feComposite operator="in" in2="blur"/>
      <feComposite in="SourceGraphic"/>
    </filter>
  </defs>
  <g id="Grupo_1206684" data-name="Grupo 1206684" transform="translate(-197 -1707.417)">
    <g id="Grupo_1201889" data-name="Grupo 1201889" transform="translate(206 1713.417)">
      <g id="Grupo_1201680" data-name="Grupo 1201680">
        <g id="Grupo_1201330" data-name="Grupo 1201330">
          <g id="Grupo_1172010" data-name="Grupo 1172010">
            <g id="Grupo_1171046" data-name="Grupo 1171046">
              <g id="Grupo_1148525" data-name="Grupo 1148525">
                <g transform="matrix(1, 0, 0, 1, -9, -6)" filter="url(#Trazado_982547)">
                  <g id="Trazado_982547-2" data-name="Trazado 982547" transform="translate(9 6)" fill="#fdfbec">
                    <path d="M 47.5 93.5 C 41.28937149047852 93.5 35.26533508300781 92.28397369384766 29.59518623352051 89.88570404052734 C 24.11771965026855 87.56893157958984 19.19813346862793 84.25196075439453 14.97309303283691 80.02691650390625 C 10.74804019927979 75.80186462402344 7.431066513061523 70.88229370117188 5.114293098449707 65.40481567382812 C 2.716026782989502 59.73468017578125 1.5 53.71062850952148 1.5 47.5 C 1.5 41.28937149047852 2.716026782989502 35.26533508300781 5.114293098449707 29.59518623352051 C 7.431066513061523 24.11771965026855 10.74804019927979 19.19813346862793 14.97309303283691 14.97309303283691 C 19.19813346862793 10.74804019927979 24.11771965026855 7.431066513061523 29.59518623352051 5.114293098449707 C 35.26533508300781 2.716026782989502 41.28937149047852 1.5 47.5 1.5 C 53.71062850952148 1.5 59.73468017578125 2.716026782989502 65.40481567382812 5.114293098449707 C 70.88229370117188 7.431066513061523 75.80186462402344 10.74804019927979 80.02691650390625 14.97309303283691 C 84.25196075439453 19.19813346862793 87.56893157958984 24.11771965026855 89.88570404052734 29.59518623352051 C 92.28397369384766 35.26533508300781 93.5 41.28937149047852 93.5 47.5 C 93.5 53.71062850952148 92.28397369384766 59.73468017578125 89.88570404052734 65.40481567382812 C 87.56893157958984 70.88229370117188 84.25196075439453 75.80186462402344 80.02691650390625 80.02691650390625 C 75.80186462402344 84.25196075439453 70.88229370117188 87.56893157958984 65.40481567382812 89.88570404052734 C 59.73468017578125 92.28397369384766 53.71062850952148 93.5 47.5 93.5 Z" stroke="none"/>
                    <path d="M 47.5 3 C 41.49121475219727 3 35.66376876831055 4.176155090332031 30.17950439453125 6.495796203613281 C 24.88084411621094 8.736953735351562 20.12152099609375 11.94598388671875 16.03375244140625 16.03375244140625 C 11.94598388671875 20.12152099609375 8.736953735351562 24.88084411621094 6.495796203613281 30.17950439453125 C 4.176155090332031 35.66376876831055 3 41.49121475219727 3 47.5 C 3 53.50878524780273 4.176155090332031 59.33623123168945 6.495796203613281 64.82049560546875 C 8.736953735351562 70.11915588378906 11.94598388671875 74.87847900390625 16.03375244140625 78.96624755859375 C 20.12152099609375 83.05401611328125 24.88084411621094 86.26304626464844 30.17950439453125 88.50419616699219 C 35.66376876831055 90.82384490966797 41.49121475219727 92 47.5 92 C 53.50878524780273 92 59.33623123168945 90.82384490966797 64.82049560546875 88.50419616699219 C 70.11915588378906 86.26304626464844 74.87847900390625 83.05401611328125 78.96624755859375 78.96624755859375 C 83.05401611328125 74.87847900390625 86.26304626464844 70.11915588378906 88.50419616699219 64.82049560546875 C 90.82384490966797 59.33623123168945 92 53.50878524780273 92 47.5 C 92 41.49121475219727 90.82384490966797 35.66376876831055 88.50419616699219 30.17950439453125 C 86.26304626464844 24.88084411621094 83.05401611328125 20.12152099609375 78.96624755859375 16.03375244140625 C 74.87847900390625 11.94598388671875 70.11915588378906 8.736953735351562 64.82049560546875 6.495796203613281 C 59.33623123168945 4.176155090332031 53.50878524780273 3 47.5 3 M 47.5 0 C 73.7335205078125 0 95 21.2664794921875 95 47.5 C 95 73.7335205078125 73.7335205078125 95 47.5 95 C 21.2664794921875 95 0 73.7335205078125 0 47.5 C 0 21.2664794921875 21.2664794921875 0 47.5 0 Z" stroke="none" fill="#83793c"/>
                  </g>
                </g>
              </g>
            </g>
          </g>
        </g>
      </g>
    </g>
    <g id="interview_9185706_1_" data-name="interview_9185706 (1)" transform="translate(211.103 1724.597)">
      <g id="Grupo_1201935" data-name="Grupo 1201935" transform="translate(16.09 7.499)">
        <g id="Grupo_1201930" data-name="Grupo 1201930" transform="translate(5.831 0)">
          <path id="Trazado_1046582" data-name="Trazado 1046582" d="M75.915,11.884l-7.554,4.384-.813-2-.8-.59a4.395,4.395,0,0,1,1.67-5.5h0A4.395,4.395,0,0,1,74.07,9a2.168,2.168,0,0,0,.011.892Z" transform="translate(-66.366 -7.5)" fill="#5e5d5d"/>
          <path id="Trazado_1046583" data-name="Trazado 1046583" d="M69.628,25.144a4.46,4.46,0,0,0,.3.562l1.316,2.027L78.8,23.35l-1.439-2.336a4.332,4.332,0,0,0-.406-.544,12.72,12.72,0,0,0-6.995,4.261C69.845,24.867,69.735,25,69.628,25.144Z" transform="translate(-69.25 -18.966)" fill="#4f4d4d"/>
        </g>
        <path id="Trazado_1046584" data-name="Trazado 1046584" d="M239.433,436.1l-2.307-8.974h7.707l.04,7.99a.7.7,0,0,1-.7.7l-1.923.288Z" transform="translate(-211.491 -378.457)" fill="#ffd9c4"/>
        <path id="Trazado_1046585" data-name="Trazado 1046585" d="M36.133,436.1l2.307-8.974H30.3V435.4a.7.7,0,0,0,.7.7Z" transform="translate(-28.649 -378.457)" fill="#ffd9c4"/>
        <g id="Grupo_1201931" data-name="Grupo 1201931" transform="translate(33.034 30.343)">
          <path id="Trazado_1046586" data-name="Trazado 1046586" d="M321.374,269.34l-2-.215H302.56a1.638,1.638,0,0,0-1.638,1.638V285.48a1.638,1.638,0,0,0,1.638,1.638h3.958a.819.819,0,0,1,.819.819v2.79a.736.736,0,0,0,.736.736h0a.735.735,0,0,0,.474-.174l4.712-3.978a.819.819,0,0,1,.528-.193h5.458l2.308-.393a1.638,1.638,0,0,0,1.638-1.638l-.18-14.109A1.638,1.638,0,0,0,321.374,269.34Z" transform="translate(-300.922 -269.125)" fill="#fed059"/>
          <path id="Trazado_1046587" data-name="Trazado 1046587" d="M460.243,270.763v14.716a1.638,1.638,0,0,1-1.638,1.639H455.59a1.638,1.638,0,0,0,1.638-1.639V270.763a1.637,1.637,0,0,0-1.638-1.638h3.016A1.637,1.637,0,0,1,460.243,270.763Z" transform="translate(-437.652 -269.125)" fill="#ffbc50"/>
        </g>
        <g id="Grupo_1201932" data-name="Grupo 1201932" transform="translate(33.057 4.776)">
          <path id="Trazado_1046588" data-name="Trazado 1046588" d="M302.762,48.679h16.555l2.439.3a1.638,1.638,0,0,1,1.638,1.638V64.781a1.638,1.638,0,0,1-1.638,1.638l-2.439.253h-1.2a.819.819,0,0,0-.819.819v2.79a.736.736,0,0,1-.736.736h0a.735.735,0,0,1-.474-.173l-4.712-3.978a.819.819,0,0,0-.528-.193h-8.087a1.638,1.638,0,0,1-1.638-1.638V50.317A1.638,1.638,0,0,1,302.762,48.679Z" transform="translate(-301.124 -48.679)" fill="#fed059"/>
          <path id="Trazado_1046589" data-name="Trazado 1046589" d="M460.445,50.319V65.035a1.638,1.638,0,0,1-1.638,1.639h-3.015a1.638,1.638,0,0,0,1.638-1.639V50.319a1.637,1.637,0,0,0-1.638-1.638h3.015A1.637,1.637,0,0,1,460.445,50.319Z" transform="translate(-437.854 -48.681)" fill="#ffbc50"/>
        </g>
        <path id="Trazado_1046590" data-name="Trazado 1046590" d="M284.357,432.957v6.938a.7.7,0,0,1-.7.7h-2.32v-7.634l1.508-.751Z" transform="translate(-250.578 -382.95)" fill="#ffc2ab"/>
        <g id="Grupo_1201933" data-name="Grupo 1201933" transform="translate(20.046 0)">
          <path id="Trazado_1046591" data-name="Trazado 1046591" d="M188.939,11.884l7.554,4.384.813-2,.8-.59a4.395,4.395,0,0,0-1.67-5.5h0A4.395,4.395,0,0,0,190.784,9a2.168,2.168,0,0,1-.011.892Z" transform="translate(-188.939 -7.5)" fill="#5e5d5d"/>
          <path id="Trazado_1046592" data-name="Trazado 1046592" d="M198.112,25.144a4.461,4.461,0,0,1-.3.562l-1.316,2.027-7.554-4.384,1.439-2.336a4.329,4.329,0,0,1,.406-.544,12.72,12.72,0,0,1,6.995,4.261C197.895,24.867,198,25,198.112,25.144Z" transform="translate(-188.941 -18.966)" fill="#4f4d4d"/>
        </g>
        <path id="Trazado_1046593" data-name="Trazado 1046593" d="M89.533,75.149,89.8,48.824a10.905,10.905,0,0,0-2.2-6.942h0c-1.982-2.369-4.4-3.957-7.485-3.957l-.571-.108-.821.354-.919-.354h-.513a10.433,10.433,0,0,0-8.007,3.745h0a10.484,10.484,0,0,0-2.438,6.721V51.3l.538.9-.538.875V75.369Z" transform="translate(-60.951 -34.301)" fill="#707070"/>
        <path id="Trazado_1046594" data-name="Trazado 1046594" d="M186.649,48.252v3.055l-.4.8.4.973V75.151L183.1,70.314h0a32.759,32.759,0,0,1-.416-5.206V47.846a10.689,10.689,0,0,0-2.431-6.8,10.377,10.377,0,0,0-4.646-3.23h.6a10.432,10.432,0,0,1,10.433,10.432Z" transform="translate(-157.11 -34.304)" fill="#5e5d5d"/>
        <path id="Trazado_1046595" data-name="Trazado 1046595" d="M25.522,317.99l.662,4.427a10.3,10.3,0,0,1-.974,4.369,10.272,10.272,0,0,0-.975,4.369l-.662.833H17.254a1.162,1.162,0,0,1-1.138-1.4l1.074-5.22a8.984,8.984,0,0,1,6.407-6.849Z" transform="translate(-16.092 -281.98)" fill="#ff61a7"/>
        <path id="Trazado_1046596" data-name="Trazado 1046596" d="M133.015,255.668c-1.065,5.352-10.016,5.483-10.814,0l.351-.1a1.491,1.491,0,0,0,1.094-1.437v-1.783l.532-1.34-.532-2.62h7.922l-.367,2.358.367,1.549v1.836a1.491,1.491,0,0,0,1.094,1.437Z" transform="translate(-109.895 -220.452)" fill="#ffc2ab"/>
        <path id="Trazado_1046597" data-name="Trazado 1046597" d="M142.583,248.39V252.3a5.678,5.678,0,0,1-.884.645,5.538,5.538,0,0,1-6.156,0l-.883-.59V248.39Z" transform="translate(-120.91 -220.452)" fill="#ffaf9c"/>
        <path id="Trazado_1046598" data-name="Trazado 1046598" d="M240.58,331.672l-2.14.315h-3.7l-.974-1.007a10.3,10.3,0,0,0-.974-4.369,10.268,10.268,0,0,1-.974-4.369l.974-4.253,1.335.369.67.311a8.4,8.4,0,0,1,1.982.974,10.007,10.007,0,0,1,1.7,1.681,8.433,8.433,0,0,1,2.1,4.584l1.139,4.366A1.162,1.162,0,0,1,240.58,331.672Z" transform="translate(-206.801 -281.98)" fill="#ff61a7"/>
        <path id="Trazado_1046599" data-name="Trazado 1046599" d="M258.665,334.8H255.65a1.161,1.161,0,0,0,1.148-1.341c0-.019-.006-.037-.009-.056l-1.075-5.22c-.357-1.738-1.453-4.723-2.716-5.971a8.967,8.967,0,0,0-1.266-1.041l.591.163a8.984,8.984,0,0,1,6.407,6.849l1.075,5.22A1.162,1.162,0,0,1,258.665,334.8Z" transform="translate(-224.402 -284.791)" fill="#f2499a"/>
        <path id="Trazado_1046600" data-name="Trazado 1046600" d="M72.027,152.1h-1.9a3.288,3.288,0,0,1-3.288-3.288v-1.773a.928.928,0,0,1,.928-.928h4.261V152.1Z" transform="translate(-60.953 -130.037)" fill="#ffc2ab"/>
        <path id="Trazado_1046601" data-name="Trazado 1046601" d="M226.225,152.1h1.881a3.288,3.288,0,0,0,3.288-3.288v-1.773a.928.928,0,0,0-.928-.928h-4.242V152.1Z" transform="translate(-201.854 -130.037)" fill="#ffaf9c"/>
        <path id="Trazado_1046602" data-name="Trazado 1046602" d="M111.747,103.6l-.933.9-.592.4a3.217,3.217,0,0,1-3.578,0l-1.545-1.034a10.338,10.338,0,0,1-4.589-8.592v-3.3a7.922,7.922,0,0,1,4.222-7.005l3.361-1.776a.725.725,0,0,1,.677,0l1.533.809,1.8,1.24c2.6,1.372,3.63,3.748,3.63,6.685v3.3C115.731,98.669,114.614,101.679,111.747,103.6Z" transform="translate(-90.72 -74.33)" fill="#ffd9c4"/>
        <path id="Trazado_1046603" data-name="Trazado 1046603" d="M191.01,98.771v3.3a10.339,10.339,0,0,1-4.589,8.592l-.953.638a14.7,14.7,0,0,0,2.642-8.563v-4.1a10.777,10.777,0,0,0-3.15-7.843l1.828.966A7.925,7.925,0,0,1,191.01,98.771Z" transform="translate(-165.375 -81.139)" fill="#ffc2ab"/>
        <g id="Grupo_1201934" data-name="Grupo 1201934" transform="translate(7.481 35.215)">
          <path id="Trazado_1046604" data-name="Trazado 1046604" d="M101.053,324.925v8.64H80.591v-8.64a10.272,10.272,0,0,1,.975-4.369,10.3,10.3,0,0,0,.974-4.369v-4.253l2.876-.794a5.94,5.94,0,0,0,10.814,0l2.874.794v4.253a10.267,10.267,0,0,0,.974,4.369,10.3,10.3,0,0,1,.974,4.369Z" transform="translate(-80.591 -311.14)" fill="#ff7bae"/>
        </g>
        <path id="Trazado_1046605" data-name="Trazado 1046605" d="M158.737,340.464v6.029a1.523,1.523,0,1,1-3.046,0v-6.029a7.328,7.328,0,0,0,3.046,0Z" transform="translate(-139.501 -301.848)" fill="#ffc2ab"/>
      </g>
      <g id="Grupo_1201937" data-name="Grupo 1201937" transform="translate(16.09 7.499)">
        <path id="Trazado_1046606" data-name="Trazado 1046606" d="M67.959,15.725l-.937-1.485a4.394,4.394,0,0,1,1.369-6.061h0a4.394,4.394,0,0,1,6.061,1.369l.82,1.3" transform="translate(-60.514 -7.499)" fill="none" stroke="#000" stroke-linecap="round" stroke-linejoin="round" stroke-miterlimit="10" stroke-width="1"/>
        <path id="Trazado_1046607" data-name="Trazado 1046607" d="M201.648,15.633l.879-1.393a4.394,4.394,0,0,0-1.369-6.061h0A4.394,4.394,0,0,0,195.1,9.548l-.82,1.3" transform="translate(-173.61 -7.499)" fill="none" stroke="#000" stroke-linecap="round" stroke-linejoin="round" stroke-miterlimit="10" stroke-width="1"/>
        <path id="Trazado_1046608" data-name="Trazado 1046608" d="M300.721,278.586v-8.215a1.641,1.641,0,0,1,1.641-1.641h19.356a1.641,1.641,0,0,1,1.641,1.641v8.507" transform="translate(-267.71 -238.433)" fill="none" stroke="#000" stroke-linecap="round" stroke-linejoin="round" stroke-miterlimit="10" stroke-width="1"/>
        <path id="Trazado_1046609" data-name="Trazado 1046609" d="M343.983,391.23v2.18a1.642,1.642,0,0,1-1.641,1.642h-8.1a.827.827,0,0,0-.53.193l-4.721,3.986a.737.737,0,0,1-1.213-.562v-2.8a.82.82,0,0,0-.821-.82h-2.9" transform="translate(-288.334 -346.726)" fill="none" stroke="#000" stroke-linecap="round" stroke-linejoin="round" stroke-miterlimit="10" stroke-width="1"/>
        <path id="Trazado_1046610" data-name="Trazado 1046610" d="M308.778,48.28h12.94a1.642,1.642,0,0,1,1.641,1.641V64.669a1.642,1.642,0,0,1-1.641,1.641h-3.966a.821.821,0,0,0-.821.821v2.8a.737.737,0,0,1-1.212.564L311,66.5a.819.819,0,0,0-.529-.194h-8.1a1.642,1.642,0,0,1-1.641-1.641V49.921a1.642,1.642,0,0,1,1.641-1.641h2.357" transform="translate(-267.71 -43.55)" fill="none" stroke="#000" stroke-linecap="round" stroke-linejoin="round" stroke-miterlimit="10" stroke-width="1"/>
        <g id="Grupo_1201936" data-name="Grupo 1201936" transform="translate(41.888 8.41)">
          <path id="Trazado_1046611" data-name="Trazado 1046611" d="M377.261,82.456A2.442,2.442,0,1,1,379.7,84.9v2.553" transform="translate(-377.261 -80.014)" fill="none" stroke="#000" stroke-linecap="round" stroke-linejoin="round" stroke-miterlimit="10" stroke-width="1"/>
        </g>
        <line id="Línea_977" data-name="Línea 977" transform="translate(44.33 18.714)" fill="none" stroke="#000" stroke-linecap="round" stroke-linejoin="round" stroke-miterlimit="10" stroke-width="1"/>
        <line id="Línea_978" data-name="Línea 978" y1="4.784" transform="translate(5.886 32.327)" fill="none" stroke="#000" stroke-linecap="round" stroke-linejoin="round" stroke-miterlimit="10" stroke-width="1"/>
        <path id="Trazado_1046612" data-name="Trazado 1046612" d="M66.841,62.571V48.286A10.456,10.456,0,0,1,77.286,37.82H80.06A10.432,10.432,0,0,1,90.494,48.252V71.194" transform="translate(-60.955 -34.303)" fill="none" stroke="#000" stroke-linecap="round" stroke-linejoin="round" stroke-miterlimit="10" stroke-width="1"/>
        <line id="Línea_979" data-name="Línea 979" y1="7.286" transform="translate(1.647 50.355)" fill="none" stroke="#000" stroke-linecap="round" stroke-linejoin="round" stroke-miterlimit="10" stroke-width="1"/>
        <path id="Trazado_1046613" data-name="Trazado 1046613" d="M29.842,259.7v4.432a1.491,1.491,0,0,1-1.094,1.437L23.6,266.992a8.983,8.983,0,0,0-3.923,2.27h0a8.984,8.984,0,0,0-2.484,4.579l-1.074,5.22a1.162,1.162,0,0,0,1.138,1.4h6.174" transform="translate(-16.09 -230.449)" fill="none" stroke="#000" stroke-linecap="round" stroke-linejoin="round" stroke-miterlimit="10" stroke-width="1"/>
        <path id="Trazado_1046614" data-name="Trazado 1046614" d="M209.389,280.458h6.174a1.162,1.162,0,0,0,1.138-1.4l-1.074-5.22a8.984,8.984,0,0,0-2.484-4.579h0a8.984,8.984,0,0,0-3.923-2.27l-5.153-1.424a1.491,1.491,0,0,1-1.094-1.437V259.7" transform="translate(-181.3 -230.45)" fill="none" stroke="#000" stroke-linecap="round" stroke-linejoin="round" stroke-miterlimit="10" stroke-width="1"/>
        <line id="Línea_980" data-name="Línea 980" y1="7.286" transform="translate(33.779 50.355)" fill="none" stroke="#000" stroke-linecap="round" stroke-linejoin="round" stroke-miterlimit="10" stroke-width="1"/>
        <line id="Línea_981" data-name="Línea 981" x2="3.186" transform="translate(6.158 16.076)" fill="none" stroke="#000" stroke-linecap="round" stroke-linejoin="round" stroke-miterlimit="10" stroke-width="1"/>
        <path id="Trazado_1046615" data-name="Trazado 1046615" d="M70.352,172.686h-.227a3.288,3.288,0,0,1-3.288-3.288" transform="translate(-60.951 -150.621)" fill="none" stroke="#000" stroke-linecap="round" stroke-linejoin="round" stroke-miterlimit="10" stroke-width="1"/>
        <line id="Línea_982" data-name="Línea 982" x1="3.064" transform="translate(26.127 16.076)" fill="none" stroke="#000" stroke-linecap="round" stroke-linejoin="round" stroke-miterlimit="10" stroke-width="1"/>
        <path id="Trazado_1046616" data-name="Trazado 1046616" d="M240.707,172.686h.2A3.288,3.288,0,0,0,244.2,169.4" transform="translate(-214.656 -150.621)" fill="none" stroke="#000" stroke-linecap="round" stroke-linejoin="round" stroke-miterlimit="10" stroke-width="1"/>
        <path id="Trazado_1046617" data-name="Trazado 1046617" d="M125.782,311.957h0a5.371,5.371,0,0,0,9.982,0h0" transform="translate(-113.06 -276.647)" fill="none" stroke="#000" stroke-linecap="round" stroke-linejoin="round" stroke-miterlimit="10" stroke-width="1"/>
        <path id="Trazado_1046618" data-name="Trazado 1046618" d="M110.4,102.833l-1.582,1.058a3.294,3.294,0,0,1-3.663,0l-1.582-1.058a10.585,10.585,0,0,1-4.7-8.8V90.151a6.776,6.776,0,0,1,3.668-6.021l3.911-2.019a1.163,1.163,0,0,1,1.066,0l3.911,2.019a6.775,6.775,0,0,1,3.668,6.021v3.885A10.585,10.585,0,0,1,110.4,102.833Z" transform="translate(-89.274 -73.344)" fill="none" stroke="#000" stroke-linecap="round" stroke-linejoin="round" stroke-miterlimit="10" stroke-width="1"/>
        <path id="Trazado_1046619" data-name="Trazado 1046619" d="M158.734,341.154v5.95a1.523,1.523,0,0,1-1.523,1.523h0a1.523,1.523,0,0,1-1.523-1.523v-5.95" transform="translate(-139.498 -302.457)" fill="none" stroke="#000" stroke-linecap="round" stroke-linejoin="round" stroke-miterlimit="10" stroke-width="1"/>
        <line id="Línea_983" data-name="Línea 983" y1="4.402" transform="translate(17.713 3.823)" fill="none" stroke="#000" stroke-linecap="round" stroke-linejoin="round" stroke-miterlimit="10" stroke-width="1"/>
        <path id="Trazado_1046620" data-name="Trazado 1046620" d="M82.544,318.874v4.151a10.276,10.276,0,0,1-.975,4.369h0a10.277,10.277,0,0,0-.975,4.369V340.4" transform="translate(-73.114 -282.761)" fill="none" stroke="#000" stroke-linecap="round" stroke-linejoin="round" stroke-miterlimit="10" stroke-width="1"/>
        <path id="Trazado_1046621" data-name="Trazado 1046621" d="M252.841,403.16c.093.288.172.58.238.875a10.279,10.279,0,0,1,.247,2.238v8.64" transform="translate(-225.383 -357.272)" fill="none" stroke="#000" stroke-linecap="round" stroke-linejoin="round" stroke-miterlimit="10" stroke-width="1"/>
        <path id="Trazado_1046622" data-name="Trazado 1046622" d="M240.221,318.87v4.151a10.151,10.151,0,0,0,.157,1.781" transform="translate(-214.227 -282.758)" fill="none" stroke="#000" stroke-linecap="round" stroke-linejoin="round" stroke-miterlimit="10" stroke-width="1"/>
        <line id="Línea_984" data-name="Línea 984" x2="10.583" transform="translate(39.039 37.189)" fill="none" stroke="#000" stroke-linecap="round" stroke-linejoin="round" stroke-miterlimit="10" stroke-width="1"/>
        <line id="Línea_985" data-name="Línea 985" x2="6.949" transform="translate(40.855 41.828)" fill="none" stroke="#000" stroke-linecap="round" stroke-linejoin="round" stroke-miterlimit="10" stroke-width="1"/>
      </g>
    </g>
  </g>
</svg>
