<svg xmlns="http://www.w3.org/2000/svg" xmlns:xlink="http://www.w3.org/1999/xlink" width="113" height="113" viewBox="0 0 113 113">
  <defs>
    <filter id="Trazado_982547" x="0" y="0" width="113" height="113" filterUnits="userSpaceOnUse">
      <feOffset dy="3" input="SourceAlpha"/>
      <feGaussianBlur stdDeviation="3" result="blur"/>
      <feFlood flood-opacity="0.161"/>
      <feComposite operator="in" in2="blur"/>
      <feComposite in="SourceGraphic"/>
    </filter>
  </defs>
  <g id="Grupo_1207052" data-name="Grupo 1207052" transform="translate(-4127.49 -6558)">
    <g id="Grupo_1206615" data-name="Grupo 1206615" transform="translate(4136.49 6564)">
      <g id="Grupo_1176928" data-name="Grupo 1176928" transform="translate(0 0)">
        <g id="Grupo_1172322" data-name="Grupo 1172322">
          <g id="Grupo_1164700" data-name="Grupo 1164700">
            <g id="Grupo_1160931" data-name="Grupo 1160931">
              <g id="Grupo_1160749" data-name="Grupo 1160749">
                <g id="Grupo_1158891" data-name="Grupo 1158891">
                  <g id="Grupo_1157406" data-name="Grupo 1157406">
                    <g id="Grupo_1155793" data-name="Grupo 1155793">
                      <g id="Grupo_1154704" data-name="Grupo 1154704">
                        <g id="Grupo_1150790" data-name="Grupo 1150790">
                          <g id="Grupo_1154214" data-name="Grupo 1154214" transform="translate(0)">
                            <g id="Grupo_1152583" data-name="Grupo 1152583">
                              <g id="Grupo_1146973" data-name="Grupo 1146973">
                                <g id="Grupo_1146954" data-name="Grupo 1146954">
                                  <g transform="matrix(1, 0, 0, 1, -9, -6)" filter="url(#Trazado_982547)">
                                    <g id="Trazado_982547-2" data-name="Trazado 982547" transform="translate(9 6)" fill="#ebe9f0">
                                      <path d="M 47.50000762939453 93.49986267089844 C 41.28937911987305 93.49986267089844 35.26534271240234 92.28383636474609 29.59519386291504 89.88558197021484 C 24.11772727966309 87.56880950927734 19.19814109802246 84.25183868408203 14.97310066223145 80.02679443359375 C 10.74804782867432 75.8017578125 7.431074142456055 70.88218688964844 5.114300727844238 65.40471649169922 C 2.716034412384033 59.73458480834961 1.500007629394531 53.71054458618164 1.500007629394531 47.49993133544922 C 1.500007629394531 41.2893180847168 2.716034412384033 35.26527786254883 5.114300727844238 29.59514427185059 C 7.431074142456055 24.11767768859863 10.74804782867432 19.19810485839844 14.97310066223145 14.97306442260742 C 19.19814109802246 10.74802494049072 24.11772727966309 7.431051254272461 29.59519386291504 5.114277839660645 C 35.26534271240234 2.71602463722229 41.28937911987305 1.499997973442078 47.50000762939453 1.499997973442078 C 53.71063613891602 1.499997973442078 59.73467254638672 2.71602463722229 65.40482330322266 5.114277839660645 C 70.88228607177734 7.431051254272461 75.80187225341797 10.74802494049072 80.02691650390625 14.97306442260742 C 84.25196838378906 19.19810485839844 87.56893920898438 24.11767768859863 89.88571166992188 29.59514427185059 C 92.28398132324219 35.26527786254883 93.50000762939453 41.2893180847168 93.50000762939453 47.49993133544922 C 93.50000762939453 53.71054458618164 92.28398132324219 59.73458480834961 89.88571166992188 65.40471649169922 C 87.56893920898438 70.88218688964844 84.25196838378906 75.8017578125 80.02691650390625 80.02679443359375 C 75.80187225341797 84.25183868408203 70.88228607177734 87.56880950927734 65.40482330322266 89.88558197021484 C 59.73467254638672 92.28383636474609 53.71063613891602 93.49986267089844 47.50000762939453 93.49986267089844 Z" stroke="none"/>
                                      <path d="M 47.50000762939453 2.999992370605469 C 41.4912223815918 2.999992370605469 35.66377639770508 4.1761474609375 30.17951202392578 6.495796203613281 C 24.88085174560547 8.736930847167969 20.12152862548828 11.94596099853516 16.03376007080078 16.03372955322266 C 11.94597625732422 20.12148284912109 8.736961364746094 24.88080596923828 6.495803833007812 30.17946624755859 C 4.176162719726562 35.66371536254883 3.000007629394531 41.49116134643555 3.000007629394531 47.49993133544922 C 3.000007629394531 53.50870132446289 4.176162719726562 59.33614730834961 6.495803833007812 64.82038879394531 C 8.736961364746094 70.11905670166016 11.94597625732422 74.87836456298828 16.03376007080078 78.96613311767578 C 20.12152862548828 83.05390167236328 24.88085174560547 86.26291656494141 30.17951202392578 88.50406646728516 C 35.66377639770508 90.82369995117188 41.4912223815918 91.99985504150391 47.50000762939453 91.99985504150391 C 53.50879287719727 91.99985504150391 59.33623886108398 90.82369995117188 64.82049560546875 88.50406646728516 C 70.11916351318359 86.26291656494141 74.87848663330078 83.05390167236328 78.96625518798828 78.96613311767578 C 83.05403900146484 74.87836456298828 86.26305389404297 70.11905670166016 88.50421142578125 64.82038879394531 C 90.8238525390625 59.33614730834961 92.00000762939453 53.50870132446289 92.00000762939453 47.49993133544922 C 92.00000762939453 41.49116134643555 90.8238525390625 35.66371536254883 88.50421142578125 30.17946624755859 C 86.26305389404297 24.88080596923828 83.05403900146484 20.12148284912109 78.96625518798828 16.03372955322266 C 74.87848663330078 11.94596099853516 70.11916351318359 8.736930847167969 64.82049560546875 6.495796203613281 C 59.33623886108398 4.1761474609375 53.50879287719727 2.999992370605469 47.50000762939453 2.999992370605469 M 47.50000762939453 -7.62939453125e-06 C 73.73352813720703 -7.62939453125e-06 95.00000762939453 21.26644134521484 95.00000762939453 47.49993133544922 C 95.00000762939453 73.73342132568359 73.73352813720703 94.99985504150391 47.50000762939453 94.99985504150391 C 21.26648712158203 94.99985504150391 7.62939453125e-06 73.73342132568359 7.62939453125e-06 47.49993133544922 C 7.62939453125e-06 21.26644134521484 21.26648712158203 -7.62939453125e-06 47.50000762939453 -7.62939453125e-06 Z" stroke="none" fill="#453179"/>
                                    </g>
                                  </g>
                                </g>
                              </g>
                            </g>
                          </g>
                        </g>
                      </g>
                    </g>
                  </g>
                </g>
              </g>
            </g>
          </g>
        </g>
      </g>
    </g>
    <g id="quiz_18312550" transform="translate(4135.157 6522.879)">
      <g id="Grupo_1207051" data-name="Grupo 1207051" transform="translate(28.047 56.121)">
        <path id="Trazado_1050125" data-name="Trazado 1050125" d="M152.563,124.448h-7.53a3.147,3.147,0,0,1-3.138-3.138v-2.98c0-5.48-3.009-4.79-5.822-9.151a19.609,19.609,0,1,1,32.98,0c-2.814,4.362-5.822,3.671-5.822,9.151v2.98a3.147,3.147,0,0,1-3.138,3.138Z" transform="translate(-131.871 -75.315)" fill="#ffc55a" fill-rule="evenodd"/>
        <path id="Trazado_1050126" data-name="Trazado 1050126" d="M224.811,364.423v8.746a5.034,5.034,0,0,1-5.255,4.745h-4.083a5.034,5.034,0,0,1-5.255-4.745v-8.746h14.592Z" transform="translate(-196.822 -315.291)" fill="#837683" fill-rule="evenodd"/>
        <path id="Trazado_1050127" data-name="Trazado 1050127" d="M224.811,410.444v1.412a5.034,5.034,0,0,1-5.255,4.745h-4.083a5.034,5.034,0,0,1-5.255-4.745v-1.412h14.592Z" transform="translate(-196.822 -353.977)" fill="#8f848f" fill-rule="evenodd"/>
        <path id="Trazado_1050128" data-name="Trazado 1050128" d="M168.513,82.6h7.841a.448.448,0,0,1,.328.136l10.328,10.328a.465.465,0,0,0,.793-.328V83.066a.465.465,0,0,1,.465-.465h7.348a.465.465,0,0,0,.465-.465V63.388a.466.466,0,0,0-.465-.465h-27.1a.465.465,0,0,0-.465.465v18.75a.465.465,0,0,0,.465.465Z" transform="translate(-161.372 -61.839)" fill="#3cb54b" fill-rule="evenodd"/>
        <path id="Trazado_1050129" data-name="Trazado 1050129" d="M237.623,266.8a3.484,3.484,0,1,1-3.484,3.484A3.484,3.484,0,0,1,237.623,266.8Z" transform="translate(-216.93 -233.227)" fill="#ee2b39" fill-rule="evenodd"/>
        <path id="Trazado_1050130" data-name="Trazado 1050130" d="M192.305,99.13a.929.929,0,1,1,0-1.858h11.7a.929.929,0,1,1,0,1.858Zm0-8.764a.929.929,0,1,1,0-1.858h2.8a.929.929,0,1,1,0,1.858Zm7.825,0a.929.929,0,1,1,0-1.858h10.914a.929.929,0,0,1,0,1.858Zm-7.825,4.382a.929.929,0,1,1,0-1.858h5.383a.929.929,0,1,1,0,1.858Zm11.345,0a.929.929,0,1,1,0-1.858h7.394a.929.929,0,0,1,0,1.858Zm5.028,4.382a.929.929,0,1,1,0-1.858h2.366a.929.929,0,0,1,0,1.858Z" transform="translate(-180.982 -83.347)" fill="#e6e6e6" fill-rule="evenodd"/>
        <path id="Trazado_1050131" data-name="Trazado 1050131" d="M152.563,124.448h-7.53a3.147,3.147,0,0,1-3.138-3.138v-2.98c0-5.48-3.009-4.79-5.822-9.151a19.612,19.612,0,0,1,16.49-30.224v45.494Z" transform="translate(-131.871 -75.315)" fill="#ffd07a" fill-rule="evenodd"/>
        <path id="Trazado_1050132" data-name="Trazado 1050132" d="M217.515,377.914h-2.041a5.034,5.034,0,0,1-5.255-4.745v-8.746h7.3v13.491Z" transform="translate(-196.822 -315.291)" fill="#9a909a" fill-rule="evenodd"/>
        <path id="Trazado_1050133" data-name="Trazado 1050133" d="M217.515,416.6h-2.041a5.034,5.034,0,0,1-5.255-4.745v-1.412h7.3V416.6Z" transform="translate(-196.822 -353.977)" fill="#a49ba4" fill-rule="evenodd"/>
        <path id="Trazado_1050134" data-name="Trazado 1050134" d="M168.513,82.6h7.841a.448.448,0,0,1,.328.136l5.382,5.382v-25.2H168.513a.465.465,0,0,0-.465.465v18.75A.465.465,0,0,0,168.513,82.6Z" transform="translate(-161.372 -61.838)" fill="#62c36d" fill-rule="evenodd"/>
        <path id="Trazado_1050135" data-name="Trazado 1050135" d="M237.623,273.77a3.484,3.484,0,0,1,0-6.968Z" transform="translate(-216.93 -233.227)" fill="#f2535f" fill-rule="evenodd"/>
        <path id="Trazado_1050136" data-name="Trazado 1050136" d="M192.305,99.13a.929.929,0,1,1,0-1.858h9.37V99.13Zm9.37-8.764V88.508h-1.544a.929.929,0,1,0,0,1.858Zm-9.37,0a.929.929,0,1,1,0-1.858h2.8a.929.929,0,1,1,0,1.858Zm0,4.382a.929.929,0,1,1,0-1.858h5.383a.929.929,0,1,1,0,1.858Z" transform="translate(-180.982 -83.347)" fill="#fff" fill-rule="evenodd"/>
        <path id="Trazado_1050137" data-name="Trazado 1050137" d="M136.747,206.776c-.225-.289-.45-.6-.673-.95a19.514,19.514,0,0,1-3.119-10.615c0-.433.015-.862.043-1.287a11.546,11.546,0,0,1,3.75,12.852Z" transform="translate(-131.871 -171.963)" fill="#ffb349" fill-rule="evenodd"/>
        <path id="Trazado_1050138" data-name="Trazado 1050138" d="M355.62,193.923c.028.426.043.855.043,1.287a19.516,19.516,0,0,1-3.119,10.615c-.224.347-.449.662-.673.95a11.546,11.546,0,0,1,3.75-12.852Z" transform="translate(-315.361 -171.962)" fill="#ffb349" fill-rule="evenodd"/>
        <path id="Trazado_1050139" data-name="Trazado 1050139" d="M154.38,175.246H139.319a4.226,4.226,0,0,1-4.221-4.221v-2.98c0-2.934-.844-3.657-2.375-4.97a15.573,15.573,0,0,1-3.274-3.594,20.72,20.72,0,0,1-.934-20.807,1.084,1.084,0,0,1,1.92,1.008,18.551,18.551,0,0,0,.835,18.624,13.37,13.37,0,0,0,2.863,3.123c1.612,1.381,3.133,2.685,3.133,6.616v2.98a2.056,2.056,0,0,0,2.053,2.054H154.38a2.056,2.056,0,0,0,2.053-2.054v-2.98c0-3.931,1.522-5.235,3.133-6.616a13.365,13.365,0,0,0,2.863-3.123,18.548,18.548,0,0,0,.968-18.368,1.083,1.083,0,1,1,1.934-.977,20.71,20.71,0,0,1-1.081,20.52,15.566,15.566,0,0,1-3.273,3.594c-1.531,1.313-2.375,2.036-2.375,4.97v2.98a4.226,4.226,0,0,1-4.221,4.221Z" transform="translate(-126.157 -125.03)" fill-rule="evenodd"/>
        <path id="Trazado_1050140" data-name="Trazado 1050140" d="M213.835,373.282h-4.082a6.108,6.108,0,0,1-6.34-5.829v-8.746a1.084,1.084,0,0,1,2.168,0v8.746a3.947,3.947,0,0,0,4.172,3.661h4.082a3.945,3.945,0,0,0,4.172-3.661v-8.746a1.084,1.084,0,1,1,2.168,0v8.746a6.107,6.107,0,0,1-6.34,5.829Z" transform="translate(-191.102 -309.574)" fill-rule="evenodd"/>
        <path id="Trazado_1050141" data-name="Trazado 1050141" d="M219.091,405.812H204.5a1.084,1.084,0,1,1,0-2.168h14.593a1.084,1.084,0,0,1,0,2.168Z" transform="translate(-191.102 -348.261)" fill-rule="evenodd"/>
        <path id="Trazado_1050142" data-name="Trazado 1050142" d="M163.412,75.8h7.416a1.088,1.088,0,0,1,.766.318L181,85.524v-8.64a1.084,1.084,0,0,1,1.084-1.084h7.195V58.289H163.412V75.8Zm18.673,13.425a1.086,1.086,0,0,1-.768-.317l-10.938-10.94h-8.05a1.084,1.084,0,0,1-1.084-1.084V57.2a1.084,1.084,0,0,1,1.084-1.084h28.034a1.084,1.084,0,0,1,1.084,1.084V76.884a1.084,1.084,0,0,1-1.084,1.084h-7.194V88.141a1.083,1.083,0,0,1-.669,1,1.072,1.072,0,0,1-.413.082Z" transform="translate(-155.652 -56.121)" fill-rule="evenodd"/>
        <path id="Trazado_1050143" data-name="Trazado 1050143" d="M250.283,314.479A1.084,1.084,0,0,1,249.2,313.4v-8.59a1.084,1.084,0,1,1,2.168,0V313.4a1.083,1.083,0,0,1-1.084,1.084Z" transform="translate(-229.59 -264.263)" fill-rule="evenodd"/>
        <path id="Trazado_1050144" data-name="Trazado 1050144" d="M231.9,262.168a2.4,2.4,0,1,0,2.4,2.4A2.4,2.4,0,0,0,231.9,262.168Zm0,6.968a4.568,4.568,0,1,1,4.568-4.568A4.574,4.574,0,0,1,231.9,269.136Z" transform="translate(-211.212 -227.509)" fill-rule="evenodd"/>
        <path id="Trazado_1050145" data-name="Trazado 1050145" d="M194.286,89.7h-2.8a1.084,1.084,0,1,1,0-2.168h2.8a1.084,1.084,0,0,1,0,2.168Zm15.942,0H199.314a1.084,1.084,0,1,1,0-2.168h10.914a1.084,1.084,0,0,1,0,2.168Z" transform="translate(-180.165 -82.529)" fill-rule="evenodd"/>
        <path id="Trazado_1050146" data-name="Trazado 1050146" d="M196.871,117.2h-5.384a1.084,1.084,0,1,1,0-2.168h5.384a1.084,1.084,0,0,1,0,2.168Zm13.356,0h-7.394a1.084,1.084,0,1,1,0-2.168h7.394a1.084,1.084,0,0,1,0,2.168Z" transform="translate(-180.164 -105.644)" fill-rule="evenodd"/>
        <path id="Trazado_1050147" data-name="Trazado 1050147" d="M203.193,144.7h-11.7a1.084,1.084,0,1,1,0-2.168h11.705a1.084,1.084,0,0,1,0,2.168Zm7.035,0h-2.366a1.084,1.084,0,1,1,0-2.168h2.366a1.084,1.084,0,0,1,0,2.168Z" transform="translate(-180.165 -128.758)" fill-rule="evenodd"/>
        <path id="Trazado_1050148" data-name="Trazado 1050148" d="M361.379,202.642a19.513,19.513,0,0,1-3,10.334,10.465,10.465,0,0,1,3-10.334Z" transform="translate(-321.078 -179.292)" fill="#ffc55a" fill-rule="evenodd"/>
      </g>
      <circle id="Elipse_12970" data-name="Elipse 12970" cx="10.452" cy="10.452" r="10.452" transform="translate(60.661 87.141) rotate(-45)" fill="#ee2b39"/>
      <path id="Trazado_1050149" data-name="Trazado 1050149" d="M423.614,185.165a10.452,10.452,0,0,1,0,20.9Z" transform="translate(-348.163 -108.479)" fill="#f2535f" fill-rule="evenodd"/>
      <path id="Trazado_1050150" data-name="Trazado 1050150" d="M378.113,201.436a11.435,11.435,0,0,1-8.323-3.55,1.084,1.084,0,1,1,1.564-1.5,9.364,9.364,0,1,0,4.076-15.463,1.084,1.084,0,1,1-.619-2.077,11.537,11.537,0,1,1,3.3,22.591Z" transform="translate(-302.662 -102.763)" fill-rule="evenodd"/>
      <path id="Trazado_1050151" data-name="Trazado 1050151" d="M400.7,228.917a1.082,1.082,0,0,1-.767-.317l-3.256-3.257L393.42,228.6a1.083,1.083,0,0,1-1.532-1.533l3.255-3.256-3.255-3.256a1.083,1.083,0,1,1,1.531-1.533l3.256,3.256,3.257-3.256a1.084,1.084,0,0,1,1.533,1.533l-3.256,3.256,3.257,3.256a1.084,1.084,0,0,1-.766,1.85Z" transform="translate(-321.225 -136.673)" fill-rule="evenodd"/>
      <circle id="Elipse_12971" data-name="Elipse 12971" cx="10.452" cy="10.452" r="10.452" transform="translate(9.448 94.917) rotate(-76.7)" fill="#00ade6"/>
      <path id="Trazado_1050152" data-name="Trazado 1050152" d="M33.254,206.069a10.452,10.452,0,1,1,0-20.9Z" transform="translate(-11.226 -108.479)" fill="#31bceb" fill-rule="evenodd"/>
      <path id="Trazado_1050153" data-name="Trazado 1050153" d="M27.536,201.435a11.536,11.536,0,1,1,3.6-22.5A1.084,1.084,0,0,1,30.46,181a9.369,9.369,0,1,0,4.413,14.728,1.084,1.084,0,0,1,1.7,1.349,11.486,11.486,0,0,1-9.034,4.361Z" transform="translate(-5.508 -102.761)" fill-rule="evenodd"/>
      <path id="Trazado_1050154" data-name="Trazado 1050154" d="M59,238.709a1.088,1.088,0,0,1-.767-.317l-2.7-2.7a1.084,1.084,0,0,1,1.533-1.533L59,236.092l4.616-4.616a1.084,1.084,0,0,1,1.533,1.533l-5.382,5.382a1.081,1.081,0,0,1-.767.317Z" transform="translate(-38.477 -147.143)" fill-rule="evenodd"/>
    </g>
  </g>
</svg>
