<svg xmlns="http://www.w3.org/2000/svg" xmlns:xlink="http://www.w3.org/1999/xlink" width="113" height="113" viewBox="0 0 113 113">
  <defs>
    <filter id="Trazado_982547" x="0" y="0" width="113" height="113" filterUnits="userSpaceOnUse">
      <feOffset dy="3" input="SourceAlpha"/>
      <feGaussianBlur stdDeviation="3" result="blur"/>
      <feFlood flood-opacity="0.161"/>
      <feComposite operator="in" in2="blur"/>
      <feComposite in="SourceGraphic"/>
    </filter>
  </defs>
  <g id="Grupo_1206592" data-name="Grupo 1206592" transform="translate(-272 -10824.826)">
    <g id="Grupo_1204125" data-name="Grupo 1204125" transform="translate(0 6984.49)">
      <g id="Grupo_1203962" data-name="Grupo 1203962" transform="translate(0 1899.461)">
        <g id="Grupo_1203498" data-name="Grupo 1203498" transform="translate(0 -197.72)">
          <g id="Grupo_1202589" data-name="Grupo 1202589" transform="translate(281 2144.596)">
            <g id="Grupo_1172010" data-name="Grupo 1172010" transform="translate(0)">
              <g id="Grupo_1171046" data-name="Grupo 1171046">
                <g id="Grupo_1148525" data-name="Grupo 1148525">
                  <g transform="matrix(1, 0, 0, 1, -9, -6)" filter="url(#Trazado_982547)">
                    <g id="Trazado_982547-2" data-name="Trazado 982547" transform="translate(9 6)" fill="#edf3fc">
                      <path d="M 47.5 93.5 C 41.28937149047852 93.5 35.26533508300781 92.28397369384766 29.59518623352051 89.88570404052734 C 24.11771965026855 87.56893157958984 19.19813346862793 84.25196075439453 14.97309303283691 80.02691650390625 C 10.74804019927979 75.80186462402344 7.431066513061523 70.88229370117188 5.114293098449707 65.40481567382812 C 2.716026782989502 59.73468017578125 1.5 53.71062850952148 1.5 47.5 C 1.5 41.28937149047852 2.716026782989502 35.26533508300781 5.114293098449707 29.59518623352051 C 7.431066513061523 24.11771965026855 10.74804019927979 19.19813346862793 14.97309303283691 14.97309303283691 C 19.19813346862793 10.74804019927979 24.11771965026855 7.431066513061523 29.59518623352051 5.114293098449707 C 35.26533508300781 2.716026782989502 41.28937149047852 1.5 47.5 1.5 C 53.71062850952148 1.5 59.73468017578125 2.716026782989502 65.40481567382812 5.114293098449707 C 70.88229370117188 7.431066513061523 75.80186462402344 10.74804019927979 80.02691650390625 14.97309303283691 C 84.25196075439453 19.19813346862793 87.56893157958984 24.11771965026855 89.88570404052734 29.59518623352051 C 92.28397369384766 35.26533508300781 93.5 41.28937149047852 93.5 47.5 C 93.5 53.71062850952148 92.28397369384766 59.73468017578125 89.88570404052734 65.40481567382812 C 87.56893157958984 70.88229370117188 84.25196075439453 75.80186462402344 80.02691650390625 80.02691650390625 C 75.80186462402344 84.25196075439453 70.88229370117188 87.56893157958984 65.40481567382812 89.88570404052734 C 59.73468017578125 92.28397369384766 53.71062850952148 93.5 47.5 93.5 Z" stroke="none"/>
                      <path d="M 47.5 3 C 41.49121475219727 3 35.66376876831055 4.176155090332031 30.17950439453125 6.495796203613281 C 24.88084411621094 8.736953735351562 20.12152099609375 11.94598388671875 16.03375244140625 16.03375244140625 C 11.94598388671875 20.12152099609375 8.736953735351562 24.88084411621094 6.495796203613281 30.17950439453125 C 4.176155090332031 35.66376876831055 3 41.49121475219727 3 47.5 C 3 53.50878524780273 4.176155090332031 59.33623123168945 6.495796203613281 64.82049560546875 C 8.736953735351562 70.11915588378906 11.94598388671875 74.87847900390625 16.03375244140625 78.96624755859375 C 20.12152099609375 83.05401611328125 24.88084411621094 86.26304626464844 30.17950439453125 88.50419616699219 C 35.66376876831055 90.82384490966797 41.49121475219727 92 47.5 92 C 53.50878524780273 92 59.33623123168945 90.82384490966797 64.82049560546875 88.50419616699219 C 70.11915588378906 86.26304626464844 74.87847900390625 83.05401611328125 78.96624755859375 78.96624755859375 C 83.05401611328125 74.87847900390625 86.26304626464844 70.11915588378906 88.50419616699219 64.82049560546875 C 90.82384490966797 59.33623123168945 92 53.50878524780273 92 47.5 C 92 41.49121475219727 90.82384490966797 35.66376876831055 88.50419616699219 30.17950439453125 C 86.26304626464844 24.88084411621094 83.05401611328125 20.12152099609375 78.96624755859375 16.03375244140625 C 74.87847900390625 11.94598388671875 70.11915588378906 8.736953735351562 64.82049560546875 6.495796203613281 C 59.33623123168945 4.176155090332031 53.50878524780273 3 47.5 3 M 47.5 0 C 73.7335205078125 0 95 21.2664794921875 95 47.5 C 95 73.7335205078125 73.7335205078125 95 47.5 95 C 21.2664794921875 95 0 73.7335205078125 0 47.5 C 0 21.2664794921875 21.2664794921875 0 47.5 0 Z" stroke="none" fill="#5692e8"/>
                    </g>
                  </g>
                </g>
              </g>
            </g>
          </g>
        </g>
      </g>
    </g>
    <g id="creative_4964017" transform="translate(298 10844)">
      <g id="Grupo_1201995" data-name="Grupo 1201995">
        <g id="Grupo_1201974" data-name="Grupo 1201974">
          <path id="Trazado_1046991" data-name="Trazado 1046991" d="M53.65,20.04a10.682,10.682,0,0,0-4.33-1.03A18.959,18.959,0,0,0,19.37,9H13.9c-.11,0-.22,0-.33.01A22.984,22.984,0,0,1,53.65,20.04Z" fill="#fcd770"/>
        </g>
        <g id="Grupo_1201975" data-name="Grupo 1201975">
          <path id="Trazado_1046992" data-name="Trazado 1046992" d="M49.32,19.01a10.668,10.668,0,0,0-3.97.61A15.021,15.021,0,0,0,31,9a14.859,14.859,0,0,0-6.04,1.28A9.734,9.734,0,0,0,20.1,9h-.73A18.959,18.959,0,0,1,49.32,19.01Z" fill="#b4dd7f"/>
        </g>
        <g id="Grupo_1201976" data-name="Grupo 1201976">
          <path id="Trazado_1046993" data-name="Trazado 1046993" d="M26,22h-.39A6.746,6.746,0,0,1,20,19l-1,2a3.675,3.675,0,0,1-2.32-.83,3.605,3.605,0,0,1-1.27-2.11l-.1-.49a1.943,1.943,0,0,0-3.75-.24L11,19a3,3,0,0,0-3,3H7a2.993,2.993,0,0,0-2.12.88l-.03.03a9.893,9.893,0,0,1,8.72-13.9c.11-.01.22-.01.33-.01h6.2a9.734,9.734,0,0,1,4.86,1.28,9.889,9.889,0,0,1,4.19,12.63A2.99,2.99,0,0,0,27,22Z" fill="#b27946"/>
        </g>
        <g id="Grupo_1201977" data-name="Grupo 1201977">
          <path id="Trazado_1046994" data-name="Trazado 1046994" d="M25,55v6H20L18,49l1.14-2.86L21,48l2.25-7.49A12,12,0,0,1,33,52.3V55H25Z" fill="#e6e9ed"/>
        </g>
        <g id="Grupo_1201978" data-name="Grupo 1201978">
          <path id="Trazado_1046995" data-name="Trazado 1046995" d="M9,55H1V52.3a12,12,0,0,1,9.75-11.79L13,48l1.86-1.86L16,49,14,61H9Z" fill="#e6e9ed"/>
        </g>
        <g id="Grupo_1201979" data-name="Grupo 1201979">
          <path id="Trazado_1046996" data-name="Trazado 1046996" d="M23.25,40.51,21,48l-1.86-1.86L17,44l3-4,2.82.43c.15.02.29.05.43.08Z" fill="#ccd1d9"/>
        </g>
        <g id="Grupo_1201980" data-name="Grupo 1201980">
          <path id="Trazado_1046997" data-name="Trazado 1046997" d="M14,40l3,4-2.14,2.14L13,48l-2.25-7.49c.14-.03.28-.06.43-.08Z" fill="#ccd1d9"/>
        </g>
        <g id="Grupo_1201981" data-name="Grupo 1201981">
          <path id="Trazado_1046998" data-name="Trazado 1046998" d="M18,49l2,12H14l2-12Z" fill="#ff826e"/>
        </g>
        <g id="Grupo_1201982" data-name="Grupo 1201982">
          <path id="Trazado_1046999" data-name="Trazado 1046999" d="M19.14,46.14,18,49H16l-1.14-2.86L17,44Z" fill="#fc6e51"/>
        </g>
        <g id="Grupo_1201983" data-name="Grupo 1201983">
          <path id="Trazado_1047000" data-name="Trazado 1047000" d="M25,55h6v6H25Z" fill="#f0d0b4"/>
        </g>
        <g id="Grupo_1201984" data-name="Grupo 1201984">
          <path id="Trazado_1047001" data-name="Trazado 1047001" d="M3,55H9v6H3Z" fill="#f0d0b4"/>
        </g>
        <g id="Grupo_1201985" data-name="Grupo 1201985">
          <path id="Trazado_1047002" data-name="Trazado 1047002" d="M29.15,22.91A3,3,0,0,1,27,28H26V22h1a2.99,2.99,0,0,1,2.15.91Z" fill="#f0d0b4"/>
        </g>
        <g id="Grupo_1201986" data-name="Grupo 1201986">
          <path id="Trazado_1047003" data-name="Trazado 1047003" d="M26,28v.44a9.017,9.017,0,0,1-4.97,8.05l-.48.23a1,1,0,0,0-.55.9V40l-3,4-3-4V37.62a1,1,0,0,0-.55-.9l-.47-.23A9.008,9.008,0,0,1,8,28.44V22a3,3,0,0,1,3-3l.56-1.67a1.943,1.943,0,0,1,3.75.24l.1.49a3.605,3.605,0,0,0,1.27,2.11A3.675,3.675,0,0,0,19,21l1-2a6.746,6.746,0,0,0,5.61,3H26Z" fill="#f0d0b4"/>
        </g>
        <g id="Grupo_1201987" data-name="Grupo 1201987">
          <path id="Trazado_1047004" data-name="Trazado 1047004" d="M8,22v6H7a3,3,0,0,1-2.15-5.09l.03-.03A2.993,2.993,0,0,1,7,22Z" fill="#f0d0b4"/>
        </g>
        <g id="Grupo_1201988" data-name="Grupo 1201988">
          <path id="Trazado_1047005" data-name="Trazado 1047005" d="M45,57h8v4H45Z" fill="#aab2bd"/>
        </g>
        <g id="Grupo_1201989" data-name="Grupo 1201989">
          <path id="Trazado_1047006" data-name="Trazado 1047006" d="M61,53v1a3,3,0,0,1-3,3H40a3,3,0,0,1-3-3V53Z" fill="#ccd1d9"/>
        </g>
        <g id="Grupo_1201990" data-name="Grupo 1201990">
          <path id="Trazado_1047007" data-name="Trazado 1047007" d="M58,41H40a3,3,0,0,0-3,3v9H61V44A3,3,0,0,0,58,41Z" fill="#69d6f4"/>
        </g>
        <g id="Grupo_1201991" data-name="Grupo 1201991">
          <path id="Trazado_1047008" data-name="Trazado 1047008" d="M50,43h4v2a4,4,0,0,1-4,4H48a4.077,4.077,0,0,1-4-4.31V43h6Z" fill="#aab2bd"/>
        </g>
        <g id="Grupo_1201992" data-name="Grupo 1201992">
          <path id="Trazado_1047009" data-name="Trazado 1047009" d="M53.65,20.04a11.195,11.195,0,0,0-5.92-.97,10.565,10.565,0,0,0-2.38.55,11,11,0,0,0-3.31,18.89A5.235,5.235,0,0,1,43.76,41,4.53,4.53,0,0,1,44,42.47V43H54v-.53A4.809,4.809,0,0,1,54.23,41a5.163,5.163,0,0,1,1.69-2.46,10.983,10.983,0,0,0-2.27-18.5Z" fill="#ffeaa7"/>
        </g>
        <g id="Grupo_1201993" data-name="Grupo 1201993">
          <path id="Trazado_1047010" data-name="Trazado 1047010" d="M54.41,28.59A1.955,1.955,0,0,1,55,30a2.006,2.006,0,0,1-2,2H50.74l.14-2.13A2,2,0,0,1,52.87,28H53a1.955,1.955,0,0,1,1.41.59Z" fill="#fcd770"/>
        </g>
        <g id="Grupo_1201994" data-name="Grupo 1201994">
          <path id="Trazado_1047011" data-name="Trazado 1047011" d="M47.12,29.87,47.26,32H45a2.015,2.015,0,0,1-2-2,2.006,2.006,0,0,1,2-2h.13a2,2,0,0,1,1.99,1.87Z" fill="#fcd770"/>
        </g>
      </g>
      <g id="Grupo_1201996" data-name="Grupo 1201996">
        <circle id="Elipse_12489" data-name="Elipse 12489" cx="1" cy="1" r="1" transform="translate(21 24)"/>
        <circle id="Elipse_12490" data-name="Elipse 12490" cx="1" cy="1" r="1" transform="translate(11 24)"/>
        <path id="Trazado_1047012" data-name="Trazado 1047012" d="M15.021,31.254l-1.32,1.5a5,5,0,0,0,6.6,0l-1.322-1.5A3.077,3.077,0,0,1,15.021,31.254Z"/>
        <path id="Trazado_1047013" data-name="Trazado 1047013" d="M16.447,29.9l1.1-.553a2,2,0,0,0,.9-2.684L18,25.764V24H16v2a1,1,0,0,0,.1.447l.553,1.1-1.1.553Z"/>
        <path id="Trazado_1047014" data-name="Trazado 1047014" d="M58,40H55.875a4.335,4.335,0,0,1,.669-.679,11.939,11.939,0,0,0-2.016-19.952A23.968,23.968,0,0,0,13.094,8.041,10.854,10.854,0,0,0,3.711,22.732,3.994,3.994,0,0,0,7,29h.039a9.925,9.925,0,0,0,5.489,8.382l.472.236v1.524l-1.977.3A12.93,12.93,0,0,0,0,52.3V56H2v6H32V56h2V52.295A12.93,12.93,0,0,0,22.977,39.446L21,39.142V37.618l.473-.236A9.925,9.925,0,0,0,26.962,29H27a3.992,3.992,0,0,0,3.288-6.268,10.816,10.816,0,0,0-3.174-12.164,13.918,13.918,0,0,1,16.98,8.5A12.1,12.1,0,0,0,37.148,28.1,11.949,11.949,0,0,0,41.406,39.28a4.592,4.592,0,0,1,.7.72H40a4,4,0,0,0-4,4V54a4,4,0,0,0,4,4h4v2H42v2H56V60H54V58h4a4,4,0,0,0,4-4V44A4,4,0,0,0,58,40ZM52.286,18.477a12.047,12.047,0,0,0-2.226-.422A20.015,20.015,0,0,0,31,4,19.774,19.774,0,0,0,19.049,8H15.912A21.982,21.982,0,0,1,52.286,18.477ZM5,25a2,2,0,0,1,2-2v4A2,2,0,0,1,5,25Zm8.56,16.08,2.12,2.827-2.2,2.2-1.439-4.795ZM16.847,50h.306L18.82,60H15.18Zm1.122-3.616L17.323,48h-.646l-.646-1.616.969-.97ZM2,52.295A10.926,10.926,0,0,1,10.066,41.7l2.458,8.19,1.969-1.969.476,1.189L13.153,60H10V50H8v4H2ZM4,56H8v4H4Zm26,4H26V56h4Zm2-7.705V54H26V50H24V60H20.847L19.032,49.111l.476-1.189,1.969,1.969,2.458-8.19A10.926,10.926,0,0,1,32,52.3ZM21.962,41.314l-1.439,4.8-2.2-2.2,2.12-2.827Zm-1.384-5.721-.473.236A1.984,1.984,0,0,0,19,37.618v2.049l-2,2.667-2-2.667V37.615a1.993,1.993,0,0,0-1.1-1.786l-.472-.236A7.955,7.955,0,0,1,9,28.438V22a2,2,0,0,1,2-2h.721l.785-2.353a.947.947,0,0,1,1.827.115l.1.492A4.669,4.669,0,0,0,19,22h.618l.594-1.188A7.72,7.72,0,0,0,25,22.971v5.466A7.957,7.957,0,0,1,20.578,35.593ZM27,27V23a2,2,0,0,1,0,4Zm2-8.1a8.88,8.88,0,0,1-.357,2.463A3.964,3.964,0,0,0,27,21h-.013a5.373,5.373,0,0,0-3.671-4.949l-.633,1.9a3.374,3.374,0,0,1,2.3,3.013,5.723,5.723,0,0,1-4.152-2.516l-.956-1.434-1.461,2.923a2.666,2.666,0,0,1-2.022-2.073l-.1-.492a2.947,2.947,0,0,0-5.686-.355l-.353,1.054A4.006,4.006,0,0,0,7.142,21H7a3.964,3.964,0,0,0-1.643.362A8.871,8.871,0,0,1,13.9,10h6.2A8.909,8.909,0,0,1,29,18.9ZM31,8a15.857,15.857,0,0,0-5.983,1.185,10.831,10.831,0,0,0-2.673-.951A17.768,17.768,0,0,1,31,6,18.02,18.02,0,0,1,47.965,18.057c-.114.01-.228.007-.343.02a11.432,11.432,0,0,0-1.645.316A15.9,15.9,0,0,0,31,8Zm8.124,20.4a10.073,10.073,0,0,1,8.721-8.338A10.7,10.7,0,0,1,49.013,20a9.888,9.888,0,0,1,6.651,2.545,9.989,9.989,0,0,1-.377,15.222A6.061,6.061,0,0,0,53.027,42H51.069l.6-9H53a3,3,0,0,0,0-6h-.129a3.006,3.006,0,0,0-2.993,2.8L49.8,31H48.2l-.08-1.2A3.006,3.006,0,0,0,45.129,27H45a3,3,0,0,0,0,6h1.331l.6,9H44.972a6.187,6.187,0,0,0-2.3-4.268,9.966,9.966,0,0,1-3.547-9.33ZM45,44h8v1a3,3,0,0,1-3,3H48a3.1,3.1,0,0,1-3-3.314Zm3.335-11h1.33l-.6,9h-.129ZM51.8,31l.071-1.067a1,1,0,0,1,1-.933H53a1,1,0,0,1,0,2ZM46.2,31H45a1,1,0,0,1,0-2h.129a1,1,0,0,1,1,.934ZM40,42h2.943a3.769,3.769,0,0,1,.057.473v2.212A5.051,5.051,0,0,0,48,50h2a5.006,5.006,0,0,0,5-5V42.47a3.718,3.718,0,0,1,.055-.47H58a2,2,0,0,1,2,2v8H38V44a2,2,0,0,1,2-2ZM52,60H46V58h6Zm6-4H40a2,2,0,0,1-2-2H60A2,2,0,0,1,58,56Z"/>
      </g>
    </g>
  </g>
</svg>
