<svg xmlns="http://www.w3.org/2000/svg" xmlns:xlink="http://www.w3.org/1999/xlink" width="113" height="113" viewBox="0 0 113 113">
  <defs>
    <filter id="Trazado_982547" x="0" y="0" width="113" height="113" filterUnits="userSpaceOnUse">
      <feOffset dy="3" input="SourceAlpha"/>
      <feGaussianBlur stdDeviation="3" result="blur"/>
      <feFlood flood-opacity="0.161"/>
      <feComposite operator="in" in2="blur"/>
      <feComposite in="SourceGraphic"/>
    </filter>
  </defs>
  <g id="Grupo_1206595" data-name="Grupo 1206595" transform="translate(-586.06 -10824.826)">
    <g id="Grupo_1204126" data-name="Grupo 1204126" transform="translate(0 6984.49)">
      <g id="Grupo_1203959" data-name="Grupo 1203959" transform="translate(0 1899.461)">
        <g id="Grupo_1203497" data-name="Grupo 1203497" transform="translate(595.061 1946.875)">
          <g id="Grupo_1172010" data-name="Grupo 1172010" transform="translate(0)">
            <g id="Grupo_1171046" data-name="Grupo 1171046">
              <g id="Grupo_1148525" data-name="Grupo 1148525">
                <g transform="matrix(1, 0, 0, 1, -9, -6)" filter="url(#Trazado_982547)">
                  <g id="Trazado_982547-2" data-name="Trazado 982547" transform="translate(9 6)" fill="#edf3fc">
                    <path d="M 47.5 93.5 C 41.28937149047852 93.5 35.26533508300781 92.28397369384766 29.59518623352051 89.88570404052734 C 24.11771965026855 87.56893157958984 19.19813346862793 84.25196075439453 14.97309303283691 80.02691650390625 C 10.74804019927979 75.80186462402344 7.431066513061523 70.88229370117188 5.114293098449707 65.40481567382812 C 2.716026782989502 59.73468017578125 1.5 53.71062850952148 1.5 47.5 C 1.5 41.28937149047852 2.716026782989502 35.26533508300781 5.114293098449707 29.59518623352051 C 7.431066513061523 24.11771965026855 10.74804019927979 19.19813346862793 14.97309303283691 14.97309303283691 C 19.19813346862793 10.74804019927979 24.11771965026855 7.431066513061523 29.59518623352051 5.114293098449707 C 35.26533508300781 2.716026782989502 41.28937149047852 1.5 47.5 1.5 C 53.71062850952148 1.5 59.73468017578125 2.716026782989502 65.40481567382812 5.114293098449707 C 70.88229370117188 7.431066513061523 75.80186462402344 10.74804019927979 80.02691650390625 14.97309303283691 C 84.25196075439453 19.19813346862793 87.56893157958984 24.11771965026855 89.88570404052734 29.59518623352051 C 92.28397369384766 35.26533508300781 93.5 41.28937149047852 93.5 47.5 C 93.5 53.71062850952148 92.28397369384766 59.73468017578125 89.88570404052734 65.40481567382812 C 87.56893157958984 70.88229370117188 84.25196075439453 75.80186462402344 80.02691650390625 80.02691650390625 C 75.80186462402344 84.25196075439453 70.88229370117188 87.56893157958984 65.40481567382812 89.88570404052734 C 59.73468017578125 92.28397369384766 53.71062850952148 93.5 47.5 93.5 Z" stroke="none"/>
                    <path d="M 47.5 3 C 41.49121475219727 3 35.66376876831055 4.176155090332031 30.17950439453125 6.495796203613281 C 24.88084411621094 8.736953735351562 20.12152099609375 11.94598388671875 16.03375244140625 16.03375244140625 C 11.94598388671875 20.12152099609375 8.736953735351562 24.88084411621094 6.495796203613281 30.17950439453125 C 4.176155090332031 35.66376876831055 3 41.49121475219727 3 47.5 C 3 53.50878524780273 4.176155090332031 59.33623123168945 6.495796203613281 64.82049560546875 C 8.736953735351562 70.11915588378906 11.94598388671875 74.87847900390625 16.03375244140625 78.96624755859375 C 20.12152099609375 83.05401611328125 24.88084411621094 86.26304626464844 30.17950439453125 88.50419616699219 C 35.66376876831055 90.82384490966797 41.49121475219727 92 47.5 92 C 53.50878524780273 92 59.33623123168945 90.82384490966797 64.82049560546875 88.50419616699219 C 70.11915588378906 86.26304626464844 74.87847900390625 83.05401611328125 78.96624755859375 78.96624755859375 C 83.05401611328125 74.87847900390625 86.26304626464844 70.11915588378906 88.50419616699219 64.82049560546875 C 90.82384490966797 59.33623123168945 92 53.50878524780273 92 47.5 C 92 41.49121475219727 90.82384490966797 35.66376876831055 88.50419616699219 30.17950439453125 C 86.26304626464844 24.88084411621094 83.05401611328125 20.12152099609375 78.96624755859375 16.03375244140625 C 74.87847900390625 11.94598388671875 70.11915588378906 8.736953735351562 64.82049560546875 6.495796203613281 C 59.33623123168945 4.176155090332031 53.50878524780273 3 47.5 3 M 47.5 0 C 73.7335205078125 0 95 21.2664794921875 95 47.5 C 95 73.7335205078125 73.7335205078125 95 47.5 95 C 21.2664794921875 95 0 73.7335205078125 0 47.5 C 0 21.2664794921875 21.2664794921875 0 47.5 0 Z" stroke="none" fill="#5692e8"/>
                  </g>
                </g>
              </g>
            </g>
          </g>
        </g>
      </g>
    </g>
    <g id="press-conference_3966812" transform="translate(612.273 10844.684)">
      <g id="Grupo_1206896" data-name="Grupo 1206896" transform="translate(6.778 11.124)">
        <path id="Trazado_1050005" data-name="Trazado 1050005" d="M69.92,27.508V51.272a.671.671,0,0,1-.672.672H54.765V46.3H55.9V42.331H36.773V46.3H37.9v5.645H23.422a.671.671,0,0,1-.672-.672V27.508Z" transform="translate(-22.75 -27.508)" fill="#72c2e9"/>
      </g>
      <g id="Grupo_1206897" data-name="Grupo 1206897" transform="translate(19.232 17.356)">
        <path id="Trazado_1050006" data-name="Trazado 1050006" d="M100.591,63.909v3.969a1.566,1.566,0,0,1-1.132,1.506v4.139H97.89V67.878h1.132V63.909H79.9v3.969H81.03v5.645H79.462V69.384a1.566,1.566,0,0,1-1.132-1.506V63.909a1.567,1.567,0,0,1,.86-1.4,3.029,3.029,0,0,1,2.353-2.9v-.672a2.131,2.131,0,0,1,1.082-1.855l2.651-1.495A2.129,2.129,0,0,1,87.37,59.3l-.943.531a3.031,3.031,0,0,1,1.719,2.51h2.631a3.03,3.03,0,0,1,1.719-2.51l-.941-.531a2.129,2.129,0,1,1,2.091-3.709l2.651,1.495a2.131,2.131,0,0,1,1.082,1.855v.672a3.029,3.029,0,0,1,2.353,2.9,1.567,1.567,0,0,1,.86,1.4Z" transform="translate(-78.33 -55.318)" fill="#4ba4c7"/>
      </g>
      <g id="Grupo_1206898" data-name="Grupo 1206898" transform="translate(41.45 13.824)">
        <path id="Trazado_1050007" data-name="Trazado 1050007" d="M187.735,59.614h-9.7a.56.56,0,1,1,0-1.12h9.136V43.032a.56.56,0,1,1,1.12,0V59.054A.56.56,0,0,1,187.735,59.614Zm0-18.263a.56.56,0,0,1-.56-.56v-.672a.56.56,0,1,1,1.12,0v.672A.56.56,0,0,1,187.735,41.352Z" transform="translate(-177.478 -39.559)" fill="#c4e4fd"/>
      </g>
      <g id="Grupo_1206899" data-name="Grupo 1206899" transform="translate(20.801 25.946)">
        <path id="Trazado_1050008" data-name="Trazado 1050008" d="M104.453,93.655v3.969h-1.132v13.943h-2.274v-1.208a2.135,2.135,0,0,0-2.136-2.133H90.874a2.135,2.135,0,0,0-2.136,2.133v1.208H86.462V97.624H85.33V93.655Z" transform="translate(-85.33 -93.655)" fill="#efbf27"/>
      </g>
      <g id="Grupo_1206900" data-name="Grupo 1206900" transform="translate(21.933 29.915)">
        <path id="Trazado_1050009" data-name="Trazado 1050009" d="M90.384,111.365h16.858v1.569H90.384Z" transform="translate(-90.384 -111.365)" fill="#e7a523"/>
      </g>
      <g id="Grupo_1206901" data-name="Grupo 1206901" transform="translate(3.8 43.859)">
        <path id="Trazado_1050010" data-name="Trazado 1050010" d="M63.511,173.59v16.475H9.46V173.59h2.611v1.36a.969.969,0,0,0,.968.97h3.774v-.6a1.412,1.412,0,0,1,2.823,0v.6h3.771a.971.971,0,0,0,.97-.97v-1.36H29.87v1.36a.971.971,0,0,0,.97.97h3.771v-.6a1.412,1.412,0,0,1,1.412-1.412h0a1.412,1.412,0,0,1,1.412,1.412v.6h3.771a.971.971,0,0,0,.97-.97v-1.36h5.492v1.36a.971.971,0,0,0,.97.97h3.771v-.6a1.412,1.412,0,0,1,2.823,0v.6h3.771a.971.971,0,0,0,.97-.97v-1.36Z" transform="translate(-9.46 -173.59)" fill="#afafaf"/>
      </g>
      <g id="Grupo_1206929" data-name="Grupo 1206929" transform="translate(5.413 40.517)">
        <g id="Grupo_1206910" data-name="Grupo 1206910" transform="translate(35.6)">
          <g id="Grupo_1206909" data-name="Grupo 1206909">
            <g id="Grupo_1206902" data-name="Grupo 1206902" transform="translate(0.997)">
              <path id="Trazado_1050011" data-name="Trazado 1050011" d="M192.287,160.813v2.568a.971.971,0,0,1-.97.97h-3.771v-.6a1.412,1.412,0,0,0-2.823,0v.6H180.95a.971.971,0,0,1-.97-.97v-2.568a2.134,2.134,0,0,1,2.133-2.133h8.04A2.134,2.134,0,0,1,192.287,160.813Z" transform="translate(-179.98 -158.68)" fill="#fc5d3d"/>
            </g>
            <g id="Grupo_1206905" data-name="Grupo 1206905" transform="translate(0 9.754)">
              <g id="Grupo_1206903" data-name="Grupo 1206903" transform="translate(0 0)">
                <path id="Trazado_1050012" data-name="Trazado 1050012" d="M181.269,202.21v2.167h-4.656a1.082,1.082,0,0,1-1.082-1.082v0a1.082,1.082,0,0,1,1.082-1.082Z" transform="translate(-175.53 -202.21)" fill="#fc5d3d"/>
              </g>
              <g id="Grupo_1206904" data-name="Grupo 1206904" transform="translate(8.562)">
                <path id="Trazado_1050013" data-name="Trazado 1050013" d="M219.477,203.292v0a1.082,1.082,0,0,1-1.082,1.082H213.74V202.21h4.654A1.082,1.082,0,0,1,219.477,203.292Z" transform="translate(-213.74 -202.21)" fill="#fc5d3d"/>
              </g>
            </g>
            <g id="Grupo_1206906" data-name="Grupo 1206906" transform="translate(3.485 3.659)">
              <path id="Trazado_1050014" data-name="Trazado 1050014" d="M198.412,183.272v2.122H191.08v-2.122h2.254v-6.85a1.412,1.412,0,0,1,2.823,0v6.85Z" transform="translate(-191.08 -175.01)" fill="#eee"/>
            </g>
            <g id="Grupo_1206907" data-name="Grupo 1206907" transform="translate(1.422 11.923)">
              <path id="Trazado_1050015" data-name="Trazado 1050015" d="M181.874,211.887h2.062v7.892h-2.062Z" transform="translate(-181.874 -211.887)" fill="#eee"/>
            </g>
            <g id="Grupo_1206908" data-name="Grupo 1206908" transform="translate(10.817 11.923)">
              <path id="Trazado_1050016" data-name="Trazado 1050016" d="M223.8,211.887h2.06v7.892H223.8Z" transform="translate(-223.804 -211.887)" fill="#eee"/>
            </g>
          </g>
        </g>
        <g id="Grupo_1206919" data-name="Grupo 1206919" transform="translate(17.799)">
          <g id="Grupo_1206918" data-name="Grupo 1206918">
            <g id="Grupo_1206911" data-name="Grupo 1206911" transform="translate(0.997)">
              <path id="Trazado_1050017" data-name="Trazado 1050017" d="M112.849,160.813v2.568a.971.971,0,0,1-.97.97h-3.771v-.6a1.412,1.412,0,0,0-1.412-1.412h0a1.412,1.412,0,0,0-1.412,1.412v.6H101.51a.971.971,0,0,1-.97-.97v-2.568a2.135,2.135,0,0,1,2.136-2.133h8.038a2.135,2.135,0,0,1,2.136,2.133Z" transform="translate(-100.54 -158.68)" fill="#fc5d3d"/>
            </g>
            <g id="Grupo_1206914" data-name="Grupo 1206914" transform="translate(0 9.754)">
              <g id="Grupo_1206912" data-name="Grupo 1206912" transform="translate(0 0)">
                <path id="Trazado_1050018" data-name="Trazado 1050018" d="M101.829,202.21v2.167H97.172a1.082,1.082,0,0,1-1.082-1.082v0a1.082,1.082,0,0,1,1.082-1.082Z" transform="translate(-96.09 -202.21)" fill="#fc5d3d"/>
              </g>
              <g id="Grupo_1206913" data-name="Grupo 1206913" transform="translate(8.565)">
                <path id="Trazado_1050019" data-name="Trazado 1050019" d="M140.047,203.292v0a1.082,1.082,0,0,1-1.082,1.082H134.31V202.21h4.654A1.082,1.082,0,0,1,140.047,203.292Z" transform="translate(-134.31 -202.21)" fill="#fc5d3d"/>
              </g>
            </g>
            <g id="Grupo_1206915" data-name="Grupo 1206915" transform="translate(3.485 3.659)">
              <path id="Trazado_1050020" data-name="Trazado 1050020" d="M118.974,183.272v2.122H111.64v-2.122h2.254v-6.85a1.412,1.412,0,0,1,1.412-1.412h0a1.412,1.412,0,0,1,1.412,1.412v6.85Z" transform="translate(-111.64 -175.01)" fill="#eee"/>
            </g>
            <g id="Grupo_1206916" data-name="Grupo 1206916" transform="translate(1.422 11.923)">
              <path id="Trazado_1050021" data-name="Trazado 1050021" d="M102.438,211.887H104.5v7.892h-2.062Z" transform="translate(-102.438 -211.887)" fill="#eee"/>
            </g>
            <g id="Grupo_1206917" data-name="Grupo 1206917" transform="translate(10.818 11.923)">
              <path id="Trazado_1050022" data-name="Trazado 1050022" d="M144.368,211.887h2.06v7.892h-2.06Z" transform="translate(-144.368 -211.887)" fill="#eee"/>
            </g>
          </g>
        </g>
        <g id="Grupo_1206928" data-name="Grupo 1206928">
          <g id="Grupo_1206927" data-name="Grupo 1206927">
            <g id="Grupo_1206920" data-name="Grupo 1206920" transform="translate(0.997)">
              <path id="Trazado_1050023" data-name="Trazado 1050023" d="M33.417,160.813v2.568a.971.971,0,0,1-.97.97H28.675v-.6a1.412,1.412,0,0,0-2.823,0v.6H22.078a.969.969,0,0,1-.968-.97v-2.568a2.134,2.134,0,0,1,2.133-2.133h8.04A2.134,2.134,0,0,1,33.417,160.813Z" transform="translate(-21.11 -158.68)" fill="#fc5d3d"/>
            </g>
            <g id="Grupo_1206923" data-name="Grupo 1206923" transform="translate(0 9.754)">
              <g id="Grupo_1206921" data-name="Grupo 1206921" transform="translate(0 0)">
                <path id="Trazado_1050024" data-name="Trazado 1050024" d="M22.4,202.21v2.168H17.742a1.082,1.082,0,0,1-1.082-1.082v0a1.082,1.082,0,0,1,1.082-1.082Z" transform="translate(-16.66 -202.21)" fill="#fc5d3d"/>
              </g>
              <g id="Grupo_1206922" data-name="Grupo 1206922" transform="translate(8.562)">
                <path id="Trazado_1050025" data-name="Trazado 1050025" d="M60.607,203.292v0a1.083,1.083,0,0,1-1.082,1.083H54.87V202.21h4.654A1.082,1.082,0,0,1,60.607,203.292Z" transform="translate(-54.87 -202.21)" fill="#fc5d3d"/>
              </g>
            </g>
            <g id="Grupo_1206924" data-name="Grupo 1206924" transform="translate(3.482 3.659)">
              <path id="Trazado_1050026" data-name="Trazado 1050026" d="M39.534,183.272v2.122H32.2v-2.122h2.257v-6.85a1.412,1.412,0,0,1,2.823,0v6.85Z" transform="translate(-32.2 -175.01)" fill="#eee"/>
            </g>
            <g id="Grupo_1206925" data-name="Grupo 1206925" transform="translate(1.421 11.922)">
              <path id="Trazado_1050027" data-name="Trazado 1050027" d="M23,211.883h2.062v7.893H23Z" transform="translate(-23.001 -211.883)" fill="#eee"/>
            </g>
            <g id="Grupo_1206926" data-name="Grupo 1206926" transform="translate(10.817 11.922)">
              <path id="Trazado_1050028" data-name="Trazado 1050028" d="M64.932,211.883h2.06v7.893h-2.06Z" transform="translate(-64.932 -211.883)" fill="#eee"/>
            </g>
          </g>
        </g>
      </g>
      <g id="Grupo_1206932" data-name="Grupo 1206932" transform="translate(22.221 23.705)">
        <g id="Grupo_1206930" data-name="Grupo 1206930">
          <path id="Trazado_1050029" data-name="Trazado 1050029" d="M95.477,83.652H92.564a.9.9,0,0,0-.9.9v1.345h4.706V84.548A.9.9,0,0,0,95.477,83.652Z" transform="translate(-91.668 -83.652)" fill="#afafaf"/>
        </g>
        <g id="Grupo_1206931" data-name="Grupo 1206931" transform="translate(11.577)">
          <path id="Trazado_1050030" data-name="Trazado 1050030" d="M144.228,83.652h2.913a.9.9,0,0,1,.9.9v1.345h-4.706V84.548A.9.9,0,0,1,144.228,83.652Z" transform="translate(-143.332 -83.652)" fill="#afafaf"/>
        </g>
      </g>
      <g id="Grupo_1206933" data-name="Grupo 1206933" transform="translate(6.778 11.124)">
        <path id="Trazado_1050031" data-name="Trazado 1050031" d="M22.75,27.508H69.92v1.569H22.75Z" transform="translate(-22.75 -27.508)" fill="#4ba4c7"/>
      </g>
      <g id="Grupo_1206934" data-name="Grupo 1206934" transform="translate(3.804 6.952)">
        <path id="Trazado_1050032" data-name="Trazado 1050032" d="M61.7,13.064H10.375a.9.9,0,0,1-.9-.9V9.788a.9.9,0,0,1,.9-.9H61.7a.9.9,0,0,1,.9.9v2.379A.9.9,0,0,1,61.7,13.064Z" transform="translate(-9.479 -8.892)" fill="#eee"/>
      </g>
      <g id="Grupo_1206935" data-name="Grupo 1206935" transform="translate(8.336 32.759)">
        <path id="Trazado_1050033" data-name="Trazado 1050033" d="M40.086,125.178h-.672a.56.56,0,1,1,0-1.12h.672a.56.56,0,1,1,0,1.12Zm-2.913,0H30.265a.56.56,0,1,1,0-1.12h6.907a.56.56,0,0,1,0,1.12Z" transform="translate(-29.705 -124.058)" fill="#c4e4fd"/>
      </g>
      <g id="Grupo_1206936" data-name="Grupo 1206936" transform="translate(27.674 33.077)">
        <circle id="Elipse_12964" data-name="Elipse 12964" cx="2.484" cy="2.484" r="2.484" fill="#eee"/>
      </g>
      <g id="Grupo_1206937" data-name="Grupo 1206937" transform="translate(2.165 6.392)">
        <circle id="Elipse_12965" data-name="Elipse 12965" cx="0.56" cy="0.56" r="0.56" transform="translate(9.563 33.565)"/>
        <circle id="Elipse_12966" data-name="Elipse 12966" cx="0.56" cy="0.56" r="0.56" transform="translate(51.222 15.015)"/>
        <path id="Trazado_1050034" data-name="Trazado 1050034" d="M58,59.772H54.451v-6.79a1.644,1.644,0,0,0,1.421-1.626v0a1.644,1.644,0,0,0-1.643-1.643H50.137V46.748h3.211a1.532,1.532,0,0,0,1.53-1.53v-.8h2.973a.56.56,0,0,0,0-1.12H54.878v-.647a2.7,2.7,0,0,0-2.694-2.694h-8.04a2.7,2.7,0,0,0-2.694,2.694V43.3h-2.1V36.121H53.276a1.239,1.239,0,0,0,1.232-1.232V24.209a.56.56,0,0,0-1.12,0v10.68a.111.111,0,0,1-.112.112H39.353V30.475h.571a.56.56,0,0,0,.56-.56V25.946a.56.56,0,0,0-.56-.56h-.859V24.6a1.458,1.458,0,0,0-1.457-1.457h-.9V20.978a.561.561,0,0,0-.285-.488L33.776,19a.56.56,0,0,0-.55.976l2.366,1.334v1.839h-.9A1.458,1.458,0,0,0,33.239,24.6v.785H27.488V24.6a1.458,1.458,0,0,0-1.457-1.457h-.9V21.306L27.5,19.972A.56.56,0,0,0,26.95,19L24.3,20.49a.56.56,0,0,0-.285.488v2.166h-.9A1.458,1.458,0,0,0,21.661,24.6v.785H20.8a.56.56,0,0,0-.56.56v3.969a.56.56,0,0,0,.56.56h.571V35H7.45a.111.111,0,0,1-.112-.112v-23.2H53.387v8.042a.56.56,0,1,0,1.12,0V11.684h1.517a1.458,1.458,0,0,0,1.457-1.457V7.849a1.458,1.458,0,0,0-1.457-1.457H4.7A1.458,1.458,0,0,0,3.244,7.849v2.379A1.458,1.458,0,0,0,4.7,11.684H6.218v23.2A1.234,1.234,0,0,0,7.45,36.12H21.372V43.3h-2.1v-.647a2.7,2.7,0,0,0-2.693-2.693H14.529a.56.56,0,0,0,0,1.12h2.055a1.579,1.579,0,0,1,1.573,1.573v2.566a.41.41,0,0,1-.41.41H14.536v-.039a1.973,1.973,0,0,0-3.945,0v.039H7.381a.41.41,0,0,1-.41-.41V42.651a1.577,1.577,0,0,1,1.573-1.573h1.5a.56.56,0,0,0,0-1.12h-1.5A2.7,2.7,0,0,0,5.85,42.651V43.3H3.8a.56.56,0,1,0,0,1.12H5.85v.8a1.531,1.531,0,0,0,1.53,1.53h3.21v2.965H6.5a1.643,1.643,0,0,0-.222,3.271v6.79H2.725a.56.56,0,0,0,0,1.12H58a.56.56,0,0,0,0-1.121ZM4.364,10.228V7.849A.337.337,0,0,1,4.7,7.512H56.025a.337.337,0,0,1,.336.336v2.379a.337.337,0,0,1-.336.336H4.7A.336.336,0,0,1,4.364,10.228ZM51.271,54H45.057V53h1.694a.561.561,0,0,0,.561-.561c0-.106,0-2.788,0-6.851a.852.852,0,0,1,1.7,0c0,2.646,0,6.255,0,6.851a.561.561,0,0,0,.561.561h1.694v1Zm-5.079-2.122H42.1a.523.523,0,0,1,0-1.046h4.1v1.046Zm-1.134,3.242h6.213v4.651H45.057Zm9.172-4.289a.523.523,0,0,1,.522.522v0a.523.523,0,0,1-.522.522H50.137V50.832ZM44.144,41.077h8.04a1.576,1.576,0,0,1,1.574,1.574v2.567a.41.41,0,0,1-.41.41H50.137a1.973,1.973,0,1,0-3.945,0H42.98a.41.41,0,0,1-.41-.41V42.651a1.576,1.576,0,0,1,1.574-1.574ZM42.98,46.748h3.211v2.964H42.1a1.643,1.643,0,0,0-.221,3.271v6.79H36.651v-6.79a1.644,1.644,0,0,0,1.422-1.626v0a1.644,1.644,0,0,0-1.643-1.643H32.336V46.748h3.211a1.532,1.532,0,0,0,1.53-1.53v-.8H41.45v.8a1.532,1.532,0,0,0,1.53,1.53ZM30.363,43.616a1.974,1.974,0,0,0-1.972,2.012H25.18a.41.41,0,0,1-.41-.41V42.651a1.576,1.576,0,0,1,1.574-1.574h8.04a1.576,1.576,0,0,1,1.574,1.574v2.567a.41.41,0,0,1-.41.41H32.336A1.978,1.978,0,0,0,30.363,43.616Zm6.068,8.263H32.337V50.832h4.094a.523.523,0,0,1,.522.522v0A.523.523,0,0,1,36.431,51.879ZM33.47,54H27.257V53h1.694a.56.56,0,0,0,.56-.56V45.588a.852.852,0,0,1,1.7,0v6.851a.56.56,0,0,0,.56.56H33.47Zm-5.08-2.122h-4.1a.523.523,0,0,1,0-1.046h4.1Zm-1.134,3.242H33.47v4.651H27.257Zm7.1-30.52a.337.337,0,0,1,.336-.336h2.913a.337.337,0,0,1,.336.336v.785H34.359Zm-11.577,0a.337.337,0,0,1,.336-.336h2.913a.337.337,0,0,1,.336.336v.785H22.781Zm-1.42,4.754V26.507h18v2.848Zm1.131,1.12h15.74V43.3H37.078v-.647a2.7,2.7,0,0,0-2.694-2.694h-8.04a2.7,2.7,0,0,0-2.694,2.694V43.3H22.493ZM17.747,46.747a1.533,1.533,0,0,0,1.531-1.53v-.8H23.65v.8a1.532,1.532,0,0,0,1.53,1.53h3.211v2.964h-4.1a1.643,1.643,0,0,0-.22,3.271v6.79H18.851v-6.79a1.644,1.644,0,0,0,1.421-1.626v0a1.644,1.644,0,0,0-1.643-1.643H14.536V46.747Zm.883,5.132H14.536V50.832H18.63a.523.523,0,0,1,.522.522v0A.523.523,0,0,1,18.63,51.878Zm-6.917.561c0-.319,0-2.311,0-6.241,0,0,0-.007,0-.011v-.6a.852.852,0,0,1,1.7,0v.6s0,0,0,0c0,2.151,0,6.024,0,6.249a.56.56,0,0,0,.56.56H15.67v1H9.457V53h1.694a.561.561,0,0,0,.561-.56ZM9.457,55.121H15.67v4.651H9.457ZM5.973,51.354a.523.523,0,0,1,.522-.522h4.1v1.046H6.5A.523.523,0,0,1,5.973,51.354Zm1.421,8.418V53h.942v6.772Zm9.4,0V53h.94v6.772Zm8.4,0V53h.942v6.772Zm9.4,0V53h.94v6.772Zm8.4,0V53h.942v6.772Zm9.4,0V53h.94v6.772Z" transform="translate(-2.165 -6.392)"/>
        <path id="Trazado_1050035" data-name="Trazado 1050035" d="M130.361,125.493a.56.56,0,1,0,.556-.973.575.575,0,0,0-.764.208A.559.559,0,0,0,130.361,125.493Z" transform="translate(-101.414 -97.996)"/>
        <path id="Trazado_1050036" data-name="Trazado 1050036" d="M116.542,129.69a3.049,3.049,0,0,0,3.012-3.5.567.567,0,0,0-.639-.471.558.558,0,0,0-.471.636,1.923,1.923,0,1,1-2.622-1.495.561.561,0,1,0-.419-1.04,3.044,3.044,0,0,0,1.139,5.867Z" transform="translate(-88.551 -97.478)"/>
      </g>
    </g>
  </g>
</svg>
