<svg xmlns="http://www.w3.org/2000/svg" xmlns:xlink="http://www.w3.org/1999/xlink" width="113" height="113" viewBox="0 0 113 113">
  <defs>
    <filter id="Trazado_982547" x="0" y="0" width="113" height="113" filterUnits="userSpaceOnUse">
      <feOffset dy="3" input="SourceAlpha"/>
      <feGaussianBlur stdDeviation="3" result="blur"/>
      <feFlood flood-opacity="0.161"/>
      <feComposite operator="in" in2="blur"/>
      <feComposite in="SourceGraphic"/>
    </filter>
  </defs>
  <g id="Grupo_1206597" data-name="Grupo 1206597" transform="translate(-902 -10824.49)">
    <g id="Grupo_1204127" data-name="Grupo 1204127" transform="translate(0 6984.49)">
      <g id="Grupo_1203960" data-name="Grupo 1203960" transform="translate(0.44 1899.125)">
        <g id="Grupo_1203499" data-name="Grupo 1203499" transform="translate(0 -197.72)">
          <g id="Grupo_1202591" data-name="Grupo 1202591" transform="translate(910.561 2144.596)">
            <g id="Grupo_1172010" data-name="Grupo 1172010" transform="translate(0)">
              <g id="Grupo_1171046" data-name="Grupo 1171046">
                <g id="Grupo_1148525" data-name="Grupo 1148525">
                  <g transform="matrix(1, 0, 0, 1, -9, -6)" filter="url(#Trazado_982547)">
                    <g id="Trazado_982547-2" data-name="Trazado 982547" transform="translate(9 6)" fill="#edf3fc">
                      <path d="M 47.5 93.5 C 41.28937149047852 93.5 35.26533508300781 92.28397369384766 29.59518623352051 89.88570404052734 C 24.11771965026855 87.56893157958984 19.19813346862793 84.25196075439453 14.97309303283691 80.02691650390625 C 10.74804019927979 75.80186462402344 7.431066513061523 70.88229370117188 5.114293098449707 65.40481567382812 C 2.716026782989502 59.73468017578125 1.5 53.71062850952148 1.5 47.5 C 1.5 41.28937149047852 2.716026782989502 35.26533508300781 5.114293098449707 29.59518623352051 C 7.431066513061523 24.11771965026855 10.74804019927979 19.19813346862793 14.97309303283691 14.97309303283691 C 19.19813346862793 10.74804019927979 24.11771965026855 7.431066513061523 29.59518623352051 5.114293098449707 C 35.26533508300781 2.716026782989502 41.28937149047852 1.5 47.5 1.5 C 53.71062850952148 1.5 59.73468017578125 2.716026782989502 65.40481567382812 5.114293098449707 C 70.88229370117188 7.431066513061523 75.80186462402344 10.74804019927979 80.02691650390625 14.97309303283691 C 84.25196075439453 19.19813346862793 87.56893157958984 24.11771965026855 89.88570404052734 29.59518623352051 C 92.28397369384766 35.26533508300781 93.5 41.28937149047852 93.5 47.5 C 93.5 53.71062850952148 92.28397369384766 59.73468017578125 89.88570404052734 65.40481567382812 C 87.56893157958984 70.88229370117188 84.25196075439453 75.80186462402344 80.02691650390625 80.02691650390625 C 75.80186462402344 84.25196075439453 70.88229370117188 87.56893157958984 65.40481567382812 89.88570404052734 C 59.73468017578125 92.28397369384766 53.71062850952148 93.5 47.5 93.5 Z" stroke="none"/>
                      <path d="M 47.5 3 C 41.49121475219727 3 35.66376876831055 4.176155090332031 30.17950439453125 6.495796203613281 C 24.88084411621094 8.736953735351562 20.12152099609375 11.94598388671875 16.03375244140625 16.03375244140625 C 11.94598388671875 20.12152099609375 8.736953735351562 24.88084411621094 6.495796203613281 30.17950439453125 C 4.176155090332031 35.66376876831055 3 41.49121475219727 3 47.5 C 3 53.50878524780273 4.176155090332031 59.33623123168945 6.495796203613281 64.82049560546875 C 8.736953735351562 70.11915588378906 11.94598388671875 74.87847900390625 16.03375244140625 78.96624755859375 C 20.12152099609375 83.05401611328125 24.88084411621094 86.26304626464844 30.17950439453125 88.50419616699219 C 35.66376876831055 90.82384490966797 41.49121475219727 92 47.5 92 C 53.50878524780273 92 59.33623123168945 90.82384490966797 64.82049560546875 88.50419616699219 C 70.11915588378906 86.26304626464844 74.87847900390625 83.05401611328125 78.96624755859375 78.96624755859375 C 83.05401611328125 74.87847900390625 86.26304626464844 70.11915588378906 88.50419616699219 64.82049560546875 C 90.82384490966797 59.33623123168945 92 53.50878524780273 92 47.5 C 92 41.49121475219727 90.82384490966797 35.66376876831055 88.50419616699219 30.17950439453125 C 86.26304626464844 24.88084411621094 83.05401611328125 20.12152099609375 78.96624755859375 16.03375244140625 C 74.87847900390625 11.94598388671875 70.11915588378906 8.736953735351562 64.82049560546875 6.495796203613281 C 59.33623123168945 4.176155090332031 53.50878524780273 3 47.5 3 M 47.5 0 C 73.7335205078125 0 95 21.2664794921875 95 47.5 C 95 73.7335205078125 73.7335205078125 95 47.5 95 C 21.2664794921875 95 0 73.7335205078125 0 47.5 C 0 21.2664794921875 21.2664794921875 0 47.5 0 Z" stroke="none" fill="#5692e8"/>
                    </g>
                  </g>
                </g>
              </g>
            </g>
          </g>
        </g>
      </g>
    </g>
    <g id="evaluation_7650845" transform="translate(928.471 10846.003)">
      <g id="Grupo_1206966" data-name="Grupo 1206966" transform="translate(2.556 1.976)">
        <g id="Grupo_1206938" data-name="Grupo 1206938" transform="translate(0)">
          <path id="Trazado_1050037" data-name="Trazado 1050037" d="M7.362,10.616a3.826,3.826,0,0,1,3.824-3.824H42.92V5.824A3.813,3.813,0,0,0,39.1,2H6.414A3.828,3.828,0,0,0,2.58,5.824V53.405A3.826,3.826,0,0,0,6.4,57.229h.958Z" transform="translate(-2.58 -2)" fill="#8aba55"/>
        </g>
        <g id="Grupo_1206939" data-name="Grupo 1206939" transform="translate(24.957)" opacity="0.3">
          <path id="Trazado_1050038" data-name="Trazado 1050038" d="M39.919,2H28.36a3.305,3.305,0,0,0,3.3,3.3h8.78V11.72a3.305,3.305,0,0,0,3.3,3.3h.01v-9.2A3.828,3.828,0,0,0,39.919,2Z" transform="translate(-28.36 -2)" fill="#fff"/>
        </g>
        <g id="Grupo_1206940" data-name="Grupo 1206940" transform="translate(4.792 4.782)">
          <path id="Trazado_1050039" data-name="Trazado 1050039" d="M44.036,6.94H11.354A3.826,3.826,0,0,0,7.53,10.764V58.345a3.826,3.826,0,0,0,3.824,3.824H44.046a3.826,3.826,0,0,0,3.824-3.824V10.774A3.83,3.83,0,0,0,44.036,6.94Z" transform="translate(-7.53 -6.94)" fill="#e2e2e2"/>
        </g>
        <g id="Grupo_1206941" data-name="Grupo 1206941" transform="translate(8.829 24.26)">
          <path id="Trazado_1050040" data-name="Trazado 1050040" d="M11.7,27.06h8.025v8.025H11.7Z" transform="translate(-11.7 -27.06)" fill="#ef4a51"/>
        </g>
        <g id="Grupo_1206942" data-name="Grupo 1206942" transform="translate(8.829 35.761)">
          <path id="Trazado_1050041" data-name="Trazado 1050041" d="M11.7,38.94h8.025v8.025H11.7Z" transform="translate(-11.7 -38.94)" fill="#ffab03"/>
        </g>
        <g id="Grupo_1206943" data-name="Grupo 1206943" transform="translate(8.829 47.271)">
          <path id="Trazado_1050042" data-name="Trazado 1050042" d="M11.7,50.83h8.025v8.025H11.7Z" transform="translate(-11.7 -50.83)" fill="#7cb5e8"/>
        </g>
        <g id="Grupo_1206944" data-name="Grupo 1206944" transform="translate(8.829 47.271)">
          <path id="Trazado_1050043" data-name="Trazado 1050043" d="M11.7,50.83h8.025v8.025H11.7Z" transform="translate(-11.7 -50.83)" fill="#7cb5e8"/>
        </g>
        <g id="Grupo_1206945" data-name="Grupo 1206945" transform="translate(11.733 47.271)" opacity="0.3">
          <path id="Trazado_1050044" data-name="Trazado 1050044" d="M14.7,54.015a1.942,1.942,0,0,0,1.936,1.936h3.185V50.83H14.7Z" transform="translate(-14.7 -50.83)" fill="#fff"/>
        </g>
        <g id="Grupo_1206946" data-name="Grupo 1206946" transform="translate(11.733 35.761)" opacity="0.3">
          <path id="Trazado_1050045" data-name="Trazado 1050045" d="M14.7,42.125a1.942,1.942,0,0,0,1.936,1.936h3.185V38.94H14.7Z" transform="translate(-14.7 -38.94)" fill="#fff"/>
        </g>
        <g id="Grupo_1206947" data-name="Grupo 1206947" transform="translate(11.733 24.25)" opacity="0.3">
          <path id="Trazado_1050046" data-name="Trazado 1050046" d="M14.7,30.235a1.942,1.942,0,0,0,1.936,1.936h3.185V27.05H14.7Z" transform="translate(-14.7 -27.05)" fill="#fff"/>
        </g>
        <g id="Grupo_1206948" data-name="Grupo 1206948" transform="translate(17.977 4.782)" opacity="0.3">
          <path id="Trazado_1050047" data-name="Trazado 1050047" d="M44.471,6.94H21.15V19.109A16.022,16.022,0,0,0,37.172,35.131H48.3V10.774A3.83,3.83,0,0,0,44.471,6.94Z" transform="translate(-21.15 -6.94)" fill="#fff"/>
        </g>
        <g id="Grupo_1206949" data-name="Grupo 1206949" transform="translate(26.709 4.792)" opacity="0.5">
          <path id="Trazado_1050048" data-name="Trazado 1050048" d="M44.759,6.95H30.17a3.954,3.954,0,0,0,3.95,3.95H44.633v7.687a3.954,3.954,0,0,0,3.95,3.95h.01V10.774A3.828,3.828,0,0,0,44.759,6.95Z" transform="translate(-30.17 -6.95)" fill="#fff"/>
        </g>
        <g id="Grupo_1206950" data-name="Grupo 1206950" transform="translate(25.315 21.83)">
          <circle id="Elipse_12967" data-name="Elipse 12967" cx="12.45" cy="12.45" r="12.45" transform="translate(0)" fill="#fff"/>
        </g>
        <g id="Grupo_1206951" data-name="Grupo 1206951" transform="translate(28.476 24.996)">
          <path id="Trazado_1050049" data-name="Trazado 1050049" d="M41.284,46.407a9.294,9.294,0,1,0-6.573-2.72A9.233,9.233,0,0,0,41.284,46.407Z" transform="translate(-31.995 -27.82)" fill="#7cb5e8"/>
        </g>
        <g id="Grupo_1206952" data-name="Grupo 1206952" transform="translate(31.498 24.986)" opacity="0.3">
          <path id="Trazado_1050050" data-name="Trazado 1050050" d="M41.383,27.81A9.23,9.23,0,0,0,36.5,29.2,9.288,9.288,0,0,0,49.293,41.992,9.288,9.288,0,0,0,41.383,27.81Z" transform="translate(-35.116 -27.81)" fill="#fff"/>
        </g>
        <g id="Grupo_1206953" data-name="Grupo 1206953" transform="translate(47.194 43.699)">
          <path id="Trazado_1050051" data-name="Trazado 1050051" d="M54.534,47.692l-2.653,2.653a2.847,2.847,0,0,1-.552.416l7.328,7.328a2.56,2.56,0,0,0,3.621-3.621L54.951,47.14A2.582,2.582,0,0,1,54.534,47.692Z" transform="translate(-51.33 -47.14)" fill="#ef4a51"/>
        </g>
        <g id="Grupo_1206954" data-name="Grupo 1206954" transform="translate(48.675 43.709)" opacity="0.3">
          <path id="Trazado_1050052" data-name="Trazado 1050052" d="M55,47.15a3.174,3.174,0,0,1-.416.552L52.86,49.425l5.857,5.857a2.565,2.565,0,0,0,3.621,0,3.111,3.111,0,0,0,.329-.4,2.56,2.56,0,0,0-.329-.4Z" transform="translate(-52.86 -47.15)" fill="#e2e2e2"/>
        </g>
        <g id="Grupo_1206955" data-name="Grupo 1206955" transform="translate(42.518 39.033)">
          <path id="Trazado_1050053" data-name="Trazado 1050053" d="M50.556,46.376a12.2,12.2,0,0,0,2.7-4.056l1.123,1.123a2.9,2.9,0,0,1,0,4.1L51.728,50.2a2.9,2.9,0,0,1-4.1,0L46.5,49.077a12.608,12.608,0,0,0,4.056-2.7Z" transform="translate(-46.5 -42.32)" fill="#4e6575"/>
        </g>
        <g id="Grupo_1206956" data-name="Grupo 1206956" transform="translate(43.873 39.023)" opacity="0.3">
          <path id="Trazado_1050054" data-name="Trazado 1050054" d="M51.763,48.2l2.653-2.653a2.914,2.914,0,0,0,.668-1.055,2.914,2.914,0,0,0-.668-1.055L53.292,42.31a12.608,12.608,0,0,1-2.7,4.056A12.228,12.228,0,0,1,47.9,48.4a2.9,2.9,0,0,0,3.863-.2Z" transform="translate(-47.9 -42.31)" fill="#e2e2e2"/>
        </g>
        <g id="Grupo_1206959" data-name="Grupo 1206959" transform="translate(20.494 7.687)">
          <g id="Grupo_1206957" data-name="Grupo 1206957" transform="translate(0)">
            <path id="Trazado_1050055" data-name="Trazado 1050055" d="M28.213,9.94l1.384,2.8,3.088.445-2.236,2.178.523,3.078-2.759-1.452L25.454,18.44l.523-3.078L23.75,13.183l3.078-.445Z" transform="translate(-23.75 -9.94)" fill="#ffab03"/>
          </g>
          <g id="Grupo_1206958" data-name="Grupo 1206958" transform="translate(2.323)" opacity="0.3">
            <path id="Trazado_1050056" data-name="Trazado 1050056" d="M29.674,12.738l-1.384-2.8-1.384,2.8-.755.106A4.485,4.485,0,0,0,30.477,16.2c.058,0,.116-.019.174-.019l-.145-.823,2.236-2.178Z" transform="translate(-26.15 -9.94)" fill="#fff"/>
          </g>
        </g>
        <g id="Grupo_1206962" data-name="Grupo 1206962" transform="translate(10.736 11.094)">
          <g id="Grupo_1206960" data-name="Grupo 1206960">
            <path id="Trazado_1050057" data-name="Trazado 1050057" d="M18.143,13.46l1.375,2.8,3.088.445-2.236,2.178L20.9,21.96l-2.759-1.452L15.374,21.96l.532-3.078L13.67,16.7l3.088-.445Z" transform="translate(-13.67 -13.46)" fill="#ffab03"/>
          </g>
          <g id="Grupo_1206961" data-name="Grupo 1206961" transform="translate(2.323)" opacity="0.3">
            <path id="Trazado_1050058" data-name="Trazado 1050058" d="M19.594,16.258l-1.384-2.8-1.384,2.8-.755.106A4.485,4.485,0,0,0,20.4,19.723c.058,0,.116-.019.174-.019l-.145-.823L22.663,16.7Z" transform="translate(-16.07 -13.46)" fill="#fff"/>
          </g>
        </g>
        <g id="Grupo_1206965" data-name="Grupo 1206965" transform="translate(30.243 11.094)">
          <g id="Grupo_1206963" data-name="Grupo 1206963" transform="translate(0)">
            <path id="Trazado_1050059" data-name="Trazado 1050059" d="M38.293,13.46l1.375,2.8,3.088.445-2.236,2.178.532,3.078-2.759-1.452L35.524,21.96l.532-3.078L33.82,16.7l3.088-.445Z" transform="translate(-33.82 -13.46)" fill="#ffab03"/>
          </g>
          <g id="Grupo_1206964" data-name="Grupo 1206964" transform="translate(2.323)" opacity="0.3">
            <path id="Trazado_1050060" data-name="Trazado 1050060" d="M39.744,16.258l-1.384-2.8-1.384,2.8-.755.106a4.485,4.485,0,0,0,4.327,3.359c.058,0,.116-.019.174-.019l-.145-.823L42.813,16.7Z" transform="translate(-36.22 -13.46)" fill="#fff"/>
          </g>
        </g>
      </g>
      <g id="Grupo_1206989" data-name="Grupo 1206989" transform="translate(1.83 1.25)">
        <g id="Grupo_1206967" data-name="Grupo 1206967" transform="translate(25.323 21.847)">
          <path id="Trazado_1050061" data-name="Trazado 1050061" d="M41.156,50.152A13.166,13.166,0,1,1,50.469,46.3,13.143,13.143,0,0,1,41.156,50.152Zm0-24.889a11.714,11.714,0,1,0,8.287,3.427A11.683,11.683,0,0,0,41.156,25.262Z" transform="translate(-27.988 -23.818)"/>
        </g>
        <g id="Grupo_1206968" data-name="Grupo 1206968" transform="translate(28.463 24.996)">
          <path id="Trazado_1050062" data-name="Trazado 1050062" d="M41.259,47.109a10.025,10.025,0,0,1-8.906-14.628.725.725,0,0,1,1.288.668,8.554,8.554,0,1,0,1.549-2.12A.726.726,0,1,1,34.163,30a10.022,10.022,0,1,1,7.1,17.106Z" transform="translate(-31.231 -27.07)"/>
        </g>
        <g id="Grupo_1206969" data-name="Grupo 1206969" transform="translate(47.198 43.713)">
          <path id="Trazado_1050063" data-name="Trazado 1050063" d="M60.445,59.556a3.227,3.227,0,0,1-2.323-.968L50.793,51.26a.72.72,0,0,1-.2-.6.742.742,0,0,1,.339-.532,2.115,2.115,0,0,0,.407-.31l2.653-2.653a2.031,2.031,0,0,0,.31-.407.725.725,0,0,1,1.133-.145l7.328,7.328a3.292,3.292,0,0,1-2.314,5.615ZM52.39,50.815l6.757,6.757a1.871,1.871,0,0,0,2.594,0,1.835,1.835,0,0,0,0-2.594L54.985,48.22Z" transform="translate(-50.584 -46.404)"/>
        </g>
        <g id="Grupo_1206970" data-name="Grupo 1206970" transform="translate(42.508 39.019)">
          <path id="Trazado_1050064" data-name="Trazado 1050064" d="M49.641,51.744a3.6,3.6,0,0,1-2.565-1.065l-1.123-1.123a.75.75,0,0,1-.2-.658.738.738,0,0,1,.436-.532,11.726,11.726,0,0,0,6.36-6.36.738.738,0,0,1,.532-.436.723.723,0,0,1,.658.2L54.859,42.9a3.634,3.634,0,0,1,0,5.131l-2.653,2.653a3.587,3.587,0,0,1-2.565,1.065Zm-1.917-2.469.387.387a2.228,2.228,0,0,0,3.078,0l2.653-2.653a2.174,2.174,0,0,0,0-3.078l-.387-.387a13.488,13.488,0,0,1-2.411,3.321A12.841,12.841,0,0,1,47.725,49.275Z" transform="translate(-45.739 -41.555)"/>
        </g>
        <g id="Grupo_1206971" data-name="Grupo 1206971" transform="translate(21.375 51.792)">
          <path id="Trazado_1050065" data-name="Trazado 1050065" d="M32.381,56.2H24.636a.726.726,0,1,1,0-1.452h7.745a.726.726,0,0,1,0,1.452Z" transform="translate(-23.91 -54.75)"/>
        </g>
        <g id="Grupo_1206972" data-name="Grupo 1206972" transform="translate(32.673 51.792)">
          <path id="Trazado_1050066" data-name="Trazado 1050066" d="M38.145,56.2H36.306a.726.726,0,0,1,0-1.452h1.839a.726.726,0,0,1,0,1.452Z" transform="translate(-35.58 -54.75)"/>
        </g>
        <g id="Grupo_1206973" data-name="Grupo 1206973" transform="translate(21.375 55.297)">
          <path id="Trazado_1050067" data-name="Trazado 1050067" d="M32.381,59.822H24.636a.726.726,0,1,1,0-1.452h7.745a.726.726,0,0,1,0,1.452Z" transform="translate(-23.91 -58.37)"/>
        </g>
        <g id="Grupo_1206974" data-name="Grupo 1206974" transform="translate(32.673 55.297)">
          <path id="Trazado_1050068" data-name="Trazado 1050068" d="M38.145,59.822H36.306a.726.726,0,0,1,0-1.452h1.839a.726.726,0,0,1,0,1.452Z" transform="translate(-35.58 -58.37)"/>
        </g>
        <g id="Grupo_1206975" data-name="Grupo 1206975" transform="translate(4.792 13.408)">
          <path id="Trazado_1050069" data-name="Trazado 1050069" d="M44.012,63.165H11.33a4.557,4.557,0,0,1-4.55-4.55V15.826a.726.726,0,0,1,1.452,0V58.615a3.1,3.1,0,0,0,3.1,3.1H44.022a3.1,3.1,0,0,0,3.1-3.1V52.081a.726.726,0,1,1,1.452,0v6.535a4.559,4.559,0,0,1-4.56,4.55Z" transform="translate(-6.78 -15.1)"/>
        </g>
        <g id="Grupo_1206976" data-name="Grupo 1206976" transform="translate(4.792 4.792)">
          <path id="Trazado_1050070" data-name="Trazado 1050070" d="M47.846,24.777a.731.731,0,0,1-.726-.726V10.75a3.1,3.1,0,0,0-3.1-3.1H11.33a3.1,3.1,0,0,0-3.1,3.1v1.394a.726.726,0,1,1-1.452,0V10.75A4.557,4.557,0,0,1,11.33,6.2H44.022a4.557,4.557,0,0,1,4.55,4.55V24.061A.723.723,0,0,1,47.846,24.777Z" transform="translate(-6.78 -6.2)"/>
        </g>
        <g id="Grupo_1206977" data-name="Grupo 1206977" transform="translate(0.01 48.83)">
          <path id="Trazado_1050071" data-name="Trazado 1050071" d="M7.339,59.551H6.39A4.557,4.557,0,0,1,1.84,55V52.416a.726.726,0,0,1,1.452,0V55a3.1,3.1,0,0,0,3.1,3.1h.958a.726.726,0,1,1-.01,1.452Z" transform="translate(-1.84 -51.69)"/>
        </g>
        <g id="Grupo_1206978" data-name="Grupo 1206978">
          <path id="Trazado_1050072" data-name="Trazado 1050072" d="M2.556,49.054a.731.731,0,0,1-.726-.726V5.8A4.557,4.557,0,0,1,6.38,1.25H39.072a4.557,4.557,0,0,1,4.55,4.55v.958a.726.726,0,0,1-1.452,0V5.8a3.1,3.1,0,0,0-3.1-3.1H6.39a3.1,3.1,0,0,0-3.1,3.1V48.328a.74.74,0,0,1-.736.726Z" transform="translate(-1.83 -1.25)"/>
        </g>
        <g id="Grupo_1206979" data-name="Grupo 1206979" transform="translate(10.73 11.131)">
          <path id="Trazado_1050073" data-name="Trazado 1050073" d="M15.35,22.663a.742.742,0,0,1-.426-.136.723.723,0,0,1-.29-.707l.465-2.7-1.965-1.907a.735.735,0,0,1-.184-.745.725.725,0,0,1,.591-.494l2.711-.4,1.21-2.459a.753.753,0,0,1,1.3,0l1.21,2.459,2.711.4a.726.726,0,0,1,.407,1.239L21.119,19.12l.465,2.7a.715.715,0,0,1-.29.707.728.728,0,0,1-.765.058l-2.42-1.278-2.42,1.278A.825.825,0,0,1,15.35,22.663Zm2.769-2.9a.706.706,0,0,1,.339.087l1.462.765-.281-1.626a.718.718,0,0,1,.213-.639l1.181-1.152L19.4,16.951a.723.723,0,0,1-.542-.4l-.726-1.481L17.4,16.554a.74.74,0,0,1-.542.4l-1.636.242L16.4,18.345a.718.718,0,0,1,.213.639l-.281,1.626,1.462-.765a.585.585,0,0,1,.319-.087Z" transform="translate(-12.913 -12.748)"/>
        </g>
        <g id="Grupo_1206980" data-name="Grupo 1206980" transform="translate(20.488 7.723)">
          <path id="Trazado_1050074" data-name="Trazado 1050074" d="M25.43,19.143A.742.742,0,0,1,25,19.008a.723.723,0,0,1-.29-.707l.465-2.7-1.965-1.907a.735.735,0,0,1-.184-.745.725.725,0,0,1,.591-.494l2.711-.4L27.54,9.6a.753.753,0,0,1,1.3,0l1.21,2.459,2.711.4a.726.726,0,0,1,.407,1.239L31.2,15.6l.465,2.7a.715.715,0,0,1-.29.707.728.728,0,0,1-.765.058l-2.42-1.278-2.42,1.278a.825.825,0,0,1-.339.077Zm2.759-2.9a.706.706,0,0,1,.339.087l1.462.765-.281-1.626a.718.718,0,0,1,.213-.639L31.1,13.673l-1.636-.242a.723.723,0,0,1-.542-.4L28.2,11.553l-.726,1.481a.74.74,0,0,1-.542.4l-1.636.242,1.181,1.152a.718.718,0,0,1,.213.639l-.281,1.626,1.462-.765a.585.585,0,0,1,.319-.087Z" transform="translate(-22.993 -9.227)"/>
        </g>
        <g id="Grupo_1206981" data-name="Grupo 1206981" transform="translate(30.236 11.131)">
          <path id="Trazado_1050075" data-name="Trazado 1050075" d="M35.5,22.663a.742.742,0,0,1-.426-.136.723.723,0,0,1-.29-.707l.465-2.7-1.965-1.907a.735.735,0,0,1-.184-.745.725.725,0,0,1,.591-.494l2.711-.4,1.21-2.459a.753.753,0,0,1,1.3,0l1.21,2.459,2.711.4a.726.726,0,0,1,.407,1.239L41.269,19.12l.465,2.7a.715.715,0,0,1-.29.707.728.728,0,0,1-.765.058l-2.42-1.278-2.42,1.278a.825.825,0,0,1-.339.077Zm2.769-2.9a.706.706,0,0,1,.339.087l1.462.765-.29-1.626a.718.718,0,0,1,.213-.639l1.181-1.152-1.636-.242a.723.723,0,0,1-.542-.4l-.726-1.481-.726,1.481a.74.74,0,0,1-.542.4l-1.636.242,1.181,1.152a.718.718,0,0,1,.213.639l-.281,1.626,1.462-.765A.644.644,0,0,1,38.268,19.759Z" transform="translate(-33.063 -12.748)"/>
        </g>
        <g id="Grupo_1206982" data-name="Grupo 1206982" transform="translate(8.829 24.25)">
          <path id="Trazado_1050076" data-name="Trazado 1050076" d="M19.7,35.778H11.676a.731.731,0,0,1-.726-.726V27.026a.731.731,0,0,1,.726-.726H19.7a.731.731,0,0,1,.726.726v5.76a.726.726,0,0,1-1.452,0V27.762H12.4v6.573h7.3a.731.731,0,0,1,.726.726A.717.717,0,0,1,19.7,35.778Z" transform="translate(-10.95 -26.3)"/>
        </g>
        <g id="Grupo_1206983" data-name="Grupo 1206983" transform="translate(11.068 27.06)">
          <path id="Trazado_1050077" data-name="Trazado 1050077" d="M15.138,33.063a.718.718,0,0,1-.513-.213L13.473,31.7A.726.726,0,1,1,14.5,30.672l.629.629,1.888-1.888a.726.726,0,0,1,1.026,1.026l-2.4,2.4a.656.656,0,0,1-.5.223Z" transform="translate(-13.262 -29.202)"/>
        </g>
        <g id="Grupo_1206984" data-name="Grupo 1206984" transform="translate(8.829 35.761)">
          <path id="Trazado_1050078" data-name="Trazado 1050078" d="M19.7,47.668H11.676a.731.731,0,0,1-.726-.726V38.916a.731.731,0,0,1,.726-.726H19.7a.731.731,0,0,1,.726.726v8.025A.719.719,0,0,1,19.7,47.668Zm-7.3-1.452h6.573V39.642H12.4Z" transform="translate(-10.95 -38.19)"/>
        </g>
        <g id="Grupo_1206985" data-name="Grupo 1206985" transform="translate(11.068 38.571)">
          <path id="Trazado_1050079" data-name="Trazado 1050079" d="M15.138,44.953a.725.725,0,0,1-.513-.213l-1.152-1.152A.726.726,0,1,1,14.5,42.562l.629.629L17.016,41.3a.726.726,0,0,1,1.026,1.026l-2.4,2.4a.66.66,0,0,1-.5.223Z" transform="translate(-13.262 -41.092)"/>
        </g>
        <g id="Grupo_1206986" data-name="Grupo 1206986" transform="translate(8.829 47.271)">
          <path id="Trazado_1050080" data-name="Trazado 1050080" d="M19.7,59.558H13.912a.726.726,0,0,1,0-1.452h5.063V51.532H12.4v7.3a.726.726,0,1,1-1.452,0V50.806a.731.731,0,0,1,.726-.726H19.7a.731.731,0,0,1,.726.726v8.025A.725.725,0,0,1,19.7,59.558Z" transform="translate(-10.95 -50.08)"/>
        </g>
        <g id="Grupo_1206987" data-name="Grupo 1206987" transform="translate(11.068 50.081)">
          <path id="Trazado_1050081" data-name="Trazado 1050081" d="M15.138,56.843a.725.725,0,0,1-.513-.213l-1.152-1.152A.726.726,0,0,1,14.5,54.452l.629.629,1.888-1.888a.726.726,0,1,1,1.026,1.026l-2.4,2.4a.66.66,0,0,1-.5.223Z" transform="translate(-13.262 -52.983)"/>
        </g>
        <g id="Grupo_1206988" data-name="Grupo 1206988" transform="translate(33.701 31.339)">
          <path id="Trazado_1050082" data-name="Trazado 1050082" d="M39.593,40.977a.718.718,0,0,1-.513-.213l-2.227-2.227a.726.726,0,0,1,1.026-1.026l1.714,1.714,5.392-5.392a.726.726,0,1,1,1.026,1.026l-5.905,5.905a.725.725,0,0,1-.513.213Z" transform="translate(-36.643 -33.622)"/>
        </g>
      </g>
    </g>
  </g>
</svg>
