<svg xmlns="http://www.w3.org/2000/svg" xmlns:xlink="http://www.w3.org/1999/xlink" width="113" height="113" viewBox="0 0 113 113">
  <defs>
    <filter id="Trazado_982547" x="0" y="0" width="113" height="113" filterUnits="userSpaceOnUse">
      <feOffset dy="3" input="SourceAlpha"/>
      <feGaussianBlur stdDeviation="3" result="blur"/>
      <feFlood flood-opacity="0.161"/>
      <feComposite operator="in" in2="blur"/>
      <feComposite in="SourceGraphic"/>
    </filter>
  </defs>
  <g id="Grupo_1206860" data-name="Grupo 1206860" transform="translate(-1036.5 -1666.044)">
    <g id="Grupo_1202139" data-name="Grupo 1202139" transform="translate(839.5 -41.373)">
      <g id="Grupo_1201889" data-name="Grupo 1201889" transform="translate(206 1713.417)">
        <g id="Grupo_1201680" data-name="Grupo 1201680">
          <g id="Grupo_1201330" data-name="Grupo 1201330">
            <g id="Grupo_1172010" data-name="Grupo 1172010">
              <g id="Grupo_1171046" data-name="Grupo 1171046">
                <g id="Grupo_1148525" data-name="Grupo 1148525">
                  <g transform="matrix(1, 0, 0, 1, -9, -6)" filter="url(#Trazado_982547)">
                    <g id="Trazado_982547-2" data-name="Trazado 982547" transform="translate(9 6)" fill="#fdfbec">
                      <path d="M 47.5 93.5 C 41.28937149047852 93.5 35.26533508300781 92.28397369384766 29.59518623352051 89.88570404052734 C 24.11771965026855 87.56893157958984 19.19813346862793 84.25196075439453 14.97309303283691 80.02691650390625 C 10.74804019927979 75.80186462402344 7.431066513061523 70.88229370117188 5.114293098449707 65.40481567382812 C 2.716026782989502 59.73468017578125 1.5 53.71062850952148 1.5 47.5 C 1.5 41.28937149047852 2.716026782989502 35.26533508300781 5.114293098449707 29.59518623352051 C 7.431066513061523 24.11771965026855 10.74804019927979 19.19813346862793 14.97309303283691 14.97309303283691 C 19.19813346862793 10.74804019927979 24.11771965026855 7.431066513061523 29.59518623352051 5.114293098449707 C 35.26533508300781 2.716026782989502 41.28937149047852 1.5 47.5 1.5 C 53.71062850952148 1.5 59.73468017578125 2.716026782989502 65.40481567382812 5.114293098449707 C 70.88229370117188 7.431066513061523 75.80186462402344 10.74804019927979 80.02691650390625 14.97309303283691 C 84.25196075439453 19.19813346862793 87.56893157958984 24.11771965026855 89.88570404052734 29.59518623352051 C 92.28397369384766 35.26533508300781 93.5 41.28937149047852 93.5 47.5 C 93.5 53.71062850952148 92.28397369384766 59.73468017578125 89.88570404052734 65.40481567382812 C 87.56893157958984 70.88229370117188 84.25196075439453 75.80186462402344 80.02691650390625 80.02691650390625 C 75.80186462402344 84.25196075439453 70.88229370117188 87.56893157958984 65.40481567382812 89.88570404052734 C 59.73468017578125 92.28397369384766 53.71062850952148 93.5 47.5 93.5 Z" stroke="none"/>
                      <path d="M 47.5 3 C 41.49121475219727 3 35.66376876831055 4.176155090332031 30.17950439453125 6.495796203613281 C 24.88084411621094 8.736953735351562 20.12152099609375 11.94598388671875 16.03375244140625 16.03375244140625 C 11.94598388671875 20.12152099609375 8.736953735351562 24.88084411621094 6.495796203613281 30.17950439453125 C 4.176155090332031 35.66376876831055 3 41.49121475219727 3 47.5 C 3 53.50878524780273 4.176155090332031 59.33623123168945 6.495796203613281 64.82049560546875 C 8.736953735351562 70.11915588378906 11.94598388671875 74.87847900390625 16.03375244140625 78.96624755859375 C 20.12152099609375 83.05401611328125 24.88084411621094 86.26304626464844 30.17950439453125 88.50419616699219 C 35.66376876831055 90.82384490966797 41.49121475219727 92 47.5 92 C 53.50878524780273 92 59.33623123168945 90.82384490966797 64.82049560546875 88.50419616699219 C 70.11915588378906 86.26304626464844 74.87847900390625 83.05401611328125 78.96624755859375 78.96624755859375 C 83.05401611328125 74.87847900390625 86.26304626464844 70.11915588378906 88.50419616699219 64.82049560546875 C 90.82384490966797 59.33623123168945 92 53.50878524780273 92 47.5 C 92 41.49121475219727 90.82384490966797 35.66376876831055 88.50419616699219 30.17950439453125 C 86.26304626464844 24.88084411621094 83.05401611328125 20.12152099609375 78.96624755859375 16.03375244140625 C 74.87847900390625 11.94598388671875 70.11915588378906 8.736953735351562 64.82049560546875 6.495796203613281 C 59.33623123168945 4.176155090332031 53.50878524780273 3 47.5 3 M 47.5 0 C 73.7335205078125 0 95 21.2664794921875 95 47.5 C 95 73.7335205078125 73.7335205078125 95 47.5 95 C 21.2664794921875 95 0 73.7335205078125 0 47.5 C 0 21.2664794921875 21.2664794921875 0 47.5 0 Z" stroke="none" fill="#83793c"/>
                    </g>
                  </g>
                </g>
              </g>
            </g>
          </g>
        </g>
      </g>
    </g>
    <g id="relation_2835266" transform="translate(1061 1688)">
      <g id="Grupo_1206858" data-name="Grupo 1206858">
        <g id="Grupo_1206841" data-name="Grupo 1206841">
          <path id="Trazado_1049745" data-name="Trazado 1049745" d="M42,19v5H38v2.59a1.414,1.414,0,0,1-2.41,1L32,24H27a1,1,0,0,1-1-1V17a1,1,0,0,1,1-1H41l-1,2Z" fill="#e6e9ed"/>
        </g>
        <g id="Grupo_1206842" data-name="Grupo 1206842">
          <path id="Trazado_1049746" data-name="Trazado 1049746" d="M36,5v6a1,1,0,0,1-1,1H32v2.59a1.414,1.414,0,0,1-2.41,1L26,12H21l-.17-.34A5.024,5.024,0,0,0,24,7a4.941,4.941,0,0,0-1-3H35A1,1,0,0,1,36,5Z" fill="#e6e9ed"/>
        </g>
        <g id="Grupo_1206843" data-name="Grupo 1206843">
          <path id="Trazado_1049747" data-name="Trazado 1049747" d="M19,12H13a1.34,1.34,0,0,1-.2-.01L12,16h-.91a3.087,3.087,0,0,0-1.38,5.85L12,23v5L7.24,26.22A5.012,5.012,0,0,1,4,21.53V20l-.95-1.43A6.162,6.162,0,0,1,2,15.1v-.06a6.1,6.1,0,0,1,2.43-4.87l.25-.18A5.374,5.374,0,0,1,9.37,2H19a5.022,5.022,0,0,1,3.54,1.46A4.691,4.691,0,0,1,23,4a4.941,4.941,0,0,1,1,3,5.024,5.024,0,0,1-3.17,4.66A5.083,5.083,0,0,1,19,12Z" fill="#b27946"/>
        </g>
        <g id="Grupo_1206844" data-name="Grupo 1206844">
          <path id="Trazado_1049748" data-name="Trazado 1049748" d="M9.81,54.19A13,13,0,0,0,22,57.65V62H8V51.93h.01A12.678,12.678,0,0,0,9.81,54.19Z" fill="#fcd770"/>
        </g>
        <g id="Grupo_1206845" data-name="Grupo 1206845">
          <path id="Trazado_1049749" data-name="Trazado 1049749" d="M16,41l6,2v6.65a5.769,5.769,0,0,0,2.24-1.41A5.944,5.944,0,0,0,26,44h6v1A13,13,0,0,1,9.81,54.19a12.678,12.678,0,0,1-1.8-2.26A12.894,12.894,0,0,1,6,45V41.71A10.855,10.855,0,0,1,12,32v5l4,.89Z" fill="#fcd770"/>
        </g>
        <g id="Grupo_1206846" data-name="Grupo 1206846">
          <path id="Trazado_1049750" data-name="Trazado 1049750" d="M22,43l-6-2V37.89l5.26,1.17A11.254,11.254,0,0,1,22,43Z" fill="#ffc729"/>
        </g>
        <g id="Grupo_1206847" data-name="Grupo 1206847">
          <path id="Trazado_1049751" data-name="Trazado 1049751" d="M18,34.51l1.13,1.09a11.306,11.306,0,0,1,2.13,3.46L16,37.89,12,37V32a11.13,11.13,0,0,1,6,2.51Z" fill="#ffc729"/>
        </g>
        <g id="Grupo_1206848" data-name="Grupo 1206848">
          <path id="Trazado_1049752" data-name="Trazado 1049752" d="M56,55.21V62H44A13.991,13.991,0,0,0,56,55.21Z" fill="#b4dd7f"/>
        </g>
        <g id="Grupo_1206849" data-name="Grupo 1206849">
          <path id="Trazado_1049753" data-name="Trazado 1049753" d="M46,55.65V49a1,1,0,0,0-1-1H42V43l6-2V37.89L52,37V32a10.843,10.843,0,0,1,6,9.71V48A14,14,0,0,1,44,62H42V56h2a6.043,6.043,0,0,0,2-.34Z" fill="#b4dd7f"/>
        </g>
        <g id="Grupo_1206850" data-name="Grupo 1206850">
          <path id="Trazado_1049754" data-name="Trazado 1049754" d="M38,56.17V49a1,1,0,0,1,1-1h6a1,1,0,0,1,1,1v6.66A6.043,6.043,0,0,1,44,56H39a2.772,2.772,0,0,0-1,.18Z" fill="#e6e9ed"/>
        </g>
        <g id="Grupo_1206851" data-name="Grupo 1206851">
          <path id="Trazado_1049755" data-name="Trazado 1049755" d="M48,37.89V41l-6,2a11.254,11.254,0,0,1,.74-3.94Z" fill="#a0d468"/>
        </g>
        <g id="Grupo_1206852" data-name="Grupo 1206852">
          <path id="Trazado_1049756" data-name="Trazado 1049756" d="M52,32v5l-4,.89-5.26,1.17A11.087,11.087,0,0,1,52,32Z" fill="#a0d468"/>
        </g>
        <g id="Grupo_1206853" data-name="Grupo 1206853">
          <path id="Trazado_1049757" data-name="Trazado 1049757" d="M51.2,11.99A1.34,1.34,0,0,1,51,12H45a5.083,5.083,0,0,1-1.83-.34A5,5,0,0,1,45,2h4.02a12.984,12.984,0,0,1,5.81,24.59L52,28V23l2.29-1.15A3.087,3.087,0,0,0,52.91,16H52Z" fill="#656d78"/>
        </g>
        <g id="Grupo_1206854" data-name="Grupo 1206854">
          <path id="Trazado_1049758" data-name="Trazado 1049758" d="M22,24a4,4,0,0,1-4,4v6.51A11.13,11.13,0,0,0,12,32V23L9.71,21.85A3.087,3.087,0,0,1,11.09,16H12l.8-4.01A1.34,1.34,0,0,0,13,12h6a5.083,5.083,0,0,0,1.83-.34L21,12l3,6-2,1Z" fill="#f0d0b4"/>
        </g>
        <g id="Grupo_1206855" data-name="Grupo 1206855">
          <path id="Trazado_1049759" data-name="Trazado 1049759" d="M32,41v3H26V41a3,3,0,0,1,6,0Z" fill="#f0d0b4"/>
        </g>
        <g id="Grupo_1206856" data-name="Grupo 1206856">
          <path id="Trazado_1049760" data-name="Trazado 1049760" d="M42,56v6H39a3,3,0,0,1-2.12-5.12,2.838,2.838,0,0,1,1.12-.7A2.772,2.772,0,0,1,39,56Z" fill="#f0d0b4"/>
        </g>
        <g id="Grupo_1206857" data-name="Grupo 1206857">
          <path id="Trazado_1049761" data-name="Trazado 1049761" d="M52,28v4a11.13,11.13,0,0,0-6,2.51V28a4,4,0,0,1-4-4V19l-2-1,1-2,2.17-4.34A5.083,5.083,0,0,0,45,12h6a1.34,1.34,0,0,0,.2-.01L52,16h.91a3.087,3.087,0,0,1,1.38,5.85L52,23Z" fill="#f0d0b4"/>
        </g>
      </g>
      <g id="Grupo_1206859" data-name="Grupo 1206859">
        <circle id="Elipse_12962" data-name="Elipse 12962" cx="1" cy="1" r="1" transform="translate(18 15)"/>
        <circle id="Elipse_12963" data-name="Elipse 12963" cx="1" cy="1" r="1" transform="translate(44 15)"/>
        <path id="Trazado_1049762" data-name="Trazado 1049762" d="M55.272,27.482A13.979,13.979,0,0,0,49.021,1H45a5.994,5.994,0,0,0-3.163,11.09L40.382,15H32.958A2.352,2.352,0,0,0,33,14.586V13h2a2,2,0,0,0,2-2V5a2,2,0,0,0-2-2H23.46A5.983,5.983,0,0,0,19,1H9.373A6.335,6.335,0,0,0,3.456,9.695,7.15,7.15,0,0,0,1,15.1a7.232,7.232,0,0,0,1.214,4.022L3,20.3v1.232a6.027,6.027,0,0,0,3.893,5.618L11,28.693v2.713a11.781,11.781,0,0,0-6,10.3V45a13.894,13.894,0,0,0,2,7.174V63H57V55.452A14.89,14.89,0,0,0,59,48V41.708a11.782,11.782,0,0,0-6-10.3V28.618ZM45,3h4.021a11.979,11.979,0,0,1,5.357,22.693L53,26.382V23.618l1.739-.87A4.09,4.09,0,0,0,52.91,15h-.09l-.451-2.253A3.992,3.992,0,0,0,51.015,5H51l.014,2h0A1.987,1.987,0,0,1,53,8.985a2.011,2.011,0,0,1-.586,1.429A1.975,1.975,0,0,1,51,11H45a4,4,0,0,1,0-8Zm0,51.9a5,5,0,0,1-1,.1H39V49h6ZM39,47a2,2,0,0,0-2,2v6.556A3.936,3.936,0,0,0,35.556,61H23V58.41A14.02,14.02,0,0,0,33,45V41a4,4,0,0,0-8,0v3a4.994,4.994,0,0,1-2,4V43.05a12.066,12.066,0,0,0-4-9V28.9A5.009,5.009,0,0,0,23,24V19.618l2-1V23a2,2,0,0,0,2,2h4.586l3.292,3.292A2.414,2.414,0,0,0,39,26.586V25h2.1A5.016,5.016,0,0,0,45,28.9v5.15a12.066,12.066,0,0,0-4,9V47Zm-8-4H27V41a2,2,0,0,1,4,0ZM13.619,13H19a6.034,6.034,0,0,0,1.305-.147l2.35,4.7L21,18.382V23h-.764a2.6,2.6,0,0,1-2.342-1.447l-1.789.9A4.6,4.6,0,0,0,20.236,25h.579A3,3,0,0,1,18,27H15v2h2v3.6a12.059,12.059,0,0,0-4-1.461V22.382L10.154,20.96A2.091,2.091,0,0,1,11.09,17h1.73ZM13,33.17a10.056,10.056,0,0,1,6.424,4.455L13,36.2Zm4,5.965,3.5.777a10.08,10.08,0,0,1,.386,1.661L17,40.279Zm26.5.778,3.5-.778v1.144l-3.883,1.295a10.056,10.056,0,0,1,.386-1.661Zm1.073-2.288A10.056,10.056,0,0,1,51,33.17V36.2Zm-.884-24.772A6.034,6.034,0,0,0,45,13H50.38l.8,4h1.73a2.09,2.09,0,0,1,.935,3.959L51,22.382v8.756A12.081,12.081,0,0,0,47,32.6V29h2V27H46a3,3,0,0,1-2.816-2h.579a4.594,4.594,0,0,0,4.131-2.553l-1.789-.9A2.6,2.6,0,0,1,43.764,23H43V18.382l-1.658-.829ZM41,19.618V23H37v3.586a.43.43,0,0,1-.707.293L32.414,23H27V17H39.382l-.724,1.447ZM27,15a2,2,0,0,0-2,2v.764L22.618,13h2.968l2,2ZM35,5v6H31v3.586a.43.43,0,0,1-.707.293L26.414,11H23.46a5.941,5.941,0,0,0,1.19-6ZM7.6,25.28A4.018,4.018,0,0,1,5,21.535V19.7L3.878,18.014A5.284,5.284,0,0,1,3,15.042a5.108,5.108,0,0,1,1.458-3.553l.71,1.065,1.664-1.109L5.734,9.8A4.374,4.374,0,0,1,9.373,3H19a4,4,0,0,1,0,8h0a2,2,0,0,1,0-4V5a4,4,0,0,0-4,4,3.959,3.959,0,0,0,.556,2H13a1.979,1.979,0,0,1-1.41-.585A2.013,2.013,0,0,1,11,8.985,1.985,1.985,0,0,1,12.985,7H13l-.014-2h0A3.986,3.986,0,0,0,9,8.985a4,4,0,0,0,1.168,2.84,3.952,3.952,0,0,0,1.462.922L11.18,15h-.09a4.09,4.09,0,0,0-1.829,7.748l1.739.87v2.939ZM7,41.708a9.788,9.788,0,0,1,4-7.925V37.8l4,.889v3.03l6,2V48.9A5,5,0,0,1,15,44V43H13v1a7,7,0,0,0,13.92,1H31A12,12,0,0,1,7,45ZM9,54.779A13.737,13.737,0,0,0,21,58.84V61H9ZM37,59a2,2,0,0,1,2-2h2v4H39A2,2,0,0,1,37,59Zm18,2H51.452A15.079,15.079,0,0,0,55,58.164Zm2-19.292V48A13.015,13.015,0,0,1,44,61H43V57h1a7.009,7.009,0,0,0,7-7V45H49v5a4.977,4.977,0,0,1-2,3.974V49a2,2,0,0,0-2-2H43V43.72l6-2V38.69l4-.889V33.782A9.791,9.791,0,0,1,57,41.708Z"/>
        <path id="Trazado_1049763" data-name="Trazado 1049763" d="M27,7h2V9H27Z"/>
        <path id="Trazado_1049764" data-name="Trazado 1049764" d="M31,7h2V9H31Z"/>
        <path id="Trazado_1049765" data-name="Trazado 1049765" d="M29,19h2v2H29Z"/>
        <path id="Trazado_1049766" data-name="Trazado 1049766" d="M33,19h2v2H33Z"/>
        <path id="Trazado_1049767" data-name="Trazado 1049767" d="M37,19h2v2H37Z"/>
      </g>
    </g>
  </g>
</svg>
