<svg xmlns="http://www.w3.org/2000/svg" xmlns:xlink="http://www.w3.org/1999/xlink" width="113" height="113" viewBox="0 0 113 113">
  <defs>
    <filter id="Trazado_982547" x="0" y="0" width="113" height="113" filterUnits="userSpaceOnUse">
      <feOffset dy="3" input="SourceAlpha"/>
      <feGaussianBlur stdDeviation="3" result="blur"/>
      <feFlood flood-opacity="0.161"/>
      <feComposite operator="in" in2="blur"/>
      <feComposite in="SourceGraphic"/>
    </filter>
  </defs>
  <g id="Grupo_1202141" data-name="Grupo 1202141" transform="translate(9 6)">
    <g id="Grupo_1176928" data-name="Grupo 1176928" transform="translate(0 0)">
      <g id="Grupo_1172322" data-name="Grupo 1172322">
        <g id="Grupo_1164700" data-name="Grupo 1164700">
          <g id="Grupo_1160931" data-name="Grupo 1160931">
            <g id="Grupo_1160749" data-name="Grupo 1160749">
              <g id="Grupo_1158891" data-name="Grupo 1158891">
                <g id="Grupo_1157406" data-name="Grupo 1157406">
                  <g id="Grupo_1155793" data-name="Grupo 1155793">
                    <g id="Grupo_1154704" data-name="Grupo 1154704">
                      <g id="Grupo_1150790" data-name="Grupo 1150790">
                        <g id="Grupo_1154214" data-name="Grupo 1154214">
                          <g id="Grupo_1152583" data-name="Grupo 1152583">
                            <g id="Grupo_1146973" data-name="Grupo 1146973">
                              <g id="Grupo_1146954" data-name="Grupo 1146954">
                                <g transform="matrix(1, 0, 0, 1, -9, -6)" filter="url(#Trazado_982547)">
                                  <g id="Trazado_982547-2" data-name="Trazado 982547" transform="translate(9 6)" fill="#ebe9f0">
                                    <path d="M 47.50001525878906 93.49988555908203 C 41.28938674926758 93.49988555908203 35.26533508300781 92.28385925292969 29.59520149230957 89.88558959960938 C 24.11772155761719 87.56883239746094 19.19814872741699 84.25184631347656 14.97309494018555 80.02680206298828 C 10.74805545806885 75.80178070068359 7.431081771850586 70.88219451904297 5.11430835723877 65.40472412109375 C 2.716042041778564 59.73459243774414 1.500015258789062 53.71055221557617 1.500015258789062 47.49993896484375 C 1.500015258789062 41.28932571411133 2.716042041778564 35.26528549194336 5.11430835723877 29.59515190124512 C 7.431081771850586 24.11768531799316 10.74805545806885 19.19811248779297 14.97309494018555 14.97307205200195 C 19.19814872741699 10.74803256988525 24.11772155761719 7.431058883666992 29.59520149230957 5.114285469055176 C 35.26533508300781 2.716032266616821 41.28938674926758 1.500005602836609 47.50001525878906 1.500005602836609 C 53.71064376831055 1.500005602836609 59.73469543457031 2.716032266616821 65.40483856201172 5.114285469055176 C 70.88230895996094 7.431058883666992 75.80189514160156 10.74803256988525 80.02693176269531 14.97307205200195 C 84.25199127197266 19.19811248779297 87.56896209716797 24.11768531799316 89.88573455810547 29.59515190124512 C 92.28400421142578 35.26528549194336 93.50003051757812 41.28932571411133 93.50003051757812 47.49993896484375 C 93.50003051757812 53.71055221557617 92.28400421142578 59.73459243774414 89.88573455810547 65.40472412109375 C 87.56896209716797 70.88219451904297 84.25199127197266 75.80176544189453 80.02693176269531 80.02680206298828 C 75.80189514160156 84.25184631347656 70.88230895996094 87.56881713867188 65.40483856201172 89.88558959960938 C 59.73469543457031 92.28385925292969 53.71064376831055 93.49988555908203 47.50001525878906 93.49988555908203 Z" stroke="none"/>
                                    <path d="M 47.50001525878906 3 C 41.49123001098633 3 35.66378402709961 4.176155090332031 30.17951965332031 6.495803833007812 C 24.88084411621094 8.7369384765625 20.12152099609375 11.94596862792969 16.03375244140625 16.03373718261719 C 11.94598388671875 20.12149047851562 8.736953735351562 24.88081359863281 6.495796203613281 30.17947387695312 C 4.176155090332031 35.66372299194336 3 41.49116897583008 3 47.49993896484375 C 3 53.50870895385742 4.176155090332031 59.33615493774414 6.495796203613281 64.82040405273438 C 8.736953735351562 70.11906433105469 11.94598388671875 74.87838745117188 16.03375244140625 78.96614074707031 C 20.12152099609375 83.05390930175781 24.88084411621094 86.262939453125 30.17951965332031 88.50407409667969 C 35.66378402709961 90.82372283935547 41.49123001098633 91.9998779296875 47.50001525878906 91.9998779296875 C 53.5088005065918 91.9998779296875 59.33624649047852 90.82372283935547 64.82051086425781 88.50407409667969 C 70.11917114257812 86.262939453125 74.87849426269531 83.05390930175781 78.96626281738281 78.96614074707031 C 83.05404663085938 74.87838745117188 86.2630615234375 70.11906433105469 88.50421142578125 64.82040405273438 C 90.82386016845703 59.33615493774414 92.00001525878906 53.50870895385742 92.00001525878906 47.49993896484375 C 92.00001525878906 41.49116897583008 90.82386016845703 35.66372299194336 88.50421142578125 30.17947387695312 C 86.2630615234375 24.88081359863281 83.05404663085938 20.12149047851562 78.96626281738281 16.03373718261719 C 74.87849426269531 11.94596862792969 70.11917114257812 8.7369384765625 64.82051086425781 6.495803833007812 C 59.33624649047852 4.176155090332031 53.5088005065918 3 47.50001525878906 3 M 47.50001525878906 0 C 73.73353576660156 0 95.00001525878906 21.26644897460938 95.00001525878906 47.49993896484375 C 95.00001525878906 73.73342895507812 73.73353576660156 94.9998779296875 47.50001525878906 94.9998779296875 C 21.26649475097656 94.9998779296875 0 73.73342895507812 0 47.49993896484375 C 0 21.26644897460938 21.26649475097656 0 47.50001525878906 0 Z" stroke="none" fill="#453179"/>
                                  </g>
                                </g>
                              </g>
                            </g>
                          </g>
                        </g>
                      </g>
                    </g>
                  </g>
                </g>
              </g>
            </g>
          </g>
        </g>
      </g>
    </g>
    <g id="talk_3242384" transform="translate(18.383 18.082)">
      <path id="Trazado_1049768" data-name="Trazado 1049768" d="M18.616,20.463,27.848,26,26,20.463a3.693,3.693,0,0,0,3.693-3.693V5.693A3.693,3.693,0,0,0,26,2H5.693A3.693,3.693,0,0,0,2,5.693V16.77a3.693,3.693,0,0,0,3.693,3.693Z" transform="translate(-0.077 -0.077)" fill="#e7e4dd"/>
      <path id="Trazado_1049769" data-name="Trazado 1049769" d="M48.616,50h6.462a4.616,4.616,0,0,1,4.616,4.616v6.462H32V54.616A4.616,4.616,0,0,1,36.616,50h6.462" transform="translate(-2.383 -3.767)" fill="#c66b60"/>
      <path id="Trazado_1049770" data-name="Trazado 1049770" d="M53.2,50H36.616A4.616,4.616,0,0,0,32,54.616v6.462H48.235A20.278,20.278,0,0,0,53.2,50Z" transform="translate(-2.383 -3.767)" fill="#e47c6e"/>
      <path id="Trazado_1049771" data-name="Trazado 1049771" d="M13.078,50H6.616A4.616,4.616,0,0,0,2,54.616v6.462H29.694V54.616A4.616,4.616,0,0,0,25.078,50H18.616" transform="translate(-0.077 -3.767)" fill="#669e4f"/>
      <path id="Trazado_1049772" data-name="Trazado 1049772" d="M23.664,50H6.616A4.616,4.616,0,0,0,2,54.616v6.462H19.424A20.971,20.971,0,0,0,23.664,50Z" transform="translate(-0.077 -3.767)" fill="#78b75b"/>
      <path id="Trazado_1049773" data-name="Trazado 1049773" d="M44,47v2.769a2.769,2.769,0,1,0,5.539,0V47" transform="translate(-3.305 -3.536)" fill="#f5cf88"/>
      <path id="Trazado_1049774" data-name="Trazado 1049774" d="M40,33H52.924v9.231a3.693,3.693,0,0,1-3.693,3.693H43.693A3.693,3.693,0,0,1,40,42.231Z" transform="translate(-2.998 -2.46)" fill="#fadfb2"/>
      <path id="Trazado_1049775" data-name="Trazado 1049775" d="M39.693,37H37.846a1.846,1.846,0,0,0,0,3.693h1.846" transform="translate(-2.69 -2.767)" fill="#fadfb2"/>
      <path id="Trazado_1049776" data-name="Trazado 1049776" d="M54,37h1.846a1.846,1.846,0,0,1,0,3.693H54" transform="translate(-4.074 -2.767)" fill="#fadfb2"/>
      <path id="Trazado_1049777" data-name="Trazado 1049777" d="M19.539,47v2.769a2.769,2.769,0,1,1-5.539,0V47" transform="translate(-0.999 -3.536)" fill="#f5cf88"/>
      <path id="Trazado_1049778" data-name="Trazado 1049778" d="M22.924,33v9.231a3.693,3.693,0,0,1-3.693,3.693H13.693A3.693,3.693,0,0,1,10,42.231V33l3.693,2.769L14.616,33l3.693,2.769V33l2.769,2.769Z" transform="translate(-0.692 -2.46)" fill="#fadfb2"/>
      <path id="Trazado_1049779" data-name="Trazado 1049779" d="M9.693,37H7.846a1.846,1.846,0,1,0,0,3.693H9.693" transform="translate(-0.384 -2.767)" fill="#fadfb2"/>
      <path id="Trazado_1049780" data-name="Trazado 1049780" d="M24,37h1.846a1.846,1.846,0,1,1,0,3.693H24" transform="translate(-1.768 -2.767)" fill="#fadfb2"/>
      <path id="Trazado_1049781" data-name="Trazado 1049781" d="M22.924,32.539A5.539,5.539,0,0,0,17.385,27H15.539A5.539,5.539,0,0,0,10,32.539l3.693,2.769.923-2.769,3.693,2.769V32.539l2.769,2.769Z" transform="translate(-0.692 -1.999)" fill="#976947"/>
      <path id="Trazado_1049782" data-name="Trazado 1049782" d="M47.385,25h9.231v3.693a3.693,3.693,0,0,1-3.693,3.693H40A7.385,7.385,0,0,1,47.385,25Z" transform="translate(-2.998 -1.845)" fill="#976947"/>
      <path id="Trazado_1049783" data-name="Trazado 1049783" d="M47.078,17.924l-9.231,5.539,1.846-5.539A3.693,3.693,0,0,1,36,14.231V8.693A3.693,3.693,0,0,1,39.693,5H50.77a3.693,3.693,0,0,1,3.693,3.693v5.539a3.693,3.693,0,0,1-3.693,3.693Z" transform="translate(-2.69 -0.307)" fill="#e7e4dd"/>
      <path id="Trazado_1049784" data-name="Trazado 1049784" d="M7,58H8.844v3.692H7Z" transform="translate(-0.461 -4.381)" fill="#669e4f"/>
      <path id="Trazado_1049785" data-name="Trazado 1049785" d="M25,58h1.845v3.692H25Z" transform="translate(-1.845 -4.381)" fill="#78b75b"/>
      <path id="Trazado_1049786" data-name="Trazado 1049786" d="M37,58h1.845v3.692H37Z" transform="translate(-2.767 -4.381)" fill="#c66b60"/>
      <path id="Trazado_1049787" data-name="Trazado 1049787" d="M55,58h1.845v3.692H55Z" transform="translate(-4.151 -4.381)" fill="#e47c6e"/>
      <g id="Grupo_1206861" data-name="Grupo 1206861" transform="translate(7.462 12.078)">
        <path id="Trazado_1049788" data-name="Trazado 1049788" d="M9.385,15.769a1.385,1.385,0,1,1,1.385-1.385A1.385,1.385,0,0,1,9.385,15.769Z" transform="translate(-8 -13)" fill="#d5cec2"/>
        <path id="Trazado_1049789" data-name="Trazado 1049789" d="M14.385,15.769a1.385,1.385,0,1,1,1.385-1.385A1.385,1.385,0,0,1,14.385,15.769Z" transform="translate(-8.384 -13)" fill="#d5cec2"/>
        <path id="Trazado_1049790" data-name="Trazado 1049790" d="M19.385,15.769a1.385,1.385,0,1,1,1.385-1.385A1.385,1.385,0,0,1,19.385,15.769Z" transform="translate(-8.769 -13)" fill="#d5cec2"/>
        <path id="Trazado_1049791" data-name="Trazado 1049791" d="M24.385,15.769a1.385,1.385,0,1,1,1.385-1.385A1.385,1.385,0,0,1,24.385,15.769Z" transform="translate(-9.153 -13)" fill="#d5cec2"/>
        <path id="Trazado_1049792" data-name="Trazado 1049792" d="M40.385,15.769a1.385,1.385,0,1,1,1.385-1.385A1.385,1.385,0,0,1,40.385,15.769Z" transform="translate(-10.383 -13)" fill="#d5cec2"/>
        <path id="Trazado_1049793" data-name="Trazado 1049793" d="M45.385,15.769a1.385,1.385,0,1,1,1.385-1.385A1.385,1.385,0,0,1,45.385,15.769Z" transform="translate(-10.767 -13)" fill="#d5cec2"/>
        <path id="Trazado_1049794" data-name="Trazado 1049794" d="M50.385,15.769a1.385,1.385,0,1,1,1.385-1.385A1.385,1.385,0,0,1,50.385,15.769Z" transform="translate(-11.152 -13)" fill="#d5cec2"/>
      </g>
      <path id="Trazado_1049795" data-name="Trazado 1049795" d="M58.234,52.617A5.544,5.544,0,0,0,52.7,47.078H47.157V46.063a4.622,4.622,0,0,0,3.693-4.523v-.923h.923a2.769,2.769,0,0,0,0-5.539h-.923V33.139a4.621,4.621,0,0,0,3.693-4.523V24.923A.923.923,0,0,0,53.618,24H44.387a8.316,8.316,0,0,0-8.308,8.308v2.769h-.923a2.769,2.769,0,1,0,0,5.539h.923v.923a4.622,4.622,0,0,0,3.693,4.523v1.015H34.233a5.539,5.539,0,0,0-4.616,2.483A5.539,5.539,0,0,0,25,47.078H19.463V46.063a4.622,4.622,0,0,0,3.693-4.523v-.923h.923a2.769,2.769,0,1,0,0-5.539h-.923V32.308a6.471,6.471,0,0,0-6.462-6.462H14.847a6.462,6.462,0,0,0-6.462,6.462v2.769H7.462a2.769,2.769,0,1,0,0,5.539h.923v.923a4.622,4.622,0,0,0,3.693,4.523v1.015H6.539A5.544,5.544,0,0,0,1,52.617v6.462A.923.923,0,0,0,1.923,60H57.311a.923.923,0,0,0,.923-.923ZM41.618,46.155H45.31V48a1.846,1.846,0,0,1-3.693,0Zm10.154-9.231a.923.923,0,0,1,0,1.846h-.923V36.924ZM44.387,25.846H52.7v2.769a2.769,2.769,0,0,1-2.769,2.769H37.989a6.473,6.473,0,0,1,6.4-5.539ZM35.156,38.77a.923.923,0,0,1,0-1.846h.923V38.77Zm2.769,2.769V33.231H49v8.308a2.769,2.769,0,0,1-2.769,2.769H40.695A2.769,2.769,0,0,1,37.925,41.539Zm-24,4.616h3.693V48a1.846,1.846,0,0,1-3.693,0Zm10.154-9.231a.923.923,0,1,1,0,1.846h-.923V36.924Zm-12.5-7.881a4.586,4.586,0,0,1,3.265-1.351h1.846a4.609,4.609,0,0,1,4.591,4.372l-1.042,1.564-1.974-1.974a.923.923,0,0,0-1.575.654v.923L14.478,31.57a.935.935,0,0,0-.831-.142.923.923,0,0,0-.6.59l-.519,1.554-2.255-1.692a4.559,4.559,0,0,1,1.309-2.836ZM7.462,38.77a.923.923,0,0,1,0-1.846h.923V38.77Zm2.769,2.769V34.154l2.216,1.662a.923.923,0,0,0,1.43-.448l.519-1.554,2.667,2a.923.923,0,0,0,1.477-.739v-.541l1.194,1.194a.941.941,0,0,0,.744.266.923.923,0,0,0,.677-.406l.155-.235v6.185a2.769,2.769,0,0,1-2.769,2.769H13a2.769,2.769,0,0,1-2.769-2.769ZM2.846,52.617a3.693,3.693,0,0,1,3.693-3.693h5.67a3.674,3.674,0,0,0,7.122,0H25a3.693,3.693,0,0,1,3.693,3.693v5.539H25V55.386H23.155v2.769H8.385V55.386H6.539v2.769H2.846ZM52.7,58.156V55.386H50.849v2.769H36.079V55.386H34.233v2.769H30.54V52.617a3.693,3.693,0,0,1,3.693-3.693H39.9a3.674,3.674,0,0,0,7.122,0H52.7a3.693,3.693,0,0,1,3.693,3.693v5.539Z" transform="translate(0 -1.768)"/>
      <path id="Trazado_1049796" data-name="Trazado 1049796" d="M5.616,21.309H18.283l9.012,5.408a.923.923,0,0,0,1.351-1.083L27.15,21.145a4.616,4.616,0,0,0,3.39-4.452V5.616A4.616,4.616,0,0,0,25.925,1H5.616A4.616,4.616,0,0,0,1,5.616V16.693a4.616,4.616,0,0,0,4.616,4.616ZM2.846,5.616A2.769,2.769,0,0,1,5.616,2.846H25.925a2.769,2.769,0,0,1,2.769,2.769V16.693a2.769,2.769,0,0,1-2.769,2.769.923.923,0,0,0-.876,1.215l1.061,3.17-7.091-4.255a.923.923,0,0,0-.478-.13H5.616a2.769,2.769,0,0,1-2.769-2.769Z" transform="translate(0)"/>
      <path id="Trazado_1049797" data-name="Trazado 1049797" d="M38.39,18.6l-1.5,4.49a.923.923,0,0,0,1.351,1.083l9.012-5.407h3.438a4.621,4.621,0,0,0,4.616-4.616V8.616A4.62,4.62,0,0,0,50.693,4H39.616A4.616,4.616,0,0,0,35,8.616v5.539A4.623,4.623,0,0,0,38.39,18.6ZM36.846,8.616a2.769,2.769,0,0,1,2.769-2.769H50.693a2.769,2.769,0,0,1,2.769,2.769v5.539a2.769,2.769,0,0,1-2.769,2.769H47a.923.923,0,0,0-.475.131l-7.094,4.256,1.056-3.173a.923.923,0,0,0-.871-1.214,2.769,2.769,0,0,1-2.769-2.769Z" transform="translate(-2.614 -0.231)"/>
      <path id="Trazado_1049798" data-name="Trazado 1049798" d="M9.385,15.769A1.385,1.385,0,1,0,8,14.385,1.385,1.385,0,0,0,9.385,15.769Z" transform="translate(-0.538 -0.922)"/>
      <path id="Trazado_1049799" data-name="Trazado 1049799" d="M14.385,15.769A1.385,1.385,0,1,0,13,14.385,1.385,1.385,0,0,0,14.385,15.769Z" transform="translate(-0.922 -0.922)"/>
      <path id="Trazado_1049800" data-name="Trazado 1049800" d="M19.385,15.769A1.385,1.385,0,1,0,18,14.385,1.385,1.385,0,0,0,19.385,15.769Z" transform="translate(-1.307 -0.922)"/>
      <path id="Trazado_1049801" data-name="Trazado 1049801" d="M24.385,15.769A1.385,1.385,0,1,0,23,14.385,1.385,1.385,0,0,0,24.385,15.769Z" transform="translate(-1.691 -0.922)"/>
      <path id="Trazado_1049802" data-name="Trazado 1049802" d="M40.385,15.769A1.385,1.385,0,1,0,39,14.385,1.385,1.385,0,0,0,40.385,15.769Z" transform="translate(-2.921 -0.922)"/>
      <path id="Trazado_1049803" data-name="Trazado 1049803" d="M45.385,15.769A1.385,1.385,0,1,0,44,14.385,1.385,1.385,0,0,0,45.385,15.769Z" transform="translate(-3.305 -0.922)"/>
      <path id="Trazado_1049804" data-name="Trazado 1049804" d="M50.385,15.769A1.385,1.385,0,1,0,49,14.385,1.385,1.385,0,0,0,50.385,15.769Z" transform="translate(-3.69 -0.922)"/>
    </g>
  </g>
</svg>
