<svg xmlns="http://www.w3.org/2000/svg" xmlns:xlink="http://www.w3.org/1999/xlink" width="113" height="113" viewBox="0 0 113 113">
  <defs>
    <filter id="Trazado_982547" x="0" y="0" width="113" height="113" filterUnits="userSpaceOnUse">
      <feOffset dy="3" input="SourceAlpha"/>
      <feGaussianBlur stdDeviation="3" result="blur"/>
      <feFlood flood-opacity="0.161"/>
      <feComposite operator="in" in2="blur"/>
      <feComposite in="SourceGraphic"/>
    </filter>
  </defs>
  <g id="Grupo_1206600" data-name="Grupo 1206600" transform="translate(9 6)">
    <g id="Grupo_1201923" data-name="Grupo 1201923" transform="translate(0 0)">
      <g id="Grupo_1176928" data-name="Grupo 1176928">
        <g id="Grupo_1172322" data-name="Grupo 1172322">
          <g id="Grupo_1164700" data-name="Grupo 1164700">
            <g id="Grupo_1160931" data-name="Grupo 1160931">
              <g id="Grupo_1160749" data-name="Grupo 1160749">
                <g id="Grupo_1158891" data-name="Grupo 1158891">
                  <g id="Grupo_1157406" data-name="Grupo 1157406">
                    <g id="Grupo_1155793" data-name="Grupo 1155793">
                      <g id="Grupo_1154704" data-name="Grupo 1154704">
                        <g id="Grupo_1150790" data-name="Grupo 1150790">
                          <g id="Grupo_1154214" data-name="Grupo 1154214">
                            <g id="Grupo_1152583" data-name="Grupo 1152583">
                              <g id="Grupo_1146973" data-name="Grupo 1146973">
                                <g id="Grupo_1146954" data-name="Grupo 1146954">
                                  <g transform="matrix(1, 0, 0, 1, -9, -6)" filter="url(#Trazado_982547)">
                                    <g id="Trazado_982547-2" data-name="Trazado 982547" transform="translate(9 6)" fill="#fdfbec">
                                      <path d="M 47.5000114440918 93.49987030029297 C 41.28938293457031 93.49987030029297 35.26534652709961 92.28384399414062 29.5951976776123 89.88558959960938 C 24.11773109436035 87.56881713867188 19.19814491271973 84.25183868408203 14.97310447692871 80.02680206298828 C 10.74805164337158 75.80176544189453 7.43107795715332 70.88218688964844 5.114304542541504 65.40472412109375 C 2.716038227081299 59.73458862304688 1.500011444091797 53.71054840087891 1.500011444091797 47.49993515014648 C 1.500011444091797 41.28932189941406 2.716038227081299 35.26528167724609 5.114304542541504 29.59514808654785 C 7.43107795715332 24.1176815032959 10.74805164337158 19.1981086730957 14.97310447692871 14.97306823730469 C 19.19814491271973 10.74802875518799 24.11773109436035 7.431055068969727 29.5951976776123 5.11428165435791 C 35.26534652709961 2.716028451919556 41.28938293457031 1.500001788139343 47.5000114440918 1.500001788139343 C 53.71063995361328 1.500001788139343 59.73467636108398 2.716028451919556 65.40482330322266 5.11428165435791 C 70.88229370117188 7.431055068969727 75.8018798828125 10.74802875518799 80.02691650390625 14.97306823730469 C 84.25196838378906 19.1981086730957 87.56894683837891 24.1176815032959 89.88571929931641 29.59514808654785 C 92.28398132324219 35.26528167724609 93.50001525878906 41.28932189941406 93.50001525878906 47.49993515014648 C 93.50001525878906 53.71054840087891 92.28398132324219 59.73458862304688 89.88571929931641 65.40472412109375 C 87.56894683837891 70.88218688964844 84.25196838378906 75.80176544189453 80.02691650390625 80.02680206298828 C 75.8018798828125 84.25183868408203 70.88229370117188 87.56881713867188 65.40482330322266 89.88558959960938 C 59.73467636108398 92.28384399414062 53.71063995361328 93.49987030029297 47.5000114440918 93.49987030029297 Z" stroke="none"/>
                                      <path d="M 47.5000114440918 3 C 41.49122619628906 3 35.66378021240234 4.1761474609375 30.17951965332031 6.495796203613281 C 24.880859375 8.7369384765625 20.12153625488281 11.94596862792969 16.03376770019531 16.03373718261719 C 11.94598388671875 20.12149047851562 8.736968994140625 24.88081359863281 6.495811462402344 30.17947387695312 C 4.176162719726562 35.66371917724609 3.000007629394531 41.49116516113281 3.000007629394531 47.49993515014648 C 3.000007629394531 53.50870513916016 4.176162719726562 59.33615112304688 6.495811462402344 64.82039642333984 C 8.736968994140625 70.11905670166016 11.94598388671875 74.87837982177734 16.03376770019531 78.96613311767578 C 20.12153625488281 83.05390167236328 24.880859375 86.26293182373047 30.17951965332031 88.50407409667969 C 35.66378021240234 90.82372283935547 41.49122619628906 91.99987030029297 47.5000114440918 91.99987030029297 C 53.50879669189453 91.99987030029297 59.33624267578125 90.82372283935547 64.82050323486328 88.50407409667969 C 70.11916351318359 86.26293182373047 74.87848663330078 83.05390167236328 78.96625518798828 78.96613311767578 C 83.05403900146484 74.87837982177734 86.2630615234375 70.11905670166016 88.50421142578125 64.82039642333984 C 90.82386016845703 59.33615112304688 92.00001525878906 53.50870513916016 92.00001525878906 47.49993515014648 C 92.00001525878906 41.49116516113281 90.82386016845703 35.66371917724609 88.50421142578125 30.17947387695312 C 86.2630615234375 24.88081359863281 83.05403900146484 20.12149047851562 78.96625518798828 16.03373718261719 C 74.87848663330078 11.94596862792969 70.11916351318359 8.7369384765625 64.82050323486328 6.495796203613281 C 59.33624267578125 4.1761474609375 53.50879669189453 3 47.5000114440918 3 M 47.5000114440918 0 C 73.73353576660156 0 95.00001525878906 21.26644134521484 95.00001525878906 47.49993515014648 C 95.00001525878906 73.73342895507812 73.73353576660156 94.99987030029297 47.5000114440918 94.99987030029297 C 21.26648712158203 94.99987030029297 7.62939453125e-06 73.73342895507812 7.62939453125e-06 47.49993515014648 C 7.62939453125e-06 21.26644134521484 21.26648712158203 0 47.5000114440918 0 Z" stroke="none" fill="#83793c"/>
                                    </g>
                                  </g>
                                </g>
                              </g>
                            </g>
                          </g>
                        </g>
                      </g>
                    </g>
                  </g>
                </g>
              </g>
            </g>
          </g>
        </g>
      </g>
    </g>
    <g id="Layer_x0020_1" transform="translate(15.5 16.018)">
      <path id="Trazado_1047509" data-name="Trazado 1047509" d="M82.416,91.456l-1.23-.123a1.531,1.531,0,0,0,1.353,1.722c.861.123,1.6.246,1.722-.246l.492-6.642c.123-.492-.861-.369-1.476-.492a1.557,1.557,0,0,0-1.722,1.476c.738,0,1.968-.123,1.845.861,0,.984-1.23.615-1.968.615l-.123,1.23c.861.123,1.968,0,1.845.984C83.154,91.21,82.908,91.456,82.416,91.456ZM95.454,77.311H91.641a.674.674,0,0,1-.738-.492l-.738-3.2a10.723,10.723,0,0,1-3.813-2.214l-3.321.861a.548.548,0,0,1-.738-.369l-1.968-3.321a.758.758,0,0,1,.123-.861l2.337-2.337a13.377,13.377,0,0,1,0-4.428l-2.337-2.337a.758.758,0,0,1-.123-.861l1.968-3.321a.877.877,0,0,1,.738-.369l3.321.984a10.723,10.723,0,0,1,3.813-2.214l.738-3.321a.831.831,0,0,1,.738-.492h3.813a.831.831,0,0,1,.738.492l.861,3.321a11.907,11.907,0,0,1,3.813,2.214l3.2-.984a1.329,1.329,0,0,1,.861.369l1.845,3.321a.608.608,0,0,1-.123.861l-2.337,2.337a13.377,13.377,0,0,1,0,4.428l2.337,2.337a.608.608,0,0,1,.123.861L104.926,71.9a.72.72,0,0,1-.861.369l-3.2-.861a11.906,11.906,0,0,1-3.813,2.214l-.861,3.2A.674.674,0,0,1,95.454,77.311Zm-3.2-1.476h2.706L95.7,72.76c.246-.861,1.845-.246,4.428-2.706.123-.246.492-.246.738-.246l3.075.861,1.23-2.337c-3.69-3.567-2.214-1.6-2.214-5.166s-1.476-1.6,2.214-5.166l-1.23-2.337-3.075.861c-.984.246-1.353-1.476-4.674-2.46a.529.529,0,0,1-.492-.492L94.962,50.5H92.256L91.4,53.572c-.246.984-1.845.369-4.428,2.829a.541.541,0,0,1-.615.123l-3.075-.861L81.924,58c3.69,3.567,2.214,1.6,2.214,5.166s1.476,1.6-2.214,5.166l1.353,2.337,3.075-.861c.861-.246,1.23,1.476,4.551,2.46.246.123.492.246.492.492Zm1.353-6.027a6.643,6.643,0,1,1,0-13.284,6.642,6.642,0,0,1,0,13.284Zm0-11.808a5.224,5.224,0,0,0-5.289,5.166A5.228,5.228,0,1,0,93.609,58Zm3.2,49.078a10.025,10.025,0,1,1,10.086-10.086A10.107,10.107,0,0,1,96.807,107.078Zm0-18.573a8.549,8.549,0,1,0,8.61,8.487A8.531,8.531,0,0,0,96.807,88.5Zm-3.321,12.546L90.78,98.345a.786.786,0,0,1,1.107-1.107l2.091,2.214,6.519-6.4c.615-.738,1.722.369.984.984l-6.888,7.011A.923.923,0,0,1,93.486,101.051ZM52.158,78.172A5.437,5.437,0,0,1,56.34,76.2H60.4V73.252a12.639,12.639,0,0,1-6.519-9.1c-1.968-4.428-2.337-8.364-.984-11.685.861-2.214.984-.984.984-2.952a2,2,0,0,1,1.845-1.968,1.914,1.914,0,0,1,2.091-1.353,2.059,2.059,0,0,1,2.337-.984,2.1,2.1,0,0,1,2.46-.615,2.036,2.036,0,0,1,2.46-.123,2.014,2.014,0,0,1,2.46.123,2.1,2.1,0,0,1,2.46.615,1.936,1.936,0,0,1,2.337.984,2.152,2.152,0,0,1,2.214,1.353,2.1,2.1,0,0,1,1.845,1.968c0,2.091.123.861.984,3.2,1.23,3.2.984,7.134-.984,11.562-.984,4.182-3.321,7.38-6.519,8.979V76.2h3.936a5.692,5.692,0,0,1,4.305,1.968c2.091-.984.984-1.476,4.674,1.845.738-.246,1.23-.492,1.722-.246a1.748,1.748,0,0,1,.246.738l-.369,3.813c1.23.123,1.968.861,1.845,1.968l-.492,6.765a1.933,1.933,0,0,1-2.337,1.6l-.369,4.92a.817.817,0,0,1-.492.615l-15.006,5.9a3,3,0,0,1-2.46.984,3.052,3.052,0,0,1-2.46-.984l-15.006-5.9a.676.676,0,0,1-.369-.615l-.492-4.92c-1.23,0-2.091-.492-2.214-1.6l-.615-6.765a1.838,1.838,0,0,1,1.845-1.968l-.246-3.813a.773.773,0,0,1,.984-.861l.861.369C51.051,76.7,49.944,77.188,52.158,78.172ZM61.875,76.7v.246a3.054,3.054,0,0,0,3.2,2.337,2.971,2.971,0,0,0,3.2-2.337l.123-3.2a9.874,9.874,0,0,1-6.519,0Zm-1.353.984H56.34a4.3,4.3,0,0,0-2.706.984c4.059,1.353,8.118,1.107,11.439,4.428,3.321-3.321,7.38-3.075,11.562-4.428a4.386,4.386,0,0,0-2.829-.984H69.624C68.394,81.862,61.752,81.862,60.522,77.68Zm4.059,7.011c-3.567-4.305-8.61-2.829-13.9-5.658l-1.722,1.6,13.9,5.166c1.6.615,4.428,0,4.551,0l13.9-5.166-1.845-1.6c-5.289,2.829-10.209,1.353-13.776,5.658A.69.69,0,0,1,64.581,84.691Zm-17.589-3.2.246,2.706a3.061,3.061,0,0,1,2.952,2.829l.369,4.182a3.054,3.054,0,0,1-2.337,3.2l.369,4.551,13.776,5.412-.492-17.343Zm.246,11.562h.369a1.725,1.725,0,0,0,1.476-1.722c-.861.123-1.968.369-2.091-.492-.123-.984,1.107-.861,1.968-.984l-.123-1.23c-.861,0-1.968.369-2.091-.615s1.107-.861,1.968-.861a1.626,1.626,0,0,0-1.722-1.476c-.861.123-1.6,0-1.6.492l.615,6.642C46.007,93.3,46.622,93.178,47.238,93.055ZM63.474,87.4l.369,17.958a2.513,2.513,0,0,0,2.46-.123L66.795,87.4A10.025,10.025,0,0,1,63.474,87.4Zm19.434-3.2.246-2.706L68.271,87.028,67.9,104.495,81.555,98.96l.492-4.551a3.054,3.054,0,0,1-2.337-3.2l.369-4.182A3.042,3.042,0,0,1,82.908,84.2Zm-8-20.3c0-1.968.123-5.535-.492-6.888-1.23-2.829-5.166-1.476-5.166-1.23a2.155,2.155,0,0,1-2.091,2.091c-.246,0-.369-.123-.615-.123a2.083,2.083,0,0,1-2.829,0,2.073,2.073,0,0,1-2.706-1.968c0-.369-3.936-1.6-5.166,1.23a19.374,19.374,0,0,0-.492,5.043V63.9c1.353,6.642,6.15,8.979,9.717,8.979C68.763,72.883,73.437,70.423,74.913,63.9ZM55.848,49.021c-.984,0,0,1.476-.984,2.706-1.353,2.091-1.6,5.289-.984,8.241a13.345,13.345,0,0,1,.615-3.567c1.476-3.444,6.027-2.952,7.38-1.845.984.861.246,1.845,1.107,1.845.369,0,1.23-.738,1.6.123.123.492.861.492,1.107,0,.369-.861,1.23-.123,1.476-.123.861,0,.246-.984.984-1.722,1.23-1.107,6.027-1.968,7.626,1.722a9,9,0,0,1,.492,3.321c.615-2.829.369-5.9-.984-7.872-.369-.492-.492-.861-.492-2.337a.542.542,0,0,0-.738-.492c-.369.123-.984,0-.984-.861a.544.544,0,0,0-.861-.369.747.747,0,0,1-1.107-.615c0-.492-.615-.738-.861-.369a.879.879,0,0,1-1.353-.369.466.466,0,0,0-.861-.246.873.873,0,0,1-1.353-.246.54.54,0,0,0-.984-.123.7.7,0,0,1-1.23,0,.54.54,0,0,0-.984.123.7.7,0,0,1-1.23.123.644.644,0,0,0-.984.246.769.769,0,0,1-1.23.492.569.569,0,0,0-.984.369.77.77,0,0,1-1.107.615c-.492-.369-.984,0-.861.492a.68.68,0,0,1-.984.738Z" transform="translate(-43.905 -44.115)" fill-rule="evenodd"/>
      <path id="Trazado_1047510" data-name="Trazado 1047510" d="M357.428,115.311c.861-.246,1.23,1.476,4.551,2.46.246.123.492.246.492.492l.861,3.075h2.706l.738-3.075c.246-.861,1.845-.246,4.428-2.706.123-.246.492-.246.738-.246l3.075.861,1.23-2.337c-3.69-3.567-2.214-1.6-2.214-5.166s-1.476-1.6,2.214-5.166l-1.23-2.337-3.075.861c-.984.246-1.353-1.476-4.674-2.46a.529.529,0,0,1-.492-.492L366.038,96h-2.706l-.861,3.075c-.246.984-1.845.369-4.428,2.829a.541.541,0,0,1-.615.123l-3.075-.861L353,103.5c3.69,3.567,2.214,1.6,2.214,5.166s1.476,1.6-2.214,5.166l1.353,2.337Zm7.257,0a6.643,6.643,0,1,1,0-13.284,6.642,6.642,0,0,1,0,13.284Z" transform="translate(-314.981 -89.618)" fill="#ffb81b" fill-rule="evenodd"/>
      <path id="Trazado_1047511" data-name="Trazado 1047511" d="M136.994,64.981c1.23-1.107,6.027-1.968,7.626,1.722a9,9,0,0,1,.492,3.321c.615-2.829.369-5.9-.984-7.872-.369-.492-.492-.861-.492-2.337a.542.542,0,0,0-.738-.492c-.369.123-.984,0-.984-.861a.544.544,0,0,0-.861-.369.747.747,0,0,1-1.107-.615c0-.492-.615-.738-.861-.369a.879.879,0,0,1-1.353-.369.466.466,0,0,0-.861-.246.873.873,0,0,1-1.353-.246.54.54,0,0,0-.984-.123.7.7,0,0,1-1.23,0,.54.54,0,0,0-.984.123.7.7,0,0,1-1.23.123.644.644,0,0,0-.984.246.769.769,0,0,1-1.23.492.569.569,0,0,0-.984.369.77.77,0,0,1-1.107.615c-.492-.369-.984,0-.861.492a.68.68,0,0,1-.984.738h-.246c-.984,0,0,1.476-.984,2.706-1.353,2.091-1.6,5.289-.984,8.241a13.345,13.345,0,0,1,.615-3.567c1.476-3.444,6.027-2.952,7.38-1.845.984.861.246,1.845,1.107,1.845.369,0,1.23-.738,1.6.123.123.492.861.492,1.107,0,.369-.861,1.23-.123,1.476-.123C136.871,66.7,136.256,65.719,136.994,64.981Z" transform="translate(-112.75 -54.417)" fill="#a98356" fill-rule="evenodd"/>
      <path id="Trazado_1047512" data-name="Trazado 1047512" d="M156.065,136.064c-1.23-2.829-5.166-1.476-5.166-1.23a2.155,2.155,0,0,1-2.091,2.091c-.246,0-.369-.123-.615-.123a2.083,2.083,0,0,1-2.829,0,2.073,2.073,0,0,1-2.706-1.968c0-.369-3.936-1.6-5.166,1.23a19.374,19.374,0,0,0-.492,5.043v1.845c1.353,6.642,6.15,8.979,9.717,8.979,3.69,0,8.364-2.46,9.84-8.979C156.557,140.984,156.68,137.417,156.065,136.064Z" transform="translate(-125.549 -123.163)" fill="#ffc06d" fill-rule="evenodd"/>
      <path id="Trazado_1047513" data-name="Trazado 1047513" d="M196.519,285A9.874,9.874,0,0,1,190,285v3.2a3.054,3.054,0,0,0,3.2,2.337,2.971,2.971,0,0,0,3.2-2.337Z" transform="translate(-172.03 -255.37)" fill="#ffc06d" fill-rule="evenodd"/>
      <path id="Trazado_1047514" data-name="Trazado 1047514" d="M143.172,317H138.99c-1.23,4.182-7.872,4.182-9.1,0h-4.182a4.3,4.3,0,0,0-2.706.984c4.059,1.353,8.118,1.107,11.439,4.428,3.321-3.321,7.38-3.075,11.562-4.428A4.386,4.386,0,0,0,143.172,317Z" transform="translate(-113.271 -283.434)" fill="#75e147" fill-rule="evenodd"/>
      <path id="Trazado_1047515" data-name="Trazado 1047515" d="M115.5,328c-5.289,2.829-10.209,1.353-13.776,5.658a.69.69,0,0,1-1.107,0c-3.567-4.305-8.61-2.829-13.9-5.658L85,329.6l13.9,5.166c1.6.615,4.428,0,4.551,0l13.9-5.166Z" transform="translate(-79.945 -293.081)" fill="#ffe4af" fill-rule="evenodd"/>
      <path id="Trazado_1047516" data-name="Trazado 1047516" d="M254.252,348l-14.883,5.535L239,371l13.653-5.535.492-4.551a3.054,3.054,0,0,1-2.337-3.2l.369-4.182a3.042,3.042,0,0,1,2.829-2.829Z" transform="translate(-215.003 -310.621)" fill="#ff3e1a" fill-rule="evenodd"/>
      <path id="Trazado_1047517" data-name="Trazado 1047517" d="M205.829,413.835,206.321,396A10.024,10.024,0,0,1,203,396l.369,17.958A2.513,2.513,0,0,0,205.829,413.835Z" transform="translate(-183.431 -352.717)" fill="#fff" fill-rule="evenodd"/>
      <path id="Trazado_1047518" data-name="Trazado 1047518" d="M84.375,370.878l-.492-17.343L69,348l.246,2.706a3.061,3.061,0,0,1,2.952,2.829l.369,4.182a3.054,3.054,0,0,1-2.337,3.2l.369,4.551Z" transform="translate(-65.913 -310.621)" fill="#ff3e1a" fill-rule="evenodd"/>
      <path id="Trazado_1047519" data-name="Trazado 1047519" d="M57.6,387.07c-.123-.984,1.107-.861,1.968-.984l-.123-1.23c-.861,0-1.968.369-2.091-.615s1.107-.861,1.968-.861A1.626,1.626,0,0,0,57.6,381.9c-.861.123-1.6,0-1.6.492l.615,6.642c0,.492.615.369,1.23.246h.369a1.725,1.725,0,0,0,1.476-1.722C58.829,387.685,57.722,387.931,57.6,387.07Z" transform="translate(-54.512 -340.343)" fill="#ffc06d" fill-rule="evenodd"/>
      <path id="Trazado_1047520" data-name="Trazado 1047520" d="M347.134,384.856l-.123,1.23c.861.123,1.968,0,1.845.984,0,.369-.246.615-.738.615l-1.23-.123a1.531,1.531,0,0,0,1.353,1.722c.861.123,1.6.246,1.722-.246l.492-6.642c.123-.492-.861-.369-1.476-.492a1.557,1.557,0,0,0-1.722,1.476c.738,0,1.968-.123,1.845.861C349.1,385.225,347.872,384.856,347.134,384.856Z" transform="translate(-309.607 -340.343)" fill="#ffc06d" fill-rule="evenodd"/>
      <path id="Trazado_1047521" data-name="Trazado 1047521" d="M413.487,405a8.549,8.549,0,1,0,8.61,8.487A8.531,8.531,0,0,0,413.487,405Zm-4.92,8.733,2.091,2.214,6.519-6.4c.615-.738,1.722.369.984.984l-6.888,7.011a.923.923,0,0,1-1.107,0l-2.706-2.706A.786.786,0,0,1,408.567,413.733Z" transform="translate(-360.584 -360.61)" fill="#1d81ce" fill-rule="evenodd"/>
    </g>
  </g>
</svg>
