<svg xmlns="http://www.w3.org/2000/svg" xmlns:xlink="http://www.w3.org/1999/xlink" width="113" height="113" viewBox="0 0 113 113">
  <defs>
    <filter id="Trazado_982547" x="0" y="0" width="113" height="113" filterUnits="userSpaceOnUse">
      <feOffset dy="3" input="SourceAlpha"/>
      <feGaussianBlur stdDeviation="3" result="blur"/>
      <feFlood flood-opacity="0.161"/>
      <feComposite operator="in" in2="blur"/>
      <feComposite in="SourceGraphic"/>
    </filter>
    <clipPath id="clip-path">
      <path id="path8046" d="M0-682.665H61.594v61.594H0Z" transform="translate(0 682.665)"/>
    </clipPath>
  </defs>
  <g id="Grupo_1202143" data-name="Grupo 1202143" transform="translate(-5286.49 -1920.273)">
    <g id="Grupo_1176928" data-name="Grupo 1176928" transform="translate(5295.49 1926.273)">
      <g id="Grupo_1172322" data-name="Grupo 1172322" transform="translate(0 0)">
        <g id="Grupo_1164700" data-name="Grupo 1164700">
          <g id="Grupo_1160931" data-name="Grupo 1160931">
            <g id="Grupo_1160749" data-name="Grupo 1160749">
              <g id="Grupo_1158891" data-name="Grupo 1158891">
                <g id="Grupo_1157406" data-name="Grupo 1157406">
                  <g id="Grupo_1155793" data-name="Grupo 1155793">
                    <g id="Grupo_1154704" data-name="Grupo 1154704">
                      <g id="Grupo_1150790" data-name="Grupo 1150790">
                        <g id="Grupo_1154214" data-name="Grupo 1154214">
                          <g id="Grupo_1152583" data-name="Grupo 1152583">
                            <g id="Grupo_1146973" data-name="Grupo 1146973">
                              <g id="Grupo_1146954" data-name="Grupo 1146954">
                                <g transform="matrix(1, 0, 0, 1, -9, -6)" filter="url(#Trazado_982547)">
                                  <g id="Trazado_982547-2" data-name="Trazado 982547" transform="translate(9 6)" fill="#ebe9f0">
                                    <path d="M 47.5000114440918 93.49987030029297 C 41.28938293457031 93.49987030029297 35.26534652709961 92.28384399414062 29.5951976776123 89.88558959960938 C 24.11773109436035 87.56881713867188 19.19814491271973 84.25183868408203 14.97310447692871 80.02680206298828 C 10.74805164337158 75.80176544189453 7.43107795715332 70.88218688964844 5.114304542541504 65.40472412109375 C 2.716038227081299 59.73458862304688 1.500011444091797 53.71054840087891 1.500011444091797 47.49993515014648 C 1.500011444091797 41.28932189941406 2.716038227081299 35.26528167724609 5.114304542541504 29.59514808654785 C 7.43107795715332 24.1176815032959 10.74805164337158 19.1981086730957 14.97310447692871 14.97306823730469 C 19.19814491271973 10.74802875518799 24.11773109436035 7.431055068969727 29.5951976776123 5.11428165435791 C 35.26534652709961 2.716028451919556 41.28938293457031 1.500001788139343 47.5000114440918 1.500001788139343 C 53.71063995361328 1.500001788139343 59.73467636108398 2.716028451919556 65.40482330322266 5.11428165435791 C 70.88229370117188 7.431055068969727 75.8018798828125 10.74802875518799 80.02691650390625 14.97306823730469 C 84.25196838378906 19.1981086730957 87.56894683837891 24.1176815032959 89.88571929931641 29.59514808654785 C 92.28398132324219 35.26528167724609 93.50001525878906 41.28932189941406 93.50001525878906 47.49993515014648 C 93.50001525878906 53.71054840087891 92.28398132324219 59.73458862304688 89.88571929931641 65.40472412109375 C 87.56894683837891 70.88218688964844 84.25196838378906 75.80176544189453 80.02691650390625 80.02680206298828 C 75.8018798828125 84.25183868408203 70.88229370117188 87.56881713867188 65.40482330322266 89.88558959960938 C 59.73467636108398 92.28384399414062 53.71063995361328 93.49987030029297 47.5000114440918 93.49987030029297 Z" stroke="none"/>
                                    <path d="M 47.5000114440918 3 C 41.49122619628906 3 35.66378021240234 4.1761474609375 30.17951965332031 6.495796203613281 C 24.880859375 8.7369384765625 20.12153625488281 11.94596862792969 16.03376770019531 16.03373718261719 C 11.94598388671875 20.12149047851562 8.736968994140625 24.88081359863281 6.495811462402344 30.17947387695312 C 4.176162719726562 35.66371917724609 3.000007629394531 41.49116516113281 3.000007629394531 47.49993515014648 C 3.000007629394531 53.50870513916016 4.176162719726562 59.33615112304688 6.495811462402344 64.82039642333984 C 8.736968994140625 70.11905670166016 11.94598388671875 74.87837982177734 16.03376770019531 78.96613311767578 C 20.12153625488281 83.05390167236328 24.880859375 86.26293182373047 30.17951965332031 88.50407409667969 C 35.66378021240234 90.82372283935547 41.49122619628906 91.99987030029297 47.5000114440918 91.99987030029297 C 53.50879669189453 91.99987030029297 59.33624267578125 90.82372283935547 64.82050323486328 88.50407409667969 C 70.11916351318359 86.26293182373047 74.87848663330078 83.05390167236328 78.96625518798828 78.96613311767578 C 83.05403900146484 74.87837982177734 86.2630615234375 70.11905670166016 88.50421142578125 64.82039642333984 C 90.82386016845703 59.33615112304688 92.00001525878906 53.50870513916016 92.00001525878906 47.49993515014648 C 92.00001525878906 41.49116516113281 90.82386016845703 35.66371917724609 88.50421142578125 30.17947387695312 C 86.2630615234375 24.88081359863281 83.05403900146484 20.12149047851562 78.96625518798828 16.03373718261719 C 74.87848663330078 11.94596862792969 70.11916351318359 8.7369384765625 64.82050323486328 6.495796203613281 C 59.33624267578125 4.1761474609375 53.50879669189453 3 47.5000114440918 3 M 47.5000114440918 0 C 73.73353576660156 0 95.00001525878906 21.26644134521484 95.00001525878906 47.49993515014648 C 95.00001525878906 73.73342895507812 73.73353576660156 94.99987030029297 47.5000114440918 94.99987030029297 C 21.26648712158203 94.99987030029297 7.62939453125e-06 73.73342895507812 7.62939453125e-06 47.49993515014648 C 7.62939453125e-06 21.26644134521484 21.26648712158203 0 47.5000114440918 0 Z" stroke="none" fill="#453179"/>
                                  </g>
                                </g>
                              </g>
                            </g>
                          </g>
                        </g>
                      </g>
                    </g>
                  </g>
                </g>
              </g>
            </g>
          </g>
        </g>
      </g>
    </g>
    <g id="g8040" transform="translate(5312.193 2628.413)">
      <g id="g8042" transform="translate(0 -682.665)">
        <g id="g8044" clip-path="url(#clip-path)">
          <g id="g8050" transform="translate(6.383 0.902)">
            <path id="path8052" d="M-462.392,0h-42.886a2.971,2.971,0,0,0-2.971,2.971V27.58a2.971,2.971,0,0,0,2.971,2.971h42.886a2.972,2.972,0,0,0,2.972-2.971V2.971A2.972,2.972,0,0,0-462.392,0" transform="translate(508.249)" fill="#407194"/>
          </g>
          <g id="g8054" transform="translate(6.383 0.902)">
            <path id="path8056" d="M0-247.4v3.044a2.972,2.972,0,0,0,2.972,2.971H45.857a2.972,2.972,0,0,0,2.972-2.971v-24.608a2.971,2.971,0,0,0-2.972-2.971H2.972A2.971,2.971,0,0,0,0-268.967v17.354" transform="translate(0 271.938)" fill="none" stroke="#000" stroke-linecap="round" stroke-linejoin="round" stroke-miterlimit="10" stroke-width="1"/>
          </g>
          <g id="g8058" transform="translate(9.751 4.271)">
            <path id="path8060" d="M-4.852,0h41.13a.481.481,0,0,1,.481.481V23.333a.481.481,0,0,1-.481.481H-4.852a.481.481,0,0,1-.481-.481V.481A.481.481,0,0,1-4.852,0" transform="translate(5.333)" fill="#62a4fb"/>
          </g>
          <g id="g8062" transform="translate(9.751 4.271)">
            <path id="path8064" d="M-424.426-83.51v15.051a.481.481,0,0,1-.481.481h-41.129a.481.481,0,0,1-.481-.481V-91.311a.481.481,0,0,1,.481-.481h41.129a.481.481,0,0,1,.481.481v3.59" transform="translate(466.517 91.792)" fill="none" stroke="#000" stroke-linecap="round" stroke-linejoin="round" stroke-miterlimit="10" stroke-width="1"/>
          </g>
          <g id="g8066" transform="translate(6.383 13.841)">
            <path id="path8068" d="M-33.965-16.981v1.306a1.684,1.684,0,0,1-1.684,1.684,1.684,1.684,0,0,1-1.684-1.684v-1.306a1.684,1.684,0,0,1,1.684-1.684,1.684,1.684,0,0,1,1.684,1.684" transform="translate(37.333 18.665)" fill="#365f7e"/>
          </g>
          <g id="g8070" transform="translate(6.383 13.841)">
            <path id="path8072" d="M-33.965-16.981v1.306a1.684,1.684,0,0,1-1.684,1.684,1.684,1.684,0,0,1-1.684-1.684v-1.306a1.684,1.684,0,0,1,1.684-1.684A1.684,1.684,0,0,1-33.965-16.981Z" transform="translate(37.333 18.665)" fill="none" stroke="#000" stroke-linecap="round" stroke-linejoin="round" stroke-miterlimit="10" stroke-width="1"/>
          </g>
          <g id="g8074" transform="translate(30.797 11.261)">
            <path id="path8076" d="M-66.014-99.164a4.63,4.63,0,0,0-6.547,0v-8.479a4.63,4.63,0,0,1,6.547,0Z" transform="translate(72.561 108.999)" fill="#bed9fd"/>
          </g>
          <g id="g8078" transform="translate(30.797 11.261)">
            <path id="path8080" d="M-66.014-99.164a4.63,4.63,0,0,0-6.547,0v-8.479a4.63,4.63,0,0,1,6.547,0Z" transform="translate(72.561 108.999)" fill="none" stroke="#000" stroke-linecap="round" stroke-linejoin="round" stroke-miterlimit="10" stroke-width="1"/>
          </g>
          <g id="g8082" transform="translate(24.25 11.261)">
            <path id="path8084" d="M-66.014-99.164a4.63,4.63,0,0,0-6.547,0v-8.479a4.63,4.63,0,0,1,6.547,0Z" transform="translate(72.561 108.999)" fill="#ddebfd"/>
          </g>
          <g id="g8086" transform="translate(24.25 11.261)">
            <path id="path8088" d="M-66.014-99.164a4.63,4.63,0,0,0-6.547,0v-8.479a4.63,4.63,0,0,1,6.547,0Z" transform="translate(72.561 108.999)" fill="none" stroke="#000" stroke-linecap="round" stroke-linejoin="round" stroke-miterlimit="10" stroke-width="1"/>
          </g>
          <g id="g8090" transform="translate(26.393 34.573)">
            <path id="path8092" d="M-44.41,0a4.4,4.4,0,0,0-4.4,4.4,4.4,4.4,0,0,0,4.4,4.4,4.4,4.4,0,0,0,4.4-4.4A4.4,4.4,0,0,0-44.41,0" transform="translate(48.815)" fill="#80e29e"/>
          </g>
          <g id="g8094" transform="translate(45.952 34.573)">
            <path id="path8096" d="M-44.41,0a4.4,4.4,0,0,0-4.4,4.4,4.4,4.4,0,0,0,4.4,4.4,4.4,4.4,0,0,0,4.4-4.4A4.4,4.4,0,0,0-44.41,0" transform="translate(48.815)" fill="#f5de46"/>
          </g>
          <g id="g8098" transform="translate(8.565 34.573)">
            <path id="path8100" d="M-44.41,0a4.4,4.4,0,0,0-4.4,4.4,4.4,4.4,0,0,0,4.4,4.4,4.4,4.4,0,0,0,4.4-4.4A4.4,4.4,0,0,0-44.41,0" transform="translate(48.815)" fill="#e27c48"/>
          </g>
          <g id="g8102" transform="translate(26.393 34.573)">
            <path id="path8104" d="M-44.41,0a4.4,4.4,0,0,0-4.4,4.4,4.4,4.4,0,0,0,4.4,4.4,4.4,4.4,0,0,0,4.4-4.4A4.4,4.4,0,0,0-44.41,0Z" transform="translate(48.815)" fill="none" stroke="#000" stroke-linecap="round" stroke-linejoin="round" stroke-miterlimit="10" stroke-width="1"/>
          </g>
          <g id="g8106" transform="translate(45.952 34.573)">
            <path id="path8108" d="M-44.41,0a4.4,4.4,0,0,0-4.4,4.4,4.4,4.4,0,0,0,4.4,4.4,4.4,4.4,0,0,0,4.4-4.4A4.4,4.4,0,0,0-44.41,0Z" transform="translate(48.815)" fill="none" stroke="#000" stroke-linecap="round" stroke-linejoin="round" stroke-miterlimit="10" stroke-width="1"/>
          </g>
          <g id="g8110" transform="translate(8.565 34.573)">
            <path id="path8112" d="M-44.41,0a4.4,4.4,0,0,0-4.4,4.4,4.4,4.4,0,0,0,4.4,4.4,4.4,4.4,0,0,0,4.4-4.4A4.4,4.4,0,0,0-44.41,0Z" transform="translate(48.815)" fill="none" stroke="#000" stroke-linecap="round" stroke-linejoin="round" stroke-miterlimit="10" stroke-width="1"/>
          </g>
          <g id="g8114" transform="translate(25.564 38.066)">
            <path id="path8116" d="M-115.281-92.455h-4.352v-7.269a1.882,1.882,0,0,0-1.758-1.9,1.848,1.848,0,0,0-1.937,1.846v9.625h-2.181a1.2,1.2,0,0,0-1.2,1.2v1.555a4.084,4.084,0,0,0,3.283,4v4.149a.241.241,0,0,0,.241.241h7.974a.241.241,0,0,0,.241-.241v-4.082a4.572,4.572,0,0,0,4.268-4.562,4.573,4.573,0,0,0-4.573-4.573" transform="translate(126.714 101.624)" fill="#ffcdbe"/>
          </g>
          <g id="g8118" transform="translate(33.604 47.235)">
            <path id="path8120" d="M-34.217,0h-3.393a4.573,4.573,0,0,1,4.573,4.573,4.572,4.572,0,0,1-4.268,4.562v4.082a.241.241,0,0,1-.241.241h3.393a.241.241,0,0,0,.241-.241V9.134a4.572,4.572,0,0,0,4.268-4.562A4.573,4.573,0,0,0-34.217,0" transform="translate(37.611)" fill="#ebae9d"/>
          </g>
          <g id="g8122" transform="translate(25.564 38.066)">
            <path id="path8124" d="M-115.281-92.455h-4.352v-7.269a1.882,1.882,0,0,0-1.758-1.9,1.848,1.848,0,0,0-1.937,1.846v9.625h-2.181a1.2,1.2,0,0,0-1.2,1.2v1.555a4.084,4.084,0,0,0,3.283,4v4.149a.241.241,0,0,0,.241.241h7.974a.241.241,0,0,0,.241-.241v-4.082a4.572,4.572,0,0,0,4.268-4.562A4.573,4.573,0,0,0-115.281-92.455Z" transform="translate(126.714 101.624)" fill="none" stroke="#000" stroke-linecap="round" stroke-linejoin="round" stroke-miterlimit="10" stroke-width="1"/>
          </g>
          <g id="g8126" transform="translate(28.949 47.642)">
            <path id="path8128" d="M0,0V4.324" fill="none" stroke="#000" stroke-linecap="round" stroke-linejoin="round" stroke-miterlimit="10" stroke-width="1"/>
          </g>
          <g id="g8130" transform="translate(30.797 23.963)">
            <path id="path8132" d="M0-106.987V-117.6" transform="translate(0 117.597)" fill="none" stroke="#000" stroke-linecap="round" stroke-linejoin="round" stroke-miterlimit="10" stroke-width="1"/>
          </g>
          <g id="g8134" transform="translate(38.469 23.963)">
            <path id="path8136" d="M-96.12-113.866l-9.533-11.293" transform="translate(105.653 125.158)" fill="none" stroke="#000" stroke-linecap="round" stroke-linejoin="round" stroke-miterlimit="10" stroke-width="1"/>
          </g>
          <g id="g8138" transform="translate(15.931 23.963)">
            <path id="path8140" d="M-80.533,0-88.52,11.4" transform="translate(88.52)" fill="none" stroke="#000" stroke-linecap="round" stroke-linejoin="round" stroke-miterlimit="10" stroke-width="1"/>
          </g>
        </g>
      </g>
    </g>
  </g>
</svg>
