<svg xmlns="http://www.w3.org/2000/svg" xmlns:xlink="http://www.w3.org/1999/xlink" width="113" height="113" viewBox="0 0 113 113">
  <defs>
    <filter id="Trazado_982547" x="0" y="0" width="113" height="113" filterUnits="userSpaceOnUse">
      <feOffset dy="3" input="SourceAlpha"/>
      <feGaussianBlur stdDeviation="3" result="blur"/>
      <feFlood flood-opacity="0.161"/>
      <feComposite operator="in" in2="blur"/>
      <feComposite in="SourceGraphic"/>
    </filter>
  </defs>
  <g id="Grupo_1206599" data-name="Grupo 1206599" transform="translate(9 6)">
    <g id="Grupo_1176928" data-name="Grupo 1176928" transform="translate(0 0)">
      <g id="Grupo_1172322" data-name="Grupo 1172322">
        <g id="Grupo_1164700" data-name="Grupo 1164700">
          <g id="Grupo_1160931" data-name="Grupo 1160931">
            <g id="Grupo_1160749" data-name="Grupo 1160749">
              <g id="Grupo_1158891" data-name="Grupo 1158891">
                <g id="Grupo_1157406" data-name="Grupo 1157406">
                  <g id="Grupo_1155793" data-name="Grupo 1155793">
                    <g id="Grupo_1154704" data-name="Grupo 1154704">
                      <g id="Grupo_1150790" data-name="Grupo 1150790">
                        <g id="Grupo_1154214" data-name="Grupo 1154214" transform="translate(0)">
                          <g id="Grupo_1152583" data-name="Grupo 1152583">
                            <g id="Grupo_1146973" data-name="Grupo 1146973">
                              <g id="Grupo_1146954" data-name="Grupo 1146954">
                                <g transform="matrix(1, 0, 0, 1, -9, -6)" filter="url(#Trazado_982547)">
                                  <g id="Trazado_982547-2" data-name="Trazado 982547" transform="translate(9 6)" fill="#fdfbec">
                                    <path d="M 47.50000762939453 93.49986267089844 C 41.28937911987305 93.49986267089844 35.26534271240234 92.28383636474609 29.59519386291504 89.88558197021484 C 24.11772727966309 87.56880950927734 19.19814109802246 84.25183868408203 14.97310066223145 80.02679443359375 C 10.74804782867432 75.8017578125 7.431074142456055 70.88218688964844 5.114300727844238 65.40471649169922 C 2.716034412384033 59.73458480834961 1.500007629394531 53.71054458618164 1.500007629394531 47.49993133544922 C 1.500007629394531 41.2893180847168 2.716034412384033 35.26527786254883 5.114300727844238 29.59514427185059 C 7.431074142456055 24.11767768859863 10.74804782867432 19.19810485839844 14.97310066223145 14.97306442260742 C 19.19814109802246 10.74802494049072 24.11772727966309 7.431051254272461 29.59519386291504 5.114277839660645 C 35.26534271240234 2.71602463722229 41.28937911987305 1.499997973442078 47.50000762939453 1.499997973442078 C 53.71063613891602 1.499997973442078 59.73467254638672 2.71602463722229 65.40482330322266 5.114277839660645 C 70.88228607177734 7.431051254272461 75.80187225341797 10.74802494049072 80.02691650390625 14.97306442260742 C 84.25196838378906 19.19810485839844 87.56893920898438 24.11767768859863 89.88571166992188 29.59514427185059 C 92.28398132324219 35.26527786254883 93.50000762939453 41.2893180847168 93.50000762939453 47.49993133544922 C 93.50000762939453 53.71054458618164 92.28398132324219 59.73458480834961 89.88571166992188 65.40471649169922 C 87.56893920898438 70.88218688964844 84.25196838378906 75.8017578125 80.02691650390625 80.02679443359375 C 75.80187225341797 84.25183868408203 70.88228607177734 87.56880950927734 65.40482330322266 89.88558197021484 C 59.73467254638672 92.28383636474609 53.71063613891602 93.49986267089844 47.50000762939453 93.49986267089844 Z" stroke="none"/>
                                    <path d="M 47.50000762939453 2.999992370605469 C 41.4912223815918 2.999992370605469 35.66377639770508 4.1761474609375 30.17951202392578 6.495796203613281 C 24.88085174560547 8.736930847167969 20.12152862548828 11.94596099853516 16.03376007080078 16.03372955322266 C 11.94597625732422 20.12148284912109 8.736961364746094 24.88080596923828 6.495803833007812 30.17946624755859 C 4.176162719726562 35.66371536254883 3.000007629394531 41.49116134643555 3.000007629394531 47.49993133544922 C 3.000007629394531 53.50870132446289 4.176162719726562 59.33614730834961 6.495803833007812 64.82038879394531 C 8.736961364746094 70.11905670166016 11.94597625732422 74.87836456298828 16.03376007080078 78.96613311767578 C 20.12152862548828 83.05390167236328 24.88085174560547 86.26291656494141 30.17951202392578 88.50406646728516 C 35.66377639770508 90.82369995117188 41.4912223815918 91.99985504150391 47.50000762939453 91.99985504150391 C 53.50879287719727 91.99985504150391 59.33623886108398 90.82369995117188 64.82049560546875 88.50406646728516 C 70.11916351318359 86.26291656494141 74.87848663330078 83.05390167236328 78.96625518798828 78.96613311767578 C 83.05403900146484 74.87836456298828 86.26305389404297 70.11905670166016 88.50421142578125 64.82038879394531 C 90.8238525390625 59.33614730834961 92.00000762939453 53.50870132446289 92.00000762939453 47.49993133544922 C 92.00000762939453 41.49116134643555 90.8238525390625 35.66371536254883 88.50421142578125 30.17946624755859 C 86.26305389404297 24.88080596923828 83.05403900146484 20.12148284912109 78.96625518798828 16.03372955322266 C 74.87848663330078 11.94596099853516 70.11916351318359 8.736930847167969 64.82049560546875 6.495796203613281 C 59.33623886108398 4.1761474609375 53.50879287719727 2.999992370605469 47.50000762939453 2.999992370605469 M 47.50000762939453 -7.62939453125e-06 C 73.73352813720703 -7.62939453125e-06 95.00000762939453 21.26644134521484 95.00000762939453 47.49993133544922 C 95.00000762939453 73.73342132568359 73.73352813720703 94.99985504150391 47.50000762939453 94.99985504150391 C 21.26648712158203 94.99985504150391 7.62939453125e-06 73.73342132568359 7.62939453125e-06 47.49993133544922 C 7.62939453125e-06 21.26644134521484 21.26648712158203 -7.62939453125e-06 47.50000762939453 -7.62939453125e-06 Z" stroke="none" fill="#83793c"/>
                                  </g>
                                </g>
                              </g>
                            </g>
                          </g>
                        </g>
                      </g>
                    </g>
                  </g>
                </g>
              </g>
            </g>
          </g>
        </g>
      </g>
    </g>
    <g id="applicant_3417302" transform="translate(18.819 18.819)">
      <g id="Grupo_1202014" data-name="Grupo 1202014" transform="translate(0.935 0.935)">
        <g id="Grupo_1201998" data-name="Grupo 1201998" transform="translate(29.908 0)">
          <path id="Trazado_1047015" data-name="Trazado 1047015" d="M58.3,2.935V14.15a.937.937,0,0,1-.935.935H48.954L45.6,18.44a1.322,1.322,0,0,1-2.252-.935V15.085H34.935A.937.937,0,0,1,34,14.15V2.935A.937.937,0,0,1,34.935,2H57.365A.937.937,0,0,1,58.3,2.935Z" transform="translate(-34 -2)" fill="#e6e9ed"/>
        </g>
        <g id="Grupo_1201999" data-name="Grupo 1201999" transform="translate(26.169 41.123)">
          <path id="Trazado_1047016" data-name="Trazado 1047016" d="M59.908,46.935V48.8a.937.937,0,0,1-.935.935H30V46H58.973A.937.937,0,0,1,59.908,46.935Z" transform="translate(-30 -46)" fill="#aab2bd"/>
        </g>
        <g id="Grupo_1202000" data-name="Grupo 1202000" transform="translate(39.254 31.777)">
          <path id="Trazado_1047017" data-name="Trazado 1047017" d="M58.954,43.477v1.869H44V43.477a7.477,7.477,0,1,1,14.954,0Z" transform="translate(-44 -36)" fill="#ff826e"/>
        </g>
        <g id="Grupo_1202001" data-name="Grupo 1202001" transform="translate(25.814 31.777)">
          <path id="Trazado_1047018" data-name="Trazado 1047018" d="M43.06,43.477v1.869H29.975V41.795a11.489,11.489,0,0,0-.355-2.841h.009a7.475,7.475,0,0,1,13.43,4.524Z" transform="translate(-29.62 -36)" fill="#fcd770"/>
        </g>
        <g id="Grupo_1202002" data-name="Grupo 1202002" transform="translate(41.123 20.562)">
          <path id="Trazado_1047019" data-name="Trazado 1047019" d="M57.215,29.608H46a5.608,5.608,0,0,1,11.215,0Z" transform="translate(-46 -24)" fill="#b27946"/>
        </g>
        <g id="Grupo_1202003" data-name="Grupo 1202003" transform="translate(26.169 20.562)">
          <path id="Trazado_1047020" data-name="Trazado 1047020" d="M41.215,29.608H30a5.608,5.608,0,0,1,11.215,0Z" transform="translate(-30 -24)" fill="#b27946"/>
        </g>
        <g id="Grupo_1202004" data-name="Grupo 1202004" transform="translate(1.869 44.862)">
          <path id="Trazado_1047021" data-name="Trazado 1047021" d="M23.319,51.869l1.851,5.561,1.262,3.785H4L5.262,57.43l1.851-5.561h.009L7.738,50H22.692Z" transform="translate(-4 -50)" fill="#d3a06c"/>
        </g>
        <g id="Grupo_1202005" data-name="Grupo 1202005" transform="translate(0 26.169)">
          <path id="Trazado_1047022" data-name="Trazado 1047022" d="M28.169,48.692v1.869H23.188l-.626-1.869H7.608l-.617,1.869H2V41.4A11.624,11.624,0,0,1,11.346,30v1.252a12.96,12.96,0,0,0,.243,2.486,12.742,12.742,0,0,0,3.5,6.542,12.776,12.776,0,0,0,2.766-4.14,13.436,13.436,0,0,0,.729-2.4,12.96,12.96,0,0,0,.243-2.486V30a11.611,11.611,0,0,1,8.991,8.561,11.488,11.488,0,0,1,.355,2.841v7.29Z" transform="translate(-2 -30)" fill="#5cd6b3"/>
        </g>
        <g id="Grupo_1202006" data-name="Grupo 1202006" transform="translate(9.589 29.908)">
          <path id="Trazado_1047023" data-name="Trazado 1047023" d="M12.26,34h6.991a13.435,13.435,0,0,1-.729,2.4,12.776,12.776,0,0,1-2.766,4.14A12.742,12.742,0,0,1,12.26,34Z" transform="translate(-12.26 -34)" fill="#ff826e"/>
        </g>
        <g id="Grupo_1202007" data-name="Grupo 1202007" transform="translate(0 0)">
          <path id="Trazado_1047024" data-name="Trazado 1047024" d="M27.926,16.178a5.345,5.345,0,0,1-3.411,6.664l-4.327,1.449a7.469,7.469,0,0,0,2.374-5.468V13.215a3.737,3.737,0,0,0-3.738-3.738H12.281A4.675,4.675,0,0,0,7.608,14.15v4.673a7.49,7.49,0,0,0,2.187,5.29c.056.056.122.122.187.178L5.57,22.814A5.209,5.209,0,0,1,2.308,16.1l3.1-8.711a5.325,5.325,0,0,1,5-3.524l.308-.206a9.9,9.9,0,0,1,14.945,5.29Z" transform="translate(-2 -2)" fill="#656d78"/>
        </g>
        <g id="Grupo_1202008" data-name="Grupo 1202008" transform="translate(41.123 26.169)">
          <path id="Trazado_1047025" data-name="Trazado 1047025" d="M46,30H57.215A5.608,5.608,0,0,1,46,30Z" transform="translate(-46 -30)" fill="#f0d0b4"/>
        </g>
        <g id="Grupo_1202009" data-name="Grupo 1202009" transform="translate(26.169 26.169)">
          <path id="Trazado_1047026" data-name="Trazado 1047026" d="M30,30H41.215A5.608,5.608,0,0,1,30,30Z" transform="translate(-30 -30)" fill="#f0d0b4"/>
        </g>
        <g id="Grupo_1202010" data-name="Grupo 1202010" transform="translate(21.188 46.731)">
          <path id="Trazado_1047027" data-name="Trazado 1047027" d="M29.652,52v1.869a3.74,3.74,0,0,1-3.131,3.692L24.67,52Z" transform="translate(-24.67 -52)" fill="#f0d0b4"/>
        </g>
        <g id="Grupo_1202011" data-name="Grupo 1202011" transform="translate(0 46.731)">
          <path id="Trazado_1047028" data-name="Trazado 1047028" d="M6.982,52,5.131,57.561A3.74,3.74,0,0,1,2,53.869V52Z" transform="translate(-2 -52)" fill="#f0d0b4"/>
        </g>
        <g id="Grupo_1202012" data-name="Grupo 1202012" transform="translate(9.346 23.627)">
          <path id="Trazado_1047029" data-name="Trazado 1047029" d="M12.636,27.28l3.1.673a7.488,7.488,0,0,0,3.1-.673l.636,2.542v1.252a12.96,12.96,0,0,1-.243,2.486H12.243A12.96,12.96,0,0,1,12,31.075V29.822Z" transform="translate(-12 -27.28)" fill="#f0d0b4"/>
        </g>
        <g id="Grupo_1202013" data-name="Grupo 1202013" transform="translate(5.608 7.477)">
          <path id="Trazado_1047030" data-name="Trazado 1047030" d="M22.954,13.738v5.608a7.469,7.469,0,0,1-2.374,5.468,7.64,7.64,0,0,1-2,1.337,7.488,7.488,0,0,1-3.1.673l-3.1-.673a7.64,7.64,0,0,1-2-1.337c-.065-.056-.131-.121-.187-.178A7.49,7.49,0,0,1,8,19.346V14.673A4.675,4.675,0,0,1,12.673,10h6.542A3.737,3.737,0,0,1,22.954,13.738Z" transform="translate(-8 -10)" fill="#f0d0b4"/>
        </g>
      </g>
      <g id="Grupo_1202015" data-name="Grupo 1202015">
        <ellipse id="Elipse_12492" data-name="Elipse 12492" cx="1.01" cy="1.01" rx="1.01" ry="1.01" transform="translate(16.851 12.81)"/>
        <ellipse id="Elipse_12493" data-name="Elipse 12493" cx="1.01" cy="1.01" rx="1.01" ry="1.01" transform="translate(9.78 12.81)"/>
        <path id="Trazado_1047031" data-name="Trazado 1047031" d="M19.287,22.586l.1-.2-1.672-.836-.1.2a2.09,2.09,0,0,1-3.738,0l-.1-.2-1.672.836.1.2a3.959,3.959,0,0,0,7.083,0Z" transform="translate(-1.726 -2.344)"/>
        <path id="Trazado_1047032" data-name="Trazado 1047032" d="M0,0H1.868V4.178H0Z" transform="matrix(0.894, -0.447, 0.447, 0.894, 12.241, 7.895)"/>
        <path id="Trazado_1047033" data-name="Trazado 1047033" d="M0,0H1.868V4.178H0Z" transform="matrix(0.894, -0.447, 0.447, 0.894, 15.978, 7.896)"/>
        <path id="Trazado_1047034" data-name="Trazado 1047034" d="M57.077,42.123v-.935a8.414,8.414,0,0,0-4.845-7.607,6.542,6.542,0,1,0-7.133,0,8.452,8.452,0,0,0-3.91,3.771,8.457,8.457,0,0,0-3.91-3.771,6.542,6.542,0,1,0-7.141-.006,8.329,8.329,0,0,0-1.992,1.318,12.594,12.594,0,0,0-8.621-7.575l-.319-1.276a8.459,8.459,0,0,0,1.369-.986l4.166-1.389a6.282,6.282,0,0,0,4.011-7.838L26.494,8.607A10.839,10.839,0,0,0,10.136,2.821l-.084.056A6.253,6.253,0,0,0,4.47,7.011L1.36,15.721A6.16,6.16,0,0,0,5.213,23.64l4.251,1.417a8.443,8.443,0,0,0,1.369.986l-.319,1.276A12.6,12.6,0,0,0,1,39.5v11.03a4.642,4.642,0,0,0,2.877,4.3l-1.37,4.11H27.531l-1.37-4.11a4.641,4.641,0,0,0,2.878-4.3v-2.8H57.077a1.871,1.871,0,0,0,1.869-1.869V43.992A1.871,1.871,0,0,0,57.077,42.123ZM48.665,23.431a4.682,4.682,0,0,1,4.579,3.738H44.087A4.682,4.682,0,0,1,48.665,23.431Zm-4.579,5.608h9.157a4.673,4.673,0,0,1-9.157,0Zm4.579,5.608a6.551,6.551,0,0,1,6.542,6.542v.935H42.123v-.935A6.551,6.551,0,0,1,48.665,34.646ZM33.712,23.431a4.682,4.682,0,0,1,4.579,3.738H29.133A4.682,4.682,0,0,1,33.712,23.431Zm-4.579,5.608H38.29a4.673,4.673,0,0,1-9.157,0Zm4.579,5.608a6.551,6.551,0,0,1,6.542,6.542v.935H29.039V39.5a12.433,12.433,0,0,0-.279-2.576,6.49,6.49,0,0,1,4.953-2.282ZM8.477,18.758V14.085a3.742,3.742,0,0,1,3.738-3.738V8.477a5.613,5.613,0,0,0-5.608,5.608v4.673a8.351,8.351,0,0,0,.85,3.66L5.8,21.866A4.29,4.29,0,0,1,3.12,16.351L6.23,7.64a4.381,4.381,0,0,1,4.116-2.9h.283l.544-.363A8.97,8.97,0,0,1,24.711,9.164l2.257,7.224a4.416,4.416,0,0,1-2.819,5.507l-1.567.522a8.359,8.359,0,0,0,.849-3.659V12.215H21.562v6.542a6.542,6.542,0,0,1-13.085,0Zm6.542,8.412A8.391,8.391,0,0,0,17.47,26.8l.353,1.415v1.141a11.984,11.984,0,0,1-.111,1.549H12.327a11.984,11.984,0,0,1-.111-1.549V28.218l.353-1.415A8.391,8.391,0,0,0,15.019,27.169Zm2.294,5.608a11.727,11.727,0,0,1-2.294,4.23,11.727,11.727,0,0,1-2.294-4.23Zm-6.968-3.462v.044a13.607,13.607,0,0,0,4.012,9.686l.661.661.661-.661a13.607,13.607,0,0,0,4.012-9.686v-.044A10.722,10.722,0,0,1,27.169,39.5v8.226H23.793l-.35-1.051.92-11.961L22.5,34.574l-.868,11.287H8.408L7.54,34.574l-1.864.144L6.6,46.679l-.35,1.051H2.869V39.5a10.722,10.722,0,0,1,7.477-10.189ZM2.869,50.535V49.6H5.623L4.47,53.058A2.782,2.782,0,0,1,2.869,50.535ZM5.1,57.077l3.115-9.346H21.822l3.115,9.346Zm20.468-4.019L24.416,49.6h2.753v.935A2.783,2.783,0,0,1,25.569,53.058Zm31.508-7.2H29.039V43.992H57.077Z" transform="translate(-1 -1)"/>
        <path id="Trazado_1047035" data-name="Trazado 1047035" d="M35,57h1.869v1.869H35Z" transform="translate(-3.223 -4.661)"/>
        <path id="Trazado_1047036" data-name="Trazado 1047036" d="M41,57h1.869v1.869H41Z" transform="translate(-3.615 -4.661)"/>
        <path id="Trazado_1047037" data-name="Trazado 1047037" d="M47,57h1.869v1.869H47Z" transform="translate(-4.008 -4.661)"/>
        <path id="Trazado_1047038" data-name="Trazado 1047038" d="M34.869,15.954h7.477v1.482a2.256,2.256,0,0,0,3.852,1.6l3.078-3.078H57.3a1.871,1.871,0,0,0,1.869-1.869V2.869A1.871,1.871,0,0,0,57.3,1H34.869A1.871,1.871,0,0,0,33,2.869V14.085A1.871,1.871,0,0,0,34.869,15.954Zm0-13.085H57.3V14.085H48.5L44.875,17.71a.4.4,0,0,1-.66-.274V14.085H34.869Z" transform="translate(-3.092 -1)"/>
        <path id="Trazado_1047039" data-name="Trazado 1047039" d="M44.77,5.293,39.823,10.24,38.615,9.031l-1.322,1.322,2.53,2.53,6.268-6.268Z" transform="translate(-3.373 -1.281)"/>
        <path id="Trazado_1047040" data-name="Trazado 1047040" d="M56.091,6.615,54.77,5.293,49.823,10.24,48.615,9.031l-1.322,1.322,2.53,2.53Z" transform="translate(-4.027 -1.281)"/>
      </g>
    </g>
  </g>
</svg>
