<svg xmlns="http://www.w3.org/2000/svg" xmlns:xlink="http://www.w3.org/1999/xlink" width="113" height="113" viewBox="0 0 113 113">
  <defs>
    <filter id="Trazado_982547" x="0" y="0" width="113" height="113" filterUnits="userSpaceOnUse">
      <feOffset dy="3" input="SourceAlpha"/>
      <feGaussianBlur stdDeviation="3" result="blur"/>
      <feFlood flood-opacity="0.161"/>
      <feComposite operator="in" in2="blur"/>
      <feComposite in="SourceGraphic"/>
    </filter>
  </defs>
  <g id="Grupo_1206602" data-name="Grupo 1206602" transform="translate(9 6)">
    <g id="Grupo_1201923" data-name="Grupo 1201923" transform="translate(0 0)">
      <g id="Grupo_1176928" data-name="Grupo 1176928">
        <g id="Grupo_1172322" data-name="Grupo 1172322">
          <g id="Grupo_1164700" data-name="Grupo 1164700">
            <g id="Grupo_1160931" data-name="Grupo 1160931">
              <g id="Grupo_1160749" data-name="Grupo 1160749">
                <g id="Grupo_1158891" data-name="Grupo 1158891">
                  <g id="Grupo_1157406" data-name="Grupo 1157406">
                    <g id="Grupo_1155793" data-name="Grupo 1155793">
                      <g id="Grupo_1154704" data-name="Grupo 1154704">
                        <g id="Grupo_1150790" data-name="Grupo 1150790">
                          <g id="Grupo_1154214" data-name="Grupo 1154214">
                            <g id="Grupo_1152583" data-name="Grupo 1152583">
                              <g id="Grupo_1146973" data-name="Grupo 1146973">
                                <g id="Grupo_1146954" data-name="Grupo 1146954">
                                  <g transform="matrix(1, 0, 0, 1, -9, -6)" filter="url(#Trazado_982547)">
                                    <g id="Trazado_982547-2" data-name="Trazado 982547" transform="translate(9 6)" fill="#fdfbec">
                                      <path d="M 47.5000114440918 93.49987030029297 C 41.28938293457031 93.49987030029297 35.26534652709961 92.28384399414062 29.5951976776123 89.88558959960938 C 24.11773109436035 87.56881713867188 19.19814491271973 84.25183868408203 14.97310447692871 80.02680206298828 C 10.74805164337158 75.80176544189453 7.43107795715332 70.88218688964844 5.114304542541504 65.40472412109375 C 2.716038227081299 59.73458862304688 1.500011444091797 53.71054840087891 1.500011444091797 47.49993515014648 C 1.500011444091797 41.28932189941406 2.716038227081299 35.26528167724609 5.114304542541504 29.59514808654785 C 7.43107795715332 24.1176815032959 10.74805164337158 19.1981086730957 14.97310447692871 14.97306823730469 C 19.19814491271973 10.74802875518799 24.11773109436035 7.431055068969727 29.5951976776123 5.11428165435791 C 35.26534652709961 2.716028451919556 41.28938293457031 1.500001788139343 47.5000114440918 1.500001788139343 C 53.71063995361328 1.500001788139343 59.73467636108398 2.716028451919556 65.40482330322266 5.11428165435791 C 70.88229370117188 7.431055068969727 75.8018798828125 10.74802875518799 80.02691650390625 14.97306823730469 C 84.25196838378906 19.1981086730957 87.56894683837891 24.1176815032959 89.88571929931641 29.59514808654785 C 92.28398132324219 35.26528167724609 93.50001525878906 41.28932189941406 93.50001525878906 47.49993515014648 C 93.50001525878906 53.71054840087891 92.28398132324219 59.73458862304688 89.88571929931641 65.40472412109375 C 87.56894683837891 70.88218688964844 84.25196838378906 75.80176544189453 80.02691650390625 80.02680206298828 C 75.8018798828125 84.25183868408203 70.88229370117188 87.56881713867188 65.40482330322266 89.88558959960938 C 59.73467636108398 92.28384399414062 53.71063995361328 93.49987030029297 47.5000114440918 93.49987030029297 Z" stroke="none"/>
                                      <path d="M 47.5000114440918 3 C 41.49122619628906 3 35.66378021240234 4.1761474609375 30.17951965332031 6.495796203613281 C 24.880859375 8.7369384765625 20.12153625488281 11.94596862792969 16.03376770019531 16.03373718261719 C 11.94598388671875 20.12149047851562 8.736968994140625 24.88081359863281 6.495811462402344 30.17947387695312 C 4.176162719726562 35.66371917724609 3.000007629394531 41.49116516113281 3.000007629394531 47.49993515014648 C 3.000007629394531 53.50870513916016 4.176162719726562 59.33615112304688 6.495811462402344 64.82039642333984 C 8.736968994140625 70.11905670166016 11.94598388671875 74.87837982177734 16.03376770019531 78.96613311767578 C 20.12153625488281 83.05390167236328 24.880859375 86.26293182373047 30.17951965332031 88.50407409667969 C 35.66378021240234 90.82372283935547 41.49122619628906 91.99987030029297 47.5000114440918 91.99987030029297 C 53.50879669189453 91.99987030029297 59.33624267578125 90.82372283935547 64.82050323486328 88.50407409667969 C 70.11916351318359 86.26293182373047 74.87848663330078 83.05390167236328 78.96625518798828 78.96613311767578 C 83.05403900146484 74.87837982177734 86.2630615234375 70.11905670166016 88.50421142578125 64.82039642333984 C 90.82386016845703 59.33615112304688 92.00001525878906 53.50870513916016 92.00001525878906 47.49993515014648 C 92.00001525878906 41.49116516113281 90.82386016845703 35.66371917724609 88.50421142578125 30.17947387695312 C 86.2630615234375 24.88081359863281 83.05403900146484 20.12149047851562 78.96625518798828 16.03373718261719 C 74.87848663330078 11.94596862792969 70.11916351318359 8.7369384765625 64.82050323486328 6.495796203613281 C 59.33624267578125 4.1761474609375 53.50879669189453 3 47.5000114440918 3 M 47.5000114440918 0 C 73.73353576660156 0 95.00001525878906 21.26644134521484 95.00001525878906 47.49993515014648 C 95.00001525878906 73.73342895507812 73.73353576660156 94.99987030029297 47.5000114440918 94.99987030029297 C 21.26648712158203 94.99987030029297 7.62939453125e-06 73.73342895507812 7.62939453125e-06 47.49993515014648 C 7.62939453125e-06 21.26644134521484 21.26648712158203 0 47.5000114440918 0 Z" stroke="none" fill="#83793c"/>
                                    </g>
                                  </g>
                                </g>
                              </g>
                            </g>
                          </g>
                        </g>
                      </g>
                    </g>
                  </g>
                </g>
              </g>
            </g>
          </g>
        </g>
      </g>
    </g>
    <g id="reading_3271124" transform="translate(-18.607 14.483)">
      <g id="Grupo_1201942" data-name="Grupo 1201942" transform="translate(38.969 0.969)">
        <path id="Trazado_1046649" data-name="Trazado 1046649" d="M165.869,11.736a14.945,14.945,0,0,0-6.292-3.646l-1.671.425-.962-.933a15.291,15.291,0,0,0-1.583-.082A14.666,14.666,0,0,0,140.5,21.964V24.05a14.666,14.666,0,0,0,14.861,14.464,15.258,15.258,0,0,0,1.583-.082c.459-.046.912-.114,1.356-.2a14.965,14.965,0,0,0,7.569-3.954,14.229,14.229,0,0,0,4.353-10.228V21.964a14.229,14.229,0,0,0-4.353-10.228Z" transform="translate(-128.224 -7.5)" fill="#57758d"/>
        <path id="Trazado_1046650" data-name="Trazado 1046650" d="M196.176,108.076v10.36a10.338,10.338,0,0,1-20.676,0v-8.33a16.553,16.553,0,0,0,4.12.433c4.62,0,8.609-2.11,10.481-6.359a11.464,11.464,0,0,0,6.075,3.9Z" transform="translate(-158.701 -91.687)" fill="#ffe4c2"/>
        <path id="Trazado_1046651" data-name="Trazado 1046651" d="M189.033,206.68a24.55,24.55,0,0,1-6.391,0l-7.143-.937v1.132a10.338,10.338,0,0,0,20.676,0v-1.132Z" transform="translate(-158.701 -180.125)" fill="#f2d1a5"/>
        <path id="Trazado_1046652" data-name="Trazado 1046652" d="M102.637,256.085H94.884L75.5,253.5v29.722l19.384,2.585h7.754l19.384-2.585V253.5Z" transform="translate(-71.623 -221.711)" fill="#f88fa4"/>
        <path id="Trazado_1046653" data-name="Trazado 1046653" d="M94.884,456.085,75.5,453.5v3.877l19.384,2.585h7.754l19.384-2.585V453.5l-19.384,2.585Z" transform="translate(-71.623 -395.865)" fill="#f05475"/>
        <path id="Trazado_1046654" data-name="Trazado 1046654" d="M112.3,231.7h7.754l16.8-2.24V225.5l-16.976,2.228a28.433,28.433,0,0,1-7.4,0L95.5,225.5v3.963Z" transform="translate(-89.039 -197.329)" fill="#faef93" stroke="#fee95d" stroke-miterlimit="10" stroke-width="1"/>
        <path id="Trazado_1046655" data-name="Trazado 1046655" d="M50.023,323.5a4.523,4.523,0,0,0-4.523,4.523v2.585a4.523,4.523,0,0,0,9.046,0v-2.585A4.523,4.523,0,0,0,50.023,323.5Z" transform="translate(-45.5 -282.665)" fill="#ffe4c2"/>
        <path id="Trazado_1046656" data-name="Trazado 1046656" d="M400.023,323.5a4.523,4.523,0,0,1,4.523,4.523v2.585a4.523,4.523,0,0,1-9.046,0v-2.585A4.523,4.523,0,0,1,400.023,323.5Z" transform="translate(-350.271 -282.665)" fill="#ffe4c2"/>
        <path id="Trazado_1046657" data-name="Trazado 1046657" d="M50.023,357.377a4.523,4.523,0,0,1-4.476-3.877,4.556,4.556,0,0,0-.047.646v2.584a4.523,4.523,0,0,0,9.046,0v-2.584a4.554,4.554,0,0,0-.047-.646A4.523,4.523,0,0,1,50.023,357.377Z" transform="translate(-45.5 -308.788)" fill="#f2d1a5"/>
        <path id="Trazado_1046658" data-name="Trazado 1046658" d="M400.023,357.377a4.523,4.523,0,0,1-4.476-3.877,4.554,4.554,0,0,0-.047.646v2.584a4.523,4.523,0,0,0,9.046,0v-2.584a4.563,4.563,0,0,0-.047-.646A4.523,4.523,0,0,1,400.023,357.377Z" transform="translate(-350.271 -308.788)" fill="#f2d1a5"/>
        <path id="Trazado_1046659" data-name="Trazado 1046659" d="M225.5,433.5h7.754v3.877H225.5Z" transform="translate(-202.239 -378.45)" fill="#faef93" stroke="#fee95d" stroke-miterlimit="10" stroke-width="1"/>
      </g>
      <g id="Grupo_1201943" data-name="Grupo 1201943" transform="translate(45.883 8.141)">
        <path id="Trazado_1046660" data-name="Trazado 1046660" d="M397,449h1.938v1.938H397Z" transform="translate(-358.491 -399.119)" fill="#fff"/>
        <path id="Trazado_1046661" data-name="Trazado 1046661" d="M366.5,453h1.938v1.938H366.5Z" transform="translate(-331.932 -402.602)" fill="#fff"/>
        <path id="Trazado_1046662" data-name="Trazado 1046662" d="M99,449h1.938v1.938H99Z" transform="translate(-99 -399.119)" fill="#fff"/>
        <path id="Trazado_1046663" data-name="Trazado 1046663" d="M129.5,453h1.938v1.938H129.5Z" transform="translate(-125.559 -402.602)" fill="#fff"/>
        <path id="Trazado_1046664" data-name="Trazado 1046664" d="M203.5,63h1.938v1.938H203.5Z" transform="translate(-189.996 -63)" fill="#fff"/>
      </g>
      <g id="Grupo_1201944" data-name="Grupo 1201944" transform="translate(38 0)">
        <path id="Trazado_1046665" data-name="Trazado 1046665" d="M48.984,324.077v-2.585a5.492,5.492,0,0,0-10.984,0v2.585a5.492,5.492,0,1,0,10.984,0Zm-9.046,0v-2.585a3.554,3.554,0,0,1,7.107,0v2.585a3.554,3.554,0,1,1-7.107,0Z" transform="translate(-38 -275.165)"/>
        <path id="Trazado_1046666" data-name="Trazado 1046666" d="M69.938,437.273H68V444.1l10.3,1.374.256-1.921-8.623-1.15Z" transform="translate(-64.123 -380.766)"/>
        <path id="Trazado_1046667" data-name="Trazado 1046667" d="M114.521,61.632,97.076,63.958V46.973H95.137V55.05H89.322V36.312h5.815v8.723h1.938V36.192l7.158-.954-.256-1.921-7.935,1.058H88.417L72.523,32.255v-2.01L88.4,32.329a29.415,29.415,0,0,0,7.652,0l15.881-2.084v2.01l-6.038.805.256,1.921,8.366-1.116v4.867h1.938V31.652L113.875,32V28.036l-10.467,1.374a11.273,11.273,0,0,0,.117-1.2,15.694,15.694,0,0,0,4.535-11.09V15.433a15.2,15.2,0,0,0-3.83-10.067L102.777,6.65a13.267,13.267,0,0,1,3.345,8.783v1.689a13.764,13.764,0,0,1-2.585,8.076V16.6l-.737-.182a10.44,10.44,0,0,1-5.559-3.572l-1-1.214-.634,1.44c-1.619,3.674-5.116,5.781-9.595,5.781a15.43,15.43,0,0,1-3.877-.4l-1.212-.313V25.2a13.765,13.765,0,0,1-2.585-8.076V15.433a13.219,13.219,0,0,1,.083-1.477H81.5V12.018H78.789a13.115,13.115,0,0,1,.69-1.938h4.092V8.141H80.546a14,14,0,0,1,11.684-6.2c.384,0,.771.016,1.154.046l1.105,1.072,1.937-.493a14.083,14.083,0,0,1,5.066,2.811l1.272-1.463A16.03,16.03,0,0,0,96.714.628L96.462.555l-1.4.356-.814-.79L93.913.087A16.4,16.4,0,0,0,92.23,0,15.653,15.653,0,0,0,76.4,15.433v1.689a15.694,15.694,0,0,0,4.535,11.09,11.272,11.272,0,0,0,.117,1.2L70.585,28.036V32L68,31.652v7.081h1.938V33.866l17.445,2.326V63.958l-6.9-.92-.256,1.921,8.063,1.075h7.882l20.289-2.705V56.507h-1.938ZM82.861,20.577a20.25,20.25,0,0,0,3.151.214c4.744,0,8.57-2.04,10.708-5.65a12.253,12.253,0,0,0,4.879,2.952v9.626a9.369,9.369,0,0,1-.207,1.955l-5.588.733a27.489,27.489,0,0,1-7.147,0l-5.588-.733a9.362,9.362,0,0,1-.207-1.955V20.577ZM95.137,64.1H89.322V60.865h5.815Zm0-5.169H89.322V56.988h5.815Z" transform="translate(-64.123 0)"/>
        <path id="Trazado_1046668" data-name="Trazado 1046668" d="M213,189.5h1.938v1.938H213Z" transform="translate(-190.386 -165.012)"/>
        <path id="Trazado_1046669" data-name="Trazado 1046669" d="M283,189.5h1.938v1.938H283Z" transform="translate(-251.34 -165.012)"/>
        <path id="Trazado_1046670" data-name="Trazado 1046670" d="M393.492,316A5.5,5.5,0,0,0,388,321.492v2.585a5.492,5.492,0,1,0,10.984,0v-2.585A5.5,5.5,0,0,0,393.492,316Zm3.554,8.077a3.554,3.554,0,1,1-7.107,0v-2.585a3.554,3.554,0,1,1,7.107,0Z" transform="translate(-342.771 -275.165)"/>
      </g>
    </g>
  </g>
</svg>
