<svg xmlns="http://www.w3.org/2000/svg" xmlns:xlink="http://www.w3.org/1999/xlink" width="113" height="113" viewBox="0 0 113 113">
  <defs>
    <filter id="Trazado_982547" x="0" y="0" width="113" height="113" filterUnits="userSpaceOnUse">
      <feOffset dy="3" input="SourceAlpha"/>
      <feGaussianBlur stdDeviation="3" result="blur"/>
      <feFlood flood-opacity="0.161"/>
      <feComposite operator="in" in2="blur"/>
      <feComposite in="SourceGraphic"/>
    </filter>
  </defs>
  <g id="Grupo_1206604" data-name="Grupo 1206604" transform="translate(9 6)">
    <g id="Grupo_1201923" data-name="Grupo 1201923" transform="translate(0 0)">
      <g id="Grupo_1176928" data-name="Grupo 1176928">
        <g id="Grupo_1172322" data-name="Grupo 1172322">
          <g id="Grupo_1164700" data-name="Grupo 1164700">
            <g id="Grupo_1160931" data-name="Grupo 1160931">
              <g id="Grupo_1160749" data-name="Grupo 1160749">
                <g id="Grupo_1158891" data-name="Grupo 1158891">
                  <g id="Grupo_1157406" data-name="Grupo 1157406">
                    <g id="Grupo_1155793" data-name="Grupo 1155793">
                      <g id="Grupo_1154704" data-name="Grupo 1154704">
                        <g id="Grupo_1150790" data-name="Grupo 1150790">
                          <g id="Grupo_1154214" data-name="Grupo 1154214">
                            <g id="Grupo_1152583" data-name="Grupo 1152583">
                              <g id="Grupo_1146973" data-name="Grupo 1146973">
                                <g id="Grupo_1146954" data-name="Grupo 1146954">
                                  <g transform="matrix(1, 0, 0, 1, -9, -6)" filter="url(#Trazado_982547)">
                                    <g id="Trazado_982547-2" data-name="Trazado 982547" transform="translate(9 6)" fill="#fdfbec">
                                      <path d="M 47.5000114440918 93.49987030029297 C 41.28938293457031 93.49987030029297 35.26534652709961 92.28384399414062 29.5951976776123 89.88558959960938 C 24.11773109436035 87.56881713867188 19.19814491271973 84.25183868408203 14.97310447692871 80.02680206298828 C 10.74805164337158 75.80176544189453 7.43107795715332 70.88218688964844 5.114304542541504 65.40472412109375 C 2.716038227081299 59.73458862304688 1.500011444091797 53.71054840087891 1.500011444091797 47.49993515014648 C 1.500011444091797 41.28932189941406 2.716038227081299 35.26528167724609 5.114304542541504 29.59514808654785 C 7.43107795715332 24.1176815032959 10.74805164337158 19.1981086730957 14.97310447692871 14.97306823730469 C 19.19814491271973 10.74802875518799 24.11773109436035 7.431055068969727 29.5951976776123 5.11428165435791 C 35.26534652709961 2.716028451919556 41.28938293457031 1.500001788139343 47.5000114440918 1.500001788139343 C 53.71063995361328 1.500001788139343 59.73467636108398 2.716028451919556 65.40482330322266 5.11428165435791 C 70.88229370117188 7.431055068969727 75.8018798828125 10.74802875518799 80.02691650390625 14.97306823730469 C 84.25196838378906 19.1981086730957 87.56894683837891 24.1176815032959 89.88571929931641 29.59514808654785 C 92.28398132324219 35.26528167724609 93.50001525878906 41.28932189941406 93.50001525878906 47.49993515014648 C 93.50001525878906 53.71054840087891 92.28398132324219 59.73458862304688 89.88571929931641 65.40472412109375 C 87.56894683837891 70.88218688964844 84.25196838378906 75.80176544189453 80.02691650390625 80.02680206298828 C 75.8018798828125 84.25183868408203 70.88229370117188 87.56881713867188 65.40482330322266 89.88558959960938 C 59.73467636108398 92.28384399414062 53.71063995361328 93.49987030029297 47.5000114440918 93.49987030029297 Z" stroke="none"/>
                                      <path d="M 47.5000114440918 3 C 41.49122619628906 3 35.66378021240234 4.1761474609375 30.17951965332031 6.495796203613281 C 24.880859375 8.7369384765625 20.12153625488281 11.94596862792969 16.03376770019531 16.03373718261719 C 11.94598388671875 20.12149047851562 8.736968994140625 24.88081359863281 6.495811462402344 30.17947387695312 C 4.176162719726562 35.66371917724609 3.000007629394531 41.49116516113281 3.000007629394531 47.49993515014648 C 3.000007629394531 53.50870513916016 4.176162719726562 59.33615112304688 6.495811462402344 64.82039642333984 C 8.736968994140625 70.11905670166016 11.94598388671875 74.87837982177734 16.03376770019531 78.96613311767578 C 20.12153625488281 83.05390167236328 24.880859375 86.26293182373047 30.17951965332031 88.50407409667969 C 35.66378021240234 90.82372283935547 41.49122619628906 91.99987030029297 47.5000114440918 91.99987030029297 C 53.50879669189453 91.99987030029297 59.33624267578125 90.82372283935547 64.82050323486328 88.50407409667969 C 70.11916351318359 86.26293182373047 74.87848663330078 83.05390167236328 78.96625518798828 78.96613311767578 C 83.05403900146484 74.87837982177734 86.2630615234375 70.11905670166016 88.50421142578125 64.82039642333984 C 90.82386016845703 59.33615112304688 92.00001525878906 53.50870513916016 92.00001525878906 47.49993515014648 C 92.00001525878906 41.49116516113281 90.82386016845703 35.66371917724609 88.50421142578125 30.17947387695312 C 86.2630615234375 24.88081359863281 83.05403900146484 20.12149047851562 78.96625518798828 16.03373718261719 C 74.87848663330078 11.94596862792969 70.11916351318359 8.7369384765625 64.82050323486328 6.495796203613281 C 59.33624267578125 4.1761474609375 53.50879669189453 3 47.5000114440918 3 M 47.5000114440918 0 C 73.73353576660156 0 95.00001525878906 21.26644134521484 95.00001525878906 47.49993515014648 C 95.00001525878906 73.73342895507812 73.73353576660156 94.99987030029297 47.5000114440918 94.99987030029297 C 21.26648712158203 94.99987030029297 7.62939453125e-06 73.73342895507812 7.62939453125e-06 47.49993515014648 C 7.62939453125e-06 21.26644134521484 21.26648712158203 0 47.5000114440918 0 Z" stroke="none" fill="#83793c"/>
                                    </g>
                                  </g>
                                </g>
                              </g>
                            </g>
                          </g>
                        </g>
                      </g>
                    </g>
                  </g>
                </g>
              </g>
            </g>
          </g>
        </g>
      </g>
    </g>
    <g id="Grupo_1207050" data-name="Grupo 1207050" transform="translate(-910.25 -2281.049)">
      <g id="_x34__Rank" transform="translate(925.987 2280.068)">
        <g id="XMLID_4422_" transform="translate(0.24 19.319)">
          <g id="XMLID_4450_" transform="translate(0 0)">
            <g id="XMLID_815_">
              <g id="XMLID_115_" transform="translate(12.908 1.237)">
                <g id="XMLID_125_" transform="translate(24.207)">
                  <path id="XMLID_788_" d="M314.413,34.483l-3.554,3.463.839,4.89-4.393-2.309-4.391,2.309.839-4.89L300.2,34.483l4.911-.714,2.2-4.45,2.2,4.45Z" transform="translate(-300.2 -29.32)" fill="#fc1b70"/>
                </g>
                <g id="XMLID_124_" transform="translate(24.819 26.07)">
                  <path id="XMLID_786_" d="M305.14,240.01h12.4v4.946h-12.4Z" transform="translate(-305.14 -240.01)" fill="#79cdff"/>
                </g>
                <g id="XMLID_123_" transform="translate(24.81 19.857)">
                  <path id="XMLID_783_" d="M305.079,196.013v4.946h-.009V189.8h12.412v6.213Z" transform="translate(-305.07 -189.8)" fill="#79cdff"/>
                </g>
                <g id="XMLID_122_" transform="translate(24.81 31.015)">
                  <path id="XMLID_781_" d="M305.079,284.924V279.98h12.4v24.834H305.07V284.924Z" transform="translate(-305.07 -279.98)" fill="#79cdff"/>
                </g>
                <g id="XMLID_121_" transform="translate(12.411 31.015)">
                  <path id="XMLID_779_" d="M217.259,279.98v4.944h-12.4V279.98Z" transform="translate(-204.86 -279.98)" fill="#535598"/>
                </g>
                <g id="XMLID_120_" transform="translate(12.399 24.834)">
                  <path id="XMLID_777_" d="M217.181,230.02V236.2h-12.4v-1.236h-.011V230.02Z" transform="translate(-204.77 -230.02)" fill="#6767a9"/>
                </g>
                <g id="XMLID_119_" transform="translate(12.411 35.96)">
                  <path id="XMLID_775_" d="M204.869,324.884V319.94h12.391v19.889h-12.4V324.884Z" transform="translate(-204.86 -319.94)" fill="#6767a9"/>
                </g>
                <g id="XMLID_118_" transform="translate(0.007 35.96)">
                  <path id="XMLID_773_" d="M104.62,319.94h12.392v4.944H104.62Z" transform="translate(-104.62 -319.94)" fill="#ffb144"/>
                </g>
                <g id="XMLID_117_" transform="translate(0 29.779)">
                  <path id="XMLID_771_" d="M104.567,276.171v4.944h-.007V269.99h12.4v6.181Z" transform="translate(-104.56 -269.99)" fill="#ffcf57"/>
                </g>
                <g id="XMLID_116_" transform="translate(0 40.904)">
                  <path id="XMLID_769_" d="M104.567,359.9h12.392v14.945h-12.4V359.9Z" transform="translate(-104.56 -359.9)" fill="#ffcf57"/>
                </g>
              </g>
              <g id="XMLID_97_">
                <g id="XMLID_114_" transform="translate(48.893 55.849)">
                  <path id="XMLID_706_" d="M408.3,473.155H396.617a1.237,1.237,0,1,1,0-2.475H408.3a1.237,1.237,0,0,1,0,2.475Z" transform="translate(-395.38 -470.68)"/>
                </g>
                <g id="XMLID_113_" transform="translate(0 55.849)">
                  <path id="XMLID_705_" d="M13.148,473.155H1.477a1.237,1.237,0,0,1,0-2.475H13.148a1.237,1.237,0,0,1,0,2.475Z" transform="translate(-0.24 -470.68)"/>
                </g>
                <g id="XMLID_112_" transform="translate(24.07 24.834)">
                  <path id="XMLID_704_" d="M196.007,253.51a1.237,1.237,0,0,1-1.237-1.237V221.257a1.237,1.237,0,0,1,1.237-1.237h12.411a1.237,1.237,0,0,1,0,2.475H197.245v29.778A1.237,1.237,0,0,1,196.007,253.51Z" transform="translate(-194.77 -220.02)"/>
                </g>
                <g id="XMLID_111_" transform="translate(24.081 55.849)">
                  <path id="XMLID_703_" d="M208.5,473.155H196.1a1.237,1.237,0,1,1,0-2.475h12.4a1.237,1.237,0,1,1,0,2.475Z" transform="translate(-194.86 -470.68)"/>
                </g>
                <g id="XMLID_110_" transform="translate(36.481 19.857)">
                  <path id="XMLID_700_" d="M308.719,218.267H296.307a1.237,1.237,0,0,1-1.237-1.237V181.037a1.237,1.237,0,0,1,1.237-1.237h12.412a1.237,1.237,0,0,1,1.237,1.237v35.992A1.237,1.237,0,0,1,308.719,218.267Zm-11.174-2.475h9.937V182.275h-9.937Z" transform="translate(-295.07 -179.8)"/>
                </g>
                <g id="XMLID_109_" transform="translate(11.671 29.779)">
                  <path id="XMLID_695_" d="M108.208,288.534H95.8A1.237,1.237,0,0,1,94.56,287.3v-26.07A1.237,1.237,0,0,1,95.8,259.99h12.4a1.247,1.247,0,0,1,1.248,1.237V287.3A1.237,1.237,0,0,1,108.208,288.534ZM97.035,286.06h9.936V262.465H97.035Z" transform="translate(-94.56 -259.99)"/>
                </g>
                <g id="XMLID_108_" transform="translate(24.078 31.015)">
                  <path id="XMLID_692_" d="M208.479,277.4H196.067a1.237,1.237,0,0,1-1.237-1.237v-4.944a1.237,1.237,0,0,1,1.237-1.237h12.4a1.245,1.245,0,0,1,1.246,1.237v4.944A1.237,1.237,0,0,1,208.479,277.4ZM197.3,274.924h9.937v-2.47H197.3Z" transform="translate(-194.83 -269.98)"/>
                </g>
                <g id="XMLID_105_" transform="translate(11.678 35.96)">
                  <path id="XMLID_689_" d="M108.269,317.359H95.857a1.237,1.237,0,0,1-1.237-1.237v-4.944a1.237,1.237,0,0,1,1.237-1.237h12.392a1.254,1.254,0,0,1,1.257,1.237v4.944A1.237,1.237,0,0,1,108.269,317.359Zm-11.174-2.475h9.937v-2.47H97.095Z" transform="translate(-94.62 -309.94)"/>
                </g>
                <g id="XMLID_101_" transform="translate(36.489 26.07)">
                  <path id="XMLID_686_" d="M308.788,237.43H296.377a1.237,1.237,0,0,1-1.237-1.237v-4.946a1.237,1.237,0,0,1,1.237-1.237h12.411a1.237,1.237,0,0,1,1.237,1.237v4.946A1.237,1.237,0,0,1,308.788,237.43Zm-11.173-2.475h9.936v-2.471h-9.936Z" transform="translate(-295.14 -230.01)"/>
                </g>
                <g id="XMLID_100_" transform="translate(35.878)">
                  <path id="XMLID_683_" d="M302.936,35.311a1.235,1.235,0,0,1-.575-.142l-3.817-2.006-3.816,2.006a1.237,1.237,0,0,1-1.8-1.3l.729-4.249-3.088-3.009a1.237,1.237,0,0,1,.686-2.111l4.267-.62,1.907-3.866a1.237,1.237,0,0,1,2.219,0l1.908,3.866,4.267.62a1.237,1.237,0,0,1,.686,2.111l-3.088,3.009.729,4.249a1.238,1.238,0,0,1-1.22,1.447Zm-4.392-4.784a1.237,1.237,0,0,1,.576.142l2.173,1.142-.415-2.419a1.238,1.238,0,0,1,.356-1.1l1.758-1.713-2.43-.353a1.237,1.237,0,0,1-.931-.677l-1.086-2.2-1.086,2.2a1.237,1.237,0,0,1-.932.677l-2.43.353,1.758,1.713a1.238,1.238,0,0,1,.356,1.1l-.415,2.419,2.172-1.142A1.235,1.235,0,0,1,298.544,30.527Z" transform="translate(-290.2 -19.319)"/>
                </g>
                <g id="XMLID_99_" transform="translate(26.52 10)">
                  <path id="XMLID_682_" d="M217.716,110.03a1.238,1.238,0,0,1-1.159-1.669l1.514-4.066-2.932-1.877a1.237,1.237,0,0,1,1.334-2.084l3.773,2.415a1.237,1.237,0,0,1,.492,1.474l-1.862,5A1.238,1.238,0,0,1,217.716,110.03Z" transform="translate(-214.569 -100.138)"/>
                </g>
                <g id="XMLID_98_" transform="translate(5.861 12.415)">
                  <path id="XMLID_681_" d="M59.055,132.079H48.847a1.237,1.237,0,0,1,0-2.475H58.5l5.811-6.542a1.237,1.237,0,0,1,.494-.338l8.043-2.988a1.237,1.237,0,0,1,.862,2.32l-7.754,2.881-5.976,6.727a1.237,1.237,0,0,1-.925.416Z" transform="translate(-47.61 -119.658)"/>
                </g>
              </g>
            </g>
          </g>
        </g>
      </g>
    </g>
  </g>
</svg>
