<svg xmlns="http://www.w3.org/2000/svg" xmlns:xlink="http://www.w3.org/1999/xlink" width="108" height="108" viewBox="0 0 108 108">
  <defs>
    <filter id="Trazado_904820" x="0" y="0" width="108" height="108" filterUnits="userSpaceOnUse">
      <feOffset dy="3" input="SourceAlpha"/>
      <feGaussianBlur stdDeviation="3" result="blur"/>
      <feFlood flood-opacity="0.161"/>
      <feComposite operator="in" in2="blur"/>
      <feComposite in="SourceGraphic"/>
    </filter>
  </defs>
  <g id="Grupo_1202146" data-name="Grupo 1202146" transform="translate(9 6)">
    <g id="Grupo_1173585" data-name="Grupo 1173585" transform="translate(0 0)">
      <g id="Grupo_1173428" data-name="Grupo 1173428">
        <g id="Grupo_1171958" data-name="Grupo 1171958">
          <g id="Grupo_1167341" data-name="Grupo 1167341">
            <g id="Grupo_1166792" data-name="Grupo 1166792">
              <g transform="matrix(1, 0, 0, 1, -9, -6)" filter="url(#Trazado_904820)">
                <g id="Trazado_904820-2" data-name="Trazado 904820" transform="translate(9 6)" fill="#edf3fc">
                  <path d="M 44.99999618530273 88.49996948242188 C 39.12687301635742 88.49996948242188 33.43022155761719 87.35004425048828 28.06829643249512 85.08214569091797 C 22.88852119445801 82.89128112792969 18.23629570007324 79.75457000732422 14.24084663391113 75.75911712646484 C 10.24540901184082 71.763671875 7.108683586120605 67.11144256591797 4.917821407318115 61.93168258666992 C 2.649921178817749 56.56974411010742 1.499996185302734 50.87310409545898 1.499996185302734 44.99998092651367 C 1.499996185302734 39.12685775756836 2.649921178817749 33.43020629882812 4.917821407318115 28.06828117370605 C 7.108683586120605 22.88851928710938 10.24540901184082 18.23629379272461 14.24084663391113 14.24084377288818 C 18.23629570007324 10.24540615081787 22.88852119445801 7.108693599700928 28.06829643249512 4.917830944061279 C 33.43022155761719 2.649930953979492 39.12687301635742 1.500005960464478 44.99999618530273 1.500005960464478 C 50.87311935424805 1.500005960464478 56.56977081298828 2.649930953979492 61.93169784545898 4.917830944061279 C 67.11147308349609 7.108693599700928 71.76369476318359 10.24540615081787 75.75914764404297 14.24084377288818 C 79.75458526611328 18.23629379272461 82.89131164550781 22.88851928710938 85.08216857910156 28.06828117370605 C 87.35007476806641 33.43020629882812 88.5 39.12685775756836 88.5 44.99998092651367 C 88.5 50.87310409545898 87.35007476806641 56.56974411010742 85.08216857910156 61.93168258666992 C 82.89131164550781 67.11144256591797 79.75458526611328 71.763671875 75.75914764404297 75.75911712646484 C 71.76369476318359 79.75457000732422 67.11147308349609 82.89128112792969 61.93169784545898 85.08214569091797 C 56.56977081298828 87.35004425048828 50.87311935424805 88.49996948242188 44.99999618530273 88.49996948242188 Z" stroke="none"/>
                  <path d="M 44.99999618530273 2.999992370605469 C 39.32870864868164 2.999992370605469 33.82865142822266 4.110054016113281 28.65262603759766 6.299324035644531 C 23.65165710449219 8.414566040039062 19.15968322753906 11.44332122802734 15.301513671875 15.30150604248047 C 11.44333648681641 19.15968322753906 8.414566040039062 23.65164184570312 6.299339294433594 28.65261077880859 C 4.110054016113281 33.82863616943359 2.999992370605469 39.32869338989258 2.999992370605469 44.99998092651367 C 2.999992370605469 50.67126846313477 4.110054016113281 56.17131042480469 6.299339294433594 61.34735107421875 C 8.414566040039062 66.34832763671875 11.44333648681641 70.84027862548828 15.301513671875 74.69845581054688 C 19.15968322753906 78.55662536621094 23.65165710449219 81.58539581298828 28.65262603759766 83.70062255859375 C 33.82865142822266 85.88990783691406 39.32870864868164 86.99996948242188 44.99999618530273 86.99996948242188 C 50.67128372192383 86.99996948242188 56.17134094238281 85.88990783691406 61.34736633300781 83.70062255859375 C 66.34834289550781 81.58539581298828 70.84030914306641 78.55662536621094 74.69847869873047 74.69845581054688 C 78.55665588378906 70.84027862548828 81.58542633056641 66.34832763671875 83.70065307617188 61.34735107421875 C 85.88993835449219 56.17131042480469 87 50.67126846313477 87 44.99998092651367 C 87 39.32869338989258 85.88993835449219 33.82863616943359 83.70065307617188 28.65261077880859 C 81.58542633056641 23.65164184570312 78.55665588378906 19.15968322753906 74.69847869873047 15.30150604248047 C 70.84030914306641 11.44332122802734 66.34834289550781 8.414566040039062 61.34736633300781 6.299324035644531 C 56.17134094238281 4.110054016113281 50.67128372192383 2.999992370605469 44.99999618530273 2.999992370605469 M 44.99999618530273 -7.62939453125e-06 C 69.85281372070312 -7.62939453125e-06 90 20.14716339111328 90 44.99998092651367 C 90 69.852783203125 69.85281372070312 89.99996948242188 44.99999618530273 89.99996948242188 C 20.14717864990234 89.99996948242188 -7.62939453125e-06 69.852783203125 -7.62939453125e-06 44.99998092651367 C -7.62939453125e-06 20.14716339111328 20.14717864990234 -7.62939453125e-06 44.99999618530273 -7.62939453125e-06 Z" stroke="none" fill="#2f4f7e"/>
                </g>
              </g>
            </g>
          </g>
        </g>
      </g>
    </g>
    <g id="world_13269813" transform="translate(10.208 -0.843)">
      <g id="Grupo_1206866" data-name="Grupo 1206866" transform="translate(7.5 19.914)">
        <g id="Grupo_1206862" data-name="Grupo 1206862" transform="translate(6.599 0)">
          <path id="Trazado_1049805" data-name="Trazado 1049805" d="M273.4,25.034h-5.12V21a1.086,1.086,0,0,1,1.086-1.086h2.948A1.086,1.086,0,0,1,273.4,21v4.034Z" transform="translate(-246.235 -19.914)" fill="#c68d7a"/>
          <path id="Trazado_1049806" data-name="Trazado 1049806" d="M218.006,432.172h-16.37a.669.669,0,0,1-.669-.669v-2.635h17.709V431.5A.669.669,0,0,1,218.006,432.172Z" transform="translate(-186.317 -383.954)" fill="#aa6a51"/>
          <path id="Trazado_1049807" data-name="Trazado 1049807" d="M353.342,273.584V249.118a1.881,1.881,0,0,1,1.875-1.875h0a1.546,1.546,0,0,1,1.546,1.546v24.8a.549.549,0,0,1-.549.549h-2.323A.549.549,0,0,1,353.342,273.584Z" transform="translate(-321.958 -222.276)" fill="#bc7c63"/>
          <path id="Trazado_1049808" data-name="Trazado 1049808" d="M174.642,342.245l-2.509.22H146.8a.868.868,0,0,1-.868-.868V338H175.51v3.379A.868.868,0,0,1,174.642,342.245Z" transform="translate(-137.328 -303.064)" fill="#c68d7a"/>
          <path id="Trazado_1049809" data-name="Trazado 1049809" d="M384.491,338v4.466h2.729a.868.868,0,0,0,.868-.868V338Z" transform="translate(-349.686 -303.064)" fill="#bc7c63"/>
          <path id="Trazado_1049810" data-name="Trazado 1049810" d="M115.331,81.87a.769.769,0,0,1-.769.768l-3.954.22H68.737c-1.668,0-1.031-.443-1.031-.989V51.2a1.125,1.125,0,0,1,1.12-1.13h41.451l3.954.22a1.125,1.125,0,0,1,1.12,1.13Z" transform="translate(-67.587 -46.761)" fill="#eef5f6"/>
          <path id="Trazado_1049811" data-name="Trazado 1049811" d="M458.688,50.073h-4.394a1.125,1.125,0,0,1,1.12,1.13l-.022,30.887a.769.769,0,0,1-.769.768h4.394a.769.769,0,0,0,.769-.768l.022-30.887A1.125,1.125,0,0,0,458.688,50.073Z" transform="translate(-411.823 -46.761)" fill="#deecf1"/>
        </g>
        <g id="Grupo_1206864" data-name="Grupo 1206864" transform="translate(19.302 8.995)">
          <path id="Trazado_1049812" data-name="Trazado 1049812" d="M207.285,132.574V113.9a.658.658,0,0,0-.658-.658l-3.954-.22H183.249v19.767a.658.658,0,0,0,.658.658h18.766l3.954-.22A.658.658,0,0,0,207.285,132.574Z" transform="translate(-183.249 -111.796)" fill="#ffe077"/>
          <path id="Trazado_1049813" data-name="Trazado 1049813" d="M362.5,113.027H358.11a.658.658,0,0,1,.658.658v19.109a.658.658,0,0,1-.658.658H362.5a.658.658,0,0,0,.658-.658V113.685A.658.658,0,0,0,362.5,113.027Z" transform="translate(-338.905 -111.796)" fill="#ffd05b"/>
          <path id="Trazado_1049814" data-name="Trazado 1049814" d="M255.6,102.44v10.065a.329.329,0,0,0,.5.282l3.514-2.108a.329.329,0,0,1,.339,0l.717.43,2.576,1.458a.329.329,0,0,0,.5-.282v-9.626a.621.621,0,0,0-.621-.621l-2.856-.22h-4.047A.621.621,0,0,0,255.6,102.44Z" transform="translate(-247.652 -101.819)" fill="#857e87"/>
          <g id="Grupo_1206863" data-name="Grupo 1206863" transform="translate(12.394)">
            <path id="Trazado_1049815" data-name="Trazado 1049815" d="M299.4,101.819h-3.3a.621.621,0,0,1,.621.621v8.67l2.8,1.678a.33.33,0,0,0,.5-.283V102.44A.621.621,0,0,0,299.4,101.819Z" transform="translate(-296.102 -101.819)" fill="#766e7a"/>
          </g>
        </g>
        <g id="Grupo_1206865" data-name="Grupo 1206865" transform="translate(0 7.84)">
          <path id="Trazado_1049816" data-name="Trazado 1049816" d="M33.26,340.025l-2.452,11.811H8.041a.541.541,0,0,1-.541-.541V339.749a4.162,4.162,0,0,1,3.264-4.066l5.211-1.152c1,1.753,2.093,2.716,3.894,2.949a7.068,7.068,0,0,0,.935.057q.36,0,.688-.026c1.939-.152,3.033-1.007,3.892-2.981l2.743.607,1.87.821A4.162,4.162,0,0,1,33.26,340.025Z" transform="translate(-7.5 -307.818)" fill="#ff7e92"/>
          <path id="Trazado_1049817" data-name="Trazado 1049817" d="M198.327,344.072v11.546a.541.541,0,0,1-.541.541h-2.511v-12.6a4.319,4.319,0,0,0-3.016-4.175l2.8.619A4.162,4.162,0,0,1,198.327,344.072Z" transform="translate(-171.967 -312.141)" fill="#ff5f7a"/>
          <path id="Trazado_1049818" data-name="Trazado 1049818" d="M94.078,279.212a4.762,4.762,0,0,1-9.408,0l.454-.1a2.007,2.007,0,0,0,1.575-1.96v-4.766h5.352v4.766a2.007,2.007,0,0,0,1.575,1.96Z" transform="translate(-76.195 -252.498)" fill="#bc7c63"/>
          <path id="Trazado_1049819" data-name="Trazado 1049819" d="M44.8,106.562h0a5.475,5.475,0,0,0-.333-4.57l-1.213-2.849c-1.7-3.993-4.559-6.539-8.757-6.539h0c-.525,0-1.733-.146-1.733-.146a10.589,10.589,0,0,0-8.1,6.442l-1.219,2.865a7.206,7.206,0,0,0-.133,5.29v0a6.69,6.69,0,0,0,6.251,4.47l9.622-.019c.041,0,.079-.019.12-.019A7.363,7.363,0,0,0,44.8,106.562Z" transform="translate(-21.185 -92.33)" fill="#857e87"/>
          <path id="Trazado_1049820" data-name="Trazado 1049820" d="M125.554,106.006a6.828,6.828,0,0,1-6.2,4.472,7.3,7.3,0,0,0,3.029-3.737,7.922,7.922,0,0,0-.133-5.553L121.033,98.2a10.784,10.784,0,0,0-8.13-6.77,10.2,10.2,0,0,1,1.6-.127,10.6,10.6,0,0,1,9.7,6.568l1.213,2.849A7.2,7.2,0,0,1,125.554,106.006Z" transform="translate(-101.327 -91.3)" fill="#766e7a"/>
          <path id="Trazado_1049821" data-name="Trazado 1049821" d="M71.075,177.852l2.93-.018a4.8,4.8,0,0,0,4.574-3.441h3.235a1.334,1.334,0,0,1,1.334,1.334v4a8.7,8.7,0,0,1-5.47,8.08h0a2.081,2.081,0,0,1-1.546,0h0a8.7,8.7,0,0,1-5.47-8.08v-1.463A.416.416,0,0,1,71.075,177.852Z" transform="translate(-63.724 -165.267)" fill="#c68d7a"/>
        </g>
      </g>
      <g id="Grupo_1206870" data-name="Grupo 1206870" transform="translate(7.5 19.914)">
        <g id="Grupo_1206867" data-name="Grupo 1206867" transform="translate(6.718 0)">
          <line id="Línea_1212" data-name="Línea 1212" x2="11.196" transform="translate(19.838 44.914)" fill="none" stroke="#000" stroke-linecap="round" stroke-linejoin="round" stroke-miterlimit="10" stroke-width="1"/>
          <line id="Línea_1213" data-name="Línea 1213" x1="11.124" transform="translate(19.838 48.218)" fill="none" stroke="#000" stroke-linecap="round" stroke-linejoin="round" stroke-miterlimit="10" stroke-width="1"/>
          <line id="Línea_1214" data-name="Línea 1214" y1="4.494" transform="translate(34.686 47.363)" fill="none" stroke="#000" stroke-linecap="round" stroke-linejoin="round" stroke-miterlimit="10" stroke-width="1"/>
          <line id="Línea_1215" data-name="Línea 1215" y1="3.857" transform="translate(34.686 39.662)" fill="none" stroke="#000" stroke-linecap="round" stroke-linejoin="round" stroke-miterlimit="10" stroke-width="1"/>
          <line id="Línea_1216" data-name="Línea 1216" y1="12.195" transform="translate(31.265 39.662)" fill="none" stroke="#000" stroke-linecap="round" stroke-linejoin="round" stroke-miterlimit="10" stroke-width="1"/>
          <path id="Trazado_1049822" data-name="Trazado 1049822" d="M253.628,50.076h5.035a1.125,1.125,0,0,1,1.12,1.129V81.731a1.126,1.126,0,0,1-1.12,1.13H229.59" transform="translate(-211.917 -46.763)" fill="none" stroke="#000" stroke-linecap="round" stroke-linejoin="round" stroke-miterlimit="10" stroke-width="1"/>
          <path id="Trazado_1049823" data-name="Trazado 1049823" d="M68.67,56.693V51.205a1.125,1.125,0,0,1,1.121-1.129h36.746" transform="translate(-68.67 -46.763)" fill="none" stroke="#000" stroke-linecap="round" stroke-linejoin="round" stroke-miterlimit="10" stroke-width="1"/>
          <path id="Trazado_1049824" data-name="Trazado 1049824" d="M268.276,22.91V20.788a.874.874,0,0,1,.874-.874h3.373a.874.874,0,0,1,.874.874v1.977" transform="translate(-246.354 -19.914)" fill="none" stroke="#000" stroke-linecap="round" stroke-linejoin="round" stroke-miterlimit="10" stroke-width="1"/>
          <path id="Trazado_1049825" data-name="Trazado 1049825" d="M267.739,351.32v2.135a.868.868,0,0,1-.868.868H249.294" transform="translate(-229.456 -314.922)" fill="none" stroke="#000" stroke-linecap="round" stroke-linejoin="round" stroke-miterlimit="10" stroke-width="1"/>
        </g>
        <g id="Grupo_1206868" data-name="Grupo 1206868" transform="translate(19.302 8.995)">
          <line id="Línea_1217" data-name="Línea 1217" x1="6.747" transform="translate(0.809 1.231)" fill="none" stroke="#000" stroke-linecap="round" stroke-linejoin="round" stroke-miterlimit="10" stroke-width="1"/>
          <path id="Trazado_1049826" data-name="Trazado 1049826" d="M288.232,113.026h6.974a.658.658,0,0,1,.658.658v19.109a.659.659,0,0,1-.658.659h-12.7" transform="translate(-271.608 -111.795)" fill="none" stroke="#000" stroke-linecap="round" stroke-linejoin="round" stroke-miterlimit="10" stroke-width="1"/>
          <path id="Trazado_1049827" data-name="Trazado 1049827" d="M183.25,267.486v2.8a.659.659,0,0,0,.658.659h6.4" transform="translate(-183.25 -249.291)" fill="none" stroke="#000" stroke-linecap="round" stroke-linejoin="round" stroke-miterlimit="10" stroke-width="1"/>
          <path id="Trazado_1049828" data-name="Trazado 1049828" d="M255.6,102.44v10.647l4.182-2.509,4.182,2.509V102.44a.621.621,0,0,0-.621-.621h-7.123A.621.621,0,0,0,255.6,102.44Z" transform="translate(-247.652 -101.819)" fill="none" stroke="#000" stroke-linecap="round" stroke-linejoin="round" stroke-miterlimit="10" stroke-width="1"/>
          <line id="Línea_1218" data-name="Línea 1218" x2="8.364" transform="translate(7.946 16.705)" fill="none" stroke="#000" stroke-linecap="round" stroke-linejoin="round" stroke-miterlimit="10" stroke-width="1"/>
        </g>
        <g id="Grupo_1206869" data-name="Grupo 1206869" transform="translate(0 7.84)">
          <path id="Trazado_1049829" data-name="Trazado 1049829" d="M24.637,174.816l-.306.748a6.7,6.7,0,0,0-.059,4.927v0a6.7,6.7,0,0,0,5.908,4.3" transform="translate(-22.037 -165.643)" fill="none" stroke="#000" stroke-linecap="round" stroke-linejoin="round" stroke-miterlimit="10" stroke-width="1"/>
          <path id="Trazado_1049830" data-name="Trazado 1049830" d="M44.68,96.92a10.168,10.168,0,0,1,18.506.69l1.472,3.59a6.7,6.7,0,0,1-5.8,9.226" transform="translate(-40.597 -91.296)" fill="none" stroke="#000" stroke-linecap="round" stroke-linejoin="round" stroke-miterlimit="10" stroke-width="1"/>
          <path id="Trazado_1049831" data-name="Trazado 1049831" d="M18,288.953v2.919a2.007,2.007,0,0,1-1.574,1.96l-5.665,1.252A4.162,4.162,0,0,0,7.5,299.148v12.115" transform="translate(-7.5 -267.245)" fill="none" stroke="#000" stroke-linecap="round" stroke-linejoin="round" stroke-miterlimit="10" stroke-width="1"/>
          <path id="Trazado_1049832" data-name="Trazado 1049832" d="M162.376,311.263V299.148a4.162,4.162,0,0,0-3.264-4.064l-5.665-1.252a2.007,2.007,0,0,1-1.574-1.96v-2.919" transform="translate(-136.016 -267.245)" fill="none" stroke="#000" stroke-linecap="round" stroke-linejoin="round" stroke-miterlimit="10" stroke-width="1"/>
          <line id="Línea_1219" data-name="Línea 1219" transform="translate(10.307 33.432)" fill="none" stroke="#000" stroke-linecap="round" stroke-linejoin="round" stroke-miterlimit="10" stroke-width="1"/>
          <line id="Línea_1220" data-name="Línea 1220" transform="translate(10.307 36.971)" fill="none" stroke="#000" stroke-linecap="round" stroke-linejoin="round" stroke-miterlimit="10" stroke-width="1"/>
          <line id="Línea_1221" data-name="Línea 1221" transform="translate(10.307 40.509)" fill="none" stroke="#000" stroke-linecap="round" stroke-linejoin="round" stroke-miterlimit="10" stroke-width="1"/>
          <path id="Trazado_1049833" data-name="Trazado 1049833" d="M70.661,177.606l3.344-.02a4.8,4.8,0,0,0,4.574-3.441h3.235a1.334,1.334,0,0,1,1.334,1.334v4a8.7,8.7,0,0,1-5.47,8.08h0a2.081,2.081,0,0,1-1.546,0h0a8.7,8.7,0,0,1-5.47-8.08Z" transform="translate(-63.724 -165.046)" fill="none" stroke="#000" stroke-linecap="round" stroke-linejoin="round" stroke-miterlimit="10" stroke-width="1"/>
          <path id="Trazado_1049834" data-name="Trazado 1049834" d="M112.471,254.489a3.333,3.333,0,0,0,3.3,0" transform="translate(-100.942 -236.566)" fill="none" stroke="#000" stroke-linecap="round" stroke-linejoin="round" stroke-miterlimit="10" stroke-width="1"/>
          <path id="Trazado_1049835" data-name="Trazado 1049835" d="M111.391,143.511a3.434,3.434,0,0,0,3.445,3.364" transform="translate(-99.981 -137.776)" fill="none" stroke="#000" stroke-linecap="round" stroke-linejoin="round" stroke-miterlimit="10" stroke-width="1"/>
          <path id="Trazado_1049836" data-name="Trazado 1049836" d="M95.975,334.432a4.467,4.467,0,0,1-8.881.04" transform="translate(-78.352 -307.729)" fill="none" stroke="#000" stroke-linecap="round" stroke-linejoin="round" stroke-miterlimit="10" stroke-width="1"/>
          <line id="Línea_1222" data-name="Línea 1222" y2="13.31" transform="translate(13.18 30.708)" fill="none" stroke="#000" stroke-linecap="round" stroke-linejoin="round" stroke-miterlimit="10" stroke-width="1"/>
          <line id="Línea_1223" data-name="Línea 1223" y1="8.988" transform="translate(21.088 35.03)" fill="none" stroke="#000" stroke-linecap="round" stroke-linejoin="round" stroke-miterlimit="10" stroke-width="1"/>
          <line id="Línea_1224" data-name="Línea 1224" y1="8.988" transform="translate(5.272 35.03)" fill="none" stroke="#000" stroke-linecap="round" stroke-linejoin="round" stroke-miterlimit="10" stroke-width="1"/>
        </g>
      </g>
    </g>
  </g>
</svg>
