<svg xmlns="http://www.w3.org/2000/svg" xmlns:xlink="http://www.w3.org/1999/xlink" width="400" height="392.765" viewBox="0 0 400 392.765">
  <defs>
    <clipPath id="clip-path">
      <rect id="Rectángulo_417805" data-name="Rectángulo 417805" width="400" height="392.765" fill="#27454a" stroke="#707070" stroke-width="1" opacity="0.38"/>
    </clipPath>
    <clipPath id="clip-path-2">
      <rect id="Rectángulo_417779" data-name="Rectángulo 417779" width="314.72" height="218.314" fill="none"/>
    </clipPath>
    <clipPath id="clip-path-3">
      <rect id="Rectángulo_417780" data-name="Rectángulo 417780" width="72.681" height="73.359" fill="none"/>
    </clipPath>
    <clipPath id="clip-path-4">
      <rect id="Rectángulo_417781" data-name="Rectángulo 417781" width="42.464" height="113.563" fill="none"/>
    </clipPath>
    <clipPath id="clip-path-5">
      <rect id="Rectángulo_417782" data-name="Rectángulo 417782" width="27.674" height="97.031" fill="none"/>
    </clipPath>
    <clipPath id="clip-path-6">
      <rect id="Rectángulo_417783" data-name="Rectángulo 417783" width="12.678" height="16.065" fill="none"/>
    </clipPath>
    <clipPath id="clip-path-7">
      <rect id="Rectángulo_417784" data-name="Rectángulo 417784" width="12.677" height="16.065" fill="none"/>
    </clipPath>
    <clipPath id="clip-path-8">
      <rect id="Rectángulo_417785" data-name="Rectángulo 417785" width="7.066" height="12.618" fill="none"/>
    </clipPath>
    <clipPath id="clip-path-9">
      <rect id="Rectángulo_417786" data-name="Rectángulo 417786" width="13.966" height="7.275" fill="none"/>
    </clipPath>
    <clipPath id="clip-path-11">
      <rect id="Rectángulo_417788" data-name="Rectángulo 417788" width="46.92" height="70.674" fill="none"/>
    </clipPath>
    <clipPath id="clip-path-12">
      <rect id="Rectángulo_417795" data-name="Rectángulo 417795" width="16.65" height="20.046" fill="none"/>
    </clipPath>
    <clipPath id="clip-path-13">
      <rect id="Rectángulo_417796" data-name="Rectángulo 417796" width="29.845" height="20.046" fill="none"/>
    </clipPath>
    <clipPath id="clip-path-14">
      <rect id="Rectángulo_417797" data-name="Rectángulo 417797" width="77.715" height="20.046" fill="none"/>
    </clipPath>
    <clipPath id="clip-path-15">
      <rect id="Rectángulo_417798" data-name="Rectángulo 417798" width="26.269" height="2.52" fill="none"/>
    </clipPath>
    <clipPath id="clip-path-16">
      <rect id="Rectángulo_417799" data-name="Rectángulo 417799" width="21.077" height="14.157" fill="none"/>
    </clipPath>
    <clipPath id="clip-path-17">
      <rect id="Rectángulo_417800" data-name="Rectángulo 417800" width="20.757" height="13.942" fill="none"/>
    </clipPath>
    <clipPath id="clip-path-18">
      <rect id="Rectángulo_417801" data-name="Rectángulo 417801" width="27.659" height="13.942" fill="none"/>
    </clipPath>
    <clipPath id="clip-path-19">
      <rect id="Rectángulo_417803" data-name="Rectángulo 417803" width="20.039" height="50.551" fill="none"/>
    </clipPath>
    <clipPath id="clip-path-20">
      <rect id="Rectángulo_417804" data-name="Rectángulo 417804" width="119.554" height="10.56" fill="none"/>
    </clipPath>
  </defs>
  <g id="Enmascarar_grupo_1098758" data-name="Enmascarar grupo 1098758" clip-path="url(#clip-path)">
    <g id="Rectángulo_417777" data-name="Rectángulo 417777" fill="#27454a" stroke="#707070" stroke-width="1" opacity="0.38">
      <rect width="304" height="392.765" stroke="none"/>
      <rect x="0.5" y="0.5" width="303" height="391.765" fill="none"/>
    </g>
    <g id="Grupo_1202156" data-name="Grupo 1202156" transform="translate(22.37 21.444)">
      <g id="Grupo_1202152" data-name="Grupo 1202152" transform="translate(0 0)">
        <rect id="Rectángulo_417778" data-name="Rectángulo 417778" width="324.933" height="230.702" transform="translate(8.163)" fill="#fff2e3"/>
        <path id="Trazado_1047615" data-name="Trazado 1047615" d="M0,0H314.72V218.314H0Z" transform="translate(13.27 6.194)" fill="#2c4556"/>
        <g id="Grupo_1202151" data-name="Grupo 1202151" transform="translate(13.27 5.827)">
          <g id="Grupo_1202150" data-name="Grupo 1202150">
            <g id="Grupo_1202149" data-name="Grupo 1202149" opacity="0.46">
              <g id="Grupo_1202148" data-name="Grupo 1202148">
                <g id="Grupo_1202147" data-name="Grupo 1202147" clip-path="url(#clip-path-2)">
                  <path id="Trazado_1047616" data-name="Trazado 1047616" d="M359.069,34.623S109.4,40.17,80.037,57.526s8.511,18.875,37.73,43.757S48.034,202.092,44.349,252.937V34.623Z" transform="translate(-44.349 -34.623)" fill="#1a2d38"/>
                </g>
              </g>
            </g>
            <line id="Línea_1014" data-name="Línea 1014" y1="9.508" x2="15.883" transform="translate(273.524 141.292)" fill="none" stroke="#d3cabe" stroke-miterlimit="10" stroke-width="1"/>
            <path id="Trazado_1047617" data-name="Trazado 1047617" d="M69.981,175.006a2.876,2.876,0,1,0,2.876,2.876A2.876,2.876,0,0,0,69.981,175.006Z" transform="translate(219.426 -36.59)" fill="none" stroke="#d3cabe" stroke-miterlimit="10" stroke-width="1"/>
            <path id="Trazado_1047618" data-name="Trazado 1047618" d="M86.091,184.146a2.876,2.876,0,1,0,2.875,2.876A2.876,2.876,0,0,0,86.091,184.146Z" transform="translate(187.433 -36.718)" fill="none" stroke="#d3cabe" stroke-miterlimit="10" stroke-width="1"/>
            <path id="Trazado_1047619" data-name="Trazado 1047619" d="M322.859,159.454l.215,30.769a21.239,21.239,0,1,1-14.575.049L308,159.5" transform="translate(-269.131 -36.372)" fill="none" stroke="#d3cabe" stroke-miterlimit="10" stroke-width="1"/>
            <path id="Trazado_1047620" data-name="Trazado 1047620" d="M333.705,207.346a18.281,18.281,0,1,1-35.653.121" transform="translate(-269.167 -37.043)" fill="none" stroke="#d3cabe" stroke-miterlimit="10" stroke-width="1"/>
            <path id="Trazado_1047621" data-name="Trazado 1047621" d="M298.083,207.437c.006,1.3,8.075,2.324,18.025,2.29s18.012-1.114,18.008-2.413-8.074-2.324-18.024-2.29S298.079,206.138,298.083,207.437Z" transform="translate(-269.574 -37.011)" fill="none" stroke="#d3cabe" stroke-miterlimit="10" stroke-width="1"/>
            <path id="Trazado_1047622" data-name="Trazado 1047622" d="M306.278,156.692a2.743,2.743,0,0,0,2.753,2.735l14.86-.051a2.743,2.743,0,1,0-.019-5.486l-14.86.05A2.744,2.744,0,0,0,306.278,156.692Z" transform="translate(-270.163 -36.294)" fill="none" stroke="#d3cabe" stroke-miterlimit="10" stroke-width="1"/>
            <path id="Trazado_1047623" data-name="Trazado 1047623" d="M309.707,217.78a1.933,1.933,0,1,0,.808-2.611A1.931,1.931,0,0,0,309.707,217.78Z" transform="translate(-260.049 -37.15)" fill="none" stroke="#d3cabe" stroke-miterlimit="10" stroke-width="1"/>
            <path id="Trazado_1047624" data-name="Trazado 1047624" d="M322.51,217.125a1.933,1.933,0,1,0,.807-2.612A1.933,1.933,0,0,0,322.51,217.125Z" transform="translate(-285.475 -37.141)" fill="none" stroke="#d3cabe" stroke-miterlimit="10" stroke-width="1"/>
            <path id="Trazado_1047625" data-name="Trazado 1047625" d="M316.284,224.728a1.933,1.933,0,1,0,.807-2.612A1.934,1.934,0,0,0,316.284,224.728Z" transform="translate(-273.11 -37.247)" fill="none" stroke="#d3cabe" stroke-miterlimit="10" stroke-width="1"/>
            <path id="Trazado_1047626" data-name="Trazado 1047626" d="M302.915,83.89H323.3l10.191,17.651L323.3,119.193H302.915l-10.191-17.651Z" transform="translate(-263.663 -35.313)" fill="none" stroke="#d3cabe" stroke-miterlimit="10" stroke-width="1"/>
            <path id="Trazado_1047627" data-name="Trazado 1047627" d="M294.2,70.893H309l7.4,12.815L309,96.523H294.2l-7.4-12.815Z" transform="translate(-240.726 -35.131)" fill="none" stroke="#d3cabe" stroke-miterlimit="10" stroke-width="1"/>
            <path id="Trazado_1047628" data-name="Trazado 1047628" d="M63.7,148.051a2.983,2.983,0,1,0,2.984-2.984A2.984,2.984,0,0,0,63.7,148.051Z" transform="translate(225.984 -36.171)" fill="none" stroke="#d3cabe" stroke-miterlimit="10" stroke-width="0.5"/>
            <path id="Trazado_1047629" data-name="Trazado 1047629" d="M335.886,58.166a9.517,9.517,0,1,0,9.518-9.518A9.517,9.517,0,0,0,335.886,58.166Z" transform="translate(-327.652 -34.82)" fill="none" stroke="#d3cabe" stroke-miterlimit="10" stroke-width="1.268"/>
            <path id="Trazado_1047630" data-name="Trazado 1047630" d="M340.711,138.1a4.759,4.759,0,1,0,4.758-4.758A4.759,4.759,0,0,0,340.711,138.1Z" transform="translate(-327.718 -36.006)" fill="none" stroke="#d3cabe" stroke-miterlimit="10" stroke-width="1"/>
          </g>
        </g>
        <path id="Trazado_1047631" data-name="Trazado 1047631" d="M35.86,272.735H367.18a4.971,4.971,0,0,0,4.97-4.97v-.1a4.971,4.971,0,0,0-4.97-4.97H35.86a4.97,4.97,0,0,0-4.97,4.97v.1a4.97,4.97,0,0,0,4.97,4.97" transform="translate(-30.89 -31.969)" fill="#b5aaa0"/>
      </g>
      <g id="Grupo_1202155" data-name="Grupo 1202155" transform="translate(250.297 25.853)">
        <g id="Grupo_1202154" data-name="Grupo 1202154" transform="translate(0 0)">
          <g id="Grupo_1202153" data-name="Grupo 1202153" clip-path="url(#clip-path-3)">
            <path id="Trazado_1047632" data-name="Trazado 1047632" d="M1.017,31.858a31.4,31.4,0,1,0,31.4-31.4,31.4,31.4,0,0,0-31.4,31.4" transform="translate(7.994 -0.064)" fill="#f3de50"/>
            <path id="Trazado_1047633" data-name="Trazado 1047633" d="M1.872,32.045c.06,12.729,8.044,24.665,20.107,29.037C34.124,65.481,48.035,61.02,56,51.041a31.536,31.536,0,0,0,2.442-35.371A30.837,30.837,0,0,0,44.857,3.391,29.55,29.55,0,0,0,26.02,1.577a31.48,31.48,0,0,0-23.788,25.7,32.78,32.78,0,0,0-.36,4.772c0,.354-1.874.071-1.872-.5A31.882,31.882,0,0,1,21.425,1.692,33.462,33.462,0,0,1,57.288,11.727a31.832,31.832,0,0,1,2.576,37.012A32.32,32.32,0,0,1,25.706,62.832C12.8,60.034,2.384,49.578.371,36.41A33.242,33.242,0,0,1,0,31.543c0-.35,1.869-.074,1.872.5" transform="translate(8.074 0)" fill="#ae9b18"/>
            <path id="Trazado_1047634" data-name="Trazado 1047634" d="M64,69.281a6.358,6.358,0,1,0,6.358-6.357A6.358,6.358,0,0,0,64,69.281" transform="translate(-59.163 -8.72)" fill="#f3de50"/>
            <path id="Trazado_1047635" data-name="Trazado 1047635" d="M64.8,69.467a5.917,5.917,0,0,0,3.627,5.52c2.2.755,4.769-.556,6.047-2.347a6.307,6.307,0,0,0,.368-6.7,4.77,4.77,0,0,0-5.571-2.48,6.28,6.28,0,0,0-4.472,6c0,.325-1.88.044-1.872-.5a6.587,6.587,0,0,1,4.727-6.217,8.278,8.278,0,0,1,8.248,2.4A6.552,6.552,0,0,1,76.441,73a7.07,7.07,0,0,1-7.561,2.748,7.179,7.179,0,0,1-5.952-6.786c0-.311,1.864-.053,1.872.5" transform="translate(-59.027 -8.656)" fill="#ae9b18"/>
            <path id="Trazado_1047636" data-name="Trazado 1047636" d="M77.013,81.155a2.7,2.7,0,1,0,2.7-2.7,2.7,2.7,0,0,0-2.7,2.7" transform="translate(-76.077 -10.872)" fill="#f3de50"/>
            <path id="Trazado_1047637" data-name="Trazado 1047637" d="M77.8,81.343a2.609,2.609,0,0,0,.445,1.417,2.276,2.276,0,0,0,.44.478,2.048,2.048,0,0,0,.215.146c.128.081.039.02.009.006l.129.059c-.095-.039-.111-.047-.049-.024.138.055-.235-.059-.005,0L78.88,83.4c.086.014.1.016.029.008-.136-.022.1.007.106.007-.132-.007.029,0,.063,0a2.153,2.153,0,0,0,.66-.144,2.545,2.545,0,0,0,1.1-.861A2.627,2.627,0,0,0,81,79.6a2.263,2.263,0,0,0-.4-.517c-.042-.041-.085-.08-.13-.119-.012-.01-.127-.1-.064-.053-.037-.028-.078-.053-.117-.078s-.08-.049-.121-.072c.073.04.068.04-.012,0,0,0-.213-.084.018.008-.227-.09.209.049-.03-.009.05.012.177.079.038.012.137.066.058.007-.026,0-.137-.01.172-.015-.062,0,.037,0-.208.013-.143.006a2.566,2.566,0,0,0-.35.072A2.593,2.593,0,0,0,77.8,81.343c0,.311-1.879.034-1.871-.5a2.883,2.883,0,0,1,2.1-2.706,4.338,4.338,0,0,1,2.41.082,4.2,4.2,0,0,1,2.025,1.188,2.859,2.859,0,0,1,.28,3.44,3.4,3.4,0,0,1-3.724,1.2c-1.606-.359-3.072-1.439-3.1-3.209,0-.3,1.864-.043,1.871.5" transform="translate(-75.932 -10.81)" fill="#ae9b18"/>
          </g>
        </g>
        <path id="Trazado_1047638" data-name="Trazado 1047638" d="M-18.044-.988a5.812,5.812,0,0,1-3.165-.86,5.74,5.74,0,0,1-2.128-2.469A8.9,8.9,0,0,1-24.1-8.165,8.813,8.813,0,0,1-23.338-12a5.754,5.754,0,0,1,2.128-2.456,5.812,5.812,0,0,1,3.165-.86,5.509,5.509,0,0,1,3.07.86,4.1,4.1,0,0,1,1.76,2.306h-.3l.3-2.892H-9.94q-.082.846-.15,1.719t-.068,1.719V-1.261h-3.384L-13.569-4.1h.327a4.027,4.027,0,0,1-1.774,2.265A5.545,5.545,0,0,1-18.044-.988Zm.955-2.62A3.264,3.264,0,0,0-14.5-4.74a5.112,5.112,0,0,0,.982-3.424,5.056,5.056,0,0,0-.982-3.411,3.282,3.282,0,0,0-2.592-1.119,3.282,3.282,0,0,0-2.592,1.119,5.056,5.056,0,0,0-.982,3.411A5.163,5.163,0,0,0-19.7-4.74,3.254,3.254,0,0,0-17.089-3.608ZM1.441-.988a5.443,5.443,0,0,1-3.056-.86A4.113,4.113,0,0,1-3.362-4.181h.3v2.92H-6.445V-21.344h3.411v9.114h-.327a4.125,4.125,0,0,1,1.774-2.251,5.525,5.525,0,0,1,3.029-.832,5.793,5.793,0,0,1,3.193.873,5.846,5.846,0,0,1,2.128,2.469,8.813,8.813,0,0,1,.764,3.834A8.813,8.813,0,0,1,6.762-4.3,5.722,5.722,0,0,1,4.62-1.848,5.881,5.881,0,0,1,1.441-.988ZM.486-3.608A3.323,3.323,0,0,0,3.092-4.727a5.008,5.008,0,0,0,1-3.411,5.064,5.064,0,0,0-1-3.424A3.3,3.3,0,0,0,.486-12.694a3.282,3.282,0,0,0-2.592,1.119,5.056,5.056,0,0,0-.982,3.411A5.112,5.112,0,0,0-2.106-4.74,3.264,3.264,0,0,0,.486-3.608Zm16.32,2.62a7.64,7.64,0,0,1-3.725-.873,6.049,6.049,0,0,1-2.469-2.5,8.041,8.041,0,0,1-.873-3.861,7.7,7.7,0,0,1,.887-3.82,6.046,6.046,0,0,1,2.469-2.428,7.76,7.76,0,0,1,3.711-.846,8.523,8.523,0,0,1,2.66.423,5.394,5.394,0,0,1,2.115,1.214L20.544-11.3a4.968,4.968,0,0,0-1.651-1.023,5.093,5.093,0,0,0-1.787-.341,3.625,3.625,0,0,0-2.851,1.146,4.845,4.845,0,0,0-1.023,3.329,4.953,4.953,0,0,0,1.023,3.356,3.583,3.583,0,0,0,2.851,1.173,5.211,5.211,0,0,0,1.76-.327A5.076,5.076,0,0,0,20.544-5l1.037,2.347a5.789,5.789,0,0,1-2.142,1.228A8.2,8.2,0,0,1,16.806-.988Z" transform="translate(41.874 42.412)" fill="#2c4556"/>
      </g>
    </g>
    <g id="Grupo_1202211" data-name="Grupo 1202211" transform="translate(-48.672 12.432)">
      <g id="Grupo_1202182" data-name="Grupo 1202182" transform="translate(0)">
        <line id="Línea_1015" data-name="Línea 1015" x1="15.16" y2="10.403" transform="translate(307.805 214.411)" fill="#2c4556"/>
        <line id="Línea_1016" data-name="Línea 1016" x1="15.16" y2="10.403" transform="translate(307.805 214.411)" fill="none" stroke="#d3cabe" stroke-miterlimit="10" stroke-width="1"/>
        <line id="Línea_1017" data-name="Línea 1017" y2="21.782" transform="translate(339.577 224.002)" fill="#2c4556"/>
        <path id="Trazado_1047639" data-name="Trazado 1047639" d="M132.959,213.227A3.036,3.036,0,1,0,136,216.263a3.036,3.036,0,0,0-3.036-3.036" transform="translate(174.614 8.711)" fill="#2c4556"/>
        <path id="Trazado_1047640" data-name="Trazado 1047640" d="M132.959,213.227A3.036,3.036,0,1,0,136,216.263,3.036,3.036,0,0,0,132.959,213.227Z" transform="translate(174.614 8.711)" fill="none" stroke="#d3cabe" stroke-miterlimit="10" stroke-width="1"/>
        <path id="Trazado_1047641" data-name="Trazado 1047641" d="M270.771,53.672a5.024,5.024,0,1,0,5.023-5.023A5.024,5.024,0,0,0,270.771,53.672Z" transform="translate(-116.812 1.987)" fill="none" stroke="#d3cabe" stroke-miterlimit="10" stroke-width="0.634"/>
        <path id="Trazado_1047642" data-name="Trazado 1047642" d="M163.667,254.3l44.92,1.529,44.92-1.529s34.236,70.661,1.3,113.563H162.364c-32.933-42.9,1.3-113.563,1.3-113.563" transform="translate(22.617 10.389)" fill="#2c4556"/>
        <g id="Grupo_1202159" data-name="Grupo 1202159" transform="translate(249.27 264.689)" opacity="0.45">
          <g id="Grupo_1202158" data-name="Grupo 1202158">
            <g id="Grupo_1202157" data-name="Grupo 1202157" clip-path="url(#clip-path-4)">
              <path id="Trazado_1047643" data-name="Trazado 1047643" d="M176.214,367.862H163.575c23.342-42.993-15.518-112.649-15.518-112.649l26.854-.914s34.236,70.662,1.3,113.563" transform="translate(-148.057 -254.299)" fill="#1b2e38"/>
            </g>
          </g>
        </g>
        <path id="Trazado_1047644" data-name="Trazado 1047644" d="M138.7,155.218c2.019-14.3,9.253-30.115,23.722-34.995,6.4-2.159,24.226-8.411,32.934-16.319s4.079-22.881,4.079-22.881h19.516S214.322,96,223.028,103.905s26.531,14.16,32.934,16.319c14.469,4.88,21.7,20.694,23.722,34.995,1.314,9.306,1.843,54.8,2.054,85.45a21.465,21.465,0,0,1-27.348,20.789l-.278-.079S230.894,274,209.191,274s-44.92-12.618-44.92-12.618l-27.76,7.907s.167-99.767,2.187-114.067" transform="translate(22.013 3.31)" fill="#4b72b7"/>
        <path id="Trazado_1047645" data-name="Trazado 1047645" d="M248.691,153.692c2.019-14.3,9.253-30.115,23.722-34.995.283-.095.6-.2.923-.313,2.18,17.013,6.9,61.332-.923,75.8-4.43,8.2-15.1,10.52-25.433,10.616.317-23.021.843-44.964,1.711-51.111" transform="translate(-87.98 4.837)" fill="#fff2e3"/>
        <path id="Trazado_1047646" data-name="Trazado 1047646" d="M164.8,153.692c-2.019-14.3-9.253-30.115-23.722-34.995-.283-.095-.6-.2-.923-.313-2.181,17.013-6.9,61.332.923,75.8,4.43,8.2,15.1,10.52,25.433,10.616-.317-23.021-.843-44.964-1.711-51.111" transform="translate(136.997 4.837)" fill="#fff2e3"/>
        <path id="Trazado_1047647" data-name="Trazado 1047647" d="M274.609,217.906l-39.834,15.386s.415,12.618-16.042,5.552l-10.9-2.524s-8.265,49.237-38.141,60.066a183.217,183.217,0,0,1,12.737-39.371l-27.76,7.907s.057-33.965.506-65.1L281,187.853Z" transform="translate(3.857 7.675)" fill="#2c4556"/>
        <path id="Trazado_1047648" data-name="Trazado 1047648" d="M234.53,122.417s-8.669,18.7-22.042,13.145-1.218-26.38-1.218-26.38Z" transform="translate(-3.326 4.461)" fill="#fff2e3"/>
        <path id="Trazado_1047649" data-name="Trazado 1047649" d="M179.176,122.43s8.669,18.7,22.042,13.145.58-26.734.58-26.734Z" transform="translate(52.028 4.447)" fill="#fff2e3"/>
        <path id="Trazado_1047650" data-name="Trazado 1047650" d="M251.545,153.6c1.8-12.78,7.779-26.762,19.355-33.075,2.111,8.451,4.785,23.491,5.377,46.871,1.009,39.873.841,92.364.841,92.364l-27.76,7.907s.168-99.767,2.187-114.067" transform="translate(-90.834 4.924)" fill="#e48464"/>
        <path id="Trazado_1047651" data-name="Trazado 1047651" d="M162.1,153.6c-1.8-12.78-7.778-26.762-19.355-33.075-2.111,8.451-4.785,23.491-5.377,46.871-1.009,39.873-.841,92.364-.841,92.364l.278.079a21.464,21.464,0,0,0,27.348-20.789c-.209-30.646-.74-76.144-2.054-85.45" transform="translate(139.6 4.924)" fill="#e48464"/>
        <line id="Línea_1018" data-name="Línea 1018" y2="150.43" transform="translate(231.204 126.878)" fill="none" stroke="#2c4556" stroke-miterlimit="10" stroke-width="0.776"/>
        <path id="Trazado_1047652" data-name="Trazado 1047652" d="M195.478,147.6a3.742,3.742,0,1,0,3.742-3.742,3.742,3.742,0,0,0-3.742,3.742" transform="translate(39.414 5.877)" fill="#fff2e3"/>
        <path id="Trazado_1047653" data-name="Trazado 1047653" d="M195.478,180.255a3.742,3.742,0,1,0,3.742-3.742,3.742,3.742,0,0,0-3.742,3.742" transform="translate(39.414 7.211)" fill="#fff2e3"/>
        <path id="Trazado_1047654" data-name="Trazado 1047654" d="M195.478,212.9a3.742,3.742,0,1,0,3.742-3.742,3.742,3.742,0,0,0-3.742,3.742" transform="translate(39.414 8.546)" fill="#fff2e3"/>
        <path id="Trazado_1047655" data-name="Trazado 1047655" d="M195.478,245.556a3.742,3.742,0,1,0,3.742-3.742,3.742,3.742,0,0,0-3.742,3.742" transform="translate(39.414 9.88)" fill="#fff2e3"/>
        <path id="Trazado_1047656" data-name="Trazado 1047656" d="M97,258.2s9.485-6.966,18.234-21.434,24.227-66.3,28.937-74.2S163,137.143,164.691,129.929c1.514-6.45-1.346-8.344-1.851-9.589-3.533-5.216-5.888-7.739-8.58-7.739,4.374-14.805,3.7-21.666-1.01-15.88s-11.777,25.93-12.787,26.289c-5.72-.651-9.784,4.438-10.108,14.175.014,8.728.351,5.026-1.668,10.746s-29.846,54.766-37.13,65.91-14.4,35.989-9.667,47.625c7.43,1.878,10.542.749,15.1-3.269" transform="translate(197.067 3.868)" fill="#e48464"/>
        <path id="Trazado_1047657" data-name="Trazado 1047657" d="M92.053,121.9s7.066,3.556,9.253,6.079,4.711,5.047,2.187,7.235-6.393,1.009-8.748,0a18.018,18.018,0,0,1,1.178,11.776" transform="translate(245.479 4.981)" fill="none" stroke="#a0533f" stroke-miterlimit="10" stroke-width="0.75"/>
        <line id="Línea_1019" data-name="Línea 1019" x1="6.123" y2="15.057" transform="translate(345.204 116.469)" fill="none" stroke="#a0533f" stroke-miterlimit="10" stroke-width="0.75"/>
        <path id="Trazado_1047658" data-name="Trazado 1047658" d="M256.781,18.311s1.061-14.563-16.5-17.592S209.514,4.5,202.365,15.862s-1.6,34.237-12.7,52.07,1.263,34.49,1.263,34.49S213.887,89.2,233.069,85.766c21.955-51.735,23.712-67.455,23.712-67.455" transform="translate(-3.547 0)" fill="#7c2e25"/>
        <g id="Grupo_1202162" data-name="Grupo 1202162" transform="translate(181.488 5.39)" opacity="0.17" style="mix-blend-mode: overlay;isolation: isolate">
          <g id="Grupo_1202161" data-name="Grupo 1202161">
            <g id="Grupo_1202160" data-name="Grupo 1202160" clip-path="url(#clip-path-5)">
              <path id="Trazado_1047659" data-name="Trazado 1047659" d="M244.719,15.649A33.508,33.508,0,0,1,255.063,5.178s-11.1,15.443-10.344,31.127-3.436,24.981-6.056,33.854c-2.771,9.382,2.074,20.661,4.847,26.729-6.148,2.973-10.232,5.321-10.232,5.321s-12.365-16.656-1.263-34.489,5.552-40.715,12.7-52.071" transform="translate(-227.39 -5.178)" fill="#fff"/>
            </g>
          </g>
        </g>
        <path id="Trazado_1047660" data-name="Trazado 1047660" d="M158.458,18.311S157.4,3.748,174.958.719,205.725,4.5,212.874,15.862s1.6,34.237,12.7,52.07-1.263,34.49-1.263,34.49S201.351,89.2,182.17,85.766c-21.955-51.735-23.712-67.455-23.712-67.455" transform="translate(50.716 0)" fill="#872a21"/>
        <path id="Trazado_1047661" data-name="Trazado 1047661" d="M193.9,103.905c8.707-7.907,4.079-22.881,4.079-22.881H217.5S212.867,96,221.574,103.905a48.619,48.619,0,0,0,8.785,6.072,26.32,26.32,0,0,1-45.882.354,50.031,50.031,0,0,0,9.423-6.426" transform="translate(23.467 3.31)" fill="#e48464"/>
        <path id="Trazado_1047662" data-name="Trazado 1047662" d="M197.909,86.829a32.386,32.386,0,0,0-1.073-5.8h19.516s-2.664,8.635-.134,16.254c-10.172-1.147-16.763-8.538-18.309-10.449" transform="translate(24.61 3.31)" fill="#380403"/>
        <path id="Trazado_1047663" data-name="Trazado 1047663" d="M229.8,57.963c2.207,5.422,7.519,8.383,11.866,6.614s6.08-7.6,3.873-13.02-7.52-8.383-11.866-6.614-6.08,7.6-3.873,13.02" transform="translate(-38.856 1.815)" fill="#e48464"/>
        <path id="Trazado_1047664" data-name="Trazado 1047664" d="M172.469,82.4l1.325-13.068L199.41,54.354l5.341,5.047s5.55,22.083-3.763,33.653c-8.106-3.708-18.533-7.81-28.034-9.51-.167-.391-.321-.761-.484-1.148" transform="translate(59.933 2.221)" fill="#420e0c"/>
        <g id="Grupo_1202165" data-name="Grupo 1202165" transform="translate(189.99 50.837)" opacity="0.32">
          <g id="Grupo_1202164" data-name="Grupo 1202164">
            <g id="Grupo_1202163" data-name="Grupo 1202163" clip-path="url(#clip-path-6)">
              <path id="Trazado_1047665" data-name="Trazado 1047665" d="M234.586,57.783a11.758,11.758,0,0,1-.227-8.72c4.16-1.075,8.927,1.839,10.988,6.9a11.755,11.755,0,0,1,.227,8.719c-4.16,1.075-8.927-1.838-10.988-6.9" transform="translate(-233.628 -48.841)" fill="#590a06"/>
            </g>
          </g>
        </g>
        <path id="Trazado_1047666" data-name="Trazado 1047666" d="M183.312,57.963c-2.207,5.422-7.519,8.383-11.866,6.614s-6.08-7.6-3.873-13.02,7.519-8.383,11.866-6.614,6.08,7.6,3.873,13.02" transform="translate(88.147 1.815)" fill="#e48464"/>
        <path id="Trazado_1047667" data-name="Trazado 1047667" d="M185.222,17.592c1.465,4.5,4.932,12.731,11.094,14.543,6.393.841-2.355-4.711-1.683-10.936,20.047,11.345,32.186,14.578,38.83,14.64.937,15.817-1.1,32.127-4.719,39-4.374,8.3-8.707,15.307-21.493,16.345-12.786-1.038-17.119-8.042-21.493-16.345s-6.436-30.358-3.744-48.692a21.085,21.085,0,0,1,3.207-8.558" transform="translate(23.952 0.719)" fill="#e48464"/>
        <g id="Grupo_1202168" data-name="Grupo 1202168" transform="translate(259.74 50.837)" opacity="0.32">
          <g id="Grupo_1202167" data-name="Grupo 1202167">
            <g id="Grupo_1202166" data-name="Grupo 1202166" clip-path="url(#clip-path-7)">
              <path id="Trazado_1047668" data-name="Trazado 1047668" d="M178.335,57.783a11.758,11.758,0,0,0,.227-8.72c-4.16-1.075-8.927,1.839-10.988,6.9a11.755,11.755,0,0,0-.227,8.719c4.16,1.075,8.927-1.838,10.988-6.9" transform="translate(-166.616 -48.841)" fill="#590a06"/>
            </g>
          </g>
        </g>
        <path id="Trazado_1047669" data-name="Trazado 1047669" d="M229.07,53.138c-1.7-3.29-6.583-9.926-16.559-4.866a1.822,1.822,0,0,0-.825,2.368c2.525,5.627,10.44,6.242,16.421,4.672a1.527,1.527,0,0,0,.964-2.174" transform="translate(-3.568 1.897)" fill="#fff2e3"/>
        <path id="Trazado_1047670" data-name="Trazado 1047670" d="M224.629,48.106a5.33,5.33,0,0,1-2.24,7.945,16.411,16.411,0,0,1-5.643-.878,5.294,5.294,0,0,1,.833-8.626,9.813,9.813,0,0,1,7.05,1.559" transform="translate(-3.43 1.898)" fill="#651d13"/>
        <path id="Trazado_1047671" data-name="Trazado 1047671" d="M228.859,53.179a5.4,5.4,0,0,0-.236-.875,9.759,9.759,0,0,0-1.043-2.162,8.713,8.713,0,0,0-.974-1.305,10.584,10.584,0,0,0-1.318-1.295l-.81-.57a4.128,4.128,0,0,0-.883-.515c-.312-.146-.622-.312-.948-.441l-1.018-.3-.513-.134-.526-.058-1.045-.094c-.689,0-1.363.117-2.006.176-.626.156-1.218.349-1.772.524a12.647,12.647,0,0,0-1.46.715l-.626.339c-.189.124-.355.266-.516.386-.323.241-.589.47-.809.654-.437.373-.669.6-.669.6s.33-.072.875-.222c.272-.077.6-.164.963-.286A8.453,8.453,0,0,1,214.762,48c.456-.085.933-.224,1.437-.315.515-.052,1.049-.1,1.589-.192l1.661.03c.277.042.554.09.833.12l.42.05.4.119.816.216.779.32a12.313,12.313,0,0,1,1.488.741c.434.33.921.572,1.31.913.41.31.787.629,1.133.934.681.619,1.244,1.177,1.623,1.588s.6.658.6.658" transform="translate(-3.356 1.856)" fill="#590a06"/>
        <path id="Trazado_1047672" data-name="Trazado 1047672" d="M184.048,53.138c1.706-3.29,6.584-9.926,16.56-4.866a1.823,1.823,0,0,1,.824,2.368c-2.524,5.627-10.439,6.242-16.42,4.672a1.528,1.528,0,0,1-.964-2.174" transform="translate(52.857 1.897)" fill="#fff2e3"/>
        <path id="Trazado_1047673" data-name="Trazado 1047673" d="M188.214,48.106a5.33,5.33,0,0,0,2.24,7.945,16.412,16.412,0,0,0,5.643-.878,5.294,5.294,0,0,0-.833-8.626,9.813,9.813,0,0,0-7.05,1.559" transform="translate(52.994 1.898)" fill="#651d13"/>
        <path id="Trazado_1047674" data-name="Trazado 1047674" d="M184.237,53.179s.213-.253.6-.658.942-.969,1.623-1.588c.347-.3.723-.623,1.134-.934.389-.34.876-.583,1.31-.913a12.308,12.308,0,0,1,1.488-.741l.779-.32.816-.216.4-.119.419-.05c.279-.03.556-.078.833-.12l1.662-.03c.539.092,1.073.139,1.588.192.5.092.982.23,1.437.315a8.448,8.448,0,0,1,1.235.316c.362.122.691.209.963.286.545.15.875.222.875.222s-.232-.225-.668-.6c-.221-.183-.487-.412-.81-.654-.161-.12-.327-.262-.516-.386l-.626-.339a12.648,12.648,0,0,0-1.46-.715c-.554-.175-1.146-.367-1.772-.524-.643-.059-1.317-.179-2.006-.176l-1.045.094-.526.058-.513.134-1.018.3c-.326.129-.636.3-.948.441a4.128,4.128,0,0,0-.883.515l-.81.57a10.585,10.585,0,0,0-1.318,1.295,8.72,8.72,0,0,0-.974,1.305,9.763,9.763,0,0,0-1.043,2.162,5.4,5.4,0,0,0-.236.875" transform="translate(52.668 1.856)" fill="#590a06"/>
        <path id="Trazado_1047675" data-name="Trazado 1047675" d="M226.687,39.834c-3.415-.6-9.26-.9-13.525,2.69,4.406-7.337,8.809-7.507,13.993-7.431a2.366,2.366,0,0,1,2.33,2.364v.054a2.37,2.37,0,0,1-2.8,2.323" transform="translate(-5.517 1.434)" fill="#651d13"/>
        <path id="Trazado_1047676" data-name="Trazado 1047676" d="M186.377,39.834c3.415-.6,9.261-.9,13.525,2.69-4.406-7.337-8.809-7.507-13.993-7.431a2.366,2.366,0,0,0-2.331,2.364v.054a2.37,2.37,0,0,0,2.8,2.323" transform="translate(54.86 1.434)" fill="#651d13"/>
        <g id="Grupo_1202171" data-name="Grupo 1202171" transform="translate(226.661 61.622)" opacity="0.62">
          <g id="Grupo_1202170" data-name="Grupo 1202170">
            <g id="Grupo_1202169" data-name="Grupo 1202169" clip-path="url(#clip-path-8)">
              <path id="Trazado_1047677" data-name="Trazado 1047677" d="M205.806,59.2V69.971l5.047-.841-7.066,2.692Z" transform="translate(-203.787 -59.203)" fill="#651d13"/>
            </g>
          </g>
        </g>
        <path id="Trazado_1047678" data-name="Trazado 1047678" d="M214.571,73.615s-12.767,1.851-15.31-.672c3.681,4.542,9.758,5.383,15.31.672" transform="translate(23.867 2.98)" fill="#fff2e3"/>
        <g id="Grupo_1202174" data-name="Grupo 1202174" transform="translate(209.162 61.834)" opacity="0.32">
          <g id="Grupo_1202173" data-name="Grupo 1202173">
            <g id="Grupo_1202172" data-name="Grupo 1202172" clip-path="url(#clip-path-9)">
              <path id="Trazado_1047679" data-name="Trazado 1047679" d="M213.97,63.044c0-2.009,3.127-3.638,6.983-3.638s6.983,1.629,6.983,3.638-3.126,3.638-6.983,3.638-6.983-1.629-6.983-3.638" transform="translate(-213.97 -59.407)" fill="#af0808"/>
            </g>
          </g>
        </g>
        <g id="Grupo_1202177" data-name="Grupo 1202177" transform="translate(239.279 61.834)" opacity="0.32">
          <g id="Grupo_1202176" data-name="Grupo 1202176">
            <g id="Grupo_1202175" data-name="Grupo 1202175" clip-path="url(#clip-path-9)">
              <path id="Trazado_1047680" data-name="Trazado 1047680" d="M199,63.044c0-2.009-3.126-3.638-6.982-3.638s-6.983,1.629-6.983,3.638,3.126,3.638,6.983,3.638S199,65.053,199,63.044" transform="translate(-185.034 -59.407)" fill="#af0808"/>
            </g>
          </g>
        </g>
        <g id="Grupo_1202180" data-name="Grupo 1202180" transform="translate(204.761 18.311)" opacity="0.17" style="mix-blend-mode: overlay;isolation: isolate">
          <g id="Grupo_1202179" data-name="Grupo 1202179">
            <g id="Grupo_1202178" data-name="Grupo 1202178" clip-path="url(#clip-path-11)">
              <path id="Trazado_1047681" data-name="Trazado 1047681" d="M190.95,17.592c1.465,4.5,4.932,12.731,11.095,14.543,6.393.841-2.355-4.711-1.683-10.936,15.03,8.506,25.614,12.452,32.771,13.92.636,15.618,3.406,56.753-30.96,52.893-5.054-3.023-7.868-7.822-10.685-13.17-4.375-8.3-6.436-30.358-3.744-48.692a21.086,21.086,0,0,1,3.207-8.558" transform="translate(-186.537 -17.592)" fill="#fff"/>
            </g>
          </g>
        </g>
        <path id="Trazado_1047682" data-name="Trazado 1047682" d="M160.8,160.513s18.574-13.7,42.725-18.535v9.186Z" transform="translate(74.939 5.801)" fill="#fff2e3"/>
        <path id="Trazado_1047683" data-name="Trazado 1047683" d="M154.666,162.8v-2.436s32.6-13.555,49.113-14.8l-4.051,41.914-45.062-12.465Z" transform="translate(81.076 5.947)" fill="#d1beae"/>
        <path id="Trazado_1047684" data-name="Trazado 1047684" d="M201.851,159.785a6.266,6.266,0,0,0,9.918,0v2.436s-.693,8.472-4.387,8.472-5.531-8.472-5.531-8.472Z" transform="translate(23.973 6.528)" fill="#ececec"/>
        <path id="Trazado_1047685" data-name="Trazado 1047685" d="M254.105,160.513s-18.573-13.7-42.725-18.535v9.186Z" transform="translate(-28.281 5.801)" fill="#fff2e3"/>
        <path id="Trazado_1047686" data-name="Trazado 1047686" d="M260.493,162.8v-2.436s-32.6-13.555-49.113-14.8l4.051,41.914,45.062-12.465Z" transform="translate(-34.669 5.947)" fill="#d1beae"/>
        <path id="Trazado_1047687" data-name="Trazado 1047687" d="M206.761,166.54h.1a4.91,4.91,0,0,0,4.885-4.416h.025v64.351a4.91,4.91,0,0,1-4.91,4.91h-.1a4.91,4.91,0,0,1-4.91-4.91V162.124h.026a4.908,4.908,0,0,0,4.884,4.416" transform="translate(23.973 6.624)" fill="#e5ac3c"/>
        <path id="Trazado_1047688" data-name="Trazado 1047688" d="M269.192,162.672,211.38,148.726l11.156,64.148,46.656,14.148Z" transform="translate(-43.368 6.076)" fill="#ffcb57"/>
        <path id="Trazado_1047689" data-name="Trazado 1047689" d="M146.308,162.672l57.812-13.945-11.156,64.148-46.656,14.148Z" transform="translate(89.433 6.076)" fill="#bc8d2f"/>
        <path id="Trazado_1047690" data-name="Trazado 1047690" d="M211.38,148.791l1.5-1.627,56.31,13.137v2.436Z" transform="translate(-43.368 6.012)" fill="#f9d180"/>
        <path id="Trazado_1047691" data-name="Trazado 1047691" d="M204.121,148.791l-1.5-1.627L146.309,160.3v2.436Z" transform="translate(89.433 6.012)" fill="#f9d180"/>
        <path id="Trazado_1047692" data-name="Trazado 1047692" d="M217.468,196.234s-4.89-17.5-4.349-25.416c3.737,4.867,9.891,3.46,9.891,3.46l10.472-14.133.462,14.89,3.47-6.9s3.428,15.31,2.756,18.744A54.318,54.318,0,0,1,232.43,206.5a50.27,50.27,0,0,0-6.658,15.131l-6.523-1.978Z" transform="translate(-16.201 6.543)" fill="#2c4556"/>
        <path id="Trazado_1047693" data-name="Trazado 1047693" d="M211.328,266.188s2.366,15.478,13.885,15.31,18.585-12.618,23.128-27.76,13.123-43.238,18.17-48.453,10.935-14.806,11.945-21.367-1.682-5.216-1.682-5.216,2.86-8.244-.169-8.917c1.178-8.917.5-10.778-1.346-9.763s-9.589,17.294-9.589,17.294,5.719-16.952,4.206-19.307-3.029-.852-4.88,2.013-7.907,16.325-7.907,16.325-3.533,1.177-4.878-1.935-4.711-5.636-6.393-5.636-3.307,2.524-.813,5.636,3.168,14.385,2.831,16.909-2.6,14.628-8.873,22.2-25.953,34.662-27.635,52.663" transform="translate(-52.805 6.408)" fill="#e48464"/>
        <path id="Trazado_1047694" data-name="Trazado 1047694" d="M218.5,169.278s-3.406,9.884-5.172,13.418" transform="translate(5.304 6.916)" fill="none" stroke="#a0533f" stroke-miterlimit="10" stroke-width="0.75"/>
        <path id="Trazado_1047695" data-name="Trazado 1047695" d="M215.917,177.845s-1.3,6.9-2.755,9.8" transform="translate(8.052 7.266)" fill="none" stroke="#a0533f" stroke-miterlimit="10" stroke-width="0.75"/>
        <path id="Trazado_1047696" data-name="Trazado 1047696" d="M270.117,212.193c-.325-.76-13.769,15.553-19.967,30.832" transform="translate(-84.647 8.668)" fill="none" stroke="#a0533f" stroke-miterlimit="10" stroke-width="1"/>
        <path id="Trazado_1047697" data-name="Trazado 1047697" d="M262,260.582a16.185,16.185,0,0,1,12.823,6.309c-4.019,6.235-9.114,10.274-15.64,10.369-6,.088-9.512-4.069-11.506-8.073a16.22,16.22,0,0,1,14.322-8.6" transform="translate(-86.771 10.646)" fill="#c6684f"/>
        <path id="Trazado_1047698" data-name="Trazado 1047698" d="M156.831,186.338s-15.5,22.046-19.37,34.219" transform="translate(145.932 7.613)" fill="none" stroke="#a0533f" stroke-miterlimit="10" stroke-width="1"/>
        <path id="Trazado_1047699" data-name="Trazado 1047699" d="M149.447,234.985a16.274,16.274,0,0,1,10.036,3.459c-7.022,9.441-13.254,14.021-13.254,14.021-3.958,3.485-6.829,4.793-12.367,3.853a16.357,16.357,0,0,1,15.586-21.333" transform="translate(147.834 9.601)" fill="#c6684f"/>
        <path id="Trazado_1047700" data-name="Trazado 1047700" d="M202.314,15.86c2.792,4.434,3.646,10.629,4.312,17.59-2.6-2.061-6.689-4.346-13.14-6.487C180.113,22.526,173.523,7.661,170.953.03c14.3-.509,25.13,5.935,31.361,15.83" transform="translate(61.276 0)" fill="#541610"/>
        <rect id="Rectángulo_417789" data-name="Rectángulo 417789" width="445.84" height="380.333" transform="translate(0 0)" fill="none"/>
        <g id="Grupo_1202181" data-name="Grupo 1202181" transform="translate(350.963 121.516)">
          <line id="Línea_1020" data-name="Línea 1020" x1="6.218" y2="14.805" transform="translate(0.334)" fill="none" stroke="#a0533f" stroke-miterlimit="10" stroke-width="0.75"/>
          <line id="Línea_1021" data-name="Línea 1021" x1="6.234" y2="14.948" transform="translate(3.443 4.418)" fill="none" stroke="#a0533f" stroke-miterlimit="10" stroke-width="0.75"/>
          <line id="Línea_1022" data-name="Línea 1022" x1="5.747" y1="4.45" transform="translate(0 16.634)" fill="none" stroke="#a0533f" stroke-miterlimit="10" stroke-width="0.75"/>
        </g>
      </g>
      <g id="Grupo_1202210" data-name="Grupo 1202210" transform="translate(80.95 250.72)">
        <path id="Trazado_1047701" data-name="Trazado 1047701" d="M239.829,261.181s-13.769,44.88-1.269,78.315" transform="translate(-90.418 -211.415)" fill="none" stroke="#fff2e3" stroke-miterlimit="10" stroke-width="0.97"/>
        <path id="Trazado_1047702" data-name="Trazado 1047702" d="M95.957,273.09l-2.34-1.516H28.234L0,326.842H59.625Z" transform="translate(232.2 -213.846)" fill="#b2b2b2"/>
        <rect id="Rectángulo_417790" data-name="Rectángulo 417790" width="100.578" height="6.056" transform="translate(200.411 112.996)" fill="#cecece"/>
        <path id="Trazado_1047703" data-name="Trazado 1047703" d="M27.168,273.553H93.542L66.374,327.3H0Z" transform="translate(234.615 -214.308)" fill="#cecece"/>
        <path id="Trazado_1047704" data-name="Trazado 1047704" d="M46.074,311.775c2.6,3.565,8.233,3.884,12.586.712s5.775-8.633,3.177-12.2-8.232-3.883-12.584-.712-5.777,8.633-3.179,12.2" transform="translate(230.718 -219.884)" fill="#fff"/>
        <line id="Línea_1023" data-name="Línea 1023" x1="68.789" transform="translate(232.2 112.996)" fill="none" stroke="#b2b2b2" stroke-miterlimit="10" stroke-width="0.97"/>
        <rect id="Rectángulo_417791" data-name="Rectángulo 417791" width="47.194" height="6.056" transform="translate(185.005 112.996)" fill="#b2b2b2"/>
        <rect id="Rectángulo_417792" data-name="Rectángulo 417792" width="13.653" height="2.6" transform="translate(243.623 114.846)" fill="#b2b2b2"/>
        <rect id="Rectángulo_417793" data-name="Rectángulo 417793" width="7.152" height="2.6" transform="translate(221.798 114.846)" fill="#7a7774"/>
        <rect id="Rectángulo_417794" data-name="Rectángulo 417794" width="7.152" height="2.6" transform="translate(210.839 114.846)" fill="#7a7774"/>
        <path id="Trazado_1047705" data-name="Trazado 1047705" d="M318.839,345.358H283.7a10.023,10.023,0,1,1,0-20.046h35.139Z" transform="translate(-200.349 -226.414)" fill="#af1018"/>
        <path id="Trazado_1047706" data-name="Trazado 1047706" d="M318.839,345.358H283.7a10.023,10.023,0,1,1,0-20.046h35.139Z" transform="translate(-200.349 -226.414)" fill="#db5e1f"/>
        <path id="Trazado_1047707" data-name="Trazado 1047707" d="M224.578,344.471h44.006V328.556H224.578a7.552,7.552,0,0,0-7.552,7.552v.811a7.552,7.552,0,0,0,7.552,7.552" transform="translate(-106.694 -227.173)" fill="#fff"/>
        <path id="Trazado_1047708" data-name="Trazado 1047708" d="M224.578,328.556a7.552,7.552,0,0,0-7.552,7.536,7.539,7.539,0,0,1,7.372-5.966h44.185v-1.571Z" transform="translate(-106.693 -227.173)" fill="#d6c7b4"/>
        <g id="Grupo_1202185" data-name="Grupo 1202185" transform="translate(84.323 98.898)" opacity="0.35">
          <g id="Grupo_1202184" data-name="Grupo 1202184">
            <g id="Grupo_1202183" data-name="Grupo 1202183" clip-path="url(#clip-path-12)">
              <path id="Trazado_1047709" data-name="Trazado 1047709" d="M303.168,335.335h0a10.023,10.023,0,0,1,10.023-10.023h-6.627a10.023,10.023,0,1,0,0,20.046h6.627a10.023,10.023,0,0,1-10.023-10.023" transform="translate(-296.541 -325.312)" fill="#590a06"/>
            </g>
          </g>
        </g>
        <path id="Trazado_1047710" data-name="Trazado 1047710" d="M265.177,341.261l-1.846-.072c-1.174-.031-2.853-.1-4.867-.137s-4.363-.1-6.88-.114l-7.889-.05-7.888.049c-2.517.013-4.867.084-6.881.114s-3.692.107-4.867.137l-1.846.073,1.846.073c1.175.03,2.854.1,4.867.137s4.364.1,6.881.114l7.888.049,7.889-.05c2.517-.015,4.867-.083,6.88-.114s3.693-.107,4.867-.137l1.846-.072" transform="translate(-107.261 -230.057)" fill="#d3cabe"/>
        <path id="Trazado_1047711" data-name="Trazado 1047711" d="M260.329,338.829l-1.846-.072c-1.174-.031-2.853-.1-4.867-.137s-4.363-.1-6.881-.114l-7.889-.049-7.888.048c-2.517.013-4.867.083-6.88.114s-3.693.107-4.867.137l-1.846.073,1.846.073c1.174.03,2.853.1,4.867.137s4.363.1,6.88.114l7.888.049,7.889-.05c2.517-.015,4.867-.083,6.881-.114s3.693-.107,4.867-.137l1.846-.072" transform="translate(-98.697 -229.489)" fill="#d3cabe"/>
        <path id="Trazado_1047712" data-name="Trazado 1047712" d="M262.685,334.23l-1.846-.072c-1.174-.031-2.853-.1-4.867-.137s-4.363-.1-6.881-.114l-7.888-.05-7.888.049c-2.517.012-4.867.084-6.881.114s-3.692.107-4.867.137l-1.846.073,1.846.073c1.175.03,2.854.1,4.867.137s4.364.1,6.881.114l7.888.048,7.888-.049c2.518-.015,4.867-.084,6.881-.114s3.693-.106,4.867-.137l1.846-.072" transform="translate(-102.86 -228.413)" fill="#d3cabe"/>
        <path id="Trazado_1047713" data-name="Trazado 1047713" d="M225.11,342.873a7.538,7.538,0,1,1,0-15.076h44.26v-2.485H224.9a10.023,10.023,0,1,0,0,20.046H269.37v-2.485Z" transform="translate(-105.834 -226.414)" fill="#f27740"/>
        <g id="Grupo_1202188" data-name="Grupo 1202188" transform="translate(73.327 98.898)" opacity="0.2" style="mix-blend-mode: multiply;isolation: isolate">
          <g id="Grupo_1202187" data-name="Grupo 1202187">
            <g id="Grupo_1202186" data-name="Grupo 1202186" clip-path="url(#clip-path-13)">
              <path id="Trazado_1047714" data-name="Trazado 1047714" d="M323.516,325.312H303.694a10.023,10.023,0,1,0,0,20.046c0-18.623,19.822-20.046,19.822-20.046" transform="translate(-293.671 -325.312)" fill="#560410"/>
            </g>
          </g>
        </g>
        <g id="Grupo_1202191" data-name="Grupo 1202191" transform="translate(73.327 98.898)" opacity="0.16" style="mix-blend-mode: multiply;isolation: isolate">
          <g id="Grupo_1202190" data-name="Grupo 1202190">
            <g id="Grupo_1202189" data-name="Grupo 1202189" clip-path="url(#clip-path-14)">
              <path id="Trazado_1047715" data-name="Trazado 1047715" d="M305.207,325.312h-28.28c-.195,0-.388.007-.579.018v-.018H241.209a10.023,10.023,0,0,0,0,20.046h35.139v-.018c.192.011.385.018.579.018L308.9,325.647Z" transform="translate(-231.186 -325.312)" fill="#1b2942"/>
            </g>
          </g>
        </g>
        <path id="Trazado_1047716" data-name="Trazado 1047716" d="M301.825,302.932H277.01a7.079,7.079,0,1,1,0-14.157h24.815Z" transform="translate(-180.466 -217.869)" fill="#af1018"/>
        <path id="Trazado_1047717" data-name="Trazado 1047717" d="M301.825,302.932H277.01a7.079,7.079,0,1,1,0-14.157h24.815Z" transform="translate(-180.466 -217.869)" fill="#6fb590"/>
        <path id="Trazado_1047718" data-name="Trazado 1047718" d="M235.257,302.306h31.077v-11.24H235.257a5.334,5.334,0,0,0-5.334,5.334v.572a5.334,5.334,0,0,0,5.334,5.334" transform="translate(-114.325 -218.405)" fill="#fff"/>
        <path id="Trazado_1047719" data-name="Trazado 1047719" d="M235.256,291.065a5.333,5.333,0,0,0-5.333,5.322,5.324,5.324,0,0,1,5.206-4.213h31.2v-1.109Z" transform="translate(-114.324 -218.404)" fill="#d6c7b4"/>
        <g id="Grupo_1202194" data-name="Grupo 1202194" transform="translate(89.465 76.804)" opacity="0.49" style="mix-blend-mode: multiply;isolation: isolate">
          <g id="Grupo_1202193" data-name="Grupo 1202193">
            <g id="Grupo_1202192" data-name="Grupo 1202192" clip-path="url(#clip-path-15)">
              <path id="Trazado_1047720" data-name="Trazado 1047720" d="M277.274,297.654a7.143,7.143,0,0,0,.13,1.34h26.138v-2.521H277.381a7.062,7.062,0,0,0-.107,1.181" transform="translate(-277.274 -296.473)" fill="#1b2942"/>
            </g>
          </g>
        </g>
        <path id="Trazado_1047721" data-name="Trazado 1047721" d="M235.631,301.177a5.323,5.323,0,0,1,0-10.647h31.257v-1.755h-31.4a7.079,7.079,0,0,0,0,14.157h31.4v-1.755Z" transform="translate(-113.717 -217.869)" fill="#2d4f3b"/>
        <g id="Grupo_1202197" data-name="Grupo 1202197" transform="translate(89.465 70.906)" opacity="0.49" style="mix-blend-mode: multiply;isolation: isolate">
          <g id="Grupo_1202196" data-name="Grupo 1202196">
            <g id="Grupo_1202195" data-name="Grupo 1202195" clip-path="url(#clip-path-16)">
              <path id="Trazado_1047722" data-name="Trazado 1047722" d="M305.128,288.774h-14a7.079,7.079,0,1,0,0,14.157c0-13.152,14-14.157,14-14.157" transform="translate(-284.052 -288.774)" fill="#1b2942"/>
            </g>
          </g>
        </g>
        <path id="Trazado_1047723" data-name="Trazado 1047723" d="M263.179,301.608l-1.227-.083c-.781-.035-1.9-.12-3.236-.159s-2.9-.11-4.574-.138-3.459-.043-5.244-.052c-1.785.008-3.57.015-5.244.051s-3.236.1-4.574.137-2.455.125-3.236.159l-1.227.084,1.227.084c.781.035,1.9.121,3.236.159s2.9.112,4.574.137,3.459.043,5.244.051c1.785-.009,3.571-.015,5.244-.052s3.236-.1,4.574-.137,2.455-.124,3.236-.159l1.227-.083" transform="translate(-114.764 -220.769)" fill="#d3cabe"/>
        <path id="Trazado_1047724" data-name="Trazado 1047724" d="M260.406,298.335l-1.227-.036-3.236-.085-4.574-.067-5.244-.028-5.244.028-4.574.066c-2.678.058-4.463.122-4.463.122s1.785.064,4.463.122l4.574.066,5.244.028,5.244-.029,4.574-.066,3.236-.085,1.227-.036" transform="translate(-109.866 -220.054)" fill="#d3cabe"/>
        <path id="Trazado_1047725" data-name="Trazado 1047725" d="M220.985,321.2h24.439a6.971,6.971,0,0,0,0-13.943H220.985Z" transform="translate(-93.538 -222.191)" fill="#af1018"/>
        <path id="Trazado_1047726" data-name="Trazado 1047726" d="M220.985,321.2h24.439a6.971,6.971,0,0,0,0-13.943H220.985Z" transform="translate(-93.538 -222.191)" fill="#fdb03e"/>
        <path id="Trazado_1047727" data-name="Trazado 1047727" d="M285.186,320.579H254.58V309.51h30.605a5.252,5.252,0,0,1,5.252,5.252v.564a5.252,5.252,0,0,1-5.252,5.252" transform="translate(-157.318 -222.718)" fill="#fff"/>
        <path id="Trazado_1047728" data-name="Trazado 1047728" d="M285.186,309.51a5.252,5.252,0,0,1,5.252,5.241,5.244,5.244,0,0,0-5.128-4.149H254.58V309.51Z" transform="translate(-157.318 -222.718)" fill="#d6c7b4"/>
        <path id="Trazado_1047729" data-name="Trazado 1047729" d="M233.946,314.225h0a6.971,6.971,0,0,0-6.971-6.971h4.609a6.971,6.971,0,1,1,0,13.942h-4.609a6.971,6.971,0,0,0,6.971-6.971" transform="translate(-84.286 -222.191)" fill="#bc8d2f"/>
        <path id="Trazado_1047730" data-name="Trazado 1047730" d="M284.194,319.468a5.243,5.243,0,1,0,0-10.485H253.411v-1.728h30.927a6.971,6.971,0,0,1,0,13.942H253.411v-1.728Z" transform="translate(-157.294 -222.191)" fill="#bc8d2f"/>
        <g id="Grupo_1202200" data-name="Grupo 1202200" transform="translate(138.1 85.063)" opacity="0.2" style="mix-blend-mode: overlay;isolation: isolate">
          <g id="Grupo_1202199" data-name="Grupo 1202199">
            <g id="Grupo_1202198" data-name="Grupo 1202198" clip-path="url(#clip-path-17)">
              <path id="Trazado_1047731" data-name="Trazado 1047731" d="M220.985,307.254h13.786a6.971,6.971,0,0,1,0,13.943c0-12.953-13.786-13.943-13.786-13.943" transform="translate(-220.985 -307.254)" fill="#fefefe"/>
            </g>
          </g>
        </g>
        <path id="Trazado_1047732" data-name="Trazado 1047732" d="M289.974,319.983l-1.277-.065c-.814-.028-1.974-.093-3.369-.124s-3.019-.09-4.761-.1l-5.459-.044-5.458.044c-1.742.011-3.368.075-4.762.1s-2.554.1-3.368.124l-1.277.066,1.277.066c.814.027,1.974.094,3.368.124s3.02.092,4.762.1l5.458.044,5.459-.044c1.742-.013,3.368-.076,4.761-.1s2.555-.1,3.369-.124l1.277-.065" transform="translate(-161.193 -225.089)" fill="#d3cabe"/>
        <path id="Trazado_1047733" data-name="Trazado 1047733" d="M287.6,318.09l-1.278-.065c-.813-.028-1.974-.093-3.368-.124s-3.019-.09-4.761-.1l-5.459-.045-5.458.045c-1.742.011-3.368.075-4.762.1s-2.555.1-3.368.124l-1.277.066,1.277.066c.813.027,1.974.094,3.368.124s3.02.092,4.762.1l5.458.044,5.459-.044c1.742-.013,3.368-.076,4.761-.1s2.555-.1,3.368-.124l1.278-.065" transform="translate(-157.002 -224.646)" fill="#d3cabe"/>
        <path id="Trazado_1047734" data-name="Trazado 1047734" d="M291.095,313.567l-1.278-.065c-.813-.028-1.974-.093-3.368-.124s-3.019-.09-4.761-.1l-5.459-.044-5.458.044c-1.742.011-3.368.075-4.761.1s-2.556.1-3.369.124l-1.277.066,1.277.066c.813.027,1.974.094,3.369.124s3.019.092,4.761.1l5.458.044,5.459-.044c1.742-.013,3.368-.076,4.761-.1s2.555-.1,3.368-.124l1.278-.065" transform="translate(-163.172 -223.588)" fill="#d3cabe"/>
        <g id="Grupo_1202203" data-name="Grupo 1202203" transform="translate(96.117 85.063)" opacity="0.16" style="mix-blend-mode: multiply;isolation: isolate">
          <g id="Grupo_1202202" data-name="Grupo 1202202">
            <g id="Grupo_1202201" data-name="Grupo 1202201" clip-path="url(#clip-path-18)">
              <path id="Trazado_1047735" data-name="Trazado 1047735" d="M266.776,307.254v1.728h1.145v10.485h-1.145V321.2h4.64l23.019-13.943Z" transform="translate(-266.776 -307.254)" fill="#1b2942"/>
            </g>
          </g>
        </g>
        <rect id="Rectángulo_417802" data-name="Rectángulo 417802" width="4.137" height="6.245" transform="translate(142.564 76.35)" fill="#f27740"/>
        <path id="Trazado_1047736" data-name="Trazado 1047736" d="M234.615,295.83s.462.054,1.155.095c.346.014.75.044,1.183.051l1.357.022,1.357-.022c.433-.005.837-.038,1.183-.051.693-.041,1.155-.095,1.155-.095s-.462-.054-1.155-.1c-.346-.014-.75-.046-1.183-.051l-1.357-.022-1.357.022c-.433.007-.837.038-1.183.051-.693.041-1.155.1-1.155.1" transform="translate(-93.588 -219.479)" fill="#d3cabe"/>
        <path id="Trazado_1047737" data-name="Trazado 1047737" d="M367.392,196.222s28,34.074,10.058,74.4c-31.135-26.95-10.529-61.1-10.058-74.4" transform="translate(-331.303 -196.222)" fill="#599172"/>
        <path id="Trazado_1047738" data-name="Trazado 1047738" d="M367.4,196.222s13.406,48.043,10.058,74.4" transform="translate(-331.315 -196.222)" fill="none" stroke="#427824" stroke-miterlimit="10" stroke-width="1"/>
        <path id="Trazado_1047739" data-name="Trazado 1047739" d="M384.607,234.156s-6.766-5.769-12.734-6.8" transform="translate(-341.348 -203.504)" fill="none" stroke="#427824" stroke-miterlimit="10" stroke-width="1"/>
        <path id="Trazado_1047740" data-name="Trazado 1047740" d="M384.846,263.973a25.514,25.514,0,0,0-16.819-9.487" transform="translate(-338.64 -209.849)" fill="none" stroke="#427824" stroke-miterlimit="10" stroke-width="1"/>
        <path id="Trazado_1047741" data-name="Trazado 1047741" d="M361.765,247.222s2-4.718,6.367-6.643" transform="translate(-317.129 -206.597)" fill="none" stroke="#427824" stroke-miterlimit="10" stroke-width="1"/>
        <path id="Trazado_1047742" data-name="Trazado 1047742" d="M370.433,220.292s1.479-5.042,3.49-6.242" transform="translate(-329.56 -200.392)" fill="none" stroke="#427824" stroke-miterlimit="10" stroke-width="1"/>
        <path id="Trazado_1047743" data-name="Trazado 1047743" d="M363,198.863s11.481,42.58-21.474,71.945c-17.274-37.38,15.567-60.015,21.474-71.945" transform="translate(-294.619 -196.84)" fill="#6fb590"/>
        <path id="Trazado_1047744" data-name="Trazado 1047744" d="M360.557,198.863s-7.568,49.3-21.474,71.945" transform="translate(-292.177 -196.84)" fill="none" stroke="#448260" stroke-miterlimit="10" stroke-width="1"/>
        <path id="Trazado_1047745" data-name="Trazado 1047745" d="M355.834,235.685s-3.79-8.043-8.8-11.44" transform="translate(-293.542 -202.776)" fill="none" stroke="#448260" stroke-miterlimit="10" stroke-width="1"/>
        <path id="Trazado_1047746" data-name="Trazado 1047746" d="M367.562,263.925a25.516,25.516,0,0,0-11.42-15.571" transform="translate(-312.249 -208.415)" fill="none" stroke="#448260" stroke-miterlimit="10" stroke-width="1"/>
        <path id="Trazado_1047747" data-name="Trazado 1047747" d="M339.609,250.731s3.763-3.476,8.538-3.431" transform="translate(-280.169 -208.168)" fill="none" stroke="#448260" stroke-miterlimit="10" stroke-width="1"/>
        <path id="Trazado_1047748" data-name="Trazado 1047748" d="M336.583,223.806s3.424-3.985,5.751-4.25" transform="translate(-272.038 -201.679)" fill="none" stroke="#448260" stroke-miterlimit="10" stroke-width="1"/>
        <path id="Trazado_1047749" data-name="Trazado 1047749" d="M424.021,216.986s-7.614-10.744-12.648-6.538,3.494,10.015,12.648,6.538" transform="translate(-409.875 -199.321)" fill="#417556"/>
        <path id="Trazado_1047750" data-name="Trazado 1047750" d="M408.49,250.625s-.32-13.164-6.845-12.485-2.691,10.26,6.845,12.485" transform="translate(-385.552 -206.02)" fill="#417556"/>
        <path id="Trazado_1047751" data-name="Trazado 1047751" d="M406.347,212.491s-.32-13.164-6.845-12.485-2.691,10.26,6.845,12.485" transform="translate(-381.767 -197.101)" fill="#417556"/>
        <path id="Trazado_1047752" data-name="Trazado 1047752" d="M372,262.965s11.468-6.472,7.8-11.912-10.32,2.449-7.8,11.912" transform="translate(-336.935 -208.63)" fill="#417556"/>
        <path id="Trazado_1047753" data-name="Trazado 1047753" d="M406.794,279.149s-12.721-8.12-7.695-29.466-14.812-30.626-19.18-32.371" transform="translate(-369.698 -201.155)" fill="none" stroke="#133f1a" stroke-linecap="round" stroke-miterlimit="10" stroke-width="2"/>
        <path id="Trazado_1047754" data-name="Trazado 1047754" d="M398.754,227.1s.773-9.427-3.853-15.677" transform="translate(-373.184 -199.776)" fill="none" stroke="#133f1a" stroke-linecap="round" stroke-miterlimit="10" stroke-width="2"/>
        <path id="Trazado_1047755" data-name="Trazado 1047755" d="M400.284,256.785s-7.519-2.067-10.32-9.111" transform="translate(-370.884 -208.256)" fill="none" stroke="#133f1a" stroke-linecap="round" stroke-miterlimit="10" stroke-width="2"/>
        <path id="Trazado_1047756" data-name="Trazado 1047756" d="M379.3,272.967s7.033-4.365,9.075-14.8" transform="translate(-350.797 -210.71)" fill="none" stroke="#133f1a" stroke-linecap="round" stroke-miterlimit="10" stroke-width="2"/>
        <path id="Trazado_1047757" data-name="Trazado 1047757" d="M362.464,285.637h19.879s-3.064,35.959-10.815,50.551H353.4c-7.751-14.591-10.815-50.551-10.815-50.551Z" transform="translate(-316.645 -217.135)" fill="#2c4556"/>
        <g id="Grupo_1202206" data-name="Grupo 1202206" transform="translate(45.659 68.502)" opacity="0.45">
          <g id="Grupo_1202205" data-name="Grupo 1202205">
            <g id="Grupo_1202204" data-name="Grupo 1202204" clip-path="url(#clip-path-19)">
              <path id="Trazado_1047758" data-name="Trazado 1047758" d="M362.624,285.637s-3.064,35.959-10.815,50.551h-9.224c7.751-14.591,10.815-50.551,10.815-50.551Z" transform="translate(-342.585 -285.637)" fill="#1b2e38"/>
            </g>
          </g>
        </g>
        <path id="Trazado_1047759" data-name="Trazado 1047759" d="M382.343,285.637s-.252,2.958-.795,7.516H343.379c-.542-4.558-.794-7.516-.794-7.516h39.758Z" transform="translate(-316.645 -217.135)" fill="#4b72b7"/>
        <path id="Trazado_1047760" data-name="Trazado 1047760" d="M21.885,356.9a5.28,5.28,0,0,0,5.28,5.28H309.84a5.28,5.28,0,0,0,0-10.56H27.165a5.28,5.28,0,0,0-5.28,5.28" transform="translate(-3.729 -232.567)" fill="#4b72b7"/>
        <g id="Grupo_1202209" data-name="Grupo 1202209" transform="translate(191.837 119.053)" opacity="0.52">
          <g id="Grupo_1202208" data-name="Grupo 1202208">
            <g id="Grupo_1202207" data-name="Grupo 1202207" clip-path="url(#clip-path-20)">
              <path id="Trazado_1047761" data-name="Trazado 1047761" d="M21.885,356.9a5.28,5.28,0,0,0,5.28,5.28H136.159a5.28,5.28,0,1,0,0-10.56H27.165a5.28,5.28,0,0,0-5.28,5.28" transform="translate(-21.885 -351.62)" fill="#2c4556"/>
            </g>
          </g>
        </g>
      </g>
    </g>
  </g>
</svg>
