<svg xmlns="http://www.w3.org/2000/svg" xmlns:xlink="http://www.w3.org/1999/xlink" width="400" height="344.145" viewBox="0 0 400 344.145">
  <defs>
    <clipPath id="clip-path">
      <rect id="Rectángulo_417835" data-name="Rectángulo 417835" width="400" height="344.145" transform="translate(1020 5136.415)" fill="#27454a" stroke="#707070" stroke-width="1" opacity="0.38"/>
    </clipPath>
    <clipPath id="clip-path-2">
      <rect id="Rectángulo_418132" data-name="Rectángulo 418132" width="326.947" height="333.725" fill="none"/>
    </clipPath>
    <clipPath id="clip-path-3">
      <path id="Trazado_1049838" data-name="Trazado 1049838" d="M222.637,3599.261a4.97,4.97,0,0,1-3.914.682,1.838,1.838,0,0,1-.969-.323h-.646c-3.616,1.19-7.217.688-10.841.186a41.605,41.605,0,0,0-6.214-.545,42.836,42.836,0,0,0-6.032.862c-3.914.575-8.94.969-12.782.072-6.607-.431-13.393-.036-20-.036l-47.862.072c-2.19-.036-6.75-.5-8.653.467l-.036.287a4.151,4.151,0,0,0,2.513.754c2.19.072,4.416-.072,6.607-.072,6.14,0,113.569-.251,116.944-.251l20.789.072c3.231,0,6.5.108,9.73,0a19.7,19.7,0,0,1-2.477-.287c.036-.036.108-.036.144-.072,1.4-.862,2.262-.431,3.519-1.8l.144-.144-39.1-.323-.323-.036Z" transform="translate(-104.688 -3598.83)" fill="none"/>
    </clipPath>
    <linearGradient id="linear-gradient" x1="-18.626" y1="0.509" x2="-18.606" y2="0.509" gradientUnits="objectBoundingBox">
      <stop offset="0" stop-color="#00186c"/>
      <stop offset="1" stop-color="#274899"/>
    </linearGradient>
    <clipPath id="clip-path-5">
      <path id="Trazado_1049847" data-name="Trazado 1049847" d="M1163.672,3465.732a2.059,2.059,0,0,0,.144.251c.18.215,9.371,2.513,11.562,3.375a27.126,27.126,0,0,1,4.632,2.442c1.221.754,5.314,4.237,6.284,4.417a1.794,1.794,0,0,0-.18-.754c-1.652-2.693-9.659-6.75-12.746-7.719-1.323-.41-6.877-2.119-9.018-2.119a1.576,1.576,0,0,0-.676.108" transform="translate(-1163.672 -3465.624)" fill="none"/>
    </clipPath>
    <linearGradient id="linear-gradient-2" x1="-6.298" y1="0.898" x2="-6.293" y2="0.898" gradientUnits="objectBoundingBox">
      <stop offset="0" stop-color="#e67137"/>
      <stop offset="1" stop-color="#c9695b"/>
    </linearGradient>
    <clipPath id="clip-path-7">
      <path id="Trazado_1049860" data-name="Trazado 1049860" d="M1237.859,3381.368a27,27,0,0,1,1.58,5.53,37.618,37.618,0,0,1,3.483,1.508c-.323-2.083-.574-4.165-.826-6.248,5.709.251,11.526,0,17.235-.036l31.848-.036c-.108-.323-.215-.61-.323-.934a1.757,1.757,0,0,0-1.005-.4,31.185,31.185,0,0,0-3.16.072l-9.3-.072c-4.545-.037-9.1-.019-13.652,0-8.759.034-17.522.068-26.239-.286Z" transform="translate(-1237.5 -3380.471)" fill="none"/>
    </clipPath>
    <linearGradient id="linear-gradient-3" x1="-11.969" y1="0.852" x2="-11.961" y2="0.852" gradientUnits="objectBoundingBox">
      <stop offset="0" stop-color="#35d4c8"/>
      <stop offset="1" stop-color="#69c7d8"/>
    </linearGradient>
    <clipPath id="clip-path-8">
      <path id="Trazado_1049893" data-name="Trazado 1049893" d="M2030.854,706.555c0,3.2,1.975,6.212,4.2,8.366,4.165,4.021,9.048,7.109,9.3,13.5.251,7.145-6.643,12.89-2.549,20a27.549,27.549,0,0,1,1.185-6.212,49.876,49.876,0,0,1,3.267-5.709c3.088-5.529,1.328-10.413-2.3-15.116-3.231-4.237-11.023-10.233-10.233-16.157a6.077,6.077,0,0,1,.969-2.406l-.61-.251c0-.072-.036-.143-.036-.215a4.446,4.446,0,0,1,.9-3.447l.18-.251-.287-.215c-2.082,2.047-4.021,5.1-3.985,8.115" transform="translate(-2030.854 -698.44)" fill="none"/>
    </clipPath>
    <linearGradient id="linear-gradient-4" x1="-3.177" y1="7.262" x2="-3.176" y2="7.262" gradientUnits="objectBoundingBox">
      <stop offset="0" stop-color="#233363"/>
      <stop offset="1" stop-color="#475fa4"/>
    </linearGradient>
    <clipPath id="clip-path-10">
      <path id="Trazado_1049951" data-name="Trazado 1049951" d="M1757.974,2910.187a32.387,32.387,0,0,0,4.021,2.442c1.257.059,2.544.033,3.834.007a39.871,39.871,0,0,1,5.466.137l1.293-2.944.826-1.867c-.431-.5-1.077-.862-1.544-1.364-1.616-1.831-2.442-4.309-3.339-6.535a6.661,6.661,0,0,1-.467,1.652,50.49,50.49,0,0,0-4.38-4.38c-1.077-.9-2.406-1.652-3.375-2.585a3.076,3.076,0,0,1-.467-.718,30.939,30.939,0,0,0-13.357-2.621c1.149,6.93,5.745,14.685,11.49,18.778" transform="translate(-1746.484 -2891.408)" fill="none"/>
    </clipPath>
    <linearGradient id="linear-gradient-5" x1="-5.223" y1="2.707" x2="-5.22" y2="2.707" gradientUnits="objectBoundingBox">
      <stop offset="0" stop-color="#4a9bc8"/>
      <stop offset="1" stop-color="#618fe0"/>
    </linearGradient>
  </defs>
  <g id="Enmascarar_grupo_1098759" data-name="Enmascarar grupo 1098759" transform="translate(-1020 -5136.415)" clip-path="url(#clip-path)">
    <g id="Rectángulo_417807" data-name="Rectángulo 417807" transform="translate(1116 5138.037)" fill="#27454a" stroke="#707070" stroke-width="1" opacity="0.38">
      <rect width="304" height="342.522" stroke="none"/>
      <rect x="0.5" y="0.5" width="303" height="341.522" fill="none"/>
    </g>
    <g id="Grupo_1206872" data-name="Grupo 1206872" transform="translate(1056.526 5146.832)">
      <g id="Grupo_1206873" data-name="Grupo 1206873" transform="translate(0 0.002)">
        <g id="Grupo_1206872-2" data-name="Grupo 1206872" transform="translate(0 0)" clip-path="url(#clip-path-2)">
          <path id="Trazado_1049837" data-name="Trazado 1049837" d="M548.047,210.991l.251-.18a9.148,9.148,0,0,0,.072-1.4c.826-.718,8.115-.323,9.73-.323-.251,6.1-.108,5.96-.108,8.366-3.124-.036-6.283-.18-9.371,0a4.386,4.386,0,0,1-.108-1.364c0-1.077.215-4.416-.467-5.1" transform="translate(-497.672 -189.771)" fill="#fabc33"/>
        </g>
      </g>
      <g id="Grupo_1206875" data-name="Grupo 1206875" transform="translate(9.623 330.799)">
        <g id="Grupo_1206874" data-name="Grupo 1206874" clip-path="url(#clip-path-3)">
          <rect id="Rectángulo_418133" data-name="Rectángulo 418133" width="4.631" height="157.935" transform="translate(-0.031 2.98) rotate(-89.401)" fill="url(#linear-gradient)"/>
        </g>
      </g>
      <g id="Grupo_1206877" data-name="Grupo 1206877" transform="translate(0 0.002)">
        <g id="Grupo_1206876" data-name="Grupo 1206876" transform="translate(0 0)" clip-path="url(#clip-path-2)">
          <path id="Trazado_1049839" data-name="Trazado 1049839" d="M432.9,230.934c3.411,0,6.786,0,10.2-.072.682.646.467,4.021.467,5.063a5.839,5.839,0,0,0,.108,1.364c3.088-.18,6.284-.036,9.371,0l-.036,17.989c-2.944-.144-6-.108-8.94,0l-1.041-.036c-3.231.072-6.463.108-9.694.072l-.682.072c-.395-2.8,0-6.355.036-9.228.072-4.991.108-10.018.108-15.008Z" transform="translate(-392.727 -209.642)" fill="#f0d63c"/>
          <path id="Trazado_1049840" data-name="Trazado 1049840" d="M496.2,246.877a4.622,4.622,0,0,1,.754.215c.539.287.574,1.005.718,1.544.826,3.483,2.621,10.843.682,13.967l-.718.467-.359-.108a22.6,22.6,0,0,1-.5-3.77,67.552,67.552,0,0,1-.574-12.316" transform="translate(-450.494 -224.185)" fill="#ece89e"/>
          <path id="Trazado_1049841" data-name="Trazado 1049841" d="M441.869,448.835a94.661,94.661,0,0,0,9.587-.395c.036,1.472.072,2.908.036,4.38-3.232.072-6.463.108-9.694.072a17.014,17.014,0,0,0,.072-4.057" transform="translate(-401.188 -407.221)" fill="#ece89e"/>
          <path id="Trazado_1049842" data-name="Trazado 1049842" d="M448.973,251.955c.934,0,1.867.036,2.836.036-.072,5.17-.215,10.341-.359,15.511l-2.621.036c.144-5.17.108-10.377.144-15.583" transform="translate(-407.574 -228.796)" fill="#ece89e"/>
          <path id="Trazado_1049843" data-name="Trazado 1049843" d="M554.688,299.91c3.088-.179,6.283-.036,9.371,0l-.036,17.989c-2.944-.144-6-.108-8.94,0-.144-6.032,0-11.992-.395-17.989" transform="translate(-503.702 -272.263)" fill="#f49535"/>
          <path id="Trazado_1049844" data-name="Trazado 1049844" d="M107.369,3337.112c.072.108.108.179.18.287.718,1.257.826,3.555,1.185,4.991,1.293,5.494,4.739,9.874,10.2,11.6,7.5,2.37,20.789,2.513,28.94,2.765,8.115.215,16.337.467,24.452.036,3.447-.179,6.858-.61,10.269-1.041a48.16,48.16,0,0,1-.251,6.822c-6.607-.4-13.357-.036-20-.036l-47.862.072c-.539-.323-1.221-.539-1.8-.862a13.953,13.953,0,0,1-4.56-4.129c-3.842-5.637-1.867-14.254-.754-20.5" transform="translate(-96.131 -3030.372)" fill="#138977"/>
          <path id="Trazado_1049845" data-name="Trazado 1049845" d="M953.869,3425.783c1.759.144,3.626.431,5.386.4a36.964,36.964,0,0,1,8.115,1.867,75.03,75.03,0,0,1,7.109,3.339,10.842,10.842,0,0,1,2.549,1.688l1.077,1.005c1.077,1.113,3.447,3.16,3.339,4.883a6.088,6.088,0,0,1-.215,1.113c-.395.575-.754,1.149-1.149,1.688l-.251-.036-.539.431a4.97,4.97,0,0,1-3.914.682,1.838,1.838,0,0,1-.969-.323h-.646c-5.673,1.867-11.31-.431-17.055-.359a48.818,48.818,0,0,0-6.032.862c-3.914.611-8.94.969-12.782.072a53.91,53.91,0,0,0,.251-6.822c0-2.549-.18-5.063-.18-7.612a68.535,68.535,0,0,0,15.906-2.873" transform="translate(-851.682 -3110.892)" fill="#f9ac91"/>
          <path id="Trazado_1049846" data-name="Trazado 1049846" d="M1168.856,3557.372c-3.77-2.226-14.434-3.375-16.122-4.883l.108-.144c3.447.323,14.542,2.226,16.588,4.883.036.036.072.108.108.144Z" transform="translate(-1046.777 -3225.821)" fill="#c45b34"/>
        </g>
      </g>
      <g id="Grupo_1206879" data-name="Grupo 1206879" transform="translate(106.962 318.555)">
        <g id="Grupo_1206878" data-name="Grupo 1206878" clip-path="url(#clip-path-5)">
          <rect id="Rectángulo_418135" data-name="Rectángulo 418135" width="17.398" height="24.839" transform="matrix(0.327, -0.945, 0.945, 0.327, -3.269, 9.463)" fill="url(#linear-gradient-2)"/>
        </g>
      </g>
      <g id="Grupo_1206881" data-name="Grupo 1206881" transform="translate(0 0.002)">
        <g id="Grupo_1206880" data-name="Grupo 1206880" transform="translate(0 0)" clip-path="url(#clip-path-2)">
          <path id="Trazado_1049848" data-name="Trazado 1049848" d="M1180.807,3521.223a59.325,59.325,0,0,0-14.542-6.319c-1.58-.431-3.231-.467-4.775-.934-.574-.179-1.436-.431-1.723-.969l.359.359.287-.467c7.756.61,14.506,3.734,20.9,7.935Z" transform="translate(-1053.163 -3189.996)" fill="#c45b34"/>
          <path id="Trazado_1049849" data-name="Trazado 1049849" d="M152.514,162.112c3.411.144,6.822.072,10.2.072V168.5l-.072.18c0,4.991-.036,10.018-.108,15.009-.036,2.908-.431,6.427-.036,9.228-2.765.144-5.565.072-8.33.072H152.55c-2.19.036-4.416.072-6.607.036l-2.011-.108a74.341,74.341,0,0,1-8.94-.072c-.036-3.483-.215-7.038.036-10.52a47.58,47.58,0,0,1-.036-5.063l9.12.072c-.144-2.693-.144-5.386-.18-8.079,2.872.108,5.745.18,8.617.18Z" transform="translate(-122.497 -147.211)" fill="#18c09e"/>
          <path id="Trazado_1049850" data-name="Trazado 1049850" d="M188.672,376.639c.539-.61,1.149-.574,1.975-.61a3.511,3.511,0,0,1,2.118.359l.144.467c-1.113.144-3.3.359-4.237-.215" transform="translate(-171.33 -341.452)" fill="#fefefe"/>
          <path id="Trazado_1049851" data-name="Trazado 1049851" d="M137.109,377.385c.682-.61,2.047-.5,2.944-.5.395,0,1.149-.036,1.472.251a2,2,0,0,1,.18.287l-.323.251c-1.328.072-3.088.287-4.273-.287" transform="translate(-124.506 -342.234)" fill="#fefefe"/>
          <path id="Trazado_1049852" data-name="Trazado 1049852" d="M134.745,382.424c1.185.61,2.944.359,4.237.287l.323-.251h.18c.934.574,3.124.359,4.2.251-.467,3.267-.18,6.966-.144,10.3a74.341,74.341,0,0,1-8.94-.072c-.036-3.483-.215-7.037.036-10.52Z" transform="translate(-122.142 -347.273)" fill="#ec7b69"/>
          <path id="Trazado_1049853" data-name="Trazado 1049853" d="M254.421,307.283q3.285-.108,6.571,0l.036,17.486c-2.19.036-4.416.072-6.607.036-.036-5.853-.036-11.669,0-17.522" transform="translate(-231.011 -278.99)" fill="#138977"/>
          <path id="Trazado_1049854" data-name="Trazado 1049854" d="M344.355,233.74c2.765,0,5.494-.036,8.258-.143,0,4.991-.036,10.018-.108,15.008-.036,2.908-.431,6.427-.036,9.228-2.765.144-5.565.072-8.33.072Z" transform="translate(-312.507 -212.125)" fill="#138977"/>
          <path id="Trazado_1049855" data-name="Trazado 1049855" d="M1246.044,3123.157c9.766.251,19.533-.108,29.3.036l-1.005,2.046a10.436,10.436,0,0,0-2.37.036l2.334.036c-.072,1.616-.539,4.632.574,5.925a3.8,3.8,0,0,0,.826.682c1.508.934,3.734-.036,4.021.79a3.527,3.527,0,0,1,.072.61l-.072.216a15.9,15.9,0,0,1,.108,2.262c.036,3.411.467,6.858.359,10.233.144,3.591.287,7.145.431,10.736.144,3.662.036,7.935,1.077,11.454,4.919.179,9.874.072,14.757.072h10.772c2.047-.036,4.56-.359,6.5.323l.215.251a4.333,4.333,0,0,1-2.334.682c-1.436.108-2.908-.036-4.344-.036h-9.874c-7,0-14.721.323-21.651-.036h-.287c-.539-.144-2.3-.108-2.478-.287.036-.036.108-.036.144-.072,1.4-.862,2.262-.431,3.519-1.8l.144-.144-39.1-.323c.395-.539.79-1.113,1.149-1.687.072-.359.18-.754.215-1.113.108-1.724-2.262-3.77-3.339-4.883l-1.077-1.005a9.542,9.542,0,0,0-2.549-1.688c-5.063-2.441-3.483-1.831-7.109-3.339a27.016,27.016,0,0,0-1.58-5.53l-.4-.9a2.32,2.32,0,0,1-.682-.144c-.5-.216-.574-.5-.826-.969.323-2.549.574-8.043,1.8-10.233a2.145,2.145,0,0,1,1.544-.4c-.5-3.985-1.328-7.9-1.831-11.921,3.231,0,6.427.036,9.659.108a72.544,72.544,0,0,0,13.393,0" transform="translate(-1109.209 -2835.985)" fill="#b5ddc9"/>
          <path id="Trazado_1049856" data-name="Trazado 1049856" d="M1224.788,3253.127l1.293.251c-.79,3.519-1.4,7.073-2.262,10.592l56.371.215c.144,3.591.287,7.145.431,10.736.144,3.662.036,7.935,1.077,11.454,4.919.179,9.874.072,14.757.072h10.772c2.047-.036,4.56-.359,6.5.323l.215.251a4.334,4.334,0,0,1-2.334.682c-1.436.108-2.908-.036-4.344-.036h-9.874c-7,0-14.721.323-21.651-.036h-.287c-.539-.144-2.3-.108-2.477-.287.036-.036.108-.036.144-.072,1.4-.862,2.262-.431,3.519-1.8a1.54,1.54,0,0,0,.287-.395c1.472-2.262,1.616-5.673,1.077-8.258l-.215-.826a7.593,7.593,0,0,1-.323-2.011l-.036-.287a69.226,69.226,0,0,0-.754-7.217,4.808,4.808,0,0,0-.323-.934,1.758,1.758,0,0,0-1.005-.395,30.882,30.882,0,0,0-3.16.072l-9.3-.072c-13.285-.108-26.606.215-39.891-.287a2.32,2.32,0,0,1-.682-.144c-.5-.216-.574-.5-.826-.969.323-2.549.574-8.043,1.8-10.233a2.182,2.182,0,0,1,1.508-.4" transform="translate(-1109.209 -2954.107)" fill="#071142"/>
          <path id="Trazado_1049857" data-name="Trazado 1049857" d="M1260.587,3123.157c9.766.251,19.533-.108,29.3.036l-1.005,2.046a10.436,10.436,0,0,0-2.37.036l2.334.036c-.072,1.616-.539,4.632.574,5.925a3.8,3.8,0,0,0,.826.682c1.508.934,3.734-.036,4.021.79a3.527,3.527,0,0,1,.072.61l-.072.216a15.9,15.9,0,0,1,.108,2.262l-33.213-.036c-6.822-.036-13.752.108-20.538-.539l-1.292-.251c-.5-3.986-1.328-7.9-1.831-11.921,3.231,0,6.427.036,9.658.108a72.933,72.933,0,0,0,13.429,0" transform="translate(-1123.752 -2835.985)" fill="#fefefe"/>
          <path id="Trazado_1049858" data-name="Trazado 1049858" d="M1260.587,3123.157c9.766.251,19.533-.108,29.3.036l-1.005,2.046a10.436,10.436,0,0,0-2.37.036l-42.261.108c.215,2.765.431,5.493.467,8.258,31.92-.036,35.079-.144,44.379-.036a31.125,31.125,0,0,0,5.17-.072,15.9,15.9,0,0,1,.108,2.262l-33.213-.036c-6.822-.036-13.752.108-20.538-.539l-1.293-.251c-.5-3.986-1.328-7.9-1.831-11.921,3.231,0,6.427.036,9.658.108a72.933,72.933,0,0,0,13.429,0" transform="translate(-1123.752 -2835.985)" fill="#e9494a"/>
          <path id="Trazado_1049859" data-name="Trazado 1049859" d="M1237.5,3380.471c13.249.539,26.606.18,39.891.287l9.3.072a31.185,31.185,0,0,1,3.16-.072,1.757,1.757,0,0,1,1.005.4c.108.323.215.61.323.934a70.184,70.184,0,0,1,.754,7.217l.036.287a9.047,9.047,0,0,0,.323,2.011l.215.826c.539,2.585.395,6-1.077,8.258-.036.072-.108.144-.144.215l-39.1-.323c.395-.539.79-1.113,1.149-1.687.072-.359.18-.754.215-1.113.108-1.724-2.262-3.77-3.339-4.883l-1.077-1.005a9.546,9.546,0,0,0-2.549-1.687c-5.063-2.442-3.483-1.831-7.109-3.339a27.007,27.007,0,0,0-1.58-5.53Z" transform="translate(-1123.752 -3069.745)" fill="#fefefe"/>
        </g>
      </g>
      <g id="Grupo_1206883" data-name="Grupo 1206883" transform="translate(113.748 310.727)">
        <g id="Grupo_1206882" data-name="Grupo 1206882" clip-path="url(#clip-path-7)">
          <rect id="Rectángulo_418137" data-name="Rectángulo 418137" width="11.275" height="54.07" transform="matrix(0.063, -0.998, 0.998, 0.063, -0.495, 7.904)" fill="url(#linear-gradient-3)"/>
        </g>
      </g>
      <g id="Grupo_1206885" data-name="Grupo 1206885" transform="translate(0 0.002)">
        <g id="Grupo_1206895" data-name="Grupo 1206895" transform="translate(0 0)">
          <path id="Trazado_1049861" data-name="Trazado 1049861" d="M1381.322,3476.565l.036.287a9.038,9.038,0,0,0,.323,2.011l.215.826c-2.011-.108-3.985.036-6,.036-8.115,0-16.265.108-24.38.251-3.591.036-8.546-.251-11.957.215l-1.077-1.005a9.549,9.549,0,0,0-2.549-1.687c4.38-.826,10.233-.359,14.721-.323l22.261.072c1.508,0,7.181.431,8.294-.036Z" transform="translate(-1213.141 -3157.007)" fill="#4c91da"/>
          <path id="Trazado_1049862" data-name="Trazado 1049862" d="M1400.148,3501.481a67.152,67.152,0,0,1,7.109-.144l.215.826c-2.011-.108-3.985.036-6,.036-8.115,0-16.265.108-24.38.251-3.591.036-8.545-.251-11.956.215l-1.077-1.005c4.416-.431,9.335-.108,13.823-.108,7.4-.036,14.829-.179,22.261-.072" transform="translate(-1238.681 -3179.481)" fill="#ece89e"/>
          <path id="Trazado_1049863" data-name="Trazado 1049863" d="M1756.641,3501.481a67.152,67.152,0,0,1,7.109-.144l.215.826c-2.011-.108-3.985.036-6,.036a10.5,10.5,0,0,1,3.2-.431l-.036-.108c-1.436-.036-2.872-.036-4.309-.179Z" transform="translate(-1595.174 -3179.481)" fill="#b5ddc9"/>
          <path id="Trazado_1049864" data-name="Trazado 1049864" d="M1418.469,3510.146c.539,2.585.395,6-1.077,8.258-.036.072-.108.144-.144.215l-39.1-.323c.395-.539.79-1.113,1.149-1.687.072-.359.18-.754.215-1.113.108-1.724-2.262-3.77-3.339-4.883,3.411-.467,8.4-.144,11.956-.215,8.115-.144,16.265-.251,24.38-.251,1.975.036,3.95-.108,5.96,0" transform="translate(-1249.677 -3187.464)" fill="#fefefe"/>
          <path id="Trazado_1049865" data-name="Trazado 1049865" d="M2925.391,78.753a5.506,5.506,0,0,1,2.513-3.7,4.32,4.32,0,0,1,1.9-.539c4.847-.359,10.448-.036,15.439,0h14.793c2.442,0,6.93-.359,9.12.251a4.485,4.485,0,0,1,2.729,2.19c1.113,2.37.4,23.446.5,27.827-.144,6.068-.036,12.136,0,18.2,0,2.406.323,5.242-.072,7.612a4.3,4.3,0,0,1-3.986,3.878,71.863,71.863,0,0,1-8.8.072l-18.276-.072a12.991,12.991,0,0,0,.646-10.161,13.383,13.383,0,0,0-6.535-7.468,13.218,13.218,0,0,0-9.8.108l-.036-25.241c-.072-4.309.179-8.689-.144-12.962" transform="translate(-2656.495 -67.514)" fill="#5077ce"/>
          <path id="Trazado_1049866" data-name="Trazado 1049866" d="M3052.352,521.784c3.483-.072,23.59-.5,25.529.144l.072.287-.18.287-.682.036c-5.817-.108-11.669-.144-17.486-.108-2.226,0-4.488.215-6.678.108a1.841,1.841,0,0,1-1.364-.359c.287-.323.359-.251.79-.4" transform="translate(-2771.069 -473.635)" fill="#fefefe"/>
          <path id="Trazado_1049867" data-name="Trazado 1049867" d="M3021.875,440.195c3.375-.144,28.9-.323,29.586.108l.18.682c-3.375,0-28.868.287-29.766-.251Z" transform="translate(-2744.111 -399.586)" fill="#fefefe"/>
          <path id="Trazado_1049868" data-name="Trazado 1049868" d="M3028.766,270.308c2.98-.108,28.868-.359,29.658.144.072.431.036.359-.179.682-6.93.072-13.824.036-20.753.036-1.867,0-7.361.287-8.869-.144l-.108-.287Z" transform="translate(-2750.14 -245.318)" fill="#fefefe"/>
          <path id="Trazado_1049869" data-name="Trazado 1049869" d="M3004.688,182.391c3.447-.144,30.555-.359,32.135.215l.287.61c-3.267.18-31.668.144-32.171-.144-.251-.144-.179-.431-.251-.682" transform="translate(-2728.503 -165.48)" fill="#fefefe"/>
          <path id="Trazado_1049870" data-name="Trazado 1049870" d="M2994.531,354.787c2.693-.144,31.776-.18,32.6.108l.287.682c-3.016.251-31.74.287-32.638-.072Z" transform="translate(-2719.28 -322.077)" fill="#fefefe"/>
          <path id="Trazado_1049872" data-name="Trazado 1049872" d="M3267.26,1022.268c1.8,1.616,9.443,15.3,11.023,18.312-4.632.072-9.623.682-20.861.646,1.329-2.872,2.908-5.709,4.38-8.546,1.8-3.483,3.555-7,5.458-10.413" transform="translate(-2958.007 -928.303)" fill="#18c09e"/>
          <path id="Trazado_1049874" data-name="Trazado 1049874" d="M3000.645,2394.178c.9.036,8.115-2.621,9.73-3.16.934,6.355,3.734,13.034,4.488,19.174a12.6,12.6,0,0,1-3.447,3.447,51.649,51.649,0,0,1-8.187,4.165c-.4-4.344-4.093-15.152-6.355-18.743,1.4-.969,3.231-1.652,4.74-2.513-.359-.79-.646-1.58-.969-2.37" transform="translate(-2721.409 -2171.241)" fill="#f49535"/>
          <path id="Trazado_1049875" data-name="Trazado 1049875" d="M163.741,2443.752l.144.108c1.436,1.257,2.657,2.729,4.093,3.986a42.038,42.038,0,0,0,14.075,7.54c1.616.5,3.267.862,4.847,1.329a31.061,31.061,0,0,0,.323,3.2c.5-.61.9-1.185,1.759-1.221a1.606,1.606,0,0,1,1.364.682c1.041,1.257,1.293,3.052,1.688,4.6,11.992,1.041,16.732.467,25.062,10.341,6,7.145,11.2,18.132,14.865,26.714a35.028,35.028,0,0,1,2.082,5.278c-3.231-.072-6.427-.108-9.659-.108.5,3.986,1.328,7.9,1.831,11.921a2.33,2.33,0,0,0-1.544.4c-1.221,2.19-1.508,7.648-1.8,10.233.251.467.323.754.826.969a4.622,4.622,0,0,0,.682.144l.395.9a28.725,28.725,0,0,1,1.58,5.53,36.977,36.977,0,0,0-8.115-1.867c-1.759.036-3.626-.251-5.386-.395a68.558,68.558,0,0,1-15.942,2.908c0,2.549.215,5.063.18,7.612-3.411.467-6.822.862-10.269,1.041-8.115.431-16.337.179-24.452-.036-8.151-.216-21.436-.359-28.94-2.765-5.458-1.723-8.9-6.1-10.2-11.6-.323-1.472-.467-3.734-1.185-4.991a1.257,1.257,0,0,0-.18-.287,7.063,7.063,0,0,1,.18-1.257c1.257-10.09,2.908-20.251,4.7-30.268.754-4.344,1.257-9.012,2.729-13.141a28.329,28.329,0,0,1,5.278-8.833,17.946,17.946,0,0,1,4.955-4.057c4.7-2.513,15.691-4.632,21.184-5.027.359-2.118,1.867-3.914,3.124-5.6-.108-1.723.108-3.483.108-5.206a64.519,64.519,0,0,0-.395-8.761" transform="translate(-110.673 -2219.128)" fill="#18c09e"/>
          <path id="Trazado_1049876" data-name="Trazado 1049876" d="M1117.968,2847.658c.395,3.375-.359,8.581-.539,12.1-.251,4.2-.251,8.4-.5,12.6-.323,2.37-.251,12.567-.646,13.536a1.357,1.357,0,0,1-.359.431l-.251-.287c-.718-2.154,1.257-34.864,2.3-38.383" transform="translate(-1012.98 -2585.907)" fill="#212f4d"/>
          <path id="Trazado_1049877" data-name="Trazado 1049877" d="M428.465,2934.939c-.108-10.413,1.508-20.9,1.688-31.31a30.31,30.31,0,0,0-.359-5.709,25.477,25.477,0,0,1-.862-4.56l.215.215a6.673,6.673,0,0,1,.682,1.9,37.869,37.869,0,0,1,1.077,13.177c-.431,3.16-1.4,24.954-2.442,26.283" transform="translate(-389.077 -2627.41)" fill="#212f4d"/>
          <path id="Trazado_1049878" data-name="Trazado 1049878" d="M690.362,2747.7a5.841,5.841,0,0,1,1.257-.826c1.508,1.328,3.375,2.765,4.416,4.524.323,2.334,1.831,11.059.754,12.71a2.833,2.833,0,0,1-2.083,1.005c-2.011.287-6.176.431-7.792-.754-.718-1.831-.431-8.976-.467-11.454a44.827,44.827,0,0,1,3.914-5.206" transform="translate(-623.327 -2494.391)" fill="#212f4d"/>
          <path id="Trazado_1049879" data-name="Trazado 1049879" d="M751.617,2607.834c.5-.61.9-1.185,1.759-1.221a1.6,1.6,0,0,1,1.364.682c1.041,1.257,1.293,3.052,1.688,4.6a41.279,41.279,0,0,1-3.232,17.414c-2.3-1.436-3.59-3.411-5.422-5.314-1.041-1.724-2.944-3.16-4.416-4.524a29.9,29.9,0,0,0,2.729-3.626c1.831-2.621,3.7-5.314,5.529-8.007" transform="translate(-675.031 -2367.016)" fill="#fefefe"/>
          <path id="Trazado_1049880" data-name="Trazado 1049880" d="M1112.473,3129.985a2.08,2.08,0,0,0,.359-.431c.4-.969.323-11.167.646-13.536a28.121,28.121,0,0,1,1.8,5.745c1.221,4.309,3.878,13.931,6.463,17.486.251.467.323.754.826.969a4.616,4.616,0,0,0,.682.144l.395.9a28.727,28.727,0,0,1,1.58,5.53,36.978,36.978,0,0,0-8.115-1.867c-1.759.036-3.627-.251-5.386-.395q.323-6.194.431-12.387a1.292,1.292,0,0,0,.072-.4,4.7,4.7,0,0,1,.251-1.58Z" transform="translate(-1009.532 -2829.601)" fill="#138977"/>
          <path id="Trazado_1049881" data-name="Trazado 1049881" d="M1112.828,3269.143a35.888,35.888,0,0,1,1.652,5.817,55.7,55.7,0,0,0,3.016,8.94c-1.759.036-3.626-.251-5.386-.395q.323-6.194.431-12.387a1.288,1.288,0,0,0,.072-.4,3.92,3.92,0,0,1,.216-1.58" transform="translate(-1009.887 -2968.651)" fill="#fefefe"/>
          <path id="Trazado_1049882" data-name="Trazado 1049882" d="M550.744,2595.315a116.464,116.464,0,0,0,9.3,10.448c1.364,1.4,3.124,2.8,4.344,4.309a49.659,49.659,0,0,0-3.95,5.206,34.288,34.288,0,0,1-4.309,4.524c-4.775-4.7-6.75-12.639-8.474-18.922.323-2.119,1.8-3.914,3.088-5.565" transform="translate(-497.317 -2356.759)" fill="#fefefe"/>
          <path id="Trazado_1049883" data-name="Trazado 1049883" d="M577.344,2443.752l.144.108c1.436,1.257,2.657,2.729,4.093,3.986a42.037,42.037,0,0,0,14.075,7.54c1.616.5,3.267.862,4.847,1.329a31.057,31.057,0,0,0,.323,3.2c-1.8,2.693-3.662,5.35-5.565,8.007a27.37,27.37,0,0,1-2.729,3.626,9.45,9.45,0,0,0-1.257.826,54.691,54.691,0,0,0-4.345-4.309,122.267,122.267,0,0,1-9.3-10.448c-.108-1.723.108-3.483.108-5.206a63.73,63.73,0,0,0-.395-8.653" transform="translate(-524.276 -2219.128)" fill="#f9ac91"/>
          <path id="Trazado_1049884" data-name="Trazado 1049884" d="M424.614,3085.7c1.041-1.328,2.011-23.123,2.442-26.319.575,2.37.934,4.811,1.652,7.145,2.19,7.181,6.966,12.6,13.249,16.552,8.869,5.53,22.261,7.827,32.494,5.386,4.057-.969,9.91-3.555,12.5-6.894.18-.215.359-.467.539-.682s.108-.144.359-.287q-.108,6.193-.431,12.387a68.558,68.558,0,0,1-15.942,2.908l-.036-3.842c-6.463-.826-13-1.328-19.461-2.011-9.192-.969-18.491-2.046-27.755-2.118a5.95,5.95,0,0,1,.395-2.226" transform="translate(-385.226 -2778.166)" fill="#138977"/>
          <path id="Trazado_1049885" data-name="Trazado 1049885" d="M2034.022,61.484a20.348,20.348,0,0,1,2.442-3.124c5.781-6,14.614-9.084,22.836-9.192,11.49-.144,19.209,2.585,27.575,10.7l15.224-.108a23.669,23.669,0,0,1,.108-3.914c.323,4.273.072,8.653.108,12.962l.036,25.241c3.088-1.149,6.75-1.508,9.8-.108a13.384,13.384,0,0,1,6.535,7.468,12.993,12.993,0,0,1-.646,10.161c-.933,1.544-4.2,5.888-4.344,7.289a4.73,4.73,0,0,0,2.873,2.3c4.847,1.472,8.581,1.831,11.31,6.822a12.793,12.793,0,0,1,.862,9.623c-1.113,3.7-4.093,6.427-7.433,8.186-1.328.682-2.693,1.293-4.021,1.939,1.328,1.867,2.693,3.734,2.262,6.176-.395,2.118-2.047,3.662-3.626,4.991-5.17-3.375-13.859-5.314-19.712-7.073a14.672,14.672,0,0,0-1.185-2.513c-1.149-1.688-2.657-2.118-4.56-2.442l-.215.215c.036.072.036.108.072.18a2.022,2.022,0,0,1-.072,1.867c-.9,1.759-1.975,3.483-2.872,5.242-4.668-1.472-10.3-7.289-14-10.628a21.627,21.627,0,0,0-5.242-3.95c-2.478-1.149-6.14-.9-8.653,0,0,1.723.251,4.74-.574,6.248-3.267.251-5.242,1.688-7.324,4.093-6.571,2.226-15.906,5.529-20.825,10.52a6.531,6.531,0,0,1-1.759-2.406c-3.842-7.109,3.519-12.818,2.837-19.856-.79-8.115-9.982-9.838-12.387-17.522l-.072-.251a15.858,15.858,0,0,1-.215-6.5c.072-.251.144-.467.215-.718,1.472-4.237,4.488-6.355,8.4-8.294-.215-.682-.359-1.364-.539-2.047-.467-1.508-2.477-2.944-3.447-4.273a22.29,22.29,0,0,1-3.052-6.391c-3.052-9.8.072-21.4,8.366-27.647,1.149-.862,3.626-1.436,4.488-2.37a6.725,6.725,0,0,0,.431-.9" transform="translate(-1833.347 -44.644)" fill="#071142"/>
          <path id="Trazado_1049886" data-name="Trazado 1049886" d="M2125,428.568c.216-3.591,1.58-7.5,2.442-10.987l.5.431c-.574,3.375-1.221,7.612-2.944,10.556" transform="translate(-1929.675 -379.198)" fill="#ec7b69"/>
          <path id="Trazado_1049887" data-name="Trazado 1049887" d="M2069.719,665.237a27.845,27.845,0,0,0,.754,2.98,19.277,19.277,0,0,0-4.883,4.452l-.61-.251c0-.072-.036-.144-.036-.215a4.555,4.555,0,0,1,.9-3.447l.179-.251-.287-.215a24.97,24.97,0,0,1,3.986-3.052" transform="translate(-1875.076 -604.09)" fill="#5077ce"/>
          <path id="Trazado_1049888" data-name="Trazado 1049888" d="M2058.315,251.565c.251.251-.036.467-.18.682a26.321,26.321,0,0,0-3.339,6.068c-1.472,4.524-2.621,9.659-2.19,14.4.144,1.472.754,2.872.826,4.273l-.287-.323a16.18,16.18,0,0,1-2.047-9.048,21.461,21.461,0,0,1,7.217-16.05" transform="translate(-1862.559 -228.442)" fill="#5077ce"/>
          <path id="Trazado_1049889" data-name="Trazado 1049889" d="M2240.918,70.053a23.187,23.187,0,0,1,9.91,1.4c-9.479-.646-15.726,1.4-24.056,5.673a26.2,26.2,0,0,0-3.914,2.226c-.754.574-1.4,1.364-2.154,1.867l.036-.323.323.143-.216-.323a23.036,23.036,0,0,1,1.365-1.9c3.986-4.847,12.6-8.258,18.707-8.761" transform="translate(-2016.581 -63.555)" fill="#5077ce"/>
          <path id="Trazado_1049890" data-name="Trazado 1049890" d="M2177.734,250.393c.934,1.257,1.113,3.806,1.58,5.35,2.37,7.576,9.658,13.716,16.445,17.235a18.493,18.493,0,0,1-11.562-4.6c-4.775-4.093-6-12.1-6.463-17.989" transform="translate(-1977.561 -227.378)" fill="#5077ce"/>
          <path id="Trazado_1049891" data-name="Trazado 1049891" d="M2199.609,249.221c.934,1.113,2.3,5.242,3.519,7.109,3.2,4.811,9.084,8.833,14.47,10.808,1.652.61,3.626.9,5.17,1.616l-.215.072c-.718.18-1.4.359-2.118.5-3.734.682-8.294-1.688-11.274-3.806a25.039,25.039,0,0,1-8.653-11.849,39.123,39.123,0,0,1-.9-4.452" transform="translate(-1997.426 -226.313)" fill="#5077ce"/>
          <path id="Trazado_1049892" data-name="Trazado 1049892" d="M2152.927,353.518c3.878,6.319,6.176,11.2,14,13.141,3.375.826,6.858.251,10.233-.395-.933.395-2.226.718-2.621,1.759a4.994,4.994,0,0,0-.215.682,22.241,22.241,0,0,1-6.894.251c-5.6-1.077-11.849-6.822-14.937-11.418-.179.754-.287,1.544-.431,2.3l-.5-.431c.431-1.975.79-3.95,1.365-5.889" transform="translate(-1953.795 -321.024)" fill="#ec7b69"/>
        </g>
      </g>
      <g id="Grupo_1206887" data-name="Grupo 1206887" transform="translate(186.672 64.201)">
        <g id="Grupo_1206886" data-name="Grupo 1206886" clip-path="url(#clip-path-8)">
          <rect id="Rectángulo_418139" data-name="Rectángulo 418139" width="53.27" height="36.161" transform="matrix(0.381, -0.925, 0.925, 0.381, -17.631, 42.736)" fill="url(#linear-gradient-4)"/>
        </g>
      </g>
      <g id="Grupo_1206889" data-name="Grupo 1206889" transform="translate(0 0.002)">
        <g id="Grupo_1206888" data-name="Grupo 1206888" transform="translate(0 0)" clip-path="url(#clip-path-2)">
          <path id="Trazado_1049895" data-name="Trazado 1049895" d="M2480.645,737.5c1.723,9.8,2.3,19.353,5.637,28.832a17.8,17.8,0,0,0,2.585,5.386l.5.18-.216.215c.036.072.036.108.072.18a2.021,2.021,0,0,1-.072,1.867c-.9,1.759-1.975,3.483-2.872,5.242-4.668-1.472-10.3-7.289-14-10.628a21.625,21.625,0,0,0-5.242-3.95c-2.478-1.149-6.14-.9-8.653,0a22.279,22.279,0,0,0-.179-3.088,24.666,24.666,0,0,0,5.027-2.154c9.443-4.955,14.254-12.172,17.414-22.082" transform="translate(-2232.251 -669.713)" fill="#ec7b69"/>
          <path id="Trazado_1049896" data-name="Trazado 1049896" d="M2112.878,397.268c3.088,4.6,9.335,10.377,14.937,11.418a22.242,22.242,0,0,0,6.894-.251c.108.108.215.18.323.287a1.72,1.72,0,0,0,1.257.574c.97-.036,1.9-.826,2.873-.969,1.616-.251,3.3.108,4.919-.072a1.094,1.094,0,0,0,.934-.467l-.144-.395c-1.365-1.328-3.052-1.4-4.811-1.58.969-.251,1.939-.467,2.872-.682a24.349,24.349,0,0,1,6.463.287c4.309,1.113,7.217,3.77,9.838,7.253,2.334-3.519,3.519-8.438,8.4-9.551a4.878,4.878,0,0,1,3.914.682,9.488,9.488,0,0,1,3.806,6.176,12.111,12.111,0,0,1-1.723,8.761,6.5,6.5,0,0,1-4.381,2.765,10.668,10.668,0,0,1-5.709-.646c-.467,2.154-1.508,4.955-1.149,7.073a1.114,1.114,0,0,1,.036.359c0,.072.036.144.036.215-3.124,9.946-7.935,17.127-17.414,22.046a23.064,23.064,0,0,1-5.027,2.154l-.287.072c-4.344,1.185-7.5.9-11.382-1.364-5.422-3.2-10.951-7.971-13.393-13.9-.934-2.3-1.472-4.776-2.334-7.109-1.508-4.021-3.088-6.894-4.2-11.238-1.113-3.59-.144-5.745,1.005-9.12,2.3-3.734,2.765-9.8,3.447-12.782" transform="translate(-1914.178 -360.752)" fill="#f9ac91"/>
          <path id="Trazado_1049897" data-name="Trazado 1049897" d="M2489.063,481.815a24.349,24.349,0,0,1,6.463.287,2.674,2.674,0,0,1-.539.323c-1.364.646-4.632-.036-5.924-.61" transform="translate(-2260.274 -437.436)" fill="#f49a89"/>
          <path id="Trazado_1049898" data-name="Trazado 1049898" d="M2577.695,650.631v-.143a1.378,1.378,0,0,0-.323-.646,2.607,2.607,0,0,1-.323-2.118.853.853,0,0,1,.718-.575,2.144,2.144,0,0,1,1.723.61,8.336,8.336,0,0,0,.646,1.652c-.467.826-1.041,2.19-1.939,2.477a1.6,1.6,0,0,1-.5-1.257" transform="translate(-2340.073 -587.652)" fill="#f49079"/>
          <path id="Trazado_1049899" data-name="Trazado 1049899" d="M2730.469,497.93c.538-1.113,1.4-2.585,2.657-2.98a2.78,2.78,0,0,1,2.262.323,6.334,6.334,0,0,1,2.657,3.878,5.1,5.1,0,0,1,.036,2.442,2.862,2.862,0,0,1-.61.539c-.072-.646-.036-1.293-.144-1.939a6.063,6.063,0,0,0-2.226-4.057,1.908,1.908,0,0,0-1.58-.287c-1.113.287-1.867,1.58-2.37,2.513-.072-.287-.036-.144,0-.5s.108-.215-.072-.431l-.359.574Z" transform="translate(-2479.49 -449.35)" fill="#ce1828"/>
          <path id="Trazado_1049900" data-name="Trazado 1049900" d="M2356.649,806.792c.216-.359.144-.431.574-.539.251.215.359.287.359.646a8.926,8.926,0,0,1-2.478,5.458,5.9,5.9,0,0,1-4.452,1.4c-1.257-.072-3.626-.574-4.38-1.723a.746.746,0,0,1-.179-.431l.072-.287a15.177,15.177,0,0,0,3.447,1.221,5.851,5.851,0,0,0,4.524-.646c1.688-1.149,2.118-3.2,2.513-5.1" transform="translate(-2130.445 -732.144)" fill="#ce1828"/>
          <path id="Trazado_1049901" data-name="Trazado 1049901" d="M2519.112,669.965a2.4,2.4,0,0,1,1.723-.144c.646.61.61,1.867.646,2.729l.216-.108c.287-.934-.539-1.867-.144-2.765l.4-.144a2.332,2.332,0,0,1,.539,1.257l.215.108a1.443,1.443,0,0,1,.287-.934l.323-.036a2.41,2.41,0,0,1,1.149,1.005c-.251.61-.216,1.759-.79,2.082-1.005.61-3.088.144-4.129-.215a1.8,1.8,0,0,1-1.185-.969c.144-.467.108-.431.539-.682l.4.108.215.539a2.362,2.362,0,0,0-.144-.539,11.809,11.809,0,0,1-.251-1.293" transform="translate(-2286.876 -607.992)" fill="#f49079"/>
          <path id="Trazado_1049902" data-name="Trazado 1049902" d="M2163.042,548.475a4.8,4.8,0,0,1,.718-.036,2.527,2.527,0,0,1,2.083.862,1.066,1.066,0,0,1,.287,1.005c-.9,1.077-3.088.862-4.381,1.436-.072.036-.108.036-.179.072a3.419,3.419,0,0,1-1.616.79,1.133,1.133,0,0,1-.79-.61,1.947,1.947,0,0,1,.359-1.472c.79-1.364,2.083-1.723,3.519-2.047" transform="translate(-1960.679 -498.028)" fill="#071142"/>
          <path id="Trazado_1049903" data-name="Trazado 1049903" d="M2345.42,816.672l-.108-.287c.933-.467,2.621-.287,3.7-.431,2.585-.359,4.847-2.37,6.93-3.842-.4,1.9-.826,3.95-2.513,5.134a5.7,5.7,0,0,1-4.524.646,14.856,14.856,0,0,1-3.483-1.221" transform="translate(-2129.736 -737.465)" fill="#fefefe"/>
          <path id="Trazado_1049904" data-name="Trazado 1049904" d="M2738.281,506.977c.467-.934,1.257-2.226,2.37-2.513a1.909,1.909,0,0,1,1.58.287,6.226,6.226,0,0,1,2.226,4.057c.072.646.036,1.293.144,1.939a3.365,3.365,0,0,1-2.3-.18c-.036-.5-.072-.5-.431-.9a6.367,6.367,0,0,1-2.873-1.077c-.646-.431-.646-.862-.718-1.616" transform="translate(-2486.584 -458.038)" fill="#f9ac91"/>
          <path id="Trazado_1049905" data-name="Trazado 1049905" d="M2307.042,682.815a1.381,1.381,0,0,1,.934.467,8.861,8.861,0,0,1,.682,1.293c.754,1.328,2.729,3.878,2.262,5.422-.216.754-.934,1.113-1.544,1.472a4.545,4.545,0,0,1-2.837-.431,2.938,2.938,0,0,1-1.292-2.011c-.431-2.154.574-4.524,1.8-6.212" transform="translate(-2093.261 -620.052)" fill="#ce1828"/>
          <path id="Trazado_1049906" data-name="Trazado 1049906" d="M2316.375,686.33a.818.818,0,0,1,.108.395,6.848,6.848,0,0,0,1.867,4.237,2.129,2.129,0,0,1,.718,1.652,2.028,2.028,0,0,1-1.113.934,4.425,4.425,0,0,1-1.687-.072,1.86,1.86,0,0,1-1.077-1.185c-.646-1.688.4-4.381,1.185-5.96" transform="translate(-2102.199 -623.244)" fill="#f9ac91"/>
          <path id="Trazado_1049907" data-name="Trazado 1049907" d="M2720.5,523.2l.287.036.359-.574c.144.251.108.072.072.431s-.072.215,0,.5c.072.718.072,1.185.682,1.652a6.815,6.815,0,0,0,2.873,1.077,1.138,1.138,0,0,1,.431.9,16.162,16.162,0,0,0-2.226,3.375,5.28,5.28,0,0,1,.287,2.765.886.886,0,0,1-.682.682,1.574,1.574,0,0,1-.682-.251c-1.257-.862-1.831-2.693-2.118-4.093-.467-2.047-.467-4.668.718-6.5" transform="translate(-2469.524 -474.617)" fill="#c45b34"/>
          <path id="Trazado_1049908" data-name="Trazado 1049908" d="M2176.717,716.731a2.846,2.846,0,0,0,2.334-.323l.539.144a.611.611,0,0,0,.036.251l.108.215c.754.18,1.364.18,1.831.934a3.374,3.374,0,0,1,.359,2.693,5.753,5.753,0,0,1-2.442,3.411c-1.328.072-3.231.431-4.309-.539a4.977,4.977,0,0,1-.826-1.113,11.471,11.471,0,0,1-.431-1.185,5.25,5.25,0,0,1-.431-2.944c.718-1.149,2.118-.754,3.088-1.4.036-.036.072-.108.144-.144" transform="translate(-1973.636 -650.557)" fill="#f49079"/>
          <path id="Trazado_1049909" data-name="Trazado 1049909" d="M2178.516,763.076a3.861,3.861,0,0,0,.933-.574c.467.072.5-.036.862.323a2.8,2.8,0,0,1-1.328,1.4,10.862,10.862,0,0,1-.467-1.149" transform="translate(-1978.271 -692.415)" fill="#f49a89"/>
          <path id="Trazado_1049910" data-name="Trazado 1049910" d="M2211.954,736.588a3.059,3.059,0,0,1,1.149.108,2.036,2.036,0,0,1,.251,1.652,2.647,2.647,0,0,1-.682,1.723,2.824,2.824,0,0,1,.036-1.544l.036-.287.216-.144-.251-.036a3.016,3.016,0,0,0-1.436,1.544c-.323-.934.359-2.154.682-3.016" transform="translate(-2007.939 -668.87)" fill="#ec7b69"/>
          <path id="Trazado_1049911" data-name="Trazado 1049911" d="M2179.446,629.548l-.251.072a4.884,4.884,0,0,1-1.077-3.7,4.549,4.549,0,0,1,1.688-3.16,3.442,3.442,0,0,1,2.442-.539,3.5,3.5,0,0,1,2.3,1.652,6.976,6.976,0,0,1,1.005,4.919,2.8,2.8,0,0,1-1.221,1.867c-.108.072-.179.144-.287.215l-.216.144-.539-.144a2.809,2.809,0,0,1-2.334.323,9.367,9.367,0,0,1-1.508-1.652" transform="translate(-1977.873 -564.99)" fill="#fefefe"/>
          <path id="Trazado_1049912" data-name="Trazado 1049912" d="M2191.791,671.775c-.108-.826-.323-2.047.359-2.693a1.384,1.384,0,0,1,1.149-.395,3.207,3.207,0,0,1,1.975,1.508,3.511,3.511,0,0,1,.359,2.872,2.809,2.809,0,0,1-2.334.323,8.06,8.06,0,0,1-1.508-1.616" transform="translate(-1990.218 -607.217)" fill="#121223"/>
          <path id="Trazado_1049913" data-name="Trazado 1049913" d="M2415.369,566.481a1.863,1.863,0,0,1-1.185-.826,7.214,7.214,0,0,1-.826-5.1,4.7,4.7,0,0,1,2.226-3.2,3.785,3.785,0,0,1,3.052-.287,5.742,5.742,0,0,1,3.411,3.124,8.1,8.1,0,0,1,.754,2.908,6.823,6.823,0,0,1-3.591,3.626,1.81,1.81,0,0,1-.969.108,3.852,3.852,0,0,1-2.873-.359" transform="translate(-2191.391 -505.693)" fill="#fefefe"/>
          <path id="Trazado_1049914" data-name="Trazado 1049914" d="M2428.079,618.85a4.4,4.4,0,0,1-.826-2.944,1.672,1.672,0,0,1,.79-1.113,2.724,2.724,0,0,1,3.483,1.293,2.8,2.8,0,0,1,.036,2.154,4.862,4.862,0,0,1-.539.934,3.819,3.819,0,0,1-2.944-.323" transform="translate(-2204.101 -558.062)" fill="#071142"/>
          <path id="Trazado_1049915" data-name="Trazado 1049915" d="M2261.85,1026.766c2.513-.9,6.176-1.149,8.653,0a22.344,22.344,0,0,1,5.242,3.95c3.7,3.339,9.371,9.156,14,10.628.9-1.759,2.01-3.483,2.872-5.242a2.018,2.018,0,0,0,.072-1.867c-.036-.072-.036-.108-.072-.179l.215-.215c1.9.323,3.375.754,4.56,2.442a11.462,11.462,0,0,1,1.185,2.513c5.853,1.8,14.506,3.7,19.712,7.073a53.045,53.045,0,0,1,7.863,5.925c4.668,4.488,8.258,9.694,11.885,15.044,8.833,13.141,16.48,27.252,21.471,42.153.61,1.8,1.041,3.806,1.8,5.529,1.436,6.5,2.011,12.5.323,19.03-2.083,5.1-5.278,7.4-10.269,9.479a142.4,142.4,0,0,1-17.091,5.709c-3.124.862-6.571,1.472-9.587,2.693-1.616.539-8.833,3.2-9.73,3.16-5.206,1.975-10.808,3.16-16.229,4.524a36.17,36.17,0,0,1-1.436-5.565,121.941,121.941,0,0,0-15.152,6.391c-3.447,1.759-6.786,3.806-10.3,5.386-.4.179-.251.072-.5.323-.646-.79-2.873.215-3.914-.61a2.282,2.282,0,0,1-.108-1.544l-.108-.359c-.611-.144-1.149.4-1.724.646l-.61-.323a4.673,4.673,0,0,1-1.687-2.729,5.261,5.261,0,0,1,.862-1.328c-.18-.5-.5-.539-.934-.79a4.665,4.665,0,0,1-1.867-.754,2.034,2.034,0,0,1-.754-1.436,3.221,3.221,0,0,1,1.185-2.478,5.078,5.078,0,0,1-2.657-1.975,2.309,2.309,0,0,1-.251-1.939,4.368,4.368,0,0,1,2.406-2.19c-3.016-5.493-5.6-11.346-8.33-16.983-.862-3.16-4.093-7.073-5.17-10.915a19.6,19.6,0,0,1,5.35-2.98l.61-.359.072-3.375a40.348,40.348,0,0,0,.108-4.165q-2.585-21.92-4.237-43.876l-.072-.682a31.768,31.768,0,0,0-.539-4.524c-.934-.287-4.7,1.759-5.853,2.19a3.541,3.541,0,0,1-1.329.287,11.107,11.107,0,0,1,.79-3.124c1.867-6.032,5.027-11.705,8.258-17.091.969-1.616,2.083-3.2,2.98-4.847l.179-.323c2.083-2.406,4.057-3.842,7.325-4.093.79-1.472.5-4.488.538-6.212" transform="translate(-2035.718 -931.689)" fill="#fabc33"/>
          <path id="Trazado_1049916" data-name="Trazado 1049916" d="M3074.136,1860.549c3.3,4.021,5.924,12.962,8.366,17.917-1.4.79-7.935,4.7-9.084,4.632l-.144-.215a89.2,89.2,0,0,1-.072-13.5c.18-2.944.646-5.889.934-8.833" transform="translate(-2790.519 -1689.531)" fill="#cee0f2"/>
          <path id="Trazado_1049917" data-name="Trazado 1049917" d="M2837.891,1756.059c1.688-.682,3.626-.826,5.386-1.4a15.018,15.018,0,0,0,10.376-12.28c.287-2.118-.036-4.309.97-6.284.179-.359,0-.754-.072-1.149l.179-.18c1.257,1.724,5.745,9.8,5.924,11.526-.431,4.955-1.221,7.971-1.149,15.583,0,2.262.108,4.488.287,6.75a2.815,2.815,0,0,1-.179.5,63.829,63.829,0,0,1-8.725,3.626,119.974,119.974,0,0,1-1.005-14.793,15.709,15.709,0,0,1-7.361,1.436,18.716,18.716,0,0,0-2.837.036,37.9,37.9,0,0,1-1.795-3.375" transform="translate(-2577.038 -1575.311)" fill="#f49535"/>
          <path id="Trazado_1049918" data-name="Trazado 1049918" d="M2538.321,1111.721c1.9.323,3.375.754,4.56,2.442a11.452,11.452,0,0,1,1.185,2.513c.79,3.7,3.77,24.057,2.226,26.319-.18.251-.718.323-1.006.323-3.59.108-8.437-2.477-11.525-4.2a9.216,9.216,0,0,0-1.005,2.19,2.007,2.007,0,0,0-.287.18c-1.257.754-2.118,2.047-3.375,2.765a37.733,37.733,0,0,1-4.812,2.011l-8.509,3.339a12.337,12.337,0,0,0-1.58.682c-.61.4-1.364,1.4-2.082,1.508,3.339-4.775,7.217-9.228,10.843-13.823a116.2,116.2,0,0,0,12.316-18.815c.9-1.759,2.01-3.483,2.872-5.242a2.017,2.017,0,0,0,.072-1.867c-.036-.072-.036-.108-.072-.18Z" transform="translate(-2281.203 -1009.534)" fill="#fefefe"/>
          <path id="Trazado_1049919" data-name="Trazado 1049919" d="M2320.313,1396.1c2.585,2.262,14.29,12.639,17.055,13.393l.144.5.4.108c.682-.108,1.436-1.113,2.083-1.508a12.3,12.3,0,0,1,1.58-.682l8.51-3.339a35.712,35.712,0,0,0,4.811-2.011c1.257-.718,2.119-2.047,3.375-2.765.108-.072.179-.108.287-.18l-1.652,4.668q-3.124,11.095-5.637,22.369c-.969,4.309-1.76,8.653-2.837,12.962a46.751,46.751,0,0,1-5.206,3.016c-2.37,1.292-4.7,2.729-7.145,3.842l-.215.215c-3.626,2.047-7.109,4.416-10.915,6.14l.072-3.375a40.278,40.278,0,0,0,.108-4.165q-2.585-21.92-4.237-43.876l-.072-.682a31.551,31.551,0,0,0-.5-4.632" transform="translate(-2107.035 -1267.77)" fill="#fefefe"/>
          <path id="Trazado_1049920" data-name="Trazado 1049920" d="M2534.711,1656.643l.4.251a3.22,3.22,0,0,1,.287,2.442,1.8,1.8,0,0,1-.934-1.221,1.663,1.663,0,0,1,.251-1.472" transform="translate(-2301.433 -1504.368)" fill="#6f495d"/>
          <path id="Trazado_1049921" data-name="Trazado 1049921" d="M2539.295,1838.283l.431.287a3,3,0,0,1,.287,2.3c-.431.036-.359.036-.682-.179a3.937,3.937,0,0,1-.036-2.406" transform="translate(-2305.73 -1669.312)" fill="#283d8c"/>
          <path id="Trazado_1049922" data-name="Trazado 1049922" d="M2320.313,1396.1c2.585,2.262,14.29,12.639,17.055,13.393l.144.5.4.108c.682-.108,1.436-1.113,2.083-1.508a12.3,12.3,0,0,1,1.58-.682l8.51-3.339a35.712,35.712,0,0,0,4.811-2.011c1.257-.718,2.119-2.047,3.375-2.765.108-.072.179-.108.287-.18l-1.652,4.668c-.539-.144-3.949,1.8-4.775,2.154-3.231,1.364-11.095,4.38-14.326,4.452h-.754a126.534,126.534,0,0,0-1.831,29.227,25.1,25.1,0,0,0,.9,6.319l-.216.215c-.646-.933-.826-2.872-.969-3.985-1.257-9.838-.036-21.4,1.472-31.166-5.493-2.765-10.2-7-15.475-10.125l-.072-.682a37.494,37.494,0,0,0-.539-4.6" transform="translate(-2107.035 -1267.77)" fill="#cee0f2"/>
          <path id="Trazado_1049923" data-name="Trazado 1049923" d="M2326.953,1452.737c5.314,3.124,9.982,7.361,15.475,10.125-1.508,9.8-2.729,21.364-1.472,31.166a11.4,11.4,0,0,0,.969,3.985c-3.626,2.047-7.109,4.416-10.915,6.14l.072-3.375a40.348,40.348,0,0,0,.108-4.165q-2.585-21.92-4.237-43.876" transform="translate(-2113.064 -1319.205)" fill="#fefefe"/>
          <path id="Trazado_1049924" data-name="Trazado 1049924" d="M2262.206,1026.766c2.513-.9,6.176-1.149,8.653,0a22.344,22.344,0,0,1,5.242,3.95c3.7,3.339,9.371,9.156,14,10.628a116.2,116.2,0,0,1-12.316,18.814c-3.591,4.56-7.5,9.012-10.844,13.824l-.4-.108-.144-.5c-2.765-.754-14.47-11.095-17.055-13.393-.934-.287-4.7,1.759-5.853,2.19a3.541,3.541,0,0,1-1.329.287,11.1,11.1,0,0,1,.79-3.124c1.867-6.032,5.027-11.705,8.258-17.091.969-1.616,2.082-3.2,2.98-4.847l.18-.323c2.082-2.406,4.057-3.842,7.324-4.093.754-1.472.467-4.488.5-6.212" transform="translate(-2036.073 -931.689)" fill="#f9ac91"/>
          <path id="Trazado_1049925" data-name="Trazado 1049925" d="M2253.952,1106.83c2.083-2.406,4.057-3.842,7.325-4.093,0,.108-.036.179-.036.287a15.964,15.964,0,0,1-1.508,3.734,23.944,23.944,0,0,0-1.939,6.068c-1.221,8.187,2.585,16.66,5.673,24.021a56.092,56.092,0,0,1,2.549,6.283c-2.765-.754-14.47-11.095-17.055-13.393-.934-.287-4.7,1.759-5.853,2.19a3.541,3.541,0,0,1-1.328.287,11.106,11.106,0,0,1,.79-3.124c1.867-6.032,5.027-11.705,8.258-17.091.969-1.616,2.083-3.2,2.98-4.847Z" transform="translate(-2035.719 -1001.376)" fill="#fefefe"/>
          <path id="Trazado_1049926" data-name="Trazado 1049926" d="M2335.337,1810.578c3.554-1.975,7.684-4.847,11.561-5.889,3.16,4.56,4.955,10.125,7.863,14.9.574,1.113,1.113,2.3,1.76,3.411,4.38,9.012,6.319,11.992,7.576,14.937-4.273,1.939-9.048,3.447-13.105,5.817a20.85,20.85,0,0,0,.646,2.262c1.005,2.585,1.365,5.494,2.047,8.187.538,2.154,1.4,4.38,1.8,6.571a121.907,121.907,0,0,0-15.152,6.391c-3.447,1.759-6.786,3.806-10.3,5.386-.4.18-.251.072-.5.323-.646-.79-2.872.215-3.914-.61a2.282,2.282,0,0,1-.108-1.544l-.108-.359c-.61-.144-1.149.395-1.723.646l-.61-.323a4.672,4.672,0,0,1-1.688-2.729,5.277,5.277,0,0,1,.862-1.328c-.179-.5-.5-.539-.934-.79a4.664,4.664,0,0,1-1.867-.754,2.034,2.034,0,0,1-.754-1.436,3.219,3.219,0,0,1,1.185-2.478,5.08,5.08,0,0,1-2.657-1.975,2.31,2.31,0,0,1-.251-1.939,4.367,4.367,0,0,1,2.406-2.19c-3.016-5.494-5.6-11.346-8.33-16.983-.862-3.16-4.093-7.073-5.17-10.915a19.6,19.6,0,0,1,5.35-2.98l.61-.359c3.806-1.724,7.289-4.129,10.915-6.14l.215-.215c2.442-1.113,4.812-2.549,7.145-3.842a57.264,57.264,0,0,0,5.242-3.052" transform="translate(-2093.909 -1638.806)" fill="#e9494a"/>
          <path id="Trazado_1049927" data-name="Trazado 1049927" d="M2306.641,2019.388a19.6,19.6,0,0,1,5.35-2.98c.359,3.95,6.14,14.362,8.115,18.348a36.436,36.436,0,0,1,1.723,3.591,2.617,2.617,0,0,0-1.077,1.616,2.313,2.313,0,0,0,.934,1.688c1.472,1.329,3.483,2.154,5.1,3.411-2.262.539-4.417,1.759-6.643,2.226-3.016-5.494-5.6-11.346-8.33-16.983-.862-3.124-4.093-7.037-5.17-10.915" transform="translate(-2094.62 -1831.064)" fill="#ce1828"/>
          <path id="Trazado_1049928" data-name="Trazado 1049928" d="M2429.558,2254.016a48.674,48.674,0,0,1,8.474,1.472c9.443,1.975,13,1.113,22.046-1.58,1.005,2.585,1.365,5.494,2.047,8.187.538,2.154,1.4,4.38,1.8,6.571a121.925,121.925,0,0,0-15.152,6.391c-3.447,1.76-6.786,3.806-10.3,5.386-.4.179-.251.072-.5.323-.646-.79-2.872.216-3.914-.61a2.281,2.281,0,0,1-.108-1.544l-.108-.359c-.61-.144-1.149.395-1.723.646l-.61-.323a4.673,4.673,0,0,1-1.688-2.729,5.278,5.278,0,0,1,.862-1.329c-.179-.5-.5-.539-.934-.79a4.666,4.666,0,0,1-1.867-.754,2.034,2.034,0,0,1-.754-1.436,3.219,3.219,0,0,1,1.185-2.478,5.078,5.078,0,0,1-2.657-1.975,2.31,2.31,0,0,1-.251-1.939,4.368,4.368,0,0,1,2.406-2.19c2.226-.431,4.38-1.687,6.643-2.226-1.58-1.257-3.626-2.083-5.1-3.411a2.312,2.312,0,0,1-.934-1.687,2.94,2.94,0,0,1,1.149-1.616" transform="translate(-2202.348 -2046.734)" fill="#f9ac91"/>
          <path id="Trazado_1049929" data-name="Trazado 1049929" d="M2474.609,2455.688a5.44,5.44,0,0,1,2.513-.251c.682-.359,1.9-1.185,2.621-1.149a7.406,7.406,0,0,0,2.37,3.662,1.261,1.261,0,0,1-1.113.754,3.817,3.817,0,0,0-1.544.431,3.118,3.118,0,0,1-.036,1.149,1.368,1.368,0,0,1-.61.287l-.108-.359c-.61-.144-1.149.4-1.723.646l-.61-.323a4.673,4.673,0,0,1-1.688-2.729,5.273,5.273,0,0,1,.862-1.329c-.179-.5-.5-.539-.934-.79" transform="translate(-2247.148 -2228.694)" fill="#f49a89"/>
          <path id="Trazado_1049930" data-name="Trazado 1049930" d="M2475.391,2492.58c1.149.538,2.478.574,3.555,1.113a3.258,3.258,0,0,0-1.688.826l-.179.826a4.689,4.689,0,0,1-1.687-2.765" transform="translate(-2247.858 -2263.468)" fill="#f9ac91"/>
          <path id="Trazado_1049931" data-name="Trazado 1049931" d="M2495.262,2495.246c1.472-.323,2.226-1.041,3.842-.9a1.261,1.261,0,0,1-1.113.754,3.812,3.812,0,0,0-1.544.431,3.118,3.118,0,0,1-.036,1.149,1.366,1.366,0,0,1-.61.287l-.108-.359c-.61-.144-1.149.4-1.723.646l-.61-.323.179-.826a3.283,3.283,0,0,1,1.724-.862" transform="translate(-2264.175 -2265.056)" fill="#ec7b69"/>
          <path id="Trazado_1049932" data-name="Trazado 1049932" d="M947.876,1947.658c5.206,2.478,10.161,2.514,15.763,2.585l-.072,3.375-.61.359a19.5,19.5,0,0,0-5.35,2.98c1.077,3.842,4.309,7.792,5.17,10.915,2.765,5.637,5.35,11.49,8.33,16.983a4.367,4.367,0,0,0-2.406,2.19,2.309,2.309,0,0,0,.251,1.939,5.429,5.429,0,0,0,2.657,1.975,3.22,3.22,0,0,0-1.185,2.478,1.8,1.8,0,0,0,.754,1.436,4.039,4.039,0,0,0,1.867.754c.467.251.754.287.934.79a5.261,5.261,0,0,0-.862,1.328,4.5,4.5,0,0,0,1.688,2.729l.61.323c.575-.251,1.113-.754,1.723-.646l.108.359a2.519,2.519,0,0,0,.108,1.544c1.041.826,3.267-.179,3.914.61.251-.251.072-.144.5-.323,3.519-1.58,6.858-3.626,10.3-5.386a114.659,114.659,0,0,1,15.152-6.391,43.706,43.706,0,0,0,1.436,5.565c5.386-1.4,10.987-2.549,16.229-4.524.287.79.575,1.58.934,2.37-1.508.862-3.339,1.544-4.74,2.513,2.262,3.591,6,14.4,6.355,18.743a48.739,48.739,0,0,0,8.187-4.165c2.836,10.125,2.908,16.8,2.513,27.252a258.808,258.808,0,0,1-2.477,27.4,200.139,200.139,0,0,1-3.591,20.035c-.9,3.986-2.011,7.971-2.872,11.992-4.955.036-9.946,0-14.9,0-8.976-.144-17.989,0-26.965,0H944.07c-.144,1.077-.323,2.19-.395,3.268H932.9c-4.919,0-9.874.144-14.757-.072-1.041-3.555-.934-7.792-1.077-11.454-.18-3.591-.323-7.145-.431-10.736.108-3.375-.359-6.858-.359-10.233a11.944,11.944,0,0,0-.108-2.262l.072-.215a3.542,3.542,0,0,0-.072-.611c-.251-.826-2.513.144-4.021-.79a3.806,3.806,0,0,1-.826-.682c-1.149-1.257-.646-4.309-.575-5.924l-2.334-.036a17.412,17.412,0,0,1,2.37-.036l1.005-2.047c-9.766-.144-19.533.18-29.3-.036a73.314,73.314,0,0,1-13.464.036,38.335,38.335,0,0,0-2.083-5.278c-3.662-8.581-8.869-19.568-14.865-26.714-8.33-9.874-13.07-9.3-25.062-10.341-.395-1.544-.646-3.339-1.688-4.6a1.605,1.605,0,0,0-1.364-.682c-.862.036-1.257.61-1.759,1.221-.144-1.077-.251-2.118-.323-3.2-.359-2.334-.539-4.739-.79-7.073,9.156-.969,14.649-5.206,20.179-12.567.574-1.149,2.693-6.966,3.2-7.361,3.339-.215,6.786-.072,10.125-.108,34.649-.574,53.176-1.041,88.9-1.185,1.544-6.212,3.447-14.506,3.626-20.9a52.734,52.734,0,0,0,.754-9.479" transform="translate(-745.621 -1768.634)" fill="#212f4d"/>
          <path id="Trazado_1049933" data-name="Trazado 1049933" d="M2037.177,2887.783c1.365-.287,2.944-2.011,4.237-2.693,1.436-.718,2.944-1.4,4.452-1.975s3.052-1.041,4.632-1.472c-.036,7.325-1.688,13.357-7,18.635-1.257,1.221-2.657,2.334-3.985,3.483-4.955.108-9.91-.108-14.9,0a34.731,34.731,0,0,0,2.8-6.1c.467-.144.933-.323,1.4-.5,3.483-1.257,6.966-6.14,8.366-9.371" transform="translate(-1838.512 -2616.769)" fill="#25a062"/>
          <path id="Trazado_1049934" data-name="Trazado 1049934" d="M1992.545,2740.139c2.693-2.873,5.1-5.709,8.761-7.325a23.593,23.593,0,0,1,1.185,4.416c1.005,5.386,1.293,10.161-.431,15.475-1.4,3.231-4.883,8.115-8.33,9.407-.467.179-.933.323-1.4.5a34.74,34.74,0,0,1-2.8,6.1l-.826.108,1.292-2.944.826-1.867c-.431-.5-1.077-.862-1.544-1.364-1.616-1.831-2.442-4.309-3.339-6.535l.072-.179c.431-1.544.682-3.16,1.113-4.7a51.2,51.2,0,0,1,2.944-7.468,17.46,17.46,0,0,1,2.478-3.626" transform="translate(-1803.395 -2481.62)" fill="#76af52"/>
          <path id="Trazado_1049935" data-name="Trazado 1049935" d="M2019.211,2834.149c.826-2.334,7-20.466,7.648-21.113a.722.722,0,0,1,.287-.144c.215.574-.215,1.544-.395,2.154-1.005,3.231-2.37,6.355-3.483,9.551-1.185,3.411-2.118,7.253-3.662,10.484l.036.216a34.731,34.731,0,0,1-2.8,6.1l-.826.108,1.293-2.944.826-1.867Z" transform="translate(-1830.707 -2554.338)" fill="#f0d63c"/>
          <path id="Trazado_1049936" data-name="Trazado 1049936" d="M1794.077,3122.184c4.955-.108,9.91.108,14.9,0,1.4-.036,2.944-.215,4.2.467a8.64,8.64,0,0,1,.79,5.6,2.3,2.3,0,0,1-1.221,1.544,6.021,6.021,0,0,1-2.406.072,21.671,21.671,0,0,1-.287,3.77,2.406,2.406,0,0,0-.215-.539c-2.262,0-4.56.215-6.822.251-2.908.036-5.781-.144-8.689-.179-5.278-.287-10.556-.431-15.8-.646a3.524,3.524,0,0,0-.072-.61c-.251-.826-2.513.144-4.021-.79a3.8,3.8,0,0,1-.826-.682c-1.149-1.257-.646-4.309-.574-5.925l-2.334-.036a17.373,17.373,0,0,1,2.37-.036l1.005-2.046c3.3,0,6.643.108,9.91-.216,3.052.108,6.248-.251,9.3.144Z" transform="translate(-1607.944 -2835.156)" fill="#fabc33"/>
          <path id="Trazado_1049937" data-name="Trazado 1049937" d="M1811.328,3204.26a2.26,2.26,0,0,1,1.185-.431c5.422-.718,11.095-.431,16.552-.611,5.134-.144,13.321-.826,18.168-.215a21.671,21.671,0,0,1-.287,3.77,2.411,2.411,0,0,0-.215-.539c-2.262,0-4.56.215-6.822.251-2.908.036-5.781-.144-8.689-.18-5.278-.287-10.556-.431-15.8-.646a3.527,3.527,0,0,0-.072-.61c-.287-.79-2.513.144-4.021-.79" transform="translate(-1644.835 -2908.364)" fill="#c45b34"/>
          <path id="Trazado_1049938" data-name="Trazado 1049938" d="M2027.734,3241.09c2.908.072,5.781.216,8.689.18,2.262-.036,4.56-.251,6.822-.251a1.413,1.413,0,0,1,.215.539c-1.257,12.423-3.95,32.135-4.093,33.859H2028.6c.467-8.187-.682-14.29-.862-34.326" transform="translate(-1841.349 -2943.111)" fill="#f49535"/>
          <path id="Trazado_1049939" data-name="Trazado 1049939" d="M1855.5,3234.377c5.278.215,10.556.359,15.8.646.18,20.071,1.293,26.139.9,34.326-4.919,0-9.874.144-14.757-.072-1.041-3.555-.933-7.791-1.077-11.454-.18-3.591-.323-7.145-.431-10.736.108-3.375-.359-6.858-.359-10.233a11.94,11.94,0,0,0-.108-2.262Z" transform="translate(-1684.917 -2937.08)" fill="#fabc33"/>
          <path id="Trazado_1049940" data-name="Trazado 1049940" d="M2067.37,1947.658c5.206,2.478,10.161,2.514,15.762,2.585l-.072,3.375-.611.359a19.5,19.5,0,0,0-5.35,2.98c1.077,3.842,4.309,7.792,5.17,10.915,2.765,5.637,5.35,11.49,8.33,16.983a4.368,4.368,0,0,0-2.406,2.19,2.309,2.309,0,0,0,.251,1.939,5.428,5.428,0,0,0,2.657,1.975,3.221,3.221,0,0,0-1.185,2.478,1.8,1.8,0,0,0,.754,1.436,4.04,4.04,0,0,0,1.867.754c.467.251.754.287.934.79a5.261,5.261,0,0,0-.862,1.328,4.5,4.5,0,0,0,1.688,2.729l.611.323c.574-.251,1.113-.754,1.723-.646l.108.359a2.52,2.52,0,0,0,.108,1.544c1.041.826,3.267-.179,3.914.61.251-.251.072-.144.5-.323,3.519-1.58,6.858-3.626,10.3-5.386a114.674,114.674,0,0,1,15.152-6.391,43.707,43.707,0,0,0,1.436,5.565c5.386-1.4,10.987-2.549,16.229-4.524.287.79.574,1.58.934,2.37-1.508.862-3.339,1.544-4.74,2.513,2.262,3.591,6,14.4,6.355,18.743a48.744,48.744,0,0,0,8.187-4.165c2.836,10.125,2.908,16.8,2.513,27.252a258.744,258.744,0,0,1-2.478,27.4,200.068,200.068,0,0,1-3.59,20.035c-.9,3.986-2.011,7.971-2.873,11.992-4.955.036-9.946,0-14.9,0,.826-2.047,1.975-4.021,2.98-6a70.364,70.364,0,0,0,3.411-7.935c4.991-13.536,8.222-32.71,8.294-47.144.036-5.96-.5-11.777-1.005-17.7a102.2,102.2,0,0,1-24.559,7.217c-3.734.646-7.54.969-11.2,1.759-2.657-4.165-5.745-8.151-8.187-12.423-3.339-.108-6.678.072-10.018,0-3.411-.072-6.786-.431-10.2-.79a114.63,114.63,0,0,0-5.924,13.429,80.607,80.607,0,0,0-13.177-3.95,23.611,23.611,0,0,0-1.185-4.416c-3.662,1.616-6.1,4.452-8.761,7.325.072-1.508,1.149-3.339,1.724-4.775.539-2.3,2.154-4.7,3.267-6.786-1.58-1.652-3.734-2.8-5.35-4.488,2.729-8.474,5.278-17.127,7.253-25.816.61-2.442,1.221-4.847,1.8-7.289,1.544-6.212,3.447-14.506,3.626-20.9a48.481,48.481,0,0,0,.79-9.407" transform="translate(-1865.114 -1768.634)" fill="#071142"/>
          <path id="Trazado_1049941" data-name="Trazado 1049941" d="M2323.125,2167.58c2.765,5.637,5.35,11.49,8.33,16.983a4.365,4.365,0,0,0-2.406,2.19,2.309,2.309,0,0,0,.251,1.939,5.429,5.429,0,0,0,2.657,1.975,3.222,3.222,0,0,0-1.185,2.478,1.805,1.805,0,0,0,.754,1.436,4.04,4.04,0,0,0,1.867.754c.467.251.754.287.933.79a5.264,5.264,0,0,0-.862,1.328,4.5,4.5,0,0,0,1.688,2.729l.61.323c.574-.251,1.113-.754,1.723-.646l.108.359a2.516,2.516,0,0,0,.108,1.544c1.041.826,3.267-.179,3.914.611l1.293,4.129c-1.831.072-3.7.036-5.53.072a17.794,17.794,0,0,0-.5-4.129,16.008,16.008,0,0,0,.287,4.129c-3.016-.036-6.068-.323-9.048-.611-.036-3.267-.574-6.678-.826-9.946-.251-2.944-.215-5.924-.646-8.833-.072.359-.108.251-.036.539a55.377,55.377,0,0,1,.359,6c.251,4.093.574,8.15.969,12.244-2.944-.287-5.888-.826-8.8-1.292l2.513-22.584c.215-2.334.862-13.213,1.472-14.506" transform="translate(-2105.969 -1968.341)" fill="#fefefe"/>
          <path id="Trazado_1049942" data-name="Trazado 1049942" d="M2564.063,2426.555c.251-.251.072-.144.5-.323,3.519-1.58,6.858-3.626,10.3-5.386a114.66,114.66,0,0,1,15.152-6.391,43.693,43.693,0,0,0,1.436,5.565c5.386-1.4,10.987-2.549,16.229-4.524.287.79.574,1.58.933,2.37-1.508.862-3.339,1.544-4.74,2.513,2.262,3.591,6,14.4,6.355,18.743-8.438,3.662-23.339,6.786-32.531,7.468-1.508-2.944-2.908-5.924-4.38-8.9-1.005.754-2.693,2.154-3.806,1.58-1.005-.467-3.626-7.289-4.093-8.581Z" transform="translate(-2328.38 -2192.524)" fill="#fabc33"/>
          <path id="Trazado_1049943" data-name="Trazado 1049943" d="M2564.063,2426.555c.251-.251.072-.144.5-.323,3.519-1.58,6.858-3.626,10.3-5.386a114.66,114.66,0,0,1,15.152-6.391,43.693,43.693,0,0,0,1.436,5.565c5.386-1.4,10.987-2.549,16.229-4.524.287.79.574,1.58.933,2.37-1.508.862-3.339,1.544-4.74,2.513-5.493,2.873-27.539,14-30.555,17.306-1.005.754-2.693,2.154-3.806,1.58-1.005-.467-3.626-7.289-4.093-8.581Z" transform="translate(-2328.38 -2192.524)" fill="#ce1828"/>
          <path id="Trazado_1049944" data-name="Trazado 1049944" d="M2067.37,1947.658c5.206,2.478,10.161,2.514,15.762,2.585l-.072,3.375-.611.359a19.5,19.5,0,0,0-5.35,2.98c1.077,3.842,4.309,7.792,5.17,10.915-.61,1.292-1.257,12.172-1.508,14.434l-2.513,22.585c-.969,5.817-1.867,11.6-3.016,17.342a60.133,60.133,0,0,1-15.978-6.714c-1.58-1.652-3.734-2.8-5.35-4.488,2.729-8.474,5.278-17.127,7.253-25.816.61-2.442,1.221-4.847,1.8-7.289,1.544-6.212,3.447-14.506,3.626-20.9a47.878,47.878,0,0,0,.79-9.371" transform="translate(-1865.114 -1768.634)" fill="#fabc33"/>
          <path id="Trazado_1049946" data-name="Trazado 1049946" d="M1879.994,2683.822c.682-1.185.969-3.124,1.472-4.488.287-.754.9-2.8,1.616-3.16l.359.287a27.426,27.426,0,0,1,3.878,4.021c.718.934,1.616,2.693,2.478,3.375a1.367,1.367,0,0,0,.359.108c2.334,0,4.668,0,7.037-.036-.575,1.436-1.651,3.267-1.724,4.775a20.319,20.319,0,0,0-2.477,3.555,49.659,49.659,0,0,0-2.944,7.468c-.431,1.544-.646,3.16-1.113,4.7l-.072.179a6.667,6.667,0,0,1-.467,1.652,50.387,50.387,0,0,0-4.38-4.38c-1.041-.9-2.406-1.616-3.375-2.585a3.076,3.076,0,0,1-.467-.718l.144-.072c-1.8-4.6-1.616-9.982-.323-14.686" transform="translate(-1706.284 -2430.186)" fill="#4c91da"/>
          <path id="Trazado_1049947" data-name="Trazado 1049947" d="M1900.2,2713.1c-1.723-6.5-2.729-13.249-3.95-19.892-.467-2.549-1.364-5.637-1.58-8.151l.323-.287a26.492,26.492,0,0,1,1.185,5.314c.646,3.375,1.365,6.75,1.975,10.161.575,3.267,1.113,9.156,2.406,11.992l-.072.179a6.667,6.667,0,0,1-.467,1.652,50.456,50.456,0,0,0-4.38-4.38c-1.041-.9-2.406-1.616-3.375-2.585a3.076,3.076,0,0,1-.467-.718l.144-.072c2.872,2.3,5.924,3.842,8.258,6.786" transform="translate(-1717.907 -2437.99)" fill="#5077ce"/>
          <path id="Trazado_1049948" data-name="Trazado 1049948" d="M1998.262,2760.194c2.334,0,4.668,0,7.037-.036-.574,1.436-1.652,3.268-1.723,4.776a20.315,20.315,0,0,0-2.478,3.554c-.969-2.765-2.047-5.422-3.052-8.15Z" transform="translate(-1814.391 -2506.45)" fill="#75321d"/>
          <path id="Trazado_1049949" data-name="Trazado 1049949" d="M1043.821,2278.639c3.339-.215,6.786-.072,10.125-.108,34.649-.574,53.176-1.041,88.9-1.185-.574,2.441-1.185,4.883-1.8,7.289-.108-.072-.18-.215-.323-.251-1.005-.323-26.319.4-29.263.431l-45.313.575c-8.51.107-17.019.107-25.529.574.61-1.113,2.693-6.966,3.2-7.325" transform="translate(-944.973 -2068.018)" fill="#fbc482"/>
          <path id="Trazado_1049950" data-name="Trazado 1049950" d="M1488.672,2791.751a6.548,6.548,0,0,0,2.729-2.083c1.149-1.724,1.688-4.2,2.37-6.176l4.6-13.07a83.55,83.55,0,0,1,3.124-8.51,8.252,8.252,0,0,1,1.688-2.442,3.791,3.791,0,0,1,2.047-1.077c2.442-.5,5.242-.215,7.72-.215l12.6.036c-1.292,4.74-1.472,10.09.359,14.686l-.144.072a3.077,3.077,0,0,0,.467.718c.969.934,2.3,1.688,3.375,2.585a50.457,50.457,0,0,1,4.38,4.381,6.663,6.663,0,0,0,.467-1.652c.9,2.226,1.724,4.7,3.339,6.535.467.5,1.113.862,1.544,1.365l-.826,1.867-1.293,2.944c-3.016-.359-6.248,0-9.3-.144-3.267.287-6.607.216-9.91.216-9.8-.144-19.568.179-29.335-.036" transform="translate(-1351.836 -2504.579)" fill="#a2373e"/>
        </g>
      </g>
      <g id="Grupo_1206891" data-name="Grupo 1206891" transform="translate(160.533 265.774)">
        <g id="Grupo_1206890" data-name="Grupo 1206890" clip-path="url(#clip-path-10)">
          <rect id="Rectángulo_418141" data-name="Rectángulo 418141" width="30.402" height="25.956" transform="matrix(0.983, -0.184, 0.184, 0.983, -3.866, 0.724)" fill="url(#linear-gradient-5)"/>
        </g>
      </g>
      <g id="Grupo_1206893" data-name="Grupo 1206893" transform="translate(0 0.002)">
        <g id="Grupo_1206892" data-name="Grupo 1206892" transform="translate(0 0)" clip-path="url(#clip-path-2)">
          <path id="Trazado_1049952" data-name="Trazado 1049952" d="M1981.717,2985.158c.9,2.226,1.723,4.7,3.339,6.535.467.5,1.113.862,1.544,1.364l-.826,1.867c-2.837-1.329-2.872-5.745-4.524-8.151a5.646,5.646,0,0,0,.467-1.616" transform="translate(-1799.138 -2710.769)" fill="#25a062"/>
          <path id="Trazado_1049954" data-name="Trazado 1049954" d="M359.766,1173.653c1.221-.215,3.2-.682,4.273.108-.18.323-.287.359-.646.467a14.441,14.441,0,0,1-2.477.216c.036-.359.108-.323-.108-.646Z" transform="translate(-326.697 -1065.469)" fill="#fabc33"/>
          <path id="Trazado_1049955" data-name="Trazado 1049955" d="M200.528,1181.643c-.251.395-.5.646-.467,1.113l.18.251a7.5,7.5,0,0,1-1.652,1.724,1,1,0,0,1-.934.251v-.4a9.752,9.752,0,0,1,2.872-2.944" transform="translate(-179.488 -1073.029)" fill="#fabc33"/>
          <path id="Trazado_1049956" data-name="Trazado 1049956" d="M264.786,1177.71a15.066,15.066,0,0,0-8.581,4.273,7.354,7.354,0,0,1-2.083,1.867l-.215-.5v.251a2.173,2.173,0,0,1,.395-1.041c1.867-2.872,6.068-4.847,9.3-5.6l1.041.108c.287.323.215.287.144.646" transform="translate(-230.568 -1068.773)" fill="#fabc33"/>
          <path id="Trazado_1049957" data-name="Trazado 1049957" d="M1778.646.254l.431-.251.251.144a36.946,36.946,0,0,1,0,5.637c-.036,10.628,0,7.4.036,14.757-.251-.9,0-1.8-.646-2.477-.395-5.889.215-11.921-.072-17.809" transform="translate(-1615.097 -0.003)" fill="#283d8c"/>
          <path id="Trazado_1049958" data-name="Trazado 1049958" d="M233.422,1124.641c1.221-.251,4.524-1.113,5.6-.574a2,2,0,0,1,.287.216l-.108.251a20.981,20.981,0,0,1-3.986.646c-1.185.287-2.334.575-3.483.9a34.07,34.07,0,0,0-8.151,4.488l-.18-.251c-.036-.5.215-.718.467-1.113,1.975-1.9,4.883-3.016,7.4-3.986Z" transform="translate(-202.866 -1020.587)" fill="#fabc33"/>
          <path id="Trazado_1049959" data-name="Trazado 1049959" d="M181.99,1078.024c1.436-.287,3.878-1.077,5.242-.538l.144.251c-.646.575-2.944.826-3.878.9a32.468,32.468,0,0,0-10.3,4.273c-1.185.79-2.19,2.011-3.483,2.585l-.18-.251a1.708,1.708,0,0,1,.18-.5c1.472-2.765,9.371-5.853,12.28-6.714" transform="translate(-153.948 -978.279)" fill="#fabc33"/>
          <path id="Trazado_1049960" data-name="Trazado 1049960" d="M1494.417,369.546a7.435,7.435,0,0,1-.467-4.309l.251.072a9.357,9.357,0,0,1,1.185,3.662,14.154,14.154,0,0,1,3.2-2.226l.395.323a11.006,11.006,0,0,1-3.339,3.088,10.124,10.124,0,0,1,3.734,1.58l.108.287c-1.185.539-3.411-.718-4.919-1.221-1.149.826-2.262,1.723-3.411,2.513l-.395.251c.215.323.359.467.323.862a6.982,6.982,0,0,1-.79-.287c-.359-.18-.18-.144-.61-.144l-1.005-.251c.323-.323.61-.646.933-.969,1.688-.934,3.124-2.3,4.811-3.231" transform="translate(-1351.836 -331.665)" fill="#fabc33"/>
          <path id="Trazado_1049961" data-name="Trazado 1049961" d="M437.908,2343.94c2.226.646,4.668,1.221,6.822.036a6.761,6.761,0,0,1,2.118-1.005l-.072.251c-.251.826-.574,1.292-.215,2.083.144.287.323.574.5.862.574,1.472,1.185,2.98,1.8,4.452a114.71,114.71,0,0,1-12.531-6.463,7.6,7.6,0,0,1,1.58-.216" transform="translate(-396.222 -2127.61)" fill="#431715"/>
          <path id="Trazado_1049962" data-name="Trazado 1049962" d="M1418.633,445.026c1.58,2.047,2.729,4.093,2.19,6.643a6.1,6.1,0,0,1-6.571,4.811,6.36,6.36,0,0,1-4.237-2.621,6.011,6.011,0,0,1,1.328-8.617,7.247,7.247,0,0,1,5.781-.79c-.323.323-.646.646-.933.969a4.875,4.875,0,0,0-3.734.574,5.109,5.109,0,0,0-2.478,3.052,5.558,5.558,0,0,0,1.257,4.452,4.763,4.763,0,0,0,2.872,1.616,5.193,5.193,0,0,0,5.817-4.2,5.543,5.543,0,0,0-1.257-3.986,7.556,7.556,0,0,0-.969-.9l-.251-.215-.18-.144c.431,0,.251-.036.61.144a2.968,2.968,0,0,0,.79.287c.036-.395-.144-.5-.323-.862Z" transform="translate(-1279.284 -403.376)" fill="#fabc33"/>
          <path id="Trazado_1049963" data-name="Trazado 1049963" d="M1427.687,456.61l.179.144.251.215a5.751,5.751,0,0,1,.969.9,5.544,5.544,0,0,1,1.257,3.985,5.064,5.064,0,0,1-7.971,3.232,5.33,5.33,0,0,1-1.939-5.1,4.987,4.987,0,0,1,2.478-3.052,4.875,4.875,0,0,1,3.734-.574Z" transform="translate(-1289.81 -414.277)" fill="#cee0f2"/>
          <path id="Trazado_1049964" data-name="Trazado 1049964" d="M1714.989,196.487c.646.682.395,1.58.646,2.477q.108,13.141.036,26.283a6.645,6.645,0,0,1,2.944,1.077,6.462,6.462,0,0,1-3.555,11.777,8.1,8.1,0,0,1-2.765-.431c-.287-.144-.574-.323-.862-.5a6.387,6.387,0,0,1,2.621-11.813,2.209,2.209,0,0,0,.826-.251.5.5,0,0,0,.144-.108c-.431-3.016-.108-6.535-.108-9.623.036-6.284-.072-12.6.072-18.886" transform="translate(-1551.332 -178.427)" fill="#212f4d"/>
          <path id="Trazado_1049965" data-name="Trazado 1049965" d="M1721.125,528.149a9.751,9.751,0,0,1-.9-.395,5.584,5.584,0,0,1-2.513-7.432,6.259,6.259,0,0,1,4.093-3.267,5.415,5.415,0,0,1,4.309.9c1.328,1.257,2.334,2.513,2.37,4.452a5.8,5.8,0,0,1-5.6,6.032,14.965,14.965,0,0,1-1.759-.287" transform="translate(-1559.299 -469.407)" fill="#cee0f2"/>
          <path id="Trazado_1049966" data-name="Trazado 1049966" d="M476.36,728.238a20.62,20.62,0,0,1,3.447-3.626c.467,3.483.538,7.073.754,10.592.323,5.134.574,10.3.79,15.439.108,2.729-.036,5.565.251,8.258q.97,16.75,1.4,33.536c.18,5.135.108,10.413.539,15.547a1.778,1.778,0,0,0,.287.933c-1.616.539-3.232,1.005-4.775,1.688-.431-6.355-.431-12.818-.574-19.173-.036-1.688.18-6.463-.251-7.827-.359-1.113-2.011-.036-2.836-.574v-.359l.323-.251a7.113,7.113,0,0,1,2.442.287q-.108-11.849-.718-23.662L477.4,757.9c-.144-4.919-.179-9.8-.395-14.721-.251-4.991-.682-9.982-.646-14.937" transform="translate(-431.693 -658.007)" fill="#f49535"/>
          <path id="Trazado_1049967" data-name="Trazado 1049967" d="M496.875,1084.9a8.9,8.9,0,0,1,3.519.144c.395.5.287.862.287,1.508a8.136,8.136,0,0,1-3.483,0l-.287-.467Z" transform="translate(-451.203 -985.081)" fill="#331a00"/>
          <path id="Trazado_1049968" data-name="Trazado 1049968" d="M51.735,495.277c2.98-.072,6-.144,8.94,0,3.3,0,6.642,0,9.946-.072V503.5c-.072,0-42.943.108-46.031.072a56.969,56.969,0,0,0-7,.036c-5.673-.251-11.49.036-17.2.036v-8.33c4.129-.036,8.294-.072,12.423,0a74.343,74.343,0,0,0,8.94.072l2.011.108c2.19.072,4.416,0,6.607-.036h1.616c2.765.036,5.565.108,8.33-.072l.682-.072c3.231,0,6.463,0,9.694-.072Z" transform="translate(-0.354 -449.677)" fill="#5077ce"/>
          <path id="Trazado_1049969" data-name="Trazado 1049969" d="M885.547,41.262a18.169,18.169,0,0,1,3.16-10.3,18.761,18.761,0,0,1,11.921-7.827,19.523,19.523,0,0,1,14.434,3.052c4.775,3.375,7.037,8.51,7.935,14.111a18.642,18.642,0,0,1-12.423,19.461,19.38,19.38,0,0,1-18.419-3.662,19.016,19.016,0,0,1-6.571-13.608c-.036-.395-.036-.826-.036-1.221" transform="translate(-804.149 -20.724)" fill="#f49535"/>
          <path id="Trazado_1049970" data-name="Trazado 1049970" d="M996.2,147.268a7.548,7.548,0,0,1,1.759,1.616c-4.273,4.237-7.9,9.084-12.1,13.393-2.37-2.118-4.56-4.452-6.894-6.607a28,28,0,0,1-2.011-2.118,17.71,17.71,0,0,1,1.508-1.759c2.549,2.3,4.991,4.668,7.54,7,2.944-3.842,6.822-7.971,10.2-11.526" transform="translate(-887.154 -133.732)" fill="#fefefe"/>
          <path id="Trazado_1049971" data-name="Trazado 1049971" d="M523.438,723.6c11.49-.395,23.015.467,34.505.682l69.082,1.508,21.687.323c4.129.072,8.222.359,12.352.323a16.5,16.5,0,0,0,.215,6.5c-8.366-.072-16.768-.251-25.134-.539l-38.2-.754q-20.951-.161-41.9-.754c-8.833-.144-17.773-.108-26.57-.61,1.867,55.115,1.759,54.684,2.3,65.312.143,3.878.143,7.827.61,11.705-1.58.431-3.3.251-4.919.646a1.685,1.685,0,0,1-.287-.934c-.4-5.135-.359-10.377-.539-15.547q-.431-16.8-1.4-33.536c-.251-2.729-.144-5.529-.251-8.258-.215-5.135-.467-10.3-.79-15.439-.215-3.555-.287-7.145-.754-10.628" transform="translate(-475.325 -656.997)" fill="#fbc482"/>
          <path id="Trazado_1049972" data-name="Trazado 1049972" d="M290.43,1573.44a11.949,11.949,0,0,1,3.16.574,23.035,23.035,0,0,1,.826,16.875,14.21,14.21,0,0,1-4.021,6.1,10.378,10.378,0,0,0-1.759,1.8c-2.334.754-5.278,2.837-7.935,3.95a72.063,72.063,0,0,1-24.811,5.565c-1.939.072-3.842-.144-5.745-.18-.646-.144-1.328-.251-1.975-.359a87.574,87.574,0,0,1,.036,23.339c-2.082-2.083-3.986-4.488-7.181-4.452-3.375,0-6.212,2.729-7.325,5.889a10.161,10.161,0,0,0-.574,3.411,9.7,9.7,0,0,0,3.662,7.4,13.433,13.433,0,0,0,2.872,1.831,7.966,7.966,0,0,0-1.616.215c-.036,0-.072-.036-.108-.036-7.289-4.057-16.732-17.7-19.1-25.457a18.1,18.1,0,0,1,1.472-14.614c2.37-5.063,6.391-8.581,11.2-11.2-2.047.036-5.709,1.293-7.468.144-.467-.323-.467-.431-.61-.934a2.79,2.79,0,0,1,1.185-1.616c2.693-2.011,5.924-1.293,8.976-.826a7.822,7.822,0,0,1-1.723-4.74,5.009,5.009,0,0,1,1.4-3.626c.9-.79,1.9-.862,2.549.179,1.113,1.8.215,4.775-.144,6.714,2.585-3.95,5.529-5.817,9.623-7.971,1.544-.646,3.2-1.149,4.775-1.688,1.616-.359,3.339-.179,4.919-.646,7.073-.431,16.7,1.221,23.3-.574,1.436-.4,2.765-1.149,4.165-1.652,1.544-.539,3.339-.61,4.811-1.257,1.077-.538,2.047-1.472,3.16-2.154" transform="translate(-197.902 -1428.813)" fill="#75321d"/>
          <path id="Trazado_1049973" data-name="Trazado 1049973" d="M620.22,1725.783a1.206,1.206,0,0,1,.538.323c.036.395.072.538-.251.862a13.827,13.827,0,0,1-3.447,1.867c-8.222,3.95-17.773,5.745-26.821,6.032l-.395-.18v-.574c.646-.682,6.822-.933,8.115-1.113a65.35,65.35,0,0,0,22.261-7.217" transform="translate(-535.627 -1567.153)" fill="#431715"/>
          <path id="Trazado_1049974" data-name="Trazado 1049974" d="M219.526,1919.533c.215.036.79.072.9.287.5.9-.18,3.124-.144,4.2a20.913,20.913,0,0,0,2.19,8.94c.359.718,1.041,1.867,1.9,2.119a.757.757,0,0,0,.682-.036c1.9-1.113,1.257-5.745,3.411-6.5a1.59,1.59,0,0,1,.934.611c.754,2.441,1.257,9.012,3.842,10.269a1.3,1.3,0,0,0,1.257-.072c1.364-.682,2.334-2.406,3.016-3.7.934.969,2.154,2.011,3.591,1.975a2.6,2.6,0,0,0,1.867-.969c3.555-3.985,2.944-12.926,3.985-14.4.072-.144.359-.215.5-.251a87.574,87.574,0,0,1,.036,23.339c-2.082-2.083-3.986-4.488-7.181-4.452A7.4,7.4,0,0,0,235,1943.41a10.186,10.186,0,0,0-2.621,7.253,9.8,9.8,0,0,0,3.626,6.894,13.43,13.43,0,0,0,2.872,1.831,7.956,7.956,0,0,0-1.616.215c-.036,0-.072-.036-.108-.036-7.289-4.057-16.732-17.7-19.1-25.457a18.03,18.03,0,0,1,1.472-14.578" transform="translate(-197.193 -1743.094)" fill="#431715"/>
          <path id="Trazado_1049975" data-name="Trazado 1049975" d="M400.037,1858.165c1.939.036,3.806.251,5.745.18a71.246,71.246,0,0,0,24.811-5.565c2.621-1.077,5.1-2.908,7.72-3.878.072-.036.144-.036.215-.072.323.862.646,1.759.9,2.657,1.257,5.063,2.226,10.2,3.7,15.224,1.257,4.38,3.16,8.689,3.878,13.213a23.287,23.287,0,0,1-.036,6.319c-.072.575-.61,2.837-.323,3.267-.5.395-2.585,6.212-3.2,7.361-5.565,7.361-11.059,11.6-20.179,12.567.251,2.334.431,4.74.79,7.073-1.616-.467-3.267-.826-4.847-1.329a42.036,42.036,0,0,1-14.075-7.54c-1.472-1.257-2.657-2.729-4.093-3.985l-.144-.108a8.331,8.331,0,0,0-.467-1.616c-.61-1.472-1.221-2.944-1.8-4.452a6.764,6.764,0,0,1-.5-.862,1.71,1.71,0,0,1,.036-1.508c0-.036.287-.862.287-.826a6.366,6.366,0,0,0-2.118,1.005c-2.154,1.185-4.6.61-6.822-.036a16.974,16.974,0,0,1-2.872-1.831,9.539,9.539,0,0,1-3.591-8.4,10.2,10.2,0,0,1,1.149-3.77,7.95,7.95,0,0,1,6.75-4.524c3.231,0,5.1,2.37,7.181,4.452a87.574,87.574,0,0,0-.036-23.339c.61.072,1.293.18,1.939.323" transform="translate(-347.795 -1678.89)" fill="#f9ac91"/>
          <path id="Trazado_1049976" data-name="Trazado 1049976" d="M880.859,2174.612c.754.215,4.955,4.165,5.853,4.955a9.7,9.7,0,0,1-5.278,4.488l-.144-.072.072-.18a11.869,11.869,0,0,0,4.74-3.878c-2.011-1.364-4.273-3.016-5.242-5.314" transform="translate(-799.892 -1974.727)" fill="#a2373e"/>
          <path id="Trazado_1049977" data-name="Trazado 1049977" d="M833.567,2355.471a5.992,5.992,0,0,1-3.806,3.231,7.006,7.006,0,0,1-5.422-1.293,11.34,11.34,0,0,1-1.293-1.005,69.41,69.41,0,0,1,10.52-.933" transform="translate(-747.394 -2138.961)" fill="#e9494a"/>
          <path id="Trazado_1049978" data-name="Trazado 1049978" d="M791.92,2282.428l.18-.4c.323.4.18,1.472.108,2.011a13.641,13.641,0,0,1-1.4,4.74,73.387,73.387,0,0,0-10.484.933,15.855,15.855,0,0,1-4.237-4.919.78.78,0,0,1-.036-.79,13.389,13.389,0,0,0,4.883,3.591,9.572,9.572,0,0,0,7.253.036c2.226-1.113,2.98-3.052,3.734-5.206" transform="translate(-704.634 -2072.273)" fill="#a2373e"/>
          <path id="Trazado_1049979" data-name="Trazado 1049979" d="M896.586,1933.153a10.688,10.688,0,0,1,2.836.108c1.652.323,4.129,1.4,5.027,2.908a1.344,1.344,0,0,1,.18,1.113,2.429,2.429,0,0,1-1.364,1.544,22.527,22.527,0,0,1-2.836-1.328c-1.472-.574-4.093-.4-5.027-1.9a1.23,1.23,0,0,1-.18-.79,2.969,2.969,0,0,1,1.364-1.652" transform="translate(-812.927 -1755.421)" fill="#431715"/>
          <path id="Trazado_1049980" data-name="Trazado 1049980" d="M997.262,2171.236a4.586,4.586,0,0,1,1.975.179,3.111,3.111,0,0,1,1.688,1.688,3.934,3.934,0,0,1,.18.611,3.28,3.28,0,0,1,.036.61,3.533,3.533,0,0,1-.072.61,1.587,1.587,0,0,1-.215.574,3.789,3.789,0,0,1-2.406,1.975c-1.4.072-2.98-.287-3.662-1.508a2.632,2.632,0,0,1-.144-2.083,4.76,4.76,0,0,1,2.621-2.657" transform="translate(-903.082 -1971.638)" fill="#f49079"/>
          <path id="Trazado_1049981" data-name="Trazado 1049981" d="M645.64,1988.244a3.127,3.127,0,0,1,1.149.108,2.188,2.188,0,0,1,1.293,1.292c.575,2.3-4.344,3.375-5.673,4.416a11.789,11.789,0,0,0-2.37,3.088c-.072.036-.144.108-.215.144a1.4,1.4,0,0,1-1.077.108,1.772,1.772,0,0,1-.682-.934,4.829,4.829,0,0,1,.79-3.555,11.727,11.727,0,0,1,6.786-4.668" transform="translate(-579.322 -1805.485)" fill="#431715"/>
          <path id="Trazado_1049982" data-name="Trazado 1049982" d="M776.953,2285.036c2.621-.682,7-.144,9.982-.5,2.047-.251,3.842-1.113,5.565-1.328l.323.287c-.718,2.154-1.508,4.093-3.7,5.135a9.571,9.571,0,0,1-7.253-.036,13.132,13.132,0,0,1-4.919-3.555" transform="translate(-705.537 -2073.338)" fill="#fefefe"/>
          <path id="Trazado_1049983" data-name="Trazado 1049983" d="M415.656,2203.866c3.626-.072,5.35.754,7.684,3.231-1.077-.072-2.585-.251-3.411.61a1.265,1.265,0,0,0-.323,1.113c.108,1.293,1.939,1.688,1.005,3.16a3.868,3.868,0,0,1-2.082,1.544,3.462,3.462,0,0,1-.862,0,5.544,5.544,0,0,1-1.508-.61,7.081,7.081,0,0,1-2.944-4.344,2.881,2.881,0,0,1,.036-2.19,4.254,4.254,0,0,1,2.406-2.513" transform="translate(-375.047 -2001.288)" fill="#e9494a"/>
          <path id="Trazado_1049984" data-name="Trazado 1049984" d="M412.859,2221c.5-.395,1.077-1.041,1.723-1.077.108.287-.108,2.8.072,3.878a18.42,18.42,0,0,1,2.621,4.344,5.544,5.544,0,0,1-1.508-.61,7.081,7.081,0,0,1-2.944-4.345,2.881,2.881,0,0,1,.036-2.19" transform="translate(-374.692 -2015.874)" fill="#ec7b69"/>
          <path id="Trazado_1049985" data-name="Trazado 1049985" d="M629.656,2223.778a6.678,6.678,0,0,1,6.463,2.908,1.853,1.853,0,0,1,.287,1.544c-.431,1.759-3.591,3.519-5.063,4.416a4.815,4.815,0,0,1-3.914-.251c-2.262-1.149-3.519-3.914-2.154-6.14.969-1.58,2.693-2.083,4.38-2.478" transform="translate(-567.288 -2019.332)" fill="#f49079"/>
          <path id="Trazado_1049986" data-name="Trazado 1049986" d="M898.6,2032.253a9.415,9.415,0,0,1,3.878.215,4.972,4.972,0,0,1,2.944,2.765,7.577,7.577,0,0,1,.251,5.673,5.029,5.029,0,0,1-2.944,2.98,6.418,6.418,0,0,1-3.088,0,5.778,5.778,0,0,1-3.411-3.016,7.1,7.1,0,0,1-.539-5.6,4.936,4.936,0,0,1,2.908-3.016" transform="translate(-813.036 -1845.365)" fill="#fefefe"/>
          <path id="Trazado_1049987" data-name="Trazado 1049987" d="M934.36,2060.158a3.924,3.924,0,0,1,.934.179,2.894,2.894,0,0,1,1.58,4.058,3.259,3.259,0,0,1-2.118,1.759,3.611,3.611,0,0,1-1.113-.287,3.921,3.921,0,0,1-.539-.287,2.465,2.465,0,0,1-.467-.395,2.557,2.557,0,0,1-.359-.5,2.987,2.987,0,0,1-.144-2.585,3.508,3.508,0,0,1,2.226-1.939" transform="translate(-846.248 -1870.793)" fill="#121223"/>
          <path id="Trazado_1049988" data-name="Trazado 1049988" d="M568.359,1858.165c1.939.036,3.806.251,5.745.18a71.246,71.246,0,0,0,24.811-5.565c2.549-1.041,5.637-3.231,7.935-3.95.323.862.646,1.759.9,2.657-2.657,1.9-5.6,2.908-8.617,4.129a90.574,90.574,0,0,1-8.474,3.375,38.147,38.147,0,0,1-12.064,1.652,37.343,37.343,0,0,1-4.883-.431c-1.723-.287-4.021-.754-5.35-2.047" transform="translate(-516.117 -1678.89)" fill="#ec7b69"/>
          <path id="Trazado_1049989" data-name="Trazado 1049989" d="M681.615,2090.237a4.706,4.706,0,0,1,2.98,1.041,7.028,7.028,0,0,1,2.334,4.883,5.661,5.661,0,0,1-1.329,4.309c-1.293,1.436-2.872,1.652-4.668,1.759a6.033,6.033,0,0,1-3.124-1.221,5.848,5.848,0,0,1-1.041-8.33,6.658,6.658,0,0,1,4.847-2.442" transform="translate(-613.395 -1898.107)" fill="#fefefe"/>
          <path id="Trazado_1049990" data-name="Trazado 1049990" d="M730.4,2118.663a5.776,5.776,0,0,1,1.113.036,2.824,2.824,0,0,1,1.652,1.292,3.418,3.418,0,0,1,.359,2.585,3.3,3.3,0,0,1-1.723,2.011,3.4,3.4,0,0,1-2.765-1.292,2.707,2.707,0,0,1-.467-2.262,3.5,3.5,0,0,1,1.831-2.37" transform="translate(-661.53 -1923.912)" fill="#121223"/>
          <path id="Trazado_1049991" data-name="Trazado 1049991" d="M552.734,2378.127c.072.036.18.072.251.108,1.616.862,3.16,3.088,4.524,4.309,5.063,4.56,12.962,8.15,19.892,7.5.251,2.334.431,4.74.79,7.073-1.616-.467-3.267-.826-4.847-1.329a42.037,42.037,0,0,1-14.075-7.54c-1.472-1.257-2.657-2.729-4.093-3.986l-.144-.108a8.331,8.331,0,0,0-.467-1.616q-.969-2.208-1.831-4.417" transform="translate(-501.928 -2159.535)" fill="#ec7b69"/>
          <path id="Trazado_1049992" data-name="Trazado 1049992" d="M588.672,796.877c8.8.539,17.737.467,26.57.61q20.951.592,41.9.754l38.275.754c8.366.251,16.768.431,25.134.539l.072.251c2.406,7.684,11.6,9.407,12.387,17.522.682,7.037-6.714,12.746-2.837,19.856a6.96,6.96,0,0,0,1.759,2.406c4.919-4.991,14.254-8.294,20.825-10.52l-.18.323c-.933,1.652-2.011,3.231-2.98,4.847-3.231,5.386-6.391,11.059-8.258,17.091a10.518,10.518,0,0,0-.79,3.124,3.265,3.265,0,0,0,1.328-.287c1.149-.431,4.919-2.442,5.853-2.19a31.761,31.761,0,0,1,.539,4.524l.072.682q1.67,21.974,4.237,43.876a40.314,40.314,0,0,1-.108,4.165c-5.637-.036-10.592-.072-15.762-2.585a48.479,48.479,0,0,1-.79,9.407c-.18,6.391-2.082,14.685-3.626,20.9-35.87.144-54.325.61-88.9,1.185-3.339.036-6.786-.108-10.125.108-.287-.431.251-2.693.323-3.267a23.272,23.272,0,0,0,.036-6.319c-.754-4.488-2.621-8.833-3.878-13.213-1.436-5.027-2.406-10.161-3.7-15.224-.251-.9-.61-1.759-.9-2.657a10.409,10.409,0,0,1,1.759-1.8,14.54,14.54,0,0,0,4.021-6.1,23.035,23.035,0,0,0-.826-16.876,11.693,11.693,0,0,0-3.16-.574,31.6,31.6,0,0,1-3.232,2.154c-1.472.646-3.267.718-4.811,1.257-1.4.5-2.729,1.257-4.165,1.652-6.607,1.8-16.229.144-23.3.574-.431-3.842-.431-7.827-.61-11.705-.359-10.413-.287-9.551-2.154-65.24" transform="translate(-534.563 -723.63)" fill="#095b37"/>
          <path id="Trazado_1049993" data-name="Trazado 1049993" d="M1660.156,1209.021c1.867-.215,19.712-.4,20.969,0l.072.359c-2.118.251-19.353.323-20.825,0Z" transform="translate(-1507.558 -1097.679)" fill="#fefefe"/>
          <path id="Trazado_1049994" data-name="Trazado 1049994" d="M773.013,965.237c.072.072.144.108.216.18.539.682-.862,6.068-1.113,7.289,1.9,0,5.35-.359,7.073.072l.108.215c-1.113.646-5.709.323-7.217.323l-1.005,4.811a3.142,3.142,0,0,1-.5,1.508l-.144-.108a59.716,59.716,0,0,1,.969-6.176c-1.293,0-2.585.108-3.878.072a1.385,1.385,0,0,1-1.113-.395c.754-.682,4.057-.323,5.17-.323a33.1,33.1,0,0,1,1.436-7.468" transform="translate(-695.96 -876.515)" fill="#fefefe"/>
          <path id="Trazado_1049995" data-name="Trazado 1049995" d="M1376.479,898.44l.467.144c.539,1.077.179,6.319.179,7.9,1.975,0,4.057-.144,6.032.036l.144.287-.179.251a33.009,33.009,0,0,1-5.96.108c0,1.616.323,8.258-.431,9.156-.323-.395-.251-.646-.287-1.149v-8.007c-2.226,0-6.607.574-8.474-.359,1.364-.682,6.642-.323,8.474-.287-.072-2.729-.036-5.386.036-8.079" transform="translate(-1242.228 -815.857)" fill="#fefefe"/>
          <path id="Trazado_1049996" data-name="Trazado 1049996" d="M1061.286,1956.6c-4.165.036-37.449.359-38.239-.179l.144-.215c1.365-.467,36.3-.539,37.952-.144Z" transform="translate(-929.011 -1776.033)" fill="#fefefe"/>
          <path id="Trazado_1049997" data-name="Trazado 1049997" d="M1437.109,1868.815c.036-.072.108-.108.108-.179.862-1.831-.718-7.4.323-8.869l.251.108c.431,2.334.108,6.319.108,8.8h22.225l.108.575a50.959,50.959,0,0,1-8.115.18c-4.74,0-9.479.036-14.219-.036.036,1.293.323,7.4-.18,8.043l-.215-.144c-.287-2.442.4-5.637-.251-7.9Z" transform="translate(-1305.013 -1688.821)" fill="#fefefe"/>
          <path id="Trazado_1049998" data-name="Trazado 1049998" d="M699.609,1539.669c3.339-.323,44.271-.179,45.384.251l.036.395c-11.526-.215-23.051-.072-34.541-.108-2.3,0-9.012.323-10.7-.18Z" transform="translate(-635.302 -1397.986)" fill="#fefefe"/>
          <path id="Trazado_1049999" data-name="Trazado 1049999" d="M1136.092,1181.1c.359-7.289,2.011-14.111,7.468-19.317a19.807,19.807,0,0,1,28.437.933c2.657,2.872,3.985,6.391,5.458,9.946.323-1.652.646-4.452,2.226-5.422a.659.659,0,0,1,.574-.072c2.083,1.975,3.555,17.2,3.662,20.574.036.79-.251,2.944.18,3.519l.287.144a3.057,3.057,0,0,1,.5.323c-.826,1.041-10.915,5.673-12.818,6.571a18.418,18.418,0,0,0-1.472-2.908c-.359-.5-.539-.862-1.149-.969a15.51,15.51,0,0,1-2.226,2.836,15.084,15.084,0,0,1-10.807,4.847,21.3,21.3,0,0,1-14.506-5.817,20.331,20.331,0,0,1-5.888-14.649c-1.436.036-6.5.359-7.5-.359,1.257-.538,5.888-.179,7.576-.179" transform="translate(-1024.785 -1049.933)" fill="#095b37"/>
          <path id="Trazado_1050000" data-name="Trazado 1050000" d="M1135.736,1181.1c.359-7.289,2.011-14.111,7.468-19.317a19.807,19.807,0,0,1,28.437.933l-.287.144a19.174,19.174,0,0,0-14.219-6.284,19.666,19.666,0,0,0-14.039,5.889c-4.955,4.955-6.786,11.813-6.894,18.671,1.4,0,9.012-.251,9.694.287-2.98.754-6.643.323-9.73.287.036,5.673,1.688,10.449,5.817,14.47a21.175,21.175,0,0,0,14.183,5.53,13.843,13.843,0,0,0,10.089-4.452c.934-1.005,1.831-2.047,2.729-3.088l.072.287a15.522,15.522,0,0,1-2.226,2.837,15.084,15.084,0,0,1-10.807,4.847,21.3,21.3,0,0,1-14.506-5.817,20.332,20.332,0,0,1-5.889-14.649c-1.436.036-6.5.359-7.5-.359,1.293-.575,5.924-.216,7.612-.216" transform="translate(-1024.429 -1049.933)" fill="#fefefe"/>
          <path id="Trazado_1050001" data-name="Trazado 1050001" d="M1382.7,1239.666c-2.908-2.908-10.125-6.643-12.1-10.053a1.21,1.21,0,0,1-.215-1.149,1.475,1.475,0,0,1,.467-.287c2.513-1.113,10.843,5.781,13.428,7.217,0-.287-9.479-7.361-10.664-8.222-2.262-1.616-5.96-3.627-6.678-5.422a1.006,1.006,0,0,1,.072-1.005,2.19,2.19,0,0,1,.718-.323c3.77-.646,11.992,5.278,15.044,7.755,1.831,1.472,3.519,3.231,5.458,4.524l.215-.144c-.467-.934-2.765-2.478-3.662-3.267-2.083-1.867-9.228-8.8-9.335-11.167a1.179,1.179,0,0,1,.359-1.005c1.149-.467,2.478.144,3.483.718a32.316,32.316,0,0,1,4.955,4.2c2.083,1.939,4.2,3.842,6.391,5.673.79.682,1.8,1.759,2.872,1.939.323-.287.287-.144.287-.5.144-2.477-3.985-9.264-5.673-11.167l.287-.144c2.657,2.872,3.986,6.391,5.458,9.946.323-1.652.646-4.452,2.226-5.422a.66.66,0,0,1,.574-.072c2.083,1.975,3.555,17.2,3.662,20.574.036.79-.251,2.944.18,3.519l.287.144a3.057,3.057,0,0,1,.5.323c-.826,1.041-10.915,5.673-12.818,6.571a18.421,18.421,0,0,0-1.472-2.908c-.359-.5-.539-.862-1.149-.969l-.072-.287c-.574-1.508-8.043-7.037-9.694-8.151-1.652-1.149-3.555-2.083-5.1-3.339-.431-.359-.79-.646-.826-1.221A1.175,1.175,0,0,1,1371,1236c2.8-.61,9.264,2.226,11.705,3.662" transform="translate(-1241.2 -1105.093)" fill="#f9ac91"/>
          <path id="Trazado_1050002" data-name="Trazado 1050002" d="M1609.191,1157.4c4.919-4.991,14.254-8.294,20.825-10.52l-.18.323c-.934,1.652-2.011,3.232-2.98,4.847-3.231,5.386-6.391,11.059-8.258,17.091a10.522,10.522,0,0,0-.79,3.124,3.268,3.268,0,0,0,1.328-.287c1.149-.431,4.919-2.442,5.853-2.19a31.75,31.75,0,0,1,.538,4.524l.072.682q1.67,21.974,4.237,43.876a40.313,40.313,0,0,1-.108,4.165c-5.637-.036-10.592-.072-15.762-2.585a48.47,48.47,0,0,1-.79,9.407c-1.005,1.185-1.651,3.124-2.442,4.488a33.276,33.276,0,0,1-8.258,9.515,16.6,16.6,0,0,1-3.016,1.939,18.8,18.8,0,0,1-6,1.831,17.183,17.183,0,0,1-10.772-2.118c-5.6-3.591-9.8-12.567-12.926-18.42a30.208,30.208,0,0,0-2.8-5.206l-.108-.574c-2.19-4.452-4.309-8.9-6.14-13.536-2.154-5.35-3.95-10.772-6.032-16.157a27.631,27.631,0,0,0,4.273-1.8c1.867-.9,11.957-5.565,12.818-6.571h.251a7.11,7.11,0,0,1,2.19-1.4c1.293.826,13.68,19.712,15.619,22.692,2.837-8.8,2.837-12.675,11.023-31.381,2.406-5.314,4.883-11.023,8.33-15.762" transform="translate(-1411.783 -1041.459)" fill="#f49535"/>
          <path id="Trazado_1050003" data-name="Trazado 1050003" d="M1956.462,1157.4c4.919-4.991,14.255-8.294,20.825-10.52l-.179.323c-.934,1.652-2.011,3.232-2.98,4.847-3.231,5.386-6.391,11.059-8.258,17.091a10.522,10.522,0,0,0-.79,3.124,3.268,3.268,0,0,0,1.328-.287c1.149-.431,4.919-2.442,5.853-2.19a31.75,31.75,0,0,1,.538,4.524l.072.682q1.67,21.974,4.237,43.876-1.239.162-2.478.215c-9.12.5-17.378-4.632-20.358-13.393-.467-1.328-1.041-5.494-1.867-6.248l-.323.108c-2.226,3.339.108,13.034.4,17.091.179,2.406-.108,9.335-1.975,11.059a.986.986,0,0,1-1.005.323c-1.185-.646-2.118-4.775-2.621-6.14a53.89,53.89,0,0,0-5.278-10.7c-1.472-2.226-3.2-4.309-4.488-6.607,2.837-8.8,2.837-12.675,11.023-31.381,2.406-5.35,4.883-11.059,8.33-15.8" transform="translate(-1759.054 -1041.459)" fill="#fabc33"/>
          <path id="Trazado_1050004" data-name="Trazado 1050004" d="M2256.25,1398.072c1.149-.431,4.919-2.441,5.853-2.19a31.734,31.734,0,0,1,.538,4.524c-.072.323-.036.323-.287.5-1.364-.718-2.765-1.472-4.165-2.083-.646-.287-1.293-.431-1.939-.754" transform="translate(-2048.86 -1267.556)" fill="#f49535"/>
        </g>
      </g>
    </g>
  </g>
</svg>
