<svg xmlns="http://www.w3.org/2000/svg" xmlns:xlink="http://www.w3.org/1999/xlink" width="113" height="113" viewBox="0 0 113 113">
  <defs>
    <filter id="Trazado_982547" x="0" y="0" width="113" height="113" filterUnits="userSpaceOnUse">
      <feOffset dy="3" input="SourceAlpha"/>
      <feGaussianBlur stdDeviation="3" result="blur"/>
      <feFlood flood-opacity="0.161"/>
      <feComposite operator="in" in2="blur"/>
      <feComposite in="SourceGraphic"/>
    </filter>
    <clipPath id="clip-path">
      <path id="path495" d="M0-682.665H62.271v62.271H0Z" transform="translate(0 682.665)"/>
    </clipPath>
  </defs>
  <g id="Grupo_1207049" data-name="Grupo 1207049" transform="translate(-375.51 -6658.542)">
    <g id="Grupo_1206613" data-name="Grupo 1206613" transform="translate(384.51 6664.542)">
      <g id="Grupo_1201923" data-name="Grupo 1201923" transform="translate(0 0)">
        <g id="Grupo_1176928" data-name="Grupo 1176928" transform="translate(0)">
          <g id="Grupo_1172322" data-name="Grupo 1172322">
            <g id="Grupo_1164700" data-name="Grupo 1164700">
              <g id="Grupo_1160931" data-name="Grupo 1160931">
                <g id="Grupo_1160749" data-name="Grupo 1160749">
                  <g id="Grupo_1158891" data-name="Grupo 1158891">
                    <g id="Grupo_1157406" data-name="Grupo 1157406">
                      <g id="Grupo_1155793" data-name="Grupo 1155793">
                        <g id="Grupo_1154704" data-name="Grupo 1154704">
                          <g id="Grupo_1150790" data-name="Grupo 1150790">
                            <g id="Grupo_1154214" data-name="Grupo 1154214" transform="translate(0)">
                              <g id="Grupo_1152583" data-name="Grupo 1152583">
                                <g id="Grupo_1146973" data-name="Grupo 1146973">
                                  <g id="Grupo_1146954" data-name="Grupo 1146954">
                                    <g transform="matrix(1, 0, 0, 1, -9, -6)" filter="url(#Trazado_982547)">
                                      <g id="Trazado_982547-2" data-name="Trazado 982547" transform="translate(9 6)" fill="#fdfbec">
                                        <path d="M 47.50000762939453 93.49986267089844 C 41.28937911987305 93.49986267089844 35.26534271240234 92.28383636474609 29.59519386291504 89.88558197021484 C 24.11772727966309 87.56880950927734 19.19814109802246 84.25183868408203 14.97310066223145 80.02679443359375 C 10.74804782867432 75.8017578125 7.431074142456055 70.88218688964844 5.114300727844238 65.40471649169922 C 2.716034412384033 59.73458480834961 1.500007629394531 53.71054458618164 1.500007629394531 47.49993133544922 C 1.500007629394531 41.2893180847168 2.716034412384033 35.26527786254883 5.114300727844238 29.59514427185059 C 7.431074142456055 24.11767768859863 10.74804782867432 19.19810485839844 14.97310066223145 14.97306442260742 C 19.19814109802246 10.74802494049072 24.11772727966309 7.431051254272461 29.59519386291504 5.114277839660645 C 35.26534271240234 2.71602463722229 41.28937911987305 1.499997973442078 47.50000762939453 1.499997973442078 C 53.71063613891602 1.499997973442078 59.73467254638672 2.71602463722229 65.40482330322266 5.114277839660645 C 70.88228607177734 7.431051254272461 75.80187225341797 10.74802494049072 80.02691650390625 14.97306442260742 C 84.25196838378906 19.19810485839844 87.56893920898438 24.11767768859863 89.88571166992188 29.59514427185059 C 92.28398132324219 35.26527786254883 93.50000762939453 41.2893180847168 93.50000762939453 47.49993133544922 C 93.50000762939453 53.71054458618164 92.28398132324219 59.73458480834961 89.88571166992188 65.40471649169922 C 87.56893920898438 70.88218688964844 84.25196838378906 75.8017578125 80.02691650390625 80.02679443359375 C 75.80187225341797 84.25183868408203 70.88228607177734 87.56880950927734 65.40482330322266 89.88558197021484 C 59.73467254638672 92.28383636474609 53.71063613891602 93.49986267089844 47.50000762939453 93.49986267089844 Z" stroke="none"/>
                                        <path d="M 47.50000762939453 2.999992370605469 C 41.4912223815918 2.999992370605469 35.66377639770508 4.1761474609375 30.17951202392578 6.495796203613281 C 24.88085174560547 8.736930847167969 20.12152862548828 11.94596099853516 16.03376007080078 16.03372955322266 C 11.94597625732422 20.12148284912109 8.736961364746094 24.88080596923828 6.495803833007812 30.17946624755859 C 4.176162719726562 35.66371536254883 3.000007629394531 41.49116134643555 3.000007629394531 47.49993133544922 C 3.000007629394531 53.50870132446289 4.176162719726562 59.33614730834961 6.495803833007812 64.82038879394531 C 8.736961364746094 70.11905670166016 11.94597625732422 74.87836456298828 16.03376007080078 78.96613311767578 C 20.12152862548828 83.05390167236328 24.88085174560547 86.26291656494141 30.17951202392578 88.50406646728516 C 35.66377639770508 90.82369995117188 41.4912223815918 91.99985504150391 47.50000762939453 91.99985504150391 C 53.50879287719727 91.99985504150391 59.33623886108398 90.82369995117188 64.82049560546875 88.50406646728516 C 70.11916351318359 86.26291656494141 74.87848663330078 83.05390167236328 78.96625518798828 78.96613311767578 C 83.05403900146484 74.87836456298828 86.26305389404297 70.11905670166016 88.50421142578125 64.82038879394531 C 90.8238525390625 59.33614730834961 92.00000762939453 53.50870132446289 92.00000762939453 47.49993133544922 C 92.00000762939453 41.49116134643555 90.8238525390625 35.66371536254883 88.50421142578125 30.17946624755859 C 86.26305389404297 24.88080596923828 83.05403900146484 20.12148284912109 78.96625518798828 16.03372955322266 C 74.87848663330078 11.94596099853516 70.11916351318359 8.736930847167969 64.82049560546875 6.495796203613281 C 59.33623886108398 4.1761474609375 53.50879287719727 2.999992370605469 47.50000762939453 2.999992370605469 M 47.50000762939453 -7.62939453125e-06 C 73.73352813720703 -7.62939453125e-06 95.00000762939453 21.26644134521484 95.00000762939453 47.49993133544922 C 95.00000762939453 73.73342132568359 73.73352813720703 94.99985504150391 47.50000762939453 94.99985504150391 C 21.26648712158203 94.99985504150391 7.62939453125e-06 73.73342132568359 7.62939453125e-06 47.49993133544922 C 7.62939453125e-06 21.26644134521484 21.26648712158203 -7.62939453125e-06 47.50000762939453 -7.62939453125e-06 Z" stroke="none" fill="#83793c"/>
                                      </g>
                                    </g>
                                  </g>
                                </g>
                              </g>
                            </g>
                          </g>
                        </g>
                      </g>
                    </g>
                  </g>
                </g>
              </g>
            </g>
          </g>
        </g>
      </g>
    </g>
    <g id="g491" transform="translate(400.875 6680.907)">
      <g id="g493" clip-path="url(#clip-path)">
        <g id="g499" transform="translate(3.466 5.01)">
          <path id="path501" d="M-535.177-268.543a26.858,26.858,0,0,1-26.956,26.759,26.858,26.858,0,0,1-26.761-26.954A26.858,26.858,0,0,1-561.937-295.5a26.857,26.857,0,0,1,26.761,26.954" transform="translate(588.894 295.497)" fill="#fb2b3a"/>
        </g>
        <g id="g503" transform="translate(3.466 5.01)">
          <path id="path505" d="M-30.295-266.593A26.858,26.858,0,0,1-4.946-293.308q-.711-.04-1.433-.043a26.858,26.858,0,0,0-26.956,26.759A26.858,26.858,0,0,0-6.574-239.639c.54,0,1.076-.014,1.608-.043a26.858,26.858,0,0,1-25.328-26.911" transform="translate(33.335 293.352)" fill="#e41f2d"/>
        </g>
        <g id="g507" transform="translate(3.466 5.01)">
          <path id="path509" d="M-535.177-268.543a26.858,26.858,0,0,1-26.956,26.759,26.858,26.858,0,0,1-26.761-26.954A26.858,26.858,0,0,1-561.937-295.5,26.857,26.857,0,0,1-535.177-268.543Z" transform="translate(588.894 295.497)" fill="none" stroke="#000" stroke-linecap="round" stroke-linejoin="round" stroke-miterlimit="10" stroke-width="1.2"/>
        </g>
        <g id="g511" transform="translate(9.14 10.684)">
          <path id="path513" d="M-210.286-422.075a21.046,21.046,0,0,1-14.957-6.259,21.043,21.043,0,0,1-6.15-15,21.222,21.222,0,0,1,21.182-21.105h.079a21.046,21.046,0,0,1,14.957,6.259,21.042,21.042,0,0,1,6.15,15,21.222,21.222,0,0,1-21.182,21.105Z" transform="translate(231.393 464.44)" fill="#fff"/>
        </g>
        <g id="g515" transform="translate(9.14 10.684)">
          <path id="path517" d="M-91.567-359.721a21.043,21.043,0,0,1-6.15-15,21.227,21.227,0,0,1,19.667-21.05c-.479-.034-.961-.053-1.446-.055h-.079a21.222,21.222,0,0,0-21.182,21.105,21.043,21.043,0,0,0,6.15,15,21.046,21.046,0,0,0,14.957,6.259h.079c.51,0,1.015-.019,1.516-.055a21.027,21.027,0,0,1-13.512-6.2" transform="translate(100.757 395.827)" fill="#efe2dd"/>
        </g>
        <g id="g519" transform="translate(9.14 10.684)">
          <path id="path521" d="M-210.286-422.075a21.046,21.046,0,0,1-14.957-6.259,21.043,21.043,0,0,1-6.15-15,21.222,21.222,0,0,1,21.182-21.105h.079a21.046,21.046,0,0,1,14.957,6.259,21.042,21.042,0,0,1,6.15,15,21.222,21.222,0,0,1-21.182,21.105Z" transform="translate(231.393 464.44)" fill="none" stroke="#000" stroke-linecap="round" stroke-linejoin="round" stroke-miterlimit="10" stroke-width="1.2"/>
        </g>
        <g id="g523" transform="translate(14.814 16.358)">
          <path id="path525" d="M-153.888-309.019a15.4,15.4,0,0,1-10.943-4.582,15.405,15.405,0,0,1-4.5-10.983,15.537,15.537,0,0,1,15.508-15.452h.066a15.4,15.4,0,0,1,10.943,4.582,15.4,15.4,0,0,1,4.5,10.983,15.538,15.538,0,0,1-15.5,15.452Z" transform="translate(169.334 340.036)" fill="#fb2b3a"/>
        </g>
        <g id="g527" transform="translate(14.814 16.358)">
          <path id="path529" d="M-81.211-263.366a15.405,15.405,0,0,1-4.5-10.983,15.544,15.544,0,0,1,13.693-15.345,15.751,15.751,0,0,0-1.768-.107h-.066a15.537,15.537,0,0,0-15.508,15.452,15.405,15.405,0,0,0,4.5,10.983,15.405,15.405,0,0,0,10.943,4.582h.073a15.556,15.556,0,0,0,1.807-.107,15.393,15.393,0,0,1-9.175-4.475" transform="translate(89.362 289.801)" fill="#e41f2d"/>
        </g>
        <g id="g531" transform="translate(14.814 16.358)">
          <path id="path533" d="M-153.888-309.019a15.4,15.4,0,0,1-10.943-4.582,15.405,15.405,0,0,1-4.5-10.983,15.537,15.537,0,0,1,15.508-15.452h.066a15.4,15.4,0,0,1,10.943,4.582,15.4,15.4,0,0,1,4.5,10.983,15.538,15.538,0,0,1-15.5,15.452Z" transform="translate(169.334 340.036)" fill="none" stroke="#000" stroke-linecap="round" stroke-linejoin="round" stroke-miterlimit="10" stroke-width="1.2"/>
        </g>
        <g id="g535" transform="translate(20.489 22.032)">
          <path id="path537" d="M-97.5-195.963a9.76,9.76,0,0,1-6.931-2.906,9.769,9.769,0,0,1-2.855-6.964,9.853,9.853,0,0,1,9.833-9.8h.049a9.759,9.759,0,0,1,6.933,2.906,9.77,9.77,0,0,1,2.855,6.965,9.854,9.854,0,0,1-9.821,9.8Z" transform="translate(107.286 215.633)" fill="#fff"/>
        </g>
        <g id="g539" transform="translate(20.489 22.032)">
          <path id="path541" d="M-58.739-167.012a9.769,9.769,0,0,1-2.855-6.964,9.859,9.859,0,0,1,8.322-9.682,9.926,9.926,0,0,0-1.48-.117h-.05a9.853,9.853,0,0,0-9.833,9.8,9.769,9.769,0,0,0,2.855,6.964,9.76,9.76,0,0,0,6.931,2.906h.064a9.813,9.813,0,0,0,1.5-.117,9.761,9.761,0,0,1-5.453-2.789" transform="translate(64.635 183.776)" fill="#efe2dd"/>
        </g>
        <g id="g543" transform="translate(20.489 22.032)">
          <path id="path545" d="M-97.5-195.963a9.76,9.76,0,0,1-6.931-2.906,9.769,9.769,0,0,1-2.855-6.964,9.853,9.853,0,0,1,9.833-9.8h.049a9.759,9.759,0,0,1,6.933,2.906,9.77,9.77,0,0,1,2.855,6.965,9.854,9.854,0,0,1-9.821,9.8Z" transform="translate(107.286 215.633)" fill="none" stroke="#000" stroke-linecap="round" stroke-linejoin="round" stroke-miterlimit="10" stroke-width="1.2"/>
        </g>
        <g id="g547" transform="translate(26.163 27.706)">
          <path id="path549" d="M-41.127-82.905a4.06,4.06,0,0,1-2.92-1.229,4.078,4.078,0,0,1-1.208-2.946A4.168,4.168,0,0,1-41.1-91.226h.037A4.066,4.066,0,0,1-38.141-90a4.078,4.078,0,0,1,1.208,2.946A4.169,4.169,0,0,1-41.077-82.9Z" transform="translate(45.255 91.226)" fill="#fb2b3a"/>
        </g>
        <g id="g551" transform="translate(26.163 27.706)">
          <path id="path553" d="M-36.269-70.658A4.079,4.079,0,0,1-37.477-73.6a4.172,4.172,0,0,1,2.958-3.968,4.176,4.176,0,0,0-1.2-.178h-.037A4.168,4.168,0,0,0-39.91-73.6,4.079,4.079,0,0,0-38.7-70.658a4.06,4.06,0,0,0,2.92,1.229h.05a4.129,4.129,0,0,0,1.185-.178,4.1,4.1,0,0,1-1.723-1.051" transform="translate(39.91 77.75)" fill="#e41f2d"/>
        </g>
        <g id="g555" transform="translate(26.163 27.706)">
          <path id="path557" d="M-41.127-82.905a4.06,4.06,0,0,1-2.92-1.229,4.078,4.078,0,0,1-1.208-2.946A4.168,4.168,0,0,1-41.1-91.226h.037A4.066,4.066,0,0,1-38.141-90a4.078,4.078,0,0,1,1.208,2.946A4.169,4.169,0,0,1-41.077-82.9Z" transform="translate(45.255 91.226)" fill="none" stroke="#000" stroke-linecap="round" stroke-linejoin="round" stroke-miterlimit="10" stroke-width="1.2"/>
        </g>
        <g id="g559" transform="translate(30.324 2.457)">
          <path id="path561" d="M0,0V9.646" fill="none" stroke="#000" stroke-linecap="round" stroke-linejoin="round" stroke-miterlimit="10" stroke-width="1.2"/>
        </g>
        <g id="g563" transform="translate(30.324 51.631)">
          <path id="path565" d="M0,0V9.646" fill="none" stroke="#000" stroke-linecap="round" stroke-linejoin="round" stroke-miterlimit="10" stroke-width="1.2"/>
        </g>
        <g id="g567" transform="translate(0.912 31.867)">
          <path id="path569" d="M0,0H9.646" fill="none" stroke="#000" stroke-linecap="round" stroke-linejoin="round" stroke-miterlimit="10" stroke-width="1.2"/>
        </g>
        <g id="g571" transform="translate(50.09 31.867)">
          <path id="path573" d="M0,0H9.646" fill="none" stroke="#000" stroke-linecap="round" stroke-linejoin="round" stroke-miterlimit="10" stroke-width="1.2"/>
        </g>
        <g id="g575" transform="translate(45.772 0.994)">
          <path id="path577" d="M-103.869-57.381a1.014,1.014,0,0,1-.629-.625l-1.393-4.888a.274.274,0,0,0-.5-.129l-7.654,7.614a.968.968,0,0,0-.228.847l1.334,4.956a.976.976,0,0,0,.623.62l4.982,1.328a.981.981,0,0,0,.851-.227l7.654-7.614a.272.272,0,0,0-.13-.5Z" transform="translate(114.295 63.141)" fill="#62dbfb"/>
        </g>
        <g id="g579" transform="translate(45.772 0.994)">
          <path id="path581" d="M-40.432-143.88l-1.419-5.268a1.029,1.029,0,0,1,.242-.9l6.084-6.053-.562-1.974a.274.274,0,0,0-.5-.129l-7.654,7.614a.968.968,0,0,0-.228.847l1.335,4.956a.977.977,0,0,0,.623.62l2.242.6a.88.88,0,0,1-.165-.311" transform="translate(44.49 158.322)" fill="#01d0fb"/>
        </g>
        <g id="g583" transform="translate(50.069 4.699)">
          <path id="path585" d="M0,0,1.47,5.458a.938.938,0,0,0,.6.6l5.5,1.466" fill="none" stroke="#000" stroke-linecap="round" stroke-linejoin="round" stroke-miterlimit="10" stroke-width="1.2"/>
        </g>
        <g id="g587" transform="translate(45.772 0.994)">
          <path id="path589" d="M-103.869-57.381a1.014,1.014,0,0,1-.629-.625l-1.393-4.888a.274.274,0,0,0-.5-.129l-7.654,7.614a.968.968,0,0,0-.228.847l1.334,4.956a.976.976,0,0,0,.623.62l4.982,1.328a.981.981,0,0,0,.851-.227l7.654-7.614a.272.272,0,0,0-.13-.5Z" transform="translate(114.295 63.141)" fill="none" stroke="#000" stroke-linecap="round" stroke-linejoin="round" stroke-miterlimit="10" stroke-width="1.2"/>
        </g>
        <g id="g591" transform="translate(30.324 4.334)">
          <path id="path593" d="M0-274.308l27.677-27.533" transform="translate(0 301.841)" fill="none" stroke="#000" stroke-linecap="round" stroke-linejoin="round" stroke-miterlimit="10" stroke-width="1.2"/>
        </g>
        <g id="g595" transform="translate(41.118 42.728)">
          <path id="path597" d="M-183.8-92.4a9.249,9.249,0,0,1-9.224,9.274,9.25,9.25,0,0,1-9.224-9.274,9.25,9.25,0,0,1,9.224-9.275A9.25,9.25,0,0,1-183.8-92.4" transform="translate(202.246 101.676)" fill="#97d729"/>
        </g>
        <g id="g599" transform="translate(41.118 42.728)">
          <path id="path601" d="M-39.058-92.4a9.265,9.265,0,0,1,7.264-9.063,9.206,9.206,0,0,0-1.96-.212A9.25,9.25,0,0,0-42.979-92.4a9.249,9.249,0,0,0,9.224,9.274,9.206,9.206,0,0,0,1.96-.212A9.265,9.265,0,0,1-39.058-92.4" transform="translate(42.979 101.676)" fill="#8bc727"/>
        </g>
        <g id="g603" transform="translate(41.118 42.728)">
          <path id="path605" d="M-183.8-92.4a9.249,9.249,0,0,1-9.224,9.274,9.25,9.25,0,0,1-9.224-9.274,9.25,9.25,0,0,1,9.224-9.275A9.25,9.25,0,0,1-183.8-92.4Z" transform="translate(202.246 101.676)" fill="none" stroke="#000" stroke-linecap="round" stroke-linejoin="round" stroke-miterlimit="10" stroke-width="1.2"/>
        </g>
        <g id="g607" transform="translate(46.558 49.543)">
          <path id="path609" d="M0-22.165l2.678,2.693,4.891-4.918" transform="translate(0 24.389)" fill="none" stroke="#000" stroke-linecap="round" stroke-linejoin="round" stroke-miterlimit="10" stroke-width="1.2"/>
        </g>
      </g>
    </g>
  </g>
</svg>
