<svg xmlns="http://www.w3.org/2000/svg" xmlns:xlink="http://www.w3.org/1999/xlink" width="113" height="113" viewBox="0 0 113 113">
  <defs>
    <filter id="Trazado_982547" x="0" y="0" width="113" height="113" filterUnits="userSpaceOnUse">
      <feOffset dy="3" input="SourceAlpha"/>
      <feGaussianBlur stdDeviation="3" result="blur"/>
      <feFlood flood-opacity="0.161"/>
      <feComposite operator="in" in2="blur"/>
      <feComposite in="SourceGraphic"/>
    </filter>
  </defs>
  <g id="Grupo_1206614" data-name="Grupo 1206614" transform="translate(9 6)">
    <g id="Grupo_1176928" data-name="Grupo 1176928" transform="translate(0 0)">
      <g id="Grupo_1172322" data-name="Grupo 1172322">
        <g id="Grupo_1164700" data-name="Grupo 1164700">
          <g id="Grupo_1160931" data-name="Grupo 1160931">
            <g id="Grupo_1160749" data-name="Grupo 1160749">
              <g id="Grupo_1158891" data-name="Grupo 1158891">
                <g id="Grupo_1157406" data-name="Grupo 1157406">
                  <g id="Grupo_1155793" data-name="Grupo 1155793">
                    <g id="Grupo_1154704" data-name="Grupo 1154704">
                      <g id="Grupo_1150790" data-name="Grupo 1150790">
                        <g id="Grupo_1154214" data-name="Grupo 1154214" transform="translate(0)">
                          <g id="Grupo_1152583" data-name="Grupo 1152583">
                            <g id="Grupo_1146973" data-name="Grupo 1146973">
                              <g id="Grupo_1146954" data-name="Grupo 1146954">
                                <g transform="matrix(1, 0, 0, 1, -9, -6)" filter="url(#Trazado_982547)">
                                  <g id="Trazado_982547-2" data-name="Trazado 982547" transform="translate(9 6)" fill="#ebe9f0">
                                    <path d="M 47.50000762939453 93.49986267089844 C 41.28937911987305 93.49986267089844 35.26534271240234 92.28383636474609 29.59519386291504 89.88558197021484 C 24.11772727966309 87.56880950927734 19.19814109802246 84.25183868408203 14.97310066223145 80.02679443359375 C 10.74804782867432 75.8017578125 7.431074142456055 70.88218688964844 5.114300727844238 65.40471649169922 C 2.716034412384033 59.73458480834961 1.500007629394531 53.71054458618164 1.500007629394531 47.49993133544922 C 1.500007629394531 41.2893180847168 2.716034412384033 35.26527786254883 5.114300727844238 29.59514427185059 C 7.431074142456055 24.11767768859863 10.74804782867432 19.19810485839844 14.97310066223145 14.97306442260742 C 19.19814109802246 10.74802494049072 24.11772727966309 7.431051254272461 29.59519386291504 5.114277839660645 C 35.26534271240234 2.71602463722229 41.28937911987305 1.499997973442078 47.50000762939453 1.499997973442078 C 53.71063613891602 1.499997973442078 59.73467254638672 2.71602463722229 65.40482330322266 5.114277839660645 C 70.88228607177734 7.431051254272461 75.80187225341797 10.74802494049072 80.02691650390625 14.97306442260742 C 84.25196838378906 19.19810485839844 87.56893920898438 24.11767768859863 89.88571166992188 29.59514427185059 C 92.28398132324219 35.26527786254883 93.50000762939453 41.2893180847168 93.50000762939453 47.49993133544922 C 93.50000762939453 53.71054458618164 92.28398132324219 59.73458480834961 89.88571166992188 65.40471649169922 C 87.56893920898438 70.88218688964844 84.25196838378906 75.8017578125 80.02691650390625 80.02679443359375 C 75.80187225341797 84.25183868408203 70.88228607177734 87.56880950927734 65.40482330322266 89.88558197021484 C 59.73467254638672 92.28383636474609 53.71063613891602 93.49986267089844 47.50000762939453 93.49986267089844 Z" stroke="none"/>
                                    <path d="M 47.50000762939453 2.999992370605469 C 41.4912223815918 2.999992370605469 35.66377639770508 4.1761474609375 30.17951202392578 6.495796203613281 C 24.88085174560547 8.736930847167969 20.12152862548828 11.94596099853516 16.03376007080078 16.03372955322266 C 11.94597625732422 20.12148284912109 8.736961364746094 24.88080596923828 6.495803833007812 30.17946624755859 C 4.176162719726562 35.66371536254883 3.000007629394531 41.49116134643555 3.000007629394531 47.49993133544922 C 3.000007629394531 53.50870132446289 4.176162719726562 59.33614730834961 6.495803833007812 64.82038879394531 C 8.736961364746094 70.11905670166016 11.94597625732422 74.87836456298828 16.03376007080078 78.96613311767578 C 20.12152862548828 83.05390167236328 24.88085174560547 86.26291656494141 30.17951202392578 88.50406646728516 C 35.66377639770508 90.82369995117188 41.4912223815918 91.99985504150391 47.50000762939453 91.99985504150391 C 53.50879287719727 91.99985504150391 59.33623886108398 90.82369995117188 64.82049560546875 88.50406646728516 C 70.11916351318359 86.26291656494141 74.87848663330078 83.05390167236328 78.96625518798828 78.96613311767578 C 83.05403900146484 74.87836456298828 86.26305389404297 70.11905670166016 88.50421142578125 64.82038879394531 C 90.8238525390625 59.33614730834961 92.00000762939453 53.50870132446289 92.00000762939453 47.49993133544922 C 92.00000762939453 41.49116134643555 90.8238525390625 35.66371536254883 88.50421142578125 30.17946624755859 C 86.26305389404297 24.88080596923828 83.05403900146484 20.12148284912109 78.96625518798828 16.03372955322266 C 74.87848663330078 11.94596099853516 70.11916351318359 8.736930847167969 64.82049560546875 6.495796203613281 C 59.33623886108398 4.1761474609375 53.50879287719727 2.999992370605469 47.50000762939453 2.999992370605469 M 47.50000762939453 -7.62939453125e-06 C 73.73352813720703 -7.62939453125e-06 95.00000762939453 21.26644134521484 95.00000762939453 47.49993133544922 C 95.00000762939453 73.73342132568359 73.73352813720703 94.99985504150391 47.50000762939453 94.99985504150391 C 21.26648712158203 94.99985504150391 7.62939453125e-06 73.73342132568359 7.62939453125e-06 47.49993133544922 C 7.62939453125e-06 21.26644134521484 21.26648712158203 -7.62939453125e-06 47.50000762939453 -7.62939453125e-06 Z" stroke="none" fill="#453179"/>
                                  </g>
                                </g>
                              </g>
                            </g>
                          </g>
                        </g>
                      </g>
                    </g>
                  </g>
                </g>
              </g>
            </g>
          </g>
        </g>
      </g>
    </g>
    <g id="_06-education" data-name="06-education" transform="translate(16.665 16.483)">
      <path id="Trazado_1049666" data-name="Trazado 1049666" d="M13.781,50.964v1.927H8V50h5.781Z" transform="translate(-0.291 -1.639)" fill="#a1aaad"/>
      <rect id="Rectángulo_418126" data-name="Rectángulo 418126" width="6" height="5" transform="translate(7.835 51.017)" fill="#c1ced1"/>
      <path id="Trazado_1049667" data-name="Trazado 1049667" d="M10.891,14l2.891,6.745-1.927.964H9.927L8,20.745Z" transform="translate(-0.291 -0.328)" fill="#c1ced1"/>
      <path id="Trazado_1049668" data-name="Trazado 1049668" d="M13.781,47.017v1.927H8V21l1.927.964h1.927L13.781,21Z" transform="translate(-0.291 -0.583)" fill="#81ecec"/>
      <path id="Trazado_1049669" data-name="Trazado 1049669" d="M49.709,50.891v4.818l-3.854-3.854L42,55.709V48h7.709Z" transform="translate(-1.53 -1.566)" fill="#8fccff"/>
      <path id="Trazado_1049670" data-name="Trazado 1049670" d="M30.98,46.47H13.636V20.454l-2.891-6.745L7.854,20.454V46.47H4V6H30.98Z" transform="translate(-0.146 -0.036)" fill="#ffeaa7"/>
      <path id="Trazado_1049671" data-name="Trazado 1049671" d="M32,46.47V6H58.98V46.47ZM46.569,10.876c-.434.385-.646.578-1.079.964-.434-.385-.646-.578-1.079-.964a9.636,9.636,0,0,0-4.7,17.287,9.507,9.507,0,0,0,4.7,1.869c.434-.385.646-.578,1.079-.964.434.385.646.578,1.079.964a9.643,9.643,0,0,0,8.557-9.578c0-.328-.019-.646-.048-.964a9.623,9.623,0,0,0-8.508-8.614Z" transform="translate(-1.165 -0.036)" fill="#fdcb6e"/>
      <path id="Trazado_1049672" data-name="Trazado 1049672" d="M45.636,26.634v2.833c-.434.385-.646.578-1.079.964a9.507,9.507,0,0,1-4.7-1.869A9.636,9.636,0,0,1,36.829,16.94l.135.058h4.818v2.891h3.854Z" transform="translate(-1.311 -0.435)" fill="#fab1a0"/>
      <path id="Trazado_1049673" data-name="Trazado 1049673" d="M46,21.706V16.888h3.854V14h2.891l.067-.077a9.636,9.636,0,0,1,2.775,5.859c.029.318.048.636.048.964a9.646,9.646,0,0,1-5.724,8.807l-.058-.135V25.56H46Z" transform="translate(-1.675 -0.325)" fill="#fab1a0"/>
      <path id="Trazado_1049674" data-name="Trazado 1049674" d="M47.079,11.06a9.677,9.677,0,0,1,5.733,2.756l-.067.077H49.854v2.891H46v-4.76C46.434,11.638,46.646,11.445,47.079,11.06Z" transform="translate(-1.675 -0.221)" fill="#ff7675"/>
      <path id="Trazado_1049675" data-name="Trazado 1049675" d="M49.854,29.854l.058.135a9.553,9.553,0,0,1-2.833.771c-.434-.385-.646-.578-1.079-.964V26h3.854Z" transform="translate(-1.675 -0.765)" fill="#ff7675"/>
      <path id="Trazado_1049676" data-name="Trazado 1049676" d="M45.667,16.784v2.891H41.813V16.784H36.995l-.135-.058a9.652,9.652,0,0,1,7.728-5.666c.434.385.646.578,1.079.964Z" transform="translate(-1.342 -0.221)" fill="#ff7675"/>
      <path id="Trazado_1049677" data-name="Trazado 1049677" d="M7.745,48.47v.964H1V8H3.891V46.543H7.745Z" transform="translate(-0.036 -0.109)" fill="#ff7675"/>
      <path id="Trazado_1049678" data-name="Trazado 1049678" d="M40.98,50.891H14V48H40.98Z" transform="translate(-0.51 -1.566)" fill="#ff7675"/>
      <path id="Trazado_1049679" data-name="Trazado 1049679" d="M62.527,8V49.434H50V46.543h9.636V8Z" transform="translate(-1.821 -0.109)" fill="#ff7675"/>
      <path id="Trazado_1049680" data-name="Trazado 1049680" d="M53.09,13.1a10.676,10.676,0,0,0-6.3-3.029.969.969,0,0,0-.748.237L45.6,10.7,45.16,10.3a.964.964,0,0,0-.747-.237,10.6,10.6,0,0,0,0,21.074.964.964,0,0,0,.745-.237l.437-.4.439.393a.964.964,0,0,0,.64.243.855.855,0,0,0,.111-.007,10.514,10.514,0,0,0,3.114-.847A10.621,10.621,0,0,0,56.2,20.6c0-.357-.02-.7-.053-1.06A10.64,10.64,0,0,0,53.09,13.1Zm-6.1-1.06a8.72,8.72,0,0,1,2.58.858h-.115a.964.964,0,0,0-.964.964v1.927H46.563V12.419Zm-6.207,1.377V14.82h1.927V12.44a8.618,8.618,0,0,1,1.5-.4l.426.381v6.256H42.708V16.747a.964.964,0,0,0-.964-.964H38.407A8.7,8.7,0,0,1,40.781,13.412Zm3.427,15.754a8.563,8.563,0,0,1-3.427-1.371V24.456h1.927V22.529H39.818a.964.964,0,0,0-.964.964v2.546a8.728,8.728,0,0,1-1.87-4.473h1.87V19.638H36.983a8.576,8.576,0,0,1,.448-1.927h3.35v1.927a.964.964,0,0,0,.964.964h2.891v4.818H42.708v1.927h1.927v1.438Zm2.354-.385v-2.4H48.49v2.379a8.554,8.554,0,0,1-1.5.4Zm7.189-5.288H51.381v1.927H52.8a8.685,8.685,0,0,1-2.38,2.375V25.419a.964.964,0,0,0-.964-.964H46.563V22.529h2.891a.964.964,0,0,0,.964-.964V18.674H48.49V20.6H46.563V17.711h2.891a.964.964,0,0,0,.964-.964V14.82h1.638a8.728,8.728,0,0,1,1.991,3.854h-1.7V20.6h1.927A8.587,8.587,0,0,1,53.752,23.492Z" transform="translate(-1.275 -0.184)"/>
      <rect id="Rectángulo_418127" data-name="Rectángulo 418127" width="15" height="2" transform="translate(33.835 33.017)"/>
      <rect id="Rectángulo_418128" data-name="Rectángulo 418128" width="15" height="2" transform="translate(39.835 37.017)"/>
      <rect id="Rectángulo_418129" data-name="Rectángulo 418129" width="21" height="2" transform="translate(33.835 41.017)"/>
      <rect id="Rectángulo_418130" data-name="Rectángulo 418130" width="4" height="2" transform="translate(33.835 37.017)"/>
      <rect id="Rectángulo_418131" data-name="Rectángulo 418131" width="4" height="2" transform="translate(50.835 33.017)"/>
      <path id="Trazado_1049681" data-name="Trazado 1049681" d="M60.706,6.927H58.778V5.964A.964.964,0,0,0,57.815,5H3.854a.964.964,0,0,0-.964.964v.964H.964A.964.964,0,0,0,0,7.891V49.325a.964.964,0,0,0,.964.964H6.745V56.07a.964.964,0,0,0,.964.964H13.49a.964.964,0,0,0,.964-.964V50.288H39.507v3.854a.964.964,0,0,0,1.645.681l3.173-3.173L47.5,54.824a.964.964,0,0,0,1.645-.681V50.288H60.706a.964.964,0,0,0,.964-.964V7.891A.964.964,0,0,0,60.706,6.927Zm-28.907,0H56.851V45.47H31.8Zm-26.98,0H29.871V45.47H14.454V20.417a.948.948,0,0,0-.085-.377h.007L11.485,13.3a.964.964,0,0,0-1.771,0L6.823,20.041H6.83a.948.948,0,0,0-.085.377V45.47H4.818ZM12.527,47.4H8.672V21.976l.533.267a.964.964,0,0,0,.431.1h1.927a.964.964,0,0,0,.431-.1l.533-.267Zm-1.191-26.98H9.863l-.912-.456L10.6,16.119l1.648,3.843ZM8.672,49.325h3.854v.964H8.672Zm-6.745-.964V8.854h.964v37.58a.964.964,0,0,0,.964.964H6.745v.964Zm6.745,6.745V52.215h3.854v2.891Zm5.781-6.745V47.4H39.507v.964Zm30.552,1.246a.964.964,0,0,0-1.363,0l-2.209,2.209V47.4h5.781v4.419Zm14.736-1.246h-10.6V47.4h8.672a.964.964,0,0,0,.964-.964V8.854h.964Z"/>
      <path id="Trazado_1049682" data-name="Trazado 1049682" d="M25.672,31.162H19.891a2.891,2.891,0,0,0,0,5.781h5.781a.939.939,0,0,1,.686.295.922.922,0,0,1,.278.669.964.964,0,0,1-.964.964H21.818a.964.964,0,0,0-.964.964v3.854h1.927V40.8h2.891a2.891,2.891,0,1,0,0-5.781H19.891a.964.964,0,0,1-.964-.964.939.939,0,0,1,.295-.686.922.922,0,0,1,.669-.278h5.781a2.891,2.891,0,0,0,0-5.781H19.891a.964.964,0,0,1-.964-.964V23.454a.964.964,0,0,1,.964-.964h5.781a2.891,2.891,0,0,0,0-5.781H23.745V12.29l1.246,1.246,1.363-1.363L23.463,9.282a.934.934,0,0,0-1.356.007L22.1,9.283,19.21,12.174l1.363,1.363,1.245-1.247v5.383a.964.964,0,0,0,.964.964h2.891a.939.939,0,0,1,.686.295.922.922,0,0,1,.278.669.964.964,0,0,1-.964.964H19.891A2.891,2.891,0,0,0,17,23.454v2.891a2.891,2.891,0,0,0,2.891,2.891h5.781a.939.939,0,0,1,.686.295.922.922,0,0,1,.278.669.964.964,0,0,1-.964.964Z" transform="translate(-0.619 -0.146)"/>
    </g>
  </g>
</svg>
