<svg xmlns="http://www.w3.org/2000/svg" xmlns:xlink="http://www.w3.org/1999/xlink" width="588.162" height="416.624" viewBox="0 0 588.162 416.624">
  <defs>
    <clipPath id="clip-path">
      <rect id="Rectángulo_417064" data-name="Rectángulo 417064" width="170.921" height="238.031" fill="none"/>
    </clipPath>
    <clipPath id="clip-path-2">
      <path id="Trazado_1044104" data-name="Trazado 1044104" d="M136.987,12.527c-10.86,10.86-4.1,17.186-4.1,20.771s-8.659,10.847-6.655,14.755,3.058,3.8,3.058,5.911-5.9,3.9-3.8,11.387c0,0,21.3,7.451,37.009,5.729a104.832,104.832,0,0,0,28.046-7.2s3.058-7.17,1.9-10.966-3.163-3.576-3.8-6.217,3.48-6.858,2.425-9.915-6.547-4.3-7.438-7.686,1.84-4.755,0-10.66-4.406-8.329-9.133-9.7S164.554,10,164.554,10A33.459,33.459,0,0,0,151.19,6.944a19.437,19.437,0,0,0-14.2,5.583" transform="translate(-125.04 -6.944)" fill="none"/>
    </clipPath>
    <clipPath id="clip-path-4">
      <path id="Trazado_1044107" data-name="Trazado 1044107" d="M90.122,339.445c-2.273,21.123,5.164,37.368,20.349,43.287,3.864,1.506,11.387,3.843,18.811,1.556,22.837.5,31.377-8.543,31.377-8.543s17.627,2.037,22.105-7.643c4.252-9.191-7.226-18.851-7.226-18.851-10.755-29.1-21.5-48.826-42.52-48.826s-40.613,17.792-42.9,39.02" transform="translate(-89.72 -300.425)" fill="none"/>
    </clipPath>
    <clipPath id="clip-path-6">
      <path id="Trazado_1044111" data-name="Trazado 1044111" d="M271.625,202.554c-1.025,4.5-1.521,15.21-1.521,15.21h13.412s-.352-6.79-.352-8.857l-12.279-14.116a11.908,11.908,0,0,1,.738,7.763" transform="translate(-270.104 -194.791)" fill="none"/>
    </clipPath>
    <clipPath id="clip-path-8">
      <path id="Trazado_1044121" data-name="Trazado 1044121" d="M245.936,57.649c-14.535,3.068-10.39,18.083-7.583,27.061S250.324,106,260.814,102.157s10.651-17.251,7.322-31.149c-1.9-7.928-5.988-14.093-15.8-14.093a31.153,31.153,0,0,0-6.405.734" transform="translate(-235.574 -56.915)" fill="none"/>
    </clipPath>
    <clipPath id="clip-path-10">
      <rect id="Rectángulo_417071" data-name="Rectángulo 417071" width="67.128" height="51.285" fill="none"/>
    </clipPath>
  </defs>
  <g id="Grupo_1202279" data-name="Grupo 1202279" transform="translate(-495.439 -2483.572)">
    <g id="Grupo_1203537" data-name="Grupo 1203537">
      <g id="_275373-P5XVBL-99" data-name="275373-P5XVBL-99" transform="translate(454.249 2395.272)">
        <g id="OBJECTS" transform="translate(41.19 109.68)">
          <g id="Grupo_1203503" data-name="Grupo 1203503" transform="translate(0 197.129)">
            <path id="Trazado_1044079" data-name="Trazado 1044079" d="M201.345,249.65H146.32a82.333,82.333,0,0,1-12.14,22.238h67.151V249.65Z" transform="translate(-3.216 -249.65)" fill="#6ebdca"/>
            <g id="Grupo_1203502" data-name="Grupo 1203502" transform="translate(0 22.238)">
              <rect id="Rectángulo_417062" data-name="Rectángulo 417062" width="198.115" height="175.877" fill="#6ebdca"/>
              <g id="Grupo_1203515" data-name="Grupo 1203515" transform="translate(19.508)">
                <path id="Trazado_1050454" data-name="Trazado 1050454" d="M18.865.77c9.79,0,16.94-7.315,16.94-20.02s-7.15-20.02-16.94-20.02c-9.845,0-17,7.315-17,20.02S9.02.77,18.865.77Zm0-8.91c-3.52,0-6.05-3.025-6.05-11.11s2.53-11.11,6.05-11.11c3.465,0,5.995,3.025,5.995,11.11S22.33-8.14,18.865-8.14ZM58.74-23.1l7.975-8.58V-38.5H38.885v8.415h15.18L47.19-22.66v6.875h4.565c4.18,0,5.885,1.43,5.885,3.74,0,2.585-2.42,4.015-6.1,4.015a19.545,19.545,0,0,1-10.67-3.19l-3.96,8.2C40.865-.55,46.53.77,51.865.77,63.47.77,68.64-5.5,68.64-12.045,68.64-17.545,65.23-21.725,58.74-23.1Z" transform="translate(0 53)" fill="#fff"/>
                <path id="Trazado_1050453" data-name="Trazado 1050453" d="M1.441,19V6.4H5.906q6.715,0,6.715,6.144a6.212,6.212,0,0,1-1.833,4.7A6.757,6.757,0,0,1,5.906,19ZM4.28,8.708V16.7H5.687a3.8,3.8,0,0,0,2.9-1.107,4.2,4.2,0,0,0,1.05-3.015A3.812,3.812,0,0,0,8.591,9.741,3.971,3.971,0,0,0,5.669,8.708Zm18.246,6.583H16.655q.141,1.96,2.47,1.96a4.822,4.822,0,0,0,2.61-.7v2a6.858,6.858,0,0,1-3.243.668,4.565,4.565,0,0,1-3.384-1.208,4.566,4.566,0,0,1-1.2-3.371,4.816,4.816,0,0,1,1.3-3.551,4.334,4.334,0,0,1,3.2-1.31,3.933,3.933,0,0,1,3.045,1.169,4.5,4.5,0,0,1,1.077,3.173Zm-2.575-1.705q0-1.934-1.564-1.934a1.494,1.494,0,0,0-1.156.554,2.513,2.513,0,0,0-.593,1.38Zm3.639,5.177v-2.25a5.913,5.913,0,0,0,1.367.615,4.531,4.531,0,0,0,1.288.2,2.762,2.762,0,0,0,1.165-.2.653.653,0,0,0,.426-.615.569.569,0,0,0-.193-.439,1.8,1.8,0,0,0-.5-.308,5.635,5.635,0,0,0-.664-.237q-.36-.105-.694-.237a6.653,6.653,0,0,1-.945-.435,2.731,2.731,0,0,1-.686-.541,2.125,2.125,0,0,1-.422-.712,2.841,2.841,0,0,1-.145-.958,2.466,2.466,0,0,1,.33-1.3,2.692,2.692,0,0,1,.879-.892,4.016,4.016,0,0,1,1.257-.51,6.553,6.553,0,0,1,1.472-.163,8.168,8.168,0,0,1,1.213.092,9.053,9.053,0,0,1,1.213.268v2.145a4.383,4.383,0,0,0-1.129-.461,4.764,4.764,0,0,0-1.182-.154,2.619,2.619,0,0,0-.514.048,1.693,1.693,0,0,0-.426.141.783.783,0,0,0-.29.237.546.546,0,0,0-.105.33.609.609,0,0,0,.158.422,1.374,1.374,0,0,0,.413.3,4.078,4.078,0,0,0,.567.229q.312.1.62.207a8.056,8.056,0,0,1,1,.422,3.2,3.2,0,0,1,.769.536,2.105,2.105,0,0,1,.492.721,2.884,2.884,0,0,1-.176,2.351,2.78,2.78,0,0,1-.923.923,4.185,4.185,0,0,1-1.327.519,7.357,7.357,0,0,1-1.56.163A8.042,8.042,0,0,1,23.59,18.763Zm16,.237H36.958V17.708h-.035a2.933,2.933,0,0,1-2.681,1.512,2.8,2.8,0,0,1-2.061-.743A2.661,2.661,0,0,1,31.43,16.5q0-2.619,3.1-3.023l2.443-.325q0-1.477-1.6-1.477a5.46,5.46,0,0,0-3.059.958V10.536a6.881,6.881,0,0,1,1.586-.527,8.339,8.339,0,0,1,1.833-.229q3.85,0,3.85,3.841Zm-2.61-3.656v-.606l-1.635.211q-1.354.176-1.354,1.222a1.01,1.01,0,0,0,.33.778,1.266,1.266,0,0,0,.892.3,1.644,1.644,0,0,0,1.274-.541A1.952,1.952,0,0,0,36.976,15.344ZM47.654,12.5a2.409,2.409,0,0,0-1.169-.272,1.684,1.684,0,0,0-1.415.664,2.9,2.9,0,0,0-.51,1.806V19H41.783V10h2.777v1.67H44.6a2.4,2.4,0,0,1,2.373-1.828,1.788,1.788,0,0,1,.686.105Zm7.163,0a2.409,2.409,0,0,0-1.169-.272,1.684,1.684,0,0,0-1.415.664,2.9,2.9,0,0,0-.51,1.806V19H48.946V10h2.777v1.67h.035a2.4,2.4,0,0,1,2.373-1.828,1.788,1.788,0,0,1,.686.105Zm5.511,6.715a4.838,4.838,0,0,1-3.538-1.261A4.573,4.573,0,0,1,55.5,14.535a4.573,4.573,0,0,1,1.336-3.494A5.048,5.048,0,0,1,60.451,9.78a4.78,4.78,0,0,1,3.516,1.261,4.483,4.483,0,0,1,1.274,3.335,4.759,4.759,0,0,1-1.314,3.542A4.892,4.892,0,0,1,60.328,19.22Zm.07-7.312a1.852,1.852,0,0,0-1.529.677,2.984,2.984,0,0,0-.545,1.916q0,2.593,2.092,2.593,2,0,2-2.663Q62.411,11.907,60.4,11.907ZM69.82,19H67.043V5.676H69.82Zm5.115,0H72.158V5.676h2.777Zm6.627.22a4.838,4.838,0,0,1-3.538-1.261,4.573,4.573,0,0,1-1.288-3.423,4.573,4.573,0,0,1,1.336-3.494A5.048,5.048,0,0,1,81.686,9.78,4.78,4.78,0,0,1,85.2,11.042a4.483,4.483,0,0,1,1.274,3.335,4.759,4.759,0,0,1-1.314,3.542A4.892,4.892,0,0,1,81.563,19.22Zm.07-7.312a1.852,1.852,0,0,0-1.529.677,2.984,2.984,0,0,0-.545,1.916q0,2.593,2.092,2.593,2,0,2-2.663Q83.646,11.907,81.633,11.907ZM102.05,19H99.272V17.761h-.035a3.114,3.114,0,0,1-2.786,1.459,3.412,3.412,0,0,1-2.716-1.191A4.93,4.93,0,0,1,92.707,14.7a5.366,5.366,0,0,1,1.134-3.577A3.7,3.7,0,0,1,96.812,9.78a2.527,2.527,0,0,1,2.426,1.248h.035V5.676h2.777Zm-2.725-4.377v-.677a2.13,2.13,0,0,0-.51-1.459,1.8,1.8,0,0,0-2.769.145,3.367,3.367,0,0,0-.519,1.991,2.914,2.914,0,0,0,.5,1.828,1.779,1.779,0,0,0,2.764-.035A2.821,2.821,0,0,0,99.325,14.623Zm13.148.668H106.6q.141,1.96,2.47,1.96a4.822,4.822,0,0,0,2.61-.7v2a6.858,6.858,0,0,1-3.243.668,4.565,4.565,0,0,1-3.384-1.208,4.566,4.566,0,0,1-1.2-3.371,4.816,4.816,0,0,1,1.3-3.551,4.334,4.334,0,0,1,3.2-1.31,3.933,3.933,0,0,1,3.045,1.169,4.5,4.5,0,0,1,1.077,3.173ZM109.9,13.586q0-1.934-1.564-1.934a1.494,1.494,0,0,0-1.156.554,2.513,2.513,0,0,0-.593,1.38ZM7.989,40.675a5.492,5.492,0,0,1-2.716.545,4.593,4.593,0,0,1-3.357-1.257A4.341,4.341,0,0,1,.633,36.72,4.782,4.782,0,0,1,2.008,33.1,5.083,5.083,0,0,1,5.687,31.78a4.72,4.72,0,0,1,2.3.422v2.355a3.166,3.166,0,0,0-1.942-.65,2.559,2.559,0,0,0-1.894.7,2.607,2.607,0,0,0-.7,1.929,2.565,2.565,0,0,0,.668,1.876,2.455,2.455,0,0,0,1.837.681,3.666,3.666,0,0,0,2.03-.65Zm6.108.545a4.838,4.838,0,0,1-3.538-1.261,4.573,4.573,0,0,1-1.288-3.423,4.573,4.573,0,0,1,1.336-3.494,5.048,5.048,0,0,1,3.612-1.261,4.78,4.78,0,0,1,3.516,1.261,4.483,4.483,0,0,1,1.274,3.335A4.759,4.759,0,0,1,17.7,39.919,4.892,4.892,0,0,1,14.1,41.22Zm.07-7.312a1.852,1.852,0,0,0-1.529.677,2.984,2.984,0,0,0-.545,1.916q0,2.593,2.092,2.593,2,0,2-2.663Q16.181,33.907,14.168,33.907ZM35.1,41H32.335V35.867q0-1.96-1.441-1.96a1.324,1.324,0,0,0-1.116.589,2.42,2.42,0,0,0-.431,1.468V41H26.569V35.814q0-1.907-1.415-1.907a1.356,1.356,0,0,0-1.138.563A2.475,2.475,0,0,0,23.59,36v5H20.813V32H23.59v1.406h.035a3.41,3.41,0,0,1,2.909-1.626,2.592,2.592,0,0,1,2.61,1.679,3.329,3.329,0,0,1,3.023-1.679q2.936,0,2.936,3.621Zm5.01-1.046h-.035V45.14H37.3V32h2.777v1.354h.035a3.534,3.534,0,0,1,5.594-.374,5.108,5.108,0,0,1,.954,3.265,5.537,5.537,0,0,1-1.112,3.612,3.625,3.625,0,0,1-2.958,1.362A2.8,2.8,0,0,1,40.113,39.954Zm-.079-3.691v.721a2.291,2.291,0,0,0,.492,1.521,1.6,1.6,0,0,0,1.292.589,1.7,1.7,0,0,0,1.472-.734,3.543,3.543,0,0,0,.523-2.079q0-2.373-1.846-2.373a1.733,1.733,0,0,0-1.393.646A2.576,2.576,0,0,0,40.034,36.263Zm16.515,1.028H50.678q.141,1.96,2.47,1.96a4.822,4.822,0,0,0,2.61-.7v2a6.858,6.858,0,0,1-3.243.668,4.189,4.189,0,0,1-4.588-4.579,4.816,4.816,0,0,1,1.3-3.551,4.334,4.334,0,0,1,3.2-1.31,3.933,3.933,0,0,1,3.045,1.169,4.5,4.5,0,0,1,1.077,3.173Zm-2.575-1.705q0-1.934-1.564-1.934a1.494,1.494,0,0,0-1.156.554,2.513,2.513,0,0,0-.593,1.38Zm9.668,5.309a4.105,4.105,0,0,1-1.854.325q-2.936,0-2.936-3.05V34.048H57.393V32h1.459V30.058l2.769-.791V32h2.021v2.048H61.62v3.639q0,1.406,1.116,1.406a1.882,1.882,0,0,0,.905-.255Zm9.58-3.6H67.351q.141,1.96,2.47,1.96a4.822,4.822,0,0,0,2.61-.7v2a6.858,6.858,0,0,1-3.243.668A4.189,4.189,0,0,1,64.6,36.641a4.816,4.816,0,0,1,1.3-3.551,4.334,4.334,0,0,1,3.2-1.31,3.933,3.933,0,0,1,3.045,1.169,4.5,4.5,0,0,1,1.077,3.173Zm-2.575-1.705q0-1.934-1.564-1.934a1.494,1.494,0,0,0-1.156.554,2.513,2.513,0,0,0-.593,1.38ZM83.566,41H80.8V36q0-2.092-1.494-2.092a1.483,1.483,0,0,0-1.187.554,2.109,2.109,0,0,0-.466,1.406V41H74.874V32h2.777v1.424h.035a3.183,3.183,0,0,1,2.892-1.644q2.988,0,2.988,3.709Zm9.018-.325a5.492,5.492,0,0,1-2.716.545,4.593,4.593,0,0,1-3.357-1.257,4.341,4.341,0,0,1-1.283-3.243A4.782,4.782,0,0,1,86.6,33.1a5.083,5.083,0,0,1,3.678-1.323,4.72,4.72,0,0,1,2.3.422v2.355a3.166,3.166,0,0,0-1.942-.65,2.559,2.559,0,0,0-1.894.7,2.607,2.607,0,0,0-.7,1.929,2.565,2.565,0,0,0,.668,1.876,2.455,2.455,0,0,0,1.837.681,3.666,3.666,0,0,0,2.03-.65Zm3.226-10.1a1.622,1.622,0,0,1-1.151-.417,1.345,1.345,0,0,1-.448-1.024,1.3,1.3,0,0,1,.448-1.02,1.88,1.88,0,0,1,2.307,0,1.3,1.3,0,0,1,.444,1.02,1.34,1.34,0,0,1-.444,1.037A1.65,1.65,0,0,1,95.81,30.576ZM97.181,41H94.4V32h2.777Zm9.826,0h-2.628V39.708h-.035a2.933,2.933,0,0,1-2.681,1.512,2.8,2.8,0,0,1-2.061-.743,2.661,2.661,0,0,1-.751-1.982q0-2.619,3.1-3.023l2.443-.325q0-1.477-1.6-1.477a5.46,5.46,0,0,0-3.059.958V32.536a6.881,6.881,0,0,1,1.586-.527,8.339,8.339,0,0,1,1.833-.229q3.85,0,3.85,3.841Zm-2.61-3.656v-.606l-1.635.211q-1.354.176-1.354,1.222a1.01,1.01,0,0,0,.33.778,1.266,1.266,0,0,0,.892.3,1.644,1.644,0,0,0,1.274-.541A1.952,1.952,0,0,0,104.4,37.344Zm4.219,3.419v-2.25a5.913,5.913,0,0,0,1.367.615,4.531,4.531,0,0,0,1.288.2,2.762,2.762,0,0,0,1.165-.2.653.653,0,0,0,.426-.615.569.569,0,0,0-.193-.439,1.8,1.8,0,0,0-.5-.308,5.635,5.635,0,0,0-.664-.237q-.36-.105-.694-.237a6.653,6.653,0,0,1-.945-.435,2.731,2.731,0,0,1-.686-.541,2.125,2.125,0,0,1-.422-.712,2.841,2.841,0,0,1-.145-.958,2.466,2.466,0,0,1,.33-1.3,2.692,2.692,0,0,1,.879-.892,4.016,4.016,0,0,1,1.257-.51,6.553,6.553,0,0,1,1.472-.163,8.168,8.168,0,0,1,1.213.092,9.053,9.053,0,0,1,1.213.268v2.145a4.383,4.383,0,0,0-1.129-.461,4.764,4.764,0,0,0-1.182-.154,2.619,2.619,0,0,0-.514.048,1.693,1.693,0,0,0-.426.141.783.783,0,0,0-.29.237.546.546,0,0,0-.105.33.609.609,0,0,0,.158.422,1.374,1.374,0,0,0,.413.3,4.078,4.078,0,0,0,.567.229q.312.1.62.207a8.056,8.056,0,0,1,1,.422,3.2,3.2,0,0,1,.769.536,2.105,2.105,0,0,1,.492.721,2.884,2.884,0,0,1-.176,2.351,2.78,2.78,0,0,1-.923.923,4.185,4.185,0,0,1-1.327.519,7.357,7.357,0,0,1-1.56.163A8.042,8.042,0,0,1,108.615,40.763Z" transform="translate(0.099 70.081)" fill="#fff"/>
                <g id="success_8568564" transform="translate(98.557 38.365)">
                  <g id="Grupo_1203545" data-name="Grupo 1203545" transform="translate(17.773 -26.808)">
                    <circle id="Elipse_12900" data-name="Elipse 12900" cx="6.479" cy="6.479" r="6.479" transform="translate(0 9.162) rotate(-45)" fill="none" stroke="#000" stroke-linecap="round" stroke-linejoin="round" stroke-miterlimit="10" stroke-width="1"/>
                    <path id="Trazado_1047926" data-name="Trazado 1047926" d="M215.141,47.5l.638,1.294a.341.341,0,0,0,.257.186l1.428.207a.682.682,0,0,1,.378,1.163l-1.033,1.007a.341.341,0,0,0-.1.3l.244,1.422a.682.682,0,0,1-.989.719l-1.285-.675a.324.324,0,0,0-.3,0l-1.285.675a.682.682,0,0,1-.989-.719l.244-1.422a.341.341,0,0,0-.1-.3l-1.033-1.007a.682.682,0,0,1,.378-1.163l1.428-.207a.341.341,0,0,0,.257-.186l.638-1.294A.682.682,0,0,1,215.141,47.5Z" transform="translate(-205.367 -41.338)" fill="none" stroke="#000" stroke-linecap="round" stroke-linejoin="round" stroke-miterlimit="10" stroke-width="1"/>
                  </g>
                  <g id="Grupo_1203549" data-name="Grupo 1203549" transform="translate(7.5 -11.168)">
                    <path id="Trazado_1047927" data-name="Trazado 1047927" d="M106.9,175.685v-1.223a1.3,1.3,0,0,1,1.3-1.3h20.732a1.3,1.3,0,0,1,1.3,1.3v7.342H106.9v-3.369" transform="translate(-99.126 -173.167)" fill="none" stroke="#000" stroke-linecap="round" stroke-linejoin="round" stroke-miterlimit="10" stroke-width="1"/>
                    <path id="Trazado_1047928" data-name="Trazado 1047928" d="M88.3,292.249H57.2v-7.342a1.3,1.3,0,0,1,1.3-1.3H87a1.3,1.3,0,0,1,1.3,1.3v7.342Z" transform="translate(-53.313 -274.973)" fill="none" stroke="#000" stroke-linecap="round" stroke-linejoin="round" stroke-miterlimit="10" stroke-width="1"/>
                    <path id="Trazado_1047929" data-name="Trazado 1047929" d="M15.274,402.693H8.8a1.3,1.3,0,0,1-1.3-1.3v-6.047a1.3,1.3,0,0,1,1.3-1.3h36.28a1.3,1.3,0,0,1,1.3,1.3V401.4a1.3,1.3,0,0,1-1.3,1.3H38.6" transform="translate(-7.5 -376.779)" fill="none" stroke="#000" stroke-linecap="round" stroke-linejoin="round" stroke-miterlimit="10" stroke-width="1"/>
                    <g id="Grupo_1203546" data-name="Grupo 1203546" transform="translate(12.957)">
                      <rect id="Rectángulo_417837" data-name="Rectángulo 417837" width="7.774" height="8.638" transform="translate(2.591)" fill="none" stroke="#000" stroke-linecap="round" stroke-linejoin="round" stroke-miterlimit="10" stroke-width="1"/>
                      <line id="Línea_1195" data-name="Línea 1195" y2="8.638" transform="translate(0)" fill="none" stroke="#000" stroke-linecap="round" stroke-linejoin="round" stroke-miterlimit="10" stroke-width="1"/>
                      <line id="Línea_1196" data-name="Línea 1196" y2="8.638" transform="translate(12.957)" fill="none" stroke="#000" stroke-linecap="round" stroke-linejoin="round" stroke-miterlimit="10" stroke-width="1"/>
                    </g>
                    <g id="Grupo_1203547" data-name="Grupo 1203547" transform="translate(9.07 8.638)">
                      <rect id="Rectángulo_417838" data-name="Rectángulo 417838" width="15.549" height="8.638" transform="translate(2.591)" fill="none" stroke="#000" stroke-linecap="round" stroke-linejoin="round" stroke-miterlimit="10" stroke-width="1"/>
                      <line id="Línea_1197" data-name="Línea 1197" y2="8.638" fill="none" stroke="#000" stroke-linecap="round" stroke-linejoin="round" stroke-miterlimit="10" stroke-width="1"/>
                      <line id="Línea_1198" data-name="Línea 1198" y2="8.638" transform="translate(20.732)" fill="none" stroke="#000" stroke-linecap="round" stroke-linejoin="round" stroke-miterlimit="10" stroke-width="1"/>
                    </g>
                    <g id="Grupo_1203548" data-name="Grupo 1203548" transform="translate(5.183 17.276)">
                      <path id="Trazado_1047930" data-name="Trazado 1047930" d="M109.418,402.694H106.9v-8.638h23.323v8.638h-18.14" transform="translate(-104.309 -394.056)" fill="none" stroke="#000" stroke-linecap="round" stroke-linejoin="round" stroke-miterlimit="10" stroke-width="1"/>
                      <line id="Línea_1199" data-name="Línea 1199" y2="8.638" fill="none" stroke="#000" stroke-linecap="round" stroke-linejoin="round" stroke-miterlimit="10" stroke-width="1"/>
                      <line id="Línea_1200" data-name="Línea 1200" y2="8.638" transform="translate(28.506)" fill="none" stroke="#000" stroke-linecap="round" stroke-linejoin="round" stroke-miterlimit="10" stroke-width="1"/>
                    </g>
                  </g>
                  <path id="Trazado_1047931" data-name="Trazado 1047931" d="M405.782,32.488V28.714a.324.324,0,0,1,.324-.324h.883a.324.324,0,0,0,.239-.543l-3.082-3.362a1.3,1.3,0,0,0-1.91,0l-3.082,3.362a.324.324,0,0,0,.239.543h.883a.324.324,0,0,1,.324.324v3.774a.648.648,0,0,0,.648.648h3.887A.648.648,0,0,0,405.782,32.488Z" transform="translate(-360.942 -46.894)" fill="none" stroke="#000" stroke-linecap="round" stroke-linejoin="round" stroke-miterlimit="10" stroke-width="1"/>
                  <path id="Trazado_1047932" data-name="Trazado 1047932" d="M14.214,32.488V28.715a.324.324,0,0,1,.324-.324h.883a.324.324,0,0,0,.239-.543l-3.082-3.361a1.3,1.3,0,0,0-1.91,0L7.586,27.848a.324.324,0,0,0,.239.543h.883a.324.324,0,0,1,.324.324v3.774a.648.648,0,0,0,.648.648h3.887A.648.648,0,0,0,14.214,32.488Z" transform="translate(0 -46.895)" fill="none" stroke="#000" stroke-linecap="round" stroke-linejoin="round" stroke-miterlimit="10" stroke-width="1"/>
                </g>
              </g>
            </g>
          </g>
          <g id="Grupo_1203505" data-name="Grupo 1203505" transform="translate(175.215 197.129)">
            <path id="Trazado_1044080" data-name="Trazado 1044080" d="M185.13,447.765,175.44,249.65h55.053Z" transform="translate(-161.582 -249.65)" fill="#3f5a6f" opacity="0.1"/>
            <path id="Trazado_1044081" data-name="Trazado 1044081" d="M165.6,346.165l22.942-16.506V249.65H386.657V447.765H188.542V362.672Z" transform="translate(-165.6 -249.65)" fill="#2f4f7e"/>
            <g id="Grupo_1203516" data-name="Grupo 1203516" transform="translate(43.293 22.238)">
              <path id="Trazado_1050455" data-name="Trazado 1050455" d="M18.865.77c9.79,0,16.94-7.315,16.94-20.02s-7.15-20.02-16.94-20.02c-9.845,0-17,7.315-17,20.02S9.02.77,18.865.77Zm0-8.91c-3.52,0-6.05-3.025-6.05-11.11s2.53-11.11,6.05-11.11c3.465,0,5.995,3.025,5.995,11.11S22.33-8.14,18.865-8.14Zm56.98-7.865h-5.72V-22.55H59.84v6.545H52.03L67.705-38.5H56.43L39.16-14.465V-7.37H59.51V0H70.125V-7.37h5.72Z" transform="translate(0 53)" fill="#fff"/>
              <path id="Trazado_1050456" data-name="Trazado 1050456" d="M8.728,8.708H4.28V11.8H8.367v2.3H4.28V19H1.441V6.4H8.728ZM13.307,19H10.529V5.676h2.777ZM23.73,15.291H17.859q.141,1.96,2.47,1.96a4.822,4.822,0,0,0,2.61-.7v2a6.858,6.858,0,0,1-3.243.668,4.565,4.565,0,0,1-3.384-1.208,4.566,4.566,0,0,1-1.2-3.371,4.816,4.816,0,0,1,1.3-3.551,4.334,4.334,0,0,1,3.2-1.31,3.933,3.933,0,0,1,3.045,1.169,4.5,4.5,0,0,1,1.077,3.173Zm-2.575-1.705q0-1.934-1.564-1.934a1.494,1.494,0,0,0-1.156.554,2.513,2.513,0,0,0-.593,1.38ZM34.075,10,31.1,14.359,34.058,19h-3.2l-1.3-2.426q-.158-.29-.378-.817h-.035a5.707,5.707,0,0,1-.36.791L27.475,19h-3.19l3.041-4.482L24.469,10h3.217l1.283,2.522a5.532,5.532,0,0,1,.36.844h.035a5.946,5.946,0,0,1,.378-.861l1.31-2.5Zm2.654-1.424a1.622,1.622,0,0,1-1.151-.417,1.345,1.345,0,0,1-.448-1.024,1.3,1.3,0,0,1,.448-1.02,1.88,1.88,0,0,1,2.307,0,1.3,1.3,0,0,1,.444,1.02,1.34,1.34,0,0,1-.444,1.037A1.65,1.65,0,0,1,36.729,8.576ZM38.1,19H35.323V10H38.1Zm5.15-1.046h-.035V19H40.438V5.676h2.777v5.678h.035A3.3,3.3,0,0,1,46.178,9.78a3.211,3.211,0,0,1,2.681,1.2,5.155,5.155,0,0,1,.94,3.27,5.582,5.582,0,0,1-1.1,3.612,3.579,3.579,0,0,1-2.936,1.362A2.836,2.836,0,0,1,43.251,17.954Zm-.079-3.8v.923a2.107,2.107,0,0,0,.5,1.441,1.63,1.63,0,0,0,1.283.571,1.7,1.7,0,0,0,1.472-.734,3.543,3.543,0,0,0,.523-2.079,2.819,2.819,0,0,0-.479-1.745,1.616,1.616,0,0,0-1.367-.628,1.766,1.766,0,0,0-1.384.624A2.37,2.37,0,0,0,43.172,14.157Zm9.835-5.581a1.622,1.622,0,0,1-1.151-.417,1.345,1.345,0,0,1-.448-1.024,1.3,1.3,0,0,1,.448-1.02,1.88,1.88,0,0,1,2.307,0,1.3,1.3,0,0,1,.444,1.02,1.34,1.34,0,0,1-.444,1.037A1.65,1.65,0,0,1,53.007,8.576ZM54.378,19H51.6V10h2.777Zm5.115,0H56.716V5.676h2.777ZM63.237,8.576a1.622,1.622,0,0,1-1.151-.417,1.345,1.345,0,0,1-.448-1.024,1.3,1.3,0,0,1,.448-1.02,1.88,1.88,0,0,1,2.307,0,1.3,1.3,0,0,1,.444,1.02,1.34,1.34,0,0,1-.444,1.037A1.65,1.65,0,0,1,63.237,8.576ZM64.608,19H61.831V10h2.777Zm11.145,0H72.976V17.761H72.94a3.114,3.114,0,0,1-2.786,1.459,3.412,3.412,0,0,1-2.716-1.191A4.93,4.93,0,0,1,66.41,14.7a5.366,5.366,0,0,1,1.134-3.577A3.7,3.7,0,0,1,70.515,9.78a2.527,2.527,0,0,1,2.426,1.248h.035V5.676h2.777Zm-2.725-4.377v-.677a2.13,2.13,0,0,0-.51-1.459,1.8,1.8,0,0,0-2.769.145,3.367,3.367,0,0,0-.519,1.991,2.914,2.914,0,0,0,.5,1.828,1.779,1.779,0,0,0,2.764-.035A2.821,2.821,0,0,0,73.028,14.623ZM85.579,19H82.951V17.708h-.035a2.933,2.933,0,0,1-2.681,1.512,2.8,2.8,0,0,1-2.061-.743,2.661,2.661,0,0,1-.751-1.982q0-2.619,3.1-3.023l2.443-.325q0-1.477-1.6-1.477a5.46,5.46,0,0,0-3.059.958V10.536a6.881,6.881,0,0,1,1.586-.527,8.339,8.339,0,0,1,1.833-.229q3.85,0,3.85,3.841Zm-2.61-3.656v-.606l-1.635.211q-1.354.176-1.354,1.222a1.01,1.01,0,0,0,.33.778,1.266,1.266,0,0,0,.892.3,1.644,1.644,0,0,0,1.274-.541A1.952,1.952,0,0,0,82.969,15.344ZM96.583,19H93.806V17.761h-.035a3.114,3.114,0,0,1-2.786,1.459,3.412,3.412,0,0,1-2.716-1.191A4.93,4.93,0,0,1,87.24,14.7a5.366,5.366,0,0,1,1.134-3.577A3.7,3.7,0,0,1,91.345,9.78a2.527,2.527,0,0,1,2.426,1.248h.035V5.676h2.777Zm-2.725-4.377v-.677a2.13,2.13,0,0,0-.51-1.459,1.8,1.8,0,0,0-2.769.145,3.367,3.367,0,0,0-.519,1.991,2.914,2.914,0,0,0,.5,1.828,1.779,1.779,0,0,0,2.764-.035A2.821,2.821,0,0,0,93.858,14.623ZM15.46,41H12.691V35.867q0-1.96-1.441-1.96a1.324,1.324,0,0,0-1.116.589A2.42,2.42,0,0,0,9.7,35.964V41H6.926V35.814q0-1.907-1.415-1.907a1.356,1.356,0,0,0-1.138.563A2.475,2.475,0,0,0,3.946,36v5H1.169V32H3.946v1.406h.035A3.41,3.41,0,0,1,6.891,31.78,2.592,2.592,0,0,1,9.5,33.459a3.329,3.329,0,0,1,3.023-1.679q2.936,0,2.936,3.621Zm10.283-3.709H19.872q.141,1.96,2.47,1.96a4.822,4.822,0,0,0,2.61-.7v2a6.858,6.858,0,0,1-3.243.668,4.565,4.565,0,0,1-3.384-1.208,4.566,4.566,0,0,1-1.2-3.371,4.816,4.816,0,0,1,1.3-3.551,4.334,4.334,0,0,1,3.2-1.31,3.933,3.933,0,0,1,3.045,1.169,4.5,4.5,0,0,1,1.077,3.173Zm-2.575-1.705q0-1.934-1.564-1.934a1.494,1.494,0,0,0-1.156.554,2.513,2.513,0,0,0-.593,1.38Zm9.668,5.309a4.105,4.105,0,0,1-1.854.325q-2.936,0-2.936-3.05V34.048H26.587V32h1.459V30.058l2.769-.791V32h2.021v2.048H30.814v3.639q0,1.406,1.116,1.406a1.882,1.882,0,0,0,.905-.255Zm5.783.325a4.838,4.838,0,0,1-3.538-1.261,4.573,4.573,0,0,1-1.288-3.423,4.573,4.573,0,0,1,1.336-3.494,5.048,5.048,0,0,1,3.612-1.261,4.78,4.78,0,0,1,3.516,1.261,4.483,4.483,0,0,1,1.274,3.335,4.759,4.759,0,0,1-1.314,3.542A4.892,4.892,0,0,1,38.619,41.22Zm.07-7.312a1.852,1.852,0,0,0-1.529.677,2.984,2.984,0,0,0-.545,1.916q0,2.593,2.092,2.593,2,0,2-2.663Q40.7,33.907,38.689,33.907ZM54.141,41H51.363V39.761h-.035a3.114,3.114,0,0,1-2.786,1.459,3.412,3.412,0,0,1-2.716-1.191A4.93,4.93,0,0,1,44.8,36.7a5.366,5.366,0,0,1,1.134-3.577A3.7,3.7,0,0,1,48.9,31.78a2.527,2.527,0,0,1,2.426,1.248h.035V27.676h2.777Zm-2.725-4.377v-.677a2.13,2.13,0,0,0-.51-1.459,1.8,1.8,0,0,0-2.769.145,3.367,3.367,0,0,0-.519,1.991,2.914,2.914,0,0,0,.5,1.828,1.779,1.779,0,0,0,2.764-.035A2.821,2.821,0,0,0,51.416,36.623Zm9.352,4.6a4.838,4.838,0,0,1-3.538-1.261,4.573,4.573,0,0,1-1.288-3.423,4.573,4.573,0,0,1,1.336-3.494,5.048,5.048,0,0,1,3.612-1.261,4.78,4.78,0,0,1,3.516,1.261,4.483,4.483,0,0,1,1.274,3.335,4.759,4.759,0,0,1-1.314,3.542A4.892,4.892,0,0,1,60.768,41.22Zm.07-7.312a1.852,1.852,0,0,0-1.529.677,2.984,2.984,0,0,0-.545,1.916q0,2.593,2.092,2.593,2,0,2-2.663Q62.851,33.907,60.838,33.907ZM70.26,41H67.482V27.676H70.26Zm6.627.22a4.838,4.838,0,0,1-3.538-1.261,4.573,4.573,0,0,1-1.288-3.423A4.573,4.573,0,0,1,73.4,33.042,5.048,5.048,0,0,1,77.01,31.78a4.78,4.78,0,0,1,3.516,1.261A4.483,4.483,0,0,1,81.8,36.377a4.759,4.759,0,0,1-1.314,3.542A4.892,4.892,0,0,1,76.887,41.22Zm.07-7.312a1.852,1.852,0,0,0-1.529.677,2.984,2.984,0,0,0-.545,1.916q0,2.593,2.092,2.593,2,0,2-2.663Q78.97,33.907,76.957,33.907Zm2.979-6.17-2.751,2.839h-2l2.285-2.839Zm12.48,12.234a5.092,5.092,0,0,1-1.45,3.88,5.877,5.877,0,0,1-4.2,1.375,6.659,6.659,0,0,1-2.883-.519V42.371a5.521,5.521,0,0,0,2.8.809,3.02,3.02,0,0,0,2.18-.743,2.665,2.665,0,0,0,.773-2.017v-.712H89.6a3.1,3.1,0,0,1-2.8,1.512,3.372,3.372,0,0,1-2.733-1.213,4.919,4.919,0,0,1-1.011-3.252,5.478,5.478,0,0,1,1.125-3.63,3.673,3.673,0,0,1,2.962-1.345A2.733,2.733,0,0,1,89.6,33.046h.035V32h2.777Zm-2.742-3.3v-.712a2.188,2.188,0,0,0-.505-1.455,1.635,1.635,0,0,0-1.314-.6,1.7,1.7,0,0,0-1.45.721,3.389,3.389,0,0,0-.527,2.03,2.86,2.86,0,0,0,.5,1.78,1.633,1.633,0,0,0,1.371.655,1.7,1.7,0,0,0,1.393-.664A2.721,2.721,0,0,0,89.675,36.676Zm6.469-6.1a1.622,1.622,0,0,1-1.151-.417,1.345,1.345,0,0,1-.448-1.024,1.3,1.3,0,0,1,.448-1.02,1.88,1.88,0,0,1,2.307,0,1.3,1.3,0,0,1,.444,1.02,1.34,1.34,0,0,1-.444,1.037A1.65,1.65,0,0,1,96.144,30.576ZM97.515,41H94.737V32h2.777Zm9.158-.325a5.492,5.492,0,0,1-2.716.545,4.593,4.593,0,0,1-3.357-1.257,4.341,4.341,0,0,1-1.283-3.243,4.782,4.782,0,0,1,1.375-3.617,5.083,5.083,0,0,1,3.678-1.323,4.72,4.72,0,0,1,2.3.422v2.355a3.166,3.166,0,0,0-1.942-.65,2.559,2.559,0,0,0-1.894.7,2.607,2.607,0,0,0-.7,1.929,2.565,2.565,0,0,0,.668,1.876,2.455,2.455,0,0,0,1.837.681,3.666,3.666,0,0,0,2.03-.65ZM115.98,41h-2.628V39.708h-.035a2.933,2.933,0,0,1-2.681,1.512,2.8,2.8,0,0,1-2.061-.743,2.661,2.661,0,0,1-.751-1.982q0-2.619,3.1-3.023l2.443-.325q0-1.477-1.6-1.477a5.46,5.46,0,0,0-3.059.958V32.536a6.881,6.881,0,0,1,1.586-.527,8.339,8.339,0,0,1,1.833-.229q3.85,0,3.85,3.841Zm-2.61-3.656v-.606l-1.635.211q-1.354.176-1.354,1.222a1.01,1.01,0,0,0,.33.778,1.266,1.266,0,0,0,.892.3,1.644,1.644,0,0,0,1.274-.541A1.952,1.952,0,0,0,113.37,37.344Z" transform="translate(0.099 70.081)" fill="#fff"/>
            </g>
          </g>
          <g id="Grupo_1203507" data-name="Grupo 1203507" transform="translate(370.527 197.129)">
            <path id="Trazado_1044082" data-name="Trazado 1044082" d="M323.38,447.765,313.69,249.65h52Z" transform="translate(-300.437 -249.65)" fill="#ffadcc" opacity="0.1"/>
            <path id="Trazado_1044083" data-name="Trazado 1044083" d="M304.28,346.165l22.942-16.506V249.65H521.915V447.765H327.222V362.672Z" transform="translate(-304.28 -249.65)" fill="#e48faf"/>
            <g id="Grupo_1203517" data-name="Grupo 1203517" transform="translate(39.251 22.238)">
              <path id="Trazado_1050458" data-name="Trazado 1050458" d="M18.865.77c9.79,0,16.94-7.315,16.94-20.02s-7.15-20.02-16.94-20.02c-9.845,0-17,7.315-17,20.02S9.02.77,18.865.77Zm0-8.91c-3.52,0-6.05-3.025-6.05-11.11s2.53-11.11,6.05-11.11c3.465,0,5.995,3.025,5.995,11.11S22.33-8.14,18.865-8.14Zm35.09-16.335H51.37l.495-5.61h15.51V-38.5H42.845l-1.925,22.5H51.37c5.885,0,7.48,1.54,7.48,3.905,0,2.585-2.475,4.07-6.16,4.07a19.545,19.545,0,0,1-10.67-3.19l-3.905,8.2C42.02-.55,47.685.77,53.02.77c11.6,0,16.775-6.27,16.775-13.145C69.795-19.195,65.34-24.475,53.955-24.475Z" transform="translate(0 53)" fill="#0b0a0a"/>
              <path id="Trazado_1050457" data-name="Trazado 1050457" d="M9,19H1.441V6.4H8.71V8.708H4.28v2.8H8.4v2.3H4.28V16.7H9Zm10.318-9L15.97,19H12.806l-3.19-9h2.971l1.564,5.546a8.1,8.1,0,0,1,.308,1.6h.035a9.078,9.078,0,0,1,.325-1.547l1.6-5.6Zm8.4,9H25.093V17.708h-.035a2.933,2.933,0,0,1-2.681,1.512,2.8,2.8,0,0,1-2.061-.743,2.661,2.661,0,0,1-.751-1.982q0-2.619,3.1-3.023l2.443-.325q0-1.477-1.6-1.477a5.46,5.46,0,0,0-3.059.958V10.536a6.881,6.881,0,0,1,1.586-.527,8.339,8.339,0,0,1,1.833-.229q3.85,0,3.85,3.841Zm-2.61-3.656v-.606l-1.635.211q-1.354.176-1.354,1.222a1.01,1.01,0,0,0,.33.778,1.266,1.266,0,0,0,.892.3,1.644,1.644,0,0,0,1.274-.541A1.952,1.952,0,0,0,25.11,15.344ZM32.7,19H29.918V5.676H32.7Zm10.89,0H40.816V17.629h-.044a3.141,3.141,0,0,1-2.751,1.591q-3.129,0-3.129-3.788V10h2.769v5.186q0,1.907,1.512,1.907a1.5,1.5,0,0,0,1.2-.523,2.109,2.109,0,0,0,.448-1.419V10h2.769Zm9.826,0H50.783V17.708h-.035a2.933,2.933,0,0,1-2.681,1.512,2.8,2.8,0,0,1-2.061-.743,2.661,2.661,0,0,1-.751-1.982q0-2.619,3.1-3.023l2.443-.325q0-1.477-1.6-1.477a5.46,5.46,0,0,0-3.059.958V10.536a6.881,6.881,0,0,1,1.586-.527,8.339,8.339,0,0,1,1.833-.229q3.85,0,3.85,3.841ZM50.8,15.344v-.606l-1.635.211q-1.354.176-1.354,1.222a1.01,1.01,0,0,0,.33.778,1.266,1.266,0,0,0,.892.3,1.644,1.644,0,0,0,1.274-.541A1.952,1.952,0,0,0,50.8,15.344Zm11.628,3.331a5.492,5.492,0,0,1-2.716.545,4.593,4.593,0,0,1-3.357-1.257,4.341,4.341,0,0,1-1.283-3.243A4.782,4.782,0,0,1,56.448,11.1,5.083,5.083,0,0,1,60.126,9.78a4.72,4.72,0,0,1,2.3.422v2.355a3.166,3.166,0,0,0-1.942-.65,2.559,2.559,0,0,0-1.894.7,2.607,2.607,0,0,0-.7,1.929,2.565,2.565,0,0,0,.668,1.876,2.455,2.455,0,0,0,1.837.681,3.666,3.666,0,0,0,2.03-.65Zm3.226-10.1A1.622,1.622,0,0,1,64.5,8.159a1.345,1.345,0,0,1-.448-1.024,1.3,1.3,0,0,1,.448-1.02,1.88,1.88,0,0,1,2.307,0,1.3,1.3,0,0,1,.444,1.02,1.34,1.34,0,0,1-.444,1.037A1.65,1.65,0,0,1,65.654,8.576ZM67.025,19H64.248V10h2.777Zm6.627.22a4.838,4.838,0,0,1-3.538-1.261,4.573,4.573,0,0,1-1.288-3.423,4.573,4.573,0,0,1,1.336-3.494A5.048,5.048,0,0,1,73.775,9.78a4.78,4.78,0,0,1,3.516,1.261,4.483,4.483,0,0,1,1.274,3.335,4.759,4.759,0,0,1-1.314,3.542A4.892,4.892,0,0,1,73.652,19.22Zm.07-7.312a1.852,1.852,0,0,0-1.529.677,2.984,2.984,0,0,0-.545,1.916q0,2.593,2.092,2.593,2,0,2-2.663Q75.735,11.907,73.723,11.907ZM76.7,5.737,73.951,8.576h-2l2.285-2.839ZM89.051,19H86.282V14q0-2.092-1.494-2.092a1.483,1.483,0,0,0-1.187.554,2.109,2.109,0,0,0-.466,1.406V19H80.358V10h2.777v1.424h.035A3.183,3.183,0,0,1,86.063,9.78q2.988,0,2.988,3.709ZM7.989,40.675a5.492,5.492,0,0,1-2.716.545,4.593,4.593,0,0,1-3.357-1.257A4.341,4.341,0,0,1,.633,36.72,4.782,4.782,0,0,1,2.008,33.1,5.083,5.083,0,0,1,5.687,31.78a4.72,4.72,0,0,1,2.3.422v2.355a3.166,3.166,0,0,0-1.942-.65,2.559,2.559,0,0,0-1.894.7,2.607,2.607,0,0,0-.7,1.929,2.565,2.565,0,0,0,.668,1.876,2.455,2.455,0,0,0,1.837.681,3.666,3.666,0,0,0,2.03-.65Zm6.108.545a4.838,4.838,0,0,1-3.538-1.261,4.573,4.573,0,0,1-1.288-3.423,4.573,4.573,0,0,1,1.336-3.494,5.048,5.048,0,0,1,3.612-1.261,4.78,4.78,0,0,1,3.516,1.261,4.483,4.483,0,0,1,1.274,3.335A4.759,4.759,0,0,1,17.7,39.919,4.892,4.892,0,0,1,14.1,41.22Zm.07-7.312a1.852,1.852,0,0,0-1.529.677,2.984,2.984,0,0,0-.545,1.916q0,2.593,2.092,2.593,2,0,2-2.663Q16.181,33.907,14.168,33.907ZM29.5,41H26.736V36q0-2.092-1.494-2.092a1.483,1.483,0,0,0-1.187.554,2.109,2.109,0,0,0-.466,1.406V41H20.813V32H23.59v1.424h.035a3.183,3.183,0,0,1,2.892-1.644q2.988,0,2.988,3.709Zm7.638-.105a4.105,4.105,0,0,1-1.854.325q-2.936,0-2.936-3.05V34.048H30.894V32h1.459V30.058l2.769-.791V32h2.021v2.048H35.121v3.639q0,1.406,1.116,1.406a1.882,1.882,0,0,0,.905-.255Zm9.58-3.6H40.852q.141,1.96,2.47,1.96a4.822,4.822,0,0,0,2.61-.7v2a6.858,6.858,0,0,1-3.243.668A4.189,4.189,0,0,1,38.1,36.641a4.816,4.816,0,0,1,1.3-3.551,4.334,4.334,0,0,1,3.2-1.31,3.933,3.933,0,0,1,3.045,1.169,4.5,4.5,0,0,1,1.077,3.173Zm-2.575-1.705q0-1.934-1.564-1.934a1.494,1.494,0,0,0-1.156.554,2.513,2.513,0,0,0-.593,1.38ZM57.067,32,54.1,36.359,57.05,41h-3.2l-1.3-2.426q-.158-.29-.378-.817h-.035a5.707,5.707,0,0,1-.36.791L50.467,41h-3.19l3.041-4.482L47.461,32h3.217l1.283,2.522a5.532,5.532,0,0,1,.36.844h.035a5.946,5.946,0,0,1,.378-.861l1.31-2.5Zm6.688,8.895a4.105,4.105,0,0,1-1.854.325q-2.936,0-2.936-3.05V34.048H57.507V32h1.459V30.058l2.769-.791V32h2.021v2.048H61.734v3.639q0,1.406,1.116,1.406a1.882,1.882,0,0,0,.905-.255ZM73.872,41H71.1V39.629H71.06a3.141,3.141,0,0,1-2.751,1.591q-3.129,0-3.129-3.788V32h2.769v5.186q0,1.907,1.512,1.907a1.5,1.5,0,0,0,1.2-.523A2.109,2.109,0,0,0,71.1,37.15V32h2.769ZM83.7,41H81.07V39.708h-.035a2.933,2.933,0,0,1-2.681,1.512,2.8,2.8,0,0,1-2.061-.743,2.661,2.661,0,0,1-.751-1.982q0-2.619,3.1-3.023l2.443-.325q0-1.477-1.6-1.477a5.46,5.46,0,0,0-3.059.958V32.536a6.881,6.881,0,0,1,1.586-.527,8.339,8.339,0,0,1,1.833-.229q3.85,0,3.85,3.841Zm-2.61-3.656v-.606l-1.635.211Q78.1,37.124,78.1,38.17a1.01,1.01,0,0,0,.33.778,1.266,1.266,0,0,0,.892.3A1.644,1.644,0,0,0,80.6,38.71,1.952,1.952,0,0,0,81.088,37.344ZM88.673,41H85.9V27.676h2.777Zm3.744-10.424a1.622,1.622,0,0,1-1.151-.417,1.345,1.345,0,0,1-.448-1.024,1.3,1.3,0,0,1,.448-1.02,1.88,1.88,0,0,1,2.307,0,1.3,1.3,0,0,1,.444,1.02,1.34,1.34,0,0,1-.444,1.037A1.65,1.65,0,0,1,92.417,30.576ZM93.788,41H91.011V32h2.777Zm9.466,0H95.177V39.849l4.518-5.8H95.625V32h7.594v1.371l-4.28,5.581h4.315Zm8.982,0h-2.628V39.708h-.035a2.933,2.933,0,0,1-2.681,1.512,2.8,2.8,0,0,1-2.061-.743,2.661,2.661,0,0,1-.751-1.982q0-2.619,3.1-3.023l2.443-.325q0-1.477-1.6-1.477a5.46,5.46,0,0,0-3.059.958V32.536a6.881,6.881,0,0,1,1.586-.527,8.339,8.339,0,0,1,1.833-.229q3.85,0,3.85,3.841Zm-2.61-3.656v-.606l-1.635.211q-1.354.176-1.354,1.222a1.01,1.01,0,0,0,.33.778,1.266,1.266,0,0,0,.892.3,1.644,1.644,0,0,0,1.274-.541A1.952,1.952,0,0,0,109.626,37.344ZM123.24,41h-2.777V39.761h-.035a3.114,3.114,0,0,1-2.786,1.459,3.412,3.412,0,0,1-2.716-1.191A4.93,4.93,0,0,1,113.9,36.7a5.366,5.366,0,0,1,1.134-3.577A3.7,3.7,0,0,1,118,31.78a2.527,2.527,0,0,1,2.426,1.248h.035V27.676h2.777Zm-2.725-4.377v-.677a2.13,2.13,0,0,0-.51-1.459,1.8,1.8,0,0,0-2.769.145,3.367,3.367,0,0,0-.519,1.991,2.914,2.914,0,0,0,.5,1.828,1.779,1.779,0,0,0,2.764-.035A2.821,2.821,0,0,0,120.516,36.623ZM133.066,41h-2.628V39.708H130.4a2.933,2.933,0,0,1-2.681,1.512,2.8,2.8,0,0,1-2.061-.743,2.661,2.661,0,0,1-.751-1.982q0-2.619,3.1-3.023l2.443-.325q0-1.477-1.6-1.477a5.46,5.46,0,0,0-3.059.958V32.536a6.881,6.881,0,0,1,1.586-.527,8.339,8.339,0,0,1,1.833-.229q3.85,0,3.85,3.841Zm-2.61-3.656v-.606l-1.635.211q-1.354.176-1.354,1.222a1.01,1.01,0,0,0,.33.778,1.266,1.266,0,0,0,.892.3,1.644,1.644,0,0,0,1.274-.541A1.952,1.952,0,0,0,130.456,37.344Z" transform="translate(0.099 70.081)" fill="#0b0a0a"/>
              <path id="agile_12634811" d="M32.861,17.634,27.75,22.792h4a1.115,1.115,0,0,0,1.107-1.117Zm12.187,6.254H38.5a.594.594,0,0,0-.588.593v2.23a.594.594,0,0,0,.588.593h6.546a.594.594,0,0,0,.588-.593v-2.23A.594.594,0,0,0,45.048,23.888ZM38.5,22.931h6.546a1.547,1.547,0,0,1,1.537,1.551v2.23a1.547,1.547,0,0,1-1.537,1.551H38.5a1.547,1.547,0,0,1-1.537-1.551v-2.23A1.547,1.547,0,0,1,38.5,22.931ZM45.048,46.5H38.5a.594.594,0,0,0-.588.593v2.23a.594.594,0,0,0,.588.593h6.546a.594.594,0,0,0,.588-.593v-2.23A.594.594,0,0,0,45.048,46.5ZM38.5,45.541h6.546a1.547,1.547,0,0,1,1.537,1.551v2.231a1.547,1.547,0,0,1-1.537,1.551H38.5a1.547,1.547,0,0,1-1.537-1.551V47.092A1.547,1.547,0,0,1,38.5,45.541ZM33.128,35.248a.481.481,0,0,1,.035-.675.471.471,0,0,1,.669.036l1.747,1.954a.48.48,0,0,1,0,.678L33.833,39.2a.471.471,0,0,1-.669.036.481.481,0,0,1-.035-.675l1.05-1.175H31.928A2.239,2.239,0,0,1,29.7,35.137V27.361a2.239,2.239,0,0,1,2.223-2.243h3.317a.479.479,0,0,1,0,.957H31.928a1.285,1.285,0,0,0-1.275,1.286v7.776a1.285,1.285,0,0,0,1.275,1.286h2.251l-1.05-1.175ZM49.717,45.914a.471.471,0,0,1,.669-.036.481.481,0,0,1,.035.675l-1.05,1.175h2.251A1.285,1.285,0,0,0,52.9,46.442V38.667a1.285,1.285,0,0,0-1.275-1.286H48.305a.479.479,0,0,1,0-.957h3.317a2.239,2.239,0,0,1,2.223,2.243v7.776a2.239,2.239,0,0,1-2.223,2.243H49.371l1.05,1.175a.481.481,0,0,1-.035.675.471.471,0,0,1-.669-.036l-1.747-1.954a.48.48,0,0,1,0-.678l1.747-1.954ZM30.955,44.219a5.7,5.7,0,0,0-8.11,0,5.823,5.823,0,0,0,0,8.183,5.7,5.7,0,0,0,8.11,0A5.823,5.823,0,0,0,30.955,44.219Zm4.921,12.627.9-.911-.874-.881H33.522a9.434,9.434,0,0,1-2.5,1.792ZM33.4,53.77a8.412,8.412,0,0,1-6.5,3.076h-.217l.553-.558a.482.482,0,0,0,0-.677l-.553-.558H26.9a6.631,6.631,0,0,0,4.667-1.917l1.556-.421.28,1.054Zm1.437-8.412a8.614,8.614,0,0,1-.723,7.407l-.2-.758a.473.473,0,0,0-.58-.338l-.762.206a6.816,6.816,0,0,0,.8-5.233l.416-1.567,1.047.283Zm-6.5-5.461a8.472,8.472,0,0,1,6,4.334l-.753-.2a.473.473,0,0,0-.58.338l-.2.767a6.762,6.762,0,0,0-1.171-1.592,6.665,6.665,0,0,0-2.92-1.726l-1.135-1.146.767-.773Zm-.092-.984a8.929,8.929,0,0,0-1.166-.095V23.749h4.676a2.068,2.068,0,0,0,2.056-2.074V16.957H55.364a1.115,1.115,0,0,1,1.107,1.117V55.73a1.115,1.115,0,0,1-1.107,1.117H37.218l.567-.573a.482.482,0,0,0,0-.677l-1.344-1.356A.47.47,0,0,0,36.1,54.1H34.36a9.523,9.523,0,0,0-6.115-15.183ZM20.4,42.851a8.411,8.411,0,0,1,6.718-3.073l-.55.555a.482.482,0,0,0,0,.677l.557.562q-.11,0-.221,0a6.631,6.631,0,0,0-4.667,1.917l-1.556.421-.28-1.054ZM21,51.487a6.746,6.746,0,0,0,2.463,2.61H20.678a8.566,8.566,0,0,1-1.214-1.708l.755.2a.473.473,0,0,0,.58-.338l.2-.767Zm-2.045-.225a8.622,8.622,0,0,1,.724-7.407l.2.758a.473.473,0,0,0,.58.338l.762-.206a6.815,6.815,0,0,0-.8,5.233l-.416,1.567ZM16.13,56.983l1.023-1.032c-.164-.166-1.011-1-1.088-1.112a.48.48,0,0,1,.4-.742h2.98a9.553,9.553,0,0,1,.805-12.5,9.343,9.343,0,0,1,5.883-2.749V23.27a.479.479,0,0,1,.143-.343L33,16.144a.471.471,0,0,1,.34-.144H55.364a2.068,2.068,0,0,1,2.056,2.074V55.73A2.068,2.068,0,0,1,55.364,57.8h-38.9a.478.478,0,0,1-.331-.821Zm1.477-1.929.553.558a.482.482,0,0,1,0,.677l-.553.558h7.734l.888-.9-.888-.9H17.607Zm26.2-16.1a2.92,2.92,0,0,0,0-4.1,2.858,2.858,0,0,0-4.067,0,2.92,2.92,0,0,0,0,4.1A2.858,2.858,0,0,0,43.808,38.953Zm-2.033-.107a1.949,1.949,0,0,0,1.363-3.319,1.936,1.936,0,1,0-1.363,3.319Zm-4.347-3.223c-.793,0-.6-.065-1.188.517a.479.479,0,0,0-.143.343v.839a.48.48,0,0,0,.139.338c.583.588.412.521,1.193.521a4.547,4.547,0,0,0,.377.917c-.552.557-.479.386-.479,1.22a.479.479,0,0,0,.139.338l.583.589a.471.471,0,0,0,.34.144c.825,0,.657.074,1.209-.483a4.457,4.457,0,0,0,.909.381c0,.8-.064.61.512,1.2a.471.471,0,0,0,.34.144h.831a.471.471,0,0,0,.335-.14c.583-.588.517-.416.517-1.2a4.458,4.458,0,0,0,.909-.381c.552.557.383.483,1.209.483a.471.471,0,0,0,.335-.14l.583-.589a.479.479,0,0,0,.143-.343c0-.833.074-.663-.479-1.22a4.542,4.542,0,0,0,.378-.917c.793,0,.6.065,1.188-.517a.479.479,0,0,0,.143-.343v-.839a.48.48,0,0,0-.139-.338c-.583-.588-.412-.521-1.193-.521a4.542,4.542,0,0,0-.378-.917c.552-.557.479-.386.479-1.22a.48.48,0,0,0-.139-.338l-.583-.589a.471.471,0,0,0-.34-.144c-.825,0-.657-.074-1.209.483a4.458,4.458,0,0,0-.909-.381c0-.8.064-.61-.512-1.2a.471.471,0,0,0-.34-.144H41.36a.472.472,0,0,0-.335.14c-.583.588-.517.416-.517,1.2a4.458,4.458,0,0,0-.909.381c-.552-.557-.383-.483-1.209-.483a.471.471,0,0,0-.335.14l-.583.589a.479.479,0,0,0-.143.343c0,.833-.074.663.479,1.22a4.542,4.542,0,0,0-.378.917Zm1.349-.7a3.648,3.648,0,0,0-.508,1.246.476.476,0,0,1-.469.407h-.655l-.1.1v.442l.1.1H37.8a.476.476,0,0,1,.469.407,3.685,3.685,0,0,0,.508,1.246.482.482,0,0,1-.038.633l-.463.467v.142l.31.312h.141l.463-.467a.471.471,0,0,1,.628-.038,3.621,3.621,0,0,0,1.235.513.478.478,0,0,1,.4.473v.66l.1.1h.438l.1-.1v-.66a.478.478,0,0,1,.4-.473,3.617,3.617,0,0,0,1.235-.513.471.471,0,0,1,.628.038l.463.467h.141l.31-.312v-.142l-.463-.467a.482.482,0,0,1-.038-.633,3.69,3.69,0,0,0,.508-1.246.476.476,0,0,1,.469-.407H46.4l.1-.1v-.442l-.1-.1H45.75a.476.476,0,0,1-.469-.407,3.688,3.688,0,0,0-.508-1.246.482.482,0,0,1,.038-.633l.463-.467v-.142l-.31-.312h-.141l-.463.467a.471.471,0,0,1-.628.038,3.619,3.619,0,0,0-1.235-.513.477.477,0,0,1-.4-.473v-.66l-.1-.1h-.438l-.1.1v.66a.478.478,0,0,1-.4.473,3.619,3.619,0,0,0-1.235.513.471.471,0,0,1-.628-.038l-.463-.467h-.141l-.31.312v.142l.463.467A.482.482,0,0,1,38.777,34.927ZM29.309,46.044a.471.471,0,0,1,.669-.032.481.481,0,0,1,.032.675l-3.5,3.889a.471.471,0,0,1-.714-.015l-1.91-2.305a.481.481,0,0,1,.059-.673.471.471,0,0,1,.667.06l1.562,1.884,3.132-3.483Z" transform="translate(91.995 -2.621)" fill-rule="evenodd"/>
            </g>
          </g>
          <g id="Grupo_1203509" data-name="Grupo 1203509" transform="translate(390.033)">
            <rect id="Rectángulo_417063" data-name="Rectángulo 417063" width="198.115" height="198.115" fill="#6ebdca"/>
            <path id="Trazado_1044084" data-name="Trazado 1044084" d="M362.232,222.622c-12.957,9.253-14.7,24.675-14.07,40.829h37.758l16.506,22.942,16.506-22.942h39.646a48.267,48.267,0,0,0-3.056-5.662c-22.942-30.576-62.7-58.109-93.276-35.167Z" transform="translate(-305.911 -67.026)" fill="#6ebdca"/>
          </g>
          <g id="Grupo_1203511" data-name="Grupo 1203511" transform="translate(195.327)">
            <path id="Trazado_1044085" data-name="Trazado 1044085" d="M333.274,307.8l9.69-198.115H287.91Z" transform="translate(-135.764 -109.68)" fill="#606060" opacity="0.1"/>
            <path id="Trazado_1044086" data-name="Trazado 1044086" d="M400.937,206.181,378,189.675v-80H179.88V307.8H378V222.7Z" transform="translate(-179.88 -109.68)" fill="#ffcfa0"/>
            <path id="Trazado_1044087" data-name="Trazado 1044087" d="M226.162,222.622c-12.957,9.253-14.7,24.675-14.07,40.829h37.758l16.506,22.942,16.506-22.942h39.646a48.276,48.276,0,0,0-3.056-5.662c-22.942-30.576-62.7-58.109-93.276-35.167Z" transform="translate(-166.771 -67.026)" fill="#ffcfa0"/>
            <g id="Grupo_1203510" data-name="Grupo 1203510" transform="translate(32.984 25.365)">
              <path id="Trazado_1050450" data-name="Trazado 1050450" d="M18.865.77c9.79,0,16.94-7.315,16.94-20.02s-7.15-20.02-16.94-20.02c-9.845,0-17,7.315-17,20.02S9.02.77,18.865.77Zm0-8.91c-3.52,0-6.05-3.025-6.05-11.11s2.53-11.11,6.05-11.11c3.465,0,5.995,3.025,5.995,11.11S22.33-8.14,18.865-8.14Zm18.7-30.36v8.415h7.15V0h10.89V-38.5Z" transform="translate(0 53)" fill="#4c4d56"/>
              <path id="Trazado_1050449" data-name="Trazado 1050449" d="M10.477,18.552a8.311,8.311,0,0,1-3.6.668,6.074,6.074,0,0,1-4.562-1.705A6.233,6.233,0,0,1,.65,12.971a6.659,6.659,0,0,1,1.868-4.9A6.533,6.533,0,0,1,7.365,6.186a9.065,9.065,0,0,1,3.111.466V9.385a5.513,5.513,0,0,0-2.883-.756A3.824,3.824,0,0,0,4.729,9.745a4.142,4.142,0,0,0-1.09,3.023,4.062,4.062,0,0,0,1.028,2.914,3.633,3.633,0,0,0,2.769,1.085,5.905,5.905,0,0,0,3.041-.809Zm6.214.668a4.838,4.838,0,0,1-3.538-1.261,4.573,4.573,0,0,1-1.288-3.423A4.573,4.573,0,0,1,13.2,11.042,5.048,5.048,0,0,1,16.813,9.78a4.78,4.78,0,0,1,3.516,1.261A4.483,4.483,0,0,1,21.6,14.377a4.759,4.759,0,0,1-1.314,3.542A4.892,4.892,0,0,1,16.69,19.22Zm.07-7.312a1.852,1.852,0,0,0-1.529.677,2.984,2.984,0,0,0-.545,1.916q0,2.593,2.092,2.593,2,0,2-2.663Q18.773,11.907,16.761,11.907ZM32.1,19H29.329V14q0-2.092-1.494-2.092a1.483,1.483,0,0,0-1.187.554,2.109,2.109,0,0,0-.466,1.406V19H23.405V10h2.777v1.424h.035A3.183,3.183,0,0,1,29.109,9.78q2.988,0,2.988,3.709Zm7.638-.105a4.105,4.105,0,0,1-1.854.325q-2.936,0-2.936-3.05V12.048H33.486V10h1.459V8.058l2.769-.791V10h2.021v2.048H37.714v3.639q0,1.406,1.116,1.406a1.882,1.882,0,0,0,.905-.255Zm9.58-3.6H43.444q.141,1.96,2.47,1.96a4.822,4.822,0,0,0,2.61-.7v2a6.858,6.858,0,0,1-3.243.668A4.565,4.565,0,0,1,41.9,18.011a4.566,4.566,0,0,1-1.2-3.371,4.816,4.816,0,0,1,1.3-3.551,4.334,4.334,0,0,1,3.2-1.31,3.933,3.933,0,0,1,3.045,1.169,4.5,4.5,0,0,1,1.077,3.173ZM46.74,13.586q0-1.934-1.564-1.934a1.494,1.494,0,0,0-1.156.554,2.513,2.513,0,0,0-.593,1.38ZM59.66,10l-2.971,4.359L59.643,19h-3.2l-1.3-2.426q-.158-.29-.378-.817h-.035a5.707,5.707,0,0,1-.36.791L53.06,19h-3.19l3.041-4.482L50.054,10h3.217l1.283,2.522a5.532,5.532,0,0,1,.36.844h.035a5.946,5.946,0,0,1,.378-.861l1.31-2.5Zm6.688,8.895a4.105,4.105,0,0,1-1.854.325q-2.936,0-2.936-3.05V12.048H60.1V10h1.459V8.058l2.769-.791V10h2.021v2.048H64.327v3.639q0,1.406,1.116,1.406a1.882,1.882,0,0,0,.905-.255ZM76.465,19H73.7V17.629h-.044A3.141,3.141,0,0,1,70.9,19.22q-3.129,0-3.129-3.788V10h2.769v5.186q0,1.907,1.512,1.907a1.5,1.5,0,0,0,1.2-.523A2.109,2.109,0,0,0,73.7,15.15V10h2.769Zm9.826,0H83.663V17.708h-.035a2.933,2.933,0,0,1-2.681,1.512,2.8,2.8,0,0,1-2.061-.743,2.661,2.661,0,0,1-.751-1.982q0-2.619,3.1-3.023l2.443-.325q0-1.477-1.6-1.477a5.46,5.46,0,0,0-3.059.958V10.536a6.881,6.881,0,0,1,1.586-.527,8.339,8.339,0,0,1,1.833-.229q3.85,0,3.85,3.841Zm-2.61-3.656v-.606l-1.635.211q-1.354.176-1.354,1.222a1.01,1.01,0,0,0,.33.778,1.266,1.266,0,0,0,.892.3,1.644,1.644,0,0,0,1.274-.541A1.952,1.952,0,0,0,83.681,15.344ZM91.266,19H88.488V5.676h2.777ZM95.01,8.576a1.622,1.622,0,0,1-1.151-.417,1.345,1.345,0,0,1-.448-1.024,1.3,1.3,0,0,1,.448-1.02,1.88,1.88,0,0,1,2.307,0,1.3,1.3,0,0,1,.444,1.02,1.34,1.34,0,0,1-.444,1.037A1.65,1.65,0,0,1,95.01,8.576ZM96.381,19H93.6V10h2.777Zm9.466,0H97.77V17.849l4.518-5.8H98.218V10h7.594v1.371l-4.28,5.581h4.315Zm8.982,0H112.2V17.708h-.035a2.933,2.933,0,0,1-2.681,1.512,2.8,2.8,0,0,1-2.061-.743,2.661,2.661,0,0,1-.751-1.982q0-2.619,3.1-3.023l2.443-.325q0-1.477-1.6-1.477a5.46,5.46,0,0,0-3.059.958V10.536a6.881,6.881,0,0,1,1.586-.527,8.339,8.339,0,0,1,1.833-.229q3.85,0,3.85,3.841Zm-2.61-3.656v-.606l-1.635.211q-1.354.176-1.354,1.222a1.01,1.01,0,0,0,.33.778,1.266,1.266,0,0,0,.892.3,1.644,1.644,0,0,0,1.274-.541A1.952,1.952,0,0,0,112.219,15.344Zm11.628,3.331a5.492,5.492,0,0,1-2.716.545,4.593,4.593,0,0,1-3.357-1.257,4.341,4.341,0,0,1-1.283-3.243,4.782,4.782,0,0,1,1.375-3.617,5.083,5.083,0,0,1,3.678-1.323,4.72,4.72,0,0,1,2.3.422v2.355a3.166,3.166,0,0,0-1.942-.65,2.559,2.559,0,0,0-1.894.7,2.607,2.607,0,0,0-.7,1.929,2.565,2.565,0,0,0,.668,1.876,2.455,2.455,0,0,0,1.837.681,3.666,3.666,0,0,0,2.03-.65Zm3.226-10.1a1.622,1.622,0,0,1-1.151-.417,1.345,1.345,0,0,1-.448-1.024,1.3,1.3,0,0,1,.448-1.02,1.88,1.88,0,0,1,2.307,0,1.3,1.3,0,0,1,.444,1.02,1.34,1.34,0,0,1-.444,1.037A1.65,1.65,0,0,1,127.072,8.576ZM128.443,19h-2.777V10h2.777Zm6.627.22a4.838,4.838,0,0,1-3.538-1.261,4.573,4.573,0,0,1-1.288-3.423,4.573,4.573,0,0,1,1.336-3.494,5.048,5.048,0,0,1,3.612-1.261,4.78,4.78,0,0,1,3.516,1.261,4.483,4.483,0,0,1,1.274,3.335,4.759,4.759,0,0,1-1.314,3.542A4.892,4.892,0,0,1,135.07,19.22Zm.07-7.312a1.852,1.852,0,0,0-1.529.677,2.984,2.984,0,0,0-.545,1.916q0,2.593,2.092,2.593,2,0,2-2.663Q137.153,11.907,135.141,11.907Zm2.979-6.17-2.751,2.839h-2l2.285-2.839ZM150.469,19H147.7V14q0-2.092-1.494-2.092a1.483,1.483,0,0,0-1.187.554,2.109,2.109,0,0,0-.466,1.406V19h-2.777V10h2.777v1.424h.035A3.183,3.183,0,0,1,147.48,9.78q2.988,0,2.988,3.709ZM9.976,41H7.2V39.761H7.163A3.114,3.114,0,0,1,4.377,41.22a3.412,3.412,0,0,1-2.716-1.191A4.93,4.93,0,0,1,.633,36.7a5.366,5.366,0,0,1,1.134-3.577A3.7,3.7,0,0,1,4.737,31.78a2.527,2.527,0,0,1,2.426,1.248H7.2V27.676H9.976ZM7.251,36.623v-.677a2.13,2.13,0,0,0-.51-1.459,1.683,1.683,0,0,0-1.327-.58,1.673,1.673,0,0,0-1.441.725,3.367,3.367,0,0,0-.519,1.991,2.914,2.914,0,0,0,.5,1.828,1.663,1.663,0,0,0,1.389.642,1.67,1.67,0,0,0,1.375-.677A2.821,2.821,0,0,0,7.251,36.623Zm6.469-6.047a1.622,1.622,0,0,1-1.151-.417,1.345,1.345,0,0,1-.448-1.024,1.3,1.3,0,0,1,.448-1.02,1.676,1.676,0,0,1,1.151-.4,1.672,1.672,0,0,1,1.156.4,1.3,1.3,0,0,1,.444,1.02,1.34,1.34,0,0,1-.444,1.037A1.65,1.65,0,0,1,13.72,30.576ZM15.091,41H12.313V32h2.777Zm1.749-.237v-2.25a5.913,5.913,0,0,0,1.367.615,4.531,4.531,0,0,0,1.288.2,2.762,2.762,0,0,0,1.165-.2.653.653,0,0,0,.426-.615.569.569,0,0,0-.193-.439,1.8,1.8,0,0,0-.5-.308,5.635,5.635,0,0,0-.664-.237q-.36-.105-.694-.237a6.653,6.653,0,0,1-.945-.435,2.731,2.731,0,0,1-.686-.541,2.125,2.125,0,0,1-.422-.712,2.841,2.841,0,0,1-.145-.958,2.466,2.466,0,0,1,.33-1.3,2.692,2.692,0,0,1,.879-.892,4.016,4.016,0,0,1,1.257-.51,6.553,6.553,0,0,1,1.472-.163,8.168,8.168,0,0,1,1.213.092,9.053,9.053,0,0,1,1.213.268v2.145a4.383,4.383,0,0,0-1.129-.461,4.764,4.764,0,0,0-1.182-.154,2.619,2.619,0,0,0-.514.048,1.693,1.693,0,0,0-.426.141.783.783,0,0,0-.29.237.546.546,0,0,0-.105.33.609.609,0,0,0,.158.422,1.374,1.374,0,0,0,.413.3,4.078,4.078,0,0,0,.567.229q.312.1.62.207a8.056,8.056,0,0,1,1,.422,3.2,3.2,0,0,1,.769.536,2.105,2.105,0,0,1,.492.721,2.884,2.884,0,0,1-.176,2.351,2.78,2.78,0,0,1-.923.923,4.185,4.185,0,0,1-1.327.519,7.357,7.357,0,0,1-1.56.163A8.042,8.042,0,0,1,16.84,40.763Zm15.328-.088a5.492,5.492,0,0,1-2.716.545,4.593,4.593,0,0,1-3.357-1.257,4.341,4.341,0,0,1-1.283-3.243A4.782,4.782,0,0,1,26.187,33.1a5.083,5.083,0,0,1,3.678-1.323,4.72,4.72,0,0,1,2.3.422v2.355a3.166,3.166,0,0,0-1.942-.65,2.559,2.559,0,0,0-1.894.7,2.607,2.607,0,0,0-.7,1.929,2.565,2.565,0,0,0,.668,1.876,2.455,2.455,0,0,0,1.837.681,3.666,3.666,0,0,0,2.03-.65Zm3.226-10.1a1.622,1.622,0,0,1-1.151-.417,1.345,1.345,0,0,1-.448-1.024,1.3,1.3,0,0,1,.448-1.02,1.88,1.88,0,0,1,2.307,0,1.3,1.3,0,0,1,.444,1.02,1.34,1.34,0,0,1-.444,1.037A1.65,1.65,0,0,1,35.394,30.576ZM36.765,41H33.987V32h2.777Zm5.15-1.046H41.88V45.14H39.1V32H41.88v1.354h.035a3.534,3.534,0,0,1,5.594-.374,5.108,5.108,0,0,1,.954,3.265,5.537,5.537,0,0,1-1.112,3.612,3.625,3.625,0,0,1-2.958,1.362A2.8,2.8,0,0,1,41.915,39.954Zm-.079-3.691v.721a2.291,2.291,0,0,0,.492,1.521,1.6,1.6,0,0,0,1.292.589,1.7,1.7,0,0,0,1.472-.734,3.543,3.543,0,0,0,.523-2.079q0-2.373-1.846-2.373a1.733,1.733,0,0,0-1.393.646A2.576,2.576,0,0,0,41.836,36.263ZM53.042,41H50.265V27.676h2.777Zm3.744-10.424a1.622,1.622,0,0,1-1.151-.417,1.345,1.345,0,0,1-.448-1.024,1.3,1.3,0,0,1,.448-1.02,1.88,1.88,0,0,1,2.307,0,1.3,1.3,0,0,1,.444,1.02,1.34,1.34,0,0,1-.444,1.037A1.65,1.65,0,0,1,56.786,30.576ZM58.157,41H55.38V32h2.777Zm11.03,0H66.419V36q0-2.092-1.494-2.092a1.483,1.483,0,0,0-1.187.554,2.109,2.109,0,0,0-.466,1.406V41H60.5V32h2.777v1.424h.035A3.183,3.183,0,0,1,66.2,31.78q2.988,0,2.988,3.709Zm9.686,0H76.245V39.708H76.21a2.933,2.933,0,0,1-2.681,1.512,2.8,2.8,0,0,1-2.061-.743,2.661,2.661,0,0,1-.751-1.982q0-2.619,3.1-3.023l2.443-.325q0-1.477-1.6-1.477a5.46,5.46,0,0,0-3.059.958V32.536a6.881,6.881,0,0,1,1.586-.527,8.339,8.339,0,0,1,1.833-.229q3.85,0,3.85,3.841Zm-2.61-3.656v-.606l-1.635.211q-1.354.176-1.354,1.222a1.01,1.01,0,0,0,.33.778,1.266,1.266,0,0,0,.892.3,1.644,1.644,0,0,0,1.274-.541A1.952,1.952,0,0,0,76.263,37.344ZM86.941,34.5a2.409,2.409,0,0,0-1.169-.272,1.684,1.684,0,0,0-1.415.664,2.9,2.9,0,0,0-.51,1.806V41H81.07V32h2.777v1.67h.035a2.4,2.4,0,0,1,2.373-1.828,1.788,1.788,0,0,1,.686.105Z" transform="translate(0.099 70.081)" fill="#212429"/>
            </g>
            <g id="Grupo_1203514" data-name="Grupo 1203514" transform="translate(221.057 25.365)">
              <path id="Trazado_1050451" data-name="Trazado 1050451" d="M18.865.77c9.79,0,16.94-7.315,16.94-20.02s-7.15-20.02-16.94-20.02c-9.845,0-17,7.315-17,20.02S9.02.77,18.865.77Zm0-8.91c-3.52,0-6.05-3.025-6.05-11.11s2.53-11.11,6.05-11.11c3.465,0,5.995,3.025,5.995,11.11S22.33-8.14,18.865-8.14ZM54.01-8.635l7.26-6.71c5.5-5.06,6.545-8.47,6.545-12.21,0-7.15-6.105-11.715-14.96-11.715-7.59,0-13.035,3.19-15.95,8.03l8.085,4.51a7.869,7.869,0,0,1,6.875-3.74c3.3,0,4.95,1.485,4.95,3.96,0,1.6-.44,3.355-3.52,6.215L38.885-6.82V0H68.86V-8.635Z" transform="translate(0 53)" fill="#fff"/>
              <path id="Trazado_1050452" data-name="Trazado 1050452" d="M12.524,19H9.431l-.9-2.8H4.052L3.164,19H.088L4.676,6.4H8.042ZM7.884,14.017,6.53,9.78a5.52,5.52,0,0,1-.211-1.134h-.07a4.807,4.807,0,0,1-.22,1.1L4.658,14.017ZM22.416,19H19.638V17.761H19.6a3.114,3.114,0,0,1-2.786,1.459A3.412,3.412,0,0,1,14.1,18.029,4.93,4.93,0,0,1,13.073,14.7a5.366,5.366,0,0,1,1.134-3.577A3.7,3.7,0,0,1,17.178,9.78,2.527,2.527,0,0,1,19.6,11.028h.035V5.676h2.777Zm-2.725-4.377v-.677a2.13,2.13,0,0,0-.51-1.459,1.8,1.8,0,0,0-2.769.145,3.367,3.367,0,0,0-.519,1.991,2.914,2.914,0,0,0,.5,1.828,1.779,1.779,0,0,0,2.764-.035A2.821,2.821,0,0,0,19.691,14.623Zm12.932.668H26.753q.141,1.96,2.47,1.96a4.822,4.822,0,0,0,2.61-.7v2a6.858,6.858,0,0,1-3.243.668,4.565,4.565,0,0,1-3.384-1.208A4.566,4.566,0,0,1,24,14.641a4.816,4.816,0,0,1,1.3-3.551,4.334,4.334,0,0,1,3.2-1.31,3.933,3.933,0,0,1,3.045,1.169,4.5,4.5,0,0,1,1.077,3.173Zm-2.575-1.705q0-1.934-1.564-1.934a1.494,1.494,0,0,0-1.156.554,2.513,2.513,0,0,0-.593,1.38ZM40.88,18.675a5.492,5.492,0,0,1-2.716.545,4.593,4.593,0,0,1-3.357-1.257,4.341,4.341,0,0,1-1.283-3.243A4.782,4.782,0,0,1,34.9,11.1,5.083,5.083,0,0,1,38.578,9.78a4.72,4.72,0,0,1,2.3.422v2.355a3.166,3.166,0,0,0-1.942-.65,2.559,2.559,0,0,0-1.894.7,2.607,2.607,0,0,0-.7,1.929,2.565,2.565,0,0,0,.668,1.876,2.455,2.455,0,0,0,1.837.681,3.666,3.666,0,0,0,2.03-.65ZM51.035,19H48.267V17.629h-.044a3.141,3.141,0,0,1-2.751,1.591q-3.129,0-3.129-3.788V10h2.769v5.186q0,1.907,1.512,1.907a1.5,1.5,0,0,0,1.2-.523,2.109,2.109,0,0,0,.448-1.419V10h2.769Zm9.61,0H58.018V17.708h-.035A2.933,2.933,0,0,1,55.3,19.22a2.8,2.8,0,0,1-2.061-.743,2.661,2.661,0,0,1-.751-1.982q0-2.619,3.1-3.023l2.443-.325q0-1.477-1.6-1.477a5.46,5.46,0,0,0-3.059.958V10.536a6.881,6.881,0,0,1,1.586-.527A8.339,8.339,0,0,1,56.8,9.78q3.85,0,3.85,3.841Zm-2.61-3.656v-.606l-1.635.211q-1.354.176-1.354,1.222a1.01,1.01,0,0,0,.33.778,1.266,1.266,0,0,0,.892.3,1.644,1.644,0,0,0,1.274-.541A1.952,1.952,0,0,0,58.035,15.344Zm11.412,3.331a5.492,5.492,0,0,1-2.716.545,4.593,4.593,0,0,1-3.357-1.257,4.341,4.341,0,0,1-1.283-3.243A4.782,4.782,0,0,1,63.466,11.1,5.083,5.083,0,0,1,67.144,9.78a4.72,4.72,0,0,1,2.3.422v2.355a3.166,3.166,0,0,0-1.942-.65,2.559,2.559,0,0,0-1.894.7,2.607,2.607,0,0,0-.7,1.929,2.565,2.565,0,0,0,.668,1.876,2.455,2.455,0,0,0,1.837.681,3.666,3.666,0,0,0,2.03-.65Zm3.01-10.1a1.622,1.622,0,0,1-1.151-.417,1.345,1.345,0,0,1-.448-1.024,1.3,1.3,0,0,1,.448-1.02,1.88,1.88,0,0,1,2.307,0,1.3,1.3,0,0,1,.444,1.02,1.34,1.34,0,0,1-.444,1.037A1.65,1.65,0,0,1,72.457,8.576ZM73.828,19H71.051V10h2.777Zm6.411.22A4.838,4.838,0,0,1,76.7,17.958a4.573,4.573,0,0,1-1.288-3.423,4.573,4.573,0,0,1,1.336-3.494A5.048,5.048,0,0,1,80.362,9.78a4.78,4.78,0,0,1,3.516,1.261,4.483,4.483,0,0,1,1.274,3.335,4.759,4.759,0,0,1-1.314,3.542A4.892,4.892,0,0,1,80.239,19.22Zm.07-7.312a1.852,1.852,0,0,0-1.529.677,2.984,2.984,0,0,0-.545,1.916q0,2.593,2.092,2.593,2,0,2-2.663Q82.322,11.907,80.309,11.907Zm2.979-6.17L80.538,8.576h-2l2.285-2.839ZM95.421,19H92.653V14q0-2.092-1.494-2.092a1.483,1.483,0,0,0-1.187.554,2.109,2.109,0,0,0-.466,1.406V19H86.729V10h2.777v1.424h.035A3.183,3.183,0,0,1,92.433,9.78q2.988,0,2.988,3.709Zm14.219,0h-2.628V17.708h-.035A2.933,2.933,0,0,1,104.3,19.22a2.8,2.8,0,0,1-2.061-.743,2.661,2.661,0,0,1-.751-1.982q0-2.619,3.1-3.023l2.443-.325q0-1.477-1.6-1.477a5.46,5.46,0,0,0-3.059.958V10.536a6.881,6.881,0,0,1,1.586-.527,8.339,8.339,0,0,1,1.833-.229q3.85,0,3.85,3.841Zm-2.61-3.656v-.606l-1.635.211q-1.354.176-1.354,1.222a1.01,1.01,0,0,0,.33.778,1.266,1.266,0,0,0,.892.3,1.644,1.644,0,0,0,1.274-.541A1.952,1.952,0,0,0,107.03,15.344ZM114.4,19h-2.777V5.676H114.4ZM9.861,41H7.093V36q0-2.092-1.494-2.092a1.483,1.483,0,0,0-1.187.554,2.109,2.109,0,0,0-.466,1.406V41H1.169V32H3.946v1.424h.035A3.183,3.183,0,0,1,6.873,31.78q2.988,0,2.988,3.709Zm3.388-10.424a1.622,1.622,0,0,1-1.151-.417,1.345,1.345,0,0,1-.448-1.024,1.3,1.3,0,0,1,.448-1.02,1.676,1.676,0,0,1,1.151-.4,1.672,1.672,0,0,1,1.156.4,1.3,1.3,0,0,1,.444,1.02,1.34,1.34,0,0,1-.444,1.037A1.65,1.65,0,0,1,13.249,30.576ZM14.62,41H11.843V32H14.62Zm10.691-9-3.349,9H18.8l-3.19-9h2.971l1.564,5.546a8.1,8.1,0,0,1,.308,1.6h.035a9.078,9.078,0,0,1,.325-1.547l1.6-5.6Zm8.881,5.291H28.321q.141,1.96,2.47,1.96a4.822,4.822,0,0,0,2.61-.7v2a6.858,6.858,0,0,1-3.243.668,4.189,4.189,0,0,1-4.588-4.579,4.816,4.816,0,0,1,1.3-3.551,4.334,4.334,0,0,1,3.2-1.31,3.933,3.933,0,0,1,3.045,1.169,4.5,4.5,0,0,1,1.077,3.173Zm-2.575-1.705q0-1.934-1.564-1.934a1.494,1.494,0,0,0-1.156.554,2.513,2.513,0,0,0-.593,1.38ZM38.406,41H35.628V27.676h2.777Zm14.958-3.709H47.492q.141,1.96,2.47,1.96a4.822,4.822,0,0,0,2.61-.7v2a6.858,6.858,0,0,1-3.243.668,4.189,4.189,0,0,1-4.588-4.579,4.816,4.816,0,0,1,1.3-3.551,4.334,4.334,0,0,1,3.2-1.31,3.933,3.933,0,0,1,3.045,1.169,4.5,4.5,0,0,1,1.077,3.173Zm-2.575-1.705q0-1.934-1.564-1.934a1.494,1.494,0,0,0-1.156.554,2.513,2.513,0,0,0-.593,1.38ZM63.606,41H60.829V39.761h-.035a3.114,3.114,0,0,1-2.786,1.459,3.412,3.412,0,0,1-2.716-1.191A4.93,4.93,0,0,1,54.263,36.7,5.366,5.366,0,0,1,55.4,33.125a3.7,3.7,0,0,1,2.971-1.345,2.527,2.527,0,0,1,2.426,1.248h.035V27.676h2.777Zm-2.725-4.377v-.677a2.13,2.13,0,0,0-.51-1.459,1.8,1.8,0,0,0-2.769.145,3.367,3.367,0,0,0-.519,1.991,2.914,2.914,0,0,0,.5,1.828,1.779,1.779,0,0,0,2.764-.035A2.821,2.821,0,0,0,60.882,36.623ZM74.28,41H71.511V39.629h-.044a3.141,3.141,0,0,1-2.751,1.591q-3.129,0-3.129-3.788V32h2.769v5.186q0,1.907,1.512,1.907a1.5,1.5,0,0,0,1.2-.523,2.109,2.109,0,0,0,.448-1.419V32H74.28Zm8.942-.325a5.492,5.492,0,0,1-2.716.545,4.593,4.593,0,0,1-3.357-1.257,4.341,4.341,0,0,1-1.283-3.243A4.782,4.782,0,0,1,77.241,33.1a5.083,5.083,0,0,1,3.678-1.323,4.72,4.72,0,0,1,2.3.422v2.355a3.166,3.166,0,0,0-1.942-.65,2.559,2.559,0,0,0-1.894.7,2.607,2.607,0,0,0-.7,1.929,2.565,2.565,0,0,0,.668,1.876,2.455,2.455,0,0,0,1.837.681,3.666,3.666,0,0,0,2.03-.65ZM92.314,41H89.686V39.708h-.035A2.933,2.933,0,0,1,86.97,41.22a2.8,2.8,0,0,1-2.061-.743,2.661,2.661,0,0,1-.751-1.982q0-2.619,3.1-3.023l2.443-.325q0-1.477-1.6-1.477a5.46,5.46,0,0,0-3.059.958V32.536a6.881,6.881,0,0,1,1.586-.527,8.339,8.339,0,0,1,1.833-.229q3.85,0,3.85,3.841ZM89.7,37.344v-.606l-1.635.211q-1.354.176-1.354,1.222a1.01,1.01,0,0,0,.33.778,1.266,1.266,0,0,0,.892.3,1.644,1.644,0,0,0,1.274-.541A1.952,1.952,0,0,0,89.7,37.344Zm10.032,3.551a4.105,4.105,0,0,1-1.854.325q-2.936,0-2.936-3.05V34.048H93.486V32h1.459V30.058l2.769-.791V32h2.021v2.048H97.714v3.639q0,1.406,1.116,1.406a1.882,1.882,0,0,0,.905-.255Zm2.755-10.318a1.622,1.622,0,0,1-1.151-.417,1.345,1.345,0,0,1-.448-1.024,1.3,1.3,0,0,1,.448-1.02,1.88,1.88,0,0,1,2.307,0,1.3,1.3,0,0,1,.444,1.02,1.34,1.34,0,0,1-.444,1.037A1.65,1.65,0,0,1,102.49,30.576ZM103.861,41h-2.777V32h2.777Zm10.691-9L111.2,41H108.04l-3.19-9h2.971l1.564,5.546a8.1,8.1,0,0,1,.308,1.6h.035a9.078,9.078,0,0,1,.325-1.547l1.6-5.6Zm5.084,9.22a4.838,4.838,0,0,1-3.538-1.261,4.573,4.573,0,0,1-1.288-3.423,4.573,4.573,0,0,1,1.336-3.494,5.048,5.048,0,0,1,3.612-1.261,4.78,4.78,0,0,1,3.516,1.261,4.483,4.483,0,0,1,1.274,3.335,4.759,4.759,0,0,1-1.314,3.542A4.892,4.892,0,0,1,119.636,41.22Zm.07-7.312a1.852,1.852,0,0,0-1.529.677,2.984,2.984,0,0,0-.545,1.916q0,2.593,2.092,2.593,2,0,2-2.663Q121.719,33.907,119.706,33.907Z" transform="translate(0.099 70.081)" fill="#fff"/>
              <g id="disagree_9471163" transform="translate(66.016 4.203)">
                <path id="Trazado_1044153" data-name="Trazado 1044153" d="M189.8,343.291a1.706,1.706,0,0,1-3.412-.01v-.758" transform="translate(-131.507 -306.028)" fill="none" stroke="#0b0a0a" stroke-linecap="round" stroke-linejoin="round" stroke-miterlimit="22.926" stroke-width="1.2" fill-rule="evenodd"/>
                <path id="Trazado_1044154" data-name="Trazado 1044154" d="M104.146,271.225a1.706,1.706,0,0,1,3.412,0v3.413a1.706,1.706,0,0,1-3.413,0v-4.171a1.706,1.706,0,0,0-3.413,0v.758" transform="translate(-52.673 -238.145)" fill="none" stroke="#0b0a0a" stroke-linecap="round" stroke-linejoin="round" stroke-miterlimit="22.926" stroke-width="1.2" fill-rule="evenodd"/>
                <path id="Trazado_1044155" data-name="Trazado 1044155" d="M54.885,289.5h0a1.706,1.706,0,0,1,3.413,0v5.185a7.421,7.421,0,0,1-4.18,6.657m-6.437,0a7.421,7.421,0,0,1-4.18-6.657v-1.425a1.944,1.944,0,0,1,1.955-1.921h4.312a1.706,1.706,0,0,1,0,3.413H47.606a3.261,3.261,0,0,1,3.261,3.261" transform="translate(0 -255.664)" fill="none" stroke="#0b0a0a" stroke-linecap="round" stroke-linejoin="round" stroke-miterlimit="22.926" stroke-width="1.2" fill-rule="evenodd"/>
                <path id="Trazado_1044156" data-name="Trazado 1044156" d="M57.906,282.636v-2.648a1.711,1.711,0,0,1,1.706-1.706h0a1.711,1.711,0,0,1,1.706,1.706v2.506" transform="translate(-13.258 -246.905)" fill="none" stroke="#0b0a0a" stroke-linecap="round" stroke-linejoin="round" stroke-miterlimit="22.926" stroke-width="1.2" fill-rule="evenodd"/>
                <path id="Trazado_1044157" data-name="Trazado 1044157" d="M87.147,449.665v4.17m-9.329,0v-4.17" transform="translate(-31.584 -404.633)" fill="none" stroke="#0b0a0a" stroke-linecap="round" stroke-linejoin="round" stroke-miterlimit="22.926" stroke-width="1.2" fill-rule="evenodd"/>
                <path id="Trazado_1044158" data-name="Trazado 1044158" d="M429.083,230.621a1.706,1.706,0,0,1-3.413-.01v-.758" transform="translate(-351.719 -202.336)" fill="none" stroke="#0b0a0a" stroke-linecap="round" stroke-linejoin="round" stroke-miterlimit="22.926" stroke-width="1.2" fill-rule="evenodd"/>
                <path id="Trazado_1044159" data-name="Trazado 1044159" d="M343.425,158.554a1.706,1.706,0,0,1,3.412,0v3.412a1.706,1.706,0,1,1-3.412,0V157.8a1.706,1.706,0,0,0-3.413,0v.758" transform="translate(-272.886 -134.452)" fill="none" stroke="#0b0a0a" stroke-linecap="round" stroke-linejoin="round" stroke-miterlimit="22.926" stroke-width="1.2" fill-rule="evenodd"/>
                <path id="Trazado_1044160" data-name="Trazado 1044160" d="M294.164,176.833h0a1.706,1.706,0,0,1,3.412,0v5.185a7.421,7.421,0,0,1-4.18,6.657m-6.437,0a7.421,7.421,0,0,1-4.18-6.657v-1.425a1.944,1.944,0,0,1,1.955-1.921h4.312a1.706,1.706,0,1,1,0,3.413h-2.161a3.261,3.261,0,0,1,3.261,3.261" transform="translate(-220.214 -151.97)" fill="none" stroke="#0b0a0a" stroke-linecap="round" stroke-linejoin="round" stroke-miterlimit="22.926" stroke-width="1.2" fill-rule="evenodd"/>
                <path id="Trazado_1044161" data-name="Trazado 1044161" d="M297.185,169.965v-2.648a1.711,1.711,0,0,1,1.706-1.706h0a1.711,1.711,0,0,1,1.706,1.706v2.506" transform="translate(-233.472 -143.211)" fill="none" stroke="#0b0a0a" stroke-linecap="round" stroke-linejoin="round" stroke-miterlimit="22.926" stroke-width="1.2" fill-rule="evenodd"/>
                <path id="Trazado_1044162" data-name="Trazado 1044162" d="M326.426,336.994v8.765m-9.329,0v-8.765" transform="translate(-251.797 -300.94)" fill="none" stroke="#0b0a0a" stroke-linecap="round" stroke-linejoin="round" stroke-miterlimit="22.926" stroke-width="1.2" fill-rule="evenodd"/>
                <circle id="Elipse_12615" data-name="Elipse 12615" cx="8.446" cy="8.446" r="8.446" transform="translate(43.5 10)" fill="none" stroke="#0b0a0a" stroke-linecap="round" stroke-linejoin="round" stroke-miterlimit="22.926" stroke-width="1.2"/>
                <line id="Línea_1185" data-name="Línea 1185" x1="5.901" y2="5.901" transform="translate(48.995 15.495)" fill="none" stroke="#0b0a0a" stroke-linecap="round" stroke-linejoin="round" stroke-miterlimit="22.926" stroke-width="1.2"/>
                <path id="Trazado_1044163" data-name="Trazado 1044163" d="M312.591,455.984V452H300.639v3.984" transform="translate(-236.651 -406.782)" fill="none" stroke="#0b0a0a" stroke-linecap="round" stroke-linejoin="round" stroke-miterlimit="22.926" stroke-width="1.2" fill-rule="evenodd"/>
                <line id="Línea_1186" data-name="Línea 1186" x2="5.901" y2="5.901" transform="translate(48.995 15.495)" fill="none" stroke="#0b0a0a" stroke-linecap="round" stroke-linejoin="round" stroke-miterlimit="22.926" stroke-width="1.2"/>
              </g>
            </g>
          </g>
          <g id="Grupo_1203513" data-name="Grupo 1203513">
            <path id="Trazado_1044088" data-name="Trazado 1044088" d="M195.023,307.8l9.69-198.115H149.66Z" transform="translate(3.106 -109.68)" fill="#2f4f7e" opacity="0.1"/>
            <path id="Trazado_1044089" data-name="Trazado 1044089" d="M262.261,206.181l-22.942-16.506v-80H41.19V307.8H239.319V222.7Z" transform="translate(-41.19 -109.68)" fill="#2f4f7e"/>
          </g>
          <path id="Trazado_1044090" data-name="Trazado 1044090" d="M159.306,257.3,142.8,234.36,126.294,257.3H41.2V279.54H172.164A82.718,82.718,0,0,0,184.3,257.3H159.32Z" transform="translate(-41.186 -58.765)" fill="#6ebdca"/>
          <g id="chart_4199536" transform="translate(325.266 35.385)">
            <path id="Trazado_1047919" data-name="Trazado 1047919" d="M41.764,35.259H40.318a.723.723,0,0,1-.723-.723V32.179a5.068,5.068,0,0,0,2.169-4.15h.361a2.53,2.53,0,0,0,0-5.061h-.361V20.076a3.625,3.625,0,0,0-2.169-3.311V12.123a.723.723,0,0,0-.723-.723H24.926a11.515,11.515,0,0,0-1.706-4.193l3.087-2.473-.9-1.128L22.345,6.057a11.556,11.556,0,0,0-18.9,13.1V42.488a.723.723,0,0,0,.723.723H28.027v.723a.723.723,0,0,0,.723.723H44.656a.723.723,0,0,0,.723-.723V38.874A3.615,3.615,0,0,0,41.764,35.259Zm0-10.845h.361a1.084,1.084,0,0,1,0,2.169h-.361Zm-1.446,3.615a3.615,3.615,0,1,1-7.23,0V22.968h7.23Zm-5.162,7.136a2.289,2.289,0,0,0,.1-.629V32.88a5.091,5.091,0,0,0,2.892,0v1.656a2.289,2.289,0,0,0,.1.629L36.7,37.023Zm.521,2.885-1.865,1.489V36.574a2.22,2.22,0,0,0,.455-.224Zm3.463-1.7a2.22,2.22,0,0,0,.455.224v2.964L37.73,38.049Zm1.178-16.274v1.446H32.365A2.175,2.175,0,0,1,30.2,19.353V17.907h7.953a2.175,2.175,0,0,1,2.169,2.169ZM25.1,12.846h13.05v3.615H36.7V15.015a.723.723,0,0,0-.723-.723H25.1c.014-.239.036-.477.036-.723S25.114,13.085,25.1,12.846Zm10.158,2.892v.723H29.473a.723.723,0,0,0-.723.723v2.169A3.627,3.627,0,0,0,31.642,22.9v.072h-.361a2.53,2.53,0,1,0,0,5.061h.361a5.068,5.068,0,0,0,2.169,4.15v2.357a.723.723,0,0,1-.723.723h-7.23V22.606a1.807,1.807,0,1,0-3.615,0v1.807A1.45,1.45,0,0,0,20.8,25.86V38.874H7.784v-15.3a11.545,11.545,0,0,0,17.142-7.837Zm-3.615,8.676v2.169h-.361a1.084,1.084,0,0,1,0-2.169Zm-7.23-1.807v5.422H22.243V25.86h.723a.723.723,0,0,0,.723-.723v-2.53a.361.361,0,0,1,.723,0ZM14.291,3.484a10.1,10.1,0,0,1,6.926,3.478L18.759,8.92,17.038,6.629,15.881,7.5l2.169,2.892a.7.7,0,0,0,.484.282.445.445,0,0,0,.094.007.706.706,0,0,0,.448-.159l3.008-2.4a10.016,10.016,0,0,1,1.569,4.728H14.291ZM3.446,13.569a10.133,10.133,0,0,1,9.4-10.086V13.569a.723.723,0,0,0,.723.723H23.653a10.117,10.117,0,0,1-20.207-.723Zm24.581,28.2H4.892V21.2a11.929,11.929,0,0,0,1.446,1.388V39.6a.723.723,0,0,0,.723.723H28.027Zm15.906,1.446H29.473V39.6a.723.723,0,0,0-.723-.723H22.243v-9.4h2.169v6.507a.723.723,0,0,0,.723.723h7.23v4.338a.723.723,0,0,0,.412.651.676.676,0,0,0,.311.072.7.7,0,0,0,.448-.159l3.167-2.53,3.167,2.53a.7.7,0,0,0,.448.159.656.656,0,0,0,.311-.072.723.723,0,0,0,.412-.651V36.7h.723a2.175,2.175,0,0,1,2.169,2.169Z" transform="translate(0 0)"/>
            <path id="Trazado_1047920" data-name="Trazado 1047920" d="M47.723,33a.723.723,0,0,0-.723.723v.723a.723.723,0,1,0,1.446,0v-.723A.723.723,0,0,0,47.723,33Z" transform="translate(-12.466 -8.586)"/>
            <path id="Trazado_1047921" data-name="Trazado 1047921" d="M51.723,33a.723.723,0,0,0-.723.723v.723a.723.723,0,1,0,1.446,0v-.723A.723.723,0,0,0,51.723,33Z" transform="translate(-13.574 -8.586)"/>
            <path id="Trazado_1047922" data-name="Trazado 1047922" d="M12,37h2.169v1.446H12Z" transform="translate(-2.77 -9.694)"/>
            <path id="Trazado_1047923" data-name="Trazado 1047923" d="M17,37h6.507v1.446H17Z" transform="translate(-4.155 -9.694)"/>
            <path id="Trazado_1047924" data-name="Trazado 1047924" d="M12,42H22.122v1.446H12Z" transform="translate(-2.77 -11.079)"/>
            <path id="Trazado_1047925" data-name="Trazado 1047925" d="M12,47H22.122v1.446H12Z" transform="translate(-2.77 -12.464)"/>
          </g>
        </g>
      </g>
      <g id="Grupo_1203536" data-name="Grupo 1203536" transform="translate(510 2483.569)">
        <g id="Grupo_1203519" data-name="Grupo 1203519" transform="translate(0 0.003)">
          <g id="Grupo_1203518" data-name="Grupo 1203518" clip-path="url(#clip-path)">
            <path id="Trazado_1044092" data-name="Trazado 1044092" d="M416.742,913.553s-1.313,52.5-4.242,52.5-2.121-52.5-2.121-52.5Z" transform="translate(-327.605 -729.471)" fill="#b8806a"/>
            <path id="Trazado_1044093" data-name="Trazado 1044093" d="M83.55,480.005l36.309-1.265,3.2-27.15L78.77,450.008,65.147,369.014l-47.25,3.8L34.856,473.1Z" transform="translate(-14.291 -294.658)" fill="#f4e1e1"/>
            <path id="Trazado_1044094" data-name="Trazado 1044094" d="M515.618,984.343l-8.33,30.261-7.17-.949,4.217-30.471Z" transform="translate(-399.344 -785.071)" fill="#f7ac8d"/>
            <path id="Trazado_1044095" data-name="Trazado 1044095" d="M494.467,1127.563l7.335.806s15.862,4.9,16.81,8.059-22.985,2-24.989,0,.843-8.865.843-8.865" transform="translate(-393.588 -900.358)" fill="#113f56"/>
            <path id="Trazado_1044096" data-name="Trazado 1044096" d="M507.974,1128.369s10.538,3.131,8.583,4.607c-5.712,4.314-15.918-5.413-15.918-5.413Z" transform="translate(-399.759 -900.358)" fill="#f7ac8d"/>
            <path id="Trazado_1044097" data-name="Trazado 1044097" d="M666.558,910.065l9.533,30.555-6.973,1.918-13.4-29.148Z" transform="translate(-523.587 -726.686)" fill="#f7ac8d"/>
            <path id="Trazado_1044098" data-name="Trazado 1044098" d="M720.042,1054.208l7.07-2.114s16.516-1.667,18.622.877-20.391,10.8-23.016,9.73-2.675-8.493-2.675-8.493" transform="translate(-574.952 -839.668)" fill="#113f56"/>
            <path id="Trazado_1044099" data-name="Trazado 1044099" d="M727.112,1052.837s10.925-1.219,9.7.9c-3.581,6.2-16.77,1.213-16.77,1.213Z" transform="translate(-574.952 -840.411)" fill="#f7ac8d"/>
            <path id="Trazado_1044100" data-name="Trazado 1044100" d="M159.217,673.822c1.614,27.521,13.687,37.611,41.942,35.19s33.905-2.22,33.905-2.22l-9.082,52.876,13.723,1.413s19.173-52.472,17.558-69.021-52.271-18.237-52.271-18.237Z" transform="translate(-127.134 -538.046)" fill="#161a1e"/>
            <path id="Trazado_1044101" data-name="Trazado 1044101" d="M413.011,737.6l12.109-3.936S409.441,676.94,400.5,668s-57.352,5.088-57.352,5.088l43.83,8.109Z" transform="translate(-274.002 -531.016)" fill="#242a30"/>
            <path id="Trazado_1044102" data-name="Trazado 1044102" d="M164.553,10s-16.706-8.33-27.566,2.53-4.1,17.186-4.1,20.771-8.659,10.848-6.656,14.755,3.058,3.8,3.058,5.911-5.9,3.9-3.8,11.387c0,0,21.3,7.451,37.009,5.729a104.836,104.836,0,0,0,28.046-7.2s3.058-7.17,1.9-10.966-3.163-3.576-3.8-6.217,3.48-6.858,2.425-9.915-6.546-4.3-7.438-7.686,1.841-4.756,0-10.66-4.406-8.33-9.133-9.7S164.553,10,164.553,10" transform="translate(-99.844 -5.545)" fill="#755846"/>
          </g>
        </g>
        <g id="Grupo_1203521" data-name="Grupo 1203521" transform="translate(25.196 1.402)">
          <g id="Grupo_1203520" data-name="Grupo 1203520" clip-path="url(#clip-path-2)">
            <path id="Trazado_1044103" data-name="Trazado 1044103" d="M205.436,182.17c-4.1,8.458-8.6,7.8-9.446,12.276a78.355,78.355,0,0,0-.843,11.448l39.674-.785s1.86-1.962,2.462-9.065-5.584-20.589-5.584-20.589Z" transform="translate(-181.02 -141.5)" fill="#5e4130"/>
          </g>
        </g>
        <g id="Grupo_1203523" data-name="Grupo 1203523" transform="translate(0 0.003)">
          <g id="Grupo_1203522" data-name="Grupo 1203522" clip-path="url(#clip-path)">
            <path id="Trazado_1044105" data-name="Trazado 1044105" d="M175.539,349.251c-10.755-29.1-21.5-48.826-42.52-48.826s-40.613,17.792-42.9,39.02c-2.273,21.123,5.164,37.368,20.349,43.287,3.864,1.506,11.387,3.843,18.811,1.556,22.837.5,31.377-8.543,31.377-8.543s17.627,2.037,22.105-7.643c4.252-9.191-7.226-18.851-7.226-18.851" transform="translate(-71.641 -239.889)" fill="#fac9c8"/>
          </g>
        </g>
        <g id="Grupo_1203525" data-name="Grupo 1203525" transform="translate(18.079 60.539)">
          <g id="Grupo_1203524" data-name="Grupo 1203524" clip-path="url(#clip-path-4)">
            <path id="Trazado_1044106" data-name="Trazado 1044106" d="M247.014,296.937l13.637,9.981,8.013-9.981Z" transform="translate(-215.319 -297.64)" fill="#f7ac8d"/>
          </g>
        </g>
        <g id="Grupo_1203527" data-name="Grupo 1203527" transform="translate(0 0.003)">
          <g id="Grupo_1203526" data-name="Grupo 1203526" clip-path="url(#clip-path)">
            <path id="Trazado_1044108" data-name="Trazado 1044108" d="M345.5,526.638l2.46-2.39,17.995,20.083-1.416,1.416Z" transform="translate(-275.879 -418.611)" fill="#164d6e"/>
            <path id="Trazado_1044109" data-name="Trazado 1044109" d="M283.165,208.907c0,2.067.351,8.857.351,8.857H270.1s.5-10.711,1.521-15.21a11.909,11.909,0,0,0-.738-7.763Z" transform="translate(-215.678 -155.541)" fill="#f7ac8d"/>
          </g>
        </g>
        <g id="Grupo_1203529" data-name="Grupo 1203529" transform="translate(54.426 39.253)">
          <g id="Grupo_1203528" data-name="Grupo 1203528" clip-path="url(#clip-path-6)">
            <path id="Trazado_1044110" data-name="Trazado 1044110" d="M286.59,97.485c1.856,13.615.422,26.43-9.981,29.1s-17.995-9.981-19.823-18.838-4.358-23.618,9.841-25.165,18.7,5.623,19.963,14.9" transform="translate(-258.324 -105.025)" fill="#f58f70"/>
          </g>
        </g>
        <g id="Grupo_1203531" data-name="Grupo 1203531" transform="translate(0 0.003)">
          <g id="Grupo_1203530" data-name="Grupo 1203530" clip-path="url(#clip-path)">
            <path id="Trazado_1044112" data-name="Trazado 1044112" d="M268.137,71.007c3.329,13.9,3.168,27.309-7.322,31.149s-19.655-8.47-22.462-17.447-6.952-23.993,7.583-27.061,19.932,3.887,22.2,13.359" transform="translate(-188.106 -45.447)" fill="#f7ac8d"/>
          </g>
        </g>
        <g id="Grupo_1203533" data-name="Grupo 1203533" transform="translate(47.469 11.471)">
          <g id="Grupo_1203532" data-name="Grupo 1203532" clip-path="url(#clip-path-8)">
            <path id="Trazado_1044113" data-name="Trazado 1044113" d="M304.586,159.669c.454,1.47,1.494,2.454,2.323,2.2s1.132-1.655.678-3.125-1.494-2.454-2.323-2.2-1.132,1.655-.678,3.125" transform="translate(-290.512 -136.436)" fill="#242a30"/>
            <path id="Trazado_1044114" data-name="Trazado 1044114" d="M373.548,149.888c.127,1.533.931,2.718,1.8,2.647s1.462-1.373,1.335-2.906-.931-2.718-1.795-2.647-1.462,1.373-1.335,2.906" transform="translate(-345.733 -128.831)" fill="#242a30"/>
            <path id="Trazado_1044115" data-name="Trazado 1044115" d="M282.07,132.767c1.979-.872,3.3-2.223,2.951-3.016s-2.238-.73-4.217.143-3.3,2.223-2.951,3.016,2.238.73,4.217-.142" transform="translate(-269.289 -114.63)" fill="#5e4130"/>
            <path id="Trazado_1044116" data-name="Trazado 1044116" d="M365.947,122.7c2.116.451,3.977.13,4.158-.719s-1.387-1.9-3.5-2.353-3.977-.13-4.158.719,1.387,1.9,3.5,2.353" transform="translate(-336.869 -106.825)" fill="#5e4130"/>
            <path id="Trazado_1044117" data-name="Trazado 1044117" d="M346.541,155.953a17.31,17.31,0,0,0,1.339,3.416c.562,1.082,1.26,2.069,1.937,3.125a8.068,8.068,0,0,1,.462.846,2.589,2.589,0,0,1,.264,1,1.7,1.7,0,0,1-.074.55,1.728,1.728,0,0,1-.1.256,1.523,1.523,0,0,1-.145.243,1.188,1.188,0,0,1-.452.37,1.675,1.675,0,0,1-.523.144,3.12,3.12,0,0,1-.991-.063,6.467,6.467,0,0,1-.914-.268,9.267,9.267,0,0,1-1.676-.832,15.487,15.487,0,0,0,1.764.543,4.518,4.518,0,0,0,1.744.141.9.9,0,0,0,.6-.354.985.985,0,0,0,.083-.159,1.155,1.155,0,0,0,.06-.178,1.113,1.113,0,0,0,.03-.367,3.746,3.746,0,0,0-.671-1.543c-.319-.516-.666-1.033-.987-1.57a14.827,14.827,0,0,1-.862-1.674,10.7,10.7,0,0,1-.891-3.63" transform="translate(-323.482 -135.997)" fill="#f58f70"/>
            <path id="Trazado_1044118" data-name="Trazado 1044118" d="M279.755,190.145c.1,1.166,1.44,2.006,3,1.877s2.746-1.179,2.65-2.345-1.44-2.006-3-1.877-2.746,1.179-2.65,2.345" transform="translate(-270.848 -161.416)" fill="#fb806d"/>
            <path id="Trazado_1044119" data-name="Trazado 1044119" d="M381.76,179.925c.265,1.139,1.716,1.776,3.241,1.421s2.546-1.566,2.28-2.706-1.716-1.776-3.241-1.421-2.546,1.566-2.28,2.706" transform="translate(-352.27 -152.899)" fill="#fb806d"/>
            <path id="Trazado_1044120" data-name="Trazado 1044120" d="M333.226,227.211a5.932,5.932,0,0,1-1.944.813,8.725,8.725,0,0,1-2.1.231,10.3,10.3,0,0,1-2.1-.23,8.805,8.805,0,0,1-1.993-.656l2.062.167c.68.046,1.355.082,2.03.086a19.974,19.974,0,0,0,2.018-.083,17.521,17.521,0,0,0,2.026-.328" transform="translate(-307.052 -192.896)" fill="#e55a5a"/>
          </g>
        </g>
        <g id="Grupo_1203535" data-name="Grupo 1203535" transform="translate(0 0.003)">
          <g id="Grupo_1203534" data-name="Grupo 1203534" clip-path="url(#clip-path)">
            <path id="Trazado_1044122" data-name="Trazado 1044122" d="M414.979,444.528c-.355-3.595-.8-7.173-1.363-10.732s-1.262-7.093-2.133-10.585c-.213-.874-.449-1.742-.672-2.614s-.5-1.729-.738-2.6-.531-1.719-.8-2.579l-.863-2.558c-.613-1.692-1.237-3.382-1.939-5.041-.664-1.677-1.45-3.3-2.22-4.933a68.983,68.983,0,0,1,4.623,9.8A89.3,89.3,0,0,1,412.1,423.06l.61,2.646.541,2.66.462,2.675c.154.891.263,1.79.392,2.685a105.3,105.3,0,0,1,.876,10.8" transform="translate(-322.797 -321.707)" fill="#f48787"/>
            <path id="Trazado_1044123" data-name="Trazado 1044123" d="M278.7,150.161a7.023,7.023,0,1,1,7.023-7.023,7.03,7.03,0,0,1-7.023,7.023m0-13.412a6.39,6.39,0,1,0,6.39,6.39,6.4,6.4,0,0,0-6.39-6.39" transform="translate(-216.931 -108.689)" fill="#242a30"/>
            <path id="Trazado_1044124" data-name="Trazado 1044124" d="M364.211,138.006a7.022,7.022,0,1,1,7.023-7.022,7.03,7.03,0,0,1-7.023,7.022m0-13.412a6.39,6.39,0,1,0,6.39,6.39,6.4,6.4,0,0,0-6.39-6.39" transform="translate(-285.214 -98.983)" fill="#242a30"/>
            <rect id="Rectángulo_417068" data-name="Rectángulo 417068" width="4.171" height="0.632" transform="translate(68.107 32.033) rotate(-4.788)" fill="#242a30"/>
            <rect id="Rectángulo_417069" data-name="Rectángulo 417069" width="6.571" height="0.633" transform="matrix(0.961, -0.276, 0.276, 0.961, 48.655, 35.955)" fill="#242a30"/>
            <path id="Trazado_1044125" data-name="Trazado 1044125" d="M319.334,589.294c3.58-3.871,11.247-11.739,12.934-13.426s5.834.07,6.678.914,6.115,6.271,6.115,6.271l-4.78,6.241-6.115-1.968a18.728,18.728,0,0,1-2.6,3.841c-1.313,1.313-11.809,3.188-11.809,3.188Z" transform="translate(-254.988 -459.267)" fill="#f7ac8d"/>
            <path id="Trazado_1044126" data-name="Trazado 1044126" d="M411.678,604.728a3.567,3.567,0,0,1,1.516.535,8.7,8.7,0,0,1,1.295.93,11.222,11.222,0,0,1,1.125,1.113,7.943,7.943,0,0,1,.934,1.288,14.8,14.8,0,0,1-1.278-.928q-.61-.487-1.193-.993l-1.167-1a10.069,10.069,0,0,0-1.232-.942" transform="translate(-328.724 -482.875)" fill="#f58f70"/>
            <path id="Trazado_1044127" data-name="Trazado 1044127" d="M404.255,620.262a2.171,2.171,0,0,1,1.306.082A3.811,3.811,0,0,1,406.7,621a4.973,4.973,0,0,1,.886.936,4.065,4.065,0,0,1,.6,1.135c-.689-.523-1.268-1.082-1.89-1.582a9.418,9.418,0,0,0-.949-.7,5.062,5.062,0,0,0-1.092-.529" transform="translate(-322.797 -495.226)" fill="#f58f70"/>
            <path id="Trazado_1044128" data-name="Trazado 1044128" d="M226.714,69.04c6.164-4.055,8.127-20.016,8.127-20.016s-.281,5.834.984,5.834,7.1-5.2,8.154-8.505c0,0-3.374,6.748-1.617,7.24s8.013-2.671,10.052-6.467c0,0-2.249,4.077-1.054,4.639s8.365-1.406,9.208-7.24-16.1-11.106-26.149-5.131-13.8,11.668-12.312,16.729,4.606,12.917,4.606,12.917" transform="translate(-177.102 -29.354)" fill="#755846"/>
            <path id="Trazado_1044129" data-name="Trazado 1044129" d="M230.505,172.5s-4.8-4.6-6.744-1.563,3.454,14.65,7.239,11.341-.494-9.778-.494-9.778" transform="translate(-178.345 -135.662)" fill="#f7ac8d"/>
            <path id="Trazado_1044130" data-name="Trazado 1044130" d="M232.994,183.829a8.162,8.162,0,0,1,1.265.676c.407.255.791.543,1.171.836s.738.615,1.084.948.683.676,1.005,1.032l1.081,1.195-1.455-.726a6.622,6.622,0,0,0-1.883-.648,1.077,1.077,0,0,0-.777.116.443.443,0,0,0-.1.12l-.022.036-.023.053-.046.106a1.664,1.664,0,0,0,.047,1.332,3.139,3.139,0,0,0,.566.805,7.445,7.445,0,0,0,1.659,1.255,5.527,5.527,0,0,1-1.9-1,3.14,3.14,0,0,1-.736-.849,2.083,2.083,0,0,1-.287-1.147,2.239,2.239,0,0,1,.112-.591l.052-.139.026-.07.041-.08a1.027,1.027,0,0,1,.226-.29,1.21,1.21,0,0,1,.632-.275,2.3,2.3,0,0,1,.609,0,4.648,4.648,0,0,1,1.092.276,8.451,8.451,0,0,1,1.005.452l-.374.468c-.157-.174-.305-.355-.46-.531s-.311-.351-.474-.519c-.32-.342-.644-.681-.983-1.005s-.684-.644-1.038-.955-.722-.609-1.112-.883" transform="translate(-186.045 -146.788)" fill="#f58f70"/>
            <path id="Trazado_1044131" data-name="Trazado 1044131" d="M188.649,427.27c-9.279,21.931-2.055,34.584,8.181,38.239s12.867,1.567,15.718,4.419,3.1,17.466-17.007,16.645Z" transform="translate(-147.218 -341.175)" fill="#fac9c8"/>
            <path id="Trazado_1044132" data-name="Trazado 1044132" d="M187.808,427.27a60.215,60.215,0,0,0-3.283,10.764,41.25,41.25,0,0,0-.732,5.565,30.527,30.527,0,0,0,.191,5.591,23.281,23.281,0,0,0,1.351,5.4,18.977,18.977,0,0,0,2.708,4.833,17.376,17.376,0,0,0,4.04,3.769c.377.269.781.494,1.177.732.2.117.409.216.613.325s.409.216.622.306l.632.285.646.251.324.125.333.112.665.223a46.071,46.071,0,0,0,5.4,1.507c.915.185,1.833.354,2.76.483s1.858.235,2.8.39a7.283,7.283,0,0,1,2.762.924c.2.145.412.278.6.436s.369.319.542.5a4.2,4.2,0,0,1,.787,1.278,8.506,8.506,0,0,1,.6,2.837,11.1,11.1,0,0,1-2.843,7.935,12.8,12.8,0,0,1-2.162,1.872,14.2,14.2,0,0,1-2.51,1.348,20.469,20.469,0,0,1-5.489,1.37,33.519,33.519,0,0,1-5.642.141,36.5,36.5,0,0,0,5.621-.307,20.221,20.221,0,0,0,5.388-1.489,14.139,14.139,0,0,0,2.43-1.356,12.414,12.414,0,0,0,2.066-1.845,10.626,10.626,0,0,0,2.613-7.64,8.072,8.072,0,0,0-.579-2.652,3.675,3.675,0,0,0-.685-1.11c-.149-.157-.331-.3-.494-.453s-.363-.259-.542-.391a6.731,6.731,0,0,0-2.559-.833c-.915-.145-1.855-.238-2.79-.373s-1.871-.292-2.8-.475a46.226,46.226,0,0,1-5.474-1.5,19.387,19.387,0,0,1-5.148-2.457,17.971,17.971,0,0,1-4.156-3.917,19.545,19.545,0,0,1-2.764-4.99c-.092-.22-.168-.446-.241-.672l-.224-.678c-.135-.456-.254-.917-.374-1.377-.093-.466-.2-.93-.28-1.4-.066-.47-.152-.938-.2-1.41a30.936,30.936,0,0,1-.108-5.676,40.761,40.761,0,0,1,.827-5.6c.108-.459.2-.922.322-1.378l.365-1.367c.124-.455.272-.9.407-1.354l.207-.676.229-.668c.584-1.792,1.312-3.531,2.053-5.259" transform="translate(-146.377 -341.175)" fill="#f48787"/>
            <path id="Trazado_1044133" data-name="Trazado 1044133" d="M403.791,519.364l-23.759,33.178,17.5-.738,30.858-30.612Z" transform="translate(-303.455 -414.712)" fill="#fff"/>
            <path id="Trazado_1044134" data-name="Trazado 1044134" d="M491.6,581.408c-3.3-3.3-11.563-4.042-12.16-3.444s4.428,3.515,4.428,3.515-7.31-2.249-7.592-1.195,6.326,4.92,6.326,4.92-5.068-1.595-5.764-.9,5.237,4.519,5.237,4.519-4.112-1.019-4.815-.316,3.892,4.358,7.873,3.866,5.729-2.179,6.994-4.991,1.793-6.045,2.987-7.24,4.079-2.317,3.339-3.058-3.3-.351-5.1,1.441-1.757,2.882-1.757,2.882" transform="translate(-380.3 -460.519)" fill="#f7ac8d"/>
            <path id="Trazado_1044135" data-name="Trazado 1044135" d="M177.854,41.813a7.561,7.561,0,0,0-3.7.718,16.287,16.287,0,0,0-1.691.869c-.549.319-1.09.655-1.617,1.006a15.225,15.225,0,0,0-2.908,2.4,7.344,7.344,0,0,0-1.791,3.212,8.183,8.183,0,0,0-.172.91c-.029.31-.063.618-.069.932-.026.625-.014,1.256.007,1.893a17.7,17.7,0,0,1-.142,3.881,6.544,6.544,0,0,1-.682,1.882,6.652,6.652,0,0,1-1.263,1.549,30.011,30.011,0,0,1-3.111,2.289A7.873,7.873,0,0,0,158.2,65.99a3.621,3.621,0,0,0-.421,1.7,4.641,4.641,0,0,0,.388,1.743c.463,1.139,1.212,2.185,1.785,3.359a7.644,7.644,0,0,1,.45,5.766,9.282,9.282,0,0,1-.821,1.775c-.657,1.119-1.462,2.115-2.146,3.179a10.759,10.759,0,0,0-.9,1.657,9.042,9.042,0,0,0-.547,1.808,15.438,15.438,0,0,0-.2,3.8,14.336,14.336,0,0,1,.038-3.829,9.249,9.249,0,0,1,.49-1.868,11.026,11.026,0,0,1,.862-1.733c.668-1.1,1.451-2.114,2.062-3.213a8.868,8.868,0,0,0,.745-1.709,7.169,7.169,0,0,0,.291-1.825,7.273,7.273,0,0,0-.815-3.564c-.556-1.115-1.323-2.152-1.842-3.376a5.125,5.125,0,0,1-.445-1.967,4.242,4.242,0,0,1,.481-1.982,6.466,6.466,0,0,1,1.2-1.606,11.834,11.834,0,0,1,1.507-1.26,29.826,29.826,0,0,0,3.059-2.228,6.038,6.038,0,0,0,1.154-1.4,6.164,6.164,0,0,0,.625-1.7,17.233,17.233,0,0,0,.175-3.749c-.013-.638-.022-1.284.018-1.933.014-.324.057-.649.095-.974a8.691,8.691,0,0,1,.205-.965,7.134,7.134,0,0,1,.774-1.812,8.836,8.836,0,0,1,1.195-1.548,15.334,15.334,0,0,1,3.033-2.391q.821-.5,1.669-.955a16.49,16.49,0,0,1,1.743-.815,9.3,9.3,0,0,1,1.848-.532,6.407,6.407,0,0,1,1.913-.032" transform="translate(-124.302 -33.342)" fill="#8e6751"/>
            <path id="Trazado_1044136" data-name="Trazado 1044136" d="M340.82,34.965a6.178,6.178,0,0,1,1.753,2.992,12.05,12.05,0,0,1,.375,3.482,14.379,14.379,0,0,1-.187,1.745,13.186,13.186,0,0,1-.429,1.7,12.679,12.679,0,0,1-.663,1.613,10.976,10.976,0,0,1-.906,1.479c.221-.534.437-1.061.62-1.6s.34-1.081.475-1.628a17.036,17.036,0,0,0,.459-3.331,14.881,14.881,0,0,0-.023-1.68,14.3,14.3,0,0,0-.2-1.668,7.949,7.949,0,0,0-1.274-3.1" transform="translate(-272.099 -27.92)" fill="#8e6751"/>
            <path id="Trazado_1044137" data-name="Trazado 1044137" d="M302.625,39.327a8.351,8.351,0,0,1,.53,3.259,11.5,11.5,0,0,1-.161,1.661,14.848,14.848,0,0,1-.382,1.622q-.248.794-.561,1.562c-.218.507-.441,1.011-.7,1.5a26.522,26.522,0,0,1-1.678,2.826c.383-1.029.82-2.029,1.229-3.032.2-.5.408-1,.588-1.509s.364-1.012.513-1.526.291-1.029.4-1.551a15.847,15.847,0,0,0,.257-1.58,13.2,13.2,0,0,0-.039-3.228" transform="translate(-239.291 -31.403)" fill="#8e6751"/>
            <path id="Trazado_1044138" data-name="Trazado 1044138" d="M358.575,25.917a22.052,22.052,0,0,1,2.294.7c.375.144.746.3,1.111.481a9.437,9.437,0,0,1,1.055.619,6.471,6.471,0,0,1,1.743,1.754,7.882,7.882,0,0,1,1,2.26,9.943,9.943,0,0,1,.316,2.437,9.815,9.815,0,0,1-.308,2.426,9.106,9.106,0,0,1-2.332,4.185,11.045,11.045,0,0,0,1.851-4.294,10.26,10.26,0,0,0-.137-4.589,6.8,6.8,0,0,0-2.424-3.782,19.511,19.511,0,0,0-4.17-2.2" transform="translate(-286.322 -20.695)" fill="#8e6751"/>
            <path id="Trazado_1044139" data-name="Trazado 1044139" d="M219.078,47.5c-.93,1.249-1.894,2.471-2.835,3.708a12.749,12.749,0,0,0-1.271,1.912,6.746,6.746,0,0,0-.679,2.144,24.41,24.41,0,0,0,0,4.6,18.052,18.052,0,0,1-.026,2.37,11.027,11.027,0,0,1-2.845,6.475c-1.088,1.181-2.383,2.072-3.5,3.113a11.22,11.22,0,0,0-.792.82l-.182.218-.171.226c-.117.149-.221.308-.327.465a9.96,9.96,0,0,0-1.013,2.05,21.41,21.41,0,0,0-1.036,4.52c.043-.777.112-1.554.232-2.326a15.443,15.443,0,0,1,.511-2.294,10.182,10.182,0,0,1,.955-2.169c.1-.169.2-.342.324-.5l.173-.244.185-.236a11.767,11.767,0,0,1,.8-.883c1.119-1.12,2.4-2.02,3.4-3.159A10.748,10.748,0,0,0,213.2,64.4a10.616,10.616,0,0,0,.455-2.215,19.061,19.061,0,0,0,.044-2.292,22.936,22.936,0,0,1,.115-4.708,6.977,6.977,0,0,1,.8-2.258A12.769,12.769,0,0,1,216,51.013c1.025-1.174,2.035-2.355,3.075-3.514" transform="translate(-163.211 -37.928)" fill="#8e6751"/>
            <path id="Trazado_1044140" data-name="Trazado 1044140" d="M122.26,53.132l-.347-.529a3.251,3.251,0,0,0,1.394-3.072c-.2-1.453-1.357-2.582-2.472-3.674l-.2-.2c-1.085-1.067-2.5-2.7-2.26-4.573.405-3.147,2.875-5.243,5.264-7.27a32.075,32.075,0,0,0,2.4-2.174c2.244-2.341,1.043-5.214-.119-7.992-.334-.8-.65-1.555-.886-2.3A13.8,13.8,0,0,1,125,13.206a15.728,15.728,0,0,1,2.531-4.832A20.033,20.033,0,0,1,142.564.034a29.793,29.793,0,0,1,16.889,4.648l-.332.538A29.152,29.152,0,0,0,142.6.666a19.412,19.412,0,0,0-14.565,8.09,15.092,15.092,0,0,0-2.431,4.636,13.158,13.158,0,0,0,.035,7.768c.227.715.537,1.458.866,2.244,1.183,2.828,2.523,6.033-.008,8.673a32.581,32.581,0,0,1-2.448,2.219c-2.3,1.949-4.672,3.964-5.046,6.869-.2,1.591,1.087,3.069,2.076,4.042l.2.2c1.136,1.112,2.423,2.372,2.656,4.039a3.85,3.85,0,0,1-1.673,3.689" transform="translate(-94.499 -0.003)" fill="#755846"/>
            <path id="Trazado_1044141" data-name="Trazado 1044141" d="M302.69,913.553s-1.1,52.5-4.031,52.5-1.91-52.5-1.91-52.5Z" transform="translate(-236.816 -729.471)" fill="#e39b7b"/>
            <path id="Trazado_1044142" data-name="Trazado 1044142" d="M72.5,905.879s-8.64,54.047-11.166,54.047,5.678-54.047,5.678-54.047Z" transform="translate(-48.592 -723.343)" fill="#e39b7b"/>
            <path id="Trazado_1044143" data-name="Trazado 1044143" d="M186.906,905.879s-8.64,54.047-11.166,54.047,5.678-54.047,5.678-54.047Z" transform="translate(-139.943 -723.343)" fill="#b8806a"/>
            <path id="Trazado_1044144" data-name="Trazado 1044144" d="M69.6,494.979s5.061-29.523-1.828-38.66-48.923-7.04-48.923-7.04-5.624-62.689-14.9-61.494S3.1,455.475,15.195,492.308c13.215,2.812,54.406,2.671,54.406,2.671" transform="translate(0 -309.632)" fill="#fff"/>
          </g>
        </g>
      </g>
    </g>
    <g id="Grupo_1203539" data-name="Grupo 1203539" transform="translate(612 2495)">
      <g id="Grupo_1203538" data-name="Grupo 1203538" transform="translate(0 0)" clip-path="url(#clip-path-10)">
        <path id="Trazado_1044145" data-name="Trazado 1044145" d="M8.924.5H58.2a8.425,8.425,0,0,1,8.424,8.424V29.962A8.425,8.425,0,0,1,58.2,38.386H32.6l-8.679,12.4L19.2,38.386H8.924A8.424,8.424,0,0,1,.5,29.962V8.924A8.424,8.424,0,0,1,8.924.5" transform="translate(0 0)" fill="#f4f4fd"/>
        <path id="Trazado_1044146" data-name="Trazado 1044146" d="M8.924.5H58.2a8.425,8.425,0,0,1,8.424,8.424V29.962A8.425,8.425,0,0,1,58.2,38.386H32.6l-8.679,12.4L19.2,38.386H8.924A8.424,8.424,0,0,1,.5,29.962V8.924A8.424,8.424,0,0,1,8.924.5Z" transform="translate(0 0)" fill="none" stroke="#263238" stroke-linecap="round" stroke-linejoin="round" stroke-width="1"/>
        <path id="Trazado_1044147" data-name="Trazado 1044147" d="M17.72,19.787a2.756,2.756,0,1,0,2.756-2.755,2.756,2.756,0,0,0-2.756,2.755" transform="translate(26.176 0)" fill="#263238"/>
        <path id="Trazado_1044148" data-name="Trazado 1044148" d="M17.72,19.787a2.756,2.756,0,1,0,2.756-2.755A2.756,2.756,0,0,0,17.72,19.787Z" transform="translate(26.176 0)" fill="none" stroke="#263238" stroke-linecap="round" stroke-linejoin="round" stroke-width="1"/>
        <path id="Trazado_1044149" data-name="Trazado 1044149" d="M30.808,19.787a2.755,2.755,0,1,0,2.755-2.755,2.755,2.755,0,0,0-2.755,2.755" transform="translate(0.001 0)" fill="#263238"/>
        <path id="Trazado_1044150" data-name="Trazado 1044150" d="M30.808,19.787a2.755,2.755,0,1,0,2.755-2.755A2.755,2.755,0,0,0,30.808,19.787Z" transform="translate(0.001 0)" fill="none" stroke="#263238" stroke-linecap="round" stroke-linejoin="round" stroke-width="1"/>
        <path id="Trazado_1044151" data-name="Trazado 1044151" d="M43.9,19.787a2.755,2.755,0,1,0,2.755-2.755A2.755,2.755,0,0,0,43.9,19.787" transform="translate(-26.175 0)" fill="#263238"/>
        <path id="Trazado_1044152" data-name="Trazado 1044152" d="M43.9,19.787a2.755,2.755,0,1,0,2.755-2.755A2.755,2.755,0,0,0,43.9,19.787Z" transform="translate(-26.175 0)" fill="none" stroke="#263238" stroke-linecap="round" stroke-linejoin="round" stroke-width="1"/>
      </g>
    </g>
    <g id="Layer_32" data-name="Layer 32" transform="translate(814.32 2737.695)">
      <path id="Trazado_1047933" data-name="Trazado 1047933" d="M40.011,11.566h-5.29a1.984,1.984,0,0,0-1.984,1.984v.661h-4a7.235,7.235,0,0,0-1.7-4.04l3.213-3.125a3.321,3.321,0,1,0-.933-.938L26.1,9.242a7.255,7.255,0,0,0-9.226.024L13.622,6.108a3.309,3.309,0,1,0-.933.938l3.24,3.154a7.233,7.233,0,0,0-1.671,4.011h-4v-.661a1.984,1.984,0,0,0-1.984-1.984H2.984A1.984,1.984,0,0,0,1,13.549v2.645a1.984,1.984,0,0,0,1.984,1.984h5.29a1.984,1.984,0,0,0,1.984-1.984v-.661h4a7.237,7.237,0,0,0,1.653,3.99L9.884,25.549a5.29,5.29,0,1,0,.853,1.017l6.109-6.109a7.265,7.265,0,0,0,11.891-4.925h4v.661a1.984,1.984,0,0,0,1.984,1.984h5.29a1.984,1.984,0,0,0,1.984-1.984V13.549A1.984,1.984,0,0,0,40.011,11.566ZM8.934,16.194a.661.661,0,0,1-.661.661H2.984a.661.661,0,0,1-.661-.661V13.549a.661.661,0,0,1,.661-.661h5.29a.661.661,0,0,1,.661.661ZM32.076,2.309a1.984,1.984,0,1,1-1.984,1.984A1.984,1.984,0,0,1,32.076,2.309ZM10.863,6.276a1.984,1.984,0,1,1,1.984-1.984A1.984,1.984,0,0,1,10.863,6.276ZM6.29,33.385a3.967,3.967,0,1,1,3.967-3.967A3.967,3.967,0,0,1,6.29,33.385ZM21.5,20.823a5.951,5.951,0,1,1,5.951-5.951A5.951,5.951,0,0,1,21.5,20.823Zm19.175-4.628a.661.661,0,0,1-.661.661h-5.29a.661.661,0,0,1-.661-.661V13.549a.661.661,0,0,1,.661-.661h5.29a.661.661,0,0,1,.661.661Z" transform="translate(0 0)" fill="#fff"/>
      <path id="Trazado_1047934" data-name="Trazado 1047934" d="M41.579,34.984a12.674,12.674,0,0,0-3.785.569l-2.359-2.359a.661.661,0,0,0-1.129.467v3.683A7.934,7.934,0,0,0,31,43.579c0,4.739,4.746,8.6,10.579,8.6s10.579-3.856,10.579-8.6S47.412,34.984,41.579,34.984Zm0,15.869c-5.1,0-9.257-3.263-9.257-7.273a6.706,6.706,0,0,1,3.03-5.365.661.661,0,0,0,.276-.538V35.257l1.521,1.521a.661.661,0,0,0,.686.157,11.317,11.317,0,0,1,3.744-.629c5.1,0,9.257,3.263,9.257,7.273S46.684,50.852,41.579,50.852Z" transform="translate(-10.164 -10.855)" fill="#fff"/>
      <path id="Trazado_1047935" data-name="Trazado 1047935" d="M29.628,15a4.628,4.628,0,1,0,4.628,4.628A4.628,4.628,0,0,0,29.628,15Zm0,7.934a3.306,3.306,0,1,1,3.306-3.306A3.306,3.306,0,0,1,29.628,22.934Z" transform="translate(-8.131 -4.757)" fill="#fff"/>
      <path id="Trazado_1047936" data-name="Trazado 1047936" d="M30.083,21.47l-.855-.855-.935.935,1.322,1.322a.661.661,0,0,0,.935,0L33.2,20.228l-.935-.935Z" transform="translate(-9.247 -6.211)" fill="#fff"/>
      <rect id="Rectángulo_417840" data-name="Rectángulo 417840" width="11.902" height="1.322" transform="translate(25.464 34.708)" fill="#fff"/>
      <rect id="Rectángulo_417841" data-name="Rectángulo 417841" width="11.902" height="1.322" transform="translate(25.464 32.063)" fill="#fff"/>
      <rect id="Rectángulo_417842" data-name="Rectángulo 417842" width="11.902" height="1.322" transform="translate(25.464 29.418)" fill="#fff"/>
    </g>
  </g>
</svg>
