<svg xmlns="http://www.w3.org/2000/svg" xmlns:xlink="http://www.w3.org/1999/xlink" width="113" height="113" viewBox="0 0 113 113">
  <defs>
    <filter id="Trazado_982547" x="0" y="0" width="113" height="113" filterUnits="userSpaceOnUse">
      <feOffset dy="3" input="SourceAlpha"/>
      <feGaussianBlur stdDeviation="3" result="blur"/>
      <feFlood flood-opacity="0.161"/>
      <feComposite operator="in" in2="blur"/>
      <feComposite in="SourceGraphic"/>
    </filter>
  </defs>
  <g id="Grupo_1207054" data-name="Grupo 1207054" transform="translate(-4127.99 -6939.783)">
    <g id="Grupo_1206617" data-name="Grupo 1206617" transform="translate(4136.99 6945.783)">
      <g id="Grupo_1176928" data-name="Grupo 1176928" transform="translate(0 0)">
        <g id="Grupo_1172322" data-name="Grupo 1172322">
          <g id="Grupo_1164700" data-name="Grupo 1164700">
            <g id="Grupo_1160931" data-name="Grupo 1160931">
              <g id="Grupo_1160749" data-name="Grupo 1160749">
                <g id="Grupo_1158891" data-name="Grupo 1158891">
                  <g id="Grupo_1157406" data-name="Grupo 1157406">
                    <g id="Grupo_1155793" data-name="Grupo 1155793">
                      <g id="Grupo_1154704" data-name="Grupo 1154704">
                        <g id="Grupo_1150790" data-name="Grupo 1150790">
                          <g id="Grupo_1154214" data-name="Grupo 1154214" transform="translate(0)">
                            <g id="Grupo_1152583" data-name="Grupo 1152583">
                              <g id="Grupo_1146973" data-name="Grupo 1146973">
                                <g id="Grupo_1146954" data-name="Grupo 1146954">
                                  <g transform="matrix(1, 0, 0, 1, -9, -6)" filter="url(#Trazado_982547)">
                                    <g id="Trazado_982547-2" data-name="Trazado 982547" transform="translate(9 6)" fill="#ebe9f0">
                                      <path d="M 47.50000762939453 93.49986267089844 C 41.28937911987305 93.49986267089844 35.26534271240234 92.28383636474609 29.59519386291504 89.88558197021484 C 24.11772727966309 87.56880950927734 19.19814109802246 84.25183868408203 14.97310066223145 80.02679443359375 C 10.74804782867432 75.8017578125 7.431074142456055 70.88218688964844 5.114300727844238 65.40471649169922 C 2.716034412384033 59.73458480834961 1.500007629394531 53.71054458618164 1.500007629394531 47.49993133544922 C 1.500007629394531 41.2893180847168 2.716034412384033 35.26527786254883 5.114300727844238 29.59514427185059 C 7.431074142456055 24.11767768859863 10.74804782867432 19.19810485839844 14.97310066223145 14.97306442260742 C 19.19814109802246 10.74802494049072 24.11772727966309 7.431051254272461 29.59519386291504 5.114277839660645 C 35.26534271240234 2.71602463722229 41.28937911987305 1.499997973442078 47.50000762939453 1.499997973442078 C 53.71063613891602 1.499997973442078 59.73467254638672 2.71602463722229 65.40482330322266 5.114277839660645 C 70.88228607177734 7.431051254272461 75.80187225341797 10.74802494049072 80.02691650390625 14.97306442260742 C 84.25196838378906 19.19810485839844 87.56893920898438 24.11767768859863 89.88571166992188 29.59514427185059 C 92.28398132324219 35.26527786254883 93.50000762939453 41.2893180847168 93.50000762939453 47.49993133544922 C 93.50000762939453 53.71054458618164 92.28398132324219 59.73458480834961 89.88571166992188 65.40471649169922 C 87.56893920898438 70.88218688964844 84.25196838378906 75.8017578125 80.02691650390625 80.02679443359375 C 75.80187225341797 84.25183868408203 70.88228607177734 87.56880950927734 65.40482330322266 89.88558197021484 C 59.73467254638672 92.28383636474609 53.71063613891602 93.49986267089844 47.50000762939453 93.49986267089844 Z" stroke="none"/>
                                      <path d="M 47.50000762939453 2.999992370605469 C 41.4912223815918 2.999992370605469 35.66377639770508 4.1761474609375 30.17951202392578 6.495796203613281 C 24.88085174560547 8.736930847167969 20.12152862548828 11.94596099853516 16.03376007080078 16.03372955322266 C 11.94597625732422 20.12148284912109 8.736961364746094 24.88080596923828 6.495803833007812 30.17946624755859 C 4.176162719726562 35.66371536254883 3.000007629394531 41.49116134643555 3.000007629394531 47.49993133544922 C 3.000007629394531 53.50870132446289 4.176162719726562 59.33614730834961 6.495803833007812 64.82038879394531 C 8.736961364746094 70.11905670166016 11.94597625732422 74.87836456298828 16.03376007080078 78.96613311767578 C 20.12152862548828 83.05390167236328 24.88085174560547 86.26291656494141 30.17951202392578 88.50406646728516 C 35.66377639770508 90.82369995117188 41.4912223815918 91.99985504150391 47.50000762939453 91.99985504150391 C 53.50879287719727 91.99985504150391 59.33623886108398 90.82369995117188 64.82049560546875 88.50406646728516 C 70.11916351318359 86.26291656494141 74.87848663330078 83.05390167236328 78.96625518798828 78.96613311767578 C 83.05403900146484 74.87836456298828 86.26305389404297 70.11905670166016 88.50421142578125 64.82038879394531 C 90.8238525390625 59.33614730834961 92.00000762939453 53.50870132446289 92.00000762939453 47.49993133544922 C 92.00000762939453 41.49116134643555 90.8238525390625 35.66371536254883 88.50421142578125 30.17946624755859 C 86.26305389404297 24.88080596923828 83.05403900146484 20.12148284912109 78.96625518798828 16.03372955322266 C 74.87848663330078 11.94596099853516 70.11916351318359 8.736930847167969 64.82049560546875 6.495796203613281 C 59.33623886108398 4.1761474609375 53.50879287719727 2.999992370605469 47.50000762939453 2.999992370605469 M 47.50000762939453 -7.62939453125e-06 C 73.73352813720703 -7.62939453125e-06 95.00000762939453 21.26644134521484 95.00000762939453 47.49993133544922 C 95.00000762939453 73.73342132568359 73.73352813720703 94.99985504150391 47.50000762939453 94.99985504150391 C 21.26648712158203 94.99985504150391 7.62939453125e-06 73.73342132568359 7.62939453125e-06 47.49993133544922 C 7.62939453125e-06 21.26644134521484 21.26648712158203 -7.62939453125e-06 47.50000762939453 -7.62939453125e-06 Z" stroke="none" fill="#453179"/>
                                    </g>
                                  </g>
                                </g>
                              </g>
                            </g>
                          </g>
                        </g>
                      </g>
                    </g>
                  </g>
                </g>
              </g>
            </g>
          </g>
        </g>
      </g>
    </g>
    <g id="Outline_Color-1" data-name="Outline Color-1" transform="translate(4152.49 6961.268)">
      <g id="_12" data-name="12">
        <path id="Trazado_1050155" data-name="Trazado 1050155" d="M28,33h8v1a4,4,0,0,1-8,0Z" fill="#e0a328"/>
        <path id="Trazado_1050156" data-name="Trazado 1050156" d="M28,33V29.87a13,13,0,1,1,8,0s0,1.91,0,3.13Z" fill="#4686f2"/>
        <path id="Trazado_1050157" data-name="Trazado 1050157" d="M50,52v9H41V52l2-2Z" fill="#e53e3e"/>
        <path id="Trazado_1050158" data-name="Trazado 1050158" d="M45,42v2a4,4,0,0,1-8,0V42a3.66,3.66,0,0,1,.16-1.1A3.995,3.995,0,0,1,45,42Z" fill="#f9b52d"/>
        <path id="Trazado_1050159" data-name="Trazado 1050159" d="M43,47.46V50l-2,2-2-2V47.46A4,4,0,0,0,43,47.46Z" fill="#e0a328"/>
        <path id="Trazado_1050160" data-name="Trazado 1050160" d="M41,53v8H32V52l7-2,2,2Z" fill="#e53e3e"/>
        <path id="Trazado_1050161" data-name="Trazado 1050161" d="M39,47.46V50l-7,2V42l2-2,3.16.9A3.66,3.66,0,0,0,37,42v2A4,4,0,0,0,39,47.46Z" fill="#ce3838"/>
        <path id="Trazado_1050162" data-name="Trazado 1050162" d="M34,37.46V40l-2,2-2-2V37.46A4,4,0,0,0,34,37.46Z" fill="#e0a328"/>
        <path id="Trazado_1050163" data-name="Trazado 1050163" d="M32,52v9H23V52l2-2Z" fill="#e53e3e"/>
        <path id="Trazado_1050164" data-name="Trazado 1050164" d="M32,42V52l-7-2V47.46A4,4,0,0,0,27,44V42a3.66,3.66,0,0,0-.16-1.1L30,40Z" fill="#ce3838"/>
        <path id="Trazado_1050165" data-name="Trazado 1050165" d="M27,42v2a4,4,0,0,1-8,0V42a3.988,3.988,0,0,1,7.83-1.1A3.66,3.66,0,0,1,27,42Z" fill="#f9b52d"/>
        <path id="Trazado_1050166" data-name="Trazado 1050166" d="M25,47.46V50l-2,2-2-2V47.46a4,4,0,0,0,4,0Z" fill="#e0a328"/>
        <path id="Trazado_1050167" data-name="Trazado 1050167" d="M23,53v8H14V52l7-2,2,2Z" fill="#e53e3e"/>
        <circle id="Elipse_12972" data-name="Elipse 12972" cx="2" cy="2" r="2" transform="translate(34 17)" fill="#f9b52d"/>
        <circle id="Elipse_12973" data-name="Elipse 12973" cx="2" cy="2" r="2" transform="translate(26 17)" fill="#f9b52d"/>
        <g id="Grupo_1207053" data-name="Grupo 1207053">
          <path id="Trazado_1050168" data-name="Trazado 1050168" d="M15.74,2.74l4.24,4.24" fill="#e6e6e6"/>
          <path id="Trazado_1050169" data-name="Trazado 1050169" d="M9,19h6" fill="#e6e6e6"/>
          <path id="Trazado_1050170" data-name="Trazado 1050170" d="M55,19H49" fill="#e6e6e6"/>
          <path id="Trazado_1050171" data-name="Trazado 1050171" d="M48.26,2.74,44.02,6.98" fill="#e6e6e6"/>
        </g>
        <circle id="Elipse_12974" data-name="Elipse 12974" cx="2" cy="2" r="2" transform="translate(54 30)" fill="#38a554"/>
        <circle id="Elipse_12975" data-name="Elipse 12975" cx="2" cy="2" r="2" transform="translate(7 7)" fill="#38a554"/>
        <path id="Trazado_1050172" data-name="Trazado 1050172" d="M50.27,51,44,49.25V48a5,5,0,0,0,2-4V42a5,5,0,0,0-8.54-3.53,5.18,5.18,0,0,0-.88,1.22L35,39.24V38a5,5,0,0,0,2-4V30.58a14,14,0,1,0-10,0V34a5,5,0,0,0,2,4v1.25l-1.58.45A5,5,0,0,0,18,42v2a5,5,0,0,0,2,4v1.26L13.73,51A1,1,0,0,0,13,52v9a1,1,0,0,0,1,1H50a1,1,0,0,0,1-1V52a1,1,0,0,0-.73-1ZM41,50.59l-1-1v-.7a4.6,4.6,0,0,0,2,0v.7ZM38,42a2.86,2.86,0,0,1,.11-.8A3,3,0,0,1,44,42v2a3,3,0,0,1-6,0Zm0,6v1.26l-5,1.42V42.41l1.29-1.29,1.74.5V44A5,5,0,0,0,38,48Zm-6-9a5.57,5.57,0,0,0,1-.11v.7l-1,1-1-1v-.7A5.57,5.57,0,0,0,32,39Zm1.5-2.41A3,3,0,0,1,29,34h6A3,3,0,0,1,33.5,36.59ZM20,17.5A12,12,0,1,1,35.69,28.92a1,1,0,0,0-.4.24c-.3.3-.3.3-.29,2.41V32H29v-.43c0-2.11,0-2.11-.29-2.41a1,1,0,0,0-.4-.24A12,12,0,0,1,20,17.5ZM28,44V41.62l1.74-.5L31,42.41v8.26l-5-1.42V48a5,5,0,0,0,2-4Zm-5,6.59-1-1v-.7a4.6,4.6,0,0,0,2,0v.7ZM20,42a3,3,0,0,1,5.12-2.13,3.11,3.11,0,0,1,.76,1.29A2.86,2.86,0,0,1,26,42v2a3,3,0,0,1-6,0ZM17,56v4H15V52.75l5.71-1.63L22,52.41V60H19V56Zm9,0v4H24V52.41l1.29-1.29L31,52.75V60H28V56Zm9,0v4H33V52.75l5.71-1.63L40,52.41V60H37V56Zm14,4H47V56H45v4H42V52.41l1.29-1.29L49,52.75Z"/>
        <path id="Trazado_1050173" data-name="Trazado 1050173" d="M31,25v5h2V25h1a3,3,0,0,0,3-3v-.18a3,3,0,1,0-2,0V22a1,1,0,0,1-1,1H30a1,1,0,0,1-1-1v-.18a3,3,0,1,0-2,0V22a3,3,0,0,0,3,3Zm5-7a1,1,0,1,1-1,1A1,1,0,0,1,36,18Zm-8,0a1,1,0,1,1-1,1A1,1,0,0,1,28,18Z"/>
        <path id="Trazado_1050174" data-name="Trazado 1050174" d="M62,9H60V7H58V9H56v2h2v2h2V11h2Z"/>
        <path id="Trazado_1050175" data-name="Trazado 1050175" d="M6,35V33H8V31H6V29H4v2H2v2H4v2Z"/>
        <path id="Trazado_1050176" data-name="Trazado 1050176" d="M26.91,10.83a6.62,6.62,0,0,1,.62-.46,7.31,7.31,0,0,1,.66-.41,7.5,7.5,0,0,1,.7-.33c.24-.1.48-.19.73-.27s.51-.14.77-.2a6.836,6.836,0,0,1,.79-.12A7.38,7.38,0,0,1,32,9V7H31a5.9,5.9,0,0,0-1,.15,9.63,9.63,0,0,0-1,.25,9.15,9.15,0,0,0-.92.34,7.85,7.85,0,0,0-.88.42,8.54,8.54,0,0,0-.82.5,9,9,0,0,0-.77.57c-.25.21-.48.42-.71.65l1.41,1.41a6.91,6.91,0,0,1,.6-.46Z"/>
        <path id="Trazado_1050177" data-name="Trazado 1050177" d="M23.71,11.41a8.541,8.541,0,0,0-.5.82,7.85,7.85,0,0,0-.42.88l1.84.78a7.5,7.5,0,0,1,.33-.7,7.31,7.31,0,0,1,.41-.66Z"/>
        <path id="Trazado_1050178" data-name="Trazado 1050178" d="M16.86,1.86h2v6h-2Z" transform="translate(1.8 14.05) rotate(-45)"/>
        <path id="Trazado_1050179" data-name="Trazado 1050179" d="M9,18h6v2H9Z"/>
        <path id="Trazado_1050180" data-name="Trazado 1050180" d="M14.86,32.14h6v2h-6Z" transform="translate(-18.2 22.33) rotate(-45)"/>
        <path id="Trazado_1050181" data-name="Trazado 1050181" d="M45.14,30.14h2v6h-2Z" transform="translate(-9.92 42.34) rotate(-45)"/>
        <path id="Trazado_1050182" data-name="Trazado 1050182" d="M49,18h6v2H49Z"/>
        <path id="Trazado_1050183" data-name="Trazado 1050183" d="M43.14,3.86h6v2h-6Z" transform="translate(10.08 34.05) rotate(-45)"/>
        <path id="Trazado_1050184" data-name="Trazado 1050184" d="M9,12A3,3,0,1,0,6,9,3,3,0,0,0,9,12ZM9,8A1,1,0,1,1,8,9,1,1,0,0,1,9,8Z"/>
        <path id="Trazado_1050185" data-name="Trazado 1050185" d="M53,32a3,3,0,1,0,3-3,3,3,0,0,0-3,3Zm3-1a1,1,0,1,1-1,1A1,1,0,0,1,56,31Z"/>
        <path id="Trazado_1050186" data-name="Trazado 1050186" d="M7,54H9v2H7Z"/>
        <path id="Trazado_1050187" data-name="Trazado 1050187" d="M7.29,39.29l-3,3,1.42,1.42L7,42.41V52H9V42.41l1.29,1.3,1.42-1.42-3-3a1,1,0,0,0-1.42,0Z"/>
        <path id="Trazado_1050188" data-name="Trazado 1050188" d="M55,60h2v2H55Z"/>
        <path id="Trazado_1050189" data-name="Trazado 1050189" d="M55.29,45.29l-3,3,1.42,1.42L55,48.41V58h2V48.41l1.29,1.3,1.42-1.42-3-3a1,1,0,0,0-1.42,0Z"/>
      </g>
    </g>
  </g>
</svg>
