<svg xmlns="http://www.w3.org/2000/svg" xmlns:xlink="http://www.w3.org/1999/xlink" width="108" height="108" viewBox="0 0 108 108">
  <defs>
    <filter id="Trazado_904820" x="0" y="0" width="108" height="108" filterUnits="userSpaceOnUse">
      <feOffset dy="3" input="SourceAlpha"/>
      <feGaussianBlur stdDeviation="3" result="blur"/>
      <feFlood flood-opacity="0.161"/>
      <feComposite operator="in" in2="blur"/>
      <feComposite in="SourceGraphic"/>
    </filter>
  </defs>
  <g id="Grupo_1207081" data-name="Grupo 1207081" transform="translate(-619.238 -1244)">
    <g id="Grupo_1206683" data-name="Grupo 1206683" transform="translate(628.238 1250)">
      <g id="Grupo_1173585" data-name="Grupo 1173585" transform="translate(0 0)">
        <g id="Grupo_1173428" data-name="Grupo 1173428">
          <g id="Grupo_1171958" data-name="Grupo 1171958">
            <g id="Grupo_1167341" data-name="Grupo 1167341">
              <g id="Grupo_1166792" data-name="Grupo 1166792">
                <g transform="matrix(1, 0, 0, 1, -9, -6)" filter="url(#Trazado_904820)">
                  <g id="Trazado_904820-2" data-name="Trazado 904820" transform="translate(9 6)" fill="#edf3fc">
                    <path d="M 44.99999618530273 88.5 C 39.12687301635742 88.5 33.43022155761719 87.35007476806641 28.06829643249512 85.08216857910156 C 22.88852119445801 82.89131164550781 18.23629570007324 79.75458526611328 14.24084663391113 75.75914764404297 C 10.24540901184082 71.76369476318359 7.108683586120605 67.11147308349609 4.917821407318115 61.93169784545898 C 2.649921178817749 56.56977081298828 1.499996185302734 50.87311935424805 1.499996185302734 44.99999618530273 C 1.499996185302734 39.12687301635742 2.649921178817749 33.43022155761719 4.917821407318115 28.06829643249512 C 7.108683586120605 22.88852119445801 10.24540901184082 18.23629570007324 14.24084663391113 14.24084663391113 C 18.23629570007324 10.24540901184082 22.88852119445801 7.108683586120605 28.06829643249512 4.917821407318115 C 33.43022155761719 2.649921178817749 39.12687301635742 1.499996185302734 44.99999618530273 1.499996185302734 C 50.87311935424805 1.499996185302734 56.56977081298828 2.649921178817749 61.93169784545898 4.917821407318115 C 67.11147308349609 7.108683586120605 71.76369476318359 10.24540901184082 75.75914764404297 14.24084663391113 C 79.75458526611328 18.23629570007324 82.89131164550781 22.88852119445801 85.08216857910156 28.06829643249512 C 87.35007476806641 33.43022155761719 88.5 39.12687301635742 88.5 44.99999618530273 C 88.5 50.87311935424805 87.35007476806641 56.56977081298828 85.08216857910156 61.93169784545898 C 82.89131164550781 67.11147308349609 79.75458526611328 71.76369476318359 75.75914764404297 75.75914764404297 C 71.76369476318359 79.75458526611328 67.11147308349609 82.89131164550781 61.93169784545898 85.08216857910156 C 56.56977081298828 87.35007476806641 50.87311935424805 88.5 44.99999618530273 88.5 Z" stroke="none"/>
                    <path d="M 44.99999618530273 2.999992370605469 C 39.32870864868164 2.999992370605469 33.82865142822266 4.110054016113281 28.65262603759766 6.299339294433594 C 23.65165710449219 8.414566040039062 19.15968322753906 11.44333648681641 15.301513671875 15.301513671875 C 11.44333648681641 19.15968322753906 8.414566040039062 23.65165710449219 6.299339294433594 28.65262603759766 C 4.110054016113281 33.82865142822266 2.999992370605469 39.32870864868164 2.999992370605469 44.99999618530273 C 2.999992370605469 50.67128372192383 4.110054016113281 56.17134094238281 6.299339294433594 61.34736633300781 C 8.414566040039062 66.34834289550781 11.44333648681641 70.84030914306641 15.301513671875 74.69847869873047 C 19.15968322753906 78.55665588378906 23.65165710449219 81.58542633056641 28.65262603759766 83.70065307617188 C 33.82865142822266 85.88993835449219 39.32870864868164 87 44.99999618530273 87 C 50.67128372192383 87 56.17134094238281 85.88993835449219 61.34736633300781 83.70065307617188 C 66.34834289550781 81.58542633056641 70.84030914306641 78.55665588378906 74.69847869873047 74.69847869873047 C 78.55665588378906 70.84030914306641 81.58542633056641 66.34834289550781 83.70065307617188 61.34736633300781 C 85.88993835449219 56.17134094238281 87 50.67128372192383 87 44.99999618530273 C 87 39.32870864868164 85.88993835449219 33.82865142822266 83.70065307617188 28.65262603759766 C 81.58542633056641 23.65165710449219 78.55665588378906 19.15968322753906 74.69847869873047 15.301513671875 C 70.84030914306641 11.44333648681641 66.34834289550781 8.414566040039062 61.34736633300781 6.299339294433594 C 56.17134094238281 4.110054016113281 50.67128372192383 2.999992370605469 44.99999618530273 2.999992370605469 M 44.99999618530273 -7.62939453125e-06 C 69.85281372070312 -7.62939453125e-06 90 20.14717864990234 90 44.99999618530273 C 90 69.85281372070312 69.85281372070312 90 44.99999618530273 90 C 20.14717864990234 90 -7.62939453125e-06 69.85281372070312 -7.62939453125e-06 44.99999618530273 C -7.62939453125e-06 20.14717864990234 20.14717864990234 -7.62939453125e-06 44.99999618530273 -7.62939453125e-06 Z" stroke="none" fill="#2f4f7e"/>
                  </g>
                </g>
              </g>
            </g>
          </g>
        </g>
      </g>
    </g>
    <g id="training_7752966" transform="translate(644.665 1264.577)">
      <g id="Grupo_1207079" data-name="Grupo 1207079" transform="translate(0.966 0.966)">
        <g id="Grupo_1207057" data-name="Grupo 1207057" transform="translate(0 3.866)">
          <path id="Trazado_1050190" data-name="Trazado 1050190" d="M9.933,40h27.5a10.074,10.074,0,0,0-2.124,5.462,7.157,7.157,0,0,1-2.846,5.184,3.172,3.172,0,0,0-.339,4.78l1,1a4.93,4.93,0,0,0,.939,2.9H22.5l-.732,2.928a1.238,1.238,0,0,1-2.4,0l-.732-2.928h-8.7A1.932,1.932,0,0,1,8,57.4V41.933A1.932,1.932,0,0,1,9.933,40Z" transform="translate(-8 -40)" fill="#e6e9ed"/>
        </g>
        <g id="Grupo_1207058" data-name="Grupo 1207058" transform="translate(23.194)">
          <path id="Trazado_1050191" data-name="Trazado 1050191" d="M206.238,11.866l1.085-1.175A10.071,10.071,0,0,1,214.186,8h.621a10.1,10.1,0,0,1,10.071,9.327,7.157,7.157,0,0,0,2.846,5.184,3.171,3.171,0,0,1,.339,4.78l-1,1a4.027,4.027,0,0,1-2.391,3.677l-.082-.059a9.049,9.049,0,0,0-5.259-1.685,1.93,1.93,0,0,1-1.933-1.933,7,7,0,0,0,3.72-4.832h2.079a1.933,1.933,0,1,0,0-3.866h-1.933V18.483a.966.966,0,0,0-.807-.953l-1.712-.286a10.369,10.369,0,0,1-5.631-2.9,1.872,1.872,0,0,0-3,.487c-.231.459-.449.9-.449.9a3.494,3.494,0,0,0-1.933,3.128V19.6H205.8a1.933,1.933,0,1,0,0,3.866h2.079a7,7,0,0,0,3.72,4.832v.082a1.851,1.851,0,0,1-1.85,1.851h-.083a5.872,5.872,0,0,0-4.848,2.566,4.955,4.955,0,0,1-2.884-4.5l-1-1a3.171,3.171,0,0,1,.339-4.78,7.157,7.157,0,0,0,2.846-5.184A10.074,10.074,0,0,1,206.238,11.866Z" transform="translate(-200 -8)" fill="#b27946"/>
        </g>
        <g id="Grupo_1207059" data-name="Grupo 1207059" transform="translate(19.651 22.228)">
          <path id="Trazado_1050192" data-name="Trazado 1050192" d="M182.352,201.444l-.82,1.092a5.072,5.072,0,0,1-4.064,2.027h-.062a4.911,4.911,0,0,1-3.693-1.676l-3.043-3.479,3.807-3.807,2.636,3.163,1.376-3.212a5.812,5.812,0,0,1,.541-.987A5.872,5.872,0,0,1,183.877,192l.857,2.141a4.282,4.282,0,0,0,7.951,0l.856-2.141a9.049,9.049,0,0,1,5.259,1.685l.082.059,1.883,1.345a5.826,5.826,0,0,1,.254,9.291l-2.646,2.116-1.933-3.866-.26.087a3.86,3.86,0,0,0-2.64,3.662,2.052,2.052,0,0,0,1.637,2.009l-.086.272a5.318,5.318,0,0,0-6.056,2.264,4.828,4.828,0,0,0-4.52,0,5.34,5.34,0,0,0-2.258-2l0-.008,1.012-1.518a3.588,3.588,0,0,0,.225-3.594l-.906-1.812A5.986,5.986,0,0,1,182.352,201.444Z" transform="translate(-170.67 -192)" fill="#5cd6b3"/>
        </g>
        <g id="Grupo_1207060" data-name="Grupo 1207060" transform="translate(35.758 48.391)">
          <path id="Trazado_1050193" data-name="Trazado 1050193" d="M313.719,408.58a4.821,4.821,0,0,0,3.811,1.863,5.472,5.472,0,0,0-5.431,4.795l-.367,2.937H309.8l-.367-2.937A5.472,5.472,0,0,0,304,410.443a4.821,4.821,0,0,0,3.811-1.863,5.315,5.315,0,0,0,5.907,0Z" transform="translate(-304 -408.58)" fill="#4fc1e9"/>
        </g>
        <g id="Grupo_1207061" data-name="Grupo 1207061" transform="translate(8.698 48.391)">
          <path id="Trazado_1050194" data-name="Trazado 1050194" d="M89.719,408.58a4.821,4.821,0,0,0,3.811,1.863,5.474,5.474,0,0,0-5.431,4.795l-.367,2.937H85.8l-.367-2.937A5.474,5.474,0,0,0,80,410.443a4.821,4.821,0,0,0,3.811-1.863,5.315,5.315,0,0,0,5.907,0Z" transform="translate(-80 -408.58)" fill="#f29ed0"/>
        </g>
        <g id="Grupo_1207062" data-name="Grupo 1207062" transform="translate(22.228 48.391)">
          <path id="Trazado_1050195" data-name="Trazado 1050195" d="M205.53,410.443a5.474,5.474,0,0,0-5.431,4.795l-.367,2.937H197.8l-.367-2.937A5.472,5.472,0,0,0,192,410.443a4.821,4.821,0,0,0,3.811-1.863,5.315,5.315,0,0,0,5.907,0A4.821,4.821,0,0,0,205.53,410.443Z" transform="translate(-192 -408.58)" fill="#e6e9ed"/>
        </g>
        <g id="Grupo_1207063" data-name="Grupo 1207063" transform="translate(2.899 50.254)">
          <path id="Trazado_1050196" data-name="Trazado 1050196" d="M37.8,424a5.474,5.474,0,0,1,5.431,4.795l.367,2.937H32l.367-2.937A5.472,5.472,0,0,1,37.8,424Z" transform="translate(-32 -424)" fill="#e6e9ed"/>
        </g>
        <g id="Grupo_1207064" data-name="Grupo 1207064" transform="translate(16.429 50.254)">
          <path id="Trazado_1050197" data-name="Trazado 1050197" d="M149.8,424a5.472,5.472,0,0,1,5.431,4.795l.367,2.937H144l.367-2.937A5.474,5.474,0,0,1,149.8,424Z" transform="translate(-144 -424)" fill="#fcd770"/>
        </g>
        <g id="Grupo_1207065" data-name="Grupo 1207065" transform="translate(29.959 50.254)">
          <path id="Trazado_1050198" data-name="Trazado 1050198" d="M256.367,428.795a5.473,5.473,0,0,1,10.863,0l.367,2.937H256Z" transform="translate(-256 -424)" fill="#f29ed0"/>
        </g>
        <g id="Grupo_1207066" data-name="Grupo 1207066" transform="translate(43.489 50.254)">
          <path id="Trazado_1050199" data-name="Trazado 1050199" d="M373.8,424a5.474,5.474,0,0,1,5.431,4.795l.367,2.937H368l.367-2.937A5.472,5.472,0,0,1,373.8,424Z" transform="translate(-368 -424)" fill="#5cd6b3"/>
        </g>
        <g id="Grupo_1207067" data-name="Grupo 1207067" transform="translate(38.018 38.657)">
          <path id="Trazado_1050200" data-name="Trazado 1050200" d="M331.719,330.495a4.83,4.83,0,0,0-1.551,7.24,5.314,5.314,0,0,1-5.907,0,4.83,4.83,0,0,0-1.551-7.24,5.314,5.314,0,0,1,9.009,0Z" transform="translate(-322.71 -328)" fill="#ecc19c"/>
        </g>
        <g id="Grupo_1207068" data-name="Grupo 1207068" transform="translate(24.488 38.657)">
          <path id="Trazado_1050201" data-name="Trazado 1050201" d="M219.719,330.495a4.83,4.83,0,0,0-1.551,7.24,5.315,5.315,0,0,1-5.907,0,4.83,4.83,0,0,0-1.551-7.24,5.314,5.314,0,0,1,9.009,0Z" transform="translate(-210.71 -328)" fill="#ecc19c"/>
        </g>
        <g id="Grupo_1207069" data-name="Grupo 1207069" transform="translate(10.958 38.657)">
          <path id="Trazado_1050202" data-name="Trazado 1050202" d="M107.719,330.495a4.83,4.83,0,0,0-1.551,7.24,5.314,5.314,0,0,1-5.907,0,4.83,4.83,0,0,0-1.551-7.24,5.315,5.315,0,0,1,9.009,0Z" transform="translate(-98.71 -328)" fill="#ecc19c"/>
        </g>
        <g id="Grupo_1207070" data-name="Grupo 1207070" transform="translate(3.866 40.59)">
          <path id="Trazado_1050203" data-name="Trazado 1050203" d="M49.664,348.832a4.833,4.833,0,1,1-2.572-4.27A4.811,4.811,0,0,1,49.664,348.832Z" transform="translate(-40 -344)" fill="#f0d0b4"/>
        </g>
        <g id="Grupo_1207071" data-name="Grupo 1207071" transform="translate(17.396 40.59)">
          <path id="Trazado_1050204" data-name="Trazado 1050204" d="M161.664,348.832a4.833,4.833,0,1,1-2.572-4.27A4.811,4.811,0,0,1,161.664,348.832Z" transform="translate(-152 -344)" fill="#f0d0b4"/>
        </g>
        <g id="Grupo_1207072" data-name="Grupo 1207072" transform="translate(30.926 40.59)">
          <path id="Trazado_1050205" data-name="Trazado 1050205" d="M273.664,348.832a4.833,4.833,0,1,1-2.572-4.27A4.811,4.811,0,0,1,273.664,348.832Z" transform="translate(-264 -344)" fill="#f0d0b4"/>
        </g>
        <g id="Grupo_1207073" data-name="Grupo 1207073" transform="translate(44.456 40.59)">
          <path id="Trazado_1050206" data-name="Trazado 1050206" d="M380.832,344a4.833,4.833,0,1,1-2.26.562A4.832,4.832,0,0,1,380.832,344Z" transform="translate(-376 -344)" fill="#f0d0b4"/>
        </g>
        <g id="Grupo_1207074" data-name="Grupo 1207074" transform="translate(42.523 32.858)">
          <path id="Trazado_1050207" data-name="Trazado 1050207" d="M362.9,280l1.933,3.866L363.5,285.2a2.05,2.05,0,0,1-1.45.6,2.113,2.113,0,0,1-.413-.041A2.052,2.052,0,0,1,360,283.749a3.86,3.86,0,0,1,2.64-3.662Z" transform="translate(-360 -280)" fill="#f0d0b4"/>
        </g>
        <g id="Grupo_1207075" data-name="Grupo 1207075" transform="translate(17.396 23.194)">
          <path id="Trazado_1050208" data-name="Trazado 1050208" d="M156.621,200.9l1.441,1.731-3.807,3.807-1.444-1.649a3.283,3.283,0,0,1-.812-2.16v-.056A2.581,2.581,0,0,1,154.59,200h.1A2.52,2.52,0,0,1,156.621,200.9Z" transform="translate(-152 -200)" fill="#f0d0b4"/>
        </g>
        <g id="Grupo_1207076" data-name="Grupo 1207076" transform="translate(44.309 11.597)">
          <path id="Trazado_1050209" data-name="Trazado 1050209" d="M376.869,104a1.933,1.933,0,1,1,0,3.866H374.79a6.953,6.953,0,0,0,.146-1.423V104Z" transform="translate(-374.79 -104)" fill="#f0d0b4"/>
        </g>
        <g id="Grupo_1207077" data-name="Grupo 1207077" transform="translate(30.926 5.799)">
          <path id="Trazado_1050210" data-name="Trazado 1050210" d="M266.789,74.57l-.856-2.141h.083a1.851,1.851,0,0,0,1.85-1.851V70.5A6.992,6.992,0,0,1,264,64.241V61.06a3.494,3.494,0,0,1,1.933-3.128s.219-.439.449-.9a1.872,1.872,0,0,1,3-.487,10.369,10.369,0,0,0,5.631,2.9l1.712.286a.966.966,0,0,1,.807.953v3.556a6.994,6.994,0,0,1-3.866,6.255,1.93,1.93,0,0,0,1.933,1.933l-.856,2.141a4.282,4.282,0,0,1-7.951,0Z" transform="translate(-264 -56)" fill="#f0d0b4"/>
        </g>
        <g id="Grupo_1207078" data-name="Grupo 1207078" transform="translate(27.06 11.597)">
          <path id="Trazado_1050211" data-name="Trazado 1050211" d="M236.012,107.866h-2.079a1.933,1.933,0,0,1,0-3.866h1.933v2.443A6.953,6.953,0,0,0,236.012,107.866Z" transform="translate(-232 -104)" fill="#f0d0b4"/>
        </g>
      </g>
      <g id="Grupo_1207080" data-name="Grupo 1207080" transform="translate(0 0)">
        <path id="Trazado_1050212" data-name="Trazado 1050212" d="M3.274,55.9l-.5,4.023H57.147l-.5-4.023a6.442,6.442,0,0,0-3.1-4.735,5.8,5.8,0,0,0-5.224-10.238,6.281,6.281,0,0,0-.967-.938,3.058,3.058,0,0,0,.321-.279l1.295-1.295,2.6-2.083a6.793,6.793,0,0,0-.3-10.832l-.741-.529a4.993,4.993,0,0,0,1.635-3.289l.738-.738a4.111,4.111,0,0,0,1.212-2.926,4.157,4.157,0,0,0-1.655-3.31A6.2,6.2,0,0,1,50,10.219,11.068,11.068,0,0,0,38.967,0h-.62a11.036,11.036,0,0,0-7.52,2.947,11.15,11.15,0,0,0-.881.919H2.9A2.9,2.9,0,0,0,0,6.765V22.228a2.9,2.9,0,0,0,2.9,2.9h7.943l.549,2.2a2.2,2.2,0,0,0,4.277,0l.549-2.2h1.565a3.523,3.523,0,0,0-.387,1.612v.055a4.245,4.245,0,0,0,1.051,2.8l4.487,5.128a5.873,5.873,0,0,0,4.42,2.006h.061a6.075,6.075,0,0,0,4.7-2.235l.472.943a2.621,2.621,0,0,1-.163,2.626l-.589.883a6.283,6.283,0,0,0-6.7,1.982,5.785,5.785,0,0,0-3.871,0,6.279,6.279,0,0,0-9.659,0A5.8,5.8,0,0,0,6.376,51.161a6.442,6.442,0,0,0-3.1,4.735Zm12.781,0a6.442,6.442,0,0,0-3.1-4.735,5.841,5.841,0,0,0,.713-.581,6.281,6.281,0,0,0,5.528,0,5.842,5.842,0,0,0,.713.581A6.442,6.442,0,0,0,16.8,55.9l-.261,2.09h-.227ZM27.2,50.579a6.28,6.28,0,0,0,5.528,0,5.842,5.842,0,0,0,.713.581,6.442,6.442,0,0,0-3.1,4.735l-.261,2.09h-.227l-.261-2.09a6.443,6.443,0,0,0-3.1-4.735,5.854,5.854,0,0,0,.713-.581Zm9.529-8.057a3.866,3.866,0,1,1-3.866,3.866A3.87,3.87,0,0,1,36.724,42.523ZM41.2,56.135l.231,1.85H32.02l.231-1.85a4.507,4.507,0,0,1,8.945,0Zm-13.53,0,.231,1.85H18.49l.231-1.85a4.507,4.507,0,0,1,8.945,0ZM43.6,57.985h-.227l-.261-2.09a6.442,6.442,0,0,0-3.1-4.735,5.841,5.841,0,0,0,.713-.581,6.281,6.281,0,0,0,5.528,0,5.842,5.842,0,0,0,.713.581,6.442,6.442,0,0,0-3.1,4.735Zm11.124-1.85.231,1.85H45.55l.231-1.85a4.507,4.507,0,0,1,8.945,0Zm-.607-9.747a3.866,3.866,0,1,1-3.866-3.866A3.87,3.87,0,0,1,54.12,46.388Zm-9.664,0a5.762,5.762,0,0,0,.618,2.6,4.354,4.354,0,0,1-3.169,0,5.786,5.786,0,0,0-1.52-7.094,4.343,4.343,0,0,1,6.209,0A5.789,5.789,0,0,0,44.456,46.388Zm1.468-11.331L47.147,37.5l-.842.837a1.084,1.084,0,0,1-1.85-.766A2.888,2.888,0,0,1,45.924,35.057ZM51.3,16.251a2.216,2.216,0,0,1,.882,1.764,2.19,2.19,0,0,1-.646,1.559l-1.287,1.287v.4a3.057,3.057,0,0,1-1.369,2.546,9.95,9.95,0,0,0-5.4-1.58.967.967,0,0,1-.833-.476A7.9,7.9,0,0,0,46.026,17.4h1.329a2.9,2.9,0,0,0,2.81-2.186,8.122,8.122,0,0,0,1.14,1.042ZM24.291,25.127h2.279a5.908,5.908,0,0,0,1.092.987c-.04.083-.078.168-.115.253l-.755,1.762Zm4.443-.622a4,4,0,0,1-1.674-3.244v-.4l-1.287-1.287a2.191,2.191,0,0,1-.646-1.559,2.216,2.216,0,0,1,.882-1.764,8.13,8.13,0,0,0,1.14-1.042,2.9,2.9,0,0,0,2.81,2.186h1.329a7.9,7.9,0,0,0,3.4,4.372.888.888,0,0,1-.151.2.877.877,0,0,1-.625.259h-.073A6.835,6.835,0,0,0,28.734,24.505Zm2.205-9.042h-.98a.966.966,0,1,1,0-1.933h.966v1.477C30.926,15.159,30.931,15.312,30.939,15.463ZM36.19,20.4a5.994,5.994,0,0,1-3.332-5.39V11.825a2.516,2.516,0,0,1,1.4-2.263l.288-.144.593-1.186A.906.906,0,0,1,36.589,8a11.278,11.278,0,0,0,6.155,3.167l1.712.285v3.557a5.994,5.994,0,0,1-3.332,5.39l-.534.267v.6a2.9,2.9,0,0,0,1.6,2.589l-.45,1.126a3.316,3.316,0,0,1-6.157,0l-.439-1.1a2.821,2.821,0,0,0,1.585-2.534v-.68Zm10.2-5.39V13.53h.966a.966.966,0,0,1,0,1.933h-.98C46.383,15.312,46.388,15.159,46.388,15.007ZM38.347,1.933h.62a9.177,9.177,0,0,1,9.108,8.434,8.118,8.118,0,0,0,.232,1.391,2.885,2.885,0,0,0-.952-.161h-.966v-.148a1.927,1.927,0,0,0-1.615-1.907l-1.712-.285A9.357,9.357,0,0,1,37.956,6.63a2.838,2.838,0,0,0-4.546.738L33.1,8a4.432,4.432,0,0,0-2.162,3.6h-.974a2.884,2.884,0,0,0-.952.161,8.129,8.129,0,0,0,.232-1.391,9.177,9.177,0,0,1,9.108-8.434ZM14.708,23.194l-.915,3.66a.271.271,0,0,1-.526,0l-.915-3.66H2.9a.968.968,0,0,1-.966-.966V6.765A.968.968,0,0,1,2.9,5.8H28.612a11.049,11.049,0,0,0-1.3,4.42A6.2,6.2,0,0,1,24.849,14.7a4.157,4.157,0,0,0-1.655,3.31,4.111,4.111,0,0,0,1.212,2.926l.736.736a5.9,5.9,0,0,0,.313,1.518H14.708Zm4.62,3.6v-.055A1.6,1.6,0,0,1,19.8,25.6a1.62,1.62,0,0,1,1.151-.473h.1a1.545,1.545,0,0,1,1.19.558l.877,1.052L20.664,29.19l-.763-.872a2.313,2.313,0,0,1-.572-1.524Zm14.982,7.774L33.4,32.756a5.174,5.174,0,0,1,0-4.628l.318-.636-1.729-.864-.318.636a7.1,7.1,0,0,0-.455,5.2l-.515.686a4.132,4.132,0,0,1-3.292,1.64h-.061a3.94,3.94,0,0,1-2.965-1.346l-2.448-2.8,2.42-2.42,2.968,3.561,2-4.661a4.893,4.893,0,0,1,3.864-2.923l.6,1.488a5.249,5.249,0,0,0,9.747,0l.6-1.507a8.03,8.03,0,0,1,4.053,1.48l1.966,1.4a4.86,4.86,0,0,1,.211,7.75l-1.712,1.37L47.5,33.894l.423-.635a7.183,7.183,0,0,1,2.76-2.436l-.864-1.729a9.116,9.116,0,0,0-3.5,3.093l-.263.395a7.082,7.082,0,0,0-.417-5.319l-.318-.636-1.729.864.318.636a5.174,5.174,0,0,1,0,4.628L43,34.568a4.47,4.47,0,0,0-.454,2.5,4.871,4.871,0,0,0-.027.5,3,3,0,0,0,.22,1.129,6.233,6.233,0,0,0-4.083,2.221,5.784,5.784,0,0,0-3.871,0,6.27,6.27,0,0,0-1.211-1.12l.449-.673a4.554,4.554,0,0,0,.284-4.562ZM29.959,40.59a4.321,4.321,0,0,1,3.1,1.306,5.786,5.786,0,0,0-1.52,7.094,4.354,4.354,0,0,1-3.169,0,5.786,5.786,0,0,0-1.52-7.094,4.321,4.321,0,0,1,3.1-1.306Zm-2.9,5.8a3.866,3.866,0,1,1-3.866-3.866A3.87,3.87,0,0,1,27.06,46.388Zm-10.631-5.8a4.321,4.321,0,0,1,3.1,1.306,5.786,5.786,0,0,0-1.52,7.094,4.354,4.354,0,0,1-3.169,0,5.786,5.786,0,0,0-1.52-7.094,4.321,4.321,0,0,1,3.1-1.306ZM5.8,46.388a3.866,3.866,0,1,1,3.866,3.866A3.87,3.87,0,0,1,5.8,46.388Zm8.338,9.747.231,1.85H4.96l.231-1.85a4.507,4.507,0,0,1,8.945,0Z" transform="translate(0 0)"/>
        <path id="Trazado_1050213" data-name="Trazado 1050213" d="M305.763,104.777l-1.183-.592.7-2.1-1.834-.611-1.232,3.694,2.683,1.341Z" transform="translate(-265.707 -89.212)"/>
        <path id="Trazado_1050214" data-name="Trazado 1050214" d="M32,144h7.731v1.933H32Z" transform="translate(-28.134 -126.604)"/>
        <path id="Trazado_1050215" data-name="Trazado 1050215" d="M112,144h1.933v1.933H112Z" transform="translate(-98.47 -126.604)"/>
        <path id="Trazado_1050216" data-name="Trazado 1050216" d="M144,144h1.933v1.933H144Z" transform="translate(-126.604 -126.604)"/>
        <path id="Trazado_1050217" data-name="Trazado 1050217" d="M32,112H49.4v1.933H32Z" transform="translate(-28.134 -98.47)"/>
        <path id="Trazado_1050218" data-name="Trazado 1050218" d="M32,80H51.328v1.933H32Z" transform="translate(-28.134 -70.336)"/>
      </g>
    </g>
  </g>
</svg>
