<svg xmlns="http://www.w3.org/2000/svg" xmlns:xlink="http://www.w3.org/1999/xlink" width="113" height="113" viewBox="0 0 113 113">
  <defs>
    <filter id="Trazado_982547" x="0" y="0" width="113" height="113" filterUnits="userSpaceOnUse">
      <feOffset dy="3" input="SourceAlpha"/>
      <feGaussianBlur stdDeviation="3" result="blur"/>
      <feFlood flood-opacity="0.161"/>
      <feComposite operator="in" in2="blur"/>
      <feComposite in="SourceGraphic"/>
    </filter>
  </defs>
  <g id="Grupo_1206803" data-name="Grupo 1206803" transform="translate(-1037 -675.044)">
    <g id="Grupo_1202130" data-name="Grupo 1202130" transform="translate(840 -1032.373)">
      <g id="Grupo_1201889" data-name="Grupo 1201889" transform="translate(206 1713.417)">
        <g id="Grupo_1201680" data-name="Grupo 1201680">
          <g id="Grupo_1201330" data-name="Grupo 1201330">
            <g id="Grupo_1172010" data-name="Grupo 1172010">
              <g id="Grupo_1171046" data-name="Grupo 1171046">
                <g id="Grupo_1148525" data-name="Grupo 1148525">
                  <g transform="matrix(1, 0, 0, 1, -9, -6)" filter="url(#Trazado_982547)">
                    <g id="Trazado_982547-2" data-name="Trazado 982547" transform="translate(9 6)" fill="#fdfbec">
                      <path d="M 47.5 93.5 C 41.28937149047852 93.5 35.26533508300781 92.28397369384766 29.59518623352051 89.88570404052734 C 24.11771965026855 87.56893157958984 19.19813346862793 84.25196075439453 14.97309303283691 80.02691650390625 C 10.74804019927979 75.80186462402344 7.431066513061523 70.88229370117188 5.114293098449707 65.40481567382812 C 2.716026782989502 59.73468017578125 1.5 53.71062850952148 1.5 47.5 C 1.5 41.28937149047852 2.716026782989502 35.26533508300781 5.114293098449707 29.59518623352051 C 7.431066513061523 24.11771965026855 10.74804019927979 19.19813346862793 14.97309303283691 14.97309303283691 C 19.19813346862793 10.74804019927979 24.11771965026855 7.431066513061523 29.59518623352051 5.114293098449707 C 35.26533508300781 2.716026782989502 41.28937149047852 1.5 47.5 1.5 C 53.71062850952148 1.5 59.73468017578125 2.716026782989502 65.40481567382812 5.114293098449707 C 70.88229370117188 7.431066513061523 75.80186462402344 10.74804019927979 80.02691650390625 14.97309303283691 C 84.25196075439453 19.19813346862793 87.56893157958984 24.11771965026855 89.88570404052734 29.59518623352051 C 92.28397369384766 35.26533508300781 93.5 41.28937149047852 93.5 47.5 C 93.5 53.71062850952148 92.28397369384766 59.73468017578125 89.88570404052734 65.40481567382812 C 87.56893157958984 70.88229370117188 84.25196075439453 75.80186462402344 80.02691650390625 80.02691650390625 C 75.80186462402344 84.25196075439453 70.88229370117188 87.56893157958984 65.40481567382812 89.88570404052734 C 59.73468017578125 92.28397369384766 53.71062850952148 93.5 47.5 93.5 Z" stroke="none"/>
                      <path d="M 47.5 3 C 41.49121475219727 3 35.66376876831055 4.176155090332031 30.17950439453125 6.495796203613281 C 24.88084411621094 8.736953735351562 20.12152099609375 11.94598388671875 16.03375244140625 16.03375244140625 C 11.94598388671875 20.12152099609375 8.736953735351562 24.88084411621094 6.495796203613281 30.17950439453125 C 4.176155090332031 35.66376876831055 3 41.49121475219727 3 47.5 C 3 53.50878524780273 4.176155090332031 59.33623123168945 6.495796203613281 64.82049560546875 C 8.736953735351562 70.11915588378906 11.94598388671875 74.87847900390625 16.03375244140625 78.96624755859375 C 20.12152099609375 83.05401611328125 24.88084411621094 86.26304626464844 30.17950439453125 88.50419616699219 C 35.66376876831055 90.82384490966797 41.49121475219727 92 47.5 92 C 53.50878524780273 92 59.33623123168945 90.82384490966797 64.82049560546875 88.50419616699219 C 70.11915588378906 86.26304626464844 74.87847900390625 83.05401611328125 78.96624755859375 78.96624755859375 C 83.05401611328125 74.87847900390625 86.26304626464844 70.11915588378906 88.50419616699219 64.82049560546875 C 90.82384490966797 59.33623123168945 92 53.50878524780273 92 47.5 C 92 41.49121475219727 90.82384490966797 35.66376876831055 88.50419616699219 30.17950439453125 C 86.26304626464844 24.88084411621094 83.05401611328125 20.12152099609375 78.96624755859375 16.03375244140625 C 74.87847900390625 11.94598388671875 70.11915588378906 8.736953735351562 64.82049560546875 6.495796203613281 C 59.33623123168945 4.176155090332031 53.50878524780273 3 47.5 3 M 47.5 0 C 73.7335205078125 0 95 21.2664794921875 95 47.5 C 95 73.7335205078125 73.7335205078125 95 47.5 95 C 21.2664794921875 95 0 73.7335205078125 0 47.5 C 0 21.2664794921875 21.2664794921875 0 47.5 0 Z" stroke="none" fill="#83793c"/>
                    </g>
                  </g>
                </g>
              </g>
            </g>
          </g>
        </g>
      </g>
    </g>
    <g id="positive_3181727" transform="translate(1009.663 695.654)">
      <g id="Grupo_1206801" data-name="Grupo 1206801" transform="translate(59.068 0.964)">
        <g id="Grupo_1206799" data-name="Grupo 1206799" transform="translate(0 5.142)">
          <g id="Grupo_1206798" data-name="Grupo 1206798">
            <g id="Grupo_1206795" data-name="Grupo 1206795" transform="translate(0.396 29.372)">
              <path id="Trazado_1049683" data-name="Trazado 1049683" d="M72.434,285.723a4.884,4.884,0,1,1-.883-9.59Z" transform="translate(-66.298 -276.133)" fill="#b77e5a"/>
              <path id="Trazado_1049684" data-name="Trazado 1049684" d="M398.283,285.723a4.884,4.884,0,1,0,.883-9.59Z" transform="translate(-355.63 -276.133)" fill="#b77e5a"/>
            </g>
            <g id="Grupo_1206796" data-name="Grupo 1206796" transform="translate(5.243 8.371)">
              <path id="Trazado_1049685" data-name="Trazado 1049685" d="M141.855,143.547c.037.456.057.92.057,1.384,0,4.368-3.719,9.587-11.058,15.514a11.511,11.511,0,0,1-7.283,2.573h-.141a11.5,11.5,0,0,1-7.142-2.572c-7.339-5.927-11.058-11.145-11.058-15.514,0-.464.019-.928.057-1.384a23.479,23.479,0,0,0,.271-2.647c0-5.512-4.991-15.613,3.035-23.211,3.781-3.581,8.515-4.991,14.838-5.012h.141c6.393,0,11.17,1.4,14.979,5.012,8.026,7.6,3.035,17.7,3.035,23.211A23.477,23.477,0,0,0,141.855,143.547Z" transform="translate(-104.022 -112.678)" fill="#feaf82"/>
              <path id="Trazado_1049686" data-name="Trazado 1049686" d="M273.5,143.547c.037.456.057.92.057,1.384,0,4.368-3.719,9.587-11.058,15.514a11.511,11.511,0,0,1-7.283,2.573h-.141a8.489,8.489,0,0,0,5.869-2.572c6.029-5.927,9.085-11.145,9.085-15.514,0-.464-.015-.928-.046-1.384-.039-.474-.206-1.485-.224-2.647,0-5.512,4.1-15.613-2.492-23.211-3.107-3.581-7-4.991-12.191-5.012h.141c6.393,0,11.17,1.4,14.979,5.012,8.026,7.6,3.035,17.7,3.035,23.211A23.482,23.482,0,0,0,273.5,143.547Z" transform="translate(-235.664 -112.678)" fill="#df9f7a"/>
            </g>
            <g id="Grupo_1206797" data-name="Grupo 1206797">
              <circle id="Elipse_12960" data-name="Elipse 12960" cx="1.927" cy="1.927" r="1.927" fill="#f55c80"/>
              <circle id="Elipse_12961" data-name="Elipse 12961" cx="1.927" cy="1.927" r="1.927" transform="translate(45.598)" fill="#f55c80"/>
            </g>
          </g>
        </g>
        <g id="Grupo_1206800" data-name="Grupo 1206800" transform="translate(10.069)">
          <path id="Trazado_1049687" data-name="Trazado 1049687" d="M170.9,22.157a14.657,14.657,0,0,1-14.657,14.657q-.682,0-1.349-.063a14.656,14.656,0,0,1,0-29.188q.667-.064,1.349-.063A14.657,14.657,0,0,1,170.9,22.157Z" transform="translate(-141.586 -7.5)" fill="#ffd469"/>
          <path id="Trazado_1049688" data-name="Trazado 1049688" d="M261.172,22.157a14.657,14.657,0,0,1-14.657,14.657q-.682,0-1.349-.063a14.656,14.656,0,0,0,0-29.188q.667-.064,1.349-.063a14.657,14.657,0,0,1,14.657,14.657Z" transform="translate(-231.858 -7.5)" fill="#ffba4c"/>
        </g>
        <path id="Trazado_1049689" data-name="Trazado 1049689" d="M195.324,50.8A10.435,10.435,0,1,1,184.891,40.37,10.434,10.434,0,0,1,195.324,50.8Z" transform="translate(-160.165 -36.147)" fill="#5bc196"/>
        <path id="Trazado_1049690" data-name="Trazado 1049690" d="M255.642,50.8a10.435,10.435,0,0,1-11.975,10.319,10.434,10.434,0,0,0,0-20.639A10.435,10.435,0,0,1,255.642,50.8Z" transform="translate(-220.483 -36.147)" fill="#3eafa9"/>
      </g>
      <g id="Grupo_1206802" data-name="Grupo 1206802" transform="translate(58.457 0)">
        <path id="Trazado_1049691" data-name="Trazado 1049691" d="M73.965,93.605c-4.966-4.584-7.484-8.62-7.484-12,0-.435.018-.871.053-1.3.011-.11.035-.273.062-.462a17.731,17.731,0,0,0,.213-2.254c0-.006,0-.012,0-.018a29.483,29.483,0,0,0-.662-5.014,31.494,31.494,0,0,1-.763-9.126l2.3,1.71a.964.964,0,0,0,1.15-1.546l-3.065-2.279a12.557,12.557,0,0,1,1.494-3.494.964.964,0,1,0-1.636-1.019,14.54,14.54,0,0,0-1.516,3.279l-1.8-1.338V45.636a2.891,2.891,0,1,0-1.927,0v13.6a.964.964,0,0,0,.389.773l2.84,2.112a23.387,23.387,0,0,0,.051,7.345A5.728,5.728,0,0,0,58.5,75.233a5.847,5.847,0,0,0,5.841,5.841q.11,0,.22,0-.008.269-.008.538c0,3.937,2.727,8.45,8.1,13.414a.964.964,0,0,0,1.307-1.417ZM61.348,41.946a.964.964,0,1,1-.964.964A.965.965,0,0,1,61.348,41.946Zm-.92,33.287a3.828,3.828,0,0,1,3.541-3.864c.093.527.189,1.044.283,1.547a28.441,28.441,0,0,1,.63,4.652,13.742,13.742,0,0,1-.13,1.557,3.962,3.962,0,0,1-.41.021A3.918,3.918,0,0,1,60.428,75.233Z" transform="translate(-58.457 -34.877)"/>
        <path id="Trazado_1049692" data-name="Trazado 1049692" d="M220.423,69.465a23.268,23.268,0,0,0,.035-7.43l2.726-2.027a.964.964,0,0,0,.388-.773v-13.6a2.891,2.891,0,1,0-1.927,0V58.751l-1.695,1.26a14.54,14.54,0,0,0-1.491-3.2.964.964,0,1,0-1.636,1.019,12.546,12.546,0,0,1,1.473,3.413l-3.173,2.36a.964.964,0,1,0,1.15,1.546l2.42-1.8a31.218,31.218,0,0,1-.753,9.215,29.5,29.5,0,0,0-.662,5.014c0,.006,0,.012,0,.018a17.755,17.755,0,0,0,.213,2.254c.027.188.051.351.062.461.035.425.053.862.053,1.3,0,4.062-3.6,9.03-10.7,14.765a10.582,10.582,0,0,1-6.652,2.358H200.2a10.58,10.58,0,0,1-6.647-2.358.964.964,0,0,0-1.214,1.5,12.508,12.508,0,0,0,7.856,2.788h.064a12.512,12.512,0,0,0,7.859-2.787c7.575-6.118,11.416-11.59,11.416-16.263q0-.269-.008-.538.11,0,.22,0a5.847,5.847,0,0,0,5.841-5.841,5.729,5.729,0,0,0-5.162-5.768Zm2.186-27.519a.964.964,0,1,1-.964.964A.965.965,0,0,1,222.608,41.946Zm-2.864,37.2a3.964,3.964,0,0,1-.41-.021,13.747,13.747,0,0,1-.13-1.556,28.458,28.458,0,0,1,.63-4.653c.094-.5.19-1.02.283-1.547a3.828,3.828,0,0,1,3.541,3.864A3.918,3.918,0,0,1,219.744,79.146Z" transform="translate(-174.825 -34.877)"/>
        <path id="Trazado_1049693" data-name="Trazado 1049693" d="M236.032,361.789a.843.843,0,0,1,1.686,0,.964.964,0,1,0,1.927,0,2.77,2.77,0,0,0-5.54,0,.964.964,0,1,0,1.927,0Z" transform="translate(-211.538 -312.893)"/>
        <path id="Trazado_1049694" data-name="Trazado 1049694" d="M198.4,400.966a.964.964,0,1,0-1.679.945,8.565,8.565,0,0,0,14.932,0,.964.964,0,0,0-1.679-.945,6.638,6.638,0,0,1-11.573,0Z" transform="translate(-178.845 -349.023)"/>
        <path id="Trazado_1049695" data-name="Trazado 1049695" d="M171.611,305.821a.964.964,0,1,0,1.679-.945,5.29,5.29,0,0,0-9.223,0,.964.964,0,1,0,1.679.945,3.363,3.363,0,0,1,5.864,0Z" transform="translate(-150.391 -263.355)"/>
        <path id="Trazado_1049696" data-name="Trazado 1049696" d="M281.342,305.821a.964.964,0,1,0,1.679-.945,5.29,5.29,0,0,0-9.223,0,.964.964,0,1,0,1.679.945,3.363,3.363,0,0,1,5.864,0Z" transform="translate(-246.024 -263.355)"/>
        <path id="Trazado_1049697" data-name="Trazado 1049697" d="M149.707,31.24a.964.964,0,0,0,0-1.927,13.678,13.678,0,1,1,4.418-.728.964.964,0,0,0,.621,1.824,15.631,15.631,0,1,0-5.039.831Z" transform="translate(-124.37 0)"/>
        <path id="Trazado_1049698" data-name="Trazado 1049698" d="M169.649,48a.964.964,0,1,0-1.771.76,11.4,11.4,0,1,0-.918-4.488.964.964,0,1,0,1.927,0A9.461,9.461,0,1,1,169.649,48Z" transform="translate(-153.02 -28.649)"/>
        <path id="Trazado_1049699" data-name="Trazado 1049699" d="M224.235,102.054a.963.963,0,0,0,.681-.282l4.825-4.825a.964.964,0,0,0-1.363-1.363l-4.143,4.144L222.8,98.293a.964.964,0,0,0-1.363,1.363l2.116,2.116A.963.963,0,0,0,224.235,102.054Z" transform="translate(-200.252 -83.058)"/>
      </g>
    </g>
  </g>
</svg>
