<svg xmlns="http://www.w3.org/2000/svg" xmlns:xlink="http://www.w3.org/1999/xlink" width="113" height="113" viewBox="0 0 113 113">
  <defs>
    <filter id="Trazado_982547" x="0" y="0" width="113" height="113" filterUnits="userSpaceOnUse">
      <feOffset dy="3" input="SourceAlpha"/>
      <feGaussianBlur stdDeviation="3" result="blur"/>
      <feFlood flood-opacity="0.161"/>
      <feComposite operator="in" in2="blur"/>
      <feComposite in="SourceGraphic"/>
    </filter>
  </defs>
  <g id="Grupo_1206685" data-name="Grupo 1206685" transform="translate(-197 -1707.417)">
    <g id="Grupo_1201889" data-name="Grupo 1201889" transform="translate(206 1713.417)">
      <g id="Grupo_1201680" data-name="Grupo 1201680">
        <g id="Grupo_1201330" data-name="Grupo 1201330">
          <g id="Grupo_1172010" data-name="Grupo 1172010">
            <g id="Grupo_1171046" data-name="Grupo 1171046">
              <g id="Grupo_1148525" data-name="Grupo 1148525">
                <g transform="matrix(1, 0, 0, 1, -9, -6)" filter="url(#Trazado_982547)">
                  <g id="Trazado_982547-2" data-name="Trazado 982547" transform="translate(9 6)" fill="#fdfbec">
                    <path d="M 47.5 93.5 C 41.28937149047852 93.5 35.26533508300781 92.28397369384766 29.59518623352051 89.88570404052734 C 24.11771965026855 87.56893157958984 19.19813346862793 84.25196075439453 14.97309303283691 80.02691650390625 C 10.74804019927979 75.80186462402344 7.431066513061523 70.88229370117188 5.114293098449707 65.40481567382812 C 2.716026782989502 59.73468017578125 1.5 53.71062850952148 1.5 47.5 C 1.5 41.28937149047852 2.716026782989502 35.26533508300781 5.114293098449707 29.59518623352051 C 7.431066513061523 24.11771965026855 10.74804019927979 19.19813346862793 14.97309303283691 14.97309303283691 C 19.19813346862793 10.74804019927979 24.11771965026855 7.431066513061523 29.59518623352051 5.114293098449707 C 35.26533508300781 2.716026782989502 41.28937149047852 1.5 47.5 1.5 C 53.71062850952148 1.5 59.73468017578125 2.716026782989502 65.40481567382812 5.114293098449707 C 70.88229370117188 7.431066513061523 75.80186462402344 10.74804019927979 80.02691650390625 14.97309303283691 C 84.25196075439453 19.19813346862793 87.56893157958984 24.11771965026855 89.88570404052734 29.59518623352051 C 92.28397369384766 35.26533508300781 93.5 41.28937149047852 93.5 47.5 C 93.5 53.71062850952148 92.28397369384766 59.73468017578125 89.88570404052734 65.40481567382812 C 87.56893157958984 70.88229370117188 84.25196075439453 75.80186462402344 80.02691650390625 80.02691650390625 C 75.80186462402344 84.25196075439453 70.88229370117188 87.56893157958984 65.40481567382812 89.88570404052734 C 59.73468017578125 92.28397369384766 53.71062850952148 93.5 47.5 93.5 Z" stroke="none"/>
                    <path d="M 47.5 3 C 41.49121475219727 3 35.66376876831055 4.176155090332031 30.17950439453125 6.495796203613281 C 24.88084411621094 8.736953735351562 20.12152099609375 11.94598388671875 16.03375244140625 16.03375244140625 C 11.94598388671875 20.12152099609375 8.736953735351562 24.88084411621094 6.495796203613281 30.17950439453125 C 4.176155090332031 35.66376876831055 3 41.49121475219727 3 47.5 C 3 53.50878524780273 4.176155090332031 59.33623123168945 6.495796203613281 64.82049560546875 C 8.736953735351562 70.11915588378906 11.94598388671875 74.87847900390625 16.03375244140625 78.96624755859375 C 20.12152099609375 83.05401611328125 24.88084411621094 86.26304626464844 30.17950439453125 88.50419616699219 C 35.66376876831055 90.82384490966797 41.49121475219727 92 47.5 92 C 53.50878524780273 92 59.33623123168945 90.82384490966797 64.82049560546875 88.50419616699219 C 70.11915588378906 86.26304626464844 74.87847900390625 83.05401611328125 78.96624755859375 78.96624755859375 C 83.05401611328125 74.87847900390625 86.26304626464844 70.11915588378906 88.50419616699219 64.82049560546875 C 90.82384490966797 59.33623123168945 92 53.50878524780273 92 47.5 C 92 41.49121475219727 90.82384490966797 35.66376876831055 88.50419616699219 30.17950439453125 C 86.26304626464844 24.88084411621094 83.05401611328125 20.12152099609375 78.96624755859375 16.03375244140625 C 74.87847900390625 11.94598388671875 70.11915588378906 8.736953735351562 64.82049560546875 6.495796203613281 C 59.33623123168945 4.176155090332031 53.50878524780273 3 47.5 3 M 47.5 0 C 73.7335205078125 0 95 21.2664794921875 95 47.5 C 95 73.7335205078125 73.7335205078125 95 47.5 95 C 21.2664794921875 95 0 73.7335205078125 0 47.5 C 0 21.2664794921875 21.2664794921875 0 47.5 0 Z" stroke="none" fill="#83793c"/>
                  </g>
                </g>
              </g>
            </g>
          </g>
        </g>
      </g>
    </g>
    <g id="FillOutline" transform="translate(221.74 1728.746)">
      <rect id="Rectángulo_417748" data-name="Rectángulo 417748" width="46" height="39" transform="translate(9 9)" fill="#dfd9d3"/>
      <rect id="Rectángulo_417749" data-name="Rectángulo 417749" width="50" height="4" transform="translate(7 7)" fill="#196aaf"/>
      <rect id="Rectángulo_417750" data-name="Rectángulo 417750" width="14" height="6" transform="translate(13 38)" fill="#56a8c6"/>
      <path id="Trazado_1047601" data-name="Trazado 1047601" d="M39,29l-4,2,4,2h2V29Z" fill="#196aaf"/>
      <path id="Trazado_1047602" data-name="Trazado 1047602" d="M57,29H41v4H57a2,2,0,0,0,0-4Z" fill="#56a8c6"/>
      <rect id="Rectángulo_417751" data-name="Rectángulo 417751" width="28" height="6" transform="translate(31 38)" fill="#196aaf"/>
      <path id="Trazado_1047603" data-name="Trazado 1047603" d="M28,25V22.162a10,10,0,1,0-8,0V25Z" fill="#f7931e"/>
      <path id="Trazado_1047604" data-name="Trazado 1047604" d="M20,29l2,4h4l2-4Z" fill="#6e6350"/>
      <rect id="Rectángulo_417752" data-name="Rectángulo 417752" width="10" height="4" transform="translate(19 25)" fill="#95866d"/>
      <path id="Trazado_1047605" data-name="Trazado 1047605" d="M27,37H13a1,1,0,0,0-1,1v6a1,1,0,0,0,1,1H27a1,1,0,0,0,1-1V38A1,1,0,0,0,27,37Zm-1,6H14V39H26Z"/>
      <path id="Trazado_1047606" data-name="Trazado 1047606" d="M8,53h3V51H8a2,2,0,0,1-2-2V30H4V49A4,4,0,0,0,8,53Z"/>
      <rect id="Rectángulo_417753" data-name="Rectángulo 417753" width="19" height="2" transform="translate(36 2)"/>
      <rect id="Rectángulo_417754" data-name="Rectángulo 417754" width="13" height="2" transform="translate(42 51)"/>
      <path id="Trazado_1047607" data-name="Trazado 1047607" d="M57,34a3,3,0,1,0,0-6H56V12h1a1,1,0,0,0,1-1V7a1,1,0,0,0-1-1H32.479A10.987,10.987,0,0,0,15.521,6H7A1,1,0,0,0,6,7v4a1,1,0,0,0,1,1H8V48a1,1,0,0,0,1,1H31v3.586L23.586,60H14v2H50V60H40.414L33,52.586V49H55a1,1,0,0,0,1-1V45h3a1,1,0,0,0,1-1V38a1,1,0,0,0-1-1H56V34ZM26.414,60,31,55.414V60Zm11.172,0H33V55.414ZM58,31a1,1,0,0,1-1,1H42V30H57A1,1,0,0,1,58,31ZM39.236,32l-2-1,2-1H40v2ZM56,8v2H34.574a10.974,10.974,0,0,0-.788-2ZM24,4a9,9,0,0,1,3.6,17.246,1,1,0,0,0-.6.916V24H25V19.414l3.707-3.707-1.414-1.414L24,17.586l-3.293-3.293-1.414,1.414L23,19.414V24H21V22.162a1,1,0,0,0-.6-.916A9,9,0,0,1,24,4Zm4,22v2H20V26Zm-1.618,4-1,2H22.618l-1-2ZM8,8h6.214a10.974,10.974,0,0,0-.788,2H8ZM58,43H32V39h2v2h2V39h2v2h2V39h2v2h2V39h2v2h2V39h2v2h2V39h2v2h2V39h2Zm-4-6H31a1,1,0,0,0-1,1v6a1,1,0,0,0,1,1H54v2H10V12h3.051c-.03.33-.051.662-.051,1a11,11,0,0,0,6,9.8L19,24a1,1,0,0,0-1,1v4a1,1,0,0,0,1,1h.382L21.1,33.447A1,1,0,0,0,22,34h4a1,1,0,0,0,.9-.553L28.618,30H29a1,1,0,0,0,1-1V25a1,1,0,0,0-1-1V22.8A11,11,0,0,0,35,13c0-.338-.021-.67-.051-1H54V28H39a1,1,0,0,0-.447.105l-4,2a1,1,0,0,0,0,1.79l4,2A1,1,0,0,0,39,34H54Z"/>
      <path id="Trazado_1047608" data-name="Trazado 1047608" d="M26.9,8.925a4.965,4.965,0,0,1,2.033,3.242l1.972-.334A7,7,0,0,0,22.833,6.1l.334,1.972a4.966,4.966,0,0,1,3.733.853Z"/>
      <rect id="Rectángulo_417755" data-name="Rectángulo 417755" width="2" height="2" transform="translate(38 15)"/>
      <rect id="Rectángulo_417756" data-name="Rectángulo 417756" width="9" height="2" transform="translate(42 15)"/>
      <rect id="Rectángulo_417757" data-name="Rectángulo 417757" width="13" height="2" transform="translate(38 19)"/>
      <rect id="Rectángulo_417758" data-name="Rectángulo 417758" width="13" height="2" transform="translate(38 23)"/>
      <rect id="Rectángulo_417759" data-name="Rectángulo 417759" width="2" height="2" transform="translate(4 26)"/>
      <rect id="Rectángulo_417760" data-name="Rectángulo 417760" width="2" height="2" transform="translate(10 60)"/>
    </g>
  </g>
</svg>
