<svg xmlns="http://www.w3.org/2000/svg" xmlns:xlink="http://www.w3.org/1999/xlink" width="113" height="113" viewBox="0 0 113 113">
  <defs>
    <filter id="Trazado_982547" x="0" y="0" width="113" height="113" filterUnits="userSpaceOnUse">
      <feOffset dy="3" input="SourceAlpha"/>
      <feGaussianBlur stdDeviation="3" result="blur"/>
      <feFlood flood-opacity="0.161"/>
      <feComposite operator="in" in2="blur"/>
      <feComposite in="SourceGraphic"/>
    </filter>
  </defs>
  <g id="Grupo_1206824" data-name="Grupo 1206824" transform="translate(-197 -1666.044)">
    <g id="Grupo_1202137" data-name="Grupo 1202137" transform="translate(0 -41.373)">
      <g id="Grupo_1201889" data-name="Grupo 1201889" transform="translate(206 1713.417)">
        <g id="Grupo_1201680" data-name="Grupo 1201680">
          <g id="Grupo_1201330" data-name="Grupo 1201330">
            <g id="Grupo_1172010" data-name="Grupo 1172010">
              <g id="Grupo_1171046" data-name="Grupo 1171046">
                <g id="Grupo_1148525" data-name="Grupo 1148525">
                  <g transform="matrix(1, 0, 0, 1, -9, -6)" filter="url(#Trazado_982547)">
                    <g id="Trazado_982547-2" data-name="Trazado 982547" transform="translate(9 6)" fill="#fdfbec">
                      <path d="M 47.5 93.5 C 41.28937149047852 93.5 35.26533508300781 92.28397369384766 29.59518623352051 89.88570404052734 C 24.11771965026855 87.56893157958984 19.19813346862793 84.25196075439453 14.97309303283691 80.02691650390625 C 10.74804019927979 75.80186462402344 7.431066513061523 70.88229370117188 5.114293098449707 65.40481567382812 C 2.716026782989502 59.73468017578125 1.5 53.71062850952148 1.5 47.5 C 1.5 41.28937149047852 2.716026782989502 35.26533508300781 5.114293098449707 29.59518623352051 C 7.431066513061523 24.11771965026855 10.74804019927979 19.19813346862793 14.97309303283691 14.97309303283691 C 19.19813346862793 10.74804019927979 24.11771965026855 7.431066513061523 29.59518623352051 5.114293098449707 C 35.26533508300781 2.716026782989502 41.28937149047852 1.5 47.5 1.5 C 53.71062850952148 1.5 59.73468017578125 2.716026782989502 65.40481567382812 5.114293098449707 C 70.88229370117188 7.431066513061523 75.80186462402344 10.74804019927979 80.02691650390625 14.97309303283691 C 84.25196075439453 19.19813346862793 87.56893157958984 24.11771965026855 89.88570404052734 29.59518623352051 C 92.28397369384766 35.26533508300781 93.5 41.28937149047852 93.5 47.5 C 93.5 53.71062850952148 92.28397369384766 59.73468017578125 89.88570404052734 65.40481567382812 C 87.56893157958984 70.88229370117188 84.25196075439453 75.80186462402344 80.02691650390625 80.02691650390625 C 75.80186462402344 84.25196075439453 70.88229370117188 87.56893157958984 65.40481567382812 89.88570404052734 C 59.73468017578125 92.28397369384766 53.71062850952148 93.5 47.5 93.5 Z" stroke="none"/>
                      <path d="M 47.5 3 C 41.49121475219727 3 35.66376876831055 4.176155090332031 30.17950439453125 6.495796203613281 C 24.88084411621094 8.736953735351562 20.12152099609375 11.94598388671875 16.03375244140625 16.03375244140625 C 11.94598388671875 20.12152099609375 8.736953735351562 24.88084411621094 6.495796203613281 30.17950439453125 C 4.176155090332031 35.66376876831055 3 41.49121475219727 3 47.5 C 3 53.50878524780273 4.176155090332031 59.33623123168945 6.495796203613281 64.82049560546875 C 8.736953735351562 70.11915588378906 11.94598388671875 74.87847900390625 16.03375244140625 78.96624755859375 C 20.12152099609375 83.05401611328125 24.88084411621094 86.26304626464844 30.17950439453125 88.50419616699219 C 35.66376876831055 90.82384490966797 41.49121475219727 92 47.5 92 C 53.50878524780273 92 59.33623123168945 90.82384490966797 64.82049560546875 88.50419616699219 C 70.11915588378906 86.26304626464844 74.87847900390625 83.05401611328125 78.96624755859375 78.96624755859375 C 83.05401611328125 74.87847900390625 86.26304626464844 70.11915588378906 88.50419616699219 64.82049560546875 C 90.82384490966797 59.33623123168945 92 53.50878524780273 92 47.5 C 92 41.49121475219727 90.82384490966797 35.66376876831055 88.50419616699219 30.17950439453125 C 86.26304626464844 24.88084411621094 83.05401611328125 20.12152099609375 78.96624755859375 16.03375244140625 C 74.87847900390625 11.94598388671875 70.11915588378906 8.736953735351562 64.82049560546875 6.495796203613281 C 59.33623123168945 4.176155090332031 53.50878524780273 3 47.5 3 M 47.5 0 C 73.7335205078125 0 95 21.2664794921875 95 47.5 C 95 73.7335205078125 73.7335205078125 95 47.5 95 C 21.2664794921875 95 0 73.7335205078125 0 47.5 C 0 21.2664794921875 21.2664794921875 0 47.5 0 Z" stroke="none" fill="#83793c"/>
                    </g>
                  </g>
                </g>
              </g>
            </g>
          </g>
        </g>
      </g>
    </g>
    <g id="labour-day_10342281" transform="translate(214.528 1683.044)">
      <g id="Grupo_1206813" data-name="Grupo 1206813" transform="translate(8.608 7.5)">
        <g id="Grupo_1206805" data-name="Grupo 1206805" transform="translate(0)">
          <g id="Grupo_1206804" data-name="Grupo 1206804">
            <path id="Trazado_1049700" data-name="Trazado 1049700" d="M69.336,40.926V35.074a1.225,1.225,0,0,0-1.222-1.227H63.606a25.019,25.019,0,0,0-4.3-10.4L62.5,20.238a1.231,1.231,0,0,0,0-1.736l-4.119-4.137a1.218,1.218,0,0,0-1.728,0l-3.195,3.209a24.787,24.787,0,0,0-10.354-4.318V8.727A1.225,1.225,0,0,0,41.885,7.5H36.059a1.225,1.225,0,0,0-1.222,1.227v4.528a24.788,24.788,0,0,0-10.354,4.318l-3.195-3.209a1.218,1.218,0,0,0-1.728,0L15.442,18.5a1.231,1.231,0,0,0,0,1.736l3.195,3.209a25.019,25.019,0,0,0-4.3,10.4H9.83a1.225,1.225,0,0,0-1.222,1.227v5.851A1.225,1.225,0,0,0,9.83,42.153h4.508a25.019,25.019,0,0,0,4.3,10.4l-3.195,3.209a1.231,1.231,0,0,0,0,1.736l4.119,4.137a1.218,1.218,0,0,0,1.728,0l3.195-3.209a24.791,24.791,0,0,0,10.354,4.318v4.528A1.225,1.225,0,0,0,36.059,68.5h5.825a1.225,1.225,0,0,0,1.222-1.227V62.744A24.788,24.788,0,0,0,53.46,58.426l3.195,3.209a1.218,1.218,0,0,0,1.728,0L62.5,57.5a1.231,1.231,0,0,0,0-1.736l-3.195-3.209a25.019,25.019,0,0,0,4.3-10.4h4.508A1.225,1.225,0,0,0,69.336,40.926ZM38.972,54.784A16.784,16.784,0,1,1,55.681,38,16.766,16.766,0,0,1,38.972,54.784Z" transform="translate(-8.608 -7.5)" fill="#1c96f9"/>
          </g>
        </g>
        <path id="Trazado_1049701" data-name="Trazado 1049701" d="M255.592,33.847h-4.508a25.02,25.02,0,0,0-4.3-10.4l3.195-3.209a1.231,1.231,0,0,0,0-1.736l-4.119-4.137a1.218,1.218,0,0,0-1.728,0l-3.195,3.209a24.79,24.79,0,0,0-10.354-4.318V8.727A1.225,1.225,0,0,0,229.362,7.5h-5.825a1.225,1.225,0,0,0-1.222,1.227V13.1a24.9,24.9,0,0,1,0,49.8v4.372a1.225,1.225,0,0,0,1.222,1.227h5.825a1.225,1.225,0,0,0,1.222-1.227V62.744a24.788,24.788,0,0,0,10.354-4.318l3.195,3.209a1.218,1.218,0,0,0,1.728,0l4.119-4.137a1.231,1.231,0,0,0,0-1.736l-3.195-3.209a25.019,25.019,0,0,0,4.3-10.4h4.508a1.225,1.225,0,0,0,1.222-1.227V35.074A1.224,1.224,0,0,0,255.592,33.847Z" transform="translate(-196.085 -7.5)" fill="#1475cb"/>
        <g id="Grupo_1206812" data-name="Grupo 1206812" transform="translate(15.754 2.967)">
          <g id="Grupo_1206811" data-name="Grupo 1206811">
            <g id="Grupo_1206810" data-name="Grupo 1206810">
              <g id="Grupo_1206806" data-name="Grupo 1206806" transform="translate(5.979 7.016)">
                <path id="Trazado_1049702" data-name="Trazado 1049702" d="M205.862,88.837v9.727a6.161,6.161,0,0,1-.875,3.163l-2.063,3.445a5.3,5.3,0,0,0-.754,2.727v16.26a16.613,16.613,0,0,1-16.5-.441V88.837Z" transform="translate(-185.675 -88.837)" fill="#fdb0a0"/>
                <path id="Trazado_1049703" data-name="Trazado 1049703" d="M185.676,88.841v13.592H193.5a5.165,5.165,0,0,0,2.246-1.41,2.829,2.829,0,0,0,1.561.468h0a2.859,2.859,0,0,0,2.852-2.865V98.38a2.859,2.859,0,0,0,2.852,2.865h0a2.859,2.859,0,0,0,2.852-2.865V88.841Z" transform="translate(-185.676 -88.841)" fill="#f89f8e"/>
              </g>
              <g id="Grupo_1206807" data-name="Grupo 1206807" transform="translate(3.346)">
                <path id="Trazado_1049704" data-name="Trazado 1049704" d="M167.078,46.2h0a2.852,2.852,0,0,1-2.852-2.852v-8.82a2.852,2.852,0,0,1,2.852-2.852h0a2.852,2.852,0,0,1,2.852,2.852v8.82A2.852,2.852,0,0,1,167.078,46.2Z" transform="translate(-164.226 -31.671)" fill="#ffcec0"/>
                <path id="Trazado_1049705" data-name="Trazado 1049705" d="M213.558,48.2h0a2.852,2.852,0,0,1-2.852-2.852v-8.82a2.852,2.852,0,0,1,2.852-2.852h0a2.852,2.852,0,0,1,2.852,2.852v8.82A2.853,2.853,0,0,1,213.558,48.2Z" transform="translate(-205.001 -33.426)" fill="#ffcec0"/>
                <path id="Trazado_1049706" data-name="Trazado 1049706" d="M260.037,52.2h0a2.852,2.852,0,0,1-2.852-2.852v-8.82a2.852,2.852,0,0,1,2.852-2.852h0a2.852,2.852,0,0,1,2.852,2.852v8.82A2.852,2.852,0,0,1,260.037,52.2Z" transform="translate(-245.776 -36.937)" fill="#ffcec0"/>
              </g>
              <g id="Grupo_1206808" data-name="Grupo 1206808" transform="translate(0 9.495)">
                <path id="Trazado_1049707" data-name="Trazado 1049707" d="M153.034,124.995v18.792q-.722.064-1.461.064a16.544,16.544,0,0,1-9.329-2.868V125.17a5.534,5.534,0,0,0-1.024-3.208l-2.919-4.11a7.258,7.258,0,0,1-1.338-4.2,4.617,4.617,0,0,1,4.607-4.627h11.094a1.749,1.749,0,0,1,1.745,1.751,5.178,5.178,0,0,1-5.166,5.189h-1.6S153.034,117.37,153.034,124.995Z" transform="translate(-136.962 -109.028)" fill="#ffcec0"/>
              </g>
              <g id="Grupo_1206809" data-name="Grupo 1206809" transform="translate(20.461 2.211)">
                <path id="Trazado_1049708" data-name="Trazado 1049708" d="M306.517,62.488h0a2.852,2.852,0,0,1-2.852-2.852v-7.1a2.852,2.852,0,0,1,2.852-2.852h0a2.852,2.852,0,0,1,2.852,2.852v7.1A2.852,2.852,0,0,1,306.517,62.488Z" transform="translate(-303.665 -49.682)" fill="#ffcec0"/>
              </g>
            </g>
          </g>
        </g>
      </g>
      <g id="Grupo_1206823" data-name="Grupo 1206823" transform="translate(8.608 7.5)">
        <g id="Grupo_1206815" data-name="Grupo 1206815" transform="translate(0)">
          <g id="Grupo_1206814" data-name="Grupo 1206814">
            <path id="Trazado_1049709" data-name="Trazado 1049709" d="M27.708,62.105a24.964,24.964,0,0,0-3.224,1.963L21.289,60.86a1.218,1.218,0,0,0-1.728,0L15.442,65a1.231,1.231,0,0,0,0,1.736l3.195,3.209a25.019,25.019,0,0,0-4.3,10.4H9.83A1.225,1.225,0,0,0,8.608,81.57v5.851A1.225,1.225,0,0,0,9.83,88.648h4.508a25.019,25.019,0,0,0,4.3,10.4l-3.195,3.209a1.231,1.231,0,0,0,0,1.736l4.119,4.137a1.218,1.218,0,0,0,1.728,0l3.195-3.209a24.791,24.791,0,0,0,10.354,4.318v4.528A1.225,1.225,0,0,0,36.059,115h5.825a1.225,1.225,0,0,0,1.222-1.227v-4.528a24.7,24.7,0,0,0,3.4-.825" transform="translate(-8.608 -53.995)" fill="none" stroke="#000" stroke-linecap="round" stroke-linejoin="round" stroke-miterlimit="10" stroke-width="1.5"/>
            <path id="Trazado_1049710" data-name="Trazado 1049710" d="M230.584,11.362V8.727A1.225,1.225,0,0,0,229.362,7.5h-5.825a1.225,1.225,0,0,0-1.222,1.227v2.266" transform="translate(-196.085 -7.5)" fill="none" stroke="#000" stroke-linecap="round" stroke-linejoin="round" stroke-miterlimit="10" stroke-width="1.5"/>
            <path id="Trazado_1049711" data-name="Trazado 1049711" d="M347.742,106.884a24.959,24.959,0,0,0,3.228-1.963l3.195,3.209a1.218,1.218,0,0,0,1.728,0l4.119-4.137a1.231,1.231,0,0,0,0-1.736l-3.195-3.209a25.02,25.02,0,0,0,4.3-10.4h4.508a1.225,1.225,0,0,0,1.222-1.227V81.57a1.225,1.225,0,0,0-1.222-1.227h-4.508a25.02,25.02,0,0,0-4.3-10.4l3.195-3.209a1.231,1.231,0,0,0,0-1.736l-4.119-4.137a1.218,1.218,0,0,0-1.728,0l-3.195,3.209a24.994,24.994,0,0,0-2.829-1.758" transform="translate(-306.118 -53.995)" fill="none" stroke="#000" stroke-linecap="round" stroke-linejoin="round" stroke-miterlimit="10" stroke-width="1.5"/>
          </g>
        </g>
        <g id="Grupo_1206822" data-name="Grupo 1206822" transform="translate(15.754 2.967)">
          <path id="Trazado_1049712" data-name="Trazado 1049712" d="M223.989,165.576s5.391,1.4,5.391,9.027" transform="translate(-213.308 -149.141)" fill="none" stroke="#000" stroke-linecap="round" stroke-linejoin="round" stroke-miterlimit="10" stroke-width="1.5"/>
          <g id="Grupo_1206821" data-name="Grupo 1206821">
            <g id="Grupo_1206820" data-name="Grupo 1206820">
              <g id="Grupo_1206816" data-name="Grupo 1206816" transform="translate(22.475 12.164)">
                <path id="Trazado_1049713" data-name="Trazado 1049713" d="M323.767,130.777v4.578a6.157,6.157,0,0,1-.874,3.163l-2.064,3.446a5.315,5.315,0,0,0-.753,2.727v16.052" transform="translate(-320.077 -130.777)" fill="none" stroke="#000" stroke-linecap="round" stroke-linejoin="round" stroke-miterlimit="10" stroke-width="1.5"/>
              </g>
              <g id="Grupo_1206817" data-name="Grupo 1206817" transform="translate(3.346)">
                <path id="Trazado_1049714" data-name="Trazado 1049714" d="M164.226,41.166V34.523a2.852,2.852,0,0,1,2.852-2.852h0a2.852,2.852,0,0,1,2.852,2.852v.246" transform="translate(-164.226 -31.671)" fill="none" stroke="#000" stroke-linecap="round" stroke-linejoin="round" stroke-miterlimit="10" stroke-width="1.5"/>
                <path id="Trazado_1049715" data-name="Trazado 1049715" d="M210.706,42.742V36.524a2.852,2.852,0,0,1,2.852-2.852h0a2.852,2.852,0,0,1,2.852,2.852v.491" transform="translate(-205.001 -33.426)" fill="none" stroke="#000" stroke-linecap="round" stroke-linejoin="round" stroke-miterlimit="10" stroke-width="1.5"/>
                <path id="Trazado_1049716" data-name="Trazado 1049716" d="M257.185,46.253V40.526a2.852,2.852,0,0,1,2.852-2.852h0a2.852,2.852,0,0,1,2.852,2.852V42" transform="translate(-245.776 -36.937)" fill="none" stroke="#000" stroke-linecap="round" stroke-linejoin="round" stroke-miterlimit="10" stroke-width="1.5"/>
                <path id="Trazado_1049717" data-name="Trazado 1049717" d="M272.3,130.777v.246a2.852,2.852,0,0,1-2.852,2.852h0a2.839,2.839,0,0,1-1.536-.448" transform="translate(-255.184 -118.613)" fill="none" stroke="#000" stroke-linecap="round" stroke-linejoin="round" stroke-miterlimit="10" stroke-width="1.5"/>
              </g>
              <g id="Grupo_1206818" data-name="Grupo 1206818" transform="translate(0 9.494)">
                <path id="Trazado_1049718" data-name="Trazado 1049718" d="M223.989,165.576s5.391,1.4,5.391,9.027" transform="translate(-213.308 -158.635)" fill="none" stroke="#000" stroke-linecap="round" stroke-linejoin="round" stroke-miterlimit="10" stroke-width="1.5"/>
                <path id="Trazado_1049719" data-name="Trazado 1049719" d="M145.3,115.966h3.945a5.177,5.177,0,0,0,5.166-5.189h0a1.748,1.748,0,0,0-1.745-1.752H141.57a4.617,4.617,0,0,0-4.607,4.628,7.246,7.246,0,0,0,1.338,4.2l2.92,4.11a5.54,5.54,0,0,1,1.023,3.208v3.815" transform="translate(-136.963 -109.025)" fill="none" stroke="#000" stroke-linecap="round" stroke-linejoin="round" stroke-miterlimit="10" stroke-width="1.5"/>
                <line id="Línea_1211" data-name="Línea 1211" y2="7.629" transform="translate(5.28 24.028)" fill="none" stroke="#000" stroke-linecap="round" stroke-linejoin="round" stroke-miterlimit="10" stroke-width="1.5"/>
              </g>
              <g id="Grupo_1206819" data-name="Grupo 1206819" transform="translate(20.46 2.211)">
                <path id="Trazado_1049720" data-name="Trazado 1049720" d="M306.517,62.488h0a2.852,2.852,0,0,1-2.852-2.852v-7.1a2.852,2.852,0,0,1,2.852-2.852h0a2.852,2.852,0,0,1,2.852,2.852v7.1A2.852,2.852,0,0,1,306.517,62.488Z" transform="translate(-303.665 -49.682)" fill="none" stroke="#000" stroke-linecap="round" stroke-linejoin="round" stroke-miterlimit="10" stroke-width="1.5"/>
              </g>
            </g>
          </g>
        </g>
        <path id="Trazado_1049721" data-name="Trazado 1049721" d="M122.73,179.46a16.712,16.712,0,1,0,29.653,3.968" transform="translate(-106.206 -158.354)" fill="none" stroke="#000" stroke-linecap="round" stroke-linejoin="round" stroke-miterlimit="10" stroke-width="1.5"/>
        <path id="Trazado_1049722" data-name="Trazado 1049722" d="M352.988,160.675a16.9,16.9,0,0,0-2.408-2.935" transform="translate(-308.608 -139.3)" fill="none" stroke="#000" stroke-linecap="round" stroke-linejoin="round" stroke-miterlimit="10" stroke-width="1.5"/>
      </g>
    </g>
  </g>
</svg>
