<svg xmlns="http://www.w3.org/2000/svg" xmlns:xlink="http://www.w3.org/1999/xlink" width="113" height="113" viewBox="0 0 113 113">
  <defs>
    <filter id="Trazado_982547" x="0" y="0" width="113" height="113" filterUnits="userSpaceOnUse">
      <feOffset dy="3" input="SourceAlpha"/>
      <feGaussianBlur stdDeviation="3" result="blur"/>
      <feFlood flood-opacity="0.161"/>
      <feComposite operator="in" in2="blur"/>
      <feComposite in="SourceGraphic"/>
    </filter>
  </defs>
  <g id="Grupo_1207089" data-name="Grupo 1207089" transform="translate(-617 -1666)">
    <g id="Grupo_1202138" data-name="Grupo 1202138" transform="translate(420 -41.417)">
      <g id="Grupo_1201889" data-name="Grupo 1201889" transform="translate(206 1713.417)">
        <g id="Grupo_1201680" data-name="Grupo 1201680">
          <g id="Grupo_1201330" data-name="Grupo 1201330">
            <g id="Grupo_1172010" data-name="Grupo 1172010">
              <g id="Grupo_1171046" data-name="Grupo 1171046">
                <g id="Grupo_1148525" data-name="Grupo 1148525">
                  <g transform="matrix(1, 0, 0, 1, -9, -6)" filter="url(#Trazado_982547)">
                    <g id="Trazado_982547-2" data-name="Trazado 982547" transform="translate(9 6)" fill="#fdfbec">
                      <path d="M 47.5 93.5 C 41.28937149047852 93.5 35.26533508300781 92.28397369384766 29.59518623352051 89.88570404052734 C 24.11771965026855 87.56893157958984 19.19813346862793 84.25196075439453 14.97309303283691 80.02691650390625 C 10.74804019927979 75.80186462402344 7.431066513061523 70.88229370117188 5.114293098449707 65.40481567382812 C 2.716026782989502 59.73468017578125 1.5 53.71062850952148 1.5 47.5 C 1.5 41.28937149047852 2.716026782989502 35.26533508300781 5.114293098449707 29.59518623352051 C 7.431066513061523 24.11771965026855 10.74804019927979 19.19813346862793 14.97309303283691 14.97309303283691 C 19.19813346862793 10.74804019927979 24.11771965026855 7.431066513061523 29.59518623352051 5.114293098449707 C 35.26533508300781 2.716026782989502 41.28937149047852 1.5 47.5 1.5 C 53.71062850952148 1.5 59.73468017578125 2.716026782989502 65.40481567382812 5.114293098449707 C 70.88229370117188 7.431066513061523 75.80186462402344 10.74804019927979 80.02691650390625 14.97309303283691 C 84.25196075439453 19.19813346862793 87.56893157958984 24.11771965026855 89.88570404052734 29.59518623352051 C 92.28397369384766 35.26533508300781 93.5 41.28937149047852 93.5 47.5 C 93.5 53.71062850952148 92.28397369384766 59.73468017578125 89.88570404052734 65.40481567382812 C 87.56893157958984 70.88229370117188 84.25196075439453 75.80186462402344 80.02691650390625 80.02691650390625 C 75.80186462402344 84.25196075439453 70.88229370117188 87.56893157958984 65.40481567382812 89.88570404052734 C 59.73468017578125 92.28397369384766 53.71062850952148 93.5 47.5 93.5 Z" stroke="none"/>
                      <path d="M 47.5 3 C 41.49121475219727 3 35.66376876831055 4.176155090332031 30.17950439453125 6.495796203613281 C 24.88084411621094 8.736953735351562 20.12152099609375 11.94598388671875 16.03375244140625 16.03375244140625 C 11.94598388671875 20.12152099609375 8.736953735351562 24.88084411621094 6.495796203613281 30.17950439453125 C 4.176155090332031 35.66376876831055 3 41.49121475219727 3 47.5 C 3 53.50878524780273 4.176155090332031 59.33623123168945 6.495796203613281 64.82049560546875 C 8.736953735351562 70.11915588378906 11.94598388671875 74.87847900390625 16.03375244140625 78.96624755859375 C 20.12152099609375 83.05401611328125 24.88084411621094 86.26304626464844 30.17950439453125 88.50419616699219 C 35.66376876831055 90.82384490966797 41.49121475219727 92 47.5 92 C 53.50878524780273 92 59.33623123168945 90.82384490966797 64.82049560546875 88.50419616699219 C 70.11915588378906 86.26304626464844 74.87847900390625 83.05401611328125 78.96624755859375 78.96624755859375 C 83.05401611328125 74.87847900390625 86.26304626464844 70.11915588378906 88.50419616699219 64.82049560546875 C 90.82384490966797 59.33623123168945 92 53.50878524780273 92 47.5 C 92 41.49121475219727 90.82384490966797 35.66376876831055 88.50419616699219 30.17950439453125 C 86.26304626464844 24.88084411621094 83.05401611328125 20.12152099609375 78.96624755859375 16.03375244140625 C 74.87847900390625 11.94598388671875 70.11915588378906 8.736953735351562 64.82049560546875 6.495796203613281 C 59.33623123168945 4.176155090332031 53.50878524780273 3 47.5 3 M 47.5 0 C 73.7335205078125 0 95 21.2664794921875 95 47.5 C 95 73.7335205078125 73.7335205078125 95 47.5 95 C 21.2664794921875 95 0 73.7335205078125 0 47.5 C 0 21.2664794921875 21.2664794921875 0 47.5 0 Z" stroke="none" fill="#83793c"/>
                    </g>
                  </g>
                </g>
              </g>
            </g>
          </g>
        </g>
      </g>
    </g>
    <g id="innovative_4443961" transform="translate(642 1689)">
      <g id="Grupo_1206839" data-name="Grupo 1206839">
        <g id="Grupo_1206825" data-name="Grupo 1206825">
          <path id="Trazado_1049723" data-name="Trazado 1049723" d="M32.414,42l4,3,.7-5.56a11.447,11.447,0,0,1,2.01,1.36,11.98,11.98,0,0,1,4.06,6.9l-5.34.71A8.441,8.441,0,0,0,31.414,53a8.342,8.342,0,0,0-6.44-4.55l-4.57-.58a1.007,1.007,0,0,0-.63-.8,12.026,12.026,0,0,1,5.94-7.63l.7,5.56,4-3Z" fill="#5cd6b3"/>
        </g>
        <g id="Grupo_1206826" data-name="Grupo 1206826">
          <path id="Trazado_1049724" data-name="Trazado 1049724" d="M37.114,39.44l-.7,5.56-4-3,2.14-3.57v-.02A11.923,11.923,0,0,1,37.114,39.44Z" fill="#48cfad"/>
        </g>
        <g id="Grupo_1206827" data-name="Grupo 1206827">
          <path id="Trazado_1049725" data-name="Trazado 1049725" d="M28.274,38.43,30.414,42l-4,3-.7-5.56a11.4,11.4,0,0,1,2.56-1.02Z" fill="#48cfad"/>
        </g>
        <g id="Grupo_1206828" data-name="Grupo 1206828">
          <path id="Trazado_1049726" data-name="Trazado 1049726" d="M48.414,53v4h-14v1a3,3,0,0,1-6,0V57h-14V53h34Z" fill="#cf9e76"/>
        </g>
        <g id="Grupo_1206829" data-name="Grupo 1206829">
          <path id="Trazado_1049727" data-name="Trazado 1049727" d="M43.184,47.7l5.23-.7v6h-17a8.441,8.441,0,0,1,6.43-4.59Z" fill="#e6e9ed"/>
        </g>
        <g id="Grupo_1206830" data-name="Grupo 1206830">
          <path id="Trazado_1049728" data-name="Trazado 1049728" d="M31.414,53h-12a1,1,0,0,0,1-1V48a.57.57,0,0,0-.01-.13l4.57.58A8.342,8.342,0,0,1,31.414,53Z" fill="#e6e9ed"/>
        </g>
        <g id="Grupo_1206831" data-name="Grupo 1206831">
          <path id="Trazado_1049729" data-name="Trazado 1049729" d="M16.414,49a2.006,2.006,0,0,1,2-2h1a.857.857,0,0,1,.36.07,1.007,1.007,0,0,1,.63.8.57.57,0,0,1,.01.13v4a1,1,0,0,1-1,1h-1a2.006,2.006,0,0,1-2-2Z" fill="#f0d0b4"/>
        </g>
        <g id="Grupo_1206832" data-name="Grupo 1206832">
          <path id="Trazado_1049730" data-name="Trazado 1049730" d="M34.554,38.41v.02L32.414,42h-2l-2.14-3.57v-.01a11.61,11.61,0,0,1,3.14-.42,12.015,12.015,0,0,1,3.14.41Z" fill="#f0d0b4"/>
        </g>
        <g id="Grupo_1206833" data-name="Grupo 1206833">
          <path id="Trazado_1049731" data-name="Trazado 1049731" d="M47.414,18a4,4,0,1,1,0,8h-2V18Z" fill="#f0d0b4"/>
        </g>
        <g id="Grupo_1206834" data-name="Grupo 1206834">
          <path id="Trazado_1049732" data-name="Trazado 1049732" d="M45.414,18v8a12,12,0,0,1-12,12h-4a12,12,0,0,1-12-12V14h28Z" fill="#f0d0b4"/>
        </g>
        <g id="Grupo_1206835" data-name="Grupo 1206835">
          <path id="Trazado_1049733" data-name="Trazado 1049733" d="M17.414,18v8h-2a4,4,0,1,1,0-8Z" fill="#f0d0b4"/>
        </g>
        <g id="Grupo_1206836" data-name="Grupo 1206836">
          <path id="Trazado_1049734" data-name="Trazado 1049734" d="M36.414,28v1a5,5,0,0,1-10,0V28Z" fill="#ef7385"/>
        </g>
        <g id="Grupo_1206837" data-name="Grupo 1206837">
          <path id="Trazado_1049735" data-name="Trazado 1049735" d="M43.414,10v4h-5.07a6.632,6.632,0,0,0,.07-1,7,7,0,0,0-14,0,6.632,6.632,0,0,0,.07,1h-5.07V10l1.6-.57a11.577,11.577,0,0,1,.53-1.26L20.8,6.64l4.25-4.25,1.53.74a11.578,11.578,0,0,1,1.26-.53l.57-1.6h6l.57,1.6a11.578,11.578,0,0,1,1.26.53l1.53-.74,4.25,4.25-.74,1.53a11.577,11.577,0,0,1,.53,1.26Z" fill="#ffc729"/>
        </g>
        <g id="Grupo_1206838" data-name="Grupo 1206838">
          <path id="Trazado_1049736" data-name="Trazado 1049736" d="M38.414,13a6.632,6.632,0,0,1-.07,1h-4.1a3,3,0,1,0-5.66,0h-4.1a6.632,6.632,0,0,1-.07-1,7,7,0,0,1,14,0Z" fill="#fcd770"/>
        </g>
      </g>
      <g id="Grupo_1206840" data-name="Grupo 1206840">
        <path id="Trazado_1049737" data-name="Trazado 1049737" d="M37.976,49.438l11.563-1.445-.248-1.984-5.314.664a12.975,12.975,0,0,0-6.692-8.261A13.023,13.023,0,0,0,46.365,27h1.051a5,5,0,0,0,0-10h-1V13h-2V9.292L42.59,8.647q-.093-.235-.2-.471l.836-1.748L37.988,1.184l-1.749.836c-.155-.069-.313-.134-.471-.2L35.122,0H27.706l-.644,1.826q-.237.093-.471.2l-1.749-.836L19.6,6.43l.836,1.748c-.069.157-.135.314-.2.471l-1.826.645V13h-2v4h-1a5,5,0,0,0,0,10h1.051a13.022,13.022,0,0,0,9.072,11.409A12.948,12.948,0,0,0,19.051,46h-.635a3,3,0,0,0-3,3v2a2.966,2.966,0,0,0,.184,1H13.416v6h14a4,4,0,1,0,8,0h14V52H33.266a7.323,7.323,0,0,1,4.71-2.562ZM27.81,39.6l1.283,2.138-1.9,1.425L26.8,40.016A10.489,10.489,0,0,1,27.81,39.6ZM30.98,41l-1.129-1.881a10.226,10.226,0,0,1,3.124,0L31.848,41Zm4.034-1.389c.346.12.686.252,1.015.4l-.394,3.151-1.9-1.425ZM47.414,19a3,3,0,0,1,0,6h-1V19Zm-27-8.292,1.393-.491.156-.458a9.84,9.84,0,0,1,.477-1.146l.214-.435-.639-1.334L25.257,3.6l1.335.638.436-.214a9.742,9.742,0,0,1,1.146-.477l.458-.157L29.122,2h4.584L34.2,3.392l.458.157a9.742,9.742,0,0,1,1.146.477l.436.214L37.572,3.6l3.242,3.242-.639,1.334.214.435a9.84,9.84,0,0,1,.477,1.146l.156.458,1.393.491V13h-3a8,8,0,0,0-16,0h-3V10.708Zm9,2.292a2,2,0,0,1,4,0Zm2-4a4,4,0,0,0-4,4h-2a6,6,0,0,1,12,0h-2A4,4,0,0,0,31.414,9Zm-19,13a3,3,0,0,1,3-3h1v6h-1A3,3,0,0,1,12.414,22Zm17,15a11.013,11.013,0,0,1-11-11V15h26V26a11.013,11.013,0,0,1-11,11Zm-4.492,4.122.714,5.712L30.747,43h1.335l5.111,3.834.713-5.706a10.959,10.959,0,0,1,4.069,5.794l-4.247.531a9.315,9.315,0,0,0-6.313,3.683A9.323,9.323,0,0,0,25.1,47.453l-3.99-.5a1.976,1.976,0,0,0-.186-.25,10.941,10.941,0,0,1,4-5.582Zm-3.508,7.885,3.438.43A7.333,7.333,0,0,1,29.563,52h-8.15V49.007Zm-4,1.993V49a1,1,0,0,1,1-1h1v4h-1A1,1,0,0,1,17.414,51Zm30,5h-14v2a2,2,0,0,1-4,0V56h-14V54h32Z"/>
        <path id="Trazado_1049738" data-name="Trazado 1049738" d="M58.121,50.293l-1.414,1.414L59,54H51.414v2H59l-2.293,2.293,1.414,1.414L62.828,55Z"/>
        <path id="Trazado_1049739" data-name="Trazado 1049739" d="M6.121,51.707,4.707,50.293,0,55l4.707,4.707,1.414-1.414L3.828,56h7.586V54H3.828Z"/>
        <path id="Trazado_1049740" data-name="Trazado 1049740" d="M37.414,29V27h-12v2a6,6,0,0,0,12,0Zm-6,4a4,4,0,0,1-4-4h8A4,4,0,0,1,31.414,33Z"/>
        <path id="Trazado_1049741" data-name="Trazado 1049741" d="M27.414,22h2a4,4,0,0,0-8,0h2a2,2,0,0,1,4,0Z"/>
        <path id="Trazado_1049742" data-name="Trazado 1049742" d="M37.414,20a2,2,0,0,1,2,2h2a4,4,0,0,0-8,0h2A2,2,0,0,1,37.414,20Z"/>
        <path id="Trazado_1049743" data-name="Trazado 1049743" d="M62.414,36V34h-10a1,1,0,0,1,0-2h6a3,3,0,0,0,0-6h-1a1,1,0,0,1,0-2h2a3,3,0,0,0,0-6h-1a1,1,0,0,1,0-2h1a3,3,0,0,0,0-6h-11v2h11a1,1,0,0,1,0,2h-1a3,3,0,0,0,0,6h1a1,1,0,0,1,0,2h-2a3,3,0,0,0,0,6h1a1,1,0,0,1,0,2h-6a3,3,0,0,0,0,6Z"/>
        <path id="Trazado_1049744" data-name="Trazado 1049744" d="M10.414,30h-6a1,1,0,0,1,0-2h1a3,3,0,0,0,0-6h-2a1,1,0,0,1,0-2h1a3,3,0,0,0,0-6h-1a1,1,0,0,1,0-2h11V10h-11a3,3,0,0,0,0,6h1a1,1,0,0,1,0,2h-1a3,3,0,0,0,0,6h2a1,1,0,0,1,0,2h-1a3,3,0,0,0,0,6h6a1,1,0,0,1,0,2h-10v2h10a3,3,0,0,0,0-6Z"/>
      </g>
    </g>
  </g>
</svg>
